<svg id="Layer_1" data-name="Layer 1" xmlns="http://www.w3.org/2000/svg" xmlns:xlink="http://www.w3.org/1999/xlink" viewBox="0 0 165.86 165.86"><defs><style>.cls-1{fill:none;}.cls-2{fill:#fff;}.cls-3{clip-path:url(#clip-path);}.cls-4{fill:#c95744;}.cls-5{fill:#242f34;}.cls-6{fill:#642b11;}.cls-7{fill:#a66e54;}.cls-8{fill:#4f2e25;}.cls-9{fill:#ce8d2a;}.cls-10{fill:#010101;}.cls-11{fill:#13110f;}.cls-12{fill:#b15e27;}.cls-13{fill:#df8c26;}.cls-14{fill:#653c29;}.cls-15{fill:#31160e;}.cls-16{fill:#f1eef7;}</style><clipPath id="clip-path"><rect class="cls-1" x="-40.81" y="-1.19" width="248.72" height="167.5"/></clipPath></defs><rect class="cls-2" width="165.86" height="165.86"/><g class="cls-3"><path class="cls-4" d="M41.61,165.12l6.82-34.2L41.82,92s-7.25.63-11.11,12.39c-3.34,12.59-9.65,55.08-9.19,63.2.14,2.43.95,8.23,2,15.17H42.35Z"/><path class="cls-5" d="M57,89.38l-1.85,16.74-3,26.68-.68,6.14c0,.21.66.08.69-.11l1.85-16.73,3-26.69.68-6.14c0-.21-.67-.07-.69.11Z"/><path class="cls-4" d="M136.12,106.55l-5.62,18.64-8-25.88c-.93-3.47-3.33-8.14-6.72-9.33l-8.44-2-5.72,30.52,12.54,30.74c1.16,2.84,5.14,7.47,7.91,8.8,5.1,2.48,11.45,3.87,16.07.74,1.27-.85,3.42-3.86,4.28-5.51,2.09-4,4.39-15.5,4.77-20l3.11-24.66Z"/><path class="cls-4" d="M113.66,177.8a31.48,31.48,0,0,0-1.8-5.38,23.62,23.62,0,0,1-1-5c-1-8.78-1-16-.39-20.23.41-3,4.68-4.81,6.42-10.57,1.52-5-5.83-47.28-5.83-47.28L96.7,85.38l-3.82-.78-.29-.17a2.43,2.43,0,0,0,0,.69l0,.36A12.87,12.87,0,0,1,82.53,92a29.66,29.66,0,0,1-4.41.05c-4.81-.3-8.44-2.62-11.24-6.56l-.09-1.58-9,2.6L40.91,92.26l-.36,34.37c.39,7.08-.21,8.34,2.74,14.79l4.15,4.18.29,21.79s-2.47,5.88-5.48,15.17h72.21C114.15,181.06,113.93,179.3,113.66,177.8Z"/><path class="cls-6" d="M86.85,143.24a20.4,20.4,0,0,0-9.13-1.8c-5,.24-6.62.89-6.62.89s6.9-.07,8.9-.33S86.85,143.24,86.85,143.24Z"/><path class="cls-7" d="M91.56,82.69c-.25-.81,0-9.37,0-9.37l-12.67,2-12.67-2s.25,9.46,0,10.26-7.64,2.56-7.64,2.56,3.86,8.33,20.31,8.33,20.72-8.33,20.72-8.33S91.81,83.49,91.56,82.69Z"/><path class="cls-8" d="M66.22,73.82c.2.15,1.67,2.09,1.88,2.24,5.2,3.68,6,4.69,10.47,4.87,4.49-.18,6.42-.8,11.26-5.3,1.62-1.52,1.27-2,1.62-2.31C83.38,73.3,74.31,73.76,66.22,73.82Z"/><path class="cls-7" d="M58,48.49s-2.43-3.73-3.8-3.58c-.84.09,1.1,2,1.34,4.11.32,2.86-1.8,3.23-1.13,4.85s1.53,7.25,3.75,7c.88-.09,1.78-2,1.78-2S58.77,51,58,48.49Z"/><path class="cls-9" d="M57.3,59a2.1,2.1,0,0,0-2,1.76,1.83,1.83,0,0,0,.33,1.26,1.61,1.61,0,0,0,.81.57,2.31,2.31,0,0,0,2.07-.27c.1-.07.19-.2.06-.28a.53.53,0,0,0-.49,0,1.23,1.23,0,0,1-1.2.12,1.27,1.27,0,0,1-.31-.15.94.94,0,0,1-.25-.24,1.58,1.58,0,0,1,0-1.93,1.39,1.39,0,0,1,.39-.34,1.28,1.28,0,0,1,.5-.15c.13,0,.36-.09.38-.24s-.19-.17-.3-.16Z"/><path class="cls-7" d="M98.51,48.38s2-4,3.43-4c.84,0-.9,2.08-.92,4.23,0,2.87,2.11,3,1.61,4.7s-.79,7.38-3,7.36c-.89,0-2-1.85-2-1.85S98.05,51,98.51,48.38Z"/><path class="cls-7" d="M101.51,50.71v0c-.49,2.49-1.1,5.13-1.52,8.14-1.11,8-3.48,11.62-8.88,15.13-5.67,3.69-7.37,5.13-12.26,5.31-4.9-.18-6.6-1.62-12.26-5.31-5.41-3.51-7.78-7.17-8.88-15.13-.25-1.77-.56-3.41-.88-5-.23-1.16-.47-2.27-.68-3.36v-.06c-.78-4-1.25-7.68-.18-12.13C57,33.74,60.85,28,66.65,24.42h0A22.83,22.83,0,0,1,78.84,20.9C91.4,20.9,100,31,101.74,38.35,102.82,42.89,102.31,46.63,101.51,50.71Z"/><path class="cls-10" d="M80.46,61a2.21,2.21,0,0,1-2.32-.11c-.14-.11-.63,0-.43.16a3.09,3.09,0,0,0,3.15.09c.09-.06.07-.13,0-.17a.47.47,0,0,0-.37,0"/><path class="cls-10" d="M77.38,60.86a5.18,5.18,0,0,0-1.7-.42.45.45,0,0,0-.26.08s-.06.11,0,.14a1.89,1.89,0,0,0,.94.22.34.34,0,0,0,.28-.11c.06-.08,0-.14-.12-.13a1.49,1.49,0,0,1-.75-.18l-.26.22a4.37,4.37,0,0,1,1.52.39.37.37,0,0,0,.31,0c.07,0,.13-.12,0-.17"/><path class="cls-10" d="M75.07,60.94a1.92,1.92,0,0,1-1.55-.83,1.71,1.71,0,0,1,.7-2.2c.08,0,0-.12,0-.14a.41.41,0,0,0-.31.07,2,2,0,0,0-1,1.87,1.71,1.71,0,0,0,1.34,1.35,2.68,2.68,0,0,0,.64.11c.09,0,.25,0,.29-.11s0-.12-.12-.12"/><path class="cls-10" d="M81.15,60.86a5.12,5.12,0,0,1,1.7-.42.5.5,0,0,1,.26.08s.06.11,0,.14a1.85,1.85,0,0,1-.93.22.38.38,0,0,1-.29-.11c0-.08.05-.14.12-.13a1.52,1.52,0,0,0,.76-.18l.25.22a4.43,4.43,0,0,0-1.52.39.38.38,0,0,1-.31,0c-.06,0-.13-.12,0-.17"/><path class="cls-10" d="M83.45,60.94A1.9,1.9,0,0,0,85,60.11a1.72,1.72,0,0,0-.69-2.2c-.08,0,0-.12,0-.14a.42.42,0,0,1,.31.07,2,2,0,0,1,1,1.87,1.72,1.72,0,0,1-1.34,1.35,2.85,2.85,0,0,1-.65.11c-.08,0-.24,0-.28-.11s0-.12.11-.12"/><path class="cls-11" d="M84.78,43.33c0,.45,0,.9,0,1.36s0,.69,0,1c1.26-.29,2.33-.49,3.15-.61a11.24,11.24,0,0,1,3.59-.26,9.85,9.85,0,0,1,2.29.66,5.57,5.57,0,0,1,1.2.58c.85.55,1.2,1.19,1.34,1.13s-.09-.61-.11-.66a5.28,5.28,0,0,0-1.81-2.29,7,7,0,0,0-2.32-1,26.26,26.26,0,0,0-7.35,0"/><path class="cls-11" d="M89.13,48.79a1.57,1.57,0,0,1,1.67.3,1.48,1.48,0,0,1,.44.7,1.51,1.51,0,0,1-.36,1.39,1.42,1.42,0,0,1-1.63.29,1.58,1.58,0,0,1-.78-1.83,1.44,1.44,0,0,1,.66-.85"/><path class="cls-11" d="M84.52,50.91s3.1-2.25,4.68-2.4c2.32-.21,5.17,1,6,2,0,0-3.77-1.77-5.4-1.58A27.58,27.58,0,0,0,84.52,50.91Z"/><path class="cls-11" d="M73.61,43.38c0,.45,0,.9,0,1.36s0,.69,0,1c-1.25-.29-2.33-.49-3.14-.62a11.55,11.55,0,0,0-3.6-.25,10.21,10.21,0,0,0-2.28.65,6.8,6.8,0,0,0-1.21.58c-.85.56-1.2,1.2-1.33,1.14s.08-.61.1-.66a5.5,5.5,0,0,1,1.81-2.3,7,7,0,0,1,2.33-1,26.26,26.26,0,0,1,7.35,0"/><path class="cls-11" d="M69.25,48.84a1.51,1.51,0,0,0-1.75,2.39,1.44,1.44,0,0,0,1.64.29,1.57,1.57,0,0,0,.77-1.83,1.36,1.36,0,0,0-.66-.85"/><path class="cls-11" d="M73.87,51s-3.1-2.25-4.69-2.4c-2.31-.21-5.16,1-6,2,0,0,3.77-1.78,5.39-1.58A27.47,27.47,0,0,1,73.87,51Z"/><path class="cls-12" d="M52.33,29.71a45.65,45.65,0,0,1,23.58-3.37c13.24,1.68,19.6,10,21.83,16a42.69,42.69,0,0,1,2.45,12s3.25,1.65,5.62-10.46C109.25,26.18,89.93,10.6,85.65,10.6S58.48,10,52.33,29.71Z"/><path class="cls-12" d="M54.71,24.55S52.49,10.63,62.08,8s29.8-7.28,35.7,5.43Z"/><path class="cls-13" d="M54.21,53.15a8.42,8.42,0,0,1-2.11-3.61C51,45.78,49.16,38,50.88,34.56c.74-1.5,1-6,1.11-7.3.38-6.89-1.26-4.78,8.43-12.61S71.79,9,86.33,9.91,105,15.55,103.91,29.18c0,0-19.57-5.63-28.8-.64S56,49.6,56.62,55.38A15.71,15.71,0,0,1,54.21,53.15Z"/><path class="cls-12" d="M50.39,41.49s14.8-18.92,32.1-19.09c0,0-22.15-2.88-32,13.1Z"/><path class="cls-12" d="M103.79,22.87s-17.1-6.21-23.65-6.75,20.71.5,23.33,3.48Z"/><ellipse class="cls-2" cx="79.26" cy="66.78" rx="5.75" ry="1.21"/><path class="cls-9" d="M100.37,59.55A1.68,1.68,0,0,1,102,60.87a1.59,1.59,0,0,1-.15,1.09,1.24,1.24,0,0,1-.29.39l-.07.06,0,0-.1.06-.17.08-.07,0c.06,0-.06,0,0,0l-.12,0a1.47,1.47,0,0,1-.84-.2.64.64,0,0,0-.43.05s-.3.12-.21.17a2.29,2.29,0,0,0,1.83.09,2.2,2.2,0,0,0,.86-.47,1.72,1.72,0,0,0,0-2.38,1.91,1.91,0,0,0-1.42-.58.94.94,0,0,0-.48.13c-.1.06-.1.13,0,.13Z"/><path class="cls-14" d="M79.39,65.59c-3.3,0-8.66-.38-8.66-.38s1,6.37,8.66,6.37,8.67-6.37,8.67-6.37S82.7,65.59,79.39,65.59Z"/><path class="cls-15" d="M79.43,65.59c-1.58,0-7.91-.26-7.91-.26s2.09,3.38,7.78,3.38c6.16,0,8-3.33,8-3.33Z"/><path class="cls-16" d="M79.5,65.82c-1.58,0-6.36-.26-6.36-.26s1.72,1.68,6.44,1.68,6.21-1.63,6.21-1.63Z"/><path class="cls-14" d="M88.41,64.74a12,12,0,0,1-1.87.19c-1.3-.11-2.87-.44-3.81-.51-1.61-.12-2.64.5-3.34.5s-1.72-.62-3.33-.5c-.94.07-2.51.4-3.82.51a12,12,0,0,1-1.86-.19c-.23.06.22,1.72,9,1.72S88.64,64.8,88.41,64.74Z"/><path class="cls-7" d="M139.54,104.26s-2.76-6.21-2.48-9.34c.08-.88-2.1-8.77-2.1-8.77s1.77-1.3,3.2,1.68,2,4.23,2,4.23l.77.63,3.41-4.4s3.05-5.62,3.91-6.9,2.57-4.13,4.48-3.59c0,0,1.12-2.19,2.21-1.78a1.79,1.79,0,0,1,1.23,1.07l-.26,1.17s.56-.44,1.36.44S154,89.35,154,89.35l.14.66s3.73-6.08,4.38-5.94,1.21.16,1,1.3-6,14.83-10.4,20.42l-.89,2.49-9.66-1.38Z"/><path class="cls-8" d="M155.36,78.51a33.47,33.47,0,0,1-2.1,5,33.39,33.39,0,0,1-2.49,4.83,34.31,34.31,0,0,1,2.09-5A34,34,0,0,1,155.36,78.51Z"/><path class="cls-8" d="M152.89,77.88c.1.06-1.08,2.12-2.36,4.75s-2.2,4.82-2.32,4.77a20.9,20.9,0,0,1,1.92-5A20.17,20.17,0,0,1,152.89,77.88Z"/><path class="cls-8" d="M142.48,92.79a11.24,11.24,0,0,1,5.49,7.9S147.63,92.77,142.48,92.79Z"/><path class="cls-6" d="M130.72,124.82s-5.09,11.41-5.5,16.82l-.66-1.33S127.05,128.45,130.72,124.82Z"/><path class="cls-6" d="M47.88,146.38c-.68-1.44-2.39-2.56-3.38-3.8a14.36,14.36,0,0,1-3.22-8.05,30.41,30.41,0,0,1,1-8.5c.61-2.48,1.35-4.18,1.93-6.67a47.27,47.27,0,0,0,1.53-7.16,10.62,10.62,0,0,0-1.21-6.27c1.77,3,.78,7.51-.17,10.6s-2.25,7.39-2.81,9.65c-1,4-2,11.39,1.19,15.28s3.84,4,4.27,4.95c.35.79.45,4.37.48,5.81C47.63,149.52,48.63,148,47.88,146.38Z"/><path class="cls-6" d="M47.46,152.22a11.41,11.41,0,0,0,0,1.93v-1.32S47.47,152.59,47.46,152.22Z"/><path class="cls-6" d="M110.12,152.27c0,.84-.07,1.42-.07,1.42A12.12,12.12,0,0,0,110.12,152.27Z"/><path class="cls-6" d="M116.17,126.34c-.89-3.65-2.29-7.15-3.16-10.79-.75-3.14-1.3-6.86.3-9.84a10.55,10.55,0,0,0-1.34,6.91c.82,5.91,2.7,9.66,4,15.46a25.41,25.41,0,0,1,.12,8.91,17.08,17.08,0,0,1-4.9,7.95,6.72,6.72,0,0,0-1.36,1.6c-.79,1.69.27,2.84.3,5.73a33.13,33.13,0,0,1,.6-5.7c.43-1,1.11-1,4.27-4.95S117.17,130.37,116.17,126.34Z"/></g></svg>