<svg xmlns="http://www.w3.org/2000/svg" viewBox="0 0 165.86 165.86"><defs><style>.cls-1{fill:#e1d39a;}.cls-2{fill:#c7b476;}.cls-3{fill:#a38e54;}.cls-4{fill:#c2e3ce;}.cls-5{fill:#e2f2ef;}.cls-6{fill:#3c8e8a;}.cls-7{fill:#5fb2ac;}.cls-8{fill:#b7d773;}.cls-9{fill:#86a54d;}.cls-10{fill:#e48e26;}.cls-11{fill:#faa548;}.cls-12{fill:#d4d3ce;}.cls-13{fill:#7a796f;}.cls-14{fill:#eaeaea;}.cls-15{fill:#9b9a95;}.cls-16{fill:#f26653;}.cls-17{fill:#c6c5c2;}.cls-18{fill:#4974b5;}.cls-19{fill:#7199d0;}.cls-20{fill:#ba322f;}.cls-21{opacity:0.58;}.cls-22{fill:#fff;}.cls-23{fill:#bbbab3;}.cls-24{fill:#6b6b6b;}.cls-25{fill:#8c8a83;}.cls-26{fill:#61605c;}.cls-27{fill:#4a9743;}.cls-28{fill:#704497;}.cls-29{fill:#755037;}.cls-30{fill:#fee994;}.cls-31{fill:#d2d0cc;}.cls-32{fill:#ededee;}</style></defs><g id="Layer_3" data-name="Layer 3"><polygon class="cls-1" points="121.47 146.22 140.29 146.22 142.31 141.8 123.49 141.8 121.47 146.22"/><rect class="cls-1" x="112.35" y="146.22" width="18.82" height="11.89"/><rect class="cls-2" x="131.17" y="146.22" width="9.11" height="11.89" transform="translate(271.46 304.32) rotate(-180)"/><polygon class="cls-2" points="131.17 146.22 112.36 146.22 109.09 142.86 127.91 142.86 131.17 146.22"/><polygon class="cls-3" points="131.17 146.22 140.29 146.22 143.55 142.86 134.44 142.86 131.17 146.22"/><path class="cls-4" d="M26.19,33.55a2.83,2.83,0,0,0,1.41-2L28,29.12a6.57,6.57,0,0,0-3.49-6.88l.56-3.54L21,18.06l-.56,3.53A6.59,6.59,0,0,0,15,27.07l-.39,2.45a2.78,2.78,0,0,0,.73,2.31,1.75,1.75,0,0,1,.43,1.43,1.73,1.73,0,0,1-.85,1.23,2.79,2.79,0,0,0-1.4,2l-3,19a2.72,2.72,0,0,0,2.15,3.11,2.69,2.69,0,0,0,3.14-2.22l2.43.38a2.68,2.68,0,0,0,2.3,3.08,2.72,2.72,0,0,0,3-2.3l3-19a2.77,2.77,0,0,0-.72-2.31,1.73,1.73,0,0,1,.41-2.66Z"/><path class="cls-4" d="M13.2,51.89l-.62,3.94c1.15.18,1.43,3,4,3.35s3.69-2.14,4.83-2L22,53.28Z"/><path class="cls-5" d="M25.33,35h0Z"/><path class="cls-5" d="M25.35,35.33Z"/><path class="cls-5" d="M24.49,22.24l.56-3.54-1.25-.2-2.15-.34-.56,3.54c-1.49.65-2.86,2.93-3.31,5.81h0a2.47,2.47,0,0,0,2.06,2.84l7.76,1.22L28,29.12A6.57,6.57,0,0,0,24.49,22.24Z"/><path class="cls-5" d="M25.33,35.15h0Z"/><path class="cls-5" d="M25.81,36.24a1.73,1.73,0,0,1-.42-.73h0l-7-1.11a1.34,1.34,0,0,0-1.18.42l0,0a4.07,4.07,0,0,0-.89,2.06L13.91,52.06a3.06,3.06,0,0,0,2.55,3.5l5.17.82A2,2,0,0,0,24,54.68L26.5,38.52A2.67,2.67,0,0,0,25.81,36.24Z"/><rect class="cls-6" x="20.54" y="17.9" width="4.72" height="2.27" transform="translate(3.24 -3.33) rotate(8.95)"/><rect class="cls-4" x="20.01" y="20.51" width="5.25" height="0.42" transform="translate(3.5 -3.27) rotate(8.95)"/><rect class="cls-4" x="20.59" y="20.16" width="4.15" height="0.77" transform="translate(3.47 -3.27) rotate(8.95)"/><rect class="cls-7" x="21.52" y="17.98" width="3.73" height="2.27" transform="translate(3.26 -3.4) rotate(8.95)"/><path class="cls-8" d="M103.77,97.7a24.21,24.21,0,0,1,1.89-23.87,16.78,16.78,0,0,1,4.24,12.28A17.17,17.17,0,0,1,103.77,97.7Z"/><path class="cls-9" d="M119.78,98a16,16,0,0,0-7.87-18.12C111.21,86,113.16,95.91,119.78,98Z"/><path class="cls-8" d="M143.92,89.65l-.21-.16a.23.23,0,0,1-.07-.07.48.48,0,0,1-.17,0,.6.6,0,0,1-.34-.34v0a.74.74,0,0,1,0-.14.64.64,0,0,1,0-.24.65.65,0,0,1,.24-.33.82.82,0,0,1,.65-.13h0l.27,0,.11,0h0l.18,0h0l.06,0,.05-.06s0,0,0-.05l0,0s0,0,0-.06a.28.28,0,0,0,0-.06h0l0-.08c-.06-.1-.14-.2-.21-.31l-.08-.12a1.08,1.08,0,0,1-.18-.24,1.54,1.54,0,0,1-.17-.34.76.76,0,0,1-.17-.23.58.58,0,0,1,0-.39.92.92,0,0,1,.13-.24.39.39,0,0,1,.08-.1.86.86,0,0,1,.38-.27,1,1,0,0,1,.73,0,1,1,0,0,1,.24.14,1.05,1.05,0,0,1,0-.47,1.52,1.52,0,0,0-.19-.49,1.49,1.49,0,0,1-1-.32,2.4,2.4,0,0,1-.6-1l-.68.23a6,6,0,0,1-.82.93,1.18,1.18,0,0,1-1.31,0,16.65,16.65,0,0,0-6.61,7,11.27,11.27,0,0,0-1.07,8.46,4.3,4.3,0,0,0,4-.19,24.13,24.13,0,0,0,4.21-2.51,11.71,11.71,0,0,0,2.58-2.9.41.41,0,0,1,0-.31,2.51,2.51,0,0,0,.14-.76.38.38,0,0,1,0-.1.32.32,0,0,1,0-.09l0-.07a.18.18,0,0,0,0-.07,7.33,7.33,0,0,1-.86-1.15,1.55,1.55,0,0,1,.47-1.65l.19-.22s.08-.14.05-.08l0-.08h0s0,0,0,0S143.93,89.66,143.92,89.65Z"/><path class="cls-9" d="M134.54,98.6a12.85,12.85,0,0,0-1.78-13.28,11,11,0,0,0-1.14,6.85A11.31,11.31,0,0,0,134.54,98.6Z"/><path class="cls-9" d="M127.66,84.41a3,3,0,0,1,.66-1.34,5,5,0,0,1,1.15-.69,2.33,2.33,0,0,0,.81-.75c.4-.64.07-1.44.13-2.14a2.65,2.65,0,0,1,.34-1.13l.1-.16h0a1.39,1.39,0,0,0-.16-.35c-.19-.27-.47-.43-.61-.74a1.47,1.47,0,0,1,.06-1.16c.29-.63,1.06-.83,1.56-1.24a.26.26,0,0,0,.09-.09h0s0-.06,0,0h0a.85.85,0,0,0,0-.32c-.05-.4-.42-.68-.3-1.13a1.08,1.08,0,0,1,.3-.46h0v-.1l0-.22a.81.81,0,0,0,0-.15s0-.07,0-.09h0l-.16-.06h0l0,0-.27.08a2.11,2.11,0,0,1-.79.12.66.66,0,0,1-.61-.46,18.49,18.49,0,0,0-10.83,4.53,14.15,14.15,0,0,0-4.48,13.43c4.7-.48,9.22-1.78,12.87-4.76C127.57,84.83,127.61,84.62,127.66,84.41Z"/><path class="cls-8" d="M132.53,98a.7.7,0,0,0,.07-.38c0-.15-.27-.33-.46-.5a2.57,2.57,0,0,1-.7-.87,2.82,2.82,0,0,1-.13-1.32,1.94,1.94,0,0,0,0-.33h0l-.15,0a2.85,2.85,0,0,0-1,0c-1,.1-1.06-1.09-.83-1.78.15-.45.34-.78,0-1.19A3.09,3.09,0,0,0,127.9,91c-1.21-.42-2.5-.62-3.67-1.16a9.25,9.25,0,0,1-.87-.49,2.5,2.5,0,0,0-.62-.34c-.52-.17-.81.27-1.28.39a1.13,1.13,0,0,1-1.2-.4c-.07-.1-.12-.21-.24-.26a1.22,1.22,0,0,0-.57,0c-.78.12-1.48.54-2.27.62a1.64,1.64,0,0,1-1.25-.33,8.86,8.86,0,0,0,2.24,5.36,16.13,16.13,0,0,0,6.14,4,13.23,13.23,0,0,0,7.78.42A3,3,0,0,0,132.53,98Z"/><path class="cls-10" d="M52.35,99.58c7.73-4.82,16.38-.61,24.1-6.49,6.3-4.63,9.35-14.93,13.41-21.73a3.39,3.39,0,0,1,1.74.31,1.4,1.4,0,0,1,.56.67C88.44,81.25,86.59,90.67,78.09,97c-8.85,5.81-16.62,1.28-23.67,4.19A6.85,6.85,0,0,1,52.35,99.58Z"/><path class="cls-10" d="M51,79.89a5.48,5.48,0,0,1-1.3-2.31,23.69,23.69,0,0,1,7.13.71c8.3,2.12,11.65,7.86,17.29,10.69A22.65,22.65,0,0,0,91.4,90c.09,0,.16,0,.3-.1a23.4,23.4,0,0,0,4.38-2.08c1.24-.34,2.54-.39,3,.78l0,0c-6.63,6.61-18.16,8.5-26.95,4C65.51,89.19,63,83.45,55.92,81a18.93,18.93,0,0,0-4.9-1S51,79.9,51,79.89Z"/><path class="cls-11" d="M74.53,80.42c-3.94.29-7.16,2-8.46,4.33-1.51,2.62-.64,6,2,8.4s7.29,4,11.72,5.67c4,1.41,8.1,2.64,12.28,3.74.59.69.25,1.44-1.12,1.6a95.73,95.73,0,0,1-19.51-5.49,25.88,25.88,0,0,1-5.07-2.73c-5-3.49-6.26-8.71-3.52-12.44a12.34,12.34,0,0,1,6.93-4.19A8.17,8.17,0,0,1,74.53,80.42Z"/><path class="cls-11" d="M72.54,77.87a24.57,24.57,0,0,0-2.65-.71c-.86-1,.44-1.69,1.73-2.14,14.6,2.34,23,14.41,28.68,27.62a5.57,5.57,0,0,1-1.77,1.92C92.43,95.61,85.59,82.69,72.54,77.87Z"/><path class="cls-11" d="M57.35,88.05a12.92,12.92,0,0,0,2.46,4,14.89,14.89,0,0,0,12.06,4.83c5-.45,9.92-4.06,12.28-9.32.76-.58,2-1.36,2.87-.75-1.17,8.7-10.69,17.26-21.86,13.17a16.6,16.6,0,0,1-3.66-2.08,17.49,17.49,0,0,1-6.27-9.06Z"/><polygon class="cls-1" points="52.64 124.2 15.23 124.2 11.2 111.78 48.61 111.78 52.64 124.2"/><rect class="cls-1" x="33.34" y="124.2" width="37.41" height="33.41" transform="translate(104.1 281.81) rotate(-180)"/><rect class="cls-2" x="15.23" y="124.2" width="18.12" height="33.41"/><polygon class="cls-2" points="33.34 124.2 70.75 124.2 77.25 114.77 39.83 114.77 33.34 124.2"/><polygon class="cls-3" points="33.34 124.2 15.23 124.2 8.73 114.77 26.85 114.77 33.34 124.2"/><rect class="cls-12" x="74.88" y="130.49" width="24.76" height="26.25" transform="translate(-11.34 7.53) rotate(-4.64)"/><rect class="cls-12" x="84.31" y="134.21" width="24.76" height="22.34" transform="translate(17.13 -10.04) rotate(6.52)"/><rect class="cls-12" x="58.71" y="136.13" width="3.01" height="38.03" transform="translate(-94.94 215.36) rotate(-90)"/><rect class="cls-13" x="56.06" y="132.92" width="3.01" height="38.03" transform="translate(-94.37 209.51) rotate(-90)"/><rect class="cls-14" x="56.81" y="134.24" width="1.51" height="38.03" transform="translate(-95.7 210.83) rotate(-90)"/><rect class="cls-14" x="56.81" y="137.64" width="1.51" height="38.03" transform="translate(-99.09 214.22) rotate(-90)"/><rect class="cls-14" x="77.73" y="129.2" width="29.68" height="28.8"/><path class="cls-14" d="M78.73,130.2h28.68v-2H78.73a1,1,0,0,0-1,1h0A1,1,0,0,0,78.73,130.2Z"/><rect class="cls-13" x="80.16" y="131.02" width="16.09" height="4.27"/><rect class="cls-15" x="97.16" y="137.02" width="7.58" height="14.82"/><rect class="cls-15" x="80.16" y="137.02" width="16.09" height="7.41"/><rect class="cls-15" x="80.16" y="145.22" width="16.09" height="0.92"/><rect class="cls-15" x="80.16" y="146.65" width="16.09" height="0.92"/><rect class="cls-15" x="80.16" y="148.07" width="16.09" height="0.92"/><rect class="cls-15" x="80.16" y="149.49" width="16.09" height="0.92"/><rect class="cls-15" x="80.16" y="150.91" width="16.09" height="0.92"/><rect class="cls-13" x="80.16" y="131.02" width="16.09" height="4.27"/><rect class="cls-13" x="97.16" y="131.02" width="3.08" height="4.27"/><rect class="cls-13" x="100.95" y="131.02" width="3.79" height="4.27"/><path class="cls-16" d="M23.39,52.6c.05,1.3,2.34,2.27,5.12,2.17s5-1.23,4.95-2.53L34.6,41.91l-13.09.46Z"/><rect class="cls-17" x="24.37" y="34.65" width="7.37" height="14.97" rx="1.75" transform="translate(-13.06 71.68) rotate(-92.04)"/><path class="cls-18" d="M92.36,30.18,78,27.41l-.47,0q-.9,0-1.8,0a9.39,9.39,0,0,0-1.5.25,5.63,5.63,0,0,1-2.51.18,4,4,0,0,1-2.15-1.51A10,10,0,0,0,67.8,24.4a3.81,3.81,0,0,0-2.35-.61,2.13,2.13,0,0,1-1.68-.44,4.3,4.3,0,0,1-.78-1.1c-.25-.46-.47-.93-.71-1.4a9.3,9.3,0,0,0-1.46-2.19L53.13,13a12.69,12.69,0,0,0-14.86-.1L32.71,8.85,28,15.28l5.55,4.08a12.69,12.69,0,0,0,4.58,14.13l9.42,6.91a6.61,6.61,0,0,0,2.52,1c.44.1.88.17,1.32.23s.87.13,1.3.21a7.05,7.05,0,0,1,1.28.32c1.61.61,2.36,2.21,3.18,3.6a11.9,11.9,0,0,0,3.25,3.7l.35.23a12.27,12.27,0,0,0,2.46.75l24.35,4.7a5.23,5.23,0,0,0,6.12-3.93A5.17,5.17,0,0,0,89.62,45l.89-4.64a5.17,5.17,0,0,0,6.08-4.24A5.23,5.23,0,0,0,92.36,30.18Z"/><path class="cls-18" d="M80.9,49.64l7.54,1.45c.42-2.19,5.75-2.55,6.69-7.45s-3.86-7.23-3.44-9.41l-7.54-1.46Z"/><path class="cls-19" d="M87,29.14l-6.74-1.3c-2-.35-5.74,1.75-8.47,1.78-1.8-.36-2.28-2.24-3.69-3.24a2.16,2.16,0,0,0-3,.38C62.36,29.47,66.56,37.24,62.09,38c-3.17-.91-.52-8.76-.66-10.35.19-3.14,0-6.26-1.7-9-1.2-1.92-1.43-1.66-4.12-3.72C49.58,9.78,44,9.26,38.24,12.9L32.71,8.85,28.8,14.19c0,.14,5.86,4,5.55,4.21,0,5.37,5.72,9.88,9.7,12.62l3.32,2.44.1,0a3.91,3.91,0,0,0,1.45.54,1.47,1.47,0,0,0,1.13-.46,6.55,6.55,0,0,0,1.25-2,26.39,26.39,0,0,0,1-2.87c.14-.47.29-.94.44-1.41s.31-.84.41-1.26a4.37,4.37,0,0,1,.8-1.8A1.15,1.15,0,0,1,55.47,24a2.16,2.16,0,0,1,.75,1.39,8.71,8.71,0,0,1,.2,1.84,11.63,11.63,0,0,1,0,1.32,28.19,28.19,0,0,1-.61,3.3,12.23,12.23,0,0,0-.33,3.56,3.39,3.39,0,0,0,.42,1.42,2.26,2.26,0,0,0,1.17.94,4.05,4.05,0,0,1,1.87,1,8.21,8.21,0,0,1,.73,1.17L60.31,41a7.2,7.2,0,0,0,1.49,1.89,4.7,4.7,0,0,0,.53.38C64.71,43.53,66,42,66,39.87c.68-4.06-2.81-12,.83-10.58,1.89,2,1.72,5,2.16,7.62.46,5.91,3.68,9.83,9.09,10.77,3.13.55,5.66,1.46,8.12-.72,2.55-2.46,1.86-4.19,3.1-9.38C90.13,33.39,91.29,30.55,87,29.14Z"/><path class="cls-5" d="M60.79,22.72h0Z"/><path class="cls-5" d="M61.43,23h0Z"/><path class="cls-5" d="M61.1,22.88h0Z"/><rect class="cls-20" x="26.85" y="10.64" width="9.08" height="4.37" transform="translate(2.49 30.56) rotate(-53.76)"/><rect class="cls-19" x="28.97" y="14.36" width="10.11" height="0.8" transform="translate(2.01 33.48) rotate(-53.76)"/><rect class="cls-19" x="29.76" y="13.81" width="7.98" height="1.48" transform="translate(2.06 33.18) rotate(-53.76)"/><g class="cls-21"><path class="cls-22" d="M59.48,23.9a.66.66,0,0,1-.13.52.72.72,0,0,1-1,.16L47.68,16.75a11.14,11.14,0,0,0-7.36-2.34.71.71,0,0,1-.77-.65.72.72,0,0,1,.64-.78,12.64,12.64,0,0,1,8.34,2.62L59.2,23.42A.71.71,0,0,1,59.48,23.9Z"/></g><g class="cls-21"><path class="cls-22" d="M87.29,34.58a.59.59,0,0,1,0,.23.71.71,0,0,1-.84.57L74.18,33a.71.71,0,0,1-.57-.83.72.72,0,0,1,.84-.57L86.72,34A.72.72,0,0,1,87.29,34.58Z"/></g><rect class="cls-16" x="28.37" y="9.87" width="7.17" height="4.37" transform="translate(3.34 30.7) rotate(-53.76)"/><path class="cls-23" d="M74.52,59.91l-23.91-.37c-.72,0-.66-.56-.74-1.28l-1-14.33,25.89.41Z"/><path class="cls-23" d="M85.88,60.08l-11.36-.17.23-15.57L89,44.56,87.4,58.74A1.51,1.51,0,0,1,85.88,60.08Z"/><path class="cls-23" d="M48.34,44.13H76.75a0,0,0,0,1,0,0V46a0,0,0,0,1,0,0H48.34a.57.57,0,0,1-.57-.57V44.7a.57.57,0,0,1,.57-.57Z" transform="translate(0.68 -0.93) rotate(0.86)"/><path class="cls-23" d="M75.31,44.46H90a0,0,0,0,1,0,0v1.89a0,0,0,0,1,0,0H75.31a.57.57,0,0,1-.57-.57V45a.57.57,0,0,1,.57-.57Z" transform="translate(164.09 92.04) rotate(-179.14)"/><rect class="cls-24" x="62.73" y="32.37" width="0.36" height="27.65" transform="translate(15.76 108.4) rotate(-89.14)"/><rect class="cls-24" x="81.54" y="39.51" width="0.36" height="14" transform="translate(33.99 127.53) rotate(-89.14)"/><rect class="cls-24" x="64.85" y="52.96" width="9.64" height="0.36" transform="translate(15.49 122.01) rotate(-89.14)"/><rect class="cls-24" x="47.55" y="52.7" width="9.64" height="0.36" transform="translate(-1.29 104.46) rotate(-89.14)"/><rect class="cls-24" x="51.88" y="52.77" width="9.64" height="0.36" transform="translate(2.91 108.84) rotate(-89.14)"/><rect class="cls-24" x="56.2" y="52.83" width="9.64" height="0.36" transform="translate(7.1 113.23) rotate(-89.14)"/><rect class="cls-24" x="60.52" y="52.9" width="9.64" height="0.36" transform="translate(11.29 117.62) rotate(-89.14)"/><rect class="cls-24" x="73.48" y="53.09" width="9.64" height="0.36" transform="translate(23.86 130.76) rotate(-89.14)"/><rect class="cls-24" x="69.16" y="53.19" width="9.64" height="0.36" transform="translate(19.51 126.55) rotate(-89.14)"/><rect class="cls-24" x="80.23" y="53.19" width="9.64" height="0.36" transform="translate(30.4 137.61) rotate(-89.14)"/><rect class="cls-24" x="76.85" y="53.14" width="9.64" height="0.36" transform="translate(27.13 134.19) rotate(-89.14)"/><ellipse class="cls-25" cx="28.06" cy="42.14" rx="6.55" ry="3.06" transform="translate(-1.48 1.03) rotate(-2.04)"/><path class="cls-26" d="M27.87,45.2l-.22-6.1c-3.47.19-6.2,1.63-6.14,3.27S24.39,45.25,27.87,45.2Z"/><path class="cls-4" d="M132.08,57.41a2.78,2.78,0,0,0,2.23,1l2.47-.15a6.57,6.57,0,0,0,6-4.87l3.58-.2L146.11,49l-3.57.2A6.6,6.6,0,0,0,136,45.06l-2.48.14a2.79,2.79,0,0,0-2.1,1.2,1.74,1.74,0,0,1-2.69.16,2.81,2.81,0,0,0-2.23-1l-19.18,1.11a2.72,2.72,0,0,0-2.59,2.76,2.69,2.69,0,0,0,2.84,2.59l.14,2.46a2.68,2.68,0,0,0-2.52,2.91,2.72,2.72,0,0,0,2.88,2.44l19.19-1.1a2.79,2.79,0,0,0,2.1-1.2,1.71,1.71,0,0,1,1.31-.72A1.74,1.74,0,0,1,132.08,57.41Z"/><path class="cls-4" d="M111.4,48.61l-4,.23c.07,1.15-2.57,2-2.42,4.61s2.87,3.14,2.94,4.3l4-.23Z"/><path class="cls-5" d="M130.51,56.87h0Z"/><path class="cls-5" d="M130.16,57Z"/><path class="cls-5" d="M142.77,53.35l3.58-.2-.08-1.27-.12-2.17-3.57.21c-1-1.33-3.48-2.18-6.39-2h0a2.48,2.48,0,0,0-2.33,2.62l.45,7.84,2.47-.15A6.57,6.57,0,0,0,142.77,53.35Z"/><path class="cls-5" d="M130.33,56.91h0Z"/><path class="cls-5" d="M129.36,57.61A1.76,1.76,0,0,1,130,57h0L129.59,50a1.3,1.3,0,0,0-.66-1.06l0,0a4.2,4.2,0,0,0-2.2-.44l-15.3.88a3.07,3.07,0,0,0-2.89,3.24l.3,5.22A2,2,0,0,0,111,59.71l16.34-.94A2.68,2.68,0,0,0,129.36,57.61Z"/><rect class="cls-6" x="143.2" y="49.98" width="4.72" height="2.27" transform="translate(188.25 -97.13) rotate(86.71)"/><rect class="cls-4" x="141.24" y="51" width="5.25" height="0.42" transform="translate(186.75 -95.35) rotate(86.71)"/><rect class="cls-4" x="141.97" y="50.82" width="4.15" height="0.77" transform="translate(186.91 -95.54) rotate(86.71)"/><rect class="cls-7" x="143.73" y="50.47" width="3.73" height="2.27" transform="translate(188.77 -96.7) rotate(86.71)"/><path class="cls-27" d="M38,59.28c.61,1.14,3.1,1,5.55-.29s3.95-3.3,3.34-4.45l-3.5-9.79L31.84,50.91Z"/><rect class="cls-17" x="33.93" y="40.34" width="7.37" height="14.97" rx="1.75" transform="translate(13.09 103.52) rotate(-118.05)"/><ellipse class="cls-25" cx="37.62" cy="47.83" rx="6.55" ry="3.06" transform="translate(-18.07 23.31) rotate(-28.05)"/><path class="cls-26" d="M38.79,50.67l-2.87-5.39c-3,1.7-4.86,4.18-4.08,5.63S35.69,52.24,38.79,50.67Z"/><path class="cls-28" d="M95.28,55.52c-.48,1.2,1.21,3,3.79,4.06s5.07.9,5.55-.3l5.25-9L97.72,45.41Z"/><rect class="cls-17" x="100.11" y="40.37" width="7.37" height="14.97" rx="1.75" transform="translate(20.64 126.26) rotate(-68.07)"/><ellipse class="cls-25" cx="103.8" cy="47.85" rx="3.06" ry="6.55" transform="translate(20.64 126.26) rotate(-68.07)"/><path class="cls-26" d="M102.38,50.58l2.28-5.67c-3.25-1.23-6.33-1-6.94.5S99.18,49.21,102.38,50.58Z"/><path class="cls-29" d="M136.94,74.5a6.72,6.72,0,0,0-1.95.57,7,7,0,0,0-1.71,1.13,15.51,15.51,0,0,0-2.61,3.35l-.47-.28a16.33,16.33,0,0,1,2.54-3.64,8,8,0,0,1,1.85-1.37,7.66,7.66,0,0,1,2.18-.77Z"/><path class="cls-16" d="M137.93,82.13c-.84-2-4.62-3.94-6.18-5.43-1.9-1.81-3.77-4.67-6.39-5.1a10.79,10.79,0,0,0-3.93.08,7.94,7.94,0,0,1,1.21,3.3,7.65,7.65,0,0,1-.16,2.29,2.85,2.85,0,0,1,.74,2,5,5,0,0,1-.92,2.42,6,6,0,0,1-1.78,1.7l-.54.31A6.7,6.7,0,0,1,119.7,85a6.16,6.16,0,0,1-3.16,3.76,5.52,5.52,0,0,1-2,.54c-.19.11-.38.22-.58.32a11.41,11.41,0,0,1-3.27,1.07,15.33,15.33,0,0,0,.65,1.83c1.1,2.58,3.6,3.76,6.09,5.23,1.44.85,2.36,2.46,4,2.71a13.78,13.78,0,0,0,3.08.13,6,6,0,0,1-.34-.67,4.8,4.8,0,0,1-.39-2.11,5.9,5.9,0,0,1,.75-2.42.56.56,0,0,1,0-.08,1.8,1.8,0,0,1-.34-1.08,3.91,3.91,0,0,1,1.27-2.48,16.82,16.82,0,0,1,2.55-2.14c1-.75,2-1.59,3.1-2.26a4.13,4.13,0,0,1,3.89-.58,8.24,8.24,0,0,1,3.65-.33A9.83,9.83,0,0,0,137.93,82.13Z"/><path class="cls-30" d="M138.71,86.25a5.58,5.58,0,0,1-2.51-1.09c-1.6-1.26-2.15-3.42-3.89-4.53s-3.68-1.1-5.3-2.16a3.31,3.31,0,0,1-1.44-1.94,6.1,6.1,0,0,0-.74-2.3,6.73,6.73,0,0,0-2.09-1.48,4.58,4.58,0,0,1-1.27-1.07h0a7.94,7.94,0,0,1,1.21,3.3,7.65,7.65,0,0,1-.16,2.29,2.85,2.85,0,0,1,.74,2,5,5,0,0,1-.92,2.42,6,6,0,0,1-1.78,1.7l-.54.31A6.7,6.7,0,0,1,119.7,85a6.16,6.16,0,0,1-3.16,3.76,5.52,5.52,0,0,1-2,.54c-.19.11-.38.22-.58.32a10.68,10.68,0,0,1-2.83,1,3.22,3.22,0,0,1,.92.54c.53.43.94,1,1.43,1.46a4.32,4.32,0,0,0,1.7,1c.72.25,1.46.39,2.2.57a8.44,8.44,0,0,1,2.13.81,11.19,11.19,0,0,1,1.84,1.38A30.84,30.84,0,0,1,124,99.51a4.64,4.64,0,0,1-.23-1.66,5.9,5.9,0,0,1,.75-2.42.56.56,0,0,1,0-.08,1.8,1.8,0,0,1-.34-1.08,3.91,3.91,0,0,1,1.27-2.48,16.82,16.82,0,0,1,2.55-2.14c1-.75,2-1.59,3.1-2.26a4.13,4.13,0,0,1,3.89-.58,8.24,8.24,0,0,1,3.65-.33Z"/><path class="cls-29" d="M125.29,89.52c-1.35-.5.55-2.7,1.73-3.27C127.23,87.2,126.77,90.06,125.29,89.52Z"/><path class="cls-29" d="M120.78,86.79c1.15,1.62,3.18-.2,3.71-2.12C123.36,84.87,119.66,85.22,120.78,86.79Z"/><path class="cls-29" d="M36,86.2a6.73,6.73,0,0,0,1.35,1.52,7.08,7.08,0,0,0,1.76,1,14.91,14.91,0,0,0,4.15.91l0,.54a16,16,0,0,1-4.39-.72,7.62,7.62,0,0,1-3.66-2.71Z"/><path class="cls-16" d="M42.5,82c-1.46,1.63-1.57,5.86-2.24,7.92-.81,2.49-2.59,5.41-1.84,8a10.75,10.75,0,0,0,1.77,3.51,7.83,7.83,0,0,1,2.45-2.51,7.23,7.23,0,0,1,2.13-.84,2.9,2.9,0,0,1,1.5-1.54,4.94,4.94,0,0,1,2.58-.22,6,6,0,0,1,2.3.88c.18.11.35.23.51.35A6.78,6.78,0,0,1,53,97.21a6.16,6.16,0,0,1,4.76,1.23A5.5,5.5,0,0,1,59.07,100c.19.12.37.25.55.38A11.66,11.66,0,0,1,62,102.84a14.76,14.76,0,0,0,1.37-1.37c1.86-2.11,1.84-4.87,2.09-7.75.14-1.67,1.2-3.19.73-4.75A14.7,14.7,0,0,0,65,86.14c-.14.2-.3.4-.46.59A4.75,4.75,0,0,1,62.77,88a5.9,5.9,0,0,1-2.5.37h-.1a1.71,1.71,0,0,1-.82.77A3.9,3.9,0,0,1,56.56,89a17.57,17.57,0,0,1-3-1.37c-1.12-.61-2.3-1.14-3.37-1.83A4.11,4.11,0,0,1,48,82.59a8.38,8.38,0,0,1-1.87-3.15A9.74,9.74,0,0,0,42.5,82Z"/><path class="cls-30" d="M45.88,79.53a5.76,5.76,0,0,1,.1,2.74c-.45,2-2.16,3.42-2.42,5.47s.6,3.79.34,5.71a3.23,3.23,0,0,1-1.13,2.13A6.34,6.34,0,0,0,41,97.25a6.73,6.73,0,0,0-.44,2.52,4.35,4.35,0,0,1-.41,1.61l0,0a7.83,7.83,0,0,1,2.45-2.51,7.23,7.23,0,0,1,2.13-.84,2.9,2.9,0,0,1,1.5-1.54,4.94,4.94,0,0,1,2.58-.22,6,6,0,0,1,2.3.88c.18.11.35.23.51.35A6.78,6.78,0,0,1,53,97.21a6.16,6.16,0,0,1,4.76,1.23A5.5,5.5,0,0,1,59.07,100c.19.12.37.25.55.38a11.2,11.2,0,0,1,2.1,2.14,3.2,3.2,0,0,1,.09-1.06c.16-.67.48-1.28.7-1.92a4.3,4.3,0,0,0,.2-2c-.08-.76-.28-1.5-.43-2.24A8.27,8.27,0,0,1,62.09,93a10.81,10.81,0,0,1,.45-2.25,29.74,29.74,0,0,1,1.64-3.7,4.77,4.77,0,0,1-1.41.92,5.9,5.9,0,0,1-2.5.37h-.1a1.71,1.71,0,0,1-.82.77A3.9,3.9,0,0,1,56.56,89a17.57,17.57,0,0,1-3-1.37c-1.12-.61-2.3-1.14-3.37-1.83A4.11,4.11,0,0,1,48,82.59a8.38,8.38,0,0,1-1.87-3.15Z"/><path class="cls-29" d="M54.62,90.24c.13,1.42-2.68.66-3.7-.16C51.68,89.48,54.47,88.66,54.62,90.24Z"/><path class="cls-29" d="M54.1,95.48c1-1.73-1.56-2.78-3.51-2.43C51.26,94,53.16,97.17,54.1,95.48Z"/><path class="cls-31" d="M88.47,102.87a8,8,0,0,0,.67-1.63,6.57,6.57,0,0,0,.22-2.46c-.1-1-1.31-2.61-1-6.17.12-1.28-1.17-2.58-3-3a14.56,14.56,0,0,1-4.79-1.81A5.1,5.1,0,0,1,79,86a4.34,4.34,0,0,1-.47-1.38A10.69,10.69,0,0,0,72.07,96a10,10,0,0,0,11.7,8.31A20.71,20.71,0,0,0,88.47,102.87Z"/><path class="cls-31" d="M93.85,93.52a5.39,5.39,0,0,1-2.29,3.62,5.38,5.38,0,0,0-.78,1.9,7,7,0,0,0,.78,4.29c6.35,2.31,13.75,1.69,15.88-2.38s-1.08-11.16-7.52-15.82a15.78,15.78,0,0,0-6.65,3.57A10.85,10.85,0,0,1,93.85,93.52Z"/><path class="cls-32" d="M86.29,102a5.27,5.27,0,0,1-1.7-1.75,4.24,4.24,0,0,1-.45-1.2,3.06,3.06,0,0,1,.11-1.44,3.31,3.31,0,0,0-.18-2.93,11.21,11.21,0,0,0-2.13-1.81,7.82,7.82,0,0,1-2.76-4.5c-.26-1.47,1.17-2.71.81-4.12l-.43.07c-4.1.8-8.46,6-7.49,11.64a10,10,0,0,0,11.7,8.31A20.38,20.38,0,0,0,88.23,103,9.39,9.39,0,0,1,86.29,102Z"/><path class="cls-32" d="M101.17,87.91a15,15,0,0,1,.3,4,3.35,3.35,0,0,1-1.11,2.74c-.84.58-2,.7-2.71,1.48-.48.52,0,1.08.27,1.55a3.12,3.12,0,0,1,.68,2.3,4.22,4.22,0,0,1-2,2.37,8.29,8.29,0,0,1-3,1.2,11,11,0,0,1-1.15.15c6.13,1.92,12.92,1.17,15-2.7s-.88-10.73-6.94-15.38A13.85,13.85,0,0,1,101.17,87.91Z"/><path class="cls-9" d="M156,92.35a3.83,3.83,0,0,0-1-.3.94.94,0,0,0-.5,0c-.12.05-.21.15-.33.2-.56.22-1-.09-1.41-.38a2.92,2.92,0,0,0-1.38-.55,3,3,0,0,0-1.35.32,3.78,3.78,0,0,1-1.29.47,4,4,0,0,1-1.18-.24c-.41-.11-.66.12-.77.53a7.87,7.87,0,0,1-.38,1.52,2.4,2.4,0,0,1-2.22,1.37,2.75,2.75,0,0,1-1.26-.43,5.22,5.22,0,0,0-1.16-.63,1,1,0,0,0-.59,0,1.09,1.09,0,0,0-.4.37.71.71,0,0,1-1.07.12s-.06,0-.07-.06l-.1,0-.05,0a1.36,1.36,0,0,0-.17.39,1.39,1.39,0,0,1-.77.77c-.32.09-.65-.09-1,0s-.31.26-.39.46a1.93,1.93,0,0,1-.72,1.08,9.57,9.57,0,0,0,4.47,2.8,15.89,15.89,0,0,0,6.48.31,14,14,0,0,0,6.18-2.21c1.8-1.28,2.65-3.65,2.85-5.85l-.13-.14A.38.38,0,0,1,156,92.35Z"/><path class="cls-9" d="M127,94.44a4.12,4.12,0,0,0-1-.3,1.05,1.05,0,0,0-.5,0c-.12,0-.21.15-.33.2-.56.22-1-.09-1.41-.38a2.88,2.88,0,0,0-1.38-.55,3,3,0,0,0-1.35.32,3.54,3.54,0,0,1-1.28.47,4.06,4.06,0,0,1-1.19-.24c-.41-.11-.66.13-.77.53a6.85,6.85,0,0,1-.38,1.53,2.39,2.39,0,0,1-2.21,1.36,2.75,2.75,0,0,1-1.27-.43,5.15,5.15,0,0,0-1.15-.63,1,1,0,0,0-.6,0,1.15,1.15,0,0,0-.39.37.71.71,0,0,1-1.07.12l-.08-.06s-.09,0-.09,0l0,0c-.09.09-.12.29-.18.39a1.45,1.45,0,0,1-.76.78c-.33.08-.66-.1-1,0s-.31.25-.38.45a1.91,1.91,0,0,1-.73,1.08,9.57,9.57,0,0,0,4.47,2.8,16,16,0,0,0,6.49.31,13.82,13.82,0,0,0,6.17-2.21c1.8-1.27,2.65-3.65,2.86-5.85l-.14-.14A.38.38,0,0,1,127,94.44Z"/></g></svg>