<svg xmlns="http://www.w3.org/2000/svg" viewBox="0 0 165.86 165.86"><defs><style>.cls-1{isolation:isolate;}.cls-2{fill:#bfe8f5;}.cls-3{fill:#cb5648;}.cls-4{fill:#fff;}.cls-5{fill:#966248;}.cls-6{fill:#673c2d;}.cls-7{fill:#cf8a3e;}.cls-8{fill:#010101;}.cls-9{fill:#13110f;}.cls-10{fill:#b45d32;}.cls-11{fill:#e28a3d;}.cls-12{fill:#331610;}.cls-13{fill:#663b2c;}.cls-14{fill:#f1edf5;}.cls-15{fill:#e78d3e;}.cls-16{fill:#fda359;}.cls-17{fill:#803e22;}.cls-18{fill:#faf6f2;mix-blend-mode:soft-light;opacity:0.5;}.cls-19{fill:#4e2513;}.cls-20{fill:#ffca92;}.cls-21{fill:#ffb46e;}.cls-22{fill:#f4454c;}.cls-23{fill:#b5d680;}.cls-24{fill:#85a45a;}.cls-25{fill:#d2d0cc;}.cls-26{fill:#ededed;}.cls-27{fill:#184783;}.cls-28{fill:#3364a9;}.cls-29{fill:#353535;}.cls-30{fill:#ba4e2f;}.cls-31{fill:#ec6334;}</style></defs><g class="cls-1"><g id="Layer_7" data-name="Layer 7"><polyline class="cls-2" points="0 165.87 0 0 165.77 0 165.77 165.87"/><path class="cls-3" d="M114.33,160.84c-2.08-6.34-6.66-6.84-7.68-7.26v0l-.18-.05h0l-12.38-3.65-9.32,0H81.5l-4.2,0L64.92,153.5h0l-.16.05h0c-1.06.41-5.93.91-8,7.27,0,.19-1.1,6.23-1.15,6.47l60,.18C115.44,167.25,114.38,161,114.33,160.84Z"/><path class="cls-4" d="M133.76,115.31a27.75,27.75,0,0,1-9.12-1.6c-.9-.3-1.4-.11-1.8.93A27.08,27.08,0,0,1,113.41,127a27.6,27.6,0,0,1-12.59,5.19,28.78,28.78,0,0,1-9.71-.22A28.12,28.12,0,0,1,75.45,123c-.63-.68-1.08-.66-1.74-.07a28.54,28.54,0,0,1-15.09,7,28,28,0,0,1-15.29-2,27.31,27.31,0,0,1-15.2-15.5,25.36,25.36,0,0,1-1.48-13.44c.2-1.33.05-1.66-1.16-1.87a26,26,0,0,1-10.2-4.15C9,88.83,5.53,82.92,4.22,74.4a25.7,25.7,0,0,1,3-16.78c3.26-5.87,6.91-9.69,12.42-12.13a42.37,42.37,0,0,1,6.52-1.92c.81-.21,1.05-.61.94-1.55a25.58,25.58,0,0,1,5-18.51,26.39,26.39,0,0,1,9.5-8.19,28.33,28.33,0,0,1,18.27-2.91,29.32,29.32,0,0,1,11,4.39c.7.46,1.12.28,1.55-.38a27.3,27.3,0,0,1,6.78-7.2,28.86,28.86,0,0,1,29-3A27.4,27.4,0,0,1,123,22.6a17,17,0,0,1,.74,2.65c.15.85.52,1.07,1.22,1a52.57,52.57,0,0,1,5.88-.25,27.43,27.43,0,0,1,20.28,9.86A26.24,26.24,0,0,1,154,66.6c-.79,1.38-.79,1.44.24,2.5a26.35,26.35,0,0,1,6.32,10.38,26,26,0,0,1,.65,14.28,26.87,26.87,0,0,1-12.91,17.54A28.63,28.63,0,0,1,133.76,115.31Z"/><path class="cls-4" d="M48.41,133.1a5.55,5.55,0,0,1,11.1,0A5.6,5.6,0,0,1,54,138.58,5.53,5.53,0,0,1,48.41,133.1Z"/><path class="cls-4" d="M61.43,145a2.87,2.87,0,0,1,0-5.74,2.87,2.87,0,1,1,0,5.74Z"/><path class="cls-5" d="M92.93,149.14c-.15-.5,0-5.82,0-5.82L85,144.53l-7.87-1.21s.16,5.87,0,6.37-4.75,1.59-4.75,1.59,2.4,5.18,12.62,5.18,12.88-5.18,12.88-5.18S93.09,149.64,92.93,149.14Z"/><path class="cls-6" d="M77.19,143.63c.12.09,1,1.3,1.17,1.39,3.23,2.29,3.71,2.91,6.5,3,2.79-.12,4-.5,7-3.3,1-.94.79-1.26,1-1.43C87.85,143.3,82.21,143.59,77.19,143.63Z"/><path class="cls-5" d="M72.11,127.89s-1.51-2.32-2.37-2.23c-.52.06.68,1.23.83,2.56.2,1.77-1.11,2-.7,3s.95,4.51,2.33,4.36c.55-.06,1.11-1.27,1.11-1.27S72.56,129.47,72.11,127.89Z"/><path class="cls-7" d="M71.64,134.42a1.33,1.33,0,0,0-1.22,1.11,1.17,1.17,0,0,0,.21.79,1.09,1.09,0,0,0,.51.36,1.41,1.41,0,0,0,1.29-.17c.06,0,.11-.14,0-.19a.28.28,0,0,0-.3,0,.83.83,0,0,1-.75.07.65.65,0,0,1-.19-.09h0a.86.86,0,0,1-.13-.14A1,1,0,0,1,71,135a1,1,0,0,1,.26-.23s0,0,0,0l.06,0h.06a.65.65,0,0,1,.18,0c.08,0,.22-.06.23-.16s-.11-.13-.19-.12Z"/><path class="cls-5" d="M97.25,127.81s1.27-2.45,2.13-2.45c.53,0-.55,1.29-.57,2.63,0,1.79,1.31,1.88,1,2.92s-.48,4.59-1.87,4.58c-.55,0-1.23-1.16-1.23-1.16S97,129.43,97.25,127.81Z"/><path class="cls-5" d="M99.12,129.27h0c-.3,1.55-.68,3.18-.94,5.06-.69,4.95-2.16,7.22-5.52,9.4C89.13,146,88.07,146.93,85,147c-3-.11-4.1-1-7.62-3.3-3.36-2.18-4.83-4.45-5.52-9.4-.15-1.1-.35-2.12-.54-3.09l-.43-2.09v0h0a16.77,16.77,0,0,1-.11-7.54,15.18,15.18,0,0,1,6.65-8.65h0A14.14,14.14,0,0,1,85,110.74a15.19,15.19,0,0,1,14.23,10.84A16.85,16.85,0,0,1,99.12,129.27Z"/><path class="cls-8" d="M86,135.69a1.35,1.35,0,0,1-1.43-.07c-.09-.07-.4,0-.27.09a1.89,1.89,0,0,0,2,.06s0-.08,0-.1a.29.29,0,0,0-.24,0"/><path class="cls-8" d="M84.12,135.58a2.91,2.91,0,0,0-1.05-.27.31.31,0,0,0-.17.05.05.05,0,0,0,0,.09,1,1,0,0,0,.58.13.21.21,0,0,0,.18-.07s0-.08-.08-.08a.85.85,0,0,1-.47-.1l-.16.13a2.77,2.77,0,0,1,1,.24.21.21,0,0,0,.19,0s.08-.08,0-.1"/><path class="cls-8" d="M82.69,135.62a1.15,1.15,0,0,1-1-.51,1.07,1.07,0,0,1,.43-1.37s0-.08,0-.09a.22.22,0,0,0-.19,0,1.25,1.25,0,0,0-.59,1.16,1.07,1.07,0,0,0,.83.84,1.39,1.39,0,0,0,.4.06c.06,0,.16,0,.18-.06s0-.08-.07-.08"/><path class="cls-8" d="M86.46,135.58a3,3,0,0,1,1.06-.27.3.3,0,0,1,.16.05s0,.07,0,.09a1.06,1.06,0,0,1-.58.13.21.21,0,0,1-.18-.07s0-.08.08-.08a.8.8,0,0,0,.46-.1l.16.13a2.77,2.77,0,0,0-.94.24.21.21,0,0,1-.19,0s-.09-.08,0-.1"/><path class="cls-8" d="M87.9,135.62a1.17,1.17,0,0,0,1-.51,1.07,1.07,0,0,0-.43-1.37c-.05,0,0-.08,0-.09a.24.24,0,0,1,.2,0,1.24,1.24,0,0,1,.58,1.16,1.06,1.06,0,0,1-.83.84,1.34,1.34,0,0,1-.4.06.2.2,0,0,1-.18-.06s0-.08.08-.08"/><path class="cls-9" d="M88.66,124.91l.06.85c0,.21,0,.42,0,.64.76-.24,1.42-.4,1.92-.51a6.89,6.89,0,0,1,2.22-.3,6.29,6.29,0,0,1,1.45.31,4.12,4.12,0,0,1,.77.31c.54.32.79.69.87.65s-.08-.37-.09-.4a3.35,3.35,0,0,0-1.22-1.35,4.43,4.43,0,0,0-1.48-.51,16.59,16.59,0,0,0-4.55.31"/><path class="cls-9" d="M81.78,124.71c0,.28,0,.56,0,.84s0,.43,0,.65c-.78-.19-1.45-.31-2-.39a6.88,6.88,0,0,0-2.24-.15,6,6,0,0,0-1.42.4,4,4,0,0,0-.75.36c-.52.35-.74.74-.83.71s.06-.38.07-.42a3.33,3.33,0,0,1,1.13-1.42,4.23,4.23,0,0,1,1.44-.6,16.51,16.51,0,0,1,4.57,0"/><path class="cls-10" d="M68.56,116.21a28.43,28.43,0,0,1,14.65-2.09c8.23,1,12.18,6.24,13.57,9.95a26.5,26.5,0,0,1,1.52,7.44s2,1,3.49-6.51c2.14-11-9.87-20.66-12.53-20.66S72.38,103.94,68.56,116.21Z"/><path class="cls-10" d="M70,113s-1.38-8.65,4.59-10.27,18.51-4.53,22.18,3.37Z"/><path class="cls-11" d="M69.72,130.78a5.19,5.19,0,0,1-1.31-2.24c-.66-2.34-1.82-7.17-.76-9.31a17.71,17.71,0,0,0,.7-4.53c.23-4.29-.79-3,5.23-7.84s7.07-3.53,16.11-3,11.62,3.51,10.92,12c0,0-12.16-3.5-17.89-.4s-11.92,13.09-11.5,16.69A10,10,0,0,1,69.72,130.78Z"/><path class="cls-10" d="M67.35,123.54s9.19-11.76,20-11.87c0,0-13.77-1.79-19.87,8.15Z"/><path class="cls-10" d="M100.81,113.12s-10.63-3.87-14.7-4.2,12.88.31,14.5,2.16Z"/><ellipse class="cls-4" cx="85.29" cy="139.25" rx="3.58" ry="0.75"/><path class="cls-7" d="M98.47,134.82a1,1,0,0,1,1,.78.9.9,0,0,1-.12.64l-.1.14s0,0,0,0l0,0-.06,0-.05,0s0,0,0,0l0,0-.08,0H98.9l-.18,0a.84.84,0,0,1-.49-.11.3.3,0,0,0-.3,0c-.06,0-.12.15,0,.2a1.36,1.36,0,0,0,1.1.09,1.22,1.22,0,0,0,.55-.34,1.15,1.15,0,0,0,0-1.54,1.25,1.25,0,0,0-.93-.39.31.31,0,0,0-.27.12c0,.09,0,.16.12.16Z"/><path class="cls-12" d="M85.39,138.51c-1,0-4.34.06-4.34.06s.71,1.44,4.24,1.44c3.83,0,4.47-1.6,4.47-1.6Z"/><path class="cls-13" d="M88.66,137.94a6.26,6.26,0,0,0-1.21-.15,8.61,8.61,0,0,0-2.07.31,8.81,8.81,0,0,0-2.08-.31,4.3,4.3,0,0,0-1,.26c-.45.13-.59.16-1.18.36l-.42.15a12.88,12.88,0,0,0,4.68.69c.86,0,1.56,0,2.42,0,.43,0,1.38-.29,1.8-.38s.25-.08.58-.33a2.33,2.33,0,0,0-.57-.17Z"/><path class="cls-9" d="M91.6,127.79a.94.94,0,0,1,1.09,1.49.87.87,0,0,1-1,.18,1,1,0,0,1-.48-1.14.91.91,0,0,1,.41-.53"/><path class="cls-9" d="M88.72,129.12a9.38,9.38,0,0,1,2.93-1.5,5.09,5.09,0,0,1,3.73,1.27s-2.36-1.11-3.37-1A17.55,17.55,0,0,0,88.72,129.12Z"/><path class="cls-9" d="M79.21,127.82a1,1,0,0,0-1,.19.89.89,0,0,0-.28.43.94.94,0,0,0,.23.87.87.87,0,0,0,1,.18,1,1,0,0,0,.48-1.14.91.91,0,0,0-.41-.53"/><path class="cls-9" d="M82.08,129.15a9.3,9.3,0,0,0-2.92-1.5,5.07,5.07,0,0,0-3.73,1.27s2.35-1.11,3.37-1A16.84,16.84,0,0,1,82.08,129.15Z"/><path class="cls-13" d="M85.4,138.15c-2.06,0-5.4-.23-5.4-.23s.62,4,5.4,4,5.41-4,5.41-4S87.47,138.15,85.4,138.15Z"/><path class="cls-12" d="M85.42,138.15c-1,0-4.93-.16-4.93-.16s1.31,2.11,4.85,2.11c3.85,0,5-2.08,5-2.08Z"/><path class="cls-14" d="M85.47,138.3c-1,0-4-.17-4-.17s1.08,1.05,4,1.05,3.87-1,3.87-1Z"/><path class="cls-13" d="M91,137.62a7.1,7.1,0,0,1-1.16.12c-.81-.06-1.79-.27-2.38-.32a9.38,9.38,0,0,0-2.08.31,9.16,9.16,0,0,0-2.07-.31c-.59.05-1.57.26-2.38.32a7.42,7.42,0,0,1-1.17-.12c-.14,0,.14,1.07,5.62,1.07S91.17,137.66,91,137.62Z"/></g><g id="Layer_8" data-name="Layer 8"><path class="cls-15" d="M43,66.8c3.19-2,6.76-.25,10-2.68,2.6-1.92,3.86-6.17,5.54-9a1.35,1.35,0,0,1,.72.13.55.55,0,0,1,.23.27c-1.54,3.68-2.3,7.58-5.81,10.17-3.66,2.4-6.88.53-9.79,1.74A3,3,0,0,1,43,66.8Z"/><path class="cls-15" d="M42.39,58.66a2.34,2.34,0,0,1-.54-.95A9.58,9.58,0,0,1,44.8,58c3.43.88,4.82,3.25,7.15,4.42a9.36,9.36,0,0,0,7.13.4s.07,0,.13,0A9.66,9.66,0,0,0,61,61.92c.51-.14,1-.16,1.23.32v0a9.94,9.94,0,0,1-11.14,1.66c-2.73-1.41-3.78-3.78-6.7-4.81a7.62,7.62,0,0,0-2-.44Z"/><path class="cls-16" d="M52.11,58.88a4.34,4.34,0,0,0-3.49,1.79,2.8,2.8,0,0,0,.83,3.47,15.59,15.59,0,0,0,4.84,2.34c1.65.59,3.35,1.1,5.08,1.55.24.29.1.59-.47.66a39.57,39.57,0,0,1-8.06-2.27,11.1,11.1,0,0,1-2.1-1.12c-2.07-1.45-2.58-3.6-1.45-5.14a5.05,5.05,0,0,1,2.86-1.74A3.34,3.34,0,0,1,52.11,58.88Z"/><path class="cls-17" d="M33.45,69.12a6,6,0,0,0-5.45.47,5.61,5.61,0,0,0-2.6,4.64,4.11,4.11,0,0,0-4.06.76,4,4,0,0,0-1.47,3.79,3.13,3.13,0,0,0-2.47,3.54c.27,1.55,2.55,2.83,4.09,2.47a5.39,5.39,0,0,0,7.58,2A1.55,1.55,0,0,0,30.24,88,1.82,1.82,0,0,0,32,87.46,12.82,12.82,0,0,0,43,92.85c4.34-.07,8.5-1.59,12.57-3.08a5.21,5.21,0,0,0,6,.1A14.69,14.69,0,0,0,75,86.82a4.45,4.45,0,0,0,4.64-1.77,2.34,2.34,0,0,0,2.66-2.27,2.39,2.39,0,0,0-2.7-2.28,10.15,10.15,0,0,0-4.33-5.85,9.21,9.21,0,0,0-6.83-1.22A11.65,11.65,0,0,0,60.54,62,12.09,12.09,0,0,0,47.17,66.8s-7-4.89-13.65,2.21"/><path class="cls-18" d="M66.64,74.62a12.7,12.7,0,0,0-3.36,4.07l-.24.46-.38-.39A10.23,10.23,0,0,0,60,76.82a10.43,10.43,0,0,0-3.13-1,11.18,11.18,0,0,0-6.54,1.06A9.08,9.08,0,0,1,57,75a9.53,9.53,0,0,1,6.23,3.27l-.62.07A9.7,9.7,0,0,1,66.64,74.62Z"/><path class="cls-18" d="M47.73,67.4a6.09,6.09,0,0,1,1.89,1.13,7,7,0,0,1,1.44,1.72l-.66-.09a8.11,8.11,0,0,1,1.67-1.42,8,8,0,0,1,2-.91,5.34,5.34,0,0,1,2.21-.17,3.88,3.88,0,0,1,2,.84,5.37,5.37,0,0,0-2-.3,6.57,6.57,0,0,0-1.92.4,9.5,9.5,0,0,0-1.77.9A10.38,10.38,0,0,0,51,70.73l-.41.39-.24-.48a9.65,9.65,0,0,0-1.12-1.73A11.79,11.79,0,0,0,47.73,67.4Z"/><path class="cls-18" d="M26.57,75a4.23,4.23,0,0,1,2.36,2.32l-.56,0a6.75,6.75,0,0,1,2.3-2.59,7.66,7.66,0,0,1,1.57-.78A8.31,8.31,0,0,1,34,73.49a7,7,0,0,1,3.42.53A6.37,6.37,0,0,1,40,76.11a8.11,8.11,0,0,0-2.86-1.5,7.43,7.43,0,0,0-3.1-.25,7.57,7.57,0,0,0-1.51.37,7.29,7.29,0,0,0-1.41.67,7,7,0,0,0-2.23,2.15l-.38.6-.18-.64A4.76,4.76,0,0,0,26.57,75Z"/><path class="cls-18" d="M35.35,85.37A2.85,2.85,0,0,0,37,87.43a7.65,7.65,0,0,0,2.6.65,9.42,9.42,0,0,0,2.7-.15,9.57,9.57,0,0,0,2.55-.85l.29-.14.2.21a3.15,3.15,0,0,0,2.23.88,3.44,3.44,0,0,0,2.42-.9,3.22,3.22,0,0,1-2.4,1.44,4.07,4.07,0,0,1-1.47-.11,2.9,2.9,0,0,1-1.36-.74l.48.07a9.09,9.09,0,0,1-2.77,1,9.19,9.19,0,0,1-3,.06A7.93,7.93,0,0,1,38,88.55a5.25,5.25,0,0,1-1.35-.65A2.78,2.78,0,0,1,35.35,85.37Z"/><path class="cls-18" d="M63.37,85.48a12,12,0,0,0,3.25.66,10.05,10.05,0,0,0,6.12-1.63,12.29,12.29,0,0,0,2.49-2.2,7.27,7.27,0,0,1-2.06,2.77,8.32,8.32,0,0,1-3.12,1.62,8.17,8.17,0,0,1-3.51.14A7.16,7.16,0,0,1,63.37,85.48Z"/><path class="cls-18" d="M33.8,76.42a2.37,2.37,0,0,1,1.75.27,1.15,1.15,0,0,1,.3,1.59,1.83,1.83,0,0,1-.77.43l-2.71.94L31,80.12c-.22.08-.65.33-.89.2-1-.52.92-2.53,1.3-2.83A5.18,5.18,0,0,1,33.8,76.42Z"/><path class="cls-18" d="M70.13,75.59a3.39,3.39,0,0,1,1.79.12A1.64,1.64,0,0,1,73,77.06a1.81,1.81,0,0,1-1.14,1.61,8.58,8.58,0,0,1-2,.53,8.78,8.78,0,0,0-3.16,1.39,2.15,2.15,0,0,1-1,.5c-1.86.12.2-2.94.65-3.42A6.78,6.78,0,0,1,70.13,75.59Z"/><path class="cls-19" d="M70.53,67.25a3.45,3.45,0,0,1,.27-1.84A3.22,3.22,0,0,1,72,64a1.2,1.2,0,0,1,.81,1.23,1.7,1.7,0,0,0-1.25.69,2.12,2.12,0,0,0-.43,1.46A.84.84,0,0,0,70.53,67.25Z"/><path class="cls-20" d="M66.19,67.74a4.37,4.37,0,0,1,1.2,4.69c-.68,2.13-1.94,3-4,2.63l1.48,1.74,3.64,1.63,2.62-.24a4.57,4.57,0,0,1-1.27-4.33c.71-2.51,1.58-3.86,4-3L71.29,69l-3.48-1.09A5.68,5.68,0,0,0,66.19,67.74Z"/><path class="cls-21" d="M69.93,69.81c-.26,1.06-.6,2.09-.94,3.12s-.71,2-1.15,3.06a18.87,18.87,0,0,1,.8-3.17A19.48,19.48,0,0,1,69.93,69.81Z"/><path class="cls-19" d="M69.67,72.51s-.37.28-.3,1.17C69.37,73.68,69.7,73.44,69.67,72.51Z"/><path class="cls-19" d="M68.24,72.2s-.37.28-.3,1.17C67.94,73.37,68.27,73.13,68.24,72.2Z"/><path class="cls-22" d="M68.8,66.85a5.87,5.87,0,0,1,2.73.58,4.67,4.67,0,0,1,1.76,1.34,2.94,2.94,0,0,1,.64,2.1,2.75,2.75,0,0,0-3-.37,3.13,3.13,0,0,0-3.18-1.21,1.72,1.72,0,0,0-.46-1,1.82,1.82,0,0,0-1-.54h-.08A4.76,4.76,0,0,1,68.8,66.85Z"/><path class="cls-22" d="M68.57,79.08a5.93,5.93,0,0,1-2.74-.58,4.65,4.65,0,0,1-1.76-1.35,2.87,2.87,0,0,1-.63-2.08,2.76,2.76,0,0,0,3,.36,3.12,3.12,0,0,0,3.18,1.21,1.66,1.66,0,0,0,.46,1,2.7,2.7,0,0,0,1.09.54A4.79,4.79,0,0,1,68.57,79.08Z"/><path class="cls-18" d="M71.24,67.8a1.14,1.14,0,0,1,.47.37.48.48,0,0,1,0,.56.66.66,0,0,1-.67,0l-3.16-.85c-.15,0-.83-.1-.5-.3a2.54,2.54,0,0,1,.89-.26,4.75,4.75,0,0,1,2,0A5.08,5.08,0,0,1,71.24,67.8Z"/><path class="cls-19" d="M35,80a3,3,0,0,1-1.24-1.06,2.83,2.83,0,0,1-.47-1.52,1.06,1.06,0,0,1,1.29,0,1.48,1.48,0,0,0-.08,1.24,1.84,1.84,0,0,0,.88,1A.74.74,0,0,0,35,80Z"/><path class="cls-20" d="M39.13,85.36c.18.06.51.22.69.1s.17-.22.25-.3a1.61,1.61,0,0,1,.36-.33,3.08,3.08,0,0,1,.6-.36,3.41,3.41,0,0,1-1.45-1c-1.52-1.7-2.11-3-.34-4.36l-2.63,1-2.43,2.07c-.32.4-.82.89-.84,1.13a3.79,3.79,0,0,1,4,1.3,6.25,6.25,0,0,1,.4.54A2.72,2.72,0,0,1,39.13,85.36Z"/><path class="cls-21" d="M39.61,85.5a.47.47,0,0,0,.17,0c-.42-.58-.87-1.15-1.32-1.72-.59-.73-1.2-1.46-1.86-2.15A15.82,15.82,0,0,0,38.22,84,18.53,18.53,0,0,0,39.61,85.5Z"/><path class="cls-19" d="M38.47,83.05s0,.41.72.77C39.19,83.82,39.17,83.47,38.47,83.05Z"/><path class="cls-19" d="M37.58,84s0,.41.71.77C38.29,84.73,38.27,84.37,37.58,84Z"/><path class="cls-22" d="M33.89,81.06a5.14,5.14,0,0,1,1.7-1.74,4,4,0,0,1,1.82-.68,2.57,2.57,0,0,1,1.84.51,2.41,2.41,0,0,0-1.68,2A2.7,2.7,0,0,0,35.2,83a1.53,1.53,0,0,0-1-.14,1.63,1.63,0,0,0-.87.5.14.14,0,0,0,0,.06A4.18,4.18,0,0,1,33.89,81.06Z"/><path class="cls-18" d="M35.73,79.71a1,1,0,0,1,.49-.18.39.39,0,0,1,.4.28c.05.2-.12.38-.27.52l-2.1,1.93c-.1.1-.47.56-.46.23a2.33,2.33,0,0,1,.22-.78,4.38,4.38,0,0,1,1-1.41A3.66,3.66,0,0,1,35.73,79.71Z"/><path class="cls-23" d="M42,69.15l-.08-.06,0,0-.07,0a.32.32,0,0,1-.14-.14h0a.17.17,0,0,1,0-.07.14.14,0,0,1,0-.09.28.28,0,0,1,.1-.14.35.35,0,0,1,.27-.06h0l.11,0h0l.08,0h0l0,0v-.09h0v0l-.09-.12,0-.06-.08-.09-.07-.15a.23.23,0,0,1-.06-.25.33.33,0,0,1,.06-.1l0,0a.4.4,0,0,1,.16-.12.44.44,0,0,1,.3,0l.1.06a.4.4,0,0,1,0-.19.76.76,0,0,0-.08-.2.61.61,0,0,1-.4-.14.91.91,0,0,1-.25-.42l-.28.1a3.07,3.07,0,0,1-.34.38.5.5,0,0,1-.55,0,7,7,0,0,0-2.73,2.87,4.73,4.73,0,0,0-.44,3.5,1.77,1.77,0,0,0,1.66-.08,10.22,10.22,0,0,0,1.75-1,5,5,0,0,0,1.06-1.19.2.2,0,0,1,0-.13,1,1,0,0,0,.06-.32v-.11l0,0a2.35,2.35,0,0,1-.36-.47.63.63,0,0,1,.2-.68l.07-.09,0,0,0,0h0s0,0,0,0Z"/><path class="cls-24" d="M38.14,72.85a5.29,5.29,0,0,0-.73-5.49,4.55,4.55,0,0,0-.47,2.84A4.66,4.66,0,0,0,38.14,72.85Z"/><path class="cls-23" d="M37.31,72.62a.25.25,0,0,0,0-.16c0-.06-.11-.13-.19-.2a1.07,1.07,0,0,1-.28-.36,1,1,0,0,1-.06-.55.65.65,0,0,0,0-.14h0l-.06,0a1.24,1.24,0,0,0-.43,0c-.4,0-.44-.45-.35-.73s.15-.32,0-.49a1.37,1.37,0,0,0-.56-.29,14.07,14.07,0,0,1-1.52-.48,3.24,3.24,0,0,1-.36-.2,1.23,1.23,0,0,0-.25-.14c-.22-.07-.34.11-.53.16a.47.47,0,0,1-.5-.16s-.05-.09-.1-.11a.45.45,0,0,0-.23,0c-.32,0-.62.22-.94.25a.69.69,0,0,1-.52-.13,3.69,3.69,0,0,0,.93,2.21,6.71,6.71,0,0,0,2.54,1.64,5.41,5.41,0,0,0,3.21.17A1.21,1.21,0,0,0,37.31,72.62Z"/><path class="cls-24" d="M47,70.27a1.87,1.87,0,0,0-.4-.13.49.49,0,0,0-.21,0s-.08.07-.14.09c-.23.09-.4,0-.58-.16a1.19,1.19,0,0,0-.57-.23,1.39,1.39,0,0,0-.56.13,1.49,1.49,0,0,1-.53.2,2.13,2.13,0,0,1-.49-.1c-.17,0-.27,0-.32.22a2.75,2.75,0,0,1-.15.63,1,1,0,0,1-.92.56,1.08,1.08,0,0,1-.52-.18,2,2,0,0,0-.48-.26.39.39,0,0,0-.24,0,.41.41,0,0,0-.17.15.28.28,0,0,1-.44.05l0,0h0l0,0s-.05.11-.07.16a.59.59,0,0,1-.32.32c-.13,0-.27,0-.41,0s-.12.11-.15.19a.88.88,0,0,1-.3.45,4.11,4.11,0,0,0,1.84,1.16,6.54,6.54,0,0,0,2.68.12A5.6,5.6,0,0,0,46,72.74a3.29,3.29,0,0,0,1.18-2.42l-.05-.06A.17.17,0,0,1,47,70.27Z"/><path class="cls-24" d="M44.06,80.71a1.19,1.19,0,0,1-.49-.17,2,2,0,0,0-.48-.26.31.31,0,0,0-.25,0,.46.46,0,0,0-.16.15.29.29,0,0,1-.44,0s0,0,0,0l0,0h0s0,.11-.07.16a.62.62,0,0,1-.32.32c-.14,0-.27,0-.41,0s-.13.1-.16.18a.74.74,0,0,1-.3.45,4.05,4.05,0,0,0,1.85,1.16,6,6,0,0,0,1.64.2A8.66,8.66,0,0,1,44.06,80.71Z"/><path class="cls-24" d="M81,78a.17.17,0,0,1-.14,0,1.87,1.87,0,0,0-.4-.13.72.72,0,0,0-.21,0s-.09.07-.14.09c-.23.09-.4,0-.58-.16a1.19,1.19,0,0,0-.57-.23,1.39,1.39,0,0,0-.56.13,1.49,1.49,0,0,1-.53.2,2,2,0,0,1-.49-.1c-.17,0-.27.05-.32.22a2.33,2.33,0,0,1-.16.63,1,1,0,0,1-.44.45,8.86,8.86,0,0,0,.33,2.33c.18,0,.36,0,.53-.06a5.64,5.64,0,0,0,2.55-.91,3.29,3.29,0,0,0,1.18-2.42S81,78,81,78Z"/><path class="cls-25" d="M54.66,86.87a3.48,3.48,0,0,0,.27-.67,2.52,2.52,0,0,0,.09-1,6.07,6.07,0,0,1-.4-2.55c.05-.53-.49-1.07-1.23-1.26a6.33,6.33,0,0,1-2-.75,2.17,2.17,0,0,1-.66-.72,1.67,1.67,0,0,1-.19-.57A4.42,4.42,0,0,0,47.88,84a4.14,4.14,0,0,0,4.83,3.44A9.11,9.11,0,0,0,54.66,86.87Z"/><path class="cls-25" d="M56.88,83a2.26,2.26,0,0,1-.94,1.5,2.24,2.24,0,0,0-.33.78,2.91,2.91,0,0,0,.32,1.78c2.63,1,5.68.7,6.57-1s-.45-4.61-3.11-6.53A6.45,6.45,0,0,0,56.64,81,4.36,4.36,0,0,1,56.88,83Z"/><path class="cls-26" d="M53.76,86.52a2.22,2.22,0,0,1-.71-.72,1.58,1.58,0,0,1-.18-.5,1.31,1.31,0,0,1,0-.59,1.38,1.38,0,0,0-.07-1.22,4.43,4.43,0,0,0-.88-.74,3.23,3.23,0,0,1-1.14-1.86c-.11-.61.48-1.12.33-1.71l-.18,0A4.36,4.36,0,0,0,47.88,84a4.14,4.14,0,0,0,4.83,3.44,8.73,8.73,0,0,0,1.85-.55A4,4,0,0,1,53.76,86.52Z"/><path class="cls-26" d="M59.91,80.68A6.45,6.45,0,0,1,60,82.32a1.39,1.39,0,0,1-.46,1.13c-.35.24-.82.29-1.12.61s0,.45.11.64a1.28,1.28,0,0,1,.28,1,1.74,1.74,0,0,1-.81,1,3.45,3.45,0,0,1-1.24.5,3.55,3.55,0,0,1-.47.06c2.53.79,5.34.48,6.18-1.12s-.37-4.43-2.87-6.35A6.57,6.57,0,0,1,59.91,80.68Z"/><path class="cls-16" d="M57.83,66.25a1.1,1.1,0,0,0,.68-.33A2.34,2.34,0,0,0,59,65,13,13,0,0,0,50.81,60c-.54.18-1.07.47-.72.88a9.37,9.37,0,0,1,1.1.3,15.52,15.52,0,0,1,6.61,5.08Z"/><path class="cls-15" d="M54.4,72.54a3.7,3.7,0,0,0-.08-1.05,3.24,3.24,0,0,0-.13-.41c-2.06.24-4.15.06-6.1,1.28A3.2,3.2,0,0,0,49,73c1.7-.71,3.51-.36,5.45-.43Z"/><path class="cls-15" d="M61.07,67.07a2.38,2.38,0,0,0,1,.24c1-2,1.65-4.11,2.52-6.21a.55.55,0,0,0-.23-.27,1.31,1.31,0,0,0-.71-.13c-1.05,1.74-1.93,4-3.06,6A1.74,1.74,0,0,0,61.07,67.07Z"/><polyline class="cls-27" points="105.48 68.74 85.13 68.74 82.57 24.99 110.51 24.99 108.62 57.39 107.86 68.74 105.48 68.74"/><polygon class="cls-28" points="75.96 24.99 78.52 68.74 102.52 68.74 103.91 24.99 75.96 24.99"/><rect class="cls-29" x="74.9" y="23.23" width="29.65" height="4"/><rect x="104.54" y="23.23" width="6.97" height="4" transform="translate(216.06 50.46) rotate(180)"/><rect x="74.9" y="26.99" width="36.62" height="0.32"/><path class="cls-4" d="M83.52,48.54,82,45.84a1.77,1.77,0,0,0,.56.09h6.54v3.3H84.72A1.38,1.38,0,0,1,83.52,48.54Z"/><path class="cls-4" d="M82.52,45.42a1.37,1.37,0,0,1-1.2-.7,1.38,1.38,0,0,1,0-1.39l2.17-3.75,2.86,1.65-2.42,4.19Z"/><polygon class="cls-4" points="85.4 39.56 86.71 41.83 82.78 39.56 85.4 39.56"/><path class="cls-4" d="M98.55,44.71,97,47.4a2.36,2.36,0,0,0-.21-.52l-3.27-5.67,2.86-1.65,2.17,3.76A1.38,1.38,0,0,1,98.55,44.71Z"/><path class="cls-4" d="M96.35,47.13a1.4,1.4,0,0,1-1.21,2.09H90.81V45.91h4.84Z"/><polygon class="cls-4" points="89.83 47.56 91.15 45.3 91.15 49.83 89.83 47.56"/><path class="cls-4" d="M87.73,33.58h3.11a2.25,2.25,0,0,0-.35.45l-3.27,5.66L84.36,38l2.17-3.76A1.37,1.37,0,0,1,87.73,33.58Z"/><path class="cls-4" d="M90.93,34.28a1.39,1.39,0,0,1,2.41,0L95.51,38l-2.86,1.65L90.23,35.5Z"/><polygon class="cls-4" points="94.56 39.7 91.94 39.7 95.87 37.43 94.56 39.7"/><path class="cls-4" d="M83.13,52.44a5.34,5.34,0,0,1,.91-.07,1.54,1.54,0,0,1,1,.3,1,1,0,0,1,.32.77,1.12,1.12,0,0,1-.28.79,1.57,1.57,0,0,1-1.13.4,2.17,2.17,0,0,1-.38,0v1.47h-.47Zm.47,1.77a1.46,1.46,0,0,0,.39,0c.58,0,.92-.28.92-.79s-.34-.72-.86-.72a2.07,2.07,0,0,0-.45,0Z"/><path class="cls-4" d="M86.16,54.91l-.38,1.16h-.49l1.25-3.68h.57l1.25,3.68h-.5l-.4-1.16Zm1.21-.37L87,53.48a6.91,6.91,0,0,1-.19-.67h0c-.06.22-.12.45-.19.67l-.36,1.06Z"/><path class="cls-4" d="M88.9,52.44a5.34,5.34,0,0,1,.91-.07,1.52,1.52,0,0,1,1,.3,1,1,0,0,1,.32.77,1.08,1.08,0,0,1-.28.79,1.55,1.55,0,0,1-1.12.4,2.17,2.17,0,0,1-.38,0v1.47H88.9Zm.48,1.77a1.41,1.41,0,0,0,.39,0c.57,0,.92-.28.92-.79s-.34-.72-.87-.72a2,2,0,0,0-.44,0Z"/><path class="cls-4" d="M93.7,54.35H92.28v1.32h1.59v.4H91.8V52.39h2v.4H92.28V54H93.7Z"/><path class="cls-4" d="M94.48,52.44a5,5,0,0,1,.91-.07,1.51,1.51,0,0,1,1.07.3.91.91,0,0,1,.28.69,1,1,0,0,1-.69.94v0a.91.91,0,0,1,.54.74,5.4,5.4,0,0,0,.29,1h-.5a4.77,4.77,0,0,1-.24-.88c-.11-.51-.31-.7-.74-.71H95v1.59h-.48ZM95,54.12h.48c.51,0,.83-.28.83-.7s-.34-.68-.84-.69a1.51,1.51,0,0,0-.47.05Z"/><polyline class="cls-30" points="140 96.02 120.62 96.02 118.19 54.36 144.79 54.36 142.99 85.21 142.26 96.02 140 96.02"/><polygon class="cls-31" points="111.9 54.36 114.33 96.02 137.19 96.02 138.5 54.36 111.9 54.36"/><path class="cls-4" d="M119.09,76.78l-1.48-2.56a1.91,1.91,0,0,0,.54.08h6.22v3.14h-4.13A1.3,1.3,0,0,1,119.09,76.78Z"/><path class="cls-4" d="M118.15,73.82a1.33,1.33,0,0,1-1.15-2l2.06-3.58,2.73,1.57-2.31,4Z"/><polygon class="cls-4" points="120.89 68.24 122.13 70.4 118.39 68.24 120.89 68.24"/><path class="cls-4" d="M133.4,73.14l-1.48,2.56a1.91,1.91,0,0,0-.19-.5l-3.12-5.39,2.73-1.57,2.06,3.57A1.32,1.32,0,0,1,133.4,73.14Z"/><path class="cls-4" d="M131.31,75.44a1.33,1.33,0,0,1-1.15,2H126V74.28h4.61Z"/><polygon class="cls-4" points="125.11 75.86 126.36 73.7 126.36 78.02 125.11 75.86"/><path class="cls-4" d="M123.11,62.54h3a2,2,0,0,0-.34.43l-3.11,5.39-2.73-1.58L122,63.21A1.31,1.31,0,0,1,123.11,62.54Z"/><path class="cls-4" d="M126.15,63.21a1.31,1.31,0,0,1,1.15-.67,1.3,1.3,0,0,1,1.14.67l2.07,3.57-2.73,1.58-2.3-4Z"/><polygon class="cls-4" points="129.61 68.37 127.11 68.37 130.85 66.21 129.61 68.37"/><path class="cls-4" d="M118.41,80.86a3.79,3.79,0,0,1,.68-.06,1.16,1.16,0,0,1,.77.23.75.75,0,0,1,.25.58.81.81,0,0,1-.22.59,1.14,1.14,0,0,1-.84.31,1.23,1.23,0,0,1-.29,0v1.11h-.35Zm.35,1.33a1.26,1.26,0,0,0,.3,0c.43,0,.69-.21.69-.59s-.26-.54-.65-.54a1.3,1.3,0,0,0-.34,0Z"/><polygon class="cls-4" points="120.59 80.83 120.94 80.83 120.94 83.29 122.12 83.29 122.12 83.59 120.59 83.59 120.59 80.83"/><path class="cls-4" d="M123,82.72l-.29.87h-.37l.94-2.76h.43l.94,2.76h-.38l-.29-.87Zm.9-.28-.27-.8c-.06-.18-.1-.34-.14-.5h0c0,.16-.09.33-.14.5l-.27.8Z"/><path class="cls-4" d="M125,83.15a1.24,1.24,0,0,0,.64.18c.36,0,.58-.19.58-.47s-.15-.4-.52-.55-.73-.39-.73-.78a.79.79,0,0,1,.89-.75,1.24,1.24,0,0,1,.61.14l-.1.29a1.07,1.07,0,0,0-.52-.13c-.38,0-.52.22-.52.41s.16.38.55.53.7.41.7.81-.31.8-1,.8a1.42,1.42,0,0,1-.7-.18Z"/><path class="cls-4" d="M127.57,81.13h-.84v-.3h2v.3h-.85v2.46h-.36Z"/><path class="cls-4" d="M129.44,80.83v2.76h-.36V80.83Z"/><path class="cls-4" d="M132,83.5a1.84,1.84,0,0,1-.72.13,1.29,1.29,0,0,1-1.37-1.4,1.38,1.38,0,0,1,1.44-1.45,1.51,1.51,0,0,1,.66.12l-.09.29a1.37,1.37,0,0,0-.55-.11,1,1,0,0,0-1.08,1.14,1,1,0,0,0,1.06,1.11,1.39,1.39,0,0,0,.58-.12Z"/><rect class="cls-29" x="111.18" y="52.53" width="28.23" height="3.81"/><rect x="139.41" y="52.53" width="6.64" height="3.81" transform="translate(285.46 108.87) rotate(180)"/><rect x="111.18" y="56.11" width="34.87" height="0.31"/></g></g></svg>