<svg xmlns="http://www.w3.org/2000/svg" viewBox="0 0 165.86 165.86"><defs><style>.cls-1{fill:#9db064;}.cls-2{fill:#e0e0e0;}.cls-3{fill:#eee0ce;}.cls-4{fill:#e1d2c2;}.cls-5{fill:#b5b5b6;}.cls-6{fill:#8b8c8b;}.cls-7{fill:#9ca09c;}.cls-8{fill:#cccccb;}.cls-9{fill:#7e7f7f;}.cls-10{fill:#bca573;}.cls-11{fill:#dbc694;}.cls-12,.cls-16,.cls-17{fill:#765522;}.cls-13{fill:#533b18;}.cls-14,.cls-15,.cls-19,.cls-21,.cls-22,.cls-23,.cls-49{fill:none;}.cls-14,.cls-22{stroke:#9ca09c;}.cls-14,.cls-15,.cls-16,.cls-17,.cls-18,.cls-19,.cls-21,.cls-22,.cls-23,.cls-49{stroke-miterlimit:10;}.cls-14{stroke-width:0.25px;}.cls-15,.cls-16,.cls-17,.cls-23{stroke:#533b18;}.cls-15{stroke-width:0.5px;}.cls-16{stroke-width:0.46px;}.cls-17{stroke-width:0.46px;}.cls-18,.cls-45{fill:#fff;}.cls-18{stroke:#4c4c4d;}.cls-18,.cls-21{stroke-width:0.23px;}.cls-19,.cls-21{stroke:#6b6b6b;}.cls-19{stroke-width:0.23px;}.cls-20{fill:#848484;}.cls-22{stroke-width:0.27px;}.cls-23{stroke-width:0.54px;}.cls-24{fill:#a5704b;}.cls-25{fill:#070808;}.cls-26{fill:#e98427;}.cls-27{fill:#273339;}.cls-28{fill:#b76328;}.cls-29{fill:#c12026;}.cls-30{fill:#7c1317;}.cls-31{fill:#bfbfc1;}.cls-32{fill:#192023;}.cls-33{fill:#9ed0e3;}.cls-34{fill:#553326;}.cls-35{fill:#825639;}.cls-36{fill:#151210;}.cls-37{fill:#231f20;}.cls-38{fill:#010101;}.cls-39{fill:#161312;}.cls-40{fill:#171514;}.cls-41{fill:#181615;}.cls-42{fill:#191716;}.cls-43{fill:#040404;}.cls-44{fill:#31160e;}.cls-46{fill:#653c29;}.cls-47{fill:#956243;}.cls-48{fill:#ceb066;}.cls-49{stroke:#927b46;stroke-width:0.36px;}.cls-50{fill:#3f261c;}.cls-51{fill:#13110f;}.cls-52{fill:#184449;}.cls-53{fill:#2b636d;}.cls-54{fill:#f1eef7;}.cls-55{fill:#96963a;}.cls-56{fill:#92b4b8;}.cls-57{fill:#ae7462;}.cls-58{fill:#527f80;}.cls-59{fill:#3c7f8e;}.cls-60{fill:#265157;}</style></defs><g id="Layer_1" data-name="Layer 1"><path class="cls-1" d="M162.42,130.52c.57-2.68,2.94-5.92-1.45-8.47-3.92-2.29-10.94-3.23-15.39-2.55a3.65,3.65,0,0,1-3.09-.87H115.75L109,106.31,57.15,118.65a44.79,44.79,0,0,0-11.46,1.67c-17.93.23-34.13.88-34.14.88-2.09,0-5.89.06-7.2.14-5.7.32-.76,12.45,2.78,15.1a10.37,10.37,0,0,1,2.08,1.7c1,1.3.56,4,1,5.61a15.48,15.48,0,0,0,3.32,6.37,19.48,19.48,0,0,0,9.43,5.48,45.9,45.9,0,0,0,22.49.35c7.15-1.58,14.17-5.64,21.55-5.88,5.7-.19,11,2.3,16.59,2.84s11.79-.38,17.18-1.51c9.48-2,18.34-5.53,28.2-4.61,9.71.91,19.78,1.74,29-2.13C166.1,141.23,161.19,136.26,162.42,130.52Z"/><path class="cls-2" d="M157,133.44l-67.4,8.05a10.1,10.1,0,0,1-8.55-3.19L61.86,114.19l79.53-3.36,17,17.89A2.68,2.68,0,0,1,157,133.44Z"/><polygon class="cls-3" points="145.74 125.81 120.37 108.39 120.37 27.34 147.35 28.91 145.74 125.81"/><path class="cls-2" d="M92.22,140.94l-64.36,7.57a10.11,10.11,0,0,1-8.55-3.19l-15-24,72.24-3,17,17.89A2.68,2.68,0,0,1,92.22,140.94Z"/><polygon class="cls-4" points="120.52 29.01 120.52 108.65 78.05 110.97 79.06 28.95 120.52 29.01"/><polygon class="cls-5" points="91.03 126.02 146.32 118.78 120.37 107.39 83.3 110.97 91.03 126.02"/><polygon class="cls-6" points="142.62 124.13 91.74 129.15 91.74 123.38 142.62 118.49 142.62 124.13"/><polygon class="cls-7" points="145.53 130.36 94.65 136.34 94.65 131.71 145.53 125.81 145.53 130.36"/><polygon class="cls-8" points="145.53 125.81 94.65 131.71 91.74 129.15 142.48 123.06 145.53 125.81"/><polygon class="cls-6" points="91.74 129.15 91.74 133.5 94.65 136.34 94.65 131.71 91.74 129.15"/><path class="cls-7" d="M145.46,18.85a2.75,2.75,0,0,0,.81.14,2.83,2.83,0,0,0,2.84-2.82Z"/><path class="cls-7" d="M138.57,16.17l-17.32,9.69,4.07,0,15-7.08A2.82,2.82,0,0,1,138.57,16.17Z"/><path class="cls-7" d="M143.74,16.17l-3.87,2.61,0,0-14.8,7.06h-.28l-1.26.85,6.48.61,15.69-8.45A2.81,2.81,0,0,1,143.74,16.17Z"/><path class="cls-7" d="M149.15,16.19l-17.31,9.69h4.07l15-7.07A2.84,2.84,0,0,1,149.15,16.19Z"/><path class="cls-9" d="M140.05,18.65s3.63.55,3.69-2.48l-3.69,2.48"/><path class="cls-9" d="M145.33,18.71s3,1.31,3.8-2.52l-3.69,2.48"/><path class="cls-7" d="M134.87,18.81a2.76,2.76,0,0,0,.82.13,2.83,2.83,0,0,0,2.84-2.82Z"/><path class="cls-7" d="M128,16.13l-17.32,9.69h4.07l15-7.07A2.83,2.83,0,0,1,128,16.13Z"/><path class="cls-7" d="M133.16,16.13l-3.88,2.61h0l-14.8,7.06h-.27l-1.26.86,6.47.61,15.7-8.45A2.82,2.82,0,0,1,133.16,16.13Z"/><path class="cls-7" d="M138.57,16.14l-17.32,9.7h4.07l15-7.07A2.84,2.84,0,0,1,138.57,16.14Z"/><path class="cls-9" d="M129.46,18.61s3.64.54,3.7-2.48l-3.7,2.48"/><path class="cls-9" d="M134.75,18.66s3.05,1.32,3.8-2.52l-3.7,2.49"/><path class="cls-7" d="M124.29,18.77a2.76,2.76,0,0,0,.82.14A2.83,2.83,0,0,0,128,16.09Z"/><path class="cls-7" d="M117.4,16.1l-17.31,9.69h4.07l15-7.07A2.84,2.84,0,0,1,117.4,16.1Z"/><path class="cls-7" d="M122.57,16.09l-3.87,2.62h0l-14.8,7.06h-.27l-1.27.85,6.48.62,15.7-8.45A2.84,2.84,0,0,1,122.57,16.09Z"/><path class="cls-7" d="M128,16.11,110.67,25.8l4.07,0,15-7.07A2.83,2.83,0,0,1,128,16.11Z"/><path class="cls-9" d="M118.88,18.58s3.63.54,3.69-2.49l-3.69,2.49"/><path class="cls-9" d="M124.16,18.63s3.06,1.31,3.8-2.52l-3.69,2.49"/><path class="cls-7" d="M113.71,18.73a2.75,2.75,0,0,0,.81.14,2.83,2.83,0,0,0,2.84-2.82Z"/><path class="cls-7" d="M106.82,16.05,89.5,25.74l4.07,0,15-7.07A2.84,2.84,0,0,1,106.82,16.05Z"/><path class="cls-7" d="M112,16.05l-3.87,2.61,0,0-14.8,7.06h-.28l-1.26.85,6.48.61L114,18.75A2.81,2.81,0,0,1,112,16.05Z"/><path class="cls-7" d="M117.4,16.07l-17.31,9.69h4.07l15-7.07A2.84,2.84,0,0,1,117.4,16.07Z"/><path class="cls-9" d="M108.3,18.53s3.63.55,3.69-2.48l-3.69,2.48"/><path class="cls-9" d="M113.58,18.59s3,1.31,3.8-2.52l-3.69,2.48"/><path class="cls-7" d="M124,18.91a2.76,2.76,0,0,0,.82.14,2.84,2.84,0,0,0,2.84-2.82Z"/><path class="cls-7" d="M117.27,16.94,99.79,26.32l4.07.09L119,19.6A2.83,2.83,0,0,1,117.27,16.94Z"/><path class="cls-7" d="M122.44,17l-3.92,2.54h0l-14.92,6.8h-.27l-1.28.83,6.46.73,15.85-8.18A2.8,2.8,0,0,1,122.44,17Z"/><path class="cls-7" d="M127.85,17.14l-17.48,9.39,4.07.08,15.15-6.81A2.82,2.82,0,0,1,127.85,17.14Z"/><path class="cls-9" d="M118.6,18.71s3.63.55,3.69-2.48l-3.69,2.48"/><path class="cls-9" d="M123.88,18.77s3.06,1.31,3.81-2.52L124,18.73"/><path class="cls-7" d="M113.43,18.87a2.75,2.75,0,0,0,.81.13,2.81,2.81,0,0,0,2.84-2.82Z"/><path class="cls-7" d="M106.54,16.19,89.22,25.88H93.3l15-7.07A2.83,2.83,0,0,1,106.54,16.19Z"/><path class="cls-7" d="M111.71,16.19l-3.87,2.61h0l-14.8,7.06h-.27l-1.27.86,6.48.61,15.7-8.45A2.84,2.84,0,0,1,111.71,16.19Z"/><path class="cls-7" d="M117.13,16.2,99.81,25.9h4.07l15-7.07A2.82,2.82,0,0,1,117.13,16.2Z"/><path class="cls-9" d="M108,18.67s3.63.55,3.69-2.48L108,18.67"/><path class="cls-9" d="M113.3,18.72s3,1.32,3.8-2.52l-3.69,2.49"/><path class="cls-7" d="M102.84,18.84a2.76,2.76,0,0,0,.82.13,2.83,2.83,0,0,0,2.84-2.82Z"/><path class="cls-7" d="M96,16.16,78.63,28.93H82.7l15-10.15A2.84,2.84,0,0,1,96,16.16Z"/><path class="cls-7" d="M101.13,16.15l-3.88,2.62h0L82.49,28.92h-.28L81,29.77l6.48-2.46,15.7-8.45A2.82,2.82,0,0,1,101.13,16.15Z"/><path class="cls-7" d="M106.54,16.17l-17.32,9.7H93.3l15-7.07A2.84,2.84,0,0,1,106.54,16.17Z"/><path class="cls-9" d="M97.43,18.64s3.64.54,3.7-2.49l-3.7,2.49"/><path class="cls-9" d="M102.72,18.69s3,1.31,3.8-2.52l-3.69,2.49"/><path class="cls-7" d="M92.26,18.79a2.76,2.76,0,0,0,.82.14,2.84,2.84,0,0,0,2.84-2.82Z"/><path class="cls-7" d="M85.38,16.11,63.93,32,68,32,87.16,18.75A2.82,2.82,0,0,1,85.38,16.11Z"/><path class="cls-7" d="M90.55,16.11l-3.88,2.62h0L71.9,28.88h-.27l-1.26.85,6.47.61L92.55,18.81A2.8,2.8,0,0,1,90.55,16.11Z"/><path class="cls-7" d="M96,16.13,78.63,28.9l4.07,0,15-10.16A2.82,2.82,0,0,1,96,16.13Z"/><path class="cls-9" d="M86.85,18.59s3.63.55,3.7-2.48l-3.7,2.48"/><path class="cls-9" d="M92.13,18.65s3.06,1.31,3.81-2.52l-3.7,2.48"/><path class="cls-7" d="M87.07,18.58a2.75,2.75,0,0,0,.81.13,2.81,2.81,0,0,0,2.84-2.82Z"/><path class="cls-7" d="M80.18,15.9,62.86,25.59h4.07l15-7.07A2.84,2.84,0,0,1,80.18,15.9Z"/><path class="cls-7" d="M85.35,15.89l-3.87,2.62h0l-14.8,7.06h-.28l-1.26.85,6.47.62,15.7-8.45A2.83,2.83,0,0,1,85.35,15.89Z"/><path class="cls-7" d="M90.76,15.91l-17.31,9.7h4.07l15-7.07A2.84,2.84,0,0,1,90.76,15.91Z"/><path class="cls-9" d="M81.66,18.38s3.63.54,3.69-2.49l-3.69,2.49"/><path class="cls-9" d="M86.94,18.43s3,1.32,3.8-2.52L87.05,18.4"/><path class="cls-7" d="M77.52,18.53a2.75,2.75,0,0,0,.81.14,2.83,2.83,0,0,0,2.84-2.82Z"/><path class="cls-7" d="M70.63,15.85l-17.32,9.7h4.08l15-7.07A2.84,2.84,0,0,1,70.63,15.85Z"/><path class="cls-7" d="M75.8,15.85l-3.87,2.62h0l-14.8,7.06H56.9l-1.27.85,6.48.61,15.7-8.45A2.82,2.82,0,0,1,75.8,15.85Z"/><path class="cls-7" d="M81.22,15.87,63.9,25.56l4.07,0L83,18.5A2.79,2.79,0,0,1,81.22,15.87Z"/><path class="cls-9" d="M72.11,18.34s3.63.54,3.69-2.49l-3.69,2.49"/><path class="cls-9" d="M77.39,18.39s3,1.31,3.8-2.52L77.5,18.35"/><path class="cls-7" d="M66.93,18.5a2.76,2.76,0,0,0,.82.14,2.84,2.84,0,0,0,2.84-2.82Z"/><path class="cls-7" d="M60.05,15.82,42.73,25.51l4.07,0,15-7.07A2.85,2.85,0,0,1,60.05,15.82Z"/><path class="cls-7" d="M65.22,15.82l-3.88,2.61,0,0L46.59,25.51h-.28l-1.26.85,6.47.61,15.7-8.45A2.8,2.8,0,0,1,65.22,15.82Z"/><path class="cls-7" d="M70.63,15.84,53.31,25.53h4.08l15-7.07A2.84,2.84,0,0,1,70.63,15.84Z"/><path class="cls-9" d="M61.52,18.3s3.64.55,3.7-2.48l-3.7,2.48"/><path class="cls-9" d="M66.81,18.36s3,1.31,3.8-2.52l-3.69,2.48"/><path class="cls-7" d="M56.35,18.46a2.76,2.76,0,0,0,.82.13A2.83,2.83,0,0,0,60,15.77Z"/><path class="cls-7" d="M49.47,15.78,32.15,25.47h4.07l15-7.07A2.81,2.81,0,0,1,49.47,15.78Z"/><path class="cls-7" d="M54.64,15.78l-3.88,2.61h0L36,25.46h-.27l-1.26.86,6.47.61,15.7-8.45A2.82,2.82,0,0,1,54.64,15.78Z"/><path class="cls-7" d="M60.05,15.79l-17.32,9.7H46.8l15-7.07A2.85,2.85,0,0,1,60.05,15.79Z"/><path class="cls-9" d="M50.94,18.26s3.63.54,3.7-2.48l-3.7,2.48"/><path class="cls-9" d="M56.22,18.31s3.06,1.32,3.81-2.52l-3.7,2.49"/><path class="cls-7" d="M66.66,18.64a2.75,2.75,0,0,0,.81.13A2.82,2.82,0,0,0,70.31,16Z"/><path class="cls-7" d="M59.77,16,42.45,25.65h4.07l15-7.07A2.84,2.84,0,0,1,59.77,16Z"/><path class="cls-7" d="M64.94,16l-3.87,2.61h0L46.31,25.64H46l-1.26.86,6.47.61,15.7-8.45A2.82,2.82,0,0,1,64.94,16Z"/><path class="cls-7" d="M70.35,16,53,25.67h4.08l15-7.07A2.84,2.84,0,0,1,70.35,16Z"/><path class="cls-9" d="M61.25,18.44S64.88,19,64.94,16l-3.69,2.48"/><path class="cls-9" d="M66.53,18.49s3,1.32,3.8-2.52l-3.69,2.49"/><path class="cls-7" d="M56.07,18.59a2.76,2.76,0,0,0,.82.14,2.83,2.83,0,0,0,2.84-2.82Z"/><path class="cls-7" d="M49.19,15.91l-17.32,9.7h4.07l15-7.07A2.82,2.82,0,0,1,49.19,15.91Z"/><path class="cls-7" d="M54.36,15.91l-3.88,2.62h0L35.72,25.6h-.27l-1.26.85,6.47.62,15.7-8.46A2.8,2.8,0,0,1,54.36,15.91Z"/><path class="cls-7" d="M59.77,15.93,42.45,25.62l4.07,0,15-7.08A2.82,2.82,0,0,1,59.77,15.93Z"/><path class="cls-9" d="M50.66,18.4s3.63.54,3.7-2.49l-3.7,2.49"/><path class="cls-9" d="M55.94,18.45s3.06,1.31,3.81-2.52l-3.7,2.48"/><path class="cls-7" d="M45.49,18.56a2.75,2.75,0,0,0,.81.14,2.83,2.83,0,0,0,2.84-2.82Z"/><path class="cls-7" d="M38.6,15.88,21.27,28.65l4.08,0,15-10.15A2.84,2.84,0,0,1,38.6,15.88Z"/><path class="cls-7" d="M43.77,15.88,39.9,18.49l0,0L25.13,28.65h-.27l-1.27.85L30.08,27l15.7-8.45A2.82,2.82,0,0,1,43.77,15.88Z"/><path class="cls-7" d="M49.19,15.9,31.87,25.59h4.07l15-7.07A2.81,2.81,0,0,1,49.19,15.9Z"/><path class="cls-9" d="M40.08,18.36s3.63.55,3.69-2.48l-3.69,2.48"/><path class="cls-9" d="M45.36,18.42s3,1.31,3.8-2.52l-3.69,2.48"/><path class="cls-7" d="M34.91,18.52a2.75,2.75,0,0,0,.81.13,2.82,2.82,0,0,0,2.84-2.82Z"/><path class="cls-7" d="M28,15.84,6.57,31.68h4.08L29.81,18.47A2.82,2.82,0,0,1,28,15.84Z"/><path class="cls-7" d="M33.19,15.84l-3.87,2.61h0L14.55,28.6h-.28L13,29.46l6.47.61L35.19,18.54A2.83,2.83,0,0,1,33.19,15.84Z"/><path class="cls-7" d="M38.6,15.85,21.27,28.63h4.08l15-10.15A2.84,2.84,0,0,1,38.6,15.85Z"/><path class="cls-9" d="M29.5,18.32s3.63.55,3.69-2.48L29.5,18.32"/><path class="cls-9" d="M34.78,18.37s3,1.32,3.8-2.52l-3.69,2.49"/><path class="cls-7" d="M29.65,18.61a2.76,2.76,0,0,0,.82.14,2.84,2.84,0,0,0,2.84-2.82Z"/><path class="cls-7" d="M22.76,15.93,4.52,33H6.6l18-14.39A2.84,2.84,0,0,1,22.76,15.93Z"/><path class="cls-7" d="M27.93,15.93l-3.87,2.61,0,0L9.29,28.7l.92.58.31.53,3.71.35L29.94,18.63A2.82,2.82,0,0,1,27.93,15.93Z"/><path class="cls-7" d="M33.35,16,16,28.72h4.07l15-10.15A2.83,2.83,0,0,1,33.35,16Z"/><path class="cls-9" d="M24.24,18.41s3.63.55,3.69-2.48l-3.69,2.48"/><path class="cls-9" d="M29.52,18.47s3.06,1.31,3.8-2.52l-3.69,2.48"/><polygon class="cls-10" points="69.49 115.44 68.87 33.26 84.53 23.41 84.53 134.51 69.49 115.44"/><polygon class="cls-11" points="147.28 22.91 84.53 23.41 84.53 25.43 84.53 35.12 84.53 134.51 91.74 133.5 91.74 30.2 147.35 29.77 147.28 22.91"/><polygon class="cls-12" points="84.69 20.26 84.5 23.29 147.59 22.91 147.54 20.16 84.69 20.26"/><polygon class="cls-12" points="139.75 30.86 139.75 118.08 157.42 128.71 157.42 26.55 139.75 30.86"/><rect class="cls-13" x="157.42" y="26.55" width="3.07" height="102.16"/><line class="cls-14" x1="120.37" y1="107.39" x2="120.51" y2="30.34"/><line class="cls-15" x1="153.6" y1="27.9" x2="154.06" y2="126.46"/><line class="cls-15" x1="150.1" y1="28.64" x2="150.54" y2="124.22"/><line class="cls-15" x1="142.84" y1="30.19" x2="143.26" y2="119.82"/><line class="cls-15" x1="146.67" y1="29.33" x2="146.88" y2="122.37"/><polygon class="cls-16" points="157.12 44.49 139.74 47.52 139.74 43.17 157.12 40.14 157.12 44.49"/><polygon class="cls-17" points="157.27 108.33 140.08 102.28 140.08 97.93 157.27 103.98 157.27 108.33"/><rect class="cls-6" x="139.16" y="41.68" width="0.59" height="6.5"/><rect class="cls-6" x="139.45" y="96.62" width="0.59" height="6.5"/><polygon class="cls-11" points="85.34 133.82 27.86 140.45 58.5 29.87 85.65 30.33 85.34 133.82"/><polygon class="cls-4" points="59.54 29.47 59.54 109.29 14.08 113.99 15.16 29.41 59.54 29.47"/><polygon class="cls-6" points="80.28 131.27 28.9 135.79 28.9 129.62 80.28 125.23 80.28 131.27"/><polygon class="cls-7" points="84.09 138.23 32.02 144.63 32.02 139.67 84.09 133.36 84.09 138.23"/><polygon class="cls-8" points="83.82 133.7 32.02 139.67 28.9 135.79 80.56 130.75 83.82 133.7"/><polygon class="cls-6" points="28.9 135.79 28.9 140.45 32.02 144.63 32.02 139.67 28.9 135.79"/><path class="cls-18" d="M65.31,121.75l-26.94,2.61a6.29,6.29,0,0,1-4.63-1.48L29,119v-2l0-2.25,23.25-2.06a6.57,6.57,0,0,1,4.13,1.09L65.76,120A1,1,0,0,1,65.31,121.75Z"/><polygon class="cls-10" points="8.36 121.12 7.7 33.16 21.18 22.62 21.18 141.53 8.36 121.12"/><polygon class="cls-11" points="86.53 23.34 21.18 22.62 21.18 24.78 21.18 35.15 21.18 141.53 28.9 140.45 29.09 31.61 86.71 31.78 86.53 23.34"/><polygon class="cls-12" points="7.16 32.79 7.22 36.22 21.15 23.62 21.09 19.89 7.16 32.79"/><polygon class="cls-12" points="20.05 19.89 20.12 23.62 87.64 23.21 87.59 20.27 20.05 19.89"/><path class="cls-19" d="M43.06,114.36c-2.83.2-5.62.84-5.7,2.39-.1,1.84,4.69,1.17,5.72,2.14s3.66,4.16,8,3.11-1-3.41-.93-4c.14-1,.87-2.31-.19-3a3.17,3.17,0,0,0-1.15-.42A28.15,28.15,0,0,0,43.06,114.36Z"/><ellipse class="cls-8" cx="44.17" cy="116.48" rx="2.39" ry="0.85"/><path class="cls-20" d="M42.11,116.88a4.08,4.08,0,0,0,2.09.45c1.22,0,2.21-.33,2.36-.75a3.1,3.1,0,0,0-1.81-.44C43.53,116.14,42.25,116.46,42.11,116.88Z"/><line class="cls-21" x1="51.68" y1="115.87" x2="56.83" y2="115.55"/><line class="cls-21" x1="52.74" y1="116.92" x2="58.3" y2="116.58"/><line class="cls-21" x1="54.49" y1="118.01" x2="60.2" y2="117.66"/><line class="cls-21" x1="56.26" y1="119.16" x2="61.96" y2="118.81"/><line class="cls-21" x1="31.65" y1="117.8" x2="36.8" y2="117.49"/><line class="cls-21" x1="32.45" y1="118.83" x2="38.01" y2="118.5"/><line class="cls-21" x1="34.23" y1="120.09" x2="39.94" y2="119.74"/><line class="cls-21" x1="35.51" y1="121.34" x2="41.22" y2="120.99"/><line class="cls-22" x1="59.54" y1="109.29" x2="59.71" y2="30.49"/></g><g id="Layer_3" data-name="Layer 3"><polygon class="cls-12" points="28.9 31.06 28.9 129.62 80.28 125.43 80.28 30.83 28.9 31.06"/><line class="cls-23" x1="37.36" y1="31.06" x2="37.36" y2="128.09"/><line class="cls-23" x1="46.4" y1="31.06" x2="46.67" y2="127.68"/><line class="cls-23" x1="56.09" y1="31.06" x2="56.36" y2="127.27"/><line class="cls-23" x1="64.82" y1="30.83" x2="65.09" y2="126.05"/><line class="cls-23" x1="73.3" y1="30.83" x2="73.56" y2="125.69"/><rect class="cls-6" x="79.51" y="42.93" width="1.15" height="11.97"/><rect class="cls-6" x="79.51" y="104.03" width="1.15" height="11.97"/><path class="cls-24" d="M140.07,119.05s.37,5.54.44,8.15-1,1.91-2.94,3.34a14.52,14.52,0,0,1-2,1,6.07,6.07,0,0,0-1.93.64c-.27.31-.44,1,.38,1.06a28.57,28.57,0,0,0,4.73.24c1.07-.17,3.85-1,4.91-1.09s1.74,0,2-.57a3.72,3.72,0,0,0-.28-2.63,4.21,4.21,0,0,1-.35-2.9c.26-.65,1.7-7.5,1.7-7.5Z"/><path class="cls-25" d="M134.07,133.85a10.21,10.21,0,0,1,2.76-.11,14.77,14.77,0,0,0,2.82-.12c2.15-.31,3.86-.58,6-.9.44-.07.36-.62.08-.59-2.36.3-4.38.69-6.57,1a15.63,15.63,0,0,1-2.9.09,9.84,9.84,0,0,0-2.71.16c-.18,0-.08.25,0,.33a.56.56,0,0,0,.51.15Z"/><path class="cls-25" d="M135.28,131.63a9,9,0,0,1,1-.2,1.87,1.87,0,0,1,1.45.51,3.62,3.62,0,0,1,.38,1.37l.8,0s-.49-1.6-1.06-2A2.19,2.19,0,0,0,135.28,131.63Z"/><path class="cls-24" d="M127.37,113.32s.37,5.54.44,8.16-1,1.91-2.94,3.34a14.52,14.52,0,0,1-2,1,6.07,6.07,0,0,0-1.93.64c-.27.31-.44,1,.38,1.06a29.7,29.7,0,0,0,4.73.24c1.07-.17,3.85-1,4.91-1.09s1.74,0,1.95-.57a3.72,3.72,0,0,0-.28-2.63,4.22,4.22,0,0,1-.35-2.9c.26-.65-2-7.36-2-7.36Z"/><path class="cls-25" d="M121.37,128.13a10.21,10.21,0,0,1,2.76-.11,14.77,14.77,0,0,0,2.82-.13c2.15-.3,3.86-.57,6-.9.44-.06.36-.61.08-.58-2.36.3-4.38.69-6.57,1a15.63,15.63,0,0,1-2.9.09,10.25,10.25,0,0,0-2.71.15c-.18,0-.08.26,0,.34a.56.56,0,0,0,.51.15Z"/><path class="cls-25" d="M122.58,125.9a10.09,10.09,0,0,1,1-.19,1.84,1.84,0,0,1,1.45.51,3.62,3.62,0,0,1,.38,1.37l.8,0s-.49-1.6-1.06-2A2.2,2.2,0,0,0,122.58,125.9Z"/><path class="cls-26" d="M134.81,67.74l-8,.79s-.77-9.83.5-12.69,3.42-3.5,4.89-2.81S135.11,62.06,134.81,67.74Z"/><path class="cls-27" d="M147.39,77.87s1.28,5.94,0,8.52a13,13,0,0,1-7.78,6.21c-4.73,1.34-10.05,9.15-10.05,9.15s1.24,4.49,1.94,7.07c.37,2.85,1.48,11.5,1.48,11.5l-6.87,1.13-5.83-19.88s-1.51-3.21,2-6.29c3.85-3.5,10-14.58,10-14.58l.87-1.87Z"/><path class="cls-27" d="M146.69,85.43l-1.87,3.26.84,16.27a61.87,61.87,0,0,1,1.6,8.27c.18,2.83.16,14.15.16,14.15l-8.39-.69s-.18-13.79-2.36-18.11c-1.72-3.4-2.6-9.15-2.65-9.52s-2.24-9.64-2.24-9.64l4.75-7.49Z"/><path class="cls-26" d="M132.27,52.71c1.07-.37,2.21-.62,2.42-1.69a4.32,4.32,0,0,1,.22-1.3c.41-.72,1.76-.3,2.4-.29a44.44,44.44,0,0,1,5.05,1c1.34.23.89.73,1.74,1.64.72,2.72,1.49,7.47,1.49,7.47l2.94,19.67c.23.65-2.06,1.12-3.38,1.44l-10.94,1.57s-3.27-.4-3.68-1.29c-.33-.72-.7-10.62-1.41-14.77-.13-.76-.49-3.09-.7-4.45a12.41,12.41,0,0,1-.16-2V54.49l3-2.8C131.68,52.16,131.6,53,132.27,52.71Z"/><path class="cls-24" d="M146.43,59.5c.69,3.27.53,12,.11,13.07-1.29,3.15-11,10.92-11,10.92L133.2,82l8.23-11.36-.82-11.9"/><path class="cls-24" d="M129.65,68.32c-.3,0-.56,0-.86,0s-.74.12-1.11.13l.25,3.52L119.7,83.36,122,84.85A80.51,80.51,0,0,0,130.3,78c-.16-3.66-.28-4.48-.45-7.27C129.81,70.18,129.69,69,129.65,68.32Z"/><path class="cls-26" d="M148.07,65.33l-8,1.42s-1.94-9.13-1.65-12.24,2.14-4.42,3.74-4.22C147.69,51,147.82,62.9,148.07,65.33Z"/><path class="cls-28" d="M138.66,54.18a4.78,4.78,0,0,1,.9-2.67,2.88,2.88,0,0,1,1.72-1.14,2.38,2.38,0,0,1,.8,0,2.51,2.51,0,0,1,1.24.63l-.07,0a2.49,2.49,0,0,0-2.9.18,6.24,6.24,0,0,0-1.11,1.61,4.31,4.31,0,0,0-.32.8c0,.12,0,.25-.08.37s-.18.28-.18.34Z"/><path class="cls-24" d="M136.57,50.27c-.33.46-.61,1-1,1.38a6.44,6.44,0,0,1-1.82,1.46c-.61.34-1.78.92-2.34.18a2.19,2.19,0,0,1-.35-1.2,15,15,0,0,0-.69-3,2,2,0,0,0-.07-.23L136,42.53s0,.27,0,.32q0,.46.06.93a22,22,0,0,0,.59,3.32c.11.43.23.86.37,1.28a5.46,5.46,0,0,1,.28.77c.06.33-.12.43-.32.65A5.58,5.58,0,0,0,136.57,50.27Z"/><path class="cls-28" d="M128.25,57.18s-.37.68-.09,4.59c.09,1.24,1,6.54,1,6.54l.3,0s-1.47-8.06-1.16-11.1"/><path class="cls-29" d="M117.07,87.82l7.58.7h0l.32,0c1.21.14,2.44.25,3.66.37a.77.77,0,0,0,.61-.2v0a5.88,5.88,0,0,0,1.65-3l.62-3a5.26,5.26,0,0,0-.38-3.34v0a.58.58,0,0,0-.36-.31c-1.07-.33-2.14-.67-3.22-1-1.27-.37-2.52-.82-3.79-1.16L121,76l-.13-.08c-.24-.06-.9-.29-1.33-.43a1,1,0,0,0-.64-.56c-1.15-.24-2.3,2.62-3.06,6.28s-.83,6.74.33,7A1,1,0,0,0,117.07,87.82Zm2.8-11.46Z"/><path class="cls-30" d="M116.24,87.44c.81.17,2-2.33,2.68-5.58s.56-6-.25-6.19-1.81,2.38-2.48,5.63S115.43,87.27,116.24,87.44Z"/><path class="cls-31" d="M125,83.13a6.59,6.59,0,0,0-4.6-7.77.33.33,0,0,0-.41.26h0a.31.31,0,0,0,.23.38,6,6,0,0,1-2.43,11.79.33.33,0,0,0-.37.26h0a.34.34,0,0,0,.28.4A6.6,6.6,0,0,0,125,83.13Z"/><path class="cls-30" d="M119.55,75.45a12.13,12.13,0,0,1,.2,6.58,11.39,11.39,0,0,1-2.68,5.79s2.2-.85,3.24-5.49S119.55,75.45,119.55,75.45Z"/><path class="cls-28" d="M141.19,66.55l-.94.16s-1.68-8.78-1.59-10.18c0,0,.54,7.49,1.39,10.22l.07.16,1.07-.16Z"/><path class="cls-32" d="M133.47,96.87s4.7-4.79,5.81-5.29,6.13-1.75,7.36-4.29c0,0-.61,2-3.6,3.28s-4.7,2.19-5.35,2.93-3.95,4.23-3.95,4.23Z"/><path class="cls-33" d="M117.73,83.87a9.9,9.9,0,0,0-6.68,4.73,13.59,13.59,0,0,0-1.71,8.13,9.54,9.54,0,0,1-.07,4.09c-.62,1.7-1.35,1.6-.81,3.33a2.44,2.44,0,0,0,2.16,1.57,4.14,4.14,0,0,0,2.64-.88c.65-.47.07.49.44-.21A7.58,7.58,0,0,0,114,99.5a22.24,22.24,0,0,1-.89-5.15c.06-2.64,1.49-5,3.08-7.17.68-.91,1.44-2,1.22-3.08"/><path class="cls-33" d="M115.28,89.72A8.4,8.4,0,0,0,114.11,94a1.14,1.14,0,0,0,.18.77,1.12,1.12,0,0,0,1.76-.7,8.18,8.18,0,0,0-.09-1.2,9.35,9.35,0,0,1,.26-2.79c.1-.4-1-.24-1.06.13a9.7,9.7,0,0,0-.28,2.57c0,.43.09.86.11,1.28a.82.82,0,0,1,0,.27c0,.18-.17.17.14.11s.22,0,.14-.11a.51.51,0,0,1-.06-.2,3.42,3.42,0,0,1,0-1,11.82,11.82,0,0,1,.18-1.17,6.65,6.65,0,0,1,.86-2.16c.14-.21-.11-.31-.29-.32a.85.85,0,0,0-.7.29Z"/><path class="cls-33" d="M113.79,83.79a3.52,3.52,0,0,0-1.42.37,3.09,3.09,0,0,0-1.12.87.65.65,0,0,0-.09.79.79.79,0,0,0,1.07.08,3.24,3.24,0,0,0,.48-.5l.05,0s.07-.08,0,0l0,0,0,0a2.75,2.75,0,0,1,.26-.22l.28-.2.07,0h0l.16-.09.33-.17.15-.06.08,0c.1,0-.11,0,0,0a.7.7,0,0,0,.35-.21.39.39,0,0,0,.08-.31.5.5,0,0,0-.64-.24,5.36,5.36,0,0,0-2,1.23,5,5,0,0,0-.39.41s-.09.09,0,0c-.09.08-.09,0,.25,0s.2-.08.32,0,0,0,0,0,0,0,0,0v.06s0,0,0,0l0,0a1.3,1.3,0,0,1,.15-.18l0,0,.11-.09.19-.14.07,0,0,0,.12-.07a2.24,2.24,0,0,1,.27-.13l0,0s-.09,0,0,0l.15,0a1.18,1.18,0,0,0,.27-.06h.06l.15,0c.23,0,.58-.17.58-.44s-.26-.39-.49-.37Z"/><path class="cls-33" d="M112,107.52a8.35,8.35,0,0,0-1,1.55c-.2.4-.53,1-.35,1.43a.49.49,0,0,0,.53.29,1.51,1.51,0,0,0,1.12-.45,2.33,2.33,0,0,0,.18-1.5,2.35,2.35,0,0,1,.37-1.72c.11-.14-.39-.09-.42-.08a1.12,1.12,0,0,0-.63.27c-.63.76-.31,1.83-.37,2.73a.89.89,0,0,1-.18.5c-.16.23.53-.23.6-.16l-.08,0a.56.56,0,0,1-.09-.21,2.15,2.15,0,0,1,.38-1.27,7.44,7.44,0,0,1,1-1.52c.12-.14-.39-.09-.42-.08a1.06,1.06,0,0,0-.62.27Z"/><path class="cls-33" d="M97.9,116.91a3.65,3.65,0,0,0-2.05.47,1.23,1.23,0,0,0-.61,1.36c0,.11.2.13.3.13a2.54,2.54,0,0,0,2.31-1.43c0-.07,0-.14-.09-.16a.62.62,0,0,0-.33,0,3.27,3.27,0,0,0-1.61.77s-.12.12-.1.2.12.11.19.12a1,1,0,0,0,.7-.19,2.11,2.11,0,0,1,.23-.19s0,0,0,0l0,0,0,0,.13-.07.06,0h0l.14,0c.07,0,0,0,0,0h.06s.22,0,.06,0l-.42-.18a.47.47,0,0,0,0,.1s0,0,0,0l0,0a1.33,1.33,0,0,1-.14.19l-.07.09,0,0s0,0,0,0l-.18.16s.07,0,0,0l-.05,0-.1.06s-.08,0,0,0,0,0,0,0l-.1,0c-.06,0,.11,0,.05,0l-.06,0h0l-.12,0c-.06,0,.1,0,0,0h-.07l.3.12a.68.68,0,0,1,0-.54l0-.06s0,0,0,0a.83.83,0,0,1,.08-.12l.05-.06s.08-.06,0,0l.12-.1s-.08,0,0,0l.08,0s-.08,0,0,0l.08,0,0,0,0,0,.08,0c.08,0,0,0,0,0h.1l.17,0c.1,0-.09,0,0,0h.47a.84.84,0,0,0,.66-.26c.14-.19-.12-.26-.26-.26Z"/><path class="cls-33" d="M105.15,113.23l-.3-.1-.14,0-.07,0h0c-.19-.08-.37-.19-.55-.28a1.69,1.69,0,0,0-1.5-.07c-.35.17-.7.57-.52,1s.86.39,1.29.39l1.52,0a.65.65,0,0,0,.53-.29c.09-.17,0-.28-.17-.34a4.59,4.59,0,0,0-1.79-.34.73.73,0,0,0-.66.29c-.11.2.1.36.29.36l.42,0,.21,0h.1c.08,0-.1,0,0,0a5.29,5.29,0,0,1,.8.24l.36-.63-1.44,0h-.49c.06,0,.06,0,0,0h0s0,0,0,0l0,0s0,0,0,0a.43.43,0,0,1,0-.11c0,.08,0,0,0,0v0s0,0,0,0l0,0s0,0,0,0,0,0,0,0,0,0,0,0,0,0,0,0,0,0,0,0h.1l.16.05s0,0,0,0l.08,0a7.84,7.84,0,0,0,1.26.54.77.77,0,0,0,.71-.19.24.24,0,0,0-.11-.42Z"/><path class="cls-33" d="M109.36,121.91c.25.56-.16,1.11-.18,1.68a1.06,1.06,0,0,0,.68,1.12,1.3,1.3,0,0,0,1.52-.77,2.84,2.84,0,0,0-.2-1.65c-.15-.53-.29-1.3.22-1.69.18-.14.1-.33-.1-.38a1,1,0,0,0-.75.2,1.76,1.76,0,0,0-.53,1.74c.11.6.49,1.25.31,1.87,0,.07-.08.22-.12.22a.5.5,0,0,1,.26-.11h.08s0,0,0,0a.85.85,0,0,1-.26-.6,2.43,2.43,0,0,1,.18-.88,1.62,1.62,0,0,0,0-1c-.09-.21-.42-.17-.6-.12s-.55.2-.46.41Z"/><path class="cls-33" d="M102.31,128.6l1.25.62.61.31a2.66,2.66,0,0,1,.58.3c.12.1.1.28.1.42a3.35,3.35,0,0,1,0,.63,3.25,3.25,0,0,1-.4,1.13s-.09.13-.08.15.29-.09.29-.07,0,0-.06-.05a.46.46,0,0,1-.08-.41,9.72,9.72,0,0,1,.55-1c.32-.79-.25-1.4-1-1.63a7.35,7.35,0,0,1-1.25-.3c-.27-.13-.53-.48-.37-.77s-.1-.38-.29-.4a.7.7,0,0,0-.66.3,1,1,0,0,0,.18,1.14,2.15,2.15,0,0,0,1.28.57A1.66,1.66,0,0,1,104,130c.29.37,0,.78-.24,1.1a1.23,1.23,0,0,0-.2,1.28,1,1,0,0,0,1.37.25,2.18,2.18,0,0,0,.72-1.15,4.18,4.18,0,0,0,.22-1.49.81.81,0,0,0-.28-.66,4.69,4.69,0,0,0-.8-.42l-1.69-.85a.72.72,0,0,0-.72.07c-.14.1-.29.37-.06.49Z"/><path class="cls-33" d="M107.66,133.68a3.09,3.09,0,0,0,1.24.55,3.17,3.17,0,0,0,.69.07c.12,0,.24,0,.35,0a.23.23,0,0,1,.11,0l0,0a.85.85,0,0,1,.28.26,1.16,1.16,0,0,1,.16.4,1.66,1.66,0,0,1,.07.49,1.23,1.23,0,0,1,0,.2.36.36,0,0,1,0,.11c0,.14-.06,0,.12,0l.27-.07c.1,0,.16,0,.07,0s-.07,0,0,0a.86.86,0,0,1-.13-.14,1.2,1.2,0,0,1-.15-.34,3.73,3.73,0,0,0-.33-.86,1.1,1.1,0,0,0-1.11-.41l-.18,0c.08,0-.11,0-.08,0s-.06,0-.06,0a.18.18,0,0,1-.09-.06.59.59,0,0,1-.21-.47c0-.22-.27-.23-.42-.21a1,1,0,0,0-.38.13c-.07,0-.19.12-.19.21a.87.87,0,0,0,.49.88,1.31,1.31,0,0,0,.62.1H109s.16,0,.08,0a.25.25,0,0,1,.15,0l0,0,.06,0a.69.69,0,0,1,.11.13,2,2,0,0,1,.13.29c.07.23.13.47.22.69a.93.93,0,0,0,.52.53,1,1,0,0,0,1.28-.58,1.7,1.7,0,0,0-.54-1.64,1.28,1.28,0,0,0-.63-.21c-.23,0-.46,0-.69,0a2.47,2.47,0,0,1-1.14-.44.67.67,0,0,0-.66,0c-.09,0-.46.26-.27.39Z"/><path class="cls-33" d="M114.84,118.52a4.23,4.23,0,0,0-3-1.78,3.24,3.24,0,0,1-1.79-.43,5,5,0,0,1-.59-.78,2.86,2.86,0,0,0-2.25-1,8.67,8.67,0,0,0-2.47.49l-.46-.12a5.58,5.58,0,0,0-2.12.22,1.91,1.91,0,0,0-1.31,1.55,3.49,3.49,0,0,1,0,.65c-.22.84-1.44.67-2.25,1a2.35,2.35,0,0,0-1.37,1.6,6.79,6.79,0,0,0-.15,2.16,1,1,0,0,0,.14.63,1,1,0,0,0,.65.3,7.58,7.58,0,0,0,2.28-.06c.41.45.29,1.21.18,1.83s0,1.6.63,1.78c.37.1.77-.09,1.14,0,.65.13.9,1,1.46,1.32,1,.65,2.72-.46,3.51.48.5.6.15,1.6.62,2.23a1.4,1.4,0,0,0,.6.44c.67.27,1.64,0,1.74-.73s-.58-1.15-.86-1.75a3.3,3.3,0,0,1,.13-2.31,1.29,1.29,0,0,1-1.41-1.06,3,3,0,0,1,.38-1.88,2.53,2.53,0,0,0,.18-.42,11.46,11.46,0,0,1,2.83-1c1.23-.12,2.69.37,3.58-.49A2.3,2.3,0,0,0,114.84,118.52ZM104.43,123a2.94,2.94,0,0,1-.55,1.14c-.17.24-.45.51-.73.4s-.3-.52-.25-.83a4.3,4.3,0,0,0,.08-1.47c0-.32-.25-.67-.57-.69l.48-.13a2,2,0,0,1,1.23.41A1.27,1.27,0,0,1,104.43,123Zm3.84-5.14s-.08,0-.13,0a14.13,14.13,0,0,1-1.42-.26.46.46,0,0,1-.2-.09.48.48,0,0,1-.09-.29.72.72,0,0,1,.07-.46.4.4,0,0,1,.53-.12l.58.31a1.69,1.69,0,0,1,.66.69C108.3,117.74,108.33,117.83,108.27,117.88Z"/><path class="cls-24" d="M127.73,84.56a7.27,7.27,0,0,0,1.56-.21c.07-.08.64-.55,1.14-.95a.6.6,0,0,0,.13-.83c-.06-.07-1.51.51-1.75-.16l1.11-.74a5.57,5.57,0,0,1,1.25-.42,8.2,8.2,0,0,1,1.73.15l1-.34L136.15,83l-2.5,2.1a17.12,17.12,0,0,1-2.93,1.9,4,4,0,0,1-1.33-.5c-.59.11-1.12-.53-1.12-.53-1-.14-.59-.64-.59-.64a.12.12,0,0,1-.1,0A.4.4,0,0,1,127.73,84.56Z"/><path class="cls-34" d="M130.94,84.24a1.57,1.57,0,0,1-.35.42,2.64,2.64,0,0,1-1.08.75,2.43,2.43,0,0,1-1.31,0,1.77,1.77,0,0,1-.51-.15,2.44,2.44,0,0,1,.53,0,2.94,2.94,0,0,0,1.25-.06,3.4,3.4,0,0,0,1.06-.69A2.3,2.3,0,0,1,130.94,84.24Z"/><path class="cls-34" d="M131.25,84.94a1,1,0,0,1-.29.41,4.47,4.47,0,0,1-.41.35,1.56,1.56,0,0,1-.6.31,2.93,2.93,0,0,1-.66,0l-.53,0a2,2,0,0,1-.49-.06,1.6,1.6,0,0,1,.49,0h.53a3.35,3.35,0,0,0,.63,0,1.53,1.53,0,0,0,.56-.27,4.63,4.63,0,0,0,.42-.32A3.69,3.69,0,0,0,131.25,84.94Z"/><path class="cls-34" d="M131.56,85.8a3.77,3.77,0,0,1-1,.75.62.62,0,0,1-.26.09h-.23a2.56,2.56,0,0,1-.39,0c-.22,0-.35-.11-.34-.13a2.62,2.62,0,0,1,.35,0,2.28,2.28,0,0,0,.37,0l.22,0a.47.47,0,0,0,.2-.06l.73-.47A1.34,1.34,0,0,1,131.56,85.8Z"/><path class="cls-35" d="M136.76,45.45v0Z"/><path class="cls-24" d="M133.11,50.4l-2.2.44h-1.15c-.11,0-.86-1-1-1.1a9.52,9.52,0,0,1-1-1.33,10.51,10.51,0,0,1-.93-1.44,3,3,0,0,1-.17-1.55,1.19,1.19,0,0,0-.12-.58c-.2-.4-.36-.89-.61-1.43a1.34,1.34,0,0,1-.12-.3,10.29,10.29,0,0,1-.44-3.29A2.63,2.63,0,0,1,126.72,38a13.42,13.42,0,0,1,2.44-.64l2.45-1L134,37l1.72,2.36.57,3.08.32,2.79"/><path class="cls-36" d="M135.54,42.36c.05.24,0,1.48.06,1.72l1.21-.31c.18-.9.39-2,.48-2.2s-.88-1.91-1-2.53l0-.14a4.51,4.51,0,0,0-2.11-2.15c-2-1.29-2-1.33-4.48-.55l-.51.19c-1.54.61-2.89.91-3.59,2.49-.51,1.14-.24-.2,0,.45-.27-1.34-.26-.18-.16-.37.59-1.1,1.22-.22,1.6-.37a1.26,1.26,0,0,1,.66-.1,3.07,3.07,0,0,0,1.17-.3c.3-.12,1-.48,1.1-.51.17-.19-.2-1,.17-1.09a5.5,5.5,0,0,1,2.62-.15c.56.12,1.89.34,2,1.73"/><path class="cls-36" d="M129.93,50.5l0,0c.19-.21.19-.3.3-.36l.11,0c.32-.13.51-.21,1.52.14l1.15-.43.53-.42c.08-.08,1.85-2.49,1.85-2.49s.32-.61.32-.67,0,0,0,0h0s0,0,0,.08a1.94,1.94,0,0,1,0,.34,4.73,4.73,0,0,0,0,.53c0,.06,0,.13,0,.19-.22.22-1.34,2.63-2.15,3.31a4.09,4.09,0,0,1-.72.29,7.71,7.71,0,0,1-2.82.48.86.86,0,0,1-.65-.34,15.6,15.6,0,0,1-1.76-2.77l1.78,2.27a3.05,3.05,0,0,0,.41-.05"/><path class="cls-24" d="M136.45,45.58c1.21.72,1-.95,1-.95a3.22,3.22,0,0,0,.08-2.47c-.17-.59-.83-.41-.83-.41-.54.2-.72.56-.71,2.57"/><path class="cls-36" d="M127.19,38c.91-.23,3.16-1.42,4.38-1.79a6.75,6.75,0,0,1,2.8.95c.66.54-.16,2.34,1.22,4.25.45.62.57-.69,1-.32l.66.52a7.69,7.69,0,0,0-1.11-3.9c-.92-1.89-3.29-2.25-4.38-2.17a16.45,16.45,0,0,0-5.2,1.85"/><path class="cls-37" d="M136.47,43.85a4.31,4.31,0,0,1,.31-1.06.9.9,0,0,1,.25-.33l0,0H137a.54.54,0,0,1,.15.18,1.37,1.37,0,0,1,.16.63s.09,0,.09,0a1.18,1.18,0,0,0-.21-.73c0-.06-.1-.15-.18-.12a.45.45,0,0,0-.14.1,1.33,1.33,0,0,0-.23.38,4.3,4.3,0,0,0-.28,1s.09,0,.1,0Z"/><path class="cls-37" d="M136.65,44c.17-.05.18.26.2.37s0,.37.16.36.11-.09.12-.16a1.55,1.55,0,0,0,0-.43,1.45,1.45,0,0,0-.1-.51c-.08-.19-.21-.42-.44-.45,0,0-.09.06,0,.07s.3.24.36.39A1.56,1.56,0,0,1,137,44a2.26,2.26,0,0,1,0,.45.59.59,0,0,1,0,.13l0,0s0,0,0,0l0,0a1.63,1.63,0,0,1-.08-.45c0-.16-.1-.31-.29-.26s0,.09,0,.07Z"/><path class="cls-36" d="M131.15,43.21a.41.41,0,0,1,.41,0,.36.36,0,0,1,.15.14.39.39,0,0,1,0,.35.36.36,0,0,1-.37.17.38.38,0,0,1-.29-.39.32.32,0,0,1,.1-.24"/><path class="cls-36" d="M127.15,44.28a.37.37,0,0,0-.37.17.35.35,0,0,0-.07.19.39.39,0,0,0,.17.31.36.36,0,0,0,.41,0,.39.39,0,0,0,.07-.48.34.34,0,0,0-.21-.16"/><path class="cls-36" d="M128.44,44.51a2.29,2.29,0,0,0-1.12-.35c-.61.1-.73.27-.87.6a1.28,1.28,0,0,1,.75-.44A4.1,4.1,0,0,1,128.44,44.51Z"/><path class="cls-36" d="M130.35,43.86a3.93,3.93,0,0,1,1.1-.86,2.11,2.11,0,0,1,1.67.23,4,4,0,0,0-1.49-.14A6.92,6.92,0,0,0,130.35,43.86Z"/><path class="cls-36" d="M129.62,41.86c0,.15.08.29.13.43l.13.46c.31-.19.58-.42.78-.53A4.21,4.21,0,0,1,132,41.7a1.48,1.48,0,0,1,.63,0c.06,0,.26.12.33.06s-.08-.19-.09-.2a1,1,0,0,0-.95-.34,6.56,6.56,0,0,0-2.25.62"/><path class="cls-36" d="M125.69,43.08l.23-.14a5.57,5.57,0,0,1,2-.73c0,.14.09.28.14.42s.1.3.14.4c-.34,0-.64,0-.86,0a3.29,3.29,0,0,0-1.24.31l-.22.12C125.71,43.34,125.65,43.13,125.69,43.08Z"/><path class="cls-36" d="M131.29,48.52l-1.56.32s.52.5.89.4S131.11,48.85,131.29,48.52Z"/><path class="cls-38" d="M129.51,46.73a.68.68,0,0,0,.61-.2s.17,0,.12,0a.93.93,0,0,1-.83.26s0,0,0,0a.12.12,0,0,1,.1,0"/><path class="cls-38" d="M130.31,46.46a1.19,1.19,0,0,1,.35-.19.09.09,0,0,1,.07,0s0,0,0,0a.56.56,0,0,1-.2.11h-.07s0,0,0,0a.35.35,0,0,0,.16-.08l.07,0a.92.92,0,0,0-.32.18.06.06,0,0,1-.07,0s0,0,0,0"/><path class="cls-38" d="M130.84,46.34a.56.56,0,0,0,.36-.29.47.47,0,0,0-.33-.53s0,0,0,0a.08.08,0,0,1,.08,0,.55.55,0,0,1,.38.43.44.44,0,0,1-.27.41l-.17.07s-.06,0-.08,0,0,0,0,0"/><path class="cls-38" d="M129.21,46.72s0,0,0,0a.2.2,0,0,1-.13,0l0,.06a.5.5,0,0,1,.27,0l.05,0s0,0,0,0"/><path class="cls-38" d="M129.33,46.72a.52.52,0,0,0-.3,0s0,0,0,0,0,0,0,0"/><path class="cls-38" d="M128.89,46.83a.33.33,0,0,1-.31-.12.48.48,0,0,1,0-.54s0,0,0,0,0,0-.05,0a.55.55,0,0,0-.05.47.36.36,0,0,0,.31.25h.12s0,0,0,0,0,0,0,0"/><path class="cls-36" d="M126.8,38.46a.49.49,0,0,1,.24-.15l.1-.06c.3-.08.61-.15.92-.21a1,1,0,0,1,.24,0h0l.68-.17h.11a.7.7,0,0,1,.29,0c.08,0,.1.13,0,.17s-.24,0-.29.11.1.13.07.21-.09.08-.14.12-.06.12-.11.17a.29.29,0,0,1-.24.09c-.08,0-.2,0-.22.09s0,0,0,.05a.18.18,0,0,1-.09.19.25.25,0,0,1-.25,0c-.07,0-.11-.09-.19-.12l-.07,0-.07.07a.25.25,0,0,1-.25,0c-.07,0-.11-.09-.19-.12s-.14,0-.18-.06.05-.2,0-.25-.2,0-.31,0A.11.11,0,0,1,126.8,38.46Z"/><path class="cls-36" d="M131.78,50.38a.46.46,0,0,1-.21.1l-.08,0c-.25,0-.51.08-.76.11h-.21l-.56.1h-.09a.56.56,0,0,1-.23,0,.07.07,0,0,1,0-.14c.07,0,.19,0,.24-.06s-.08-.12,0-.18.08-.06.12-.09.06-.09.1-.13a.28.28,0,0,1,.2-.06c.07,0,.17,0,.18-.05s0,0,0,0a.13.13,0,0,1,.09-.14.23.23,0,0,1,.2,0c.06,0,.08.08.14.11h.06l.06,0a.22.22,0,0,1,.21,0c.05,0,.08.09.14.11s.11,0,.14.06-.05.16,0,.21.16,0,.25,0A.1.1,0,0,1,131.78,50.38Z"/><path class="cls-39" d="M137.2,41.72a.6.6,0,0,0,.26-.11.2.2,0,0,0,0-.26c-.09-.13-.34-.09-.36-.25s.39-.17.43-.37-.16-.25-.31-.3c.07-.11.06,0,.18-.08s.12-.37,0-.46-.12,0-.11-.15-.14-.08-.08-.17a.23.23,0,0,0,0-.29.5.5,0,0,1-.11-.3c0-.11-.24-.08-.19-.18s-.12-.35-.3-.45c.08-.07,0-.07,0-.17a.24.24,0,0,0-.06-.28s-.12,0-.18-.07c-.23-.12-.18-.46-.1-.71a.37.37,0,0,1-.45-.21,1,1,0,0,0-.08-.25c0-.07-.17-.1-.21,0"/><path class="cls-36" d="M137.22,41.8c.17,0,.42-.14.43-.36s-.3-.19-.32-.34.33-.2.35-.38-.2-.3-.35-.36l0,.1s-.1,0,0,0h.07a.34.34,0,0,0,.15-.07.42.42,0,0,0,.1-.31c0-.14-.06-.17-.14-.27s0,0-.06,0l0,0a.28.28,0,0,0,0-.09c0-.06-.06,0-.06-.14s0-.12,0-.18-.08-.13-.11-.2a1.55,1.55,0,0,0-.07-.23s-.08,0-.11-.07,0-.08,0-.16-.19-.3-.33-.38l0,.07a.52.52,0,0,0,0-.25.32.32,0,0,0-.1-.26c-.13-.11-.27-.08-.32-.27a.84.84,0,0,1,.06-.47c0-.07-.11-.07-.14-.06-.36.08-.26-.38-.48-.5a.28.28,0,0,0-.34.06c-.1.1.13.13.2.06a1.27,1.27,0,0,0,.09.3.43.43,0,0,0,.14.16.54.54,0,0,0,.43.06l-.14-.06c-.06.21-.13.5,0,.68s.28.11.33.22a1.6,1.6,0,0,1,0,.31.08.08,0,0,0,0,.08c.11.06.26.15.28.28s0,.12,0,.17.15.07.2.14,0,.14,0,.19a1,1,0,0,1,.09.13c.07.15,0,.16,0,.28a.25.25,0,0,0,0,.07s.06,0,.07,0,0,0,0,0a.06.06,0,0,0,0,0,.26.26,0,0,0,.06.13c.07.07.11.08.12.19a.21.21,0,0,1,0,.2c-.05,0-.14,0-.2.1s0,.09,0,.11.28.1.26.24-.13.12-.2.15-.2.11-.22.2,0,.13.1.17l.12,0a.23.23,0,0,1,.16.11.29.29,0,0,1-.23.22c-.14,0-.11.19,0,.15Z"/><path class="cls-40" d="M135.74,37c-.05-.1-.27-.62-.32-.72a.26.26,0,0,1-.37-.14c0-.08,0-.18-.09-.21s-.15,0-.23.06-.26-.25-.44-.27-.21.08-.32.07-.24-.25-.41-.28-.22.06-.34.05-.41-.34-.66-.29c-.09,0-.16.1-.25.11s0-.2-.12-.19-.24.2-.38.24-.48-.28-.69-.14-.11.18-.2.24-.49-.11-.72,0-.17.19-.28.24-.38-.14-.57-.08-.22.23-.37.26.13-.16,0-.15-.27.24-.44.31-.3,0-.46,0-.41.35-.38.5"/><path class="cls-36" d="M135.86,37c-.11-.24-.21-.49-.32-.73,0,0-.13,0-.16,0-.19.07-.22-.33-.37-.36s-.09,0-.14,0l-.1.05a.37.37,0,0,1-.17-.13.43.43,0,0,0-.29-.13c-.14,0-.22.08-.37,0s-.12-.13-.19-.17-.44,0-.67-.09-.22-.18-.38-.2-.24.09-.33.06,0-.11-.12-.13-.21.07-.31.12a.38.38,0,0,1-.41,0,1.46,1.46,0,0,0-.19-.07.49.49,0,0,0-.29.06c-.07.05-.1.16-.16.2s-.25,0-.39,0a.6.6,0,0,0-.37,0l-.11.08a.56.56,0,0,1-.4,0,1,1,0,0,0-.34,0,.85.85,0,0,0-.19.14c-.06.06,0,.07,0,0s0,0,0,0a.4.4,0,0,0-.28,0c-.07,0-.11.1-.17.14a1.42,1.42,0,0,1-.53.13.65.65,0,0,0-.54.59s.23,0,.23-.07a.41.41,0,0,1,.43-.39,1,1,0,0,0,.33,0,.55.55,0,0,0,.19-.12c.1-.1.1-.2.06-.07s0,0,0,0a.44.44,0,0,0,.27-.07.72.72,0,0,1,.44-.13,1.62,1.62,0,0,1,.19,0,.6.6,0,0,0,.32-.12c.26-.14.44,0,.7-.08a.67.67,0,0,0,.23-.1c.19-.15.09-.22.35-.13a1.21,1.21,0,0,0,.2.09.52.52,0,0,0,.3,0l.19-.13c.11,0,0,0,.07.07s0,0,0,0,.26-.06.41-.05.33.22.56.24l.17,0c.25,0,.24,0,.4.16s.19.07.34.06.24.08.44.18.18,0,.27,0,.12,0,.14.06a.44.44,0,0,0,.06.16l.09.07a.43.43,0,0,0,.4,0h-.16l.33.72c0,.07.26,0,.23-.06Z"/><path class="cls-41" d="M133,36.15a2.72,2.72,0,0,1,2,1.13l-5.39-.66a5.27,5.27,0,0,1,1.06-.35A6,6,0,0,1,133,36.15Z"/><path class="cls-36" d="M133,36.21a3.18,3.18,0,0,1,1.13.36,3.26,3.26,0,0,1,.82.75l.18-.1-4.71-.57-.67-.08,0,.09a6.05,6.05,0,0,1,3.28-.45c.06,0,.27-.09.15-.11a6.53,6.53,0,0,0-3.52.48s-.12.09,0,.1l4.72.57.67.08s.23,0,.18-.1a3.49,3.49,0,0,0-.88-.79,3.57,3.57,0,0,0-1.14-.34C133,36.09,132.82,36.19,133,36.21Z"/><path class="cls-41" d="M125.85,37.78l.06-.05c.11-.09.16-.29,0-.34.26,0,.34-.42.6-.47a1.69,1.69,0,0,1,.23,0,.35.35,0,0,0,.31-.42.89.89,0,0,0,.64-.07l1.89.18c-.74.33-1.47.79-2.19,1.05a3.27,3.27,0,0,0-1,.49c-.2.17-.49.31-.7.49C125.78,38.36,125.81,38.07,125.85,37.78Z"/><path class="cls-36" d="M125.94,37.8c.15-.11.3-.34.1-.47l-.14.12a.44.44,0,0,0,.33-.11c.12-.1.19-.3.34-.34a2.46,2.46,0,0,1,.28,0,.54.54,0,0,0,.2-.1.43.43,0,0,0,.16-.41l-.19.1a1.06,1.06,0,0,0,.56,0s.19-.07.11-.06h.06l.62.06,1.21.12v-.12c-.72.33-1.39.75-2.13,1a3.8,3.8,0,0,0-.92.41c-.16.1-.3.22-.45.32a3.3,3.3,0,0,0-.43.3h.21c0-.29.07-.58.11-.86,0-.1-.23-.06-.24,0,0,.29-.07.58-.11.87,0,.1.18,0,.21,0a5,5,0,0,1,.48-.32c.14-.1.27-.21.42-.3a5.21,5.21,0,0,1,.94-.4c.69-.28,1.32-.67,2-1,.07,0,.1-.11,0-.12l-1.14-.11-.63-.06h-.12a.38.38,0,0,0-.15.05.75.75,0,0,1-.47,0s-.2,0-.19.1a.26.26,0,0,1,0,.24c-.09.11-.16.07-.26.07a.5.5,0,0,0-.27.07.91.91,0,0,0-.17.17c0,.06-.14.24-.23.23s-.23.06-.14.12,0,.26-.09.32,0,.07,0,.08S125.91,37.83,125.94,37.8Z"/><path class="cls-39" d="M128.2,49.31a2.44,2.44,0,0,0,.42.59c-.08.05,0,.18.06.22s.19.09.19.18,0,.07,0,.1.14.13.24.14c-.06.06,0,.16.1.19s.17.09.16.17,0,.08,0,.12.16,0,.22.12,0,.09,0,.13a.17.17,0,0,0,.26,0c.06.17.18.37.35.33s.18-.15.29-.13.1.08.17.1.36-.36.57-.28.15.22.27.24.18-.13.29-.17.27.06.36,0a.42.42,0,0,0,.09-.14c.08-.09.2,0,.32,0s.21-.13.21-.13c0-.16.11-.17.27-.12a.28.28,0,0,0,.15,0c.13,0,.14-.25.27-.26a.32.32,0,0,1,.14,0,.22.22,0,0,0,.21-.34.37.37,0,0,0,.26-.46,2.55,2.55,0,0,0,.62-.84.25.25,0,0,0,.27-.3c0-.09-.07-.18,0-.24s.1,0,.15,0a.21.21,0,0,0,.11-.32.29.29,0,0,0,.19-.48.22.22,0,0,0,.15-.37.35.35,0,0,0,.15-.56l-2.07,3.27-.61.45a13.23,13.23,0,0,1-2.86.62C129.67,51.09,128.2,49.31,128.2,49.31Z"/><path class="cls-36" d="M128.09,49.34c.09.18.25.34.34.51a1.53,1.53,0,0,0,.07.24s.12.07.16.12.05.23.18.34l.12.08a.79.79,0,0,1,0,.09c.11.12.14.06.22.26s0,.06,0,.12.05,0,.08,0l.16.18a.35.35,0,0,0,.46,0l-.21,0c.12.3.25.38.53.32l.1,0a.17.17,0,0,1,.19,0l.09,0a.38.38,0,0,0,.23-.06c.07,0,.11-.1.18-.14s.07,0,.22,0,.1.1.21.09.16-.07.27-.11.3,0,.44-.09.12-.11.27-.11a.48.48,0,0,0,.29,0c.07,0,.09-.11.13-.14s.16,0,.29,0,.15-.07.23-.12a.27.27,0,0,0,0-.13l.18,0c.21,0,.42-.21.3-.42l-.07.06a.45.45,0,0,0,.34-.52l-.17.08c.27,0,.51-.14.51-.45l-.17.08c.29,0,.59-.23.44-.55l-.17.08c.29,0,.44-.14.44-.43s.06-.12.19-.23a.24.24,0,0,0,.07-.32l-.14.07c.28,0,.54-.29.32-.56l-.13.09c.21,0,.46-.21.29-.45l-.08.06c.26-.11.42-.37.22-.63,0,0-.2,0-.23.06l-.91,1.45c-.37.58-.7,1.21-1.12,1.76a4.21,4.21,0,0,1-.56.44c-.07.06,0,0,0,0l-.08,0-.46.14c-.47.13-.93.25-1.4.35a1.25,1.25,0,0,1-1,0,9.25,9.25,0,0,1-1.72-1.76c0-.05-.26,0-.22.08a10.63,10.63,0,0,0,1.64,1.71c.6.45,1.54,0,2.18-.12.36-.1.74-.18,1.09-.31a2.62,2.62,0,0,0,.66-.44,1.45,1.45,0,0,0,.28-.36l.65-1,1.23-1.95-.22.06c.1.14.12.41-.08.49,0,0-.1,0-.08.06s.12.27,0,.3-.16,0-.13.08.12.37-.05.39-.16,0-.14.08c.12.28-.14.21-.24.32s.07.49-.12.5c0,0-.19,0-.17.08s.07.38-.11.4c0,0-.16,0-.16.08a.25.25,0,0,1-.18.28S134,50,134,50a.32.32,0,0,1-.18.4s-.09,0-.08.06c.16.3-.22.19-.37.3s-.09.13-.23.14a1.61,1.61,0,0,0-.22,0,.31.31,0,0,0-.18.11c-.13.12,0,.12-.21.1s-.22.05-.37.14-.17,0-.3.06-.15.09-.2.09-.21-.15-.35-.17a.38.38,0,0,0-.18,0,.55.55,0,0,0-.19.12c-.17.14-.14,0-.33,0a.57.57,0,0,0-.22,0s-.08.06-.14.06-.19-.16-.23-.28-.18,0-.21,0c.13-.09-.31-.3-.32-.31.13.2-.07-.31,0-.19-.06-.11-.29-.09-.25-.28,0,0,0,0,0,0-.34,0-.09-.19-.21-.3s-.3-.15-.22-.31c0,0,0,0,0,0a2.71,2.71,0,0,1-.41-.59C128.29,49.22,128.07,49.3,128.09,49.34Z"/><path class="cls-42" d="M135.53,42.52c-.29-.19-.08-.7-.33-.94,0-.06-.13-.09-.18-.15s0-.46-.14-.64-.15-.14-.2-.22,0-.38,0-.57-.36-.33-.32-.54.12-.18.13-.28-.21-.36-.11-.51.11-.08.14-.14-.1-.21-.17-.32-.07-.25-.11-.37-.19-.24-.3-.17c0-.21-.21-.74-.42-.67s-.22.11-.3,0,0-.16-.07-.22-.36.17-.54.08-.07-.07-.12-.1a.32.32,0,0,0-.34,0,.68.68,0,0,1-.33.13c-.12,0-.25-.11-.19-.22a1.12,1.12,0,0,1-.35.23.33.33,0,0,1-.38-.13.28.28,0,0,1-.43.21c-.06,0-.11-.13-.19-.13l-.1.05a2.22,2.22,0,0,0-.26.72l-.12-.87L132.1,36l2.22.77,1.25,2.33-.11,3.62"/><path class="cls-36" d="M135.64,42.48c-.22-.18-.14-.47-.21-.71s-.31-.32-.36-.56a1.93,1.93,0,0,0,0-.42c-.07-.13-.22-.19-.25-.34s0-.29,0-.43a.55.55,0,0,0-.18-.29.32.32,0,0,1-.07-.43.42.42,0,0,0,.05-.27c-.05-.21-.15-.21,0-.44s.11-.08.06-.22-.17-.19-.21-.32a1.26,1.26,0,0,0-.1-.33c-.11-.15-.26-.13-.41-.07H134c0-.21-.11-.6-.34-.68s-.15,0-.24,0-.11,0-.19-.12,0-.08-.08-.12a.34.34,0,0,0-.22,0l-.12,0c-.15,0-.18,0-.31-.06a.48.48,0,0,0-.24,0c-.16,0-.61.27-.58,0,0-.05-.2,0-.22,0a.38.38,0,0,1-.5.06s-.22,0-.23.06c-.05.32-.32,0-.45,0a.45.45,0,0,0-.25.09c-.19.16-.23.52-.29.74l.23-.05-.11-.87-.08.06c.74-.27,1.5-.5,2.22-.8,0,0,.09,0,.1,0L132,36h.05a1.92,1.92,0,0,0,.54.19l1.37.48c.28.09.25.1.4.39l.7,1.3a3.55,3.55,0,0,1,.38.72,4.22,4.22,0,0,1,0,.87l-.08,2.74s.23,0,.23-.07l.07-2.43a7,7,0,0,0,0-1.12,1.8,1.8,0,0,0-.29-.61l-.74-1.38c-.11-.2-.14-.39-.36-.46l-1.35-.47c-.25-.09-.6-.3-.86-.24a9.24,9.24,0,0,0-1.15.41l-1.19.43s-.08,0-.08.05l.12.87s.22,0,.23-.05a2.21,2.21,0,0,1,.17-.57c.11-.13.17,0,.33,0a.45.45,0,0,0,.49-.34l-.23.06c.26.34.7.07.94-.14l-.22,0c0,.33.37.23.55.16s.17-.14.32-.08.08.09.14.11a.39.39,0,0,0,.26,0l.16-.06c.06-.06.1,0,.12.05a.2.2,0,0,0,0,.11.2.2,0,0,0,.22.08c.19,0,.24-.08.37.12a.82.82,0,0,1,.14.48s.15,0,.16,0,.17.31.18.36a.78.78,0,0,0,.17.31c.15.21-.14.3-.05.54s.13.21.08.37-.12.15-.11.25.3.35.32.6-.05.26,0,.38a.59.59,0,0,0,.17.24c.19.22.05.5.21.71s.2.14.26.27a.94.94,0,0,1,.06.29.71.71,0,0,0,.19.54c.05,0,.25-.06.22-.08Z"/><path class="cls-39" d="M135.89,44.07l-.2.06h-.07c-.05,0,0-.1,0-.15a.64.64,0,0,0-.16-.33.34.34,0,0,1-.08-.35c0-.06.1-.1.09-.17s-.12-.11-.19-.16a.22.22,0,0,1,0-.34.59.59,0,0,1-.19-.46c0-.33,0-.69,0-.69l.42-.37Z"/><path class="cls-36" d="M135.84,44a.44.44,0,0,1-.15,0s0-.09,0-.09a.52.52,0,0,0,0-.21c-.09-.16-.3-.31-.18-.51s.12-.19,0-.27-.12-.06-.15-.13a.18.18,0,0,1,.06-.22s0,0,0,0a.52.52,0,0,1-.18-.35,3.56,3.56,0,0,1,0-.73.15.15,0,0,1,0-.06s0,0,0,0l.14-.12.26-.23-.23,0,.33,2.57.05.38s.24,0,.23-.07l-.33-2.57,0-.37c0-.07-.2,0-.23,0l-.27.24c-.08.07-.16.1-.16.21a2.69,2.69,0,0,0,0,.75.59.59,0,0,0,.18.36l0,0a.23.23,0,0,0,0,.38c.06,0,.2.07.18.18s-.07.09-.09.13a.25.25,0,0,0,0,.15.92.92,0,0,0,.19.33.64.64,0,0,1,.07.28c0,.21.35,0,.46,0s.09,0,.07-.08S135.87,44,135.84,44Z"/><path class="cls-42" d="M126.34,38.08c0,.06,0,.13-.11.15s-.16.06-.16.13,0,.09.05.13-.28.08-.33.21.11.22,0,.3-.09,0-.13,0a.21.21,0,0,0-.15.19.6.6,0,0,1,0,.19c0,.08-.11.1-.18.15s-.15.36-.11.56a.79.79,0,0,1,0,.59c-.17-.09,0-.24,0-.41a1,1,0,0,0,.07-.15c0-.06,0-.13,0-.15l-.08,0c0-.06.08-.11.13-.17s0-.19-.08-.25-.17-.16-.14-.25.15-.11.18-.2-.06-.19,0-.29.15-.2.28-.24a.21.21,0,0,1,0-.33s.11,0,.13-.08,0-.17,0-.23.13,0,.18-.08-.06-.2,0-.3.32-.14.28-.27"/><path class="cls-36" d="M126.22,38.11c0,.08-.23.15-.26.24s.06.14,0,.18-.13,0-.16,0-.16.09-.16.19.08.17,0,.22-.14,0-.17.07a.29.29,0,0,0-.1.12c0,.07,0,.12,0,.19s-.22.21-.28.34c-.15.33.15.71,0,1l.2,0c-.2-.14.2-.45.14-.63s0,0,0-.08-.07,0,0-.07.07,0,.09-.08a.23.23,0,0,0,0-.11.34.34,0,0,0-.13-.22c-.06-.05-.15-.12-.1-.21a.9.9,0,0,1,.1-.09.22.22,0,0,0,.07-.2c0-.05,0-.1,0-.15s.08-.17.17-.2.15-.06.1-.11a.17.17,0,0,1,0-.25c.06,0,.13-.05.16-.11s0-.17,0-.21.14,0,.18-.09a.15.15,0,0,0,0-.16c0-.11-.07-.16,0-.23s.21-.09.19-.22-.25,0-.23.06-.25.15-.27.26,0,.14,0,.21,0,0-.05.06a.53.53,0,0,0-.1.06c-.06.06,0,.1,0,.17s-.07.11-.14.17a.26.26,0,0,0,0,.38l.09-.11c-.2.07-.43.18-.36.43,0,.1,0,.17,0,.24a.47.47,0,0,0-.1.1c-.06.12,0,.22.11.3s.15.15.07.24-.08.05-.1.1.11.12.12.22-.15.28-.19.4a.19.19,0,0,0,.09.24.17.17,0,0,0,.2,0c.21-.31,0-.64,0-1s.24-.19.3-.34,0-.17,0-.24.14-.09.21-.13.07-.16,0-.27,0-.11.1-.14a.35.35,0,0,0,.14-.06c.13-.09,0-.21.1-.3s.24-.09.19-.24-.25,0-.23.06Z"/><path class="cls-43" d="M135.91,42.79l-.07-.28-3.06-.13h0a4.17,4.17,0,0,0-3.19,1.22l-.72.21h0a3.64,3.64,0,0,0-3.42.58l.06.11h0l0,0,0,.09a5,5,0,0,0,.89,1.35,1.75,1.75,0,0,0,.89,0l.32,0c.1,0,1-.2,1.08-.37a6.68,6.68,0,0,0,.12-1.56l.74-.22c.16.23.6,1.23,1,1.36a4.15,4.15,0,0,0,2.39-.72,6.15,6.15,0,0,0,.28-1.34l.05-.48Zm-7.26,2.69a4.47,4.47,0,0,1-2.11.38,5.51,5.51,0,0,1-.84-1.3h0a3.47,3.47,0,0,1,3-.5,6.3,6.3,0,0,1-.1,1.43Zm4.14-1.08a4,4,0,0,1-2.11.6c-.3-.08-.64-.82-.87-1.23a4.51,4.51,0,0,1,3.33-1.13,5.73,5.73,0,0,1-.35,1.76Z"/><path class="cls-44" d="M130,47.51a5.41,5.41,0,0,1,2.18,0,3.94,3.94,0,0,1-1.84.89c-1.31.32-1.63,0-1.63,0A2.8,2.8,0,0,1,130,47.51Z"/><path class="cls-45" d="M131.62,47.44s-.69.11-1.22.24-1.19.35-1.19.35-.18-.36.79-.6A3,3,0,0,1,131.62,47.44Z"/><path class="cls-46" d="M130.31,48.27a10,10,0,0,1,1.89-.73s0,.82-1.54,1.19-1.93-.35-1.93-.35A5.79,5.79,0,0,1,130.31,48.27Z"/><path class="cls-46" d="M129.28,47.38a3.71,3.71,0,0,1,.69-.07,4,4,0,0,1,.64-.25c.31-.05,1.76.33,1.64.46a17.53,17.53,0,0,0-2.21.09c-1,.24-1.19.83-1.36.78S129,47.48,129.28,47.38Z"/><path class="cls-36" d="M132.29,46.88c.11.06.24.13.27.25a.3.3,0,0,1,0,.13v.22a.08.08,0,0,1,0,0l0,0a.37.37,0,0,1-.14,0,.11.11,0,0,1-.12-.06s0-.05,0-.06-.08,0-.12,0-.14-.11-.2-.19a.54.54,0,0,0-.36-.16,1.36,1.36,0,0,1-.2,0,.2.2,0,0,1-.14-.13"/><path class="cls-36" d="M128.19,47.86a.45.45,0,0,0-.12.34.21.21,0,0,0,.05.13l.09.19s0,0,0,0h.05a.32.32,0,0,0,.14,0,.11.11,0,0,0,.07-.12.43.43,0,0,1,0-.05s.06,0,.09-.07.08-.17.1-.27a.51.51,0,0,1,.23-.31l.17-.11a.22.22,0,0,0,.06-.19"/><path class="cls-36" d="M132.28,46.69a.39.39,0,0,0-.26-.09s-.11,0-.14,0l-.08-.08a.31.31,0,0,0-.25,0,.42.42,0,0,0-.14.06l0,0s0,0,0,0,0,0,0,0a.37.37,0,0,0-.23,0,.24.24,0,0,0-.14,0l0,0c0,.06,0,0,0,0l-.12-.08a.31.31,0,0,0-.13,0,.8.8,0,0,0-.15,0l-.07,0h0c0-.05-.27,0-.22.09a.27.27,0,0,0,.26,0l.12-.06,0,0s0,0,0,0,0,0,.05,0a.38.38,0,0,0,.27.05.24.24,0,0,0,.12-.07l0,0-.07,0h0a.32.32,0,0,0,.25,0l.12,0a.15.15,0,0,0,.06-.05h0s0,0,.07,0l0,.05a.17.17,0,0,0,.1,0,.34.34,0,0,0,.14,0,.25.25,0,0,1,.16.06c.05,0,.27,0,.21-.09Z"/><path class="cls-36" d="M129.53,46.9a.35.35,0,0,0-.26.09s-.08.09-.13.1a.43.43,0,0,0-.16,0s-.1.1-.08.12.09,0,0,0l-.07,0a.29.29,0,0,0-.16,0c-.1,0-.13.1-.16.19s0,0,0,0h0a.37.37,0,0,0-.15,0,.28.28,0,0,0-.11.08.16.16,0,0,0,0,.06s0,.06,0,.06,0,0,0,0h0l0,0a.1.1,0,0,0-.05.11c0,.06.1.06.13.05s.1-.05.1-.11h0l0,0s0,0,0,0h0l0,0a.19.19,0,0,0,.08-.1s0,0,0-.06,0,0,0,0h.07a.28.28,0,0,0,.23-.12.42.42,0,0,0,0-.1v0c-.06,0-.08,0-.05,0h0a.36.36,0,0,0,.27,0,.2.2,0,0,0,.09-.09l0,0s-.06,0,0,0a.41.41,0,0,0,.23-.11l.06-.06,0,0h0a.17.17,0,0,0,.16-.07c0-.05,0-.08-.07-.09Z"/><path class="cls-36" d="M130.17,46.91l.14.3a.14.14,0,0,0,.12.07c.35,0,1.67-.2,2-.28,0,0,0,.13,0,.13l.07,0c.11-.05-.07-.41-.19-.42a5,5,0,0,0-.87,0,6.89,6.89,0,0,0-1.17.11A.12.12,0,0,0,130.17,46.91Z"/><path class="cls-36" d="M129.78,47.05l.07.29a.12.12,0,0,1-.07.12c-.3.12-1.28.55-1.56.62h-.12c-.11,0-.11-.25,0-.32a5.78,5.78,0,0,1,.61-.42,6,6,0,0,1,1-.42A.11.11,0,0,1,129.78,47.05Z"/><path class="cls-33" d="M99.29,130.65a2.38,2.38,0,0,0-2.1.4,1.66,1.66,0,0,0-.44,2,3.64,3.64,0,0,1,.38.63.47.47,0,0,1-.24.61,4.58,4.58,0,0,0,1.7.13,2.6,2.6,0,0,1,2.28,3,4.08,4.08,0,0,0-.17.83.66.66,0,0,0,.43.65,1,1,0,0,0,.58-.13c1-.44,2.38-.48,2.94.45a5.44,5.44,0,0,1,.4,1.26c.14.43.45.86.89.89s.84-.42,1-.85c.29-.64.26-1.6-.41-1.81-.36-.12-.92-.09-.92-.47a.67.67,0,0,1,.17-.36,1.8,1.8,0,0,0-1.34-2.84,7.6,7.6,0,0,1-1.35,0,1.64,1.64,0,0,1-1.09-1.2,4.79,4.79,0,0,1-.09-1.69.72.72,0,0,0-.68-.9l-2.12-.53"/><path class="cls-33" d="M111.46,131l.07,1.79c0,.4-.11,1.22.24,1.5s.81.12,1.16.27a1.9,1.9,0,0,1,1,1c.06.14.2.17.35.18a.87.87,0,0,0,1-.81c0-.51-.52-1-.85-1.33-.83-.86-1.81-1.64-1.36-3a6.26,6.26,0,0,0,.62-1.92,1,1,0,0,0-1-1.08,1.23,1.23,0,0,0-1.33.83,4.43,4.43,0,0,0,0,1.09l0,1.25,1.12-.21c-.1-1.21-.41-2.7-1.83-2.95-.31-.05-.62,0-.81-.29a4.26,4.26,0,0,1-.28-.78,1.18,1.18,0,0,0-1.26-.81c-.2,0-.6.15-.63.39s.31.27.49.26c-.08,0,.12.17.14.2a1.2,1.2,0,0,1,.18.38,5.84,5.84,0,0,0,.2.59,1.17,1.17,0,0,0,1.07.69c1.34.12,1.52,1.52,1.61,2.62,0,.38,1.11.14,1.12-.22l0-1.69c0-.14,0-.27,0-.4v-.13c.07-.11,0-.16-.09-.13-.24-.17.06.15.06.15a.67.67,0,0,1,.1.31c.15,1-.79,1.84-.75,2.83a2.9,2.9,0,0,0,1,1.86c.28.28.57.55.83.85a4.37,4.37,0,0,1,.37.48,1,1,0,0,1,.11.23c0,.18-.07.23.17.14l.44-.09h-.08l.35.18a2.5,2.5,0,0,0-2-1.48c-.28,0-.37,0-.39-.31s0-.6,0-.9l-.08-1.88c0-.39-1.13-.16-1.11.3Z"/></g><g id="Layer_8" data-name="Layer 8"><circle class="cls-45" cx="58.7" cy="148.23" r="0.61"/><circle class="cls-45" cx="57.42" cy="149.46" r="0.43"/><path class="cls-47" d="M36.61,86.29c-.39,3.16,1.39,13.46,1.88,14.41,1.49,2.88,11.26,8.62,11.26,8.62l2.09-1.62-8.11-9.37L43.8,87.2"/><path class="cls-47" d="M55.42,109.87A9.83,9.83,0,0,1,56,111c0,.05,0,.13-.06.17a.21.21,0,0,1-.17,0,1,1,0,0,1-.72-.52c-.17-.24-.33-.49-.48-.74a2.07,2.07,0,0,0-.6-.58c-.5-.37-1-.72-1.54-1a12.93,12.93,0,0,1,2.92,3c.09.13.17.29.08.41a.23.23,0,0,1-.28.07.76.76,0,0,1-.26-.18l-1.14-1.09c-.56-.53-1.34-.86-1.91-1.39a30.2,30.2,0,0,1,2.76,2.54.34.34,0,0,1,.13.25.26.26,0,0,1-.16.19A.61.61,0,0,1,54,112a11.53,11.53,0,0,1-1.31-1l-1.37-1.16a2.49,2.49,0,0,1,1.08,1.76.36.36,0,0,1,0,.18c-.08.12-.25.09-.37,0-.36-.23-.44-.72-.71-1a2.93,2.93,0,0,0-.54-.45c-.15-.12-.28-.27-.44-.38a7.86,7.86,0,0,0-1.12-.57,2.81,2.81,0,0,1-.91-.65,3,3,0,0,1-.43-.84c-.25-.55-.69-.72-1.21-1s-1.11-.55-1.67-.8a3.33,3.33,0,0,1-.46-.24,1.68,1.68,0,0,1-.28-1.6,2.19,2.19,0,0,1,1.63-1.46.38.38,0,0,1,.15,0,2.75,2.75,0,0,1,.29.17c.48.39.91.84,1.38,1.25s1,.73,1.45,1.1a.37.37,0,0,0,.12.07.39.39,0,0,0,.15,0,7.33,7.33,0,0,1,1.87.11,10.5,10.5,0,0,1,3.1,1.51c.08,0,.17.12.18.21a.27.27,0,0,1-.13.2c-.45.32-.95,0-1.37-.18-.11,0-.24-.11-.34,0,.14.1.24.26.38.37l.18.14.36.29c.24.2.47.4.69.61A6.55,6.55,0,0,1,55.42,109.87Z"/><path class="cls-48" d="M57.51,119s1.63,12.74,10,21.34L75.86,149a36.07,36.07,0,0,1-4-2.94L69.35,144s3.07,4.6,4.48,5.45-3.58-.82-5.21-3.81,2.45,4.48,3.55,5.7-2.57-.77-4.82-1.61-3.08-1.22-3.08-1.22l-1.43-2s2.76,4.78,3.29,5.14-4.45-1-6.68-4.48a18.46,18.46,0,0,1-3.4-12.33,90.59,90.59,0,0,0-1.6-19.15c-.93-3.69-2.25-8.74-2.25-8.74L51.3,104l2.56-.37Z"/><path class="cls-49" d="M58.26,122.41s2.07,10.94,3.76,14.87,3.23,9.58,10,14.39"/><path class="cls-49" d="M56.09,119.3s1,11.81,8.21,26.28c1,2.08,6.1,5.11,7.09,5.85"/><path class="cls-49" d="M58.12,135.12s3.53,7.43,5.34,10.27a11.13,11.13,0,0,0,6.43,5"/><path class="cls-49" d="M56.42,128.41s-.8,5.7,2.94,13.06c1.49,2.95,3.6,5.87,4.71,6.73,0,0-2.3-1.9-4.93-9.75a105.53,105.53,0,0,1-3.83-17l2-.31-1.71-.72,1.3-.31-1.48-.81,1.31-.34-1.49-.51,1.47-.92-1.45-.07,1.21-.83L55,116.1l1.33-.7L54,113.92l1.52,7.86,2.6.38-2.1-9.4-2.05,1-.35-1.37,1.67-.46-2-.68"/><path class="cls-49" d="M64.65,149.77s-4.19-3.5-5.71-7S55.68,135.1,56.3,132"/><path class="cls-49" d="M56.47,136.59s-.23,4.41,3.86,10a24.94,24.94,0,0,0,5.67,5"/><path class="cls-49" d="M69.4,146.7s-4.3-4.93-5.26-6.48-3.71-8-3.71-8"/><path class="cls-49" d="M69.53,144.23A22,22,0,0,1,64,137.79c-1.77-3.54-3.94-7.28-3.94-7.28"/><polyline class="cls-49" points="51.3 104.01 52.53 108.38 54.23 107.15 52.41 106.75 53.78 106.4 52.48 105.88 53.64 105.51 52.25 104.91 53.35 104.6 51.67 104.06 53.86 103.64 54.9 108.05 52.7 108.37"/><path class="cls-50" d="M50.63,107.06s.94-.25,1.07-.25h.19v.11l-1.22.3,0-.16"/><polyline class="cls-49" points="52.4 107.31 54.61 108.71 53.43 109.45 55.06 109.94 54.25 110.73 55.29 110.33 54.84 107.8"/><polyline class="cls-49" points="56.75 115.02 54.75 115.22 56.11 113.68 54.08 112.99 56 112.66 55.75 111.61 54.25 112.52 55.79 112.24"/><path class="cls-47" d="M33.36,149.16l-.26-.11A4.73,4.73,0,0,0,30.7,151a35.71,35.71,0,0,0,3.95-.16c.75,0,.64-.64.41-.93A5.24,5.24,0,0,0,33.36,149.16Z"/><path class="cls-47" d="M32.25,149.31l-.22-.25c-1.2-1.79-2.36-1.54-1.53-3.74a47.81,47.81,0,0,1,4-6.71L29,136.77s-2.06,5.82-2,6.45a3.79,3.79,0,0,1-1.16,2.38,3.4,3.4,0,0,0-1,2.18c0,.52.57.88,1.47,1.24A30.11,30.11,0,0,1,29.36,151,5.56,5.56,0,0,1,32.25,149.31Z"/><path class="cls-25" d="M30.69,150.91l-.47-.13c-1.92-.56-3.68-1.18-5.76-1.76-.25-.07-.43.82,0,.94,1.88.58,3.54,1,5.43,1.56.31.09.52,0,.84.11Z"/><path class="cls-25" d="M30.75,150.74h4.19a.31.31,0,0,1,.31.31v0a.53.53,0,0,1-.53.53H31a.53.53,0,0,1-.53-.53v0a.31.31,0,0,1,.31-.31Z" transform="translate(-4.13 0.96) rotate(-1.57)"/><path class="cls-25" d="M33.36,149.16A4.31,4.31,0,0,0,30.84,151l-2.51-.45s1.73-2.54,4.06-2.33A4,4,0,0,1,33.36,149.16Z"/><path class="cls-47" d="M38,137.78a47.28,47.28,0,0,0-2.24,7.48c-.28,2.33.79,1.81,2.39,3.25a11.79,11.79,0,0,0,1.73,1.07c.48.18,1.46.44,1.68.74s.33.92-.43.92a24.43,24.43,0,0,1-4.21,0c-1-.24-3.46-1.27-4.42-1.4s-1.58-.34-1.73-.84a3.43,3.43,0,0,1,.47-2.36,3.84,3.84,0,0,0,.55-2.59c-.18-.61.4-6.75.4-6.75Z"/><path class="cls-25" d="M37.2,151.29a3.59,3.59,0,0,1-.47-.12C34.8,150.61,33,150,31,149.42c-.25-.07-.42.82,0,.94,1.89.58,3.54,1,5.44,1.55.31.09.52,0,.83.11Z"/><path class="cls-25" d="M37.27,151.15h4.19a.31.31,0,0,1,.31.31v0a.53.53,0,0,1-.53.53H37.5a.53.53,0,0,1-.53-.53v0A.31.31,0,0,1,37.27,151.15Z" transform="translate(-1.27 0.34) rotate(-0.48)"/><path class="cls-25" d="M40,149.54a3.18,3.18,0,0,0-2.6,1.84l-1.7-.46a3.24,3.24,0,0,1,2.74-2.34A7.62,7.62,0,0,1,40,149.54Z"/><path class="cls-51" d="M41.16,77.34a4.43,4.43,0,0,1-.47-3.29c.43-2,2.86-1.57,2.86-1.57l-1.36,3.75Z"/><path class="cls-47" d="M41.94,76.12s-2.54,4.07-3.29,4.54c-.25.16-1.43,1-1.43,1l1.65,1.13c1.16.94,3.75,5.58,5.24,5.74L44,86.79a29.56,29.56,0,0,1-.34-3.31c.08-.33,1.45-2.54,1.45-2.54"/><path class="cls-50" d="M44.27,82.3s.33,0,0-.32-1-.57-1.95-2.89a3.15,3.15,0,0,0,1.18,3.18,1.87,1.87,0,0,0,.51.41Z"/><path class="cls-47" d="M52.38,72.64l0,0a.43.43,0,0,0,0-.05Zm.79.72s0,0,0,.06h0S53.18,73.34,53.17,73.36Zm-11,5.57a5.83,5.83,0,0,0,2.45,3.78,3.56,3.56,0,0,0,2,.44,8.28,8.28,0,0,0,1.92-.92,4.43,4.43,0,0,0,1.58-.87A4.24,4.24,0,0,0,51,79.78a6.89,6.89,0,0,1,.55-1c.21-.3,1.09-1.46,1.55-2.17a5,5,0,0,0,.39-2.27,1.44,1.44,0,0,0,0-.65l-.08,0a.09.09,0,0,1,0,.1.78.78,0,0,1-.21-.32h0a.38.38,0,0,1-.3-.32s0,.07,0,.08a.48.48,0,0,1-.27-.32s0,.07,0,.09a.8.8,0,0,1-.2-.28s.53.25.52.26,0,.08-.07-.09l-.06-.13c-.12,0-.15,0-.19-.11,0,0,.07-.25.06-.23s-.09-.07-.16-.19-.42-.08-.44-.06-.13.05-.17-.08c0,0,.13,0,.13,0s-.23,0-.28-.16c0,0-.29-.47-.29-.47s-.14,0-.2-.15c0,.06-.57-.39-.57-.34s0,.51-.08.4-.21-.21-.21-.21,0,.15-.06,0c0,0,0,.09,0,.11a.5.5,0,0,1-.37-.31c0,.07,0,.12,0,.15s-.2-.09-.26-.24c0,0,0,.11,0,.12a.48.48,0,0,1-.32-.24s0,.08,0,.11a.33.33,0,0,1-.23-.19v.12c-.08-.06-.17-.06-.27-.17s0,.06,0,.08a1,1,0,0,1-.2-.15s0,.1,0,.09-.17,0-.26-.16,0,.09,0,.12a.66.66,0,0,1-.24-.17.16.16,0,0,0,0,.1c-.08,0-.17,0-.25-.16a.26.26,0,0,0,0,.12,1.28,1.28,0,0,1-.25-.15s0,.06,0,.09a.75.75,0,0,1-.27-.18s0,.07,0,.09-.1-.09-.16-.13l-.13,0c-.54.21-1.31,1.53-1.31,1.53a3.39,3.39,0,0,0-2.09,1.43c-.2.38-.62,1.58-.62,1.58a4.68,4.68,0,0,1-.05-.83c0-.18,0-.79,0-1,0-.43-.31-.13-.66-.08l-.46-.09c-.59.24-.69,2-.69,2.52-.43.87,0,1.41.81,1.4l-.26-.07"/><path class="cls-52" d="M44.7,68.09a11.23,11.23,0,0,1,5.19,2.25c2.49,2,3.51,3.4,3.26,4.84a12.62,12.62,0,0,1-1.57,3.5S51,79,52.89,77c2.79-3,1-8.42.1-9S48.29,65,44.7,68.09Z"/><path class="cls-52" d="M44,67s1.22-3,3.4-2.35S54,66.3,53.67,69.47Z"/><path class="cls-53" d="M40.67,72.78c-.08-.31.31-.84.28-1.16a2.87,2.87,0,0,1,1.55-2.93c.32-.21.43-.85.6-1.09.88-1.3,1.57-1.35,4.4-1.51a8,8,0,0,1,5,1.65c1.59,1.08,2.25,1.62,2.11,3.13,0,.19-.17.27-.21.49s.31.58.18,1c0,0-2.61-.43-5-.55s-8.46,1.71-9,2.82A14,14,0,0,0,40.67,72.78Z"/><path class="cls-52" d="M41.64,69.75s5.34-2,8.73,0c0,0-4-3.18-7.78-1.22l-.12.1a3.32,3.32,0,0,0-.8.91Z"/><path class="cls-51" d="M44.41,72.69l-1.2,2L43,73.16S44,72.86,44.41,72.69Z"/><path class="cls-37" d="M42.61,74.74c-.12-.07-.29-.12-.37,0a2.13,2.13,0,0,0-.1.42.21.21,0,0,1-.1.16c-.09.06-.13,0-.15-.11a.88.88,0,0,1,.1-.69c.11-.17.29-.43.51-.4.06,0,.11-.06,0-.07a.66.66,0,0,0-.56.33.94.94,0,0,0-.12.18,1.1,1.1,0,0,0-.11.44c0,.19.07.52.33.39s.18-.26.2-.41a.94.94,0,0,1,.06-.24c0-.06.13,0,.19,0s.13,0,.08-.06Z"/><path class="cls-52" d="M43.11,71.34a8,8,0,0,0-2.34,1l.14-.54A2.94,2.94,0,0,1,43.11,71.34Z"/><path class="cls-38" d="M48.11,79.67a.72.72,0,0,1-.54-.37s-.15-.09-.12,0a1,1,0,0,0,.74.49s0,0,0,0a.2.2,0,0,0-.09,0"/><path class="cls-38" d="M47.41,79.18a1.14,1.14,0,0,0-.29-.29.06.06,0,0,0-.06,0s0,0,0,0a.44.44,0,0,0,.17.16.08.08,0,0,0,.07,0s0,0,0,0a.3.3,0,0,1-.13-.12h-.08a1.07,1.07,0,0,1,.26.26.07.07,0,0,0,.06,0s0,0,0,0"/><path class="cls-38" d="M46.93,78.91a.53.53,0,0,1-.26-.39c0-.21.24-.4.47-.4,0,0,0,0,0,0a.16.16,0,0,0-.09,0,.56.56,0,0,0-.49.3.44.44,0,0,0,.16.46l.14.12A.11.11,0,0,0,47,79s0,0,0,0"/><path class="cls-38" d="M48.4,79.76s0,0,0,0a.21.21,0,0,0,.13,0v.07a.58.58,0,0,0-.26-.06s0,0,0,0,0,0,0,0"/><path class="cls-38" d="M48.29,79.71a.72.72,0,0,1,.29.06l0,0s0,0,0,0"/><path class="cls-38" d="M48.68,80a.35.35,0,0,0,.34,0,.48.48,0,0,0,.16-.51s0,0,0,0,0,0,0,0a.51.51,0,0,1-.08.46.38.38,0,0,1-.37.15l-.11,0a.07.07,0,0,1,0-.05s0,0,0,0"/><path class="cls-51" d="M51.13,77.81a.38.38,0,0,1,.31.27.38.38,0,0,1,0,.18.36.36,0,0,1-.24.24.33.33,0,0,1-.36-.14.36.36,0,0,1,.06-.46.32.32,0,0,1,.24-.09"/><path class="cls-51" d="M49.91,77.59a3.36,3.36,0,0,1,1.23.09,1.16,1.16,0,0,1,.73.89,2,2,0,0,0-.66-.73A6.75,6.75,0,0,0,49.91,77.59Z"/><path class="cls-51" d="M47.46,75.61a.48.48,0,0,0-.4-.21.34.34,0,0,0-.17.09.34.34,0,0,0,.19.58.37.37,0,0,0,.38-.28s.06-.05,0-.16"/><path class="cls-51" d="M48.09,76.4a3.68,3.68,0,0,0-.71-1,2,2,0,0,0-1.47-.23,4,4,0,0,1,1.3.26A6.7,6.7,0,0,1,48.09,76.4Z"/><path class="cls-51" d="M50.66,76.37c0-.09.09-.18.14-.27a5.69,5.69,0,0,1,1.46.76.76.76,0,0,1,.18.18s0,0,0,0l-.1.34a2.19,2.19,0,0,0-.34-.31,2.7,2.7,0,0,0-.75-.33c-.17-.06-.41-.13-.69-.2Z"/><path class="cls-51" d="M49,74.84l-.16.26-.13.2c-.2-.2-.39-.37-.53-.49a2.41,2.41,0,0,0-.66-.46,1.79,1.79,0,0,0-.51-.14,1.09,1.09,0,0,0-.3,0c-.23,0-.37.09-.39.06s.09-.11.1-.12A1.19,1.19,0,0,1,47,73.9a1.6,1.6,0,0,1,.56.08,5.92,5.92,0,0,1,1.41.86"/><path class="cls-46" d="M46.92,80.29c-.68-.41-1.73-1.16-1.73-1.16a2.14,2.14,0,0,0,3.55,2.16S47.6,80.7,46.92,80.29Z"/><path class="cls-44" d="M46.93,80.3c-.33-.2-1.59-1-1.59-1A2.1,2.1,0,0,0,46.48,81a2,2,0,0,0,2.08.27Z"/><path class="cls-54" d="M46.91,80.36c-.32-.2-1.27-.85-1.27-.85s.13.58,1.1,1.17a2,2,0,0,0,1.49.41Z"/><path class="cls-46" d="M48.88,81.23a2.91,2.91,0,0,1-.41-.19c-.25-.19-.37-.36-.56-.49a3.12,3.12,0,0,0-.75-.31c-.14-.09-.27-.35-.61-.52s-.73-.32-1-.46a2.56,2.56,0,0,1-.35-.27c-.06,0-.19.4,1.61,1.49S48.92,81.27,48.88,81.23Z"/><path class="cls-47" d="M41.57,87.63v-.11s-.76-.69-.91-.79-1.22.26-1.22.26l-.75,1.34.87.53a1.77,1.77,0,0,0,.53.27,1.81,1.81,0,0,0,.6.11.26.26,0,0,0,.26-.25c.39,0,.27-.29.27-.29.42-.09.24-.37.24-.37s.26,0,.29-.22a.84.84,0,0,0-.18-.5"/><path class="cls-50" d="M40,88a.75.75,0,0,0,.33-.1.45.45,0,0,0,.25-.32v-.07l0,.06s0,0,.05,0a.84.84,0,0,0,.39.22.56.56,0,0,0,.36,0,.24.24,0,0,0,.14-.18.21.21,0,0,0,0-.09.13.13,0,0,1,0,.09.27.27,0,0,1-.15.22.55.55,0,0,1-.4,0,.8.8,0,0,1-.42-.23s0,0,0-.05l.06,0a.53.53,0,0,1-.29.36A.86.86,0,0,1,40,88a1,1,0,0,1-.24,0l-.09,0Z"/><path class="cls-50" d="M41.32,88.31l-.25-.14a.41.41,0,0,0-.39,0,.23.23,0,0,0-.1.19.32.32,0,0,0,.1.22.52.52,0,0,0,.11.1l.28.2-.31-.14a.64.64,0,0,0-.43-.07.26.26,0,0,0-.14.11.23.23,0,0,0,0,.16.45.45,0,0,0,.15.19l.07.06-.09,0a.55.55,0,0,1-.17-.2.25.25,0,0,1,0-.19.28.28,0,0,1,.17-.15.68.68,0,0,1,.48.07l0,.06-.13-.11a.39.39,0,0,1-.11-.27.31.31,0,0,1,.13-.25.4.4,0,0,1,.24-.07.46.46,0,0,1,.2,0,.72.72,0,0,1,.25.16.45.45,0,0,1,.08.08A.2.2,0,0,1,41.32,88.31Z"/><path class="cls-50" d="M41.08,88.11a.32.32,0,0,1-.09-.23.13.13,0,0,1,0-.06h-.07a.19.19,0,0,0,0,.08.35.35,0,0,0,.1.26.69.69,0,0,0-.32,0,.35.35,0,0,0-.17.15.27.27,0,0,0,0,.2.35.35,0,0,0,.17.19l.09,0-.07-.07a.4.4,0,0,1-.15-.19.19.19,0,0,1,0-.15.24.24,0,0,1,.14-.12.64.64,0,0,1,.45.07l.31.13-.28-.19Z"/><path class="cls-47" d="M40.7,91.39A15.45,15.45,0,0,1,36.65,90a13.08,13.08,0,0,1-3.38-3.54l2.78-2.06,2.48,3.12,3,2.35Z"/><path class="cls-55" d="M35.24,84.13,34.16,88l.17-.1S35.44,85.1,35.24,84.13Z"/><path class="cls-56" d="M45.48,92.58l-2.77-8.19a7.43,7.43,0,0,0-3.62-3.67,1.79,1.79,0,0,0-.52-.24l-.06,0-.07,0s-.71.41-.78.43h0a8.91,8.91,0,0,0-3.8,3.71c-.39.86-.94,2.23-1.54,3.78v-.05L31.74,90c-.66,1.75-1.33,3.58-1.87,5.05l-3.45,1.85-3.49,4.63,1.29,3.17,10.41,6.18L40,101.7a15.68,15.68,0,0,1,2.05-1.94c.86-.61,3.19-2.41,3.6-3.51S45.48,92.58,45.48,92.58Z"/><path class="cls-57" d="M39.62,91a3.32,3.32,0,0,0-3.55-.8"/><path class="cls-47" d="M34.73,88.43c-.1,3.18,2.6,13.28,3.18,14.18,1.74,2.74,12,7.57,12,7.57l1.94-1.8-8.92-8.6L42,88.69"/><path class="cls-56" d="M34.46,92.74l8.35-.26s.39-5.45-1.2-8-3.89-2.88-5.35-2S33.59,87.39,34.46,92.74Z"/><path class="cls-58" d="M41.17,84.65a4.48,4.48,0,0,0-2-1.91A3.27,3.27,0,0,0,37,82.48a3,3,0,0,0-.79.31,2.66,2.66,0,0,0-.92,1.06l.06,0a2.82,2.82,0,0,1,2.87-1.07,6.48,6.48,0,0,1,1.75.91,4.21,4.21,0,0,1,.65.55l.23.28c.06.06.3.17.32.22Z"/><path class="cls-58" d="M42.14,86.19s-.06,0-.1,0a23.3,23.3,0,0,1,.61,3,15.54,15.54,0,0,1,0,2.46s0,.56,0,.56l-8,.36a15.74,15.74,0,0,1,.21-5.84c.08-.31.17-.63.27-.94a2.79,2.79,0,0,1-.35.52,2.69,2.69,0,0,0-.27.6,7,7,0,0,0-.23,1.28,14.77,14.77,0,0,0-.07,2.74,17.2,17.2,0,0,0,.18,1.76l0,.16,8.44-.41,0-.17a14,14,0,0,0,0-2.89,17.37,17.37,0,0,0-.46-2.49A3.17,3.17,0,0,0,42.14,86.19Z"/><path class="cls-59" d="M42.35,121.49c-.83-2.19-1.29-2.06-4.55-5.65-1.11-1.22-1.78-2.22-2.71-3.36l-.29-.34c.14,0,.23,0,.25,0a16.83,16.83,0,0,0,1.27-4.39l.33.07-.33-.22h0c0-.06-.13-.14-.34-.23-2.5-1.69-11.22-7.59-11.68-7.72s-6.79,5.4-6.94,6.58h0a4.21,4.21,0,0,0-.39.58c-1.24,2.35-2.33,7.18.21,10.5,1.69,2.22,7.22,7.21,9.38,8l1,.74a24.28,24.28,0,0,1-2,6.1A67.1,67.1,0,0,0,22.38,140l6.71,2.42a14.9,14.9,0,0,0,5.54.88l4.91-.15s2.1-11,2.33-12.65C42.13,128.65,43.19,123.69,42.35,121.49Z"/><path class="cls-50" d="M51.39,107.8,43,99.67V99l-.18.2,0,.56,8.41,8.16h0A.8.8,0,0,1,51.39,107.8Z"/><path class="cls-47" d="M56.16,109.76a6.71,6.71,0,0,1-1.57,0L53.46,109a2.84,2.84,0,0,1-1-.94,5.15,5.15,0,0,1-.37-.58,1.82,1.82,0,0,1-.2-.55c-.56.1-1.22.3-1.22.3l-.09-.06-1.46,2.66L50.34,111a16.59,16.59,0,0,0,3.13,1.54,3.77,3.77,0,0,0,1.27-.64c.6,0,1-.66,1-.66,1-.26.52-.7.52-.7a.18.18,0,0,0,.1,0A.4.4,0,0,0,56.16,109.76Z"/><path class="cls-50" d="M52.93,109.81a1.79,1.79,0,0,0,.4.38,2.73,2.73,0,0,0,1.16.62,2.5,2.5,0,0,0,1.3-.13,1.48,1.48,0,0,0,.5-.21,2.31,2.31,0,0,0-.52.12,2.93,2.93,0,0,1-1.25.08,3.28,3.28,0,0,1-1.14-.56A2.21,2.21,0,0,0,52.93,109.81Z"/><path class="cls-50" d="M52.71,110.54a.93.93,0,0,0,.34.37,3.58,3.58,0,0,0,.45.31,1.54,1.54,0,0,0,.63.23,2.44,2.44,0,0,0,.66,0l.52-.08a1.53,1.53,0,0,0,.48-.11,1.61,1.61,0,0,0-.49,0l-.53,0a3.33,3.33,0,0,1-.63,0,1.72,1.72,0,0,1-.59-.2,3.35,3.35,0,0,1-.45-.27A3.6,3.6,0,0,1,52.71,110.54Z"/><path class="cls-50" d="M52.5,111.43a4,4,0,0,0,1,.64.5.5,0,0,0,.27.05H54a2.33,2.33,0,0,0,.38-.08c.22-.07.33-.15.32-.16s-.13,0-.34.06L54,112h-.22a.34.34,0,0,1-.2,0l-.78-.37A1.36,1.36,0,0,0,52.5,111.43Z"/><circle class="cls-45" cx="60.41" cy="147.62" r="0.43"/><circle class="cls-45" cx="56.81" cy="145.71" r="0.43"/><polyline class="cls-60" points="35.05 112.16 32.43 110.18 35.09 112.48 35.05 112.16"/><polyline class="cls-60" points="27.6 126.12 29.58 125.03 28.07 126.12 29.68 126.24 27.6 126.24"/></g></svg>