<svg xmlns="http://www.w3.org/2000/svg" viewBox="0 0 165.86 165.86"><defs><style>.cls-1{fill:#c1e8f6;}.cls-2{fill:#d26253;}.cls-3{fill:#a66e52;}.cls-4{fill:#43231b;}.cls-5{fill:#cd8c2a;}.cls-6{fill:#010101;}.cls-7{fill:#151312;}.cls-8{fill:#b16028;}.cls-9{fill:#df8c28;}.cls-10{fill:#fff;}.cls-11{fill:#643c2a;}.cls-12{fill:#311811;}.cls-13{fill:#f1edf6;}.cls-14{fill:#6796a2;}.cls-15{fill:#632b13;}.cls-16{fill:#dfa826;}.cls-17{fill:#593526;}.cls-18{fill:#98722b;}.cls-19{fill:#273339;}.cls-20{fill:#475c66;}.cls-21{fill:#642b11;}</style></defs><g id="Layer_5" data-name="Layer 5"><circle class="cls-1" cx="82.39" cy="88.13" r="71.63"/></g><g id="Layer_3" data-name="Layer 3"><path class="cls-2" d="M124.25,146.4c-1.35-12.39-4.58-32.7-6.53-40-3-9.12-10.51-10.17-10.51-10.17L104,126.94l5.29,26.52,0,1.36A71.38,71.38,0,0,0,124.25,146.4Z"/><path class="cls-2" d="M108.57,96.65l-9.95-3.17L96,92.82l-.21-.13a1.93,1.93,0,0,0,0,.48l0,.26a9,9,0,0,1-7.26,4.24,21.28,21.28,0,0,1-3.09-.1,10,10,0,0,1-7.66-4.93v-.71l-6.39,1.14L57.83,97l3.73,50.23-1.26,2.56s-.85,2.06-2.11,5.67a71.8,71.8,0,0,0,47.1.68,15,15,0,0,1-.05-5.05A104.1,104.1,0,0,0,107,136.88c3.25-4,3.81-7.52,3.86-8.63a51.69,51.69,0,0,0-.89-10.33A79.47,79.47,0,0,1,108.57,96.65Z"/><path class="cls-3" d="M95.5,91.85c-.15-.57.27-6.55.27-6.55l-8.91,1-8.8-1.74s-.11,6.62-.31,7.17-5.43,1.55-5.43,1.55,2.45,6,14,6.45S101,94.5,101,94.5,95.66,92.41,95.5,91.85Z"/><path class="cls-4" d="M78.06,84.87c.14.11,1.1,1.51,1.25,1.62,3.52,2.73,4,3.46,7.17,3.72,3.15,0,4.51-.36,8-3.36,1.18-1,.95-1.38,1.21-1.56C90.07,85,83.72,85.07,78.06,84.87Z"/><path class="cls-3" d="M73.12,66.91s-1.58-2.68-2.55-2.62c-.59,0,.71,1.42.81,2.92.14,2-1.35,2.2-.94,3.35s.85,5.12,2.41,5c.62,0,1.3-1.38,1.3-1.38S73.55,68.71,73.12,66.91Z"/><path class="cls-5" d="M72.27,74.24a1.48,1.48,0,0,0-1.42,1.22,1.25,1.25,0,0,0,.22.88,1.11,1.11,0,0,0,.55.43,1.61,1.61,0,0,0,1.43-.15c.07-.05.12-.16,0-.22a.32.32,0,0,0-.33,0,.9.9,0,0,1-.83,0,1,1,0,0,1-.23-.12l0,0,0,0-.08-.08a1.1,1.1,0,0,1,0-1.33.93.93,0,0,1,.27-.22l.12,0,.07,0h.21c.09,0,.25-.07.26-.18s-.13-.14-.21-.14Z"/><path class="cls-3" d="M101.41,68.06s1.55-2.7,2.52-2.65c.59,0-.69,1.43-.77,2.93-.11,2,1.38,2.18,1,3.34s-.78,5.13-2.34,5c-.61,0-1.32-1.36-1.32-1.36S101,69.87,101.41,68.06Z"/><path class="cls-3" d="M103.43,69.79h0c-.42,1.73-.92,3.55-1.32,5.65-1,5.53-2.79,8-6.67,10.3-4.08,2.41-5.3,3.36-8.73,3.34-3.42-.28-4.56-1.33-8.41-4.08-3.67-2.63-5.22-5.26-5.75-10.85-.12-1.25-.29-2.41-.46-3.5-.13-.82-.26-1.61-.38-2.37v0h0A18.7,18.7,0,0,1,72,59.76a17,17,0,0,1,7.91-9.41h0a16,16,0,0,1,8.6-2.09C97.25,48.64,103,56,104,61.16A18.69,18.69,0,0,1,103.43,69.79Z"/><path class="cls-6" d="M88.4,76.37a1.54,1.54,0,0,1-1.61-.15c-.1-.08-.44,0-.31.09a2.15,2.15,0,0,0,2.2.17c.07,0,.06-.09,0-.12a.3.3,0,0,0-.26,0"/><path class="cls-6" d="M86.26,76.15a3.5,3.5,0,0,0-1.18-.35.29.29,0,0,0-.18,0s-.05.07,0,.1a1.28,1.28,0,0,0,.66.18.27.27,0,0,0,.21-.07c0-.06,0-.09-.09-.1a1.07,1.07,0,0,1-.52-.14L85,76a2.85,2.85,0,0,1,1.06.33.25.25,0,0,0,.22,0s.09-.08,0-.11"/><path class="cls-6" d="M84.63,76.13a1.32,1.32,0,0,1-1-.63A1.18,1.18,0,0,1,84.13,74c.06,0,0-.09,0-.1a.26.26,0,0,0-.21,0,1.41,1.41,0,0,0-.72,1.28,1.19,1.19,0,0,0,.89,1,1.8,1.8,0,0,0,.45.09c.06,0,.17,0,.2-.06s0-.09-.08-.09"/><path class="cls-6" d="M88.89,76.26a3.51,3.51,0,0,1,1.2-.24.24.24,0,0,1,.18.07.06.06,0,0,1,0,.1,1.34,1.34,0,0,1-.66.11.22.22,0,0,1-.2-.08c0-.06,0-.09.09-.09A1,1,0,0,0,90,76l.18.17a2.86,2.86,0,0,0-1.08.22.25.25,0,0,1-.22,0s-.08-.09,0-.12"/><path class="cls-6" d="M90.5,76.39a1.34,1.34,0,0,0,1.11-.54,1.19,1.19,0,0,0-.42-1.55s0-.09,0-.1a.27.27,0,0,1,.21.06,1.4,1.4,0,0,1,.6,1.32,1.18,1.18,0,0,1-1,.91,2.31,2.31,0,0,1-.46.05.28.28,0,0,1-.2-.08c0-.06,0-.09.09-.08"/><path class="cls-7" d="M92,64.12c0,.31,0,.63,0,.95s0,.48,0,.72c.89-.17,1.65-.27,2.22-.33a8.46,8.46,0,0,1,2.52-.07,7.53,7.53,0,0,1,1.58.53,5,5,0,0,1,.82.44c.58.42.8.87.9.84s0-.43-.06-.47a3.7,3.7,0,0,0-1.19-1.65,4.7,4.7,0,0,0-1.6-.75,18.57,18.57,0,0,0-5.14-.2"/><path class="cls-7" d="M94.84,68.07a1.06,1.06,0,0,1,1.38.56A1,1,0,0,1,96,69.79a1,1,0,0,1-1.15.15,1.11,1.11,0,0,1-.49-1.3,1,1,0,0,1,.49-.57"/><path class="cls-7" d="M91.55,69.41s2.24-1.48,3.35-1.53A5.69,5.69,0,0,1,99,69.48s-2.58-1.35-3.72-1.27A20.15,20.15,0,0,0,91.55,69.41Z"/><path class="cls-7" d="M84.15,63.81c0,.33,0,.63-.05,1l0,.72c-.86-.24-1.61-.41-2.17-.53a8,8,0,0,0-2.51-.28,6.49,6.49,0,0,0-1.62.39,4.34,4.34,0,0,0-.86.36c-.61.37-.87.8-1,.76s.08-.42.1-.46a3.75,3.75,0,0,1,1.32-1.55A5.1,5.1,0,0,1,79,63.56a18.6,18.6,0,0,1,5.13.25"/><path class="cls-7" d="M80.94,67.5a1.05,1.05,0,0,0-1.17.16,1,1,0,0,0-.33.47,1.07,1.07,0,0,0,.21,1,1,1,0,0,0,1.14.25,1.08,1.08,0,0,0,.59-1.25,1,1,0,0,0-.43-.61"/><path class="cls-7" d="M84.1,69.12S82,67.45,80.9,67.3a5.64,5.64,0,0,0-4.24,1.24s2.69-1.13,3.82-.94A18.75,18.75,0,0,1,84.1,69.12Z"/><path class="cls-8" d="M69.7,53.61A31.91,31.91,0,0,1,86.29,52c9.2,1.58,13.39,7.62,14.77,11.86a29.78,29.78,0,0,1,1.35,8.44s2.22,1.25,4.24-7.15C109.6,52.87,96.57,41.4,93.57,41.26S74.6,40,69.7,53.61Z"/><path class="cls-8" d="M71.52,50.07s-1.13-9.8,5.66-11.33,21-4.18,24.79,4.89Z"/><path class="cls-9" d="M70.3,70.05a5.8,5.8,0,0,1-1.37-2.59c-.63-2.65-1.7-8.15-.39-10.51a19.68,19.68,0,0,0,1-5.06c.47-4.81-.74-3.39,6.29-8.56s8.12-3.62,18.26-2.53,12.91,4.52,11.7,14c0,0-13.51-4.53-20.11-1.33s-14,14.14-13.75,18.21A11.91,11.91,0,0,1,70.3,70.05Z"/><path class="cls-8" d="M68,61.79S78.91,49,91,49.42c0,0-15.39-2.69-22.74,8.18Z"/><path class="cls-8" d="M105.88,50.4S94.12,45.53,89.55,45,104,46,105.77,48.1Z"/><ellipse class="cls-10" cx="87.4" cy="80.35" rx="0.85" ry="4.03" transform="translate(3.31 164.16) rotate(-87.5)"/><path class="cls-5" d="M102.44,76a1.07,1.07,0,0,1,1,.91,1,1,0,0,1-.14.7l-.11.15s-.09.08,0,0h0l-.07,0s0,0,0,0l-.08,0-.09,0h0l-.06,0a.76.76,0,0,1-.21,0,.9.9,0,0,1-.55-.15.33.33,0,0,0-.33,0c-.07.05-.13.16,0,.22a1.59,1.59,0,0,0,1.9-.24,1.31,1.31,0,0,0,0-1.73,1.47,1.47,0,0,0-1-.46.34.34,0,0,0-.31.14c0,.1,0,.17.14.18Z"/><path class="cls-11" d="M87.52,79.52c-2.31-.11-6-.53-6-.53s.5,4.48,5.86,4.71,6.25-4.18,6.25-4.18S89.84,79.62,87.52,79.52Z"/><path class="cls-12" d="M87.54,79.52c-1.09,0-5.52-.42-5.52-.42s1.37,2.42,5.34,2.59c4.31.19,5.68-2.08,5.68-2.08Z"/><path class="cls-13" d="M87.59,79.68c-1.1-.05-4.44-.38-4.44-.38s1.15,1.23,4.46,1.37,4.4-1,4.4-1Z"/><path class="cls-11" d="M93.85,79.2a8.41,8.41,0,0,1-1.33.07c-.9-.11-2-.39-2.65-.47a10.1,10.1,0,0,0-2.34.25,9.83,9.83,0,0,0-2.32-.45c-.66,0-1.77.2-2.68.24a9.47,9.47,0,0,1-1.3-.19c-.16,0,.1,1.2,6.25,1.47S94,79.24,93.85,79.2Z"/><path class="cls-2" d="M59.06,114.12s-3.24,8.72-2.38,12.9,6,9.32,6,9.32S64.43,118.76,59.06,114.12Z"/><path class="cls-3" d="M43.42,55.56l-.5-5.36s1.72-6.67,1.52-7.62S44,37.06,44,37.06l-4.66-5.12a1.63,1.63,0,0,0-1.55,1s-2.1-.17-2.56,1.27a1.19,1.19,0,0,0-1.61.49h0a1.19,1.19,0,0,0-.13.49,6,6,0,0,0-.12,1.34c-.29.07-2,.51-2,1.38a13.24,13.24,0,0,0,.77,3.88,1.47,1.47,0,0,0,1.07.88h0L33.71,45a23.46,23.46,0,0,0,1.39,5.67l.66,1.06L36,57A13.22,13.22,0,0,0,43.42,55.56Z"/><path class="cls-4" d="M39.69,33.8a1.51,1.51,0,0,1-.07.37,7.55,7.55,0,0,1-.38.93c-.09.21-.17.42-.27.65a2.56,2.56,0,0,1-.44.68,2.13,2.13,0,0,1-.72.55,1.26,1.26,0,0,1-1,0,.67.67,0,0,1-.37-.37,1,1,0,0,1,0-.49,6.56,6.56,0,0,1,.19-.88,9.85,9.85,0,0,1,.56-1.39c.2-.38.36-.64.5-.87a3.46,3.46,0,0,1,.22-.31,1.29,1.29,0,0,1-.17.33c-.11.2-.28.51-.45.89a10.06,10.06,0,0,0-.53,1.38,8.58,8.58,0,0,0-.18.85.89.89,0,0,0,0,.43.52.52,0,0,0,.29.29,1.07,1.07,0,0,0,.86,0,1.85,1.85,0,0,0,.68-.5,2.48,2.48,0,0,0,.43-.64c.11-.22.2-.44.3-.65.18-.38.32-.69.4-.91S39.68,33.8,39.69,33.8Z"/><path class="cls-4" d="M36.89,37a.34.34,0,0,1,0,.1,1.38,1.38,0,0,1,0,.29,2.61,2.61,0,0,1-.28,1.07,3.36,3.36,0,0,1-1.05,1.28,1.27,1.27,0,0,1-1,.22.9.9,0,0,1-.48-.28.83.83,0,0,1-.18-.53,4.61,4.61,0,0,1,.17-1c.07-.33.15-.66.23-.93.18-.58.34-1.11.47-1.55s.23-.81.29-1.06a2.85,2.85,0,0,1,.11-.39,1.88,1.88,0,0,1,0,.41,7.91,7.91,0,0,1-.25,1.07c-.12.45-.27,1-.43,1.56-.08.29-.16.6-.23.92a4.65,4.65,0,0,0-.16,1,.72.72,0,0,0,.16.44.66.66,0,0,0,.38.23,1.15,1.15,0,0,0,.86-.2,3.61,3.61,0,0,0,1-1.18,3.09,3.09,0,0,0,.31-1A2.6,2.6,0,0,1,36.89,37Z"/><path class="cls-4" d="M35.82,39.48a.61.61,0,0,1,0,.12,3.38,3.38,0,0,1,.08.34,4.05,4.05,0,0,1,0,1.3A2.79,2.79,0,0,1,35.14,43a1.52,1.52,0,0,1-1.06.46.84.84,0,0,1-.6-.25,1.29,1.29,0,0,1-.27-.61,17.19,17.19,0,0,1,0-2.38l.16-1.92a9.36,9.36,0,0,0,.06-1.3c0-.16,0-.32,0-.47v.12c0,.08,0,.19,0,.35a11.66,11.66,0,0,1,0,1.31l-.09,1.92a18.43,18.43,0,0,0,0,2.35,1,1,0,0,0,.21.52.67.67,0,0,0,.5.21,1.46,1.46,0,0,0,.94-.42,2.79,2.79,0,0,0,.81-1.65A5.35,5.35,0,0,0,35.82,39.48Z"/><path class="cls-14" d="M67.42,15.65l-.17-.33-.19.33a1.61,1.61,0,0,1-.66.58l-.33.16.33.2a1.57,1.57,0,0,1,.59.66l.15.33.2-.31a1.48,1.48,0,0,1,.66-.58l.33-.17L68,16.33A1.64,1.64,0,0,1,67.42,15.65Z"/><path class="cls-14" d="M77.52,12.84l-.09-.19-.11.18a1,1,0,0,1-.37.33l-.21.09.19.11a.87.87,0,0,1,.33.38l.1.2.11-.19a.87.87,0,0,1,.38-.33l.19-.09-.18-.11A1,1,0,0,1,77.52,12.84Z"/><path class="cls-14" d="M30.17,16.29,30,16l-.21.33a1.69,1.69,0,0,1-.69.55l-.34.15.32.2a1.51,1.51,0,0,1,.56.69l.14.34.22-.32a1.49,1.49,0,0,1,.69-.55l.33-.15L30.73,17A1.65,1.65,0,0,1,30.17,16.29Z"/><path class="cls-14" d="M32.48,3.86l-.24-.58-.36.52a2.61,2.61,0,0,1-1.14.94L30.17,5l.52.36a2.54,2.54,0,0,1,.92,1.13l.24.57.36-.51a2.55,2.55,0,0,1,1.14-.94l.57-.21L33.4,5A2.71,2.71,0,0,1,32.48,3.86Z"/><path class="cls-14" d="M57.65,4.68l-.38-.49-.21.58A2.56,2.56,0,0,1,56.19,6l-.5.38.59.22a2.56,2.56,0,0,1,1.18.87l.38.5.21-.59a2.74,2.74,0,0,1,.88-1.19l.5-.37-.59-.22A2.64,2.64,0,0,1,57.65,4.68Z"/><path class="cls-14" d="M57.91,52.42l.14-.53-.52.16a2.52,2.52,0,0,1-1.28,0l-.54-.15.16.53a2.37,2.37,0,0,1,0,1.32l-.15.53.53-.16a2.41,2.41,0,0,1,1.25,0l.54.15-.17-.53A2.37,2.37,0,0,1,57.91,52.42Z"/><path class="cls-2" d="M44.83,51l.25,29.33L72.55,92.77c-.28,1.11-7.38,5.72-7.68,6.82a58.45,58.45,0,0,1-5.38,13.91c-.55,1-.43,5.5-1.07,6.39-.24-2-1.12-6.93-1.12-6.93A210.74,210.74,0,0,1,33.38,88.25c-3.3-4,.72-35.37.39-35.81S44.83,51,44.83,51Z"/><path class="cls-15" d="M54.43,101a18.58,18.58,0,0,0,1.09,2.07,40.1,40.1,0,0,1,2.28,5.15,37.11,37.11,0,0,1,1.49,5.42,19.78,19.78,0,0,0,.47,2.29,9.31,9.31,0,0,0-.17-2.35A29.57,29.57,0,0,0,55.79,103,9.33,9.33,0,0,0,54.43,101Z"/><path class="cls-16" d="M69.17,32.2c.94,1.11,1.93,2.19,2.85,3.35a4.33,4.33,0,0,1,1,3.54,4.76,4.76,0,0,1-2.21,3.07c-3.43,2.43-7.63,4.43-11.92,4A11.57,11.57,0,0,1,51.43,42a.93.93,0,0,1,1.41-1.2,9.69,9.69,0,0,0,5.54,3.43,11.27,11.27,0,0,0,5.58-.5,21.45,21.45,0,0,0,4.85-2.39,6.42,6.42,0,0,0,2.07-1.7,2.45,2.45,0,0,0-.26-2.83c-.94-1.14-1.9-2.24-2.85-3.35A.92.92,0,0,1,68,32.13a.91.91,0,0,1,1.21.1Z"/><path class="cls-16" d="M49.77,12c-.9-1-1.79-2.1-2.69-3.15a2.64,2.64,0,0,0-2-1.09,3.52,3.52,0,0,0-2.47,1.5c-2.46,2.6-4.73,5.89-4.94,9.56a9.58,9.58,0,0,0,2.47,6.71c.76.92-.65,2.11-1.41,1.24a11.69,11.69,0,0,1-2.91-7.1,13.22,13.22,0,0,1,1.67-6.5,23.57,23.57,0,0,1,3.67-5,6.17,6.17,0,0,1,2.85-2,4.23,4.23,0,0,1,3.83.9,36.19,36.19,0,0,1,3.36,3.85.93.93,0,0,1-.32,1.27.9.9,0,0,1-1.08-.1Z"/><path class="cls-16" d="M36.79,38.15l1.92,1.41h0l0,.06h.06l1.12,2.17a23.74,23.74,0,0,0-4.8,6.85l-2.91-3.42-.07-.1L29.22,41.7A23.57,23.57,0,0,0,36.79,38.15Z"/><rect class="cls-16" x="37.7" y="34.35" width="3.1" height="9.7" rx="1.52" transform="translate(-16.05 34.76) rotate(-40.38)"/><path class="cls-16" d="M53.17,6.84l10.1,11.88.54.63,9.54,11.22c-.17.28-22.53,21.31-33.27,7.87h0C28.51,25.66,52.88,7,53.17,6.84Z"/><path class="cls-16" d="M36.32,48l-6.47-7.6a4.71,4.71,0,0,0-6.65-.54h0l-.06,0h0L35.73,54.73h0l.06,0A4.74,4.74,0,0,0,36.33,48Z"/><rect class="cls-17" x="19.54" y="39.13" width="11.64" height="24.18" transform="translate(-27.14 28.63) rotate(-40.38)"/><rect class="cls-18" x="22.67" y="42.52" width="5.7" height="17.11" transform="translate(-27.01 28.7) rotate(-40.38)"/><path class="cls-19" d="M35.68,37.38s1,1.22,2.25,2.7,2.28,2.67,2.3,2.65-1-1.2-2.24-2.68S35.69,37.38,35.68,37.38Z"/><path class="cls-19" d="M37.93,35.27s1.06,1.32,2.43,2.91,2.46,2.91,2.47,2.86-1.07-1.32-2.43-2.9S38,35.27,37.93,35.27Z"/><path class="cls-19" d="M29.92,40.38s1.34,1.64,3,3.63S36,47.56,36,47.56s-1.33-1.63-3-3.64S29.93,40.37,29.92,40.38Z"/><path class="cls-20" d="M53.17,6.84v.07l.1.22.37.84.28.6.35.71c.25.51.52,1.09.87,1.7.17.31.36.63.54,1s.39.71.59,1l.33.55c0,.09.1.19.16.28l.17.27.75,1.16a58.65,58.65,0,0,0,3.65,4.93,61.17,61.17,0,0,0,4.19,4.48l1,.93.25.22.24.22.51.39c.32.27.64.55.93.76l.88.7c.55.45,1.07.82,1.52,1.16l.64.47.55.35.76.51.2.14.07,0L73,30.52l-.2-.14-.75-.52-.55-.38L70.88,29c-.45-.35-1-.71-1.53-1.17l-.86-.7-.92-.75L67.09,26l-.26-.21-.24-.23-1-.94a58.38,58.38,0,0,1-4.17-4.45,57.91,57.91,0,0,1-3.66-4.91L57,14.08l-.18-.27-.17-.29L56.36,13c-.21-.35-.42-.71-.59-1l-.52-1c-.35-.62-.63-1.2-.89-1.7-.12-.26-.24-.49-.35-.71L53.73,8l-.39-.83-.11-.22Z"/><polygon class="cls-18" points="57.19 23.55 52.54 24.72 48.94 21.55 48.62 26.34 44.49 28.78 48.94 30.57 49.99 35.24 53.06 31.56 57.84 32.01 55.28 27.95 57.19 23.55"/><path class="cls-20" d="M53.17,6.84l-.07,0-.21.16-.79.63c-.69.54-1.65,1.34-2.8,2.38s-2.51,2.31-3.9,3.82a45.62,45.62,0,0,0-4.18,5.23A28.76,28.76,0,0,0,38.09,25a18.11,18.11,0,0,0-.82,2.81l-.07.33v.33l0,.33v.33l-.1,1.22A11.8,11.8,0,0,0,37.55,34c.12.42.24.74.32,1l.1.25,0,.07,0-.08a.85.85,0,0,0-.09-.24c-.08-.22-.19-.54-.31-1a11.8,11.8,0,0,1-.48-3.64,12.08,12.08,0,0,1,.1-1.21l0-.33v-.33l0-.33.07-.33a19.55,19.55,0,0,1,.83-2.8,29,29,0,0,1,3.12-5.87,45.73,45.73,0,0,1,4.18-5.22c1.4-1.52,2.73-2.81,3.88-3.86.9-.84,1.84-1.64,2.82-2.39l.78-.62.2-.16Z"/><path class="cls-10" d="M42.13,41.2a.84.84,0,0,1-.2,1,2,2,0,0,1-.71.39l-.34.11a1,1,0,0,0,.34-.06,1.71,1.71,0,0,0,.7-.38,1,1,0,0,0,.3-.78.63.63,0,0,0-.08-.23C42.16,41.22,42.14,41.2,42.13,41.2Z"/><path class="cls-3" d="M43.38,42.41l-5.24-5.89a3.05,3.05,0,0,0-.63,3.29,8.89,8.89,0,0,0,2,2.91,4.34,4.34,0,0,0-2.16,6.46"/><path class="cls-4" d="M43.25,42.26,43,41.92,41.9,40.68l-3.72-4.24,0-.06,0,0a2.5,2.5,0,0,0-.79,1.4,3.62,3.62,0,0,0,.05,1.7,5.51,5.51,0,0,0,1,1.78,16.94,16.94,0,0,0,1.16,1.38,5,5,0,0,0-2.15,1.87,5.42,5.42,0,0,0-.86,2.16,4.66,4.66,0,0,0,0,1h0a4.67,4.67,0,0,1,.07-1,5.47,5.47,0,0,1,.84-2.11,5,5,0,0,1,2.19-1.85h0v0l.06,0-.05-.06h0a16.48,16.48,0,0,1-1.2-1.45,5.47,5.47,0,0,1-.89-1.73,3.5,3.5,0,0,1-.05-1.64,2.37,2.37,0,0,1,.71-1.22l3.72,4.15L42.93,42l.29.31c.07.1.12.11.12.11Z"/><path class="cls-15" d="M88.21,135.22s-2.61-1.78-4.59-1.78a17.19,17.19,0,0,0-4.56.89,20.9,20.9,0,0,1,5.06,0C85.6,134.73,88.21,135.22,88.21,135.22Z"/><path class="cls-21" d="M106,139.82c.52-1.12,1.85-2,2.62-2.95a11.19,11.19,0,0,0,2.5-6.25,24,24,0,0,0-.76-6.59c-.47-1.92-1-3.24-1.5-5.17a37.53,37.53,0,0,1-1.18-5.55,8.23,8.23,0,0,1,.94-4.86c-1.38,2.34-.61,5.82.13,8.21s1.74,5.74,2.17,7.49c.78,3.13,1.53,8.83-.92,11.85s-3,3.07-3.31,3.84a24.19,24.19,0,0,0-.37,4.51C106.19,142.25,105.42,141.06,106,139.82Z"/></g></svg>