<svg xmlns="http://www.w3.org/2000/svg" viewBox="0 0 165.86 165.86"><defs><style>.cls-1{fill:#9ca09c;}.cls-2{fill:#9db064;}.cls-3{fill:#e1d2c2;}.cls-4{fill:#e0e0e0;}.cls-5{fill:#bca573;}.cls-6{fill:#533b18;}.cls-7{fill:#322313;}.cls-8{fill:#eee0ce;}.cls-9{fill:#b5b5b6;}.cls-10{fill:#8b8c8b;}.cls-11{fill:#cccccb;}.cls-12{fill:#fff;stroke:#4c4c4d;}.cls-12,.cls-16,.cls-18,.cls-19,.cls-20,.cls-21{stroke-miterlimit:10;}.cls-12,.cls-18{stroke-width:0.25px;}.cls-13{fill:#7e7f7f;}.cls-14{fill:#dbc694;}.cls-15,.cls-21{fill:#765522;}.cls-16,.cls-18,.cls-19,.cls-20{fill:none;}.cls-16,.cls-18{stroke:#6b6b6b;}.cls-16{stroke-width:0.24px;}.cls-17{fill:#848484;}.cls-19{stroke:#9ca09c;stroke-width:0.29px;}.cls-20,.cls-21{stroke:#533b18;}.cls-20{stroke-width:0.57px;}.cls-21{stroke-width:0.51px;}.cls-22{fill:#5172b8;}.cls-23{fill:#345694;}.cls-24{fill:#956243;}.cls-25{fill:#070808;}.cls-26{fill:#13110f;}.cls-27{fill:#3f261c;}.cls-28{fill:#184449;}.cls-29{fill:#2b636d;}.cls-30{fill:#231f20;}.cls-31{fill:#010101;}.cls-32{fill:#653c29;}.cls-33{fill:#31160e;}.cls-34{fill:#f1eef7;}.cls-35{fill:#96963a;}.cls-36{fill:#92b4b8;}.cls-37{fill:#ae7462;}.cls-38{fill:#527f80;}.cls-39{fill:#3c7f8e;}.cls-40{fill:#9ed0e3;}.cls-41{fill:#f0e906;}.cls-42{fill:#265157;}</style></defs><g id="Layer_1" data-name="Layer 1"><path class="cls-1" d="M85,9,65.74,23.32h4.55L87,11.93A3.15,3.15,0,0,1,85,9Z"/><path class="cls-1" d="M90.81,9,86.5,11.91h0L70,23.3h-.3l-1.41,1,7.23-2.78L93.06,12A3.14,3.14,0,0,1,90.81,9Z"/><path class="cls-1" d="M96.86,9,77.56,19.86H82.1l16.76-7.95A3.16,3.16,0,0,1,96.86,9Z"/><path class="cls-1" d="M73.22,9,49.34,26.75h4.54L75.23,11.92A3.15,3.15,0,0,1,73.22,9Z"/><path class="cls-1" d="M79,9,74.68,11.9h0L58.23,23.29h-.31l-1.41,1,7.23.66L81.24,12A3.14,3.14,0,0,1,79,9Z"/><path class="cls-1" d="M85,9,65.74,23.29h4.55L87,11.9A3.15,3.15,0,0,1,85,9Z"/><path class="cls-2" d="M160.28,136.57c.75-3.7.64-6.72-3.11-9.76-4.69-3.81-6.16-6.48-12-5.54a4.64,4.64,0,0,1-4.05-1.22H31.55c-7.76,0-26.42,1.52-24.34,10.94,1.82,8.25-9.72,7.55-2.31,15.94,9,10.19,22.62,8.23,26.68,7.69,3.5-.45,6,2.16,7.12,3.7,3.38,4.57,12.23,2.73,17.15,2.38,7.79-.55,15.53-1.6,23.35-1.76,14.28-.29,27.63-1.05,41.66.58,13.38,1.56,22.77,2.09,35.28-3.46C166.83,151.31,158.67,144.51,160.28,136.57Z"/><polygon class="cls-3" points="111.98 24.14 111.98 108.91 63.7 113.89 64.84 24.07 111.98 24.14"/><path class="cls-4" d="M153.64,141.93,77,151.08a11.47,11.47,0,0,1-9.72-3.63l-21.84-27.4,90.42-3.82,19.36,20.33A3,3,0,0,1,153.64,141.93Z"/><polygon class="cls-5" points="54.15 121.46 53.44 28.05 71.24 16.86 71.24 143.14 54.15 121.46"/><polygon class="cls-6" points="57.63 129.93 55.67 129.93 55.67 105.15 57.63 105.93 57.63 129.93"/><polygon class="cls-7" points="55.67 129.93 54.68 128.83 54.68 107.64 55.67 107.57 55.67 129.93"/><polygon class="cls-6" points="39.62 144.59 37.65 144.59 37.65 119.81 39.62 120.59 39.62 144.59"/><polygon class="cls-7" points="37.65 144.59 36.66 143.49 36.66 119.86 37.65 120.96 37.65 144.59"/><polygon class="cls-8" points="140.82 133.26 111.98 108.91 111.98 26.43 142.62 26.43 140.82 133.26"/><polygon class="cls-9" points="78.63 133.49 141.48 125.26 111.98 108.91 73.35 111.5 78.63 133.49"/><polygon class="cls-10" points="137.27 131.34 79.44 137.05 79.44 130.49 137.27 124.93 137.27 131.34"/><polygon class="cls-1" points="140.58 138.42 82.75 145.23 82.75 139.96 140.58 133.26 140.58 138.42"/><polygon class="cls-11" points="140.58 133.26 82.75 139.96 79.44 137.05 137.12 130.13 140.58 133.26"/><polygon class="cls-10" points="79.44 137.05 79.44 142 82.75 145.23 82.75 139.96 79.44 137.05"/><path class="cls-12" d="M118.11,122.14,89.49,124.9a6.57,6.57,0,0,1-4.91-1.57l-5-4.07v-2.17l0-2.39,24.68-2.19a7,7,0,0,1,4.39,1.16l9.94,6.61A1,1,0,0,1,118.11,122.14Z"/><path class="cls-1" d="M140.32,11.82a3.4,3.4,0,0,0,.91.15,3.17,3.17,0,0,0,3.16-3.16Z"/><path class="cls-1" d="M132.62,8.85l-19.3,10.89h4.54l16.76-8A3.14,3.14,0,0,1,132.62,8.85Z"/><path class="cls-1" d="M138.39,8.83l-4.32,2.93.05,0-16.5,7.94h-.3l-1.41,1,7.23.66,17.5-9.49A3.16,3.16,0,0,1,138.39,8.83Z"/><path class="cls-1" d="M144.44,8.83,125.13,19.72h4.55l16.76-8A3.15,3.15,0,0,1,144.44,8.83Z"/><path class="cls-13" d="M134.28,11.62s4.05.59,4.11-2.79l-4.11,2.79"/><path class="cls-13" d="M140.17,11.66s3.42,1.45,4.24-2.83l-4.12,2.79"/><path class="cls-1" d="M128.5,11.81a3,3,0,0,0,.91.15,3.16,3.16,0,0,0,3.16-3.16Z"/><path class="cls-1" d="M120.8,8.84,101.5,19.73h4.55l16.75-8A3.17,3.17,0,0,1,120.8,8.84Z"/><path class="cls-1" d="M126.57,8.82l-4.31,2.93,0,0-16.49,7.94h-.31l-1.41.95,7.23.67,17.5-9.5A3.14,3.14,0,0,1,126.57,8.82Z"/><path class="cls-1" d="M132.62,8.82l-19.3,10.89h4.54l16.76-8A3.14,3.14,0,0,1,132.62,8.82Z"/><path class="cls-13" d="M122.46,11.61s4.05.59,4.11-2.79l-4.11,2.79"/><path class="cls-13" d="M128.36,11.65s3.41,1.45,4.23-2.83l-4.11,2.79"/><path class="cls-1" d="M116.68,11.81a3,3,0,0,0,.91.15,3.15,3.15,0,0,0,3.16-3.16Z"/><path class="cls-1" d="M109,8.85,89.68,19.73h4.55l16.76-8A3.16,3.16,0,0,1,109,8.85Z"/><path class="cls-1" d="M114.76,8.82l-4.32,2.94h0L94,19.71h-.31l-1.4,1,7.23.66L117,11.83A3.14,3.14,0,0,1,114.76,8.82Z"/><path class="cls-1" d="M120.8,8.82,101.5,19.71h4.55l16.75-8A3.16,3.16,0,0,1,120.8,8.82Z"/><path class="cls-13" d="M110.64,11.61s4.06.6,4.12-2.79l-4.12,2.79"/><path class="cls-13" d="M116.54,11.65s3.41,1.46,4.24-2.83l-4.12,2.79"/><path class="cls-1" d="M104.87,11.8a3,3,0,0,0,.91.15,3.16,3.16,0,0,0,3.16-3.16Z"/><path class="cls-1" d="M97.17,8.84,77.87,19.73h4.54l16.76-8A3.15,3.15,0,0,1,97.17,8.84Z"/><path class="cls-1" d="M102.94,8.82l-4.32,2.93h0L82.17,19.7h-.3l-1.41,1,7.23.66,17.5-9.49A3.16,3.16,0,0,1,102.94,8.82Z"/><path class="cls-1" d="M109,8.82,89.68,19.7h4.55L111,11.75A3.16,3.16,0,0,1,109,8.82Z"/><path class="cls-13" d="M98.82,11.6s4.06.6,4.12-2.78L98.82,11.6"/><path class="cls-13" d="M104.72,11.64s3.42,1.46,4.24-2.82l-4.12,2.78"/><path class="cls-1" d="M116.37,12a3.4,3.4,0,0,0,.91.15A3.16,3.16,0,0,0,120.44,9Z"/><path class="cls-1" d="M108.67,9,89.37,19.89h4.55l16.76-8A3.15,3.15,0,0,1,108.67,9Z"/><path class="cls-1" d="M114.45,9l-4.32,2.93,0,0L93.68,19.87h-.31L92,20.82l7.24.66L116.69,12A3.16,3.16,0,0,1,114.45,9Z"/><path class="cls-1" d="M120.49,9l-19.3,10.89h4.55l16.75-8A3.15,3.15,0,0,1,120.49,9Z"/><path class="cls-13" d="M110.33,11.77s4.06.59,4.12-2.79l-4.12,2.79"/><path class="cls-13" d="M116.23,11.81s3.41,1.45,4.23-2.83l-4.11,2.79"/><path class="cls-1" d="M104.55,12a3.11,3.11,0,0,0,.92.15A3.17,3.17,0,0,0,108.63,9Z"/><path class="cls-1" d="M96.86,9,77.56,19.88H82.1l16.76-7.95A3.17,3.17,0,0,1,96.86,9Z"/><path class="cls-1" d="M102.63,9,98.31,11.9l0,0-16.5,7.94h-.3l-1.41.95,7.23.66L104.88,12A3.14,3.14,0,0,1,102.63,9Z"/><path class="cls-1" d="M108.67,9,89.37,19.86h4.55l16.76-8A3.15,3.15,0,0,1,108.67,9Z"/><path class="cls-13" d="M98.51,11.76s4.06.59,4.12-2.79l-4.12,2.79"/><path class="cls-13" d="M104.41,11.8s3.42,1.45,4.24-2.83l-4.12,2.79"/><path class="cls-1" d="M92.74,12a3,3,0,0,0,.91.15A3.16,3.16,0,0,0,96.81,9Z"/><path class="cls-13" d="M86.7,11.76s4,.6,4.11-2.79L86.7,11.76"/><path class="cls-13" d="M92.59,11.8S96,13.26,96.83,9l-4.11,2.79"/><path class="cls-1" d="M80.92,12a3,3,0,0,0,.91.15A3.15,3.15,0,0,0,85,8.94Z"/><path class="cls-13" d="M74.88,11.75S78.94,12.35,79,9l-4.11,2.78"/><path class="cls-13" d="M80.78,11.79S84.19,13.25,85,9L80.9,11.75"/><polygon class="cls-14" points="142.62 17.56 71.24 16.86 71.24 19.15 71.24 30.16 71.24 143.14 79.44 142 79.44 27.03 142.62 27.15 142.62 17.56"/><polygon class="cls-15" points="52.73 26.33 52.73 29.98 71.24 16.86 71.24 12.89 52.73 26.33"/><polygon class="cls-15" points="71.24 12.89 71.24 16.86 142.95 17.69 142.95 14.56 71.24 12.89"/><polygon class="cls-15" points="130.27 27.12 130.27 125.1 151.71 135.63 151.77 21.32 130.27 27.12"/><rect class="cls-6" x="151.71" y="21.33" width="3.49" height="114.31"/><path class="cls-16" d="M94.48,114.29c-3,.22-6,.89-6.06,2.53-.1,2,5,1.25,6.08,2.28s3.88,4.42,8.46,3.3-1.09-3.62-1-4.28c.15-1,.93-2.45-.2-3.23a3.2,3.2,0,0,0-1.22-.45A29.86,29.86,0,0,0,94.48,114.29Z"/><ellipse class="cls-11" cx="95.65" cy="116.54" rx="2.54" ry="0.9"/><path class="cls-17" d="M93.46,117a4.45,4.45,0,0,0,2.22.47c1.3,0,2.36-.35,2.51-.79a3.26,3.26,0,0,0-1.92-.47C95,116.18,93.61,116.52,93.46,117Z"/><line class="cls-18" x1="103.63" y1="115.89" x2="109.1" y2="115.55"/><line class="cls-18" x1="104.75" y1="117.01" x2="110.66" y2="116.65"/><line class="cls-18" x1="106.62" y1="118.16" x2="112.68" y2="117.79"/><line class="cls-18" x1="108.49" y1="119.39" x2="114.55" y2="119.02"/><line class="cls-18" x1="82.36" y1="117.95" x2="87.83" y2="117.61"/><line class="cls-18" x1="83.21" y1="119.04" x2="89.11" y2="118.68"/><line class="cls-18" x1="85.1" y1="120.37" x2="91.16" y2="120"/><line class="cls-18" x1="86.46" y1="121.7" x2="92.52" y2="121.33"/><line class="cls-19" x1="111.98" y1="108.91" x2="112.15" y2="27.09"/><line class="cls-20" x1="148.48" y1="22.22" x2="149" y2="133.87"/><line class="cls-20" x1="144.89" y1="23.24" x2="145.41" y2="132.48"/><line class="cls-20" x1="140.77" y1="24.62" x2="141.27" y2="130.13"/><line class="cls-20" x1="133.56" y1="26.43" x2="134.03" y2="126.61"/><line class="cls-20" x1="137.1" y1="25.51" x2="137.58" y2="128.31"/><polygon class="cls-21" points="151.71 41.93 130.27 46.12 130.27 41.18 151.71 36.98 151.71 41.93"/><polygon class="cls-21" points="151.77 116.37 130.58 108.37 130.58 103.43 151.77 111.42 151.77 116.37"/><rect class="cls-10" x="129.94" y="42.92" width="0.67" height="7.39"/><rect class="cls-10" x="129.94" y="101.37" width="0.67" height="7.39"/><polygon class="cls-15" points="69.58 116.13 37 118.81 26.7 110.09 59.28 107.8 69.58 116.13"/><polygon class="cls-7" points="37.65 122.11 26.7 113.83 26.7 110.14 37.65 118.42 37.65 122.11"/><path class="cls-22" d="M47.79,96.78c-8.09,0-14.65,1.19-14.65,3.74a2.18,2.18,0,0,0,.9,1.6c.19,1.71.67,4,.9,5.66.06.43.63,3.26.63,3.26a20,20,0,0,0,10.3,3.14,39.8,39.8,0,0,0,7.79-.41,21.15,21.15,0,0,0,3.78-.87c.6-.21,2.62-1.06,2.72-1.8l1.2-8.83a2.32,2.32,0,0,0,1.09-1.75C62.45,98,55.89,96.78,47.79,96.78ZM35.84,103.2v0l0,0Z"/><path class="cls-23" d="M60.8,100.53c0,1.79-5.82,3.23-13,3.23s-13-1.44-13-3.23,5.82-2.79,13-2.79S60.8,98.75,60.8,100.53Z"/><path class="cls-23" d="M34.3,102.58s4.46,3.16,13.41,3c8.43-.11,13.45-3.15,13.45-3.15s-3.16,4-13.45,4.19S34.3,102.58,34.3,102.58Z"/><polygon class="cls-6" points="69.58 119.81 37.65 122.11 37.65 118.42 69.58 116.13 69.58 119.81"/><polygon class="cls-6" points="69.58 143.14 67.61 143.45 67.61 118.68 69.58 119.45 69.58 143.14"/><polygon class="cls-7" points="67.61 143.45 66.63 142.09 66.63 120.03 67.61 119.95 67.61 143.45"/></g><g id="Layer_2" data-name="Layer 2"><path class="cls-24" d="M49.69,98.84a11.89,11.89,0,0,1,.66,1.28.21.21,0,0,1-.08.19.3.3,0,0,1-.19,0,1.15,1.15,0,0,1-.82-.6c-.2-.27-.38-.55-.55-.83a2.29,2.29,0,0,0-.68-.67c-.56-.42-1.14-.82-1.74-1.19a14.47,14.47,0,0,1,3.31,3.45c.1.14.2.33.1.46a.29.29,0,0,1-.33.08.94.94,0,0,1-.29-.2l-1.29-1.24c-.64-.61-1.53-1-2.18-1.58a33.08,33.08,0,0,1,3.14,2.89.38.38,0,0,1,.15.28.27.27,0,0,1-.18.21.72.72,0,0,1-.62-.15,11.65,11.65,0,0,1-1.48-1.14l-1.57-1.31a2.86,2.86,0,0,1,1.23,2,.3.3,0,0,1,0,.21c-.09.13-.29.1-.42,0-.41-.26-.49-.82-.8-1.2a4.24,4.24,0,0,0-.62-.5c-.17-.14-.31-.31-.5-.44a10.86,10.86,0,0,0-1.27-.65,3.16,3.16,0,0,1-1-.73,3.63,3.63,0,0,1-.49-1c-.28-.63-.78-.82-1.37-1.12s-1.26-.63-1.9-.91a3.84,3.84,0,0,1-.53-.28A1.87,1.87,0,0,1,37,92.45a2.5,2.5,0,0,1,1.86-1.67.45.45,0,0,1,.16,0,2.79,2.79,0,0,1,.33.19c.54.44,1,1,1.56,1.42s1.1.83,1.66,1.25l.14.08a.41.41,0,0,0,.16,0,8.43,8.43,0,0,1,2.13.13,11.69,11.69,0,0,1,3.53,1.72c.09.05.19.13.19.24s-.06.16-.14.22c-.52.36-1.07,0-1.56-.21a.45.45,0,0,0-.39,0c.16.11.29.3.44.42l.2.16.41.33c.27.22.54.45.79.69A8,8,0,0,1,49.69,98.84Z"/><path class="cls-24" d="M26,70.58c-.39,3.6,1.81,15.27,2.38,16.35,1.74,3.25,12.93,9.61,12.93,9.61l2.36-1.88L34.33,84.15,34.22,71.5"/><path class="cls-24" d="M22.53,141.92a2.21,2.21,0,0,1-.29-.13A5.48,5.48,0,0,0,19.51,144a35.75,35.75,0,0,0,4.49-.18c.85,0,.72-.73.46-1.06A6.06,6.06,0,0,0,22.53,141.92Z"/><path class="cls-24" d="M21.28,142.09,21,141.8c-1.37-2-2.7-1.75-1.75-4.25s4.53-7.63,4.53-7.63l-6.28-2.08s-2.33,6.61-2.3,7.33a4.37,4.37,0,0,1-1.32,2.71,3.86,3.86,0,0,0-1.17,2.47c0,.59.65,1,1.68,1.41A33.85,33.85,0,0,1,18,144,6.45,6.45,0,0,1,21.28,142.09Z"/><path class="cls-25" d="M19.5,143.9a5.18,5.18,0,0,1-.53-.14c-2.19-.64-4.19-1.34-6.55-2-.29-.08-.49.93,0,1.07,2.14.65,4,1.13,6.18,1.77.35.1.59,0,1,.12Z"/><path class="cls-25" d="M19.57,143.71h4.77a.35.35,0,0,1,.35.35v0a.6.6,0,0,1-.6.6H19.82a.6.6,0,0,1-.6-.6v0a.35.35,0,0,1,.35-.35Z" transform="translate(-3.95 0.66) rotate(-1.57)"/><path class="cls-25" d="M22.53,141.92a4.89,4.89,0,0,0-2.87,2l-2.84-.51s2-2.88,4.61-2.65A4.54,4.54,0,0,1,22.53,141.92Z"/><path class="cls-24" d="M29,129s-2.22,5.82-2.54,8.5.9,2.06,2.72,3.7a14.22,14.22,0,0,0,2,1.22,5.84,5.84,0,0,1,1.91.84c.26.33.38,1-.48,1a28.16,28.16,0,0,1-4.79,0c-1.08-.27-3.93-1.44-5-1.59s-1.8-.39-2-1a3.89,3.89,0,0,1,.53-2.68,4.41,4.41,0,0,0,.63-2.95c-.21-.69.45-7.67.45-7.67Z"/><path class="cls-25" d="M28.06,144.34l-.54-.13c-2.19-.64-4.19-1.34-6.55-2-.29-.07-.48.94,0,1.07,2.15.66,4,1.13,6.18,1.76a8,8,0,0,0,.95.12Z"/><path class="cls-25" d="M28.14,144.18h4.77a.35.35,0,0,1,.35.35v0a.6.6,0,0,1-.6.6H28.4a.6.6,0,0,1-.6-.6v0a.35.35,0,0,1,.35-.35Z" transform="translate(-1.22 0.26) rotate(-0.48)"/><path class="cls-25" d="M31.29,142.35s-2.31.21-3,2.1l-1.93-.54a3.66,3.66,0,0,1,3.11-2.65A8.62,8.62,0,0,1,31.29,142.35Z"/><path class="cls-26" d="M31.4,60.28a5,5,0,0,1-.53-3.74c.49-2.27,3.24-1.78,3.24-1.78L32.57,59Z"/><path class="cls-24" d="M32.28,58.9s-2.88,4.63-3.73,5.16c-.29.17-1.63,1.14-1.63,1.14l1.87,1.29c1.32,1.07,4.27,6.34,6,6.53l-.16-2a36.83,36.83,0,0,1-.39-3.76c.1-.39,1.65-2.9,1.65-2.9"/><path class="cls-27" d="M34.93,65.93s.39,0,0-.37-1.1-.65-2.21-3.29a3.59,3.59,0,0,0,1.34,3.62,2.09,2.09,0,0,0,.58.46Z"/><path class="cls-24" d="M44.16,55v0Zm.89.81a.19.19,0,0,1,0,.07l0,0S45.06,55.74,45.05,55.76ZM32.51,62.09a6.7,6.7,0,0,0,2.79,4.3,4.16,4.16,0,0,0,2.23.5,9.74,9.74,0,0,0,2.18-1,4.87,4.87,0,0,0,1.8-1,4.76,4.76,0,0,0,1-1.8,7.28,7.28,0,0,1,.63-1.13c.24-.34,1.23-1.65,1.76-2.46a5.79,5.79,0,0,0,.44-2.59,1.81,1.81,0,0,0,.05-.73l-.1-.06a.11.11,0,0,1,0,.12,1,1,0,0,1-.25-.37h0a.45.45,0,0,1-.34-.36s0,.08,0,.09a.55.55,0,0,1-.31-.37s0,.09,0,.11a1.09,1.09,0,0,1-.23-.33s.6.29.6.31c-.16-.07,0,.08-.08-.11L44.62,55c-.13-.05-.17,0-.22-.12a1.19,1.19,0,0,0,.07-.27c-.14-.08-.1-.07-.18-.21,0,0-.48-.1-.5-.07s-.15,0-.19-.09c0,0,.14,0,.15,0-.16-.06-.27,0-.32-.19,0,0-.33-.53-.33-.53-.16-.07-.17,0-.23-.17,0,.08-.65-.45-.65-.39s0,.59-.09.46c0,0-.24-.23-.24-.23s0,.17-.07,0c0,0,0,.1,0,.12A.57.57,0,0,1,41.4,53c0,.08,0,.13,0,.17s-.23-.11-.3-.27c0,0,0,.12,0,.13a.56.56,0,0,1-.36-.28.36.36,0,0,0,0,.14.41.41,0,0,1-.26-.22v.13c-.09-.06-.19-.06-.31-.19,0,0,0,.07,0,.09a1.19,1.19,0,0,1-.23-.16s0,.11,0,.09-.2-.06-.29-.17,0,.09,0,.13a.8.8,0,0,1-.28-.2.23.23,0,0,0,0,.12c-.09-.06-.19-.06-.29-.18a.32.32,0,0,0,0,.13,1.46,1.46,0,0,1-.29-.17s0,.07,0,.11a1.27,1.27,0,0,1-.3-.21s0,.08,0,.1-.1-.1-.18-.14l-.14,0c-.61.24-1.49,1.74-1.49,1.74a3.8,3.8,0,0,0-2.37,1.63,18.47,18.47,0,0,0-.71,1.79,5,5,0,0,1-.06-.94c0-.2,0-.89,0-1.09,0-.49-.36-.15-.76-.09l-.52-.11c-.67.28-.78,2.24-.79,2.87-.49,1,.06,1.6.93,1.59l-.29-.08"/><path class="cls-28" d="M35.42,49.77a12.76,12.76,0,0,1,5.9,2.56c2.84,2.22,4,3.86,3.71,5.5a14.69,14.69,0,0,1-1.78,4s-.69.41,1.49-2c3.17-3.43,1.1-9.57.11-10.17S39.5,46.25,35.42,49.77Z"/><path class="cls-28" d="M34.62,48.49s1.38-3.38,3.86-2.67,7.54,1.91,7.14,5.52Z"/><path class="cls-29" d="M30.84,55.1c-.08-.36.36-1,.32-1.32a3.25,3.25,0,0,1,1.76-3.33c.37-.24.49-1,.68-1.24,1-1.48,1.78-1.53,5-1.72a9.11,9.11,0,0,1,5.72,1.88c1.8,1.23,2.55,1.84,2.4,3.55,0,.23-.2.31-.25.56s.36.67.21,1.08c0,0-3-.48-5.68-.62s-9.62,2-10.24,3.21A16.1,16.1,0,0,0,30.84,55.1Z"/><path class="cls-28" d="M31.94,51.66s6.07-2.25,9.93,0c0,0-4.52-3.61-8.85-1.39l-.13.11a3.77,3.77,0,0,0-.91,1Z"/><path class="cls-26" d="M35.09,55l-1.36,2.28-.21-1.74S34.63,55.19,35.09,55Z"/><path class="cls-30" d="M33,57.33c-.13-.09-.33-.14-.42,0a2.73,2.73,0,0,0-.1.48.3.3,0,0,1-.12.19c-.1.06-.15-.05-.17-.14a1,1,0,0,1,.12-.78c.11-.19.33-.48.58-.45.06,0,.12-.08,0-.09a.77.77,0,0,0-.64.39,1.43,1.43,0,0,0-.14.2,1.21,1.21,0,0,0-.11.49c0,.22.07.6.36.45s.21-.29.24-.47a.68.68,0,0,1,.07-.27c0-.07.14,0,.2,0s.15,0,.09-.06Z"/><path class="cls-28" d="M33.62,53.47A9.27,9.27,0,0,0,31,54.54l.16-.62A3.29,3.29,0,0,1,33.62,53.47Z"/><path class="cls-31" d="M39.3,62.93a.79.79,0,0,1-.61-.42s-.17-.1-.14,0a1.14,1.14,0,0,0,.84.56s0,0,0,0a.21.21,0,0,0-.1-.06"/><path class="cls-31" d="M38.51,62.38a1.48,1.48,0,0,0-.33-.33.07.07,0,0,0-.07,0s0,0,0,0a.52.52,0,0,0,.18.18s.06,0,.08,0,0,0,0,0a.54.54,0,0,1-.15-.15l-.08,0a1.18,1.18,0,0,1,.29.3s.05,0,.07,0,.05,0,0,0"/><path class="cls-31" d="M38,62.07a.66.66,0,0,1-.3-.44.52.52,0,0,1,.53-.46s0,0,0,0a.14.14,0,0,0-.09,0,.64.64,0,0,0-.56.34.51.51,0,0,0,.18.53l.16.13s.07,0,.09,0,0,0,0,0"/><path class="cls-31" d="M39.63,63a0,0,0,0,1,0,0,.23.23,0,0,0,.14,0l0,.07a.8.8,0,0,0-.3-.06.07.07,0,0,1-.05,0s0,0,0,0"/><path class="cls-31" d="M39.5,63a.62.62,0,0,1,.33.07.05.05,0,0,1,0,0s0,0,0,0"/><path class="cls-31" d="M39.94,63.25a.37.37,0,0,0,.39,0,.53.53,0,0,0,.18-.57,0,0,0,0,1,0,0,.07.07,0,0,1,0,.05.57.57,0,0,1-.09.53.42.42,0,0,1-.42.16l-.13,0s0,0,0-.06,0,0,0,0"/><path class="cls-26" d="M42.73,60.81a.46.46,0,0,1,.36.31.42.42,0,0,1,0,.21.37.37,0,0,1-.27.27.36.36,0,0,1-.41-.16.4.4,0,0,1,.07-.52.36.36,0,0,1,.27-.11"/><path class="cls-26" d="M41.35,60.56a4.15,4.15,0,0,1,1.4.1,1.33,1.33,0,0,1,.82,1,2.23,2.23,0,0,0-.75-.83A7.71,7.71,0,0,0,41.35,60.56Z"/><path class="cls-26" d="M38.56,58.32a.54.54,0,0,0-.45-.24.4.4,0,0,0-.2.1.41.41,0,0,0-.11.36.38.38,0,0,0,.33.3.43.43,0,0,0,.43-.31s.07-.07,0-.19"/><path class="cls-26" d="M39.28,59.22a4.14,4.14,0,0,0-.81-1.15,2.15,2.15,0,0,0-1.67-.26,4.2,4.2,0,0,1,1.47.3A6.94,6.94,0,0,1,39.28,59.22Z"/><path class="cls-26" d="M42.2,59.18l.15-.31a7.22,7.22,0,0,1,1.67.86,2.08,2.08,0,0,1,.21.21.08.08,0,0,0,0,.05l-.12.39a1.92,1.92,0,0,0-.38-.36,3,3,0,0,0-.85-.37c-.2-.07-.46-.15-.78-.23Z"/><path class="cls-26" d="M40.26,57.44l-.18.3-.14.22c-.23-.23-.44-.41-.6-.55a3.3,3.3,0,0,0-.75-.53,3.37,3.37,0,0,0-.59-.16,1.34,1.34,0,0,0-.34,0c-.26,0-.42.1-.44.07s.1-.12.11-.13a1.29,1.29,0,0,1,.7-.26,1.88,1.88,0,0,1,.63.09,6.92,6.92,0,0,1,1.6,1"/><path class="cls-32" d="M38,63.64c-.77-.47-2-1.32-2-1.32a2.43,2.43,0,0,0,4,2.45S38.71,64.11,38,63.64Z"/><path class="cls-33" d="M38,63.64c-.36-.22-1.8-1.18-1.8-1.18a2.41,2.41,0,0,0,1.3,1.94,2.32,2.32,0,0,0,2.36.3Z"/><path class="cls-34" d="M37.93,63.71c-.36-.22-1.44-1-1.44-1s.15.66,1.25,1.33,1.69.47,1.69.47Z"/><path class="cls-32" d="M40.17,64.7a3.38,3.38,0,0,1-.46-.21c-.29-.22-.43-.41-.64-.56a3.44,3.44,0,0,0-.85-.35c-.16-.1-.3-.4-.7-.59-.23-.12-.82-.37-1.14-.52a3.85,3.85,0,0,1-.4-.31c-.07,0-.21.45,1.84,1.7S40.22,64.75,40.17,64.7Z"/><path class="cls-24" d="M31.87,72v-.12s-.87-.78-1-.89-1.39.29-1.39.29l-.85,1.52,1,.61a2,2,0,0,0,.61.3,2.28,2.28,0,0,0,.68.13.29.29,0,0,0,.29-.29c.44,0,.31-.32.31-.32.48-.1.26-.43.26-.43s.3,0,.34-.24a.93.93,0,0,0-.2-.57"/><path class="cls-27" d="M30.06,72.34a1,1,0,0,0,.38-.11.54.54,0,0,0,.28-.36v-.08l.06.06.05.06a1,1,0,0,0,.45.25.55.55,0,0,0,.4,0,.28.28,0,0,0,.17-.2c0-.07,0-.11,0-.11a.16.16,0,0,1,0,.11.32.32,0,0,1-.17.25.64.64,0,0,1-.45,0,1,1,0,0,1-.48-.26s-.05,0-.06-.06l.07,0a.59.59,0,0,1-.33.41.91.91,0,0,1-.41.09,1.22,1.22,0,0,1-.27,0,.26.26,0,0,1-.1,0S29.83,72.36,30.06,72.34Z"/><path class="cls-27" d="M31.58,72.76a1.18,1.18,0,0,0-.29-.16.46.46,0,0,0-.44,0,.28.28,0,0,0-.11.22.36.36,0,0,0,.11.26.69.69,0,0,0,.13.11l.32.23-.36-.16a.64.64,0,0,0-.49-.08.33.33,0,0,0-.16.13.25.25,0,0,0,0,.17.5.5,0,0,0,.16.22l.08.07-.09,0a.47.47,0,0,1-.2-.22.24.24,0,0,1,0-.22.35.35,0,0,1,.19-.17.76.76,0,0,1,.55.08l0,.07a.93.93,0,0,1-.15-.13.44.44,0,0,1-.13-.31.36.36,0,0,1,.15-.28.5.5,0,0,1,.27-.08.59.59,0,0,1,.23.05,1.12,1.12,0,0,1,.29.19.32.32,0,0,1,.08.09Z"/><path class="cls-27" d="M31.31,72.52a.36.36,0,0,1-.11-.26s0,0,0-.07h-.07a.29.29,0,0,0,0,.09.42.42,0,0,0,.12.3.73.73,0,0,0-.36,0,.41.41,0,0,0-.2.17.28.28,0,0,0,0,.22.45.45,0,0,0,.2.23l.1,0-.08-.07a.43.43,0,0,1-.17-.21.22.22,0,0,1,0-.18.33.33,0,0,1,.16-.13.74.74,0,0,1,.51.07l.35.16-.31-.23Z"/><path class="cls-24" d="M30.88,76.26a17.89,17.89,0,0,1-4.61-1.61c-2.14-1.26-3.56-3.76-3.84-4l3.16-2.34,2.82,3.54,3.38,2.68Z"/><path class="cls-35" d="M24.67,68l-1.23,4.36.2-.12S24.9,69.11,24.67,68Z"/><path class="cls-36" d="M36.31,77.6l-3.15-9.3A8.46,8.46,0,0,0,29,64.12a2.29,2.29,0,0,0-.59-.27l-.06,0-.08,0s-.81.46-.89.49h0a10.11,10.11,0,0,0-4.32,4.22c-.44,1-1.07,2.53-1.75,4.3V72.8l-.67,1.82c-.76,2-1.52,4.08-2.13,5.75l-3.93,2.1-4,5.26,1.46,3.61,11.84,7L30.09,88a18,18,0,0,1,2.33-2.2c1-.7,3.63-2.74,4.09-4S36.31,77.6,36.31,77.6Z"/><path class="cls-37" d="M29.65,75.78a3.81,3.81,0,0,0-4-.9"/><path class="cls-24" d="M24.09,72.89C24,76.51,27.05,88,27.7,89c2,3.11,13.62,8.6,13.62,8.6l2.21-2L33.39,85.79,32.32,73.18"/><path class="cls-36" d="M23.78,77.79l9.49-.3s.44-6.2-1.36-9.1-4.42-3.28-6.08-2.33S22.8,71.7,23.78,77.79Z"/><path class="cls-38" d="M31.42,68.59a5.14,5.14,0,0,0-2.28-2.17,3.7,3.7,0,0,0-2.43-.29,3.18,3.18,0,0,0-.9.35,3,3,0,0,0-1,1.21s0,0,.07-.06a3.24,3.24,0,0,1,3.26-1.21,7.38,7.38,0,0,1,2,1,5.5,5.5,0,0,1,.73.63c.1.1.18.22.28.32s.33.19.35.25Z"/><path class="cls-38" d="M32.52,70.35s-.08,0-.12,0a28.08,28.08,0,0,1,.7,3.4,18.68,18.68,0,0,1,0,2.8s0,.63,0,.63L24,77.58A18.06,18.06,0,0,1,24.24,71c.09-.36.19-.72.31-1.07a4.29,4.29,0,0,1-.4.58,3,3,0,0,0-.31.69,7.37,7.37,0,0,0-.26,1.45,18.1,18.1,0,0,0-.08,3.12c0,.67.11,1.33.21,2l0,.19,9.59-.47,0-.2a15.09,15.09,0,0,0,0-3.29,18.76,18.76,0,0,0-.52-2.82A4,4,0,0,0,32.52,70.35Z"/><path class="cls-39" d="M33.14,111.73c-1-2.5-1.85-3.61-5.56-7.68-1.26-1.39-2-2.53-3.08-3.83l-.33-.38c.16,0,.26.06.29,0a19.3,19.3,0,0,0,1.43-5l.38.08-.37-.25h0c0-.07-.15-.15-.38-.26-2.85-1.93-12.76-8.63-13.29-8.77S4.52,91.8,4.35,93.14h0a4.05,4.05,0,0,0-.45.66c-1.41,2.67-2.64,8.16.24,11.94,1.92,2.52,8.21,8.19,10.66,9.15l1.19.84a21,21,0,0,1-1.94,6.78c-1.67,3.09-4,9-4,9l5,2.16a25.55,25.55,0,0,0,9.4,2.08l5.29.15s2.36-12.76,3.2-14.42C33.46,120.44,34.09,114.22,33.14,111.73Z"/><path class="cls-27" d="M43,95.06l-9.56-9.27-.06-.63.21-.23v.74l9.52,9.27a13.54,13.54,0,0,1,2.31.31,4.86,4.86,0,0,1,1,.61h-.19l-3.2-.8"/><path class="cls-40" d="M38.18,102.4a3.5,3.5,0,0,1,3.15-.24,5.35,5.35,0,0,0,.86.35c.79.18,1.58-.27,2.39-.35,1.16-.12,2.26.51,3.42.6,1.43.1,2.77-.62,4.16-1a7.75,7.75,0,0,1,5.58.8s-6.63,1.55-11.61,1.13a78.52,78.52,0,0,1-8-1"/><rect class="cls-41" x="42.61" y="95.86" width="7.65" height="5.01" rx="1.41"/><path class="cls-24" d="M48.69,100.53l-.57-.41c-.27-.19-.54-.37-.82-.54l-1.78-1.46.09-.08s1.39.84,2.57,1.72c.21.15,1,.86,1.25.55s-1.14-1.45-1.4-1.67l-.15-.1-1-.74-.49-.35a.93.93,0,0,1-.15-.13.55.55,0,0,0-.14-.12l-.1-.1c.47.09.82.46,1.28.57a.9.9,0,0,0,.8-.22.2.2,0,0,0,.08-.2c0-.15-.36-.25-.48-.32s-.39-.26-.58-.4c-.36-.26-.71-.54-1.08-.79a3.15,3.15,0,0,0-.57-.31,4.77,4.77,0,0,0-.65-.17c-.36-.07-.73-.1-1.09-.16a7.34,7.34,0,0,1-.93-.1,8.87,8.87,0,0,1-1.46,1.28l-.33.27-.12.11-.12.13a.86.86,0,0,1-.07.1,2.75,2.75,0,0,0,.15.25c.2.3.38.61.57.91l1,1.57a1.94,1.94,0,0,0,.23.33,4.48,4.48,0,0,0,.58.48c.2.16.38.34.58.51a6.52,6.52,0,0,0,1.82.93.88.88,0,0,0,.35.1c.1,0,.21,0,.23-.14a.22.22,0,0,0,0-.19c-.24-.43-.83-.59-1.26-.78l-.1-.11-.49-.51L44,100l-.1-.11a.23.23,0,0,1,0-.09s.08-.08.06-.09l.59.47.48.38a1.3,1.3,0,0,0,.23.18s.55.27,1.78.81c.22.1.77.39,1,.26s-.19-.57-.34-.67-.49-.28-.73-.42l-1-.55-.48-.43L45,99.3l-.17-.15s-.11-.08-.11-.11,0,0,0,0,0,0,0-.08c.22.13.43.32.64.47l.75.56c.44.26.88.49,1.34.71a4.36,4.36,0,0,0,1,.39c.16,0,.3,0,.38-.13S48.83,100.64,48.69,100.53Z"/><circle class="cls-40" cx="48.82" cy="96.11" r="0.82"/><circle class="cls-40" cx="45.06" cy="100.63" r="0.82"/><circle class="cls-40" cx="50.35" cy="102.46" r="0.82"/><circle class="cls-40" cx="50.26" cy="95.29" r="0.42"/><circle class="cls-40" cx="40.6" cy="99.61" r="0.42"/><circle class="cls-40" cx="46.44" cy="101.45" r="0.42"/><circle class="cls-40" cx="45.48" cy="102.02" r="0.42"/><circle class="cls-40" cx="49.31" cy="93.94" r="0.27"/><polyline class="cls-42" points="24.43 99.99 21.54 97.8 24.47 100.33 24.43 99.99"/><polyline class="cls-42" points="15.95 115.72 18.13 114.52 16.47 115.72 18.24 115.86 15.95 115.86"/></g></svg>