<svg xmlns="http://www.w3.org/2000/svg" xmlns:xlink="http://www.w3.org/1999/xlink" viewBox="0 0 165.86 165.86"><defs><style>.cls-1{fill:none;}.cls-2{clip-path:url(#clip-path);}.cls-3{fill:#d7eff3;}.cls-4{fill:#c95744;}.cls-5{fill:#956243;}.cls-6{fill:#4f2e25;}.cls-7{fill:#b15e27;}.cls-8{fill:#df8c26;}.cls-9{fill:#ce8d2a;}.cls-10{fill:#13110f;}.cls-11{fill:#231f20;}.cls-12{fill:#010101;}.cls-13{fill:#653c29;}.cls-14{fill:#31160e;}.cls-15{fill:#f1eef7;}.cls-16{fill:#bcab31;}.cls-17{fill:#9b8b32;}.cls-18{fill:#642b11;}.cls-19{fill:#8e6244;}.cls-20{fill:#fff;}</style><clipPath id="clip-path"><rect class="cls-1" x="-0.23" y="-1.62" width="165.33" height="166.72"/></clipPath></defs><g id="Layer_3" data-name="Layer 3"><g class="cls-2"><circle class="cls-3" cx="82.93" cy="82.93" r="79.47"/><path class="cls-4" d="M115.69,78.12l-9.41,28.58L72,113.1s1.67,8.84.83,12.45c0,0,41.12-.9,45.84-3.46s12-24.31,12-24.31L117.29,77.9A.9.9,0,0,0,115.69,78.12Z"/><path class="cls-5" d="M112,44.41s6.08,10.11,8.82,11.43l4.91,2.3-5.77,7a34.5,34.5,0,0,1-15.09,8.2l-1.4,1.42s1.38-5.66,1-6.78-5.88-8.19-5.88-8.19"/><path class="cls-6" d="M102.15,64.89a18.92,18.92,0,0,1,2.3-3.09c1.06-1,3.25-2.1,6.34-10.2a12.88,12.88,0,0,1-4.91,12.57,7.76,7.76,0,0,1-2.81,1.74Z"/><path class="cls-5" d="M77.25,29.16a.88.88,0,0,1,0,.17l.06-.1Zm-2.92,2.53,0,.06a1.8,1.8,0,0,0,.08-.21C74.41,31.47,74.33,31.69,74.33,31.69Zm38.15,13.16-.2-1.37c2.6.2,4.36-1.56,3-4.64.1-1.91-1.23-7.46-3.22-8.41l-.26-.15c-1.19-.26-2.89.2-3,1.67,0,.61.51,1.15.54,1.76a14.65,14.65,0,0,1-.33,2.84,35.56,35.56,0,0,1-2.51-4c-.63-1.36-3.56-4.7-6.9-5.33,0,0-2.39-4.69-4.18-5.51l-.46.06c-.22.12-.34.27-.56.39,0-.07,0-.18-.08-.32a2.71,2.71,0,0,1-.94.59c0-.1.15-.25.11-.32a4.32,4.32,0,0,1-.9.48.92.92,0,0,0,.08-.4c-.31.34-.61.32-.91.48a.55.55,0,0,0,0-.36,2.22,2.22,0,0,1-.87.55c0-.11,0-.28.08-.39-.3.34-.6.32-.9.48-.08,0,.07-.22,0-.29a3.3,3.3,0,0,1-.72.47c0-.07.07-.22,0-.29-.38.38-.68.36-1,.52l.08-.39a1.26,1.26,0,0,1-.83.62c0-.11.12-.33.08-.4A1.68,1.68,0,0,1,86.7,24c.08,0,.12-.33.08-.4-.23.48-.57.57-.94.77,0-.11,0-.29.11-.51a1.73,1.73,0,0,1-1.32,1c.07,0,0-.28,0-.35-.15.43.23-.21-.18-.08,0,0-.73.74-.76.67-.2.37.17-1.6-.21-1.4,0-.18-2.1,1.28-2,1.06-.23.48-.23.29-.72.46,0,0-1.13,1.67-1.09,1.56-.2.55-.52.35-1,.52,0-.11.42.14.46,0-.15.44-.24,0-.61.24,0-.07-1.48.21-1.52.14-.26.41-.13.37-.58.61,0-.07.12.92.16.81-.15.44-.26.2-.68.33l-.23.46c-.2.55.24.12-.25.29,0,0,1.82-.69,1.84-.82a2.87,2.87,0,0,1-.74,1c0-.07,0-.25-.07-.32a1.73,1.73,0,0,1-1,1.06c.07,0,.08-.22,0-.29-.2.55-.54,1-1.1,1h0a2.67,2.67,0,0,1-.79,1.06.35.35,0,0,1,0-.36l-.3.16a5.36,5.36,0,0,0,0,2.22s-.53,5.38.91,7.91,4.22,6.65,4.89,7.72A27.05,27.05,0,0,1,80.79,54a12.12,12.12,0,0,0,3,4.93,16.3,16.3,0,0,0,5.08,4,37.2,37.2,0,0,0,7.7,2.73,8.2,8.2,0,0,0,5.54-.3c4.8-2.27,7.76-7.91,9.16-12.51"/><path class="cls-7" d="M104.57,15.1A38.76,38.76,0,0,0,86.3,21.8c-8.94,6.24-12.72,11-12.14,16s4.7,12.34,4.7,12.34,2,1.36-4.18-6.14c-9-10.92-1.67-29.12,1.43-30.76S92.86,3.76,104.57,15.1Z"/><path class="cls-7" d="M105.52,11S101.93.48,94.32,2.21,72.9,7.11,73.48,18.09Z"/><path class="cls-8" d="M115.7,32.22c.32-1.06-.92-2.95-.74-4a10.85,10.85,0,0,0-4.65-11c-1.07-.77-1.3-3-1.84-3.86-2.79-4.65-3.42-4.5-13.13-5.64-7.9-.92-14.08,2.58-17.61,4.7-5.65,3.4-8,5.12-7.86,10.32,0,.68.53,1,.66,1.73.17,1.08-1.22,1.94-.84,3.23,0,0,9-1,17.28-.9s26.7,7.42,28.36,11.68C115.39,38.55,115.34,33.4,115.7,32.22Z"/><path class="cls-7" d="M114.07,21.47S95.92,13.76,83.86,20c0,0,14.29-10.14,27-2.68l.4.36a12.14,12.14,0,0,1,2.57,3.3Z"/><path class="cls-7" d="M70.44,24.65l.66-.74a23.86,23.86,0,0,1,5.21-4.39l3.25-2s-8.9,2.89-9.62,5.92Z"/><path class="cls-9" d="M113.27,42a1.56,1.56,0,0,1,2,1,1.68,1.68,0,0,1,0,1.13,2,2,0,0,1-.36.44,1.42,1.42,0,0,1-1.13.39.4.4,0,0,0-.26.06c0,.05-.05.11,0,.12a2.12,2.12,0,0,0,2-1,1.61,1.61,0,0,0,.14-1.12,1.71,1.71,0,0,0-.86-1.12,2,2,0,0,0-1.71-.05S113,42,113,42s.19,0,.23,0Z"/><path class="cls-10" d="M105,31.6l4,6.54.79-4.24S106.39,32.25,105,31.6Z"/><path class="cls-11" d="M110.71,37.15c.18-.09.47-.26.64-.06a1.36,1.36,0,0,1,.18.66c0,.51,0,1.17.46,1.54a.71.71,0,0,0,.81.14,1.34,1.34,0,0,0,.53-1,3.46,3.46,0,0,0-.46-2.33c-.41-.68-1.07-1.5-2-1.44-.2,0-.28.28,0,.26.71,0,1.27.74,1.61,1.27a3.18,3.18,0,0,1,.48,2.17c0,.2-.13.88-.43.86s-.41-.28-.48-.47a13.18,13.18,0,0,1-.25-1.53.64.64,0,0,0-.37-.47,1.2,1.2,0,0,0-.9.17c-.22.12,0,.31.16.21Z"/><path class="cls-7" d="M107.49,26.35s6.6,2.14,7.85,3.71L115,28.17A10,10,0,0,0,107.49,26.35Z"/><path class="cls-12" d="M92.73,52.92a2.42,2.42,0,0,0,1.9-1.17c.08-.14.54-.29.42-.09a3.44,3.44,0,0,1-2.61,1.55c-.1,0-.11-.06,0-.14a.55.55,0,0,1,.33-.15"/><path class="cls-12" d="M95.21,51.38a4,4,0,0,1,1.05-1,.34.34,0,0,1,.22,0s.08,0,0,.1a1.53,1.53,0,0,1-.59.51.28.28,0,0,1-.25,0c-.06,0,0-.11,0-.14a1.17,1.17,0,0,0,.47-.41l.27.06a3.47,3.47,0,0,0-.94.85.25.25,0,0,1-.23.09c-.06,0-.14,0-.09-.1"/><path class="cls-12" d="M96.9,50.55a1.93,1.93,0,0,0,1-1.29,1.55,1.55,0,0,0-1.53-1.48c-.09,0-.08-.07,0-.12a.44.44,0,0,1,.29-.08,1.9,1.9,0,0,1,1.62,1.12,1.5,1.5,0,0,1-.62,1.57,3,3,0,0,1-.5.36c-.07,0-.22.09-.29,0s0-.1.06-.13"/><path class="cls-12" d="M91.7,53.15a.07.07,0,0,0-.11-.06.64.64,0,0,1-.45.08c0,.07,0,.15,0,.23a1.9,1.9,0,0,1,.92-.14c.06,0,.12,0,.14-.11s0-.12,0-.13"/><path class="cls-12" d="M92.11,53a2.17,2.17,0,0,0-1,.16.17.17,0,0,0-.1.13.07.07,0,0,0,.05.1"/><path class="cls-12" d="M90.71,53.76a1.15,1.15,0,0,1-1.16-.14,1.62,1.62,0,0,1-.45-1.77.07.07,0,0,0-.08-.09.2.2,0,0,0-.14.14,1.85,1.85,0,0,0,.18,1.61,1.26,1.26,0,0,0,1.25.57,1.14,1.14,0,0,0,.4-.11.18.18,0,0,0,.11-.16c0-.07-.06-.07-.11-.05"/><path class="cls-10" d="M82.19,46.09a1.32,1.32,0,0,0-1.13.85,1.23,1.23,0,0,0,0,.65,1.21,1.21,0,0,0,.78.86A1.16,1.16,0,0,0,83.12,48a1.29,1.29,0,0,0-.14-1.6,1.11,1.11,0,0,0-.79-.35"/><path class="cls-10" d="M86.94,45.4s-3.07-.43-4.26.07a6.49,6.49,0,0,0-3.49,3.71s2-2.69,3.25-3.17A23,23,0,0,1,86.94,45.4Z"/><path class="cls-10" d="M95.48,39.17a1.59,1.59,0,0,1,1.41-.64,1.18,1.18,0,0,1,.59.32A1.26,1.26,0,0,1,97.75,40a1.17,1.17,0,0,1-1.06.82,1.29,1.29,0,0,1-1.25-1c0-.1-.18-.21.06-.57"/><path class="cls-10" d="M93.42,41.7S95,39,96.07,38.37a6.53,6.53,0,0,1,5.08-.5s-3.37,0-4.5.64A22.29,22.29,0,0,0,93.42,41.7Z"/><path class="cls-10" d="M84.18,40.12c.15.32.29.64.43,1s.21.48.32.73c-1,.19-1.8.39-2.41.56a8.88,8.88,0,0,0-2.62,1,7.65,7.65,0,0,0-1.4,1.18,5.87,5.87,0,0,0-.67.79c-.42.67-.46,1.22-.58,1.23s-.13-.46-.13-.5a4,4,0,0,1,.55-2.19A5.21,5.21,0,0,1,79,42.44a20.22,20.22,0,0,1,5.18-2.32"/><path class="cls-10" d="M90.75,36.16c.16.31.33.62.5.93l.38.7c.75-.66,1.42-1.18,1.93-1.56a8.75,8.75,0,0,1,2.36-1.48,8,8,0,0,1,1.8-.38,5.19,5.19,0,0,1,1,0c.78.07,1.25.38,1.32.29s-.27-.38-.31-.41a4,4,0,0,0-2.07-.91,5.55,5.55,0,0,0-1.94.18,20.68,20.68,0,0,0-5,2.68"/><path class="cls-13" d="M95.92,55.22c2.41-1.28,6.15-3.64,6.15-3.64a7.34,7.34,0,0,1-12.61,6.69S93.52,56.49,95.92,55.22Z"/><path class="cls-14" d="M95.9,55.23c1.15-.61,5.65-3.26,5.65-3.26s-.13,3.44-4.27,5.64c-4.48,2.38-7.18.49-7.18.49Z"/><path class="cls-15" d="M96,55.43c1.14-.6,4.51-2.65,4.51-2.65s-.56,2-4,3.79-5.19,1.13-5.19,1.13Z"/><path class="cls-13" d="M89,58a10.73,10.73,0,0,0,1.43-.57c.9-.59,1.36-1.16,2-1.58a11,11,0,0,1,2.63-.9c.51-.27,1-1.15,2.22-1.68.72-.31,2.55-1,3.55-1.37a10.54,10.54,0,0,0,1.27-.86c.19,0,.55,1.41-5.85,4.81S88.87,58.17,89,58Z"/><polygon class="cls-16" points="108.81 152.13 120.95 160.28 -31.14 160.28 -19 152.13 108.81 152.13"/><rect class="cls-17" x="-31.14" y="160.29" width="152.09" height="9.61"/><path class="cls-4" d="M124,137s3.37,15.5,11.65,25.63,8,8.19,8,8.19l19.57-34.67.25-6.33Z"/><path class="cls-4" d="M112.81,66.44l7.52-10.67s15.31.8,20.48,11.5c2.95,6.12,18.42,38.85,18.42,38.85s13.88,12.65,15.34,14.2c1.25,1.34,3.19,3.14,2.11,4.82-1.93,3-8.87,7.91-12.3,9l-25.69,9.41c-2.94.93-3.54,9.32-6.48,8.39-1-.58-4.88-7.05-5.47-8-1.66-2.4-7.57-21.91-7.57-21.91s-10.62-5.82-14.15-14.6c-1.71-4.27-1.55-34.9-1.55-34.9"/><path class="cls-4" d="M98.45,142.71l.48-.1s39.73-7,43.11-17.64-5.53-53.44-5.53-53.44-7.48-12.28-19-5.89c-5.72,3.18-4.11,16.12-4.11,16.12s7,30.64,6.77,31.28S94,127.93,94,127.93Z"/><path class="cls-18" d="M125.75,115.92a49.13,49.13,0,0,1-2.72-4.6,11.12,11.12,0,0,0,2.3,4.91,10.08,10.08,0,0,0,4.16,3.5A37.21,37.21,0,0,1,125.75,115.92Z"/><path class="cls-18" d="M122.15,105.15c.3,1.44.59,2.86.87,4.3l.17,1c0,.18.06.36.08.55a.67.67,0,0,1,0,.2l0,0h0l-.07-.06-.3-.27-.1-.12c0-.08,0-.17,0-.24l-.18-1c-.26-1.4-.56-2.82-.87-4.29-1.2-5.76-2.41-11.23-3.5-16.21s-2.26-9.44-2.49-13.32.08-7,1.07-9a5.23,5.23,0,0,1,1.52-2,3.2,3.2,0,0,1,.78-.4,4.19,4.19,0,0,0-.66.53,5.78,5.78,0,0,0-1.42,2c-.91,1.94-1.24,5.12-.91,8.94S117.55,84,118.63,89,121,99.4,122.15,105.15Z"/><path class="cls-18" d="M122.86,111l-1,.65c-1.52.94-6.27,3.87-9.16,5.62a3.89,3.89,0,0,1,.39.28c2.93-1.77,7.52-4.59,9-5.52.4-.25.8-.5,1.2-.77A3.3,3.3,0,0,1,122.86,111Z"/><path class="cls-18" d="M141.83,127.72c-.05-.13-.09-.26-.13-.38a8.08,8.08,0,0,0,.57-.6,6.74,6.74,0,0,0,1.17-2.9,39.53,39.53,0,0,0,.72-6.86c.07-2.39,0-4.87-.06-7.41-.45-10.13-1.5-19.28-2.27-25.89-.41-3.27-.74-5.94-1-7.82-.11-.9-.21-1.61-.28-2.13l0-.55a.62.62,0,0,1,0-.19l.08.17a2.49,2.49,0,0,1,.1.54c.09.52.21,1.22.36,2.12.28,1.84.68,4.5,1.13,7.79.86,6.61,2,15.75,2.4,25.92.1,2.54.13,5,0,7.45a38.23,38.23,0,0,1-.73,6.91,6.92,6.92,0,0,1-1.26,3A8.41,8.41,0,0,1,141.83,127.72Z"/><path class="cls-18" d="M141.7,127.34a57.28,57.28,0,0,1-18.56,8.94s3.3-.72,6.34-1.69c2.13-.69,11.55-5.56,12.58-7.08Z"/><path class="cls-19" d="M79.92,142.6a12.61,12.61,0,0,0-11.25-10.19,11.62,11.62,0,0,1-4-7.33c-.17-1.44-1.14-6.65-1.15-7.55,0-1.46-.68-2.63-2.14-2.48l-7.41.81a2.18,2.18,0,0,0-1.67,3.24,6.11,6.11,0,0,0,2.44,2.42l1.79.89a37.53,37.53,0,0,0,1.25,13L50.09,138s-1.79-6.79-3.22-8.39c-.76-.86-.79-2.36-1-3.43C45.47,124.52,45,122.4,43,123c-.36.09-1,.29-1.37.42a1.31,1.31,0,0,0-.67.48c-.31.51.26,1.16.46,1.61.26.62.23,2.66-.89,1.77-.51-.41-.81-1.79-1.42-1.95a.46.46,0,0,0-.46.22.81.81,0,0,0-.09.53,2.12,2.12,0,0,0,.21.69,10.51,10.51,0,0,0,2.77,3.54s1.79,8.4.54,10.36a16.17,16.17,0,0,1-2.67,3.21.94.94,0,0,1-1.31-.52c-.56-1.37-1-4.56-2.45-5.73-2.5-2-2.41-1.3-2.41-1.3a8.06,8.06,0,0,1-1.79,3l-.55.6.17-.65a7.76,7.76,0,0,0,.16-3.18h0l-2.08-.58-.1-.29c-.76-2.09-3.21-1.4-3.44-.32a5.44,5.44,0,0,1-.32.64s-10.81-2-13,8.61,9.12,12.09,13.36,12,50.41,0,50.41,0S82.24,152.42,79.92,142.6Z"/><path class="cls-6" d="M63.51,145.42s-4.71-2.93-5.75-10l-2.2.94S58.07,144.16,63.51,145.42Z"/><path class="cls-6" d="M51.07,137.63s2,11.28-3.22,15.42c0,0,4.73-4.74,2.24-15.1Z"/><path class="cls-6" d="M41.76,141s.55,3.72-1,4.45c0,0,1.85-.3,1.59-5.51Z"/><path d="M30.43,156s3.07-4.54-1.2-5.27c-2.55-.43-4.44,4.21-6.31.57s2.16-3.56,2.16-3.56-8.86-.62-6.51-11.78c0,0-10.62,2.73-7.49,15.57,0,0,2.84,4.32,5.72,4.6Z"/><path d="M22.2,137.73s-.42.65.6,1.7a1.48,1.48,0,0,1-1.22-1.12C21.33,137.28,22.2,137.73,22.2,137.73Z"/><path d="M24,136.43s-1.16,1.15.68,2.1a1.42,1.42,0,0,1-1.48-1.05A.73.73,0,0,1,24,136.43Z"/><path class="cls-20" d="M78.52,132.11s-1.26-2.32-2.54-2-3.88,1.33-4,6.59,3.68,16.42,6.33,16.8,5.33-2.2,5.33-2.2,6.18.47,4-2.92S80.2,141,80.2,141,74.74,138.32,78.52,132.11Z"/><path class="cls-19" d="M75.85,140.76a.57.57,0,0,0-.43-.19,3.73,3.73,0,0,1-2.48-.43,1.18,1.18,0,0,1-.39-.6,2.29,2.29,0,0,1-.06-.91c0-.2.05-.39.09-.59.88-.82,1.5-1.38,1.5-1.38s7.73-4.79,12.06-6.07a19.33,19.33,0,0,1,8.49-.39L98.45,141l-4.1-.72-1.7.85s-.79,1.62-1.44,2.82-4.76,3.69-4.76,3.69a7.73,7.73,0,0,1-2.44-.28A1.48,1.48,0,0,1,82.79,146,5.23,5.23,0,0,1,81,145.2a5.29,5.29,0,0,1-1.45-2.45,3.52,3.52,0,0,1-1.93.13c-1.27-.23-1.66-2.2-1.66-2.2Z"/><path class="cls-4" d="M187.09,156.26c1.3-18.09-4.51-24.47-4.51-24.47l-52.8,20,.7,26.82h55C186.21,168.55,186.79,160.41,187.09,156.26Z"/><path class="cls-4" d="M175.41,121.22s8.56,8.2,8.75,13.14-23.64,8.3-23.64,8.3l-6.47-9.81Z"/><path class="cls-18" d="M112.24,117.53S106.93,111,105,107.41c-.09-.18-.17-.38-.25-.59a.73.73,0,0,1-.54-.07c1.25,4.21,7.16,10.78,7.16,10.78l-1.46,1.55Z"/><path class="cls-19" d="M73,123l-6.67,2.43s-3.63,2.29-6,.92,4.15-4.53,4.15-4.53l-1.16-6.18,8.83-.92A38.35,38.35,0,0,1,73,123Z"/><path class="cls-6" d="M64.82,126.23s-2.18,1.77-4,.39c-1.45-1.09-.46-2,1.16-3a12.36,12.36,0,0,0,2.66-2l-1.29-6-1.15-.13L64,121.62s-5.92,2.54-4.18,5.1,5.1,0,5.1,0Z"/></g><path class="cls-6" d="M25,149s-1.66,1.33,0,2,1.41-1.8,1.41-1.8,0,1.4-1.07,1.28S25,149,25,149Z"/><path class="cls-6" d="M37.61,142.52s.65,2.89-1.83,4.13c0,0,1.79-.29,2.42-2.83Z"/></g></svg>