<svg id="Layer_1" data-name="Layer 1" xmlns="http://www.w3.org/2000/svg" xmlns:xlink="http://www.w3.org/1999/xlink" viewBox="0 0 165.86 165.86"><defs><style>.cls-1{fill:none;}.cls-2{clip-path:url(#clip-path);}.cls-3{fill:#50939e;}.cls-4{fill:#010101;}.cls-4,.cls-5{fill-rule:evenodd;}.cls-5{fill:#a51e22;}</style><clipPath id="clip-path"><rect class="cls-1" y="-215.93" width="165.86" height="165.86"/></clipPath></defs><g class="cls-2"><path class="cls-3" d="M47.51-140.16S27.19-134.94,20.58-127C11-115.38,10.07-67.5,8.3-56.33S11.49.08,11.49.08,23.34,2.38,27-.43l3.52-55L36.16-101Z"/><g id="freepik--Character--inject-1209"><path class="cls-3" d="M45.87-138.26l9.54-4.66s.86,12,17,11.42c16-.59,16.28-11.09,16.32-11.17a15.09,15.09,0,0,1,2.73-.09c1.41,0,2.8.11,4.21,0a73.69,73.69,0,0,1,9.16-.05c2.7.14,5.63.21,8.13,1.4a22.07,22.07,0,0,1,10.19,10.72c.22.55,1.5,3.88,1.65,4.45L132-108.87l5.37-29,1.5,1.05a19.87,19.87,0,0,0,13.3.56l.88-.27s-2.92,51.05-4.29,58.32c-3.35,10.88-7.59,18.46-19.5,12.5-3.87-1.93-8.74-8.6-13-15.56l-.45,28.88s2.54,33.8,3.9,44.88C119.91-5.74,99-.22,97.69,0c-10,1.79-31,1.94-41.15.46C55.08.26,33.18-1.53,33.19-10c0-.62.9-79.84.9-79.84Z"/></g></g><path class="cls-4" d="M101.57,34.72c4.92,0,8.91,4.5,8.91,10s-4,10-8.91,10-8.92-4.49-8.92-10,4-10,8.92-10"/><path class="cls-5" d="M82.93,5.77A77.17,77.17,0,1,0,160.1,82.93,77.17,77.17,0,0,0,82.93,5.77Zm66.3,77.16a66,66,0,0,1-15.52,42.63L40.3,32.16A66.3,66.3,0,0,1,149.23,82.93Zm-132.59,0A66,66,0,0,1,32.16,40.3l93.4,93.41A66.29,66.29,0,0,1,16.64,82.93Z"/><path class="cls-4" d="M113.55,124.83H89.8c-2-.34-3.9-1-5-2.33-2.34-3,2-5.6,8.92-12.21,3.42-3.3,13.75-16.54,13.88-20.52.28-9.1-5.13-9.13-14.67-6.3A120.22,120.22,0,0,0,74.41,91S86.05,76.69,88,73.38s5.55-5.9,7.45-4.53,11.13,13.81,13.73,15.37,5.69,1.22,6-2.59c.18-1.94-1.49-4.21-2.43-5.76-2-3.26-4.29-6.35-6.57-9.41-2.68-3.6-5.41-7.15-8.12-10.72-3.25-4.29-6.83-7.17-12.39-7.45C79.93,48,75,51.12,71.5,55.46,60.91,68.54,51.38,83.7,49.12,93.65s7.86,17.8,16.19,15.46,11.39-4.84,14.17-5.92S93,96.39,91.83,97.87c-7.68,9.4-11.75,15.58-13.74,18.31-1.72,2.35-6.81,5.76-7.88,8.65H64a2.11,2.11,0,0,0,.55-1.41v-.13a2.14,2.14,0,0,0-1.86-2.11,1.89,1.89,0,0,0,.51-1.3v-.77a1.91,1.91,0,0,0-1.91-1.91h-5a1.92,1.92,0,0,0-1.91,1.91v.77a1.94,1.94,0,0,0,.51,1.3,2.14,2.14,0,0,0-1.85,2.11v.13a2.1,2.1,0,0,0,.54,1.41H48.17a2.72,2.72,0,0,0-2.72,2.72v2a2.71,2.71,0,0,0,2.72,2.71h65.38a2.71,2.71,0,0,0,2.72-2.71v-2A2.72,2.72,0,0,0,113.55,124.83Z"/></svg>