<svg xmlns="http://www.w3.org/2000/svg" xmlns:xlink="http://www.w3.org/1999/xlink" viewBox="0 0 165.86 165.86"><defs><style>.cls-1,.cls-10,.cls-15,.cls-34{fill:none;}.cls-2{clip-path:url(#clip-path);}.cls-3{fill:#9db064;}.cls-4{fill:#baaf93;}.cls-5{fill:#9e9d9e;}.cls-6{fill:#6a645d;}.cls-7{fill:#e2dcc7;}.cls-8{fill:#593d1b;}.cls-9{clip-path:url(#clip-path-2);}.cls-10,.cls-34{stroke:#7f7f7f;}.cls-10,.cls-15,.cls-34{stroke-miterlimit:10;}.cls-10{stroke-width:1.11px;}.cls-11{fill:#6a4b21;}.cls-12{fill:#cfcfce;}.cls-13{fill:#956243;}.cls-14{fill:#ceb066;}.cls-15{stroke:#927b46;stroke-width:0.51px;}.cls-16{fill:#3f261c;}.cls-17{fill:#070808;}.cls-18{fill:#13110f;}.cls-19{fill:#184449;}.cls-20{fill:#2b636d;}.cls-21{fill:#231f20;}.cls-22{fill:#010101;}.cls-23{fill:#653c29;}.cls-24{fill:#31160e;}.cls-25{fill:#f1eef7;}.cls-26{fill:#96963a;}.cls-27{fill:#92b4b8;}.cls-28{fill:#ae7462;}.cls-29{fill:#527f80;}.cls-30{fill:#3c7f8e;}.cls-31{fill:#265157;}.cls-32{clip-path:url(#clip-path-3);}.cls-33{clip-path:url(#clip-path-4);}.cls-34{stroke-width:0.88px;}.cls-35{fill:#c12026;}.cls-36{fill:#7c1317;}.cls-37{fill:#bfbfc1;}.cls-38{fill:#9ed0e3;}</style><clipPath id="clip-path"><rect class="cls-1" x="-0.13" y="0.04" width="166.13" height="165.79"/></clipPath><clipPath id="clip-path-2"><polygon class="cls-1" points="-79.07 -118.59 -203.52 -33.01 381.6 -33.01 247.35 -118.59 -79.07 -118.59"/></clipPath><clipPath id="clip-path-3"><rect class="cls-1" x="0.43" y="216.42" width="165" height="166.57"/></clipPath><clipPath id="clip-path-4"><polygon class="cls-1" points="-46.13 131.29 -145.27 199.47 320.86 199.47 213.91 131.29 -46.13 131.29"/></clipPath></defs><g id="Layer_1" data-name="Layer 1"><g class="cls-2"><path class="cls-3" d="M-175.83,161.47c-8.18-1-16.8-2-24.39,1.3s-13.45,12.31-10.35,20.08c2.31,5.76,8.49,8.81,14.36,10.54,24.54,7.2,50.84.15,76.27,2.45,29.3,2.66,55.93,13.75,82.81,25.91,43.86,19.84,109.78,27,155,10.66,20.81-7.51,23.68-11,44.46-18.64,54-19.79,114.78,1.84,171-10.08,0,0,64.6,5.12,56.62-32.09,0,0-.84-9.95-14.71-10.53S-175.83,161.47-175.83,161.47Z"/><polygon class="cls-4" points="356.28 148.27 -167.43 148.27 -178.68 -12.7 356.28 -12.7 356.28 148.27"/><rect class="cls-5" x="-193.92" y="152.1" width="569.31" height="9.15"/><rect class="cls-6" x="-169.82" y="136.92" width="511.86" height="18.99"/><path class="cls-7" d="M-186.56-25.3V156.24H24.18V17.69H30V4.13s3-7.42,16.11-6.82V-7.27H122.2v4.89S138-4,138,6.94c0,4.63,0,10.75,0,10.75h5.05V156.24H366.21V28.81h.2L366.57-.1h0V-25.3ZM3.49,6.94c-.12,4.45,0,10.75,0,10.75H9.83v84.07H-169.82V20.91h6.67V13.3S-160.1,3.88-147,4.48V-7.27H-12.32v4.89S3.77-4,3.49,6.94Zm341.7,6.36V24.86h4.28v76.9H157.41V17.88h4.74V5.33s1.22-9.75,16.12-8.82V-6.08H329.08V4.48C342.15,3.88,345.19,13.3,345.19,13.3Z"/><rect class="cls-8" x="51.56" y="13.31" width="65.71" height="123.75"/><ellipse class="cls-6" cx="61.85" cy="81.83" rx="4.05" ry="2.6"/><g class="cls-9"><line class="cls-10" x1="165.98" y1="-133.19" x2="165.98" y2="0.09"/><line class="cls-10" x1="158.09" y1="-133.19" x2="158.09" y2="0.09"/><line class="cls-10" x1="149.86" y1="-133.19" x2="149.86" y2="0.09"/><line class="cls-10" x1="149.86" y1="-133.19" x2="149.86" y2="0.09"/><line class="cls-10" x1="141.64" y1="-133.19" x2="141.64" y2="0.09"/><line class="cls-10" x1="133.75" y1="-133.19" x2="133.75" y2="0.09"/><line class="cls-10" x1="125.52" y1="-133.19" x2="125.52" y2="0.09"/><line class="cls-10" x1="117.07" y1="-133.19" x2="117.07" y2="0.09"/><line class="cls-10" x1="108.84" y1="-133.19" x2="108.84" y2="0.09"/><line class="cls-10" x1="100.95" y1="-133.19" x2="100.95" y2="0.09"/><line class="cls-10" x1="92.72" y1="-133.19" x2="92.72" y2="0.09"/><line class="cls-10" x1="85.35" y1="-133.19" x2="85.35" y2="0.09"/><line class="cls-10" x1="77.12" y1="-133.19" x2="77.12" y2="0.09"/><line class="cls-10" x1="69.23" y1="-133.19" x2="69.23" y2="0.09"/><line class="cls-10" x1="61" y1="-133.19" x2="61" y2="0.09"/><line class="cls-10" x1="52.56" y1="-133.19" x2="52.56" y2="0.09"/><line class="cls-10" x1="44.33" y1="-133.19" x2="44.33" y2="0.09"/><line class="cls-10" x1="36.44" y1="-133.19" x2="36.44" y2="0.09"/><line class="cls-10" x1="28.21" y1="-133.19" x2="28.21" y2="0.09"/></g><rect class="cls-11" x="54.68" y="16.33" width="59.71" height="120.75"/></g><circle class="cls-12" cx="80.98" cy="145.01" r="0.85"/><circle class="cls-12" cx="80.74" cy="147.5" r="0.85"/><circle class="cls-12" cx="82.77" cy="146.72" r="0.6"/></g><g id="Layer_5" data-name="Layer 5"><path class="cls-13" d="M111.83,58.51c.54,4.41-2,18.79-2.64,20.12-2.07,4-15.71,12-15.71,12L90.55,88.4l11.33-13.08-.09-15.54"/><path class="cls-13" d="M85.56,91.44a12.05,12.05,0,0,0-.8,1.56c0,.07,0,.18.09.23a.34.34,0,0,0,.24.07c.43,0,.75-.39,1-.74s.46-.67.66-1a2.85,2.85,0,0,1,.84-.82c.69-.52,1.41-1,2.14-1.47a17.82,17.82,0,0,0-4.07,4.24c-.12.17-.24.4-.12.57a.35.35,0,0,0,.4.1,1.11,1.11,0,0,0,.36-.25l1.59-1.52c.78-.75,1.87-1.21,2.67-2A43.29,43.29,0,0,0,86.71,94a.51.51,0,0,0-.17.36.33.33,0,0,0,.22.25.87.87,0,0,0,.76-.19A16.22,16.22,0,0,0,89.34,93l1.92-1.62a3.49,3.49,0,0,0-1.51,2.46.46.46,0,0,0,0,.26c.1.16.35.13.51,0,.51-.31.61-1,1-1.47a5.62,5.62,0,0,1,.75-.62c.22-.17.4-.37.63-.53a12.05,12.05,0,0,1,1.56-.8,4.12,4.12,0,0,0,1.28-.9,4.35,4.35,0,0,0,.59-1.18c.35-.77,1-1,1.69-1.38s1.55-.76,2.34-1.11a4,4,0,0,0,.64-.35,2.32,2.32,0,0,0,.38-2.23,3.06,3.06,0,0,0-2.28-2,.41.41,0,0,0-.19,0,2.71,2.71,0,0,0-.41.23c-.67.55-1.28,1.17-1.93,1.74s-1.35,1-2,1.54a.59.59,0,0,1-.17.1.65.65,0,0,1-.2,0,10,10,0,0,0-2.62.17A14.72,14.72,0,0,0,87,87.44c-.11.08-.23.17-.24.3a.35.35,0,0,0,.17.27c.64.45,1.33,0,1.93-.25a.53.53,0,0,1,.47-.07c-.2.14-.35.37-.54.52l-.25.2-.5.4c-.33.28-.66.56-1,.85A9.83,9.83,0,0,0,85.56,91.44Z"/><path class="cls-14" d="M82.64,104.22S80.37,122,68.69,134L57,146a48.82,48.82,0,0,0,5.59-4.09l3.5-2.88s-4.29,6.42-6.26,7.6,5-1.14,7.29-5.32-3.43,6.25-5,8,3.58-1.07,6.73-2.25,4.29-1.69,4.29-1.69l2-2.77s-3.86,6.67-4.6,7.18,6.22-1.42,9.33-6.27,5.11-9.06,4.75-17.21.93-21.58,2.23-26.74,3.15-12.21,3.15-12.21l1.25-4.09-3.58-.51Z"/><path class="cls-15" d="M81.59,108.94s-2.89,15.28-5.25,20.77-4.51,13.38-14,20.09"/><path class="cls-15" d="M84.62,104.61s-1.42,16.48-11.46,36.7c-1.44,2.9-8.52,7.13-9.9,8.16"/><path class="cls-15" d="M81.78,126.69S76.86,137.07,74.33,141c-3.79,5.92-9,7-9,7"/><path class="cls-15" d="M84.16,117.32s1.12,8-4.1,18.25c-2.09,4.11-5,8.19-6.58,9.39,0,0,3.22-2.66,6.89-13.62a147.14,147.14,0,0,0,5.34-23.77l-2.77-.43,2.38-1-1.82-.43,2.07-1.13-1.83-.48,2.08-.71-2-1.28,2-.1-1.69-1.15,2.09-.71-1.85-1,3.19-2.05-2.11,11-3.63.53,2.93-13.13,2.86,1.44L88.07,95l-2.33-.64,2.74-1"/><path class="cls-15" d="M72.67,147.15s5.85-4.88,8-9.83,4.55-10.65,3.69-15"/><path class="cls-15" d="M84.09,128.74s.32,6.17-5.38,13.92c-2.64,3.59-7.93,6.93-7.93,6.93"/><path class="cls-15" d="M66,142.86s6-6.88,7.34-9,5.18-11.17,5.18-11.17"/><path class="cls-15" d="M65.86,139.42s5.31-4,7.79-9,5.5-10.17,5.5-10.17"/><polyline class="cls-15" points="91.31 83.25 89.59 89.36 87.21 87.64 89.75 87.08 87.85 86.59 89.66 85.86 88.05 85.34 89.98 84.51 88.45 84.08 90.8 83.33 87.73 82.74 86.28 88.89 89.35 89.34"/><path class="cls-16" d="M92.25,87.51s-1.32-.35-1.49-.35h-.27l0,.16,1.7.41,0-.22"/><polyline class="cls-15" points="89.77 87.86 86.69 89.82 88.34 90.86 86.05 91.54 87.2 92.64 85.74 92.07 86.36 88.54"/><polyline class="cls-15" points="83.7 98.63 86.5 98.91 84.59 96.75 87.43 95.8 84.75 95.33 85.1 93.86 87.2 95.14 85.04 94.75"/><path class="cls-13" d="M116.37,146.31l.36-.16a6.73,6.73,0,0,1,3.35,2.66,45.41,45.41,0,0,1-5.51-.22c-1.06,0-.9-.89-.58-1.3A7.29,7.29,0,0,1,116.37,146.31Z"/><path class="cls-13" d="M117.91,146.51l.31-.35c1.68-2.49,3.3-2.15,2.13-5.22s-5.56-9.37-5.56-9.37l7.72-2.56s2.87,8.11,2.83,9a5.34,5.34,0,0,0,1.62,3.33,4.7,4.7,0,0,1,1.43,3c0,.73-.8,1.23-2,1.73a39.47,39.47,0,0,0-4.38,2.7A7.91,7.91,0,0,0,117.91,146.51Z"/><path class="cls-17" d="M120.09,148.74l.65-.17c2.69-.79,5.15-1.66,8-2.47.35-.09.6,1.15.05,1.32-2.64.8-5,1.39-7.59,2.18a11.66,11.66,0,0,1-1.17.14Z"/><path class="cls-17" d="M114.46,148.5h5.23a.74.74,0,0,1,.74.74v0a.43.43,0,0,1-.43.43h-5.86a.43.43,0,0,1-.43-.43v0a.74.74,0,0,1,.74-.74Z" transform="translate(230.02 301.35) rotate(-178.43)"/><path class="cls-17" d="M116.37,146.31a6,6,0,0,1,3.52,2.49l3.49-.63s-2.4-3.54-5.66-3.25A5.45,5.45,0,0,0,116.37,146.31Z"/><path class="cls-13" d="M109.83,130.41s2.73,7.15,3.12,10.44-1.1,2.53-3.34,4.54a17,17,0,0,1-2.4,1.5,7.61,7.61,0,0,0-2.36,1c-.31.41-.45,1.29.6,1.29s4.55.38,5.88,0,4.84-1.77,6.18-1.95,2.2-.48,2.41-1.18a4.68,4.68,0,0,0-.66-3.29,5.41,5.41,0,0,1-.76-3.63c.25-.85-.56-9.42-.56-9.42Z"/><path class="cls-17" d="M111,149.28c.21-.05.43-.1.65-.17,2.69-.78,5.15-1.64,8-2.44.36-.1.6,1.14.05,1.31-2.64.8-5,1.38-7.6,2.16-.43.13-.72.05-1.16.15Z"/><path class="cls-17" d="M105.36,149.08h5.23a.74.74,0,0,1,.74.74v0a.43.43,0,0,1-.43.43H105a.43.43,0,0,1-.43-.43v0a.74.74,0,0,1,.74-.74Z" transform="translate(214.68 300.24) rotate(-179.52)"/><path class="cls-17" d="M107,146.84s2.85.25,3.64,2.57l2.37-.66a4.51,4.51,0,0,0-3.82-3.26A10.29,10.29,0,0,0,107,146.84Z"/><path class="cls-18" d="M105.48,46a6.23,6.23,0,0,0,.65-4.6c-.61-2.79-4-2.19-4-2.19L104,44.46Z"/><path class="cls-13" d="M104.39,44.31S107.92,50,109,50.64c.35.22,2,1.41,2,1.41l-2.29,1.58c-1.63,1.31-5.25,7.8-7.32,8l.19-2.44a45.31,45.31,0,0,0,.48-4.62c-.12-.47-2-3.56-2-3.56"/><path class="cls-16" d="M101.13,52.94s-.47,0,0-.45,1.35-.8,2.72-4a4.41,4.41,0,0,1-1.65,4.44,2.61,2.61,0,0,1-.71.58Z"/><path class="cls-13" d="M89.78,39.43v.06l0,0Zm-1.12,1.09v0l0-.09S88.66,40.52,88.66,40.52ZM104.42,45l-.36.09c1.06,0,1.74-.74,1.13-2,0-.77-.13-3.18-1-3.52l-.64.13c-.5-.07-.93-.49-.93.11,0,.25,0,1.1,0,1.34a6.51,6.51,0,0,1-.07,1.16s-.58-1.67-.87-2.2a4.65,4.65,0,0,0-2.92-2S97.75,36.27,97,36l-.18,0a1.84,1.84,0,0,0-.22.17s0-.07,0-.13a1,1,0,0,1-.37.26s.06-.11,0-.13a1.62,1.62,0,0,1-.36.21.32.32,0,0,0,0-.16c-.12.14-.24.14-.36.22a.24.24,0,0,0,0-.15c-.08.13-.22.17-.34.24s0-.11,0-.16c-.12.15-.24.15-.36.22s0-.09,0-.12a1.46,1.46,0,0,1-.28.21s0-.09,0-.12a1.09,1.09,0,0,1-.39.23l0-.16a.46.46,0,0,1-.32.27s0-.13,0-.16a.65.65,0,0,1-.44.34s0-.14,0-.16c-.09.2-.22.24-.37.33a1.43,1.43,0,0,1,0-.21.74.74,0,0,1-.52.43s0-.12,0-.15c0,.18.09-.09-.07,0,0,0-.28.32-.3.29-.07.16,0-.65-.11-.56,0-.07-.82.57-.8.48-.08.2-.08.12-.28.2l-.4.66c-.07.23-.21.15-.4.23,0,0,.18,0,.19,0,0,.18-.1,0-.25.11s-.59.11-.61.09c-.09.17,0,.15-.22.26,0,0,.07.37.09.32-.06.18-.11.09-.27.15l-.09.19c-.06.23.11,0-.09.13,0,0,.72-.32.73-.38a1.3,1.3,0,0,1-.28.41s0-.1,0-.13a.69.69,0,0,1-.37.45s0-.09,0-.12c-.07.23-.2.42-.43.44h0a1.11,1.11,0,0,1-.3.45.14.14,0,0,1,0-.15l-.12.07a2.28,2.28,0,0,0,0,.9A7.19,7.19,0,0,0,88.85,45c.65,1,1.87,2.6,2.17,3a11.11,11.11,0,0,1,.77,1.4,5.79,5.79,0,0,0,1.26,2.21,6.28,6.28,0,0,0,2.21,1.22,12,12,0,0,0,2.68,1.29,5.1,5.1,0,0,0,2.74-.62c1.9-1,3-3.38,3.42-5.28"/><path class="cls-19" d="M100.53,33.09a15.78,15.78,0,0,0-7.25,3.14C89.8,39,88.38,41,88.73,43a17.71,17.71,0,0,0,2.19,4.89s.84.51-1.84-2.39C85.19,41.28,87.73,33.73,89,33S95.52,28.77,100.53,33.09Z"/><path class="cls-19" d="M101.52,31.52s-1.7-4.16-4.74-3.28S87.51,30.59,88,35Z"/><path class="cls-20" d="M106.16,39.64c.1-.44-.44-1.17-.4-1.62a4,4,0,0,0-2.16-4.1c-.45-.28-.6-1.17-.83-1.52-1.24-1.81-2.19-1.87-6.16-2.11a11.08,11.08,0,0,0-7,2.32c-2.21,1.5-3.13,2.25-3,4.36,0,.27.24.38.31.68s-.45.82-.27,1.33c0,0,3.65-.6,7-.76s11.82,2.39,12.58,3.93A18.69,18.69,0,0,1,106.16,39.64Z"/><path class="cls-19" d="M104.81,35.41s-7.46-2.76-12.2.05c0,0,5.55-4.45,10.87-1.71l.16.13a4.72,4.72,0,0,1,1.12,1.28Z"/><path class="cls-18" d="M100.94,39.52l1.67,2.8.25-2.14S101.51,39.75,100.94,39.52Z"/><path class="cls-21" d="M103.54,42.46c.07,0,.18-.12.25-.05a.41.41,0,0,1,.09.26,1,1,0,0,0,.22.62.31.31,0,0,0,.33.05.52.52,0,0,0,.2-.39,1.35,1.35,0,0,0-.23-1c-.18-.26-.47-.6-.83-.55-.08,0-.11.12,0,.11.3,0,.54.27.69.48a1.34,1.34,0,0,1,.24.89c0,.07,0,.33-.15.33s-.17-.1-.21-.18a4.29,4.29,0,0,1-.13-.6.26.26,0,0,0-.16-.19.45.45,0,0,0-.36.08c-.09.05,0,.13.06.09Z"/><path class="cls-19" d="M102.75,37.63s2.72.72,3.26,1.32l-.19-.75A4.07,4.07,0,0,0,102.75,37.63Z"/><path class="cls-22" d="M95.77,49.27a1,1,0,0,0,.74-.52c0-.06.22-.13.17,0a1.37,1.37,0,0,1-1,.69s0,0,0-.06a.22.22,0,0,1,.13-.06"/><path class="cls-22" d="M96.74,48.58a1.77,1.77,0,0,1,.41-.41l.08,0s0,0,0,0a.61.61,0,0,1-.23.22.12.12,0,0,1-.1,0s0,0,0-.06a.42.42,0,0,0,.18-.17h.11a1.58,1.58,0,0,0-.36.37.11.11,0,0,1-.09,0s-.06,0,0,0"/><path class="cls-22" d="M97.41,48.21a.81.81,0,0,0,.37-.55.63.63,0,0,0-.66-.56s0,0,0-.05a.17.17,0,0,1,.12,0,.76.76,0,0,1,.68.42.61.61,0,0,1-.21.65,1.56,1.56,0,0,1-.2.16s-.08,0-.11,0,0,0,0,0"/><path class="cls-22" d="M95.36,49.38s0,0,0,0a.27.27,0,0,1-.18,0v.1a.67.67,0,0,1,.37-.08s0,0,.05-.05,0,0,0,0"/><path class="cls-22" d="M95.52,49.32a1,1,0,0,0-.41.09.1.1,0,0,0,0,.05s0,0,0,0"/><path class="cls-22" d="M95,49.65a.45.45,0,0,1-.47,0,.64.64,0,0,1-.22-.71s0,0,0,0,0,0,0,.06a.73.73,0,0,0,.11.65.51.51,0,0,0,.52.2l.16,0a.08.08,0,0,0,0-.07s0,0,0,0"/><path class="cls-18" d="M91.55,46.66a.54.54,0,0,0-.44.38.65.65,0,0,0,0,.26.49.49,0,0,0,.34.33.47.47,0,0,0,.5-.2.5.5,0,0,0-.09-.64.44.44,0,0,0-.33-.13"/><path class="cls-18" d="M93.25,46.35a4.93,4.93,0,0,0-1.72.13,1.6,1.6,0,0,0-1,1.25,2.82,2.82,0,0,1,.92-1A9.31,9.31,0,0,1,93.25,46.35Z"/><path class="cls-18" d="M96.67,43.59a.66.66,0,0,1,.56-.29.47.47,0,0,1,.24.12.48.48,0,0,1,.14.45.47.47,0,0,1-.41.36.51.51,0,0,1-.53-.38s-.08-.08,0-.23"/><path class="cls-18" d="M95.79,44.7a4.88,4.88,0,0,1,1-1.41,2.68,2.68,0,0,1,2-.32,5.23,5.23,0,0,0-1.8.36A9.37,9.37,0,0,0,95.79,44.7Z"/><path class="cls-18" d="M92.21,44.66c-.07-.13-.13-.26-.2-.38a8.82,8.82,0,0,0-2.05,1l-.25.25,0,.07.13.47a2.69,2.69,0,0,1,1.52-.89c.24-.08.57-.18,1-.28C92.3,44.85,92.26,44.75,92.21,44.66Z"/><path class="cls-18" d="M94.58,42.52l.23.36a2.61,2.61,0,0,0,.17.28c.29-.28.54-.51.74-.68a3.68,3.68,0,0,1,.92-.65,3.38,3.38,0,0,1,.72-.2,3.29,3.29,0,0,1,.42,0c.32,0,.52.13.54.09s-.12-.15-.13-.16a1.65,1.65,0,0,0-.86-.32,2.09,2.09,0,0,0-.78.12,8.47,8.47,0,0,0-2,1.2"/><path class="cls-23" d="M97.43,50.13c.94-.57,2.41-1.62,2.41-1.62a3,3,0,0,1-5,3S96.48,50.71,97.43,50.13Z"/><path class="cls-24" d="M97.42,50.14c.45-.27,2.21-1.45,2.21-1.45A3,3,0,0,1,98,51.07a2.85,2.85,0,0,1-2.9.37Z"/><path class="cls-25" d="M97.44,50.22C97.89,50,99.21,49,99.21,49s-.18.81-1.53,1.63-2.08.58-2.08.58Z"/><path class="cls-23" d="M94.7,51.44a3.54,3.54,0,0,0,.56-.27c.35-.26.53-.5.78-.69a4.72,4.72,0,0,1,1-.42c.2-.12.38-.49.86-.73.28-.14,1-.45,1.4-.64a3.34,3.34,0,0,0,.5-.38c.08,0,.25.56-2.26,2.09S94.64,51.49,94.7,51.44Z"/><path class="cls-13" d="M104.9,60.37v-.15s1.06-.95,1.28-1.09,1.7.35,1.7.35l1,1.87-1.22.75a2.45,2.45,0,0,1-.74.37,2.66,2.66,0,0,1-.83.16.37.37,0,0,1-.37-.36c-.54,0-.37-.4-.37-.4-.59-.12-.33-.52-.33-.52s-.36,0-.41-.3a1.19,1.19,0,0,1,.25-.7"/><path class="cls-16" d="M107.12,60.82a1.14,1.14,0,0,1-.47-.13.66.66,0,0,1-.34-.44l0-.1-.06.07-.07.07a1.27,1.27,0,0,1-.55.32.78.78,0,0,1-.5,0,.34.34,0,0,1-.2-.25.47.47,0,0,1,0-.13.2.2,0,0,0,0,.14.35.35,0,0,0,.21.3.75.75,0,0,0,.55,0,1.18,1.18,0,0,0,.59-.32.6.6,0,0,0,.08-.08l-.09,0a.77.77,0,0,0,.4.51,1.11,1.11,0,0,0,.5.12l.34,0,.12,0A4.26,4.26,0,0,0,107.12,60.82Z"/><path class="cls-16" d="M105.25,61.33a1.7,1.7,0,0,1,.35-.19.55.55,0,0,1,.54,0,.32.32,0,0,1,.14.27.44.44,0,0,1-.13.31,1.22,1.22,0,0,1-.17.15l-.38.27L106,62a.8.8,0,0,1,.6-.1.31.31,0,0,1,.2.15.34.34,0,0,1,0,.22.66.66,0,0,1-.2.27l-.1.08a.34.34,0,0,0,.12-.06.57.57,0,0,0,.24-.27.36.36,0,0,0,0-.27.37.37,0,0,0-.24-.2.88.88,0,0,0-.67.09L106,62l.18-.15a.55.55,0,0,0,.16-.38.42.42,0,0,0-.18-.34.58.58,0,0,0-.33-.1.72.72,0,0,0-.29.06,1.41,1.41,0,0,0-.35.23.44.44,0,0,0-.11.11A.41.41,0,0,0,105.25,61.33Z"/><path class="cls-16" d="M105.58,61a.44.44,0,0,0,.13-.31.28.28,0,0,0,0-.09l.07,0h0a.5.5,0,0,1,0,.12.54.54,0,0,1-.14.36.93.93,0,0,1,.44,0,.49.49,0,0,1,.24.21.37.37,0,0,1,0,.27.57.57,0,0,1-.25.28.23.23,0,0,1-.12.06l.1-.09a.6.6,0,0,0,.2-.27.22.22,0,0,0,0-.21.37.37,0,0,0-.2-.17.9.9,0,0,0-.62.1l-.44.18.39-.27Z"/><path class="cls-13" d="M106.11,65.63a21.57,21.57,0,0,0,5.67-2c2.62-1.54,4.36-4.61,4.71-4.93l-3.88-2.88-3.46,4.35L105,63.48Z"/><path class="cls-26" d="M113.74,55.49l1.51,5.35L115,60.7S113.46,56.85,113.74,55.49Z"/><path class="cls-27" d="M99.44,67.29l3.87-11.44a10.4,10.4,0,0,1,5.06-5.13,2.78,2.78,0,0,1,.72-.33l.08,0,.1,0s1,.57,1.09.6h0a12.3,12.3,0,0,1,5.31,5.18c.54,1.19,1.31,3.11,2.15,5.28v-.07l.83,2.24c.93,2.45,1.87,5,2.61,7.06l4.18,3.9,4.85,4.3-1.13,5.27-14.54,8.63L107.08,80a22.84,22.84,0,0,0-2.86-2.7c-1.21-.85-4.47-3.37-5-4.9S99.44,67.29,99.44,67.29Z"/><path class="cls-28" d="M107.62,65.05a4.68,4.68,0,0,1,5-1.11"/><path class="cls-13" d="M114.45,61.5c.14,4.44-3.63,18.54-4.44,19.8-2.43,3.82-16.73,10.57-16.73,10.57l-2.71-2.52,12.46-12,1.31-15.48"/><path class="cls-27" d="M114.83,67.52l-11.66-.37s-.54-7.62,1.68-11.19,5.43-4,7.46-2.85S116,60,114.83,67.52Z"/><path class="cls-29" d="M105.45,56.21a6.24,6.24,0,0,1,2.79-2.66,4.57,4.57,0,0,1,3-.36,4.12,4.12,0,0,1,1.1.43,3.77,3.77,0,0,1,1.29,1.48.47.47,0,0,1-.09-.06,4,4,0,0,0-4-1.49,9.27,9.27,0,0,0-2.44,1.26,6.72,6.72,0,0,0-.9.78c-.12.13-.22.27-.33.39s-.41.24-.44.3Z"/><path class="cls-29" d="M104.1,58.37s.09,0,.14,0a32.78,32.78,0,0,0-.85,4.17,21.94,21.94,0,0,0,0,3.44s0,.78.06.78l11.14.5a21.94,21.94,0,0,0-.3-8.15c-.1-.44-.23-.88-.37-1.31a5.1,5.1,0,0,0,.49.72,3.74,3.74,0,0,1,.38.84,9.88,9.88,0,0,1,.32,1.79,22.17,22.17,0,0,1,.1,3.82c-.05.83-.14,1.64-.26,2.45l0,.24-11.78-.58,0-.24a19.51,19.51,0,0,1-.06-4,24.15,24.15,0,0,1,.64-3.47A5.34,5.34,0,0,1,104.1,58.37Z"/><path class="cls-30" d="M104.81,107.67c1.16-3.07.79-2.89,5.35-7.9,1.55-1.7,2.49-3.1,3.79-4.69l.4-.48c-.19.06-.31.08-.35,0-.48-.51-1.68-4.91-1.76-6.14l-.47.1.46-.31h0c0-.08.18-.19.47-.32,3.49-2.36,15.67-10.6,16.32-10.77s6.48,7.53,6.69,9.18h0a5.62,5.62,0,0,1,.54.8c1.74,3.29,3.26,10-.29,14.68a72.32,72.32,0,0,1-6.8,7.77l-3.75,3.5s1.93,5.43,2.78,9c1,4.21,3.51,11.4,3.51,11.4l-9.37,3.38a20.79,20.79,0,0,1-7.73,1.23l-6.87-.21s-1.93-15.39-2.25-17.66C105.11,117.66,103.64,110.73,104.81,107.67Z"/><path class="cls-16" d="M91.18,88.55l11.66-11.36v-.91l.26.29-.07.77L91.28,88.74h-.06A.71.71,0,0,0,91.18,88.55Z"/><path class="cls-13" d="M84.53,91.28a10.09,10.09,0,0,0,2.19,0c.11-.09.86-.57,1.57-1a3.77,3.77,0,0,0,1.41-1.31,5.31,5.31,0,0,0,.52-.81,2.91,2.91,0,0,0,.29-.76,16,16,0,0,1,1.7.41l.13-.08,2,3.71L92.65,93s-3.74,2.22-4.38,2.16a5.35,5.35,0,0,1-1.76-.9c-.84.05-1.46-.93-1.46-.93-1.41-.36-.72-1-.72-1a.24.24,0,0,1-.14,0A.56.56,0,0,1,84.53,91.28Z"/><path class="cls-16" d="M89,91.35a2.3,2.3,0,0,1-.55.53,4.05,4.05,0,0,1-1.62.87A3.52,3.52,0,0,1,85,92.57a2.53,2.53,0,0,1-.7-.29,3.5,3.5,0,0,1,.73.15,4,4,0,0,0,1.75.12,4.49,4.49,0,0,0,1.58-.78A4.31,4.31,0,0,1,89,91.35Z"/><path class="cls-16" d="M89.35,92.37a1.41,1.41,0,0,1-.48.52,5.39,5.39,0,0,1-.63.43,2.29,2.29,0,0,1-.88.33,4,4,0,0,1-.92-.06l-.73-.12a2.6,2.6,0,0,1-.67-.15,2.28,2.28,0,0,1,.69,0l.73.08a4.36,4.36,0,0,0,.88,0,2.16,2.16,0,0,0,.83-.29,6.5,6.5,0,0,0,.63-.37A4.29,4.29,0,0,0,89.35,92.37Z"/><path class="cls-16" d="M89.64,93.61a5.33,5.33,0,0,1-1.46.89.67.67,0,0,1-.37.08l-.33,0a3.12,3.12,0,0,1-.53-.11c-.3-.09-.46-.2-.45-.23a3.72,3.72,0,0,1,.48.09,3,3,0,0,0,.52.07h.3a.72.72,0,0,0,.29-.06c.42-.22.8-.4,1.08-.53A2.72,2.72,0,0,1,89.64,93.61Z"/><circle class="cls-12" cx="78.59" cy="144.16" r="0.6"/><circle class="cls-12" cx="83.62" cy="141.48" r="0.6"/><circle class="cls-12" cx="87.43" cy="148.47" r="0.6"/><polyline class="cls-31" points="114 94.64 117.66 91.87 113.95 95.08 114 94.64"/><polyline class="cls-31" points="125.37 113.28 122.61 111.76 124.71 113.28 122.46 113.45 125.37 113.45"/><path class="cls-3" d="M7.52,163.86c-.92-3.53-2-6.05-4.77-8.45a12.71,12.71,0,0,1,7.62,4.07l-.81-10.76a64.51,64.51,0,0,0,4,8.46A96.49,96.49,0,0,1,17.44,143c.11,4.58,0,9.17-.27,13.74a10.18,10.18,0,0,1,4.43-6.22,26.8,26.8,0,0,0-.68,7.08A20.24,20.24,0,0,1,27.17,153c.34,1.24-.8,2.34-1.67,3.29-2,2.18-3.27,4.38-3,7.34l0,.19Z"/></g><g id="Layer_7" data-name="Layer 7"><g class="cls-32"><polygon class="cls-5" points="-46.29 131.66 -145.43 199.84 320.69 199.84 213.74 131.66 -46.29 131.66"/><g class="cls-33"><line class="cls-34" x1="162.38" y1="119.66" x2="162.38" y2="225.83"/><line class="cls-34" x1="155.65" y1="119.66" x2="155.65" y2="225.83"/><line class="cls-34" x1="149.09" y1="119.66" x2="149.09" y2="225.83"/><line class="cls-34" x1="142.81" y1="119.66" x2="142.81" y2="225.83"/><line class="cls-34" x1="136.25" y1="119.66" x2="136.25" y2="225.83"/><line class="cls-34" x1="136.25" y1="119.66" x2="136.25" y2="225.83"/><line class="cls-34" x1="129.7" y1="119.66" x2="129.7" y2="225.83"/><line class="cls-34" x1="123.41" y1="119.66" x2="123.41" y2="225.83"/><line class="cls-34" x1="116.86" y1="119.66" x2="116.86" y2="225.83"/><line class="cls-34" x1="110.13" y1="119.66" x2="110.13" y2="225.83"/><line class="cls-34" x1="103.57" y1="119.66" x2="103.57" y2="225.83"/><line class="cls-34" x1="97.29" y1="119.66" x2="97.29" y2="225.83"/><line class="cls-34" x1="90.73" y1="119.66" x2="90.73" y2="225.83"/><line class="cls-34" x1="84.86" y1="119.66" x2="84.86" y2="225.83"/><line class="cls-34" x1="78.3" y1="119.66" x2="78.3" y2="225.83"/><line class="cls-34" x1="72.02" y1="119.66" x2="72.02" y2="225.83"/><line class="cls-34" x1="65.46" y1="119.66" x2="65.46" y2="225.83"/><line class="cls-34" x1="58.73" y1="119.66" x2="58.73" y2="225.83"/><line class="cls-34" x1="52.18" y1="119.66" x2="52.18" y2="225.83"/><line class="cls-34" x1="45.89" y1="119.66" x2="45.89" y2="225.83"/><line class="cls-34" x1="39.34" y1="119.66" x2="39.34" y2="225.83"/><line class="cls-34" x1="39.34" y1="117.55" x2="39.34" y2="223.72"/><line class="cls-34" x1="32.78" y1="117.55" x2="32.78" y2="223.72"/><line class="cls-34" x1="26.5" y1="117.55" x2="26.5" y2="223.72"/><line class="cls-34" x1="19.94" y1="117.55" x2="19.94" y2="223.72"/><line class="cls-34" x1="13.21" y1="117.55" x2="13.21" y2="223.72"/><line class="cls-34" x1="6.66" y1="117.55" x2="6.66" y2="223.72"/><line class="cls-34" x1="0.37" y1="117.55" x2="0.37" y2="223.72"/></g></g></g><g id="Layer_8" data-name="Layer 8"><path class="cls-35" d="M27.92,129.29l1.36,12.85h0c0,.18,0,.36,0,.54.18,2.07.4,4.14.6,6.21a1.34,1.34,0,0,0,.55,1l0,0a10,10,0,0,0,5.59,1.73l5.28,0a8.92,8.92,0,0,0,5.42-1.74l0,0a1,1,0,0,0,.4-.71c.2-1.89.4-3.79.57-5.68.19-2.24.53-4.46.68-6.71l.49-4.85.09-.24c0-.41.19-1.59.28-2.35a1.69,1.69,0,0,0,.71-1.25c0-2-5.12-3-11.46-3s-11.5.86-11.51,2.86A1.84,1.84,0,0,0,27.92,129.29Zm20,.85v0h0Z"/><path class="cls-36" d="M28.28,127.79c0,1.39,4.55,2.56,10.18,2.6s10.2-1.07,10.21-2.47-4.55-2.22-10.18-2.25S28.29,126.39,28.28,127.79Z"/><path class="cls-37" d="M38.36,140.93a11.17,11.17,0,0,0,11.4-10.23.56.56,0,0,0-.56-.6h0a.56.56,0,0,0-.56.52,10.26,10.26,0,0,1-20.42-.14.57.57,0,0,0-.56-.53h0a.58.58,0,0,0-.57.6A11.18,11.18,0,0,0,38.36,140.93Z"/><path class="cls-36" d="M49.34,129.32s-3.87,2.56-10.89,2.52-10.53-2.55-10.53-2.55,2.15,3.38,10.22,3.57S49.34,129.32,49.34,129.32Z"/><path class="cls-38" d="M30.49,129.29a5.13,5.13,0,0,1,2.77-1c.41.07.77.3,1.18.36.81.12,1.62-.46,2.42-.29.45.1.82.43,1.25.57,1,.35,2.16-.39,3.25-.26.52.07,1,.33,1.54.38a5.78,5.78,0,0,0,2.05-.48,3,3,0,0,1,2.53.54s-2.18,1.21-8.5,1.29S30.49,129.29,30.49,129.29Z"/></g></svg>