<svg id="Layer_1" data-name="Layer 1" xmlns="http://www.w3.org/2000/svg" viewBox="0 0 165.86 165.86"><defs><style>.cls-1{fill:#a66e54;}.cls-2{fill:#010101;}.cls-3{fill:#231f20;}.cls-4{fill:#151210;}.cls-5{fill:#4f2e25;}.cls-6{fill:#161312;}.cls-7{fill:#31160e;}.cls-8{fill:#653c29;}.cls-9{fill:#f1eef7;}.cls-10{fill:#95ccdc;}</style></defs><path class="cls-1" d="M51,57.17s-3.66-7.09-6.14-7.08c-1.51,0-5.16,4-5.12,7.9,0,5.16,3.65,11,4.54,14s.75,7.32,4.75,7.3c1.59,0,3.55-3.33,3.55-3.33S51.86,61.84,51,57.17Z"/><path class="cls-2" d="M50,64.13a33.72,33.72,0,0,0-3.22-5.63,10.79,10.79,0,0,0-2.27-2.4,3.14,3.14,0,0,0-1.19-.58,1.36,1.36,0,0,0-.84.12,1.46,1.46,0,0,0-.52.67A8.12,8.12,0,0,0,41.57,62c0,.24,1.1,0,1-.28a8.77,8.77,0,0,1-.07-4.52A5.5,5.5,0,0,1,43,56.05c0-.1.11-.2.17-.3l0-.07-.81.25c.07,0,.05,0,0,0l.22,0a3.5,3.5,0,0,1,.8.43A12.57,12.57,0,0,1,46.51,60a39.67,39.67,0,0,1,2.41,4.44c.12.26,1.13-.09,1-.28Z"/><path class="cls-2" d="M48.3,64.76c-3.11-.11-1.35,3.62-1.61,5.31a.87.87,0,0,0,0,.22c0-.05,0,.08,0,.07s.47-.07.47-.08-.39-.6-.42-.66A13.47,13.47,0,0,1,45.9,67a10.14,10.14,0,0,1-.2-3.15c.13-1.2.41-3,1.66-3.55.18-.08.4-.31.25-.51s-.51-.15-.7-.06A4.27,4.27,0,0,0,44.77,63a8.9,8.9,0,0,0-.13,2.91,18.69,18.69,0,0,0,.72,3.3,2.94,2.94,0,0,0,.9,1.62,1,1,0,0,0,1.37-.47,2.83,2.83,0,0,0,.07-1.53c-.06-.52-.75-3.41.22-3.38.24,0,.59-.07.69-.31a.3.3,0,0,0-.31-.41Z"/><path class="cls-1" d="M109.92,57.17s3.66-7.09,6.15-7.08c1.51,0,5.16,4,5.12,7.9-.06,5.16-3.65,11-4.54,14s-.75,7.32-4.75,7.3c-1.59,0-3.55-3.33-3.55-3.33S109.1,61.84,109.92,57.17Z"/><path class="cls-2" d="M112,64.2a28.93,28.93,0,0,1,3.9-6.47,8.54,8.54,0,0,1,1.33-1.29,2.28,2.28,0,0,1,.44-.3l.16-.08L118,56c.15-.07-.12,0,0,0s0,0,0,0-.06,0,0,0l-.28-.08a4.36,4.36,0,0,1,.69,1.5,8.7,8.7,0,0,1-.06,4.5c-.09.33,1,.18,1-.15a8.4,8.4,0,0,0-.2-5.36,2.51,2.51,0,0,0-.48-.86.62.62,0,0,0-.5-.08c-1.54.22-2.79,1.68-3.67,2.82A31.69,31.69,0,0,0,111,64.34c-.1.21.35.2.44.19a.78.78,0,0,0,.6-.33Z"/><path class="cls-2" d="M112.81,65.52c1.16,0,.62,2.19.53,2.83s-.54,2.76.78,2.67c.64,0,1-.67,1.21-1.19a13.4,13.4,0,0,0,.81-2.93,10.26,10.26,0,0,0,.13-3.45c-.19-1.46-.68-3.18-2.15-3.82-.46-.21-1.21.46-.59.73,1.12.5,1.48,2,1.66,3.07a8.4,8.4,0,0,1,0,2.6,18.93,18.93,0,0,1-.69,3.07,5.4,5.4,0,0,1-.4,1c0,.06-.17.18-.17.23l.12-.06c.81.24.26.06.26,0s-.1-.32-.11-.47a4.9,4.9,0,0,1,.06-.77c.07-.6.18-1.2.24-1.8a3.31,3.31,0,0,0-.18-1.74,1.46,1.46,0,0,0-1.48-.71c-.61,0-.79.83-.08.8Z"/><path class="cls-1" d="M113.46,57.13c-.51,5.61-1.6,10.85-1.85,16.72s-.75,13.57-1.66,15.76c-.47,1.12-1.92,2.12-2.8,3-4.79,4.54-10.73,9.18-16.88,11.71-2.68,1.1-9.62,1.1-9.62,1.1s-7,0-9.62-1.1c-3.77-1.55-7.17-4.3-10.51-6.6s-7.32-5-9.46-8.44c-.65-1-.58-2.47-.71-3.66-.42-3.89-.49-7.82-.66-11.73-.26-5.87-1.34-11.11-1.85-16.72s-1.15-28.95.51-33.42S69.67,7.24,80.65,7.24c7.7,0,19.69,5.91,26.72,11,3,2.16,5.08,4.16,5.58,5.49C114.61,28.18,114,51.51,113.46,57.13Z"/><path class="cls-3" d="M82.65,74c-1.5.61-2.6.63-3.58-.24-.22-.19-1,0-.68.29a4.5,4.5,0,0,0,5.12,0c.14-.1.12-.24,0-.32s-.68.18-.82.29"/><path class="cls-3" d="M77.85,73.37a7.58,7.58,0,0,0-3-.22.66.66,0,0,0-.4.23c-.06.1-.06.21.06.25a2.88,2.88,0,0,0,1.62.09.56.56,0,0,0,.43-.3c.06-.16-.12-.22-.25-.19a2.39,2.39,0,0,1-1.3-.07l-.34.48a6.72,6.72,0,0,1,2.64.2.55.55,0,0,0,.5-.16c.09-.09.17-.26,0-.31"/><path class="cls-3" d="M84.06,73.59a7.72,7.72,0,0,1,3-.25.63.63,0,0,1,.4.23c.07.09.07.2,0,.25a3,3,0,0,1-1.62.11.6.6,0,0,1-.44-.3c0-.15.12-.22.25-.19a2.3,2.3,0,0,0,1.3-.09l.35.48a6.73,6.73,0,0,0-2.64.23.55.55,0,0,1-.5-.15c-.09-.09-.17-.26,0-.32"/><path class="cls-3" d="M74,73.82a3.09,3.09,0,0,1-2.6-1.53,3.33,3.33,0,0,1,1.16-4.05c.14-.1.07-.23-.07-.27a.66.66,0,0,0-.52.14,3.83,3.83,0,0,0-1.58,3.44,3,3,0,0,0,2.24,2.5,4,4,0,0,0,1.08.19.57.57,0,0,0,.49-.2c.07-.15-.07-.22-.2-.22"/><path class="cls-3" d="M88,73.86a3.14,3.14,0,0,0,2.6-1.53,3.32,3.32,0,0,0-1.17-4c-.13-.1-.06-.23.08-.27a.66.66,0,0,1,.52.14,3.82,3.82,0,0,1,1.58,3.44,3.06,3.06,0,0,1-2.24,2.5,4.45,4.45,0,0,1-1.08.19c-.15,0-.42,0-.49-.2s.06-.22.2-.22"/><path class="cls-4" d="M74.86,55.27s-5.69,4.14-8.6,4.41c-4.25.39-9.48-1.79-11-3.73,0,0,6.92,3.25,9.91,2.89S74.86,55.27,74.86,55.27Z"/><path class="cls-4" d="M88.45,55.27s5.69,4.14,8.6,4.41c4.25.39,9.48-1.79,11-3.73,0,0-6.92,3.25-9.9,2.89S88.45,55.27,88.45,55.27Z"/><path class="cls-4" d="M73.88,44.86c0,1,0,2,0,3,0,.78,0,2.54,0,3.32-2.27-.67-4.32-1.66-5.79-1.94-2.92-.57-5.91-1.38-8.86-.9a9.49,9.49,0,0,0-3.85,1.39c-.37.24-1.38,1.31-1.94,1-.22-.11.16-1.36.2-1.49.77-2.51,2.77-3.55,5.21-4.13a39.78,39.78,0,0,1,15-.33"/><path class="cls-4" d="M89,44.1c0,1,0,2,0,3,0,.78,0,2.17,0,2.94,2.24-.66,4.17-1.45,5.62-1.73,2.87-.57,5.9-1.21,8.81-.73A9.24,9.24,0,0,1,107.18,49c.37.24,1.36,1.31,1.91,1,.22-.12-.15-1.36-.19-1.49-.77-2.51-2.73-3.55-5.14-4.13A38.53,38.53,0,0,0,89,44.1"/><path class="cls-4" d="M50.38,85.85a10.85,10.85,0,0,0,2.8,3.52c4.46,3,13.16,7.14,15.73,9.1a12.06,12.06,0,0,0,3.79,2.19A39.43,39.43,0,0,1,81,99.29a19.67,19.67,0,0,1,7.91,1.56S103.49,91.52,108,89.21c.33-.17,2.42-2.76,2.63-2.82,0,0,1.72,3.55-8.37,10.45-7,4.79-8.85,7.08-14.47,8.26s-13.37.78-16.79-.82c-5.3-2.47-17.44-11.42-19.34-13.78C50.47,89,50.38,85.85,50.38,85.85Z"/><path class="cls-4" d="M76.35,89.4,86.74,89c-.23.58-1,4.9-5.46,4.44C77.36,93,78.21,91.13,76.35,89.4Z"/><path class="cls-4" d="M104.33,9.7s-4.49-2.47-5.85-2.28a3,3,0,0,0-2,1.14S96,6.78,94.38,7a12.88,12.88,0,0,0-2.28.43S91,6.05,90.22,6.05A3.75,3.75,0,0,0,88.45,7a1.7,1.7,0,0,0-1.78-.94c-1.25.21-1.57.83-1.57.83a1.76,1.76,0,0,0-2-.86A6,6,0,0,0,81,7s-1.31-1.53-2.15-1l-.83.5s-.94-1.31-1.68-.6a7.64,7.64,0,0,1-1.25,1s-.31-.62-1.36-.42A3.61,3.61,0,0,0,72.25,7a5.46,5.46,0,0,0-1.88-.25c-.84.08-.94,1-.94,1a1.39,1.39,0,0,0-2-.77L66,7.78a11.38,11.38,0,0,0-2.82,1.09c-.94.63-.53,2.61-.53,2.61L57,17.15s8.89-6.49,23.09-6.52a55.52,55.52,0,0,1,24.9,6Z"/><path class="cls-5" d="M98,36.4s-20.22-2.83-34.06,0"/><path class="cls-4" d="M94.3,13.14c-.71-.51,1-1,0-1.12l-2.45-1.68c-2.45,0-3.58-.23-6-.15-.06,0-3.06-.2-3.13-.23a7.07,7.07,0,0,0-2.38-.4c-3.28-.17-6.5,1.79-9.79,1.81l-1.11.35a6.07,6.07,0,0,0-2.85,1,1.16,1.16,0,0,0,.23,2.05c1,.36,2.47-.26,3.16.39s-.68,1.78-.23,2.63c.29.53,1.17.7,1.74,1.08S72.39,20,73,20.5a3,3,0,0,0,2.6.38,2.23,2.23,0,0,0,.84-.51,5.14,5.14,0,0,1,.74.38c.69.45.92,1.19,1.56,1.67a3,3,0,0,0,2.59.38,1.84,1.84,0,0,0,1.41-1.68,1.18,1.18,0,0,1,0-.53c.3-.64,1.53-.26,2.46-.33a3.39,3.39,0,0,0,2.58-.32c.64-.43.87-1.07,1.56-1.46s1.45-.47,1.74-.94c.45-.73-1-1.66-.23-2.28s2.16,0,3.16-.34A1,1,0,0,0,94.3,13.14Z"/><path class="cls-4" d="M94.17,104.81c-.71-.52,1-1,0-1.13L91.74,102c-2.45,0-3.59-.24-6-.16-.07,0-3.06-.2-3.13-.23a6.91,6.91,0,0,0-2.38-.39c-3.29-.17-6.5,1.78-9.79,1.8l-1.11.35a6.11,6.11,0,0,0-2.86,1,1.16,1.16,0,0,0,.24,2c1,.36,2.47-.26,3.16.39s-.68,1.79-.23,2.63c.29.54,1.16.71,1.74,1.08s.92,1.19,1.56,1.68a3,3,0,0,0,2.59.38,2.28,2.28,0,0,0,.84-.51,5.23,5.23,0,0,1,.75.37c.68.45.91,1.19,1.55,1.68a3,3,0,0,0,2.6.38,1.85,1.85,0,0,0,1.41-1.68,1.09,1.09,0,0,1,0-.54c.3-.63,1.53-.25,2.45-.32a3.42,3.42,0,0,0,2.59-.33c.64-.42.87-1.06,1.55-1.45s1.46-.48,1.74-.94c.46-.74-1-1.67-.23-2.29s2.17,0,3.17-.33A1,1,0,0,0,94.17,104.81Z"/><path class="cls-4" d="M97.51,79.37A3.59,3.59,0,0,1,99,81.59a3.35,3.35,0,0,1-.11,1l-.33,1.5a.58.58,0,0,1-.12.28.6.6,0,0,1-.3.14,2.34,2.34,0,0,1-1.05.1.83.83,0,0,1-.7-.7,1.23,1.23,0,0,0,0-.43c-.12-.26-.49-.23-.76-.3-.69-.18-.48-2.17-.78-2.82-.41-.87-1.65-.35-2.56-.67a7.3,7.3,0,0,1-1.37-.52A1.4,1.4,0,0,1,90.13,78"/><path class="cls-4" d="M65.12,79.85a2.68,2.68,0,0,0-1.36,3.21l.33,1.5a.54.54,0,0,0,.11.28.49.49,0,0,0,.3.14,2.38,2.38,0,0,0,1,.11.85.85,0,0,0,.71-.7,1.08,1.08,0,0,1,0-.44c.11-.26.48-.23.76-.3a1.81,1.81,0,0,0,1.13-1.72c0-.62-.46-1.35.46-1.67.46-.16,2.7-.36,3.12-.62a1.38,1.38,0,0,0,.75-1.17"/><path class="cls-6" d="M105.41,10.86a7.33,7.33,0,0,0-5.94-2.5,4.68,4.68,0,0,1-2-.06c-.76-.28-1.23-1-1.88-1.49A4.71,4.71,0,0,0,91,6.68,2.2,2.2,0,0,1,89.78,7c-.63-.11-1-.76-1.38-1.24a3.2,3.2,0,0,0-3.87-.66c-.7.4-1.29,1.08-2.09,1.13-1.51.09-2.42-2.12-3.93-2-1.26.09-2.18,1.78-3.38,1.4-.58-.18-.92-.81-1.47-1.08-1.6-.77-2.94,1.86-4.72,1.91-1.25,0-2.59-1.22-3.6-.48-.35.26-.52.7-.87,1-.63.48-1.53.23-2.32.29-1.38.11-2.43,1.22-3.35,2.25L56.51,12"/><path class="cls-4" d="M106.64,10.37a8.25,8.25,0,0,0-5.85-2.67c-.54,0-1.07.07-1.6.07a2.25,2.25,0,0,1-1.74-.87,4.71,4.71,0,0,0-2.74-1.38,7.84,7.84,0,0,0-3,.28,5.34,5.34,0,0,1-1.24.42c-.29-.06-.73-.88-.95-1.09-1.38-1.37-3.65-1.34-5.33-.58-.46.21-.82.53-1.26.76-.18.1-.35.13-.17.16a1.77,1.77,0,0,1-.51-.32,9.83,9.83,0,0,0-1.92-1.42,3.72,3.72,0,0,0-2.59.06,5.45,5.45,0,0,0-1.09.52c-.17.11-.34.22-.5.34l-.37.27c-.2.15-.17.11.07-.12a3.37,3.37,0,0,0-2-1.08,4.64,4.64,0,0,0-2.61.67c-.53.3-1.34,1.25-1.93,1.35s-1.73-.64-2.49-.69A3.74,3.74,0,0,0,64,6.1c-.17.16-.31.48-.49.6.41-.27,0-.16-.3-.17a6.8,6.8,0,0,0-1.74.21c-2.68.73-4.41,3.33-6.15,5.3-.42.46.35.63.67.64A2.43,2.43,0,0,0,57.72,12c.85-.95,1.67-1.92,2.54-2.85a5.74,5.74,0,0,1,1.11-1A2.88,2.88,0,0,1,63,7.87a4.42,4.42,0,0,0,2.37-.74c.22-.15.64-.46.73-.73-.11.34-.81-.24-.12.1a5.32,5.32,0,0,0,.79.29,5.11,5.11,0,0,0,4.57-.72c.28-.19.55-.39.82-.59a2.61,2.61,0,0,1,.46-.34c.74-.29-.07,0,.07,0,.72.37,1,1,1.89,1.13A4.31,4.31,0,0,0,77,5.77a7.91,7.91,0,0,0,.86-.56,4.3,4.3,0,0,1,.51-.36c.18-.11.18-.11,0,0s-.18.14.15.22a4.73,4.73,0,0,0,3.59,1.79A5,5,0,0,0,84.41,6c.38-.25.72-.62,1.19-.65a2.27,2.27,0,0,1,1.46.74c.56.54.86,1.23,1.66,1.45a4.33,4.33,0,0,0,2.73-.43,3,3,0,0,1,3.43.63,4,4,0,0,0,2.55,1.34,16.4,16.4,0,0,1,3.43.14,7.05,7.05,0,0,1,3.33,2.12c.54.59,3-.34,2.45-1Z"/><path class="cls-7" d="M46.61,55.72S49.13,73.59,50.38,77L47.8,55.27Z"/><path class="cls-7" d="M114.75,52.61s-1.5,18-2.55,21.47l1.34-21.85Z"/><path class="cls-4" d="M113.46,57.13s-.71-20-.61-24.14S100.22,18.06,93.6,15.72s7.56-6.74,11-6.09,3.72,2.81,3.72,2.81,2.24.22,3.17,1.3l.92,1.08s2.81.65,2.92,1.95.5,4.11.5,4.11,2.23-.75,2.23,2.5.14,1.65.14,1.65,1.9,2.13,1,3.86-.64,1.52-.64,1.52a9.3,9.3,0,0,1,.83,2c.4,1.28,1.16,6.29-.19,9.32a15.73,15.73,0,0,0-1.31,6Z"/><path class="cls-4" d="M47.68,57.13s1.24-20,1.14-24.08S61.45,18.12,68.07,15.78c6.85-2.41-7.91-6.84-11.56-6.15-3.47.65-3.71,2.81-3.71,2.81s-2.25.22-3.17,1.3l-.92,1.08s-2.82.65-2.93,1.95-.49,4.11-.49,4.11-2.24-.75-2.24,2.5S42.92,25,42.92,25s-1.9,2.13-1,3.86.63,1.52.63,1.52a9.69,9.69,0,0,0-.82,2c-.4,1.28-1.17,6.29.19,9.32a16,16,0,0,1,1.31,6Z"/><path class="cls-8" d="M81.44,81.35c-5.1,0-13.37-.58-13.37-.58s1.54,9.82,13.37,9.82,13.37-9.82,13.37-9.82S86.54,81.35,81.44,81.35Z"/><path class="cls-7" d="M81.49,81.35c-2.43,0-12.21-.4-12.21-.4s3.24,5.21,12,5.21C90.8,86.16,93.6,81,93.6,81Z"/><path class="cls-9" d="M81.59,81.7c-2.42,0-9.8-.39-9.8-.39s2.65,2.58,9.93,2.58,9.59-2.51,9.59-2.51Z"/><path class="cls-8" d="M95.34,80a18.87,18.87,0,0,1-2.87.3c-2-.17-4.44-.69-5.89-.79-2.49-.19-4.06.76-5.14.76s-2.66-1-5.14-.76c-1.46.1-3.89.62-5.89.79a19,19,0,0,1-2.88-.3c-.36.09.34,2.65,13.91,2.65S95.7,80.13,95.34,80Z"/><path class="cls-10" d="M123.33,59.65S126.24,55,128.75,55s1.36,2.54-.77,3.11S123.33,59.65,123.33,59.65Z"/><path class="cls-4" d="M79.77,76.2l-.36,2.34a.82.82,0,0,1-.69.65c-2.38.33-11.43,1.57-13.59,1.54l-.15,0-.66-.13c-.8-.16.14-1.69.91-2a51.92,51.92,0,0,1,5.79-2,48.21,48.21,0,0,1,8-1.35A.82.82,0,0,1,79.77,76.2Z"/><path class="cls-4" d="M82,76.21l.67,2.4a.83.83,0,0,0,.7.65c2.38.31,11.69.72,13.6,1.41a.26.26,0,0,0,.15,0l.69-.15c.8-.16.24-1.75-.52-2a52,52,0,0,0-6.24-1.9,51.18,51.18,0,0,0-8.27-1.35A.81.81,0,0,0,82,76.21Z"/><path class="cls-10" d="M151.28,103.67c-1.67-3.1,2.62-3.34,6-6.1s-.72-5.11-8.82-5.3-15.88,2.19-16.36-1.36,5.39-5.36,3.24-9.06-8.58.6-9.77-1.31,6.68-5,8.11-9.53-2.35-6.74-6.88-4.12-7.48,4.9-5.57-3.21-3-5.54-6.15-5.07-3.81,6.44-6.19,9.78-4.29,7-5.72,2.7-9.53.56-8,4.77c.79,2.19.33,3.55.31,7A1.22,1.22,0,0,1,93.87,84a7.1,7.1,0,0,0-6,2c-1.2,1.46.05,4.37,0,6.52a1.27,1.27,0,0,1-1.12,1.22A25.86,25.86,0,0,1,78,93.2a12.69,12.69,0,0,1-2.77-.92,1.21,1.21,0,0,1-.66-.77c-.8-3-.23-7.67-.31-9.66s-3.06-1.95-4.69-.37a1.24,1.24,0,0,1-2-.71,5.08,5.08,0,0,1,.68-4.19c3-4.49.8-6.22-2.06-7.41S64,70.29,59.64,71.49,53.3,60,49.19,57.42s-4.71,1.91-5,5.72,1.27,7.15-3.74,4.53-13.1,1.12-13.81,5.17,10.47,4.37,10.71,7.47-3.1,1.66-8.1,1.54-1.67,5.85,0,7.75,2.48,7.05-5.39,4.54S9.25,91.74,8,97.57c-.59,2.79,1.32,3.87,3.47,4.24a1.24,1.24,0,0,1,.36,2.34l-1.37.69c-4.92,2.45-7,10.23,0,12.69s33.16-4.09,40.55-2.87,18.4,9,29.46,9.83c10.42.77,21.56-4.35,22.81-4.94a1.69,1.69,0,0,1,.24-.08c1.8-.42,22.52-5.19,28.9-2.45,6.68,2.86,27.18,2.62,28.85-3.82S152.94,106.77,151.28,103.67Zm-69.57-1c-2.54.16-9.17.09-11.91-3.32a1.25,1.25,0,0,1,1.41-2,28.38,28.38,0,0,0,13.53,1.84C93.13,98.1,84.86,102.49,81.71,102.7Zm15.84,11.57a40.6,40.6,0,0,1-6.46,1.44,1.25,1.25,0,0,1-.4-2.46c2.77-.57,5.92-1.23,7.46-1.65C101.23,110.77,100.56,113.27,97.55,114.27Z"/><path class="cls-1" d="M66.2,88.66a2.13,2.13,0,0,0-1.64-2.32,11.68,11.68,0,0,0,.86-1.62c.32-1.3.74-4.34-1.85-5.62H61.19s.47-1.65-1.91-1.65S55,80.79,55,80.79a5.93,5.93,0,0,0-4.06.72C50.06,82,47,85.7,43.6,90c0,0,.88-5.38-1.19-6.5s-2.84,0-3.82,4-3.84,7.13-4.34,11.68a53.52,53.52,0,0,1-1.19,6.46h0c-1.77,6.5-2.14,22.07-3.85,25.06-1.28,2.24-8.47,6.07-13.2,9.92-3.26,2.65-7.43,5.65-7.21,9.85,0,.1,0,.2,0,.31.71,10.77,17.27,14,22.77,4.68l11.46-15.93s8.35-7.4,9.78-10.74,3.11-16.94,4.78-19.8S66.06,92.14,66.2,88.66Z"/><path class="cls-7" d="M50.62,107.18A83.44,83.44,0,0,1,55.84,97c2.56-4,6.85-9.52,8-9.75L65,87s.35-.93-1.28-.58S57.24,93.6,55.38,96,51,103,50.62,107.18Z"/><path class="cls-7" d="M55,80.79c-1.1.9-5.7,7.1-8.25,11a81.9,81.9,0,0,0-5.22,10.21c.34-4.18,2.9-8.7,4.75-11.14s6.67-9.83,8.3-10.18"/><path class="cls-7" d="M61.22,78.77c-1.62.34-9.16,12.06-11,14.49s-4.41,7-4.76,11.14a84.21,84.21,0,0,1,5.22-10.21c2.56-3.94,9.94-14.86,11.1-15.09"/><path class="cls-7" d="M43.6,90s-9.14,11-10.71,16.29l.43-2S38.07,94.07,43.6,89.12Z"/><path class="cls-1" d="M95.85,88.66l1-3.34s-1.67-4.57,1.67-6.22h2.38s-.47-1.65,1.91-1.65,4.3,3.34,4.3,3.34a5.9,5.9,0,0,1,4.05.72c.87.53,4,4.19,7.33,8.45,0,0-.88-5.38,1.19-6.5s2.84,0,3.82,4,3.84,7.13,4.34,11.68A53.52,53.52,0,0,0,129,105.6h0c1.77,6.5,2.14,22.07,3.85,25.06,1.28,2.24,9.72,9.5,14.46,13.35,3.26,2.66,5.11,3.28,4.89,7.48,0,.1,0,.21,0,.31-.72,10.78-16.21,12.92-21.71,3.62L119,139.49s-8.35-7.4-9.78-10.74-3.11-16.94-4.78-19.8S94.9,92,95.85,88.66Z"/><path class="cls-7" d="M111.43,107.18A83.44,83.44,0,0,0,106.21,97c-2.56-4-6.85-9.52-8-9.75L97,87s-.35-.93,1.28-.58,6.49,7.19,8.35,9.63S111.08,103,111.43,107.18Z"/><path class="cls-7" d="M107.49,80.73c1.63.35,6.44,7.74,8.3,10.18s4.41,7,4.75,11.14a83.44,83.44,0,0,0-5.22-10.21c-2.55-4-7.16-10.15-8.25-11"/><path class="cls-7" d="M100.83,78.77c1.62.34,9.16,12.06,11,14.49s4.41,7,4.76,11.14a84.21,84.21,0,0,0-5.22-10.21c-2.56-3.94-9.94-14.86-11.1-15.09"/><path class="cls-7" d="M118.45,90s9.13,11,10.71,16.29l-.43-2S124,94.07,118.45,89.12Z"/><path class="cls-10" d="M22.39,78.3a10.76,10.76,0,0,0-9.32-2c-5.78,1.29-6.29,6.86-4,7.57C14.15,85.45,14.45,79,22.39,78.3Z"/><path class="cls-10" d="M140.54,87.8a10.78,10.78,0,0,1,7-6.51c5.61-1.89,8.92,2.6,7.31,4.41C151.3,89.64,147.71,84.31,140.54,87.8Z"/><path class="cls-10" d="M111.05,57.72a5.37,5.37,0,0,1,.83-4.67c1.67-2.43,4.33-1.64,4.23-.43C115.89,55.24,112.87,54.18,111.05,57.72Z"/><path class="cls-10" d="M57.44,67.48a3.85,3.85,0,0,0,.88-3.27C58,62.13,56,61.84,55.71,62.65,55.06,64.41,57.33,64.65,57.44,67.48Z"/><path class="cls-10" d="M108.34,67.3A3.84,3.84,0,0,1,106,64.87c-.72-2,.86-3.19,1.51-2.63C108.92,63.46,107.05,64.77,108.34,67.3Z"/><path class="cls-10" d="M49,56.19a3.82,3.82,0,0,0-.84-3.28c-1.33-1.64-3.18-.92-3-.07C45.41,54.69,47.5,53.77,49,56.19Z"/><path class="cls-10" d="M33.46,60.23s-2.9-4.64-5.41-4.64-1.36,2.53.77,3.1S33.46,60.23,33.46,60.23Z"/><path class="cls-10" d="M26.62,123.28s-5.47-.34-6.93,1.71,1.27,2.57,3,1.17S26.62,123.28,26.62,123.28Z"/><path class="cls-10" d="M101.68,126s4.9,2.16,5.25,4.6-2.27,1.66-3.12-.32S101.68,126,101.68,126Z"/><path class="cls-10" d="M131.49,61.32s6.61-5.08,10.2-3.74.58,4.34-2.76,4S131.49,61.32,131.49,61.32Z"/></svg>