<svg id="Layer_1" data-name="Layer 1" xmlns="http://www.w3.org/2000/svg" viewBox="0 0 165.86 165.86"><defs><style>.cls-1{fill:#ccb631;}.cls-2{fill:#242f34;}.cls-3{fill:#89762e;}.cls-4{fill:#a66e54;}.cls-5{fill:#4f2e25;}.cls-6{fill:#ce8d2a;}.cls-7{fill:#010101;}.cls-8{fill:#878787;}.cls-9{fill:#13110f;}.cls-10{fill:#853324;}.cls-11{fill:#622515;}.cls-12{fill:#653c29;}.cls-13{fill:#31160e;}.cls-14{fill:#f1eef7;}.cls-15{fill:#273339;}.cls-16{fill:#fff;opacity:0.14;}</style></defs><path class="cls-1" d="M42,150.34l6.28-31.47-6.09-35.8S35.5,83.65,32,94.47c-3.17,12-8.89,50.53-8.45,58.17.12,2.23.72,6.22,1.71,12.61H42.65Z"/><path class="cls-2" d="M57.48,79.28l-1.7,15.37-2.72,24.54-.64,5.7c0,.19.62.07.64-.1l1.7-15.37,2.72-24.54.63-5.7c0-.2-.61-.07-.63.1Z"/><path class="cls-1" d="M132.06,97.41l-5.18,17.16L119.5,90.75c-.85-3.19-3.07-7.49-6.18-8.59l-7.77-1.88-5.27,28.09,11.55,28.29c1.07,2.61,4.73,6.88,7.28,8.09,4.69,2.29,10.53,3.57,14.79.69a18.72,18.72,0,0,0,3.94-5.07c1.92-3.68,4-14.26,4.38-18.4l2.87-22.69Z"/><path class="cls-1" d="M114.09,160.65a27.05,27.05,0,0,0-1.88-5,18.39,18.39,0,0,1-1-4.65c-1-8.08-1.43-11.73-.83-15.65.42-2.77,5.32-7.39,7.13-12.69,1.59-4.65-4.2-40.55-4.2-40.55L96.64,76.29l-4.3-1.41L92,74.72a2,2,0,0,0,0,.63l0,.34a13.73,13.73,0,0,1-10.57,6,37.66,37.66,0,0,1-4.62,0,15.52,15.52,0,0,1-11.77-6l.31-.09-6.56.69-9.31,3.09a41.56,41.56,0,0,0-5.26,2.17l-5.22,2.59-1.52,29.42c.41,6.52-.37,9.35,2.72,15.28l4.46,6.1-1,15.74a124.49,124.49,0,0,1-4.48,14.57h75.59C114.52,163.87,114.37,162,114.09,160.65Z"/><path class="cls-3" d="M85.37,135.78A18.8,18.8,0,0,0,77,134.12c-4.64.22-6.08.82-6.08.82s6.35-.06,8.19-.3S85.37,135.78,85.37,135.78Z"/><path class="cls-1" d="M41.08,165.25s1.32-10.39,7.81-18.38h57.79s6.32,11.84,7,18.51Z"/><path class="cls-4" d="M89.26,73.12c-.24-.74,0-8.63,0-8.63l-11.66,1.8-11.66-1.8s.23,8.71,0,9.45-7,2.35-7,2.35S62.43,84,77.57,84s19.07-7.67,19.07-7.67S89.49,73.86,89.26,73.12Z"/><path class="cls-4" d="M135.2,95.31s-2.54-5.71-2.28-8.6c.07-.81-1.93-8.07-1.93-8.07s1.63-1.2,2.95,1.55,1.79,3.89,1.79,3.89l.71.58,3.14-4s2.8-5.17,3.59-6.35,2.37-3.8,4.13-3.31c0,0,1-2,2-1.63a1.62,1.62,0,0,1,1.14,1l-.24,1.07s.5-.41,1.24.41-2.94,9.8-2.94,9.8l.13.6s3.43-5.59,4-5.47,1.12.15.93,1.2S148.14,91.57,144,96.71l-.81,2.3-8.89-1.27Z"/><path class="cls-5" d="M149.76,71.61a31.09,31.09,0,0,1-1.93,4.62,31.17,31.17,0,0,1-2.29,4.45,30.61,30.61,0,0,1,1.92-4.62A32.29,32.29,0,0,1,149.76,71.61Z"/><path class="cls-5" d="M147.49,71c.09.06-1,2-2.17,4.37s-2,4.43-2.14,4.39A19.67,19.67,0,0,1,145,75.22,18.67,18.67,0,0,1,147.49,71Z"/><path class="cls-5" d="M137.91,84.75A10.33,10.33,0,0,1,143,92S142.65,84.73,137.91,84.75Z"/><path class="cls-3" d="M127.09,114.23s-4.69,10.5-5.07,15.48l-.6-1.23S123.71,117.57,127.09,114.23Z"/><path class="cls-3" d="M44.74,134.94c-.4-.91-1-1-3.93-4.55s-2-10.36-1.09-14.07c.51-2.08,1.66-5.9,2.58-8.89s1.78-7,.16-9.75a9.93,9.93,0,0,1,1.11,5.78,45.22,45.22,0,0,1-1.41,6.59c-.54,2.29-1.22,3.85-1.78,6.13a27.84,27.84,0,0,0-.89,7.82,13.17,13.17,0,0,0,3,7.42c.91,1.13,2.48,2.17,3.1,3.49a23.44,23.44,0,0,1-1.2,5.9Z"/><path class="cls-3" d="M110.39,135.4c.4-.91,1-1,3.93-4.56s2-10.35,1.09-14.06c-.82-3.36-2.11-6.58-2.91-9.93-.69-2.89-1.19-6.32.27-9.06a9.67,9.67,0,0,0-1.22,6.36c.75,5.44,2.48,8.89,3.67,14.23a23.54,23.54,0,0,1,.11,8.2,15.73,15.73,0,0,1-4.51,7.32,5.85,5.85,0,0,0-1.25,1.47,24.17,24.17,0,0,0,.49,4.39l.06.25Z"/><path class="cls-5" d="M65.38,66.51c.19.13,1.58,1.85,1.78,2,4.91,3.28,5.64,4.17,9.88,4.33,4.24-.16,6.06-.71,10.62-4.72,1.53-1.35,1.2-1.8,1.53-2C81.58,66,73,66.45,65.38,66.51Z"/><path class="cls-4" d="M57.79,43.41s-2.16-3.32-3.38-3.19c-.75.08,1,1.76,1.19,3.66.28,2.54-1.6,2.87-1,4.31s1.35,6.46,3.33,6.25c.78-.09,1.58-1.82,1.58-1.82S58.44,45.67,57.79,43.41Z"/><path class="cls-6" d="M58.32,52.75a1.9,1.9,0,0,0-1.75,1.6,1.64,1.64,0,0,0,.31,1.13,1.42,1.42,0,0,0,.72.53,2,2,0,0,0,1.84-.24c.11-.07.16-.22,0-.3a.4.4,0,0,0-.43,0,1.18,1.18,0,0,1-1.08.11l-.1,0,0,0-.12-.07a.73.73,0,0,1-.22-.21,1.34,1.34,0,0,1,0-1.65l.15-.17.1-.08.08-.05a1.08,1.08,0,0,1,.48-.15c.13,0,.31-.09.33-.24s-.16-.2-.27-.19Z"/><path class="cls-4" d="M96.21,43.59s1.82-3.52,3.05-3.51c.75,0-.79,1.85-.81,3.76,0,2.56,1.87,2.7,1.43,4.19s-.7,6.56-2.69,6.55c-.78,0-1.76-1.65-1.76-1.65S95.8,45.91,96.21,43.59Z"/><path class="cls-4" d="M97.65,45.39h0c-.44,2.22-1,4.56-1.35,7.25-1,7.08-2.17,11.62-7.59,14.13S82.39,71,78,71.16c-4.35-.17-6-1.48-11.59-3.66-5.16-2-6.79-7.77-7.78-14.85-.22-1.58-.49-3-.77-4.43-.21-1-.42-2-.61-3v-.05h0a23.73,23.73,0,0,1-.17-10.79c1-4.1,4.37-9.19,9.53-12.4h0a20.35,20.35,0,0,1,10.83-3.13c11.18,0,18.82,9,20.38,15.53C98.82,38.42,98.37,41.76,97.65,45.39Z"/><path class="cls-7" d="M78.92,55.41a2,2,0,0,1-2.06-.1c-.13-.1-.56,0-.38.14a2.76,2.76,0,0,0,2.8.08c.08-.05.07-.12,0-.15a.38.38,0,0,0-.33,0"/><path class="cls-7" d="M76.19,55.25a4.42,4.42,0,0,0-1.52-.38.4.4,0,0,0-.23.08s0,.09,0,.12a1.62,1.62,0,0,0,.84.19.3.3,0,0,0,.25-.1c0-.07,0-.11-.11-.11a1.41,1.41,0,0,1-.67-.16l-.23.2a3.73,3.73,0,0,1,1.36.34.32.32,0,0,0,.27,0c.06,0,.12-.11,0-.15"/><path class="cls-7" d="M74.13,55.31a1.67,1.67,0,0,1-1.37-.73,1.52,1.52,0,0,1,.61-2c.07,0,0-.11,0-.13a.37.37,0,0,0-.27.07,1.78,1.78,0,0,0-.84,1.66,1.53,1.53,0,0,0,1.19,1.21,2.71,2.71,0,0,0,.57.09c.08,0,.22,0,.26-.1s0-.1-.11-.11"/><path class="cls-7" d="M79.54,55.25a4.31,4.31,0,0,1,1.51-.38.36.36,0,0,1,.23.08s.06.09,0,.12a1.59,1.59,0,0,1-.83.19.31.31,0,0,1-.26-.1c0-.07,0-.11.11-.11a1.41,1.41,0,0,0,.67-.16l.23.2a3.63,3.63,0,0,0-1.35.34.34.34,0,0,1-.28,0c-.06,0-.12-.11,0-.15"/><path class="cls-7" d="M81.59,55.31A1.69,1.69,0,0,0,83,54.58a1.54,1.54,0,0,0-.62-2c-.07,0,0-.11,0-.13a.37.37,0,0,1,.27.07,1.78,1.78,0,0,1,.84,1.66,1.53,1.53,0,0,1-1.19,1.21,2.71,2.71,0,0,1-.57.09c-.08,0-.22,0-.26-.1s0-.1.11-.11"/><path class="cls-8" d="M82.77,38.82c0,.4,0,.8,0,1.21s0,.61,0,.92c1.12-.27,2.07-.44,2.8-.55a10.41,10.41,0,0,1,3.2-.23,9.42,9.42,0,0,1,2,.58,5.91,5.91,0,0,1,1.07.52c.76.5,1.07,1.06,1.19,1s-.07-.54-.09-.59a4.79,4.79,0,0,0-1.62-2,6.16,6.16,0,0,0-2.06-.86,23.76,23.76,0,0,0-6.54,0"/><path class="cls-9" d="M86.64,43.68a1.38,1.38,0,0,1,1.48.26,1.35,1.35,0,0,1,.4.62,1.37,1.37,0,0,1-.32,1.24,1.27,1.27,0,0,1-1.46.26,1.41,1.41,0,0,1-.69-1.63,1.27,1.27,0,0,1,.59-.75"/><path class="cls-9" d="M82.54,45.57s2.76-2,4.17-2.14c2.05-.19,4.59.87,5.32,1.81,0,0-3.36-1.58-4.8-1.41A24.73,24.73,0,0,0,82.54,45.57Z"/><path class="cls-8" d="M72.83,38.86c0,.4,0,.8,0,1.21s0,.61,0,.92c-1.12-.26-2.08-.44-2.8-.55a10.42,10.42,0,0,0-3.2-.23,8.58,8.58,0,0,0-2,.59,4.83,4.83,0,0,0-1.07.51c-.76.5-1.07,1.06-1.19,1s.07-.54.09-.59a4.88,4.88,0,0,1,1.61-2,6.28,6.28,0,0,1,2.07-.86,23.76,23.76,0,0,1,6.54,0"/><path class="cls-9" d="M69,43.72a1.35,1.35,0,0,0-1.47.27,1.22,1.22,0,0,0-.4.62,1.35,1.35,0,0,0,.32,1.24,1.27,1.27,0,0,0,1.45.25,1.4,1.4,0,0,0,.69-1.63,1.22,1.22,0,0,0-.59-.75"/><path class="cls-9" d="M73.06,45.61s-2.76-2-4.17-2.14c-2.06-.19-4.59.87-5.32,1.81,0,0,3.35-1.57,4.8-1.4A24.46,24.46,0,0,1,73.06,45.61Z"/><path class="cls-10" d="M53.9,26.7a40.64,40.64,0,0,1,21-3c11.77,1.49,19.28,5.91,21.27,11.21s1.54,13.14,1.54,13.14,1.68,2,3.79-8.77C104.54,23.56,87.36,9.7,83.54,9.7S59.37,9.12,53.9,26.7Z"/><path class="cls-10" d="M56,22.11S54,9.72,62.58,7.4,89.09.92,94.34,12.23Z"/><path class="cls-11" d="M55.57,47.56a7.56,7.56,0,0,1-1.88-3.22C52.74,41,51.08,34.08,52.61,31c.66-1.33.93-5.31,1-6.49.33-6.13-1.12-4.25,7.5-11.22s10.11-5,23.05-4.22,16.64,5,15.64,17.14c0,0-21.31-4.93-29.52-.49S54.83,36.24,57.71,49.54A16.57,16.57,0,0,1,55.57,47.56Z"/><path class="cls-10" d="M99.68,20.62s-15.21-5.53-21-6,18.43.45,20.76,3.09Z"/><path class="cls-6" d="M96.71,53.28a1.43,1.43,0,0,1,1.22,2.12,1.37,1.37,0,0,1-.15.21l0,0,0,0h0l-.08.06,0,0-.09,0a.85.85,0,0,1-.38.12,1.2,1.2,0,0,1-.71-.16.49.49,0,0,0-.39,0s-.28.14-.17.2a2,2,0,0,0,1.65.1,1.88,1.88,0,0,0,.76-.44,1.59,1.59,0,0,0,0-2.16A1.8,1.8,0,0,0,97,53a.57.57,0,0,0-.4.15c-.08.11.07.14.15.14Z"/><path class="cls-12" d="M78,59.26c-3.22,0-8.43-.37-8.43-.37s1,6.19,8.43,6.19,8.43-6.19,8.43-6.19S81.2,59.26,78,59.26Z"/><path class="cls-13" d="M78,59.26c-1.53,0-7.69-.26-7.69-.26s2,3.29,7.57,3.29c6,0,7.76-3.24,7.76-3.24Z"/><path class="cls-14" d="M78.08,59.48c-1.53,0-6.19-.25-6.19-.25s1.68,1.63,6.27,1.63,6-1.59,6-1.59Z"/><path class="cls-12" d="M86.75,58.43a13,13,0,0,1-1.82.19c-1.26-.11-2.79-.43-3.71-.5-1.57-.12-2.56.48-3.24.48s-1.68-.6-3.24-.48c-.92.07-2.45.39-3.72.5a12.59,12.59,0,0,1-1.81-.19c-.23,0,.21,1.67,8.77,1.67S87,58.48,86.75,58.43Z"/><path class="cls-8" d="M59.08,35.56s14.55-3.2,17.24-7.25c-.29.44,2.28,2.25,2.52,2.38,2.63,1.5,5.78,1.13,8.5.1a5.67,5.67,0,0,0,2.24-2s2.45,5.41,6.57,6.15A20,20,0,0,0,78.5,24.23S69,21.88,59.08,35.56Z"/><path class="cls-5" d="M86.31,34.68s-4.93,1-9,1.4a19.66,19.66,0,0,1-8.18-1.3S79.68,36.07,86.31,34.68Z"/><path class="cls-15" d="M58.8,42.88l.76,2a29.19,29.19,0,0,0,2.36,5.6c.83,1.2,9.69,1.49,11.4.48s2.59-5.91,3-7l3.55.12c.34,1.46,1.55,6.06,2.23,6.67s4.74.42,5.2.4L88.81,51c1.53-.14,3.38-.43,3.94-1,.84-.83,1.7-3.94,2.44-6.89l.12-.46a2,2,0,0,0,.06-.22h0l.14-.54c-5.15-2.24-11.83-1.71-15.82,1.24l0,.06-3.46-.14c-4-2.42-11.59-3.74-16.37-1.84h0l-4.64,3.68,0,1.28Zm23.73,7.39c-.43-.38-1.38-3.6-2-6.12,3.48-2.5,9.5-3,14.09-1.21V43c-.4,1.58-1.45,5.78-2.27,6.6s-9,1.26-9.79.67ZM63,50.17a42.66,42.66,0,0,1-3.07-7.29c4.24-2,11.74-1.06,15.59,1.23-.56,2-1.26,5.63-2.49,6.35-1.77,1-9.51.46-10-.29Z"/><path class="cls-16" d="M82.61,50.2c-.43-.38-1.37-3.6-2-6.11,3.48-2.5,9.49-3,14.09-1.22v.07c-.4,1.58-1.45,5.78-2.27,6.6s-9,1.26-9.8.68Z"/><path class="cls-16" d="M63,50.17a42.66,42.66,0,0,1-3.07-7.29c4.24-2,11.74-1.06,15.59,1.23-.56,2-1.26,5.63-2.49,6.35-1.77,1-9.51.46-10-.29Z"/><polygon class="cls-15" points="95.5 41.94 98.57 44.91 98.41 45.99 95.14 43.02 95.5 41.94"/><path class="cls-3" d="M42.28,156.12s-2.54,6.73-3,9.13C39.25,165.25,38.66,159.82,42.28,156.12Z"/></svg>