<svg xmlns="http://www.w3.org/2000/svg" xmlns:xlink="http://www.w3.org/1999/xlink" viewBox="0 0 165.86 165.86"><defs><style>.cls-1,.cls-16,.cls-18,.cls-19,.cls-20,.cls-26,.cls-33{fill:none;}.cls-2{fill:#9db064;}.cls-3{fill:#e0e0e0;}.cls-4{fill:#eee0ce;}.cls-5{fill:#e1d2c2;}.cls-6{fill:#b5b5b6;}.cls-7{fill:#8b8c8b;}.cls-8{fill:#9ca09c;}.cls-9{fill:#cccccb;}.cls-10,.cls-30{fill:#fff;}.cls-10{stroke:#4c4c4d;}.cls-10,.cls-16,.cls-18,.cls-19,.cls-20,.cls-21,.cls-26,.cls-33{stroke-miterlimit:10;}.cls-10,.cls-18{stroke-width:0.27px;}.cls-11{fill:#7e7f7f;}.cls-12{fill:#bca573;}.cls-13{fill:#dbc694;}.cls-14,.cls-21{fill:#765522;}.cls-15{fill:#533b18;}.cls-16,.cls-18{stroke:#6b6b6b;}.cls-16{stroke-width:0.26px;}.cls-17{fill:#848484;}.cls-19{stroke:#9ca09c;stroke-width:0.31px;}.cls-20,.cls-21{stroke:#533b18;stroke-width:0.61px;}.cls-22{clip-path:url(#clip-path);}.cls-23{fill:#6a4b21;}.cls-24{fill:#9e9d9e;}.cls-25{clip-path:url(#clip-path-2);}.cls-26{stroke:#7f7f7f;stroke-width:1.11px;}.cls-27{fill:#c12026;}.cls-28{fill:#7c1317;}.cls-29{fill:#bfbfc1;}.cls-31{fill:#956243;}.cls-32{fill:#ceb066;}.cls-33{stroke:#927b46;stroke-width:0.48px;}.cls-34{fill:#3f261c;}.cls-35{fill:#070808;}.cls-36{fill:#13110f;}.cls-37{fill:#184449;}.cls-38{fill:#2b636d;}.cls-39{fill:#231f20;}.cls-40{fill:#010101;}.cls-41{fill:#653c29;}.cls-42{fill:#31160e;}.cls-43{fill:#f1eef7;}.cls-44{fill:#96963a;}.cls-45{fill:#92b4b8;}.cls-46{fill:#ae7462;}.cls-47{fill:#527f80;}.cls-48{fill:#3c7f8e;}.cls-49{fill:#265157;}.cls-50{fill:#9ed0e3;}</style><clipPath id="clip-path"><rect class="cls-1" x="-207.87" y="200.42" width="166.13" height="165.79"/></clipPath><clipPath id="clip-path-2"><polygon class="cls-1" points="-286.81 81.8 -411.26 167.38 173.86 167.38 39.6 81.8 -286.81 81.8"/></clipPath></defs><g id="Layer_1" data-name="Layer 1"><path class="cls-2" d="M159.5,138.72c.72-3.38,3.44-8-.16-10.74-4.51-3.47-13.77-4.06-19.37-3.2a4.59,4.59,0,0,1-3.89-1.11H30.72c-7.47,0-28.83,3.73-26.83,12.31,1.75,7.52,5.11,8.93,7.45,10.12,3.68,1.88,7.27,4.3,9,7.78.78,1.56,1.1,3.35,2.26,4.7,7,8.09,30.09,4.73,34.82,4.41,7.49-.5,11.57-3.76,19.08-3.9,13.74-.27,26.57-1,40.06.53,12.87,1.41,26.91,1.9,38.94-3.16C165.8,152.14,158,146,159.5,138.72Z"/><path class="cls-3" d="M143,147.1l-82.05,9.79A12.28,12.28,0,0,1,50.5,153L27.12,123.67l96.82-4.1,20.74,21.78A3.26,3.26,0,0,1,143,147.1Z"/><polygon class="cls-4" points="129.23 137.81 98.34 111.74 98.34 21.42 131.16 21.42 129.23 137.81"/><polygon class="cls-5" points="98.34 20.96 98.34 111.74 46.65 117.08 47.87 20.88 98.34 20.96"/><polygon class="cls-6" points="62.64 138.06 129.94 129.25 98.35 111.39 50.19 114.97 62.64 138.06"/><polygon class="cls-7" points="125.44 135.76 63.5 141.88 63.5 134.85 125.44 128.9 125.44 135.76"/><polygon class="cls-8" points="128.98 143.34 67.04 150.63 67.04 144.99 128.98 137.81 128.98 143.34"/><polygon class="cls-9" points="128.98 137.81 67.04 144.99 63.5 141.88 125.27 134.46 128.98 137.81"/><polygon class="cls-7" points="63.5 141.88 63.5 147.17 67.04 150.63 67.04 144.99 63.5 141.88"/><path class="cls-10" d="M106.91,124.9l-30.64,3A7.1,7.1,0,0,1,71,126.18l-5.39-4.36-1.93-2a1.64,1.64,0,0,1,1-2.76l.93-.1,26.44-2.35a7.55,7.55,0,0,1,4.69,1.24l10.64,7.08A1.09,1.09,0,0,1,106.91,124.9Z"/><path class="cls-8" d="M128.79,8.49a3.14,3.14,0,0,0,1,.17,3.38,3.38,0,0,0,3.44-3.33Z"/><path class="cls-8" d="M120.6,5.18,99.75,16.51l4.86.08,18.08-8.23A3.38,3.38,0,0,1,120.6,5.18Z"/><path class="cls-8" d="M126.78,5.26l-4.67,3.06,0,0-17.79,8.22H104l-1.52,1,7.73.83,18.89-9.87A3.37,3.37,0,0,1,126.78,5.26Z"/><path class="cls-8" d="M133.25,5.36,112.4,16.69l4.87.08,18.08-8.23A3.39,3.39,0,0,1,133.25,5.36Z"/><path class="cls-11" d="M122.32,8.17s4.34.71,4.46-2.91l-4.46,2.91"/><path class="cls-11" d="M128.64,8.31s3.63,1.62,4.58-2.95l-4.45,2.91"/><path class="cls-8" d="M116.14,8.28a3.14,3.14,0,0,0,1,.17,3.38,3.38,0,0,0,3.44-3.33Z"/><path class="cls-8" d="M108,5,87.09,16.3l4.87.08L110,8.15A3.37,3.37,0,0,1,108,5Z"/><path class="cls-8" d="M114.13,5.05l-4.68,3.06,0,0L91.7,16.35h-.32l-1.53,1,7.73.84,18.9-9.87A3.37,3.37,0,0,1,114.13,5.05Z"/><path class="cls-8" d="M120.6,5.15,99.75,16.48l4.87.07,18.07-8.23A3.38,3.38,0,0,1,120.6,5.15Z"/><path class="cls-11" d="M109.67,8s4.34.71,4.46-2.91L109.67,8"/><path class="cls-11" d="M116,8.1s3.63,1.62,4.58-2.95l-4.45,2.91"/><path class="cls-8" d="M103.48,8.08a3.54,3.54,0,0,0,1,.18,3.38,3.38,0,0,0,3.43-3.33Z"/><path class="cls-8" d="M95.29,4.77,74.44,16.1l4.87.08L97.39,8A3.39,3.39,0,0,1,95.29,4.77Z"/><path class="cls-8" d="M101.47,4.85,96.8,7.92h0l-17.8,8.22h-.33l-1.52,1,7.73.83,18.9-9.87A3.38,3.38,0,0,1,101.47,4.85Z"/><path class="cls-8" d="M108,5,87.09,16.28l4.87.08L110,8.13A3.37,3.37,0,0,1,108,5Z"/><path class="cls-11" d="M97,7.76s4.33.71,4.45-2.91L97,7.76"/><path class="cls-11" d="M103.33,7.91s3.63,1.61,4.59-3l-4.46,2.92"/><path class="cls-8" d="M90.83,7.87a3.47,3.47,0,0,0,1,.18,3.38,3.38,0,0,0,3.43-3.33Z"/><path class="cls-8" d="M82.64,4.56,61.79,15.89l4.87.08L84.73,7.74A3.4,3.4,0,0,1,82.64,4.56Z"/><path class="cls-8" d="M88.82,4.64,84.15,7.71h0L66.4,15.94h-.33l-1.52,1,7.73.83L91.18,7.9A3.37,3.37,0,0,1,88.82,4.64Z"/><path class="cls-8" d="M95.29,4.74,74.44,16.07l4.87.08L97.39,7.92A3.39,3.39,0,0,1,95.29,4.74Z"/><path class="cls-11" d="M84.37,7.55s4.33.71,4.45-2.91L84.37,7.55"/><path class="cls-11" d="M90.68,7.7s3.63,1.61,4.58-3L90.81,7.66"/><path class="cls-8" d="M103.15,8.24a3.47,3.47,0,0,0,1,.18,3.39,3.39,0,0,0,3.44-3.33Z"/><path class="cls-8" d="M95,4.93,74.1,16.26l4.87.08L97.05,8.11A3.38,3.38,0,0,1,95,4.93Z"/><path class="cls-8" d="M101.14,5,96.47,8.08h0l-17.8,8.22h-.32l-1.53,1,7.74.83,18.89-9.87A3.36,3.36,0,0,1,101.14,5Z"/><path class="cls-8" d="M107.61,5.11,86.76,16.44l4.87.08L109.7,8.29A3.4,3.4,0,0,1,107.61,5.11Z"/><path class="cls-11" d="M96.68,7.92S101,8.63,101.14,5L96.68,7.92"/><path class="cls-11" d="M103,8.07s3.63,1.61,4.58-3L103.13,8"/><path class="cls-8" d="M90.5,8a3.14,3.14,0,0,0,1,.17,3.38,3.38,0,0,0,3.44-3.32Z"/><path class="cls-8" d="M82.3,4.72,61.45,16.05l4.87.08L84.4,7.9A3.39,3.39,0,0,1,82.3,4.72Z"/><path class="cls-8" d="M88.48,4.8,83.81,7.87h0L66.06,16.1h-.32l-1.53,1,7.73.83,18.9-9.87A3.4,3.4,0,0,1,88.48,4.8Z"/><path class="cls-8" d="M95,4.9,74.1,16.23l4.87.08L97.05,8.08A3.38,3.38,0,0,1,95,4.9Z"/><path class="cls-11" d="M84,7.71s4.33.71,4.45-2.91L84,7.71"/><path class="cls-11" d="M90.35,7.86s3.63,1.61,4.58-3L90.48,7.81"/><path class="cls-8" d="M77.84,7.83a3.47,3.47,0,0,0,1,.18,3.38,3.38,0,0,0,3.43-3.33Z"/><path class="cls-8" d="M69.65,4.53l-20.91,15,4.87.07L71.75,7.7A3.37,3.37,0,0,1,69.65,4.53Z"/><path class="cls-8" d="M75.83,4.6,71.16,7.67h0L53.35,19.59H53l-1.52,1,7.79-2.85,18.9-9.87A3.36,3.36,0,0,1,75.83,4.6Z"/><path class="cls-8" d="M82.3,4.7,61.45,16l4.87.08L84.4,7.88A3.39,3.39,0,0,1,82.3,4.7Z"/><path class="cls-11" d="M71.38,7.51s4.33.71,4.45-2.91L71.38,7.51"/><path class="cls-11" d="M77.69,7.66s3.63,1.61,4.59-3L77.82,7.62"/><path class="cls-8" d="M65.19,7.62a3.47,3.47,0,0,0,1,.18A3.38,3.38,0,0,0,69.6,4.47Z"/><path class="cls-8" d="M57,4.31,31.12,22.93,36,23,59.09,7.49A3.38,3.38,0,0,1,57,4.31Z"/><path class="cls-8" d="M63.18,4.39,58.51,7.46h0L40.7,19.38h-.33l-1.52,1,7.73.83,19-13.55A3.36,3.36,0,0,1,63.18,4.39Z"/><path class="cls-8" d="M69.65,4.49l-20.91,15,4.87.08L71.75,7.67A3.39,3.39,0,0,1,69.65,4.49Z"/><path class="cls-11" d="M58.73,7.3s4.33.71,4.45-2.91L58.73,7.3"/><path class="cls-11" d="M65,7.45s3.63,1.61,4.58-3L65.17,7.41"/><polygon class="cls-12" points="36.42 125.18 35.66 25.15 54.72 13.16 54.72 148.4 36.42 125.18"/><polygon class="cls-13" points="131.16 13.92 54.72 13.16 54.72 15.62 54.72 27.41 54.72 148.4 63.5 147.17 63.5 22.05 131.16 22.18 131.16 13.92"/><polygon class="cls-14" points="34.9 23.31 34.9 27.21 54.72 13.16 54.72 8.91 34.9 23.31"/><polygon class="cls-14" points="54.72 8.91 54.72 13.16 131.51 14.05 131.51 10.71 54.72 8.91"/><polygon class="cls-14" points="121.94 22.23 121.94 128.4 147.96 141.34 147.44 15.28 121.94 22.23"/><rect class="cls-15" x="147.44" y="15.28" width="3.74" height="126.07"/><path class="cls-16" d="M81.61,116.5c-3.22.23-6.4,1-6.49,2.71-.11,2.09,5.34,1.34,6.51,2.44s4.16,4.73,9.07,3.54-1.18-3.89-1.07-4.58c.16-1.09,1-2.63-.21-3.47a3.34,3.34,0,0,0-1.31-.48A30.9,30.9,0,0,0,81.61,116.5Z"/><ellipse class="cls-9" cx="82.86" cy="118.91" rx="2.72" ry="0.96"/><path class="cls-17" d="M80.4,119.38a4.65,4.65,0,0,0,2.38.51c1.39,0,2.52-.37,2.68-.85a3.46,3.46,0,0,0-2-.5C82,118.54,80.56,118.91,80.4,119.38Z"/><line class="cls-18" x1="91.4" y1="118.21" x2="97.26" y2="117.85"/><line class="cls-18" x1="92.61" y1="119.41" x2="98.94" y2="119.02"/><line class="cls-18" x1="94.61" y1="120.65" x2="101.1" y2="120.25"/><line class="cls-18" x1="96.61" y1="121.96" x2="103.1" y2="121.56"/><line class="cls-18" x1="68.63" y1="120.42" x2="74.49" y2="120.06"/><line class="cls-18" x1="69.54" y1="121.59" x2="75.86" y2="121.2"/><line class="cls-18" x1="71.56" y1="123.01" x2="78.05" y2="122.61"/><line class="cls-18" x1="73.02" y1="124.43" x2="79.51" y2="124.04"/><line class="cls-19" x1="98.35" y1="111.74" x2="98.53" y2="22.12"/><line class="cls-20" x1="142.99" y1="16.92" x2="143.55" y2="139.15"/><line class="cls-20" x1="138.8" y1="17.91" x2="139.34" y2="136.27"/><line class="cls-20" x1="134.53" y1="19.52" x2="135.07" y2="134.32"/><line class="cls-20" x1="125.71" y1="21.42" x2="126.21" y2="130.52"/><line class="cls-20" x1="130.36" y1="20.37" x2="130.88" y2="132.46"/><polygon class="cls-21" points="147.57 38.82 121.93 42.5 121.93 37.21 147.57 33.52 147.57 38.82"/><polygon class="cls-21" points="147.98 116.53 122.34 109.16 122.34 103.87 147.98 111.23 147.98 116.53"/><rect class="cls-7" x="122" y="37.11" width="0.72" height="7.92"/><rect class="cls-7" x="121.58" y="102.28" width="0.72" height="7.92"/><g class="cls-22"><rect class="cls-23" x="35.5" y="96.2" width="5.05" height="61.85"/><polygon class="cls-24" points="-287.02 82.27 -411.47 167.85 173.65 167.85 39.4 82.27 -287.02 82.27"/><g class="cls-25"><line class="cls-26" x1="161.09" y1="67.2" x2="161.09" y2="200.47"/><line class="cls-26" x1="152.64" y1="67.2" x2="152.64" y2="200.47"/><line class="cls-26" x1="144.41" y1="67.2" x2="144.41" y2="200.47"/><line class="cls-26" x1="136.52" y1="67.2" x2="136.52" y2="200.47"/><line class="cls-26" x1="128.29" y1="67.2" x2="128.29" y2="200.47"/><line class="cls-26" x1="120.92" y1="67.2" x2="120.92" y2="200.47"/><line class="cls-26" x1="112.69" y1="67.2" x2="112.69" y2="200.47"/><line class="cls-26" x1="104.8" y1="67.2" x2="104.8" y2="200.47"/><line class="cls-26" x1="96.57" y1="67.2" x2="96.57" y2="200.47"/><line class="cls-26" x1="88.13" y1="67.2" x2="88.13" y2="200.47"/><line class="cls-26" x1="79.9" y1="67.2" x2="79.9" y2="200.47"/><line class="cls-26" x1="72.01" y1="67.2" x2="72.01" y2="200.47"/><line class="cls-26" x1="63.78" y1="67.2" x2="63.78" y2="200.47"/><line class="cls-26" x1="63.78" y1="67.2" x2="63.78" y2="200.47"/><line class="cls-26" x1="55.55" y1="67.2" x2="55.55" y2="200.47"/><line class="cls-26" x1="47.66" y1="67.2" x2="47.66" y2="200.47"/><line class="cls-26" x1="39.43" y1="67.2" x2="39.43" y2="200.47"/><line class="cls-26" x1="30.99" y1="67.2" x2="30.99" y2="200.47"/><line class="cls-26" x1="22.76" y1="67.2" x2="22.76" y2="200.47"/><line class="cls-26" x1="14.87" y1="67.2" x2="14.87" y2="200.47"/><line class="cls-26" x1="6.64" y1="67.2" x2="6.64" y2="200.47"/></g></g></g><g id="Layer_5" data-name="Layer 5"><path class="cls-27" d="M104.62,118.66l1.22,11.58h0c0,.16,0,.32,0,.48.16,1.87.36,3.74.54,5.6a1.12,1.12,0,0,0,.5.85l0,0a9,9,0,0,0,5,1.55l4.76,0a8.07,8.07,0,0,0,4.88-1.56l0,0a.9.9,0,0,0,.36-.65c.18-1.7.36-3.41.51-5.12.17-2,.48-4,.61-6l.45-4.37.08-.21c0-.38.17-1.44.25-2.13a1.53,1.53,0,0,0,.64-1.12c0-1.81-4.61-2.68-10.33-2.72s-10.36.78-10.37,2.58A1.64,1.64,0,0,0,104.62,118.66Zm18,.77h0Z"/><path class="cls-28" d="M104.94,117.3c0,1.26,4.1,2.31,9.18,2.34s9.19-1,9.2-2.22-4.1-2-9.18-2S105,116,104.94,117.3Z"/><path class="cls-29" d="M114,129.15a10.07,10.07,0,0,0,10.28-9.22.52.52,0,0,0-.5-.55h0a.51.51,0,0,0-.51.47,9.25,9.25,0,0,1-18.41-.12.5.5,0,0,0-.5-.48h0a.52.52,0,0,0-.51.54A10.08,10.08,0,0,0,114,129.15Z"/><path class="cls-28" d="M123.92,118.68s-3.49,2.31-9.81,2.27-9.49-2.29-9.49-2.29,1.94,3,9.21,3.21S123.92,118.68,123.92,118.68Z"/><circle class="cls-30" cx="71.31" cy="153.15" r="0.82"/><circle class="cls-30" cx="69.6" cy="154.78" r="0.58"/><path class="cls-31" d="M37.86,70.16c0,4.25,4,17.61,4.8,18.79,2.43,3.58,16.28,9.62,16.28,9.62l2.52-2.48L49.21,85,47.52,70.22"/><path class="cls-31" d="M66.54,98.4a10.93,10.93,0,0,1,.94,1.39.21.21,0,0,1-.06.23.31.31,0,0,1-.21.09,1.33,1.33,0,0,1-1-.59,10.8,10.8,0,0,1-.76-.89,2.67,2.67,0,0,0-.88-.68c-.72-.41-1.45-.79-2.2-1.15a17.32,17.32,0,0,1,4.35,3.56c.13.15.27.35.17.53a.34.34,0,0,1-.37.13,1,1,0,0,1-.36-.19l-1.69-1.26c-.83-.62-1.91-.94-2.75-1.54A41.73,41.73,0,0,1,65.74,101c.1.09.21.19.21.32a.31.31,0,0,1-.18.26.82.82,0,0,1-.74-.08,17.08,17.08,0,0,1-1.89-1.12l-2-1.31a3.31,3.31,0,0,1,1.72,2.16.53.53,0,0,1,0,.25c-.08.16-.32.16-.49.08-.51-.25-.69-.89-1.1-1.28a4.59,4.59,0,0,0-.79-.5,5.7,5.7,0,0,0-.65-.44,10.52,10.52,0,0,0-1.57-.58A3.93,3.93,0,0,1,56.92,98a4.37,4.37,0,0,1-.7-1c-.41-.69-1-.84-1.75-1.11s-1.56-.55-2.35-.79a3.67,3.67,0,0,1-.65-.26,2.22,2.22,0,0,1-.62-2.07,2.93,2.93,0,0,1,1.93-2.19.4.4,0,0,1,.19,0,3,3,0,0,1,.41.17c.7.45,1.35,1,2,1.44s1.39.81,2.1,1.22a.65.65,0,0,0,.17.08,1.2,1.2,0,0,0,.19,0,9.64,9.64,0,0,1,2.51-.15,14,14,0,0,1,4.35,1.5c.11.06.24.13.26.26a.31.31,0,0,1-.13.27c-.55.5-1.26.17-1.85,0-.15,0-.33-.1-.46,0,.2.12.37.31.56.43l.27.16.52.33c.35.22.69.45,1,.7A8.91,8.91,0,0,1,66.54,98.4Z"/><path class="cls-32" d="M69.72,114.17s2.17,17,13.33,28.48l11.16,11.48a48,48,0,0,1-5.34-3.91l-3.35-2.75s4.1,6.13,6,7.26-4.78-1.09-7-5.08,3.28,6,4.74,7.6-3.42-1-6.43-2.15-4.1-1.62-4.1-1.62l-1.92-2.64s3.68,6.37,4.4,6.86-6-1.36-8.92-6-4.88-8.65-4.54-16.44-.89-20.62-2.13-25.55-3-11.67-3-11.67l-1.2-3.91,3.43-.49Z"/><path class="cls-33" d="M70.72,118.69s2.76,14.6,5,19.84,4.31,12.79,13.41,19.2"/><path class="cls-33" d="M67.83,114.55s1.35,15.75,11,35.07c1.38,2.77,8.14,6.81,9.46,7.8"/><path class="cls-33" d="M70.54,135.65s4.7,9.92,7.12,13.7C81.28,155,86.24,156,86.24,156"/><path class="cls-33" d="M68.26,126.7s-1.06,7.61,3.93,17.43c2,3.93,4.81,7.83,6.28,9,0,0-3.07-2.54-6.58-13a141.82,141.82,0,0,1-5.11-22.71l2.65-.42-2.27-1,1.74-.41-2-1.08,1.75-.45-2-.68,2-1.23-1.93-.1,1.61-1.1-2-.67,1.77-.94-3.06-2,2,10.49,3.48.5-2.8-12.55L65,107.19l-.47-1.82,2.23-.62-2.62-.91"/><path class="cls-33" d="M79.25,155.2s-5.59-4.67-7.62-9.4-4.35-10.17-3.53-14.3"/><path class="cls-33" d="M68.33,137.61s-.3,5.89,5.15,13.3c2.52,3.43,7.57,6.62,7.57,6.62"/><path class="cls-33" d="M85.59,151.1s-5.75-6.57-7-8.64-4.94-10.67-4.94-10.67"/><path class="cls-33" d="M85.76,147.81s-5.08-3.86-7.45-8.59-5.26-9.71-5.26-9.71"/><polyline class="cls-33" points="61.43 94.14 63.08 99.97 65.35 98.33 62.92 97.8 64.74 97.33 63.01 96.63 64.55 96.14 62.71 95.34 64.16 94.93 61.93 94.21 64.86 93.65 66.24 99.53 63.31 99.96"/><path class="cls-34" d="M60.54,98.21s1.26-.34,1.42-.34h.26l0,.15-1.63.4,0-.21"/><polyline class="cls-33" points="62.9 98.55 65.85 100.42 64.27 101.41 66.46 102.06 65.37 103.11 66.76 102.57 66.16 99.19"/><polyline class="cls-33" points="68.71 108.83 66.03 109.1 67.85 107.04 65.14 106.13 67.7 105.68 67.37 104.28 65.37 105.5 67.42 105.13"/><path class="cls-31" d="M37.49,154.39a2.23,2.23,0,0,1-.34-.15,6.46,6.46,0,0,0-3.21,2.54,43.75,43.75,0,0,0,5.27-.21c1,0,.86-.85.55-1.24A7.25,7.25,0,0,0,37.49,154.39Z"/><path class="cls-31" d="M36,154.59c-.18-.2-.29-.34-.29-.34-1.61-2.38-3.17-2.05-2-5S39,140.31,39,140.31l-7.38-2.45s-2.74,7.76-2.7,8.6a5.11,5.11,0,0,1-1.55,3.18A4.54,4.54,0,0,0,26,152.55c0,.69.77,1.17,2,1.65a38,38,0,0,1,4.18,2.58A7.48,7.48,0,0,1,36,154.59Z"/><path class="cls-35" d="M33.94,156.72l-.63-.17c-2.57-.75-4.92-1.58-7.69-2.35-.34-.1-.57,1.09-.05,1.25,2.52.77,4.73,1.33,7.26,2.08a10.21,10.21,0,0,0,1.11.15Z"/><path class="cls-35" d="M34,156.49h5.59a.41.41,0,0,1,.41.41v0a.71.71,0,0,1-.71.71h-5a.71.71,0,0,1-.71-.71v0a.41.41,0,0,1,.41-.41Z" transform="translate(-4.29 1.07) rotate(-1.57)"/><path class="cls-35" d="M37.49,154.39a5.69,5.69,0,0,0-3.36,2.39l-3.34-.61s2.3-3.38,5.41-3.1A5.43,5.43,0,0,1,37.49,154.39Z"/><path class="cls-31" d="M43.74,139.2s-2.61,6.83-3,10,1.06,2.42,3.19,4.34A16.23,16.23,0,0,0,46.25,155a7.29,7.29,0,0,1,2.24,1c.3.4.44,1.24-.57,1.24s-4.35.36-5.62.05-4.62-1.7-5.9-1.87-2.1-.46-2.3-1.13a4.5,4.5,0,0,1,.62-3.14,5.09,5.09,0,0,0,.73-3.46c-.24-.82.54-9,.54-9Z"/><path class="cls-35" d="M42.61,157.24c-.2-.05-.41-.1-.62-.17-2.57-.74-4.92-1.57-7.7-2.33-.33-.1-.56,1.09,0,1.25,2.52.77,4.73,1.32,7.26,2.07.42.12.69.05,1.11.14Z"/><path class="cls-35" d="M42.72,157h5.59a.41.41,0,0,1,.41.41v0a.71.71,0,0,1-.71.71H43a.71.71,0,0,1-.71-.71v0a.41.41,0,0,1,.41-.41Z" transform="translate(-1.32 0.39) rotate(-0.48)"/><path class="cls-35" d="M46.41,154.9s-2.72.24-3.47,2.45l-2.27-.62a4.33,4.33,0,0,1,3.65-3.12A10.11,10.11,0,0,1,46.41,154.9Z"/><path class="cls-36" d="M47.9,58.55a5.91,5.91,0,0,1-.62-4.39c.57-2.66,3.81-2.1,3.81-2.1l-1.81,5Z"/><path class="cls-31" d="M48.94,56.93s-3.38,5.43-4.38,6c-.34.21-1.91,1.35-1.91,1.35l2.19,1.51c1.55,1.25,5,7.45,7,7.66l-.19-2.34a39.5,39.5,0,0,1-.45-4.41c.11-.45,1.93-3.4,1.93-3.4"/><path class="cls-34" d="M52.05,65.18s.45-.05,0-.43-1.29-.77-2.6-3.87a4.21,4.21,0,0,0,1.58,4.25,2.56,2.56,0,0,0,.68.55Z"/><path class="cls-31" d="M62.88,52.29l0,0s0,0,0-.07Zm1,1,0,.09v0S63.94,53.22,63.93,53.24ZM49.21,60.68c.44,1.81,1.46,4.06,3.27,5a4.86,4.86,0,0,0,2.62.59,11.6,11.6,0,0,0,2.56-1.23,6,6,0,0,0,2.11-1.16A5.57,5.57,0,0,0,61,61.81a8.23,8.23,0,0,1,.74-1.34c.28-.4,1.45-1.94,2.06-2.89a6.71,6.71,0,0,0,.53-3,2.08,2.08,0,0,0,0-.86l-.11-.06a.12.12,0,0,1,0,.13.92.92,0,0,1-.28-.42h0a.51.51,0,0,1-.4-.42.09.09,0,0,0,0,.11.67.67,0,0,1-.36-.43.53.53,0,0,0,0,.12,1.1,1.1,0,0,1-.27-.38,6.41,6.41,0,0,0,.69.35c-.18-.07,0,.1-.09-.11l-.08-.19c-.15-.06-.2,0-.25-.14a1.41,1.41,0,0,0,.08-.31c-.17-.1-.12-.09-.21-.25,0,0-.57-.11-.59-.09s-.18.07-.23-.1c0,0,.17-.05.18,0-.18-.07-.32,0-.38-.22,0,0-.39-.62-.39-.62-.18-.08-.19,0-.26-.2,0,.09-.76-.53-.76-.46s0,.69-.12.54c0,0-.27-.28-.27-.28-.16-.06,0,.2-.08,0,0,0,0,.12,0,.14a.71.71,0,0,1-.5-.41,1.36,1.36,0,0,1,0,.2.64.64,0,0,1-.35-.32.18.18,0,0,0,0,.16.63.63,0,0,1-.42-.33s0,.12,0,.16a.47.47,0,0,1-.31-.26l0,.16c-.11-.07-.23-.07-.37-.23,0,0,0,.09,0,.11a1.65,1.65,0,0,1-.27-.19s0,.13,0,.11-.23-.07-.34-.21c0,0,0,.11,0,.16a.86.86,0,0,1-.33-.23.18.18,0,0,0,0,.13c-.11-.06-.23-.06-.34-.2a.31.31,0,0,0,0,.15,2,2,0,0,1-.35-.2s0,.08,0,.13a1.09,1.09,0,0,1-.35-.25c0,.05,0,.09,0,.12s-.12-.11-.21-.17L56,49c-.71.28-1.74,2-1.74,2a4.46,4.46,0,0,0-2.79,1.91c-.27.51-.83,2.11-.83,2.11a6,6,0,0,1-.07-1.11c0-.23,0-1.05,0-1.28,0-.57-.42-.17-.89-.1l-.61-.13c-.79.33-.92,2.63-.92,3.37-.58,1.16.06,1.88,1.08,1.86l-.34-.08"/><path class="cls-37" d="M52.63,46.21a15,15,0,0,1,6.92,3c3.33,2.61,4.69,4.54,4.35,6.46a16.9,16.9,0,0,1-2.09,4.68s-.8.48,1.75-2.29c3.72-4,1.29-11.24.13-12S57.41,42.08,52.63,46.21Z"/><path class="cls-37" d="M51.68,44.71s1.62-4,4.53-3.14,8.86,2.25,8.39,6.49Z"/><path class="cls-38" d="M47.25,52.47c-.1-.42.42-1.12.37-1.55A3.83,3.83,0,0,1,49.69,47c.43-.28.57-1.13.8-1.46,1.18-1.74,2.09-1.79,5.88-2a10.71,10.71,0,0,1,6.71,2.21c2.11,1.44,3,2.16,2.82,4.17,0,.27-.23.36-.3.66s.43.78.26,1.27c0,0-3.49-.57-6.68-.73s-11.29,2.28-12,3.76A18.94,18.94,0,0,0,47.25,52.47Z"/><path class="cls-37" d="M48.54,48.43s7.13-2.65,11.66,0c0,0-5.31-4.25-10.39-1.63l-.16.12a4.61,4.61,0,0,0-1.07,1.22Z"/><path class="cls-36" d="M52.23,52.35,50.64,55,50.4,53S51.69,52.57,52.23,52.35Z"/><path class="cls-39" d="M49.83,55.08c-.16-.1-.38-.16-.49.05a2.66,2.66,0,0,0-.12.56.39.39,0,0,1-.14.21c-.12.07-.18,0-.21-.15a1.21,1.21,0,0,1,.14-.93c.14-.21.39-.56.69-.52.07,0,.14-.09,0-.1a.91.91,0,0,0-.76.45l-.16.23a1.34,1.34,0,0,0-.13.59c0,.25.08.69.43.52.2-.1.24-.35.27-.55a.89.89,0,0,1,.08-.32c.06-.08.17,0,.25,0s.17,0,.1-.08Z"/><path class="cls-37" d="M50.51,50.55s-2.6.68-3.12,1.26l.18-.72A3.87,3.87,0,0,1,50.51,50.55Z"/><path class="cls-40" d="M57.17,61.66a.92.92,0,0,1-.71-.49c0-.06-.2-.12-.16,0a1.33,1.33,0,0,0,1,.65s0,0,0-.05a.24.24,0,0,0-.12-.07"/><path class="cls-40" d="M56.25,61a1.61,1.61,0,0,0-.39-.39l-.08,0s0,0,0,0a.63.63,0,0,0,.22.21s.07,0,.1,0,0,0,0-.06a.46.46,0,0,1-.17-.17l-.1,0a1.41,1.41,0,0,1,.34.35.11.11,0,0,0,.09,0s0,0,0,0"/><path class="cls-40" d="M55.61,60.65a.75.75,0,0,1-.36-.52.62.62,0,0,1,.63-.54s0,0,0,0a.17.17,0,0,0-.11,0,.73.73,0,0,0-.65.4.57.57,0,0,0,.2.62,1.39,1.39,0,0,0,.19.15.15.15,0,0,0,.11,0s0,0,0-.06"/><path class="cls-40" d="M57.57,61.78a0,0,0,0,1,0,0,.33.33,0,0,0,.17,0v.08a.78.78,0,0,0-.35-.07.07.07,0,0,1,0,0s0-.05,0-.05"/><path class="cls-40" d="M57.41,61.72a.74.74,0,0,1,.39.08.07.07,0,0,1,0,.05s0,0,0,0"/><path class="cls-40" d="M57.93,62a.43.43,0,0,0,.46,0,.62.62,0,0,0,.21-.67s0,0,0,0,0,0,.06.05a.7.7,0,0,1-.11.62.51.51,0,0,1-.5.2l-.15-.05a.1.1,0,0,1,0-.07,0,0,0,0,1,0,0"/><path class="cls-36" d="M61.2,59.18a.51.51,0,0,1,.42.35.54.54,0,0,1,0,.25.48.48,0,0,1-.33.32.45.45,0,0,1-.48-.19.5.5,0,0,1,.09-.62.43.43,0,0,1,.31-.11"/><path class="cls-36" d="M59.58,58.88a4.71,4.71,0,0,1,1.65.12,1.54,1.54,0,0,1,1,1.19,2.61,2.61,0,0,0-.88-1A8.35,8.35,0,0,0,59.58,58.88Z"/><path class="cls-36" d="M56.31,56.24a.62.62,0,0,0-.53-.27.35.35,0,0,0-.23.11.47.47,0,0,0-.13.43.44.44,0,0,0,.39.34.48.48,0,0,0,.5-.36.17.17,0,0,0,0-.22"/><path class="cls-36" d="M57.15,57.3A4.65,4.65,0,0,0,56.2,56a2.51,2.51,0,0,0-2-.31A5,5,0,0,1,56,56,8.09,8.09,0,0,1,57.15,57.3Z"/><path class="cls-36" d="M60.58,57.26l.18-.36a7.64,7.64,0,0,1,2,1,1.36,1.36,0,0,1,.24.24.11.11,0,0,0,0,.06l-.13.45a2.86,2.86,0,0,0-.46-.42,3.24,3.24,0,0,0-1-.43c-.23-.08-.55-.18-.92-.27Z"/><path class="cls-36" d="M58.31,55.22l-.21.35c-.06.08-.11.17-.17.26-.28-.27-.52-.49-.71-.65a3.7,3.7,0,0,0-.88-.62,3.37,3.37,0,0,0-.69-.19,2.85,2.85,0,0,0-.4,0c-.3,0-.49.12-.52.09s.12-.15.13-.16a1.63,1.63,0,0,1,.82-.3,2,2,0,0,1,.75.11,7.85,7.85,0,0,1,1.88,1.15"/><path class="cls-41" d="M55.59,62.49C54.68,62,53.29,61,53.29,61A2.85,2.85,0,0,0,58,63.82S56.49,63,55.59,62.49Z"/><path class="cls-42" d="M55.6,62.5c-.43-.26-2.12-1.39-2.12-1.39A2.84,2.84,0,0,0,55,63.39a2.72,2.72,0,0,0,2.77.35Z"/><path class="cls-43" d="M55.57,62.58c-.42-.26-1.69-1.13-1.69-1.13s.18.77,1.47,1.55,2,.56,2,.56Z"/><path class="cls-41" d="M58.2,63.74a4.74,4.74,0,0,1-.54-.25c-.34-.25-.5-.48-.75-.66a4.54,4.54,0,0,0-1-.41c-.19-.11-.36-.46-.82-.69-.27-.14-1-.43-1.34-.61a3.28,3.28,0,0,1-.47-.37c-.08,0-.25.54,2.15,2S58.25,63.79,58.2,63.74Z"/><path class="cls-31" d="M48.45,72.28v-.15s-1-.91-1.22-1-1.63.34-1.63.34l-1,1.78,1.17.72a2.48,2.48,0,0,0,.71.35,2.15,2.15,0,0,0,.8.15.33.33,0,0,0,.34-.33c.52,0,.36-.39.36-.39.56-.11.31-.5.31-.5s.35,0,.4-.29a1.11,1.11,0,0,0-.24-.66"/><path class="cls-34" d="M46.33,72.7a.93.93,0,0,0,.44-.12.63.63,0,0,0,.33-.42l0-.1.06.07a.23.23,0,0,0,.07.07,1.13,1.13,0,0,0,.52.3.79.79,0,0,0,.48,0,.35.35,0,0,0,.19-.24c0-.08,0-.12,0-.13a.19.19,0,0,1,0,.13.38.38,0,0,1-.2.3.75.75,0,0,1-.53,0,1.28,1.28,0,0,1-.57-.31l-.07-.07.08,0a.66.66,0,0,1-.38.48,1,1,0,0,1-.48.12l-.32,0-.12,0S46.06,72.72,46.33,72.7Z"/><path class="cls-34" d="M48.11,73.19a1.74,1.74,0,0,0-.33-.18.53.53,0,0,0-.52,0,.33.33,0,0,0-.13.26.43.43,0,0,0,.13.3.7.7,0,0,0,.16.13l.36.26-.41-.18a.83.83,0,0,0-.58-.1.37.37,0,0,0-.19.16.27.27,0,0,0,0,.2.61.61,0,0,0,.19.26l.09.08a.24.24,0,0,1-.11-.06.58.58,0,0,1-.23-.26.34.34,0,0,1,0-.26.41.41,0,0,1,.22-.19.87.87,0,0,1,.65.09l0,.08-.17-.15a.57.57,0,0,1-.16-.36.44.44,0,0,1,.18-.33.58.58,0,0,1,.32-.1.9.9,0,0,1,.27.07,1.06,1.06,0,0,1,.33.22.35.35,0,0,1,.1.1Z"/><path class="cls-34" d="M47.8,72.92a.43.43,0,0,1-.13-.3s0-.06,0-.09H47.6a.36.36,0,0,0,0,.11.51.51,0,0,0,.13.34.86.86,0,0,0-.42,0,.38.38,0,0,0-.23.2.33.33,0,0,0,0,.26.53.53,0,0,0,.23.26l.11,0-.09-.08a.51.51,0,0,1-.19-.26.24.24,0,0,1,0-.2.38.38,0,0,1,.19-.16.85.85,0,0,1,.59.09l.42.18L48,73.05Z"/><path class="cls-31" d="M47.29,77.31a21,21,0,0,1-5.41-1.9c-2.51-1.47-4.17-4.4-4.5-4.71L41.08,68l3.31,4.16,4,3.14Z"/><path class="cls-44" d="M40,67.61l-1.44,5.12.23-.14S40.27,68.91,40,67.61Z"/><path class="cls-45" d="M53.66,78.89,50,68a10,10,0,0,0-4.83-4.9,2.62,2.62,0,0,0-.7-.32l-.07,0-.09,0s-1,.54-1.05.58h0a11.79,11.79,0,0,0-5.07,4.95c-.52,1.14-1.26,3-2.06,5v-.06l-.79,2.14c-.89,2.34-1.78,4.79-2.5,6.75l-7.49,7.07-1.78,1.57L25.29,95l13.9,8.25,7.17-12.21a23,23,0,0,1,2.74-2.58c1.16-.81,4.27-3.22,4.81-4.68S53.66,78.89,53.66,78.89Z"/><path class="cls-46" d="M45.85,76.75a4.46,4.46,0,0,0-4.74-1.06"/><path class="cls-31" d="M39.32,73.35c-.13,4.25,3.48,17.72,4.24,18.92,2.33,3.65,16,10.1,16,10.1l2.6-2.4L50.23,88.49,49,73.7"/><path class="cls-45" d="M39,79.11l11.14-.36s.52-7.27-1.6-10.69-5.19-3.84-7.13-2.73S37.81,72,39,79.11Z"/><path class="cls-47" d="M47.92,68.3a5.94,5.94,0,0,0-2.66-2.54,4.16,4.16,0,0,0-3.92.06,3.53,3.53,0,0,0-1.23,1.42.24.24,0,0,0,.08-.06A3.8,3.8,0,0,1,44,65.75,8.64,8.64,0,0,1,46.35,67a6.08,6.08,0,0,1,.87.74c.11.12.2.25.32.37s.39.23.42.29A.25.25,0,0,1,47.92,68.3Z"/><path class="cls-47" d="M49.22,70.37s-.09,0-.14,0a34,34,0,0,1,.82,4,22.57,22.57,0,0,1,0,3.29s-.05.74-.06.74l-10.64.47a21,21,0,0,1,.28-7.78c.1-.42.22-.84.36-1.25a4.15,4.15,0,0,1-.47.68,4.22,4.22,0,0,0-.37.81,9.87,9.87,0,0,0-.3,1.71,21.3,21.3,0,0,0-.09,3.66A23.22,23.22,0,0,0,38.88,79l0,.22,11.26-.55,0-.23a18.47,18.47,0,0,0,0-3.86,22.38,22.38,0,0,0-.61-3.32A5.09,5.09,0,0,0,49.22,70.37Z"/><path class="cls-48" d="M48.14,118.41a30,30,0,0,0-4.72-8.48c-1.41-1.69-2.37-3-3.62-4.49-.13-.15-.26-.3-.38-.46.18.06.3.08.33,0,.47-.48,1.6-4.69,1.69-5.87l.44.1-.44-.3h0c0-.07-.17-.18-.44-.3-3.34-2.26-14.36-10-15-10.13s-8.13,8.48-8.32,10h0a4.53,4.53,0,0,0-.52.77c-1.66,3.14-3.11,9.59.27,14a72.84,72.84,0,0,0,9.63,10l1.39,1a53.79,53.79,0,0,0-2.7,8.14,96.12,96.12,0,0,1-2.93,9.71l9,3.24a20,20,0,0,0,7.39,1.17l6.56-.2s1.45-13.76,1.75-15.93C47.85,128,49.25,121.34,48.14,118.41Z"/><path class="cls-34" d="M61.56,99.2,50.41,88.35v-.87l-.24.27.06.74L61.46,99.38l.06,0A.65.65,0,0,1,61.56,99.2Z"/><path class="cls-31" d="M67.91,101.81a10.16,10.16,0,0,1-2.09,0c-.1-.09-.82-.55-1.5-1A3.68,3.68,0,0,1,63,99.53a6.33,6.33,0,0,1-.5-.77A2.62,2.62,0,0,1,62.2,98a16.65,16.65,0,0,0-1.63.4l-.12-.07-1.94,3.54,1.64,1.55s3.58,2.12,4.19,2.06a5.17,5.17,0,0,0,1.68-.86c.8,0,1.4-.89,1.4-.89,1.35-.34.69-.93.69-.93a.22.22,0,0,0,.13,0A.54.54,0,0,0,67.91,101.81Z"/><path class="cls-34" d="M63.62,101.88a2.1,2.1,0,0,0,.52.51,3.87,3.87,0,0,0,1.55.82,3.32,3.32,0,0,0,1.74-.17,2,2,0,0,0,.66-.28,3.84,3.84,0,0,0-.69.15,3.78,3.78,0,0,1-1.67.11,4.3,4.3,0,0,1-1.52-.74A2.92,2.92,0,0,0,63.62,101.88Z"/><path class="cls-34" d="M63.31,102.86a1.35,1.35,0,0,0,.46.49,4.13,4.13,0,0,0,.59.41,2.18,2.18,0,0,0,.85.31,3.72,3.72,0,0,0,.88,0l.7-.11a2.23,2.23,0,0,0,.63-.15,2.36,2.36,0,0,0-.65,0c-.2,0-.44,0-.7.08a4.73,4.73,0,0,1-.84,0,2.32,2.32,0,0,1-.8-.28,6,6,0,0,1-.6-.36C63.5,103,63.31,102.86,63.31,102.86Z"/><path class="cls-34" d="M63,104a4.92,4.92,0,0,0,1.39.85.65.65,0,0,0,.36.07,1.62,1.62,0,0,0,.31,0,2.19,2.19,0,0,0,.51-.1c.29-.09.44-.19.43-.22a3.49,3.49,0,0,0-.46.09,4.1,4.1,0,0,1-.49.06h-.29a.66.66,0,0,1-.28,0c-.4-.21-.76-.38-1-.51A2.23,2.23,0,0,0,63,104Z"/><circle class="cls-30" cx="73.59" cy="152.34" r="0.58"/><circle class="cls-30" cx="68.78" cy="149.78" r="0.58"/><polyline class="cls-49" points="39.75 105.02 36.26 102.37 39.8 105.44 39.75 105.02"/><polyline class="cls-49" points="28.42 124.32 31.06 122.86 29.05 124.32 31.2 124.48 28.42 124.48"/></g><g id="Layer_8" data-name="Layer 8"><path class="cls-50" d="M106.93,118.66a4.5,4.5,0,0,1,2.5-.91c.37.06.69.27,1.06.32.73.1,1.46-.42,2.18-.26a11.47,11.47,0,0,1,1.13.51c.94.32,2-.35,2.93-.23.47.06.91.3,1.38.34A5.36,5.36,0,0,0,120,118a2.63,2.63,0,0,1,2.27.49s-2,1.08-7.66,1.15S106.93,118.66,106.93,118.66Z"/></g></svg>