<svg id="Layer_1" data-name="Layer 1" xmlns="http://www.w3.org/2000/svg" viewBox="0 0 165.86 165.86"><defs><style>.cls-1{fill:#cccccb;}.cls-2{opacity:0.24;}.cls-3{fill:#e8e8e8;}.cls-4{fill:none;}.cls-5{fill:#e1d6b7;}.cls-6{fill:#ece1c5;}.cls-7{fill:#eae0cc;}.cls-8{fill:#a68c62;}.cls-9{fill:#d1b199;}.cls-10{fill:#6d482e;}.cls-11{fill:#311f11;}.cls-12{fill:#473f3c;}.cls-13{fill:#91795f;}.cls-14{fill:#3a3027;}.cls-15,.cls-24{fill:#9c3821;}.cls-15,.cls-26{opacity:0.42;}.cls-16{fill:#2f5629;}.cls-17{fill:#162115;}.cls-18{opacity:0.35;}.cls-19{fill:#3a6731;}.cls-20{fill:#39783a;}.cls-21{fill:#2c5428;}.cls-22{fill:#377e3d;}.cls-23{fill:#356b34;}.cls-25{fill:#d4a643;}.cls-27{fill:#d5c8aa;}.cls-28{fill:#010101;}</style></defs><path class="cls-1" d="M126.78,129.22c34.23-18.68,41-52.76,15.13-76.12S75.31,26,41.08,44.64.08,97.41,26,120.76C52.83,145,94.21,147,126.78,129.22Z"/><g class="cls-2"><path class="cls-3" d="M138.22,56.75c22.84,20.62,16.86,50.69-13.35,67.18l-3,1.62c-26.5,13.26-70.25,11.53-93.09-9.08S12,65.78,42.18,49.29s73.21-13.15,96,7.46"/></g><path class="cls-4" d="M71.46,112.31a12.49,12.49,0,0,1,3.08,2.86,2.9,2.9,0,0,1,0,3.51.52.52,0,0,1-.3.21.65.65,0,0,1-.62-.26c-1.68-1.93-.55-4.63-2.21-6.56"/><path class="cls-4" d="M72.93,120.11l-6.56-2.68a.92.92,0,0,0-.63-.09c-.33.1-.26.44-.09.65A5.59,5.59,0,0,0,69,119.71a23.66,23.66,0,0,0,4.31.26"/><path class="cls-5" d="M126.3,86.56a13,13,0,0,1,7.19,3.28,4.35,4.35,0,0,1,1.09,4.47c-.18.59-5.29,3.16-5.05,3.77s1,1.25,1.55,1.88c.86,1.06,3.7,1.49,3.73,2.57.05,1.38,2.13,1.45,2.17,2.83.06,1.88.12,3.79-.9,5.54a16.34,16.34,0,0,1-3.17,3.45l-5.69,5.18a7,7,0,0,1-4.94,2.08c-.73,0-1.5-.08-2.2,0a4.37,4.37,0,0,0-3,1.57c-3.52,3.38-11.77,5.44-20.42,4.86s-17.1-3.92-19.41-7.89c-.46-.78-.66-1.66.24-2.26a19.51,19.51,0,0,1,1.89-.86c2.82-1.46.14-4.12,1.58-6,1.08-1.41,4.22-2.12,6.37-3.19,3-1.52,4-3.72,5-5.83a88.08,88.08,0,0,1,5.77-10.31,12.59,12.59,0,0,1,4.26-4.45c2.65-1.58,6.83-2.55,11.39-2.65a37.85,37.85,0,0,1,13.37,2.09"/><path class="cls-6" d="M112.08,114.6a24.19,24.19,0,0,0-7.91-2.13,21.88,21.88,0,0,0-6-.32c-2,.25-4,1.13-4.62,2.48-.38.77-.29,1.65-.9,2.36-1.07,1.25-3.77,1.37-5,2.54a1.88,1.88,0,0,0,.2,2.94,5.76,5.76,0,0,0,4.13.94c1.66-.2,3.2-.93,4.87-.86a16.23,16.23,0,0,1,2.41.44,14.09,14.09,0,0,0,10-1.65c2.65-1.71,3.9-4.41,3.15-6.82"/><path class="cls-7" d="M92.71,106.15a11.46,11.46,0,0,0-.3,5.48,2.77,2.77,0,0,0,1.48,2.19c1.32.59,3.09.14,4.67.16,2.89,0,5.1,1.69,7.8,2.34a13.66,13.66,0,0,0,8-.69,13.49,13.49,0,0,0,5.63-4.24,13.83,13.83,0,0,1,1.52-1.87c1.17-1.09,2.95-1.81,4.19-2.86s1.75-2.81.25-3.63c-1.33-.73-3.28-.28-5,0-4.73.74-9.55-.26-14.34-.58s-10.44.36-13,3.26"/><path class="cls-7" d="M121.24,92.32a8.25,8.25,0,0,0-4.19,4.24,15.84,15.84,0,0,0-1,5.14,4.43,4.43,0,0,0,.64,3.36c1.27,1.54,4.19,1.94,6.77,1.9,4.32-.07,9.09-1.21,11.11-3.91a9.21,9.21,0,0,0,1.26-2.75l1.95-6a1.49,1.49,0,0,0-.09-1.55,3.34,3.34,0,0,0-2-.67c-4-.51-8.39-1-11.9.54"/><path class="cls-8" d="M127.63,67.71s12.46-3.68,16.05-4.06,10-1.18,7.62,2.23-2.44,2.57-2.62,4.69,2.63,3.68,1.83,6.6-.55,2.27-8,1.45a69.44,69.44,0,0,1-14.3-3.32Z"/><path class="cls-9" d="M135.42,73.88s-35,11.87-56.36,11.87-38.81-6.19-45.65-10-9.47-7.65-9.42-8,.12-1.72,2-4.05S54.36,43.51,74.17,45.63s45.45,18,49.1,19.6,15.35,4.08,16.4,6.92Z"/><path class="cls-10" d="M74.14,45.63c-19.81-2.12-46.4,15.79-48.23,18.13A12,12,0,0,0,24.5,66a95.49,95.49,0,0,0,14.77,2.5c7.29.4,11.72,6.62,16,2.7s4.6-6.1,7.65-3.86,3,6.39,9.23,10,8.48,6.57,17.15,4.36,35.36-4.8,39.71-8.35c1.75-1.42,2-3.59,1.76-5.68-3-1-6-1.78-7.52-2.45C119.59,63.64,94,47.75,74.14,45.63Z"/><path class="cls-11" d="M123.27,65.23c-3.65-1.59-29.29-17.48-49.1-19.6S27.77,61.42,25.94,63.76c-.27.35-.5.67-.7,1a26.64,26.64,0,0,0,14.22.56c7.57-2,13.71-9.71,17.62-9.26s5.71,2.76,8.76.48S69.49,51.18,74.5,52s17.69,1.7,21.06,4.84,8.74,4.34,12.74,5.15,12,4.44,16.38,4.67a32.5,32.5,0,0,1,6.47,1.19C128,66.8,124.88,65.93,123.27,65.23Z"/><path class="cls-12" d="M38.92,78.35s9.56-1,11.94-6-3.54-13.12-3.54-13.12,4.56,2.19,5.93,6.37.5,9.63-4.57,12.05-5.45,2.62-5.45,2.62Z"/><ellipse class="cls-13" cx="39.66" cy="58.81" rx="1.71" ry="1.45" transform="translate(-11.18 9.35) rotate(-11.79)"/><path class="cls-14" d="M24.29,66.57l3.55,1.19-3.85,0A9.62,9.62,0,0,1,24.29,66.57Z"/><path class="cls-8" d="M63.76,45.88s12.05-2.1,17.74-1.24,12.11.51,12,2.07-.62,2.33,1.7,2.61,4.85-.21,5.27.6S100.2,52,100.2,52a13.37,13.37,0,0,1,5.18.67,1.74,1.74,0,0,1,.94,2.8s3.64-.67,5.32.29,12.8,2.71,16.21,3.6S123.94,64,123.94,64l-1.66.78S98.17,52.23,88.17,49.25,63.76,45.88,63.76,45.88Z"/><path class="cls-8" d="M95.49,84.13s19.58-.21,24.27-.44,4.46-1.47,4.46-1.47,3.37.12,3.4-1.46-4.35-3.14-4.35-3.14Z"/><path class="cls-15" d="M123.27,65.23c-3.65-1.59-30.52-15.52-50.33-17.64-6.88-.73-14.42.71-21.42,3a3.52,3.52,0,0,1-2.33.91c-.12,0-.24,0-.35,0-2.66,1-5.21,2-7.58,3.13A17.61,17.61,0,0,0,39.83,56a18.37,18.37,0,0,0-.89,2c-.67,1.75-.82,1.89.34,2.86,2.5,2.13,5.22,2.53,7,5.68a13.49,13.49,0,0,1,1.44,8.74c1.5,2.93,3.53,5,7.78,5.06,2.25.05,4.39.11,6.47.3,4.47-1,9-.43,11.74,4.08h0a3.94,3.94,0,0,1,1.11,1c1.4,0,2.81.09,4.24.09,21.34,0,56.36-11.87,56.36-11.87l4.25-1.73C138.62,69.31,126.92,66.82,123.27,65.23Z"/><path class="cls-8" d="M73.19,50.69s5.15,9.44-.25,22.43C72.94,73.12,85,61.78,73.19,50.69Z"/><path class="cls-8" d="M62.09,50.73s6.5,8.74,3,22.1C65.05,72.83,75.45,60.4,62.09,50.73Z"/><path class="cls-8" d="M84.62,51.2s3.58,10-3.74,22.41C80.88,73.61,94.45,63.64,84.62,51.2Z"/><path class="cls-8" d="M93.29,55.07s4,8.78-2.79,19.34C90.5,74.41,103.56,66.08,93.29,55.07Z"/><path class="cls-8" d="M103.53,59.57s1.26,7.35-5.87,14.54C97.66,74.11,109.08,69.55,103.53,59.57Z"/><path class="cls-16" d="M72.14,117.41c1.36,1,4,.41,5-.75a4,4,0,0,0,.59-4c-.39-1.33-1.06-2.64-1-4,.08-2,1.75-4.09,1-6.05s-3.44-3-5.36-4.51-3-3.21-4.6-4.76a19,19,0,0,0-6.56-4c-3.07-1.14-6.64-1.74-9.16-3.4-1-.65-1.78-1.45-2.8-2.08A17.28,17.28,0,0,0,44.13,82a11.75,11.75,0,0,0-4.3-.35,6.33,6.33,0,0,0-4.18,2.54,10.1,10.1,0,0,0-1.43,3.83L31,102.65c-.5,2.22-1,4.6.41,6.6s4.08,3.25,4.35,5.33a1.34,1.34,0,0,0,.26.83,2.25,2.25,0,0,0,1.25.44c2.35.34,4.86.43,6.88,1.31,2.24,1,3.56,2.8,5.9,3.67,3.07,1.13,6.86.32,10.38.13,1.88-.09,3.77,0,5.62-.25a12.55,12.55,0,0,0,6.71-2.94"/><path class="cls-17" d="M41.62,89.83c.42-1.65,2.65-1.69,2.51-2.55s-2.24-1.83-3.65-1.51a6,6,0,0,1-1.34.25,8.8,8.8,0,0,1-1.93-.43,4.94,4.94,0,0,0-4.13,1,6.88,6.88,0,0,0-2,3.3,5.93,5.93,0,0,0,.65,5.49,10.94,10.94,0,0,1,1,1.21c.76,1.33,0,2.87.76,4.21s2.3,1.84,3.43,2.81c.74.64,1.27,1.43,2.07,2,1.35,1,3.14,1.07,4.78,1.42a14.81,14.81,0,0,1,7.69,4.28l1.07-1c-1.43-2.37-4.29-3.9-7-5.14s-5.68-2.45-7.64-4.56a6.46,6.46,0,0,1-1.9-5.25c.28-1.68,1.9-3.64,3.74-3.76a2.39,2.39,0,0,0,1.52-.36C41.6,90.86,41.48,90.38,41.62,89.83Z"/><g class="cls-18"><path class="cls-4" d="M41.49,87.35c-1.53,1-4,.78-5.62,1.68a3.34,3.34,0,0,0-1.62,2,6.91,6.91,0,0,0-.14,2.31,17.69,17.69,0,0,0,.49,3.82,15.64,15.64,0,0,0,.9,2.28,22.05,22.05,0,0,0,1.5,2.78,6.82,6.82,0,0,0,1.45,1.66c2.19,1.72,6.1,1.95,8.31,3.65"/></g><path class="cls-19" d="M41.71,87.75c.61-2.25,3.44-4,6.57-4.75A26.41,26.41,0,0,1,58,83a9.88,9.88,0,0,1,3.27.93,9.85,9.85,0,0,1,2.2,2.06c1.52,1.59,3.73,2.79,5.5,4.25A26.54,26.54,0,0,1,74.7,97.6c.13.22.25.49,0,.68s-.87.1-1.23-.1c-1.81-1-2.81-2.5-4-3.9a26.57,26.57,0,0,0-4.9-4.58,15.12,15.12,0,0,0-6-2.85c-2.36-.48-5.2-.18-6.9,1.1s-2.3,3.29-4.62,3.64c-1.31.2-2.83-.26-3.92.3-.69.35-1.27,1.1-2.06.9a1.13,1.13,0,0,1-.62-.48c-1.39-1.9-.63-4.48,1.74-5.92"/><path class="cls-17" d="M68.28,92.85A29.25,29.25,0,0,0,61.62,87a11,11,0,0,0-4.27-1.69,7.5,7.5,0,0,0-4.78.55c-1.42.78-2.09,2.15-3.69,2.73-.91.33-2.06.37-2.75.91a8,8,0,0,1-.74.68c-.89.54-2.37.11-3.35.57a1.73,1.73,0,0,0-.81,2,3.92,3.92,0,0,1,2.86-1.43c.84-.07,1.7.07,2.52-.06a4.39,4.39,0,0,0,2.76-1.79,9.86,9.86,0,0,1,2-2.3,8.46,8.46,0,0,1,4.7-1.05,11.29,11.29,0,0,1,4.69,1.17A21.36,21.36,0,0,1,68.28,92.85Z"/><path class="cls-20" d="M46.47,117.3c2.33,1,6,.77,9-.17A23.37,23.37,0,0,0,63,113.05a5.5,5.5,0,0,0,1.77-1.9,4.11,4.11,0,0,0,0-2.06c-.13-1.52.58-3.11.75-4.67.23-2.28-.73-4.41-1.69-6.5a.57.57,0,0,0-.54-.39,1,1,0,0,0-.87.58c-.59,1.31-.11,2.57.16,3.82a11.26,11.26,0,0,1,0,4.59,7,7,0,0,1-2.28,4.1,10.09,10.09,0,0,1-6.25,2.31c-2.27,0-4.51-.83-6.59,0-1.18.44-2,1.34-3.28,1.5-.83.09-1.89-.07-2.33.37a.5.5,0,0,0-.09.53c.5,1.63,3.22,2.73,6.24,2.52"/><path class="cls-19" d="M62.8,103.14a9.88,9.88,0,0,1-.31,6.14A6.11,6.11,0,0,1,60.58,112a7.84,7.84,0,0,1-4.16,1.72c-1.74.17-3.39-.3-5.1.06a13.75,13.75,0,0,1-2.88.66c-.39,0-.75-.08-1.14,0-1.14.07-1.93.94-3.07,1.1a2.87,2.87,0,0,1-2.28-.76,6.05,6.05,0,0,0,3.4-.42c.71-.32,1.25-.76,2-1a7.54,7.54,0,0,1,3.62-.18,18.31,18.31,0,0,0,3.46.41,9.2,9.2,0,0,0,4.5-1.41,8.1,8.1,0,0,0,2.66-2.63A8.45,8.45,0,0,0,62.8,103.14Z"/><path class="cls-21" d="M60.85,87.54c.7.5-.05,2.22-1.62,2.83-.83.32-1.15,0-2,.36-1.27.49-1.31,1.8-2.36,2.51s-2.89.59-4.15,1.17a24.63,24.63,0,0,0-2,1.45,9.4,9.4,0,0,1-3.09.87L34.8,98.5a29.75,29.75,0,0,0-6.46,1.55c-2,.82-3.66,2.17-3.93,3.74-.43-2,1.34-4,3.68-5.26a35.8,35.8,0,0,1,8-2.6c6.6-1.69,9.7-2.89,12.35-5,2.27-1.79,2.91-3.37,5.14-3.59,1.44-.14,2.31.4,5.08.19C59.92,87.45,60.5,87.28,60.85,87.54Z"/><path class="cls-17" d="M59.82,88.09c-4.34.79-6.58,2.1-7.83,3.17a24.25,24.25,0,0,1-2.41,2,17.5,17.5,0,0,1-5.36,2.06c-2.59.69-5.18,1.37-7.83,1.92-4.4.9-9.58,1.74-11.59,4.62A31,31,0,0,1,41.45,96.3,24.5,24.5,0,0,0,45,96c1.31-.25,2.35-.71,4.94-2.21,3-1.73,3.79-2.42,6.18-3.78C57.66,89.14,59,88.48,59.82,88.09Z"/><path class="cls-20" d="M43,99.67c-.07-.67,4.53-1.93,8.42-2.38a13,13,0,0,0,3.43-.72,22.34,22.34,0,0,0,2.92-1.63c3.59-2,9.36-1.68,12.06.77.73.66,1.23,1.44,2,2.06.48.38,1.06.69,1.48,1.1a2.13,2.13,0,0,1-.28,3.31,5.29,5.29,0,0,1-4.67.69c-2.81-1-3-4-5.85-5-2-.67-4.42,0-6.33.84-2.58,1.13-3.51,1.9-6,2a17.25,17.25,0,0,1-3.21-.23C44.85,100.29,43.08,100.07,43,99.67Z"/><path class="cls-4" d="M43.1,99.31a28.38,28.38,0,0,0,12.14-1.86,22.13,22.13,0,0,1,3.48-1.26,15.7,15.7,0,0,1,6.71.41,6.8,6.8,0,0,1,2.22.8,7.57,7.57,0,0,1,1.53,1.84,2.79,2.79,0,0,0,2.43,1.07"/><path class="cls-22" d="M54.75,103.16c2.25-.27,2.76-2,3.85-1.85a2,2,0,0,1,1.22,2.89,4,4,0,0,0-.61,1,4.14,4.14,0,0,0,.17,1.52c.13,1.2-.81,2.38-2.16,3.16a13.44,13.44,0,0,1-4.72,1.45c-2.42.35-5.15.34-7-.72a13.49,13.49,0,0,0-1.39-.79c-1.57-.65-3.75-.15-5.34-.76s-1.93-1.86-3-2.77a25.18,25.18,0,0,1-2.18-1.69c-1-1.08-.75-2.47-.86-3.76a8.59,8.59,0,0,0-4-6.13l1.51-.79c2.81,1.2,4.21,3.48,5.27,5.66s2,4.51,4.38,6.11a10.52,10.52,0,0,0,6.46,1.67c2.25-.15,5.15-1.33,5.68-2.75a1.74,1.74,0,0,1,.79-1.16A4.77,4.77,0,0,1,54.75,103.16Z"/><path class="cls-23" d="M51.74,100.48c.78-.1,2.4-.33,3.25.28a1.48,1.48,0,0,1,.27,2.1,5.88,5.88,0,0,1-2.38,1.56,15.67,15.67,0,0,1-7.74,1.35c-4-.45-6.72-2.81-9.87-4.5a28.41,28.41,0,0,0-10.76-3.06,10.39,10.39,0,0,1,3.13-1c5.11-.89,7,2.51,14.32,3.06A60,60,0,0,0,51.74,100.48Z"/><path class="cls-17" d="M55.57,101.75A5.51,5.51,0,0,0,53,101a15,15,0,0,0-3.32.55,16.58,16.58,0,0,1-3.86.12c-2-.15-2-.51-5.1-1a23.36,23.36,0,0,1-3-.48,18.08,18.08,0,0,1-2.89-1.22A16.41,16.41,0,0,0,30.2,97.2a9.44,9.44,0,0,0-3.59.34,11.2,11.2,0,0,1,2.8-.54c3.79-.26,4.95,1.57,9.8,2.79,4.53,1.14,10,1.17,11.65.78a11.52,11.52,0,0,1,2.4-.22,3.22,3.22,0,0,1,1.35.21A1.59,1.59,0,0,1,55.57,101.75Z"/><path class="cls-17" d="M67.9,105.42c1.66,1.17.35,2.45,1.44,2.86s3.49-.24,4-1.22a2.84,2.84,0,0,1,.52-.9,8,8,0,0,1,1.68-.85,2.3,2.3,0,0,0,1.34-2.89,7.14,7.14,0,0,0-2.6-3,13,13,0,0,0-6.78-2.72c-.67,0-1.34,0-2-.14-2-.31-3.37-1.59-5.36-1.93-1.84-.32-3.55.26-5.37.35-1.18.06-2.43-.08-3.58,0-1.93.23-3.15,1.18-4.55,1.91A20.57,20.57,0,0,1,37,98.88l.49,1.16A25,25,0,0,0,47.72,99c3.12-.86,6.31-1.84,10-1.76a15.23,15.23,0,0,1,7.26,1.88c1.79,1.1,3.09,3.12,2.11,4.23-.22.24-.67.58-.5,1.06S67.34,105,67.9,105.42Z"/><g class="cls-18"><path class="cls-4" d="M70.86,106.74c-.19-1.41,1.52-2.7,1.46-4.12a2.86,2.86,0,0,0-1.34-2,13.65,13.65,0,0,0-2.6-1.38,39.59,39.59,0,0,0-4.74-1.87c-1-.31-2.12-.55-3.21-.78-1.36-.28-2.74-.54-4.15-.72a14.63,14.63,0,0,0-2.81-.11c-3.33.27-6,2.36-9.29,2.65"/></g><path class="cls-19" d="M70.25,106.64A4.91,4.91,0,0,1,71.8,113c-1.06,2.18-3.34,4-5.84,5.52a9.3,9.3,0,0,1-3.06,1.33,18.55,18.55,0,0,1-3.73.08c-2.78,0-5.52.55-8.29.73a57.6,57.6,0,0,1-12.11-.92c-.34,0-.73-.14-.81-.37s.41-.55.86-.64a26.84,26.84,0,0,1,6.94-.05,50.16,50.16,0,0,0,8.31-.18,19.45,19.45,0,0,0,7-1.78c2-1.07,3.36-2.85,2.89-4.53s-2.43-3.15-1.43-4.66c.57-.85,2-1.46,2-2.39,0-.59-.51-1.33.2-1.66a1.81,1.81,0,0,1,.93-.09c3.06.29,5.61,2.17,5.84,4.31"/><path class="cls-17" d="M48.19,118.8A52.67,52.67,0,0,0,59,118.32a12.75,12.75,0,0,0,4.56-1.46c1.32-.74,2.3-1.86,2.25-3s-1.23-2.39-.93-3.62c.17-.7.81-1.38.6-2.07a5,5,0,0,1-.33-.8c-.1-.81,1.31-1.4,1.37-2.21s-1-1.23-1.85-1.59a1.87,1.87,0,0,1-.06,2.43c-.43.51-1.12.91-1.46,1.46a2.29,2.29,0,0,0,.4,2.56,8.06,8.06,0,0,1,1.47,2.43c.34,1.55-1.23,2.9-1.63,3.25a10.08,10.08,0,0,1-4.22,2A35.48,35.48,0,0,1,48.19,118.8Z"/><path class="cls-21" d="M58.89,117.59a2.46,2.46,0,0,1-2.31-2.51c.13-.65.65-.67.77-1.31.2-1-1.3-1.76-1.49-2.75s1.08-2,1.15-3c.05-.67-.39-1.29-.45-2a3.85,3.85,0,0,1,.86-2.23l4.52-7.13a12.67,12.67,0,0,0,2.11-4.53,4.19,4.19,0,0,0-2-4.33,5.47,5.47,0,0,1,3.9,5c0,2-.94,4-1.79,6-2,4.68-2.54,7.11-1.71,9.78.71,2.29,2.16,3.54,1.06,4.93-.71.89-1.87,1.08-3.31,2.77C59.55,117.11,59.41,117.54,58.89,117.59Z"/><path class="cls-17" d="M58.87,116.7c1.71-2.91,1.55-4.91,1.07-6.22A13.46,13.46,0,0,1,59,108a7.27,7.27,0,0,1,.85-4.19,59,59,0,0,1,2.52-5.51c1.62-3,3.79-6.4,1.65-9.16,1.15,4.26-.17,8.86-3.59,12.56a12.12,12.12,0,0,0-1.82,2.17c-.5.89-.59,1.73-.42,4,.2,2.66.51,3.5.64,5.62A23.64,23.64,0,0,1,58.87,116.7Z"/><path class="cls-21" d="M28.42,109.32a2.46,2.46,0,0,1-2.31-2.51c.13-.64.65-.67.78-1.31.19-1-1.31-1.76-1.49-2.75s1.07-2,1.15-3c0-.66-.4-1.29-.45-2A3.83,3.83,0,0,1,27,95.55l4.52-7.13a12.62,12.62,0,0,0,2.12-4.53c.25-1.58,3.59-.37,1.92-1.42,2.59.88,0,.11,0,2.13s-.93,4-1.79,6c-2,4.68-2.53,7.11-1.7,9.78.7,2.29,2.16,3.55,1.06,4.93-.71.89-1.87,1.08-3.32,2.77C29.08,108.84,28.94,109.27,28.42,109.32Z"/><path class="cls-17" d="M28.41,108.43c1.71-2.91,1.55-4.91,1.06-6.21a14.66,14.66,0,0,1-.9-2.51,7.27,7.27,0,0,1,.85-4.19C30.2,93.67,31,91.82,32,90c1.61-3,6-4.3,3.85-7.06C37,87.21,33.43,89.71,30,93.42a12.57,12.57,0,0,0-1.82,2.16c-.49.89-.59,1.73-.41,4,.2,2.66.51,3.51.64,5.63A27.41,27.41,0,0,1,28.41,108.43Z"/><path class="cls-20" d="M55.57,100.69c.82.33-.5,3.65-2.33,6.1A5.72,5.72,0,0,0,52,109.13a10.56,10.56,0,0,0,.12,2.57c.1,3.13-3.72,6.25-8.21,6.39-1.21,0-2.42-.11-3.63,0-.72.06-1.44.21-2.17.22-1.71,0-3.32-.87-3.69-2s.51-2.47,2-3c2.84-1,6.52.55,9.34-.51a4.59,4.59,0,0,0,2.87-4c.25-2.1-.08-3.06,1.28-4.56a11.33,11.33,0,0,1,2.21-1.69C53.76,101.37,55.08,100.49,55.57,100.69Z"/><path class="cls-4" d="M56,100.93a13.37,13.37,0,0,0-5.21,7.91,9,9,0,0,1-.64,2.68c-.78,1.51-2.67,2.62-4.55,3.56a7.2,7.2,0,0,1-2.28.81,15.86,15.86,0,0,1-3.07-.17,3.29,3.29,0,0,0-2.72.77"/><path class="cls-22" d="M44.41,105.35c-1.06,1.42.64,2.68-.19,3.22s-3.28.08-4.1-.93a4.49,4.49,0,0,0-.83-.92,9.62,9.62,0,0,0-1.87-.77,3.58,3.58,0,0,1-2.37-3,5.69,5.69,0,0,1,1.19-3.49,8.05,8.05,0,0,1,5.1-3.57c.59-.12,1.21-.17,1.77-.34,1.7-.53,2.44-2,4.12-2.59s3.34,0,5-.12c1.1,0,2.19-.33,3.28-.29,1.85.06,3.34,1,4.91,1.63A19,19,0,0,0,70,95.37v1.3c-3.1.91-6.6.42-9.79-.21s-6.47-1.38-9.76-.95a9.62,9.62,0,0,0-5.88,2.71c-1.19,1.36-1.57,3.66-.24,4.76.29.25.84.57.88,1.1S44.76,104.88,44.41,105.35Z"/><path class="cls-23" d="M49.36,105.16a3.51,3.51,0,0,1-2.3,1.68,3.13,3.13,0,0,1-2.62-1,3.07,3.07,0,0,1-.37-2.23,7.24,7.24,0,0,1,3.13-5.13c2.92-2,7.35-2.22,11.23-3.06A27,27,0,0,0,68.53,91a4.64,4.64,0,0,1-.68,2.36c-2.08,3.39-7.19,2.56-12.26,6.38S49.36,105.16,49.36,105.16Z"/><path class="cls-17" d="M45.55,106.61a5.65,5.65,0,0,0,2.48-1c.79-.64.75-1.19,1.38-2.18a8.75,8.75,0,0,1,2.2-2.26c1.37-1,1.79-.83,4.25-2.33a18,18,0,0,1,2.36-1.4,20.5,20.5,0,0,1,3.17-1c2.63-.71,3.94-1.06,4.85-1.67A4.84,4.84,0,0,0,68,92.6,5.18,5.18,0,0,1,67,94.48c-2,2.29-4.83,1.92-9.2,4-4.08,1.92-7.41,5-8,6.14a5.28,5.28,0,0,1-1.21,1.49,2.73,2.73,0,0,1-1,.65A3.42,3.42,0,0,1,45.55,106.61Z"/><path class="cls-4" d="M85.85,104.33a3.38,3.38,0,0,1-1.67,3.09,5.35,5.35,0,0,1-1.86.45c-.68.07-1.5,0-1.8-.41a.69.69,0,0,1,.16-.88,4.54,4.54,0,0,1,.94-.68,10.74,10.74,0,0,0,2.55-2.18,3.91,3.91,0,0,1,.77-.81,1.87,1.87,0,0,1,1.24-.34.4.4,0,0,1,.25.1.24.24,0,0,1,.06.2l0,1.31"/><path class="cls-4" d="M85.08,102.81A29.6,29.6,0,0,0,81.82,105a3,3,0,0,0-1.29,1.61A1.28,1.28,0,0,0,82,107.91a2.4,2.4,0,0,0,1.72-1.1l2.11-2.67a1.19,1.19,0,0,0,.31-.61.51.51,0,0,0-.51-.47"/><path class="cls-7" d="M81.54,109.13a18.4,18.4,0,0,0,5,4.14,5.3,5.3,0,0,0,3.22.92c1.58-.18,2.5-1.33,3.74-2,2.25-1.3,5.52-1.12,8.21-1.89a8.81,8.81,0,0,0,5.48-4.2,7.34,7.34,0,0,0,.29-5.7,10.32,10.32,0,0,1-.61-2.06c-.14-1.35.55-2.69.5-4a3,3,0,0,0-3.26-2.76c-1.71.08-2.78,1.31-3.81,2.28C97.34,96.51,92.69,98,88.71,100s-7.67,5.08-6.86,8.38"/><path class="cls-24" d="M60.42,108.43a5.94,5.94,0,0,1-.18-3.44.53.53,0,0,1,.56-.46.51.51,0,0,1,.34.22,6.71,6.71,0,0,1,1.5,3.21.21.21,0,0,1,0,.2.51.51,0,0,1-.32.1l-1.53.14"/><path class="cls-24" d="M36.31,101a8.53,8.53,0,0,1-2.65-2.86c-.11-.2-.15-.51.15-.58a.77.77,0,0,1,.47.07,11.62,11.62,0,0,1,3.64,2.19c.06.06.12.11.11.18s-.11.15-.21.2l-1.24.66"/><path class="cls-24" d="M49.65,90.71l-.11.91c0,.31-.1.62-.12.93s.4.52.73.57a4.52,4.52,0,0,0,1,0,8,8,0,0,0,2.7-.73,2.71,2.71,0,0,0,.91-.63.78.78,0,0,0,.22-.71c-.16-.52-.89-.76-1.35-.93a1.79,1.79,0,0,0-.83,0,3.39,3.39,0,0,0-1,.31c-.17.09-.47.23-.52.43s.06.25.22.31l.39.16-.16-.07a1.65,1.65,0,0,1,.65.45l-.08-.11a.47.47,0,0,1,.09.31l0-.13a.72.72,0,0,1-.1.24l.1-.15-.08.1c-.11.12.17-.12,0,0l-.08,0,.16-.09s-.1,0-.13.07c-.19.09.29-.12.11,0l-.15.06-.1,0,.23-.08-.18,0c-.25.07.29,0,.14,0l-.16,0-.17,0h-.17c-.21,0,.16,0,0,0l.16.07A.45.45,0,0,1,52,92l.08.1a.43.43,0,0,1,0-.25V92c.06-.57.14-1.13.21-1.69a.13.13,0,0,0,0-.18A.24.24,0,0,0,52,90a1.94,1.94,0,0,0-.83,0,3.3,3.3,0,0,0-1,.31l-.25.14a.78.78,0,0,0-.28.29Z"/><path class="cls-24" d="M47.33,114.41l0,0,.18.13-.06-.06.1.17a.12.12,0,0,1,0-.08v.19a.15.15,0,0,1,0-.09l-.09.2a.25.25,0,0,1,0-.07l-.16.2a.12.12,0,0,1,.05,0l-.24.17,0,0-.29.15.06,0-.34.12.09,0-.35.07h-.11l-.29,0,.17,0-.23-.08a.6.6,0,0,1,.16.08l-.17-.13a.86.86,0,0,1,.18.2l-.1-.17a.89.89,0,0,1,.09.39v-.2a1,1,0,0,1-.06.34l.08-.2a.62.62,0,0,1-.11.17l.17-.19a.52.52,0,0,1-.11.1l.23-.18a.42.42,0,0,1-.14.09l.29-.15-.14.06.34-.12-.15,0,.35-.06h0l.29,0-.11,0a1.71,1.71,0,0,0-.45,0,1.82,1.82,0,0,0-.52.08,1.66,1.66,0,0,0-.48.19,1.56,1.56,0,0,0-.38.25c-.14.15-.32.37-.25.59a.67.67,0,0,0,.51.38,2.54,2.54,0,0,0,.47.07,3.08,3.08,0,0,0,.53,0,4.52,4.52,0,0,0,.53-.11,3.84,3.84,0,0,0,.78-.34,2.07,2.07,0,0,0,.66-.59,1.73,1.73,0,0,0,.18-.36,1.17,1.17,0,0,0,0-.2,1.56,1.56,0,0,0,0-.57,1,1,0,0,0-.31-.48,1.18,1.18,0,0,0-.32-.21,2,2,0,0,0-.43-.14,3.31,3.31,0,0,0-.77,0l-.27,0a2.19,2.19,0,0,0-.59.17,2,2,0,0,0-.66.41,1.14,1.14,0,0,0-.32.51.65.65,0,0,0,.38.73,1,1,0,0,0,.39.11,1.48,1.48,0,0,0,.47,0,1.89,1.89,0,0,0,.52-.13,1.46,1.46,0,0,0,.46-.21l.23-.17a.8.8,0,0,0,.25-.4v-.19a.5.5,0,0,0-.27-.3Z"/><path class="cls-24" d="M62.47,96.6a1.64,1.64,0,0,0-.26-.16,1.8,1.8,0,0,0-.33-.1,2.57,2.57,0,0,0-.83,0,2.71,2.71,0,0,0-1.73.86.75.75,0,0,0-.13.25.27.27,0,0,0,0,.12.82.82,0,0,0,0,.27.84.84,0,0,0,.15.26,1.16,1.16,0,0,0,.36.3,1.63,1.63,0,0,0,.52.19l.19,0a3.73,3.73,0,0,0,.47,0,4.14,4.14,0,0,0,1-.13,2,2,0,0,0,.48-.18,1.56,1.56,0,0,0,.38-.25.56.56,0,0,0,.21-.27.35.35,0,0,0,.05-.28l-.09-.16a.91.91,0,0,0-.41-.19,2.44,2.44,0,0,0-1,.06h0l.35-.07a1.66,1.66,0,0,1-.22,0l.32,0h-.25l.29,0a1.37,1.37,0,0,1-.28,0l.24.07a.82.82,0,0,1-.25-.12l.17.12a.46.46,0,0,1-.19-.2l.09.16a.43.43,0,0,1,0-.16v.18a.27.27,0,0,1,0-.12l-.09.19a.18.18,0,0,1,0-.07l-.17.18.07-.06-.23.17.07,0-.29.14.1,0-.34.12.09,0-.35.07h.11l-.33,0h.09l-.29,0,.1,0-.23-.08.1,0-.17-.12h0a.64.64,0,0,0,.29.16,1.08,1.08,0,0,0,.4.06,1.77,1.77,0,0,0,.51,0,2.46,2.46,0,0,0,.51-.15l.29-.15a1.35,1.35,0,0,0,.4-.35l.09-.19a.36.36,0,0,0-.09-.34Z"/><path class="cls-24" d="M66.32,100.63l0,.91,0,.46a1.16,1.16,0,0,0,0,.32.57.57,0,0,0,.12.18.61.61,0,0,0,.22.13,2,2,0,0,0,.94.07,4.31,4.31,0,0,0,.49-.11,6.37,6.37,0,0,0,.94-.38,3.42,3.42,0,0,0,.51-.33,3.59,3.59,0,0,0,.4-.38,2.47,2.47,0,0,0,.27-.44.85.85,0,0,0,.09-.31.21.21,0,0,0,0-.24.32.32,0,0,0-.21-.18.94.94,0,0,0-.37-.07,1.48,1.48,0,0,0-.47,0,2.43,2.43,0,0,0-1,.33l-.24.16a.73.73,0,0,0-.26.34,1.15,1.15,0,0,1-.1.33l.09-.17a1.66,1.66,0,0,1-.22.3l.17-.17a2.43,2.43,0,0,1-.25.2l.24-.16-.25.14.29-.14-.23.09.34-.11-.14,0,.35-.07h-.05l.33,0h0l.29,0h0l.23.06h0l.16.1,0,0,.09.14a.14.14,0,0,1,0-.07v.16c0-.48.06-1,.09-1.46a.22.22,0,0,0,0-.24.32.32,0,0,0-.21-.18,1.23,1.23,0,0,0-.38-.08,1.85,1.85,0,0,0-.47,0,2.69,2.69,0,0,0-1,.32l-.23.17a.75.75,0,0,0-.27.34Z"/><path class="cls-24" d="M44.74,105h0l.29-.16,0,0,.34-.12h0l.35-.06h.19l.3,0-.07,0,.24.1,0,0,.18.15,0,0,.1.19a.14.14,0,0,1,0-.06v.22a.07.07,0,0,1,0,0l-.08.21s0,0,0,0l-.16.21,0,0-.23.19h0a1.07,1.07,0,0,0,.3-.3.67.67,0,0,0,.17-.32.44.44,0,0,0-.06-.32.45.45,0,0,0-.23-.24l-.25-.1a1.62,1.62,0,0,0-.62,0l-.35.07a1.87,1.87,0,0,0-.63.28h0a.69.69,0,0,0-.12.1.53.53,0,0,0-.12.1,1.27,1.27,0,0,0-.11.13l-.1.13s0,.09,0,.12,0,.09,0,.13v0h0s0,.18,0,.22v0s0,0,0,0A2.39,2.39,0,0,0,44,106l0,0a1.73,1.73,0,0,0,.21.17,2.31,2.31,0,0,0,.27.12h.07l.3,0h.43a2.66,2.66,0,0,0,.39-.07,1.29,1.29,0,0,0,.21-.07l.2-.07h0l.29-.16h0a1,1,0,0,0,.31-.3.58.58,0,0,0,.16-.32.37.37,0,0,0-.06-.32.39.39,0,0,0-.23-.24l-.24-.1a1.63,1.63,0,0,0-.62,0l-.35.07a1.79,1.79,0,0,0-.63.28Z"/><path class="cls-24" d="M40.32,89.51a2.73,2.73,0,0,0-.26-1.09l-2.49.86.48.46a.64.64,0,0,0,.29.16,1.14,1.14,0,0,0,.41.07,2.12,2.12,0,0,0,.5,0,2.15,2.15,0,0,0,.51-.15l.29-.15a1.25,1.25,0,0,0,.4-.36l.09-.19a.38.38,0,0,0-.09-.35L40,88.26a.69.69,0,0,0-.29-.16,1.14,1.14,0,0,0-.41-.07l-.33,0a1.89,1.89,0,0,0-.52.13,1.2,1.2,0,0,0-.31.13,1.36,1.36,0,0,0-.38.24l-.17.19a.51.51,0,0,0-.09.38,2.69,2.69,0,0,1,.27,1.08.36.36,0,0,0,.18.22.62.62,0,0,0,.32.14,1.36,1.36,0,0,0,.45,0,1.81,1.81,0,0,0,.52-.07l.33-.12a2,2,0,0,0,.53-.32l.17-.19a.45.45,0,0,0,.08-.37Z"/><path class="cls-25" d="M40.13,108.94a.9.9,0,0,0-.06-.22,2.11,2.11,0,0,0-.16-.34l-.06-.11a1,1,0,0,0-.15-.2,4.31,4.31,0,0,0-.37-.37.88.88,0,0,0-.4-.17,1.16,1.16,0,0,0-.49,0,1.32,1.32,0,0,0-.52.12,1.4,1.4,0,0,0-.45.24l-.22.22a.85.85,0,0,0-.22.5l0,.26a.77.77,0,0,0,.3.43l.12.1-.2-.19a1.46,1.46,0,0,1,.29.41l-.11-.24a1.12,1.12,0,0,1,.1.31.59.59,0,0,0,.21.33.77.77,0,0,0,.35.23,1,1,0,0,0,.46.08,1.3,1.3,0,0,0,.52,0l.34-.13a1.36,1.36,0,0,0,.5-.39l.16-.25a.77.77,0,0,0,0-.52Z"/><path class="cls-25" d="M48.5,106.39c1.46,0,2-1.87.23-1.87-1.46,0-2,1.87-.23,1.87Z"/><path class="cls-25" d="M49.55,90.65a1.7,1.7,0,0,1-.11-.92l0,.11a1.8,1.8,0,0,1,.17-.51c.07-.16-.09-.23-.21-.26a1.09,1.09,0,0,0-.36,0,1.75,1.75,0,0,0-.46,0,3.78,3.78,0,0,0-1,.3l-.24.13a.73.73,0,0,0-.29.26A1.87,1.87,0,0,0,47,91.35c.06.15.32.16.45.16a2.08,2.08,0,0,0,.43,0,2.88,2.88,0,0,0,.51-.1,3.08,3.08,0,0,0,.88-.36l.19-.13a.29.29,0,0,0,.12-.24Z"/><path class="cls-25" d="M64.05,99.19l.85,1.23a.21.21,0,0,0,.16.14.55.55,0,0,0,.31.08,2.16,2.16,0,0,0,.44,0,2.28,2.28,0,0,0,.51-.09l.34-.11a2.73,2.73,0,0,0,.54-.27l.17-.15a.29.29,0,0,0,.12-.27l-.85-1.23a.22.22,0,0,0-.16-.15.55.55,0,0,0-.31-.07,1.63,1.63,0,0,0-.44,0,3.06,3.06,0,0,0-.51.1l-.33.11a2.73,2.73,0,0,0-.54.27l-.18.14a.32.32,0,0,0-.12.28Z"/><path class="cls-25" d="M60.68,108.09l0-.22a.39.39,0,0,0-.19-.24.57.57,0,0,0-.33-.16,1.38,1.38,0,0,0-.45,0,1.81,1.81,0,0,0-.52.07l-.34.12a1.94,1.94,0,0,0-.52.34l-.16.2a.53.53,0,0,0-.08.41l0,.21a.39.39,0,0,0,.18.25.64.64,0,0,0,.33.16,1.41,1.41,0,0,0,.46,0,1.51,1.51,0,0,0,.51-.08l.34-.11a2,2,0,0,0,.52-.34l.16-.2a.5.5,0,0,0,.08-.41Z"/><path class="cls-25" d="M64.13,117.49l.17-.12-.29.18a2.81,2.81,0,0,1,.35-.17l-.33.13a1.69,1.69,0,0,1,.44-.12l-.35.06a1.83,1.83,0,0,1,.47,0h-.18a1.88,1.88,0,0,0,1-.18,1.21,1.21,0,0,0,.4-.28.92.92,0,0,0,.26-.35.75.75,0,0,0-.06-.74,1.09,1.09,0,0,0-.74-.39,4.25,4.25,0,0,0-1.55.12l-.21.06c-.17.07-.35.13-.51.21a1.92,1.92,0,0,0-.31.18,2,2,0,0,0-.31.2A1.13,1.13,0,0,0,62,117a.74.74,0,0,0,.32.68,1.35,1.35,0,0,0,.88.21,1.77,1.77,0,0,0,1-.36Z"/><path class="cls-17" d="M39.85,109.71l.26,1.53a.42.42,0,0,0,.19.26.65.65,0,0,0,.33.17,1.41,1.41,0,0,0,.46,0,1.5,1.5,0,0,0,.51-.07,1.85,1.85,0,0,0,.86-.46.72.72,0,0,0,.23-.63L42.44,109a.43.43,0,0,0-.19-.26.59.59,0,0,0-.33-.17,1.2,1.2,0,0,0-.46,0,1.52,1.52,0,0,0-.52.07,1.86,1.86,0,0,0-.85.46.72.72,0,0,0-.24.63Z"/><path class="cls-17" d="M34.39,98.91l-1.25-.38a1.19,1.19,0,0,0-.46-.06,1.87,1.87,0,0,0-1,.26,1.16,1.16,0,0,0-.37.29.75.75,0,0,0-.22.69l.1.2a.87.87,0,0,0,.43.28l1.25.39a1.19,1.19,0,0,0,.46.06,2,2,0,0,0,1-.27,1.13,1.13,0,0,0,.37-.28.75.75,0,0,0,.22-.69l-.1-.21a.87.87,0,0,0-.43-.28Z"/><path class="cls-17" d="M31.9,104.12c.18,0,.36,0,.54,0h0a1.35,1.35,0,0,1,.28,0,5.84,5.84,0,0,1,1,.25l-.24-.08a5.15,5.15,0,0,1,1,.48,1.58,1.58,0,0,0,.86.1,2.26,2.26,0,0,0,1-.34c.19-.12.46-.31.49-.56a.45.45,0,0,0-.27-.48,7.54,7.54,0,0,0-3.72-.94,2.49,2.49,0,0,0-1,.19,1.5,1.5,0,0,0-.69.52.44.44,0,0,0,0,.55,1,1,0,0,0,.71.24Z"/><path class="cls-17" d="M46.67,102.33a4.86,4.86,0,0,1-1.52-1.26l.08.1a2.43,2.43,0,0,1-.56-1.59l0,.13a1.48,1.48,0,0,1,.18-.51.21.21,0,0,1,0-.06l0,0a.32.32,0,0,0,.1-.1c.06,0,0,0-.08.07.07,0,.06,0,0,0l0,0-.14.06a1.83,1.83,0,0,0,.72-.4c.09-.1.19-.26,0-.36a1.07,1.07,0,0,0-.66-.1,4,4,0,0,0-1,.23,2.45,2.45,0,0,0-1.56,1.23,1.8,1.8,0,0,0,0,1.19,4.27,4.27,0,0,0,2.05,2.18,1.24,1.24,0,0,0,.66.1,3.45,3.45,0,0,0,1-.23,1.76,1.76,0,0,0,.72-.4c.08-.09.21-.27,0-.36Z"/><path class="cls-17" d="M46.88,93l.06.09L46.86,93a5.74,5.74,0,0,1,.86,1.84c.05.18.33.22.47.24A3.29,3.29,0,0,0,50,94.54c.12-.1.33-.25.29-.44a6.18,6.18,0,0,0-1-2A.52.52,0,0,0,49,92a1.35,1.35,0,0,0-.4,0,3.21,3.21,0,0,0-1,.22l-.29.13a1.4,1.4,0,0,0-.42.3l-.1.15a.19.19,0,0,0,.07.25Z"/><path class="cls-17" d="M44.85,114.72s.33,0,.08,0,0,0,.09,0h.36l.4,0,.22,0c.08,0,.29,0,0,0a9.58,9.58,0,0,1,1.5.34l-.23-.08.1,0a1.93,1.93,0,0,0,.86.1,2.3,2.3,0,0,0,1-.34c.19-.12.45-.31.48-.55a.43.43,0,0,0-.26-.48,10.29,10.29,0,0,0-4.19-.53,2.49,2.49,0,0,0-1,.34c-.16.11-.45.33-.48.56-.08.59.73.6,1.12.58Z"/><path class="cls-17" d="M60.81,117.13a5.3,5.3,0,0,1-.65-.28l.16.09a3,3,0,0,1-1.1-1l.08.13,0-.05a.27.27,0,0,0-.17-.16.54.54,0,0,0-.31-.09,2.54,2.54,0,0,0-.95.09,2.6,2.6,0,0,0-.88.4l-.17.15a.37.37,0,0,0-.11.31,3,3,0,0,0,.81.86,4.65,4.65,0,0,0,1.22.61,1.94,1.94,0,0,0,.83,0,3.11,3.11,0,0,0,1-.32l.24-.15a.8.8,0,0,0,.27-.31v-.15a.35.35,0,0,0-.25-.21Z"/><path class="cls-17" d="M52.84,108.3l.75,1.36a.25.25,0,0,0,.16.17.53.53,0,0,0,.32.1,1.62,1.62,0,0,0,.44,0,2.09,2.09,0,0,0,.51-.09,2.27,2.27,0,0,0,.88-.4l.17-.16a.34.34,0,0,0,.1-.32l-.75-1.36a.25.25,0,0,0-.16-.17.6.6,0,0,0-.32-.1,1.62,1.62,0,0,0-.44,0,2.28,2.28,0,0,0-.51.09,2.16,2.16,0,0,0-.87.4l-.18.16a.38.38,0,0,0-.1.32Z"/><path class="cls-17" d="M60.52,93.17a7.84,7.84,0,0,0-.89-3.62c-.08-.16-.3-.18-.45-.19a3,3,0,0,0-1,.12,3.1,3.1,0,0,0-.88.37c-.09.06-.38.24-.3.39a7.84,7.84,0,0,1,.88,3.62c0,.16.4.18.46.19a3.79,3.79,0,0,0,1.83-.49c.14-.1.3-.2.3-.39Z"/><g class="cls-26"><path class="cls-24" d="M144.53,64.85c-2.72-.59-6.19-.35-9.41-.35s-6.78-.41-7.66-1.7c-.38-.55-.2-1.19-.62-1.73-.83-1.06-3.64-1.44-6.22-1.61a117.28,117.28,0,0,0-20.8.49c-3.63.41-7.59,1.11-9.66,2.55-.77.53-1.21,1.13-2.07,1.64a5.87,5.87,0,0,1-3.55.73l.07-.19C76.3,66,70.51,70.45,72.32,73.89c-2.55,1.52-3.86,4.13-2.77,6.32.28.58.71,1.18.47,1.78-.17.41-.63.73-1,1.1s-.51.87-.12,1.19a2.69,2.69,0,0,0,1.23.34,6.22,6.22,0,0,1,3.74,1.84c.61.69.94,1.54,1.81,2.09a6,6,0,0,0,4.2.39,33.65,33.65,0,0,0,4-1.37,22.9,22.9,0,0,1,7.82-1.19,33,33,0,0,0,6.44,0,13.09,13.09,0,0,0,6.57-3.67A16.91,16.91,0,0,0,106.48,81a76.65,76.65,0,0,1,9.21-.81c4.25-.1,8.52.15,12.73-.46a36.87,36.87,0,0,0,13.44-5c2.77-1.61,5.43-3.32,6.41-5.19S148.1,65.62,144.53,64.85Z"/></g><g class="cls-26"><path class="cls-24" d="M73.13,72.92l0,0,.09.17a2,2,0,0,1-.25-.9v.2a2.21,2.21,0,0,1,.19-.88l-.09.2a2.41,2.41,0,0,1,.41-.64l-.17.19a2.9,2.9,0,0,1,.36-.34s.16-.13,0,0h0l.25-.16-2,.1a1.34,1.34,0,0,1,.32.39l-.09-.17a1.43,1.43,0,0,1,.16.58v-.19a1.55,1.55,0,0,1-.11.56l.08-.2a1.59,1.59,0,0,1-.22.35l.17-.2-.15.16-.07.06c-.14.13.24-.18.08-.06a1.08,1.08,0,0,0-.48.57.45.45,0,0,0,.27.49,1.5,1.5,0,0,0,.86.11,2.3,2.3,0,0,0,1-.34,2.51,2.51,0,0,0,1.18-1.63,1.75,1.75,0,0,0-.57-1.51,1.18,1.18,0,0,0-.87-.25,2.42,2.42,0,0,0-1.14.35,4,4,0,0,0-1.77,2,2.47,2.47,0,0,0-.13,1,2.28,2.28,0,0,0,.36,1c.11.18.53.24.71.25a2.37,2.37,0,0,0,1-.2,1.5,1.5,0,0,0,.69-.52l.08-.2a.41.41,0,0,0-.09-.37Z"/></g><g class="cls-26"><path class="cls-24" d="M87.05,59.59a3,3,0,0,0-.14-1.88A4.26,4.26,0,0,0,85.48,56a1.53,1.53,0,0,0-1.22-.09,1.55,1.55,0,0,0-1,.69,3.81,3.81,0,0,0-.43,2.12,3.65,3.65,0,0,0,.74,1.87,1,1,0,0,0,.72.31,2,2,0,0,0,1-.19c.41-.2,1-.69.64-1.2a3.88,3.88,0,0,1-.3-.48l.1.2a3.35,3.35,0,0,1-.35-1.28v.22a3.28,3.28,0,0,1,.19-1.2l-.08.22a2.87,2.87,0,0,1,.18-.4l-2.23.6.22.17-.18-.16a3.66,3.66,0,0,1,.84,1l-.1-.2a2.77,2.77,0,0,1,.3,1.09V59.1a2.63,2.63,0,0,1-.08.74.56.56,0,0,0,.29.57,1.46,1.46,0,0,0,.87.15c.57-.07,1.29-.35,1.44-1Z"/></g><path class="cls-24" d="M83.3,68a.8.8,0,0,0,0-.64,1.07,1.07,0,0,1-.16-.55v.12a.4.4,0,0,1,.07-.18l-.1.13a1.14,1.14,0,0,1,.11-.11l-.17.14.08-.06-.18.1-.22.09.08,0c-.3.08-.39.11-.26.08l-.26.06h0l-.23,0h.08l-.23,0a.94.94,0,0,1,.3.07l-.15-.06a1.13,1.13,0,0,1,.43.32l-.08-.09a.94.94,0,0,1,.19.68l0-.12a1.86,1.86,0,0,1-.42.84l.11-.13-.37.44c-.1.11-.19.23-.05.35a1.07,1.07,0,0,0,.66.08,3.88,3.88,0,0,0,1-.22,1.83,1.83,0,0,0,.72-.4q.3-.33.57-.69a1.83,1.83,0,0,0,.3-.63,1.19,1.19,0,0,0,0-.62,1.31,1.31,0,0,0-.37-.53,2.5,2.5,0,0,0-2-.29,5,5,0,0,0-1.42.43,1.81,1.81,0,0,0-.82.65.71.71,0,0,0,0,.62,1.24,1.24,0,0,1,.19.6l0-.12,0,.11c-.07.17.08.25.21.28a2.06,2.06,0,0,0,.82,0,4.22,4.22,0,0,0,1-.31c.18-.09.45-.21.53-.41Z"/><path class="cls-24" d="M96.31,60.32A3,3,0,0,0,96,59.1a2.45,2.45,0,0,0-.8-1.05,2.3,2.3,0,0,0-3.14,1.09,4.59,4.59,0,0,0,1,4.31,1.46,1.46,0,0,0,1.58.23c.48-.18,1-.56.89-1.13L95.45,62c0-.24-.34-.42-.54-.49a1.72,1.72,0,0,0-1,0c-.54.16-1.15.55-1.07,1.19l.08.56,2.48-.91a4.32,4.32,0,0,1-.58-.88l.1.21a4.37,4.37,0,0,1-.43-1.59l0,.24a3.78,3.78,0,0,1,.11-1.16l-.08.24a1.51,1.51,0,0,0,.09-.18c-.12.15-.14.18-.07.1s0-.06-.11.09c.1-.08,0,0-.15.08a1.71,1.71,0,0,1-.49.14.85.85,0,0,1-.59-.12l.09.07-.19-.17a2.24,2.24,0,0,1,.42.6l-.1-.21a2.62,2.62,0,0,1,.25.92l0-.24v.07a.65.65,0,0,0,.3.61,1.43,1.43,0,0,0,.88.19,1.88,1.88,0,0,0,1-.36c.19-.15.47-.4.46-.66Z"/><path class="cls-24" d="M92.87,74.32a7.52,7.52,0,0,0,1.8-1.09,7.08,7.08,0,0,0,.78-.77,1.62,1.62,0,0,0,.37-.65.92.92,0,0,0-.35-1,2.34,2.34,0,0,0-1.55-.33,4.24,4.24,0,0,0-1.41.35,3.49,3.49,0,0,0-1.73,1.53,3.93,3.93,0,0,0-.23,2.49c0,.26.34.47.55.56a1.67,1.67,0,0,0,1,0,1.63,1.63,0,0,0,.84-.51l.15-.25a.69.69,0,0,0,0-.51c0-.19,0-.39-.06-.58l0,.26a3.29,3.29,0,0,1,.07-1l-.07.26a1.89,1.89,0,0,1,.2-.46l-.15.24a1.79,1.79,0,0,1,.31-.37l-.23.21a2.82,2.82,0,0,1,.39-.29l-.29.18a3.29,3.29,0,0,1,.42-.21l-.34.13a2.17,2.17,0,0,1,.42-.11l-.35,0a3.91,3.91,0,0,1,.49,0h-.34l.23,0-.3-.07.12,0-.25-.13a.18.18,0,0,1,.09.06l-.19-.19a.21.21,0,0,1,0,.06L93.25,72v0l0-.26a.14.14,0,0,1,0,.09l.07-.26a.36.36,0,0,1,0,.09l.15-.24A3.23,3.23,0,0,1,93,72l.23-.22a5.18,5.18,0,0,1-.88.68l.28-.17a7.16,7.16,0,0,1-.87.45,1.35,1.35,0,0,0-.66.63.77.77,0,0,0,.06.75,1.48,1.48,0,0,0,1.76.23Z"/><path class="cls-24" d="M102.47,73.64a5,5,0,0,0,3.57-2.5c.14-.31-.29-.45-.49-.5a6.56,6.56,0,0,0-4.51.64c-1,.53-2,1.63-1.67,2.86.06.2.31.29.49.32a2.13,2.13,0,0,0,1-.07,2,2,0,0,0,.86-.42c.14-.13.33-.31.27-.53a1.43,1.43,0,0,1-.07-.46v.17a1.58,1.58,0,0,1,.1-.48.5.5,0,0,1,.05-.13c0-.11,0,0,0,0a2.29,2.29,0,0,0,.16-.23l.09-.12c.07-.09-.13.13,0,0l.23-.21c.1-.08-.24.15,0,0l.11-.07s.22-.11,0,0,0,0,0,0,.37-.14.12-.06.07,0,.14,0,.27-.06,0,0,0,0,0,0l.3,0c.15,0-.31,0-.09,0h.16c.1,0,.2,0,.3,0-.09,0-.23,0,0,0l.16,0L104,72l-.49-.5c-.07.17,0,0,0,0s-.08.12-.08.13a2.56,2.56,0,0,1-.2.26l0,0c-.07.07,0,.06,0,0s-.08.07-.1.09l-.14.12s-.21.15,0,0l0,0-.16.09-.16.09c.34-.19.14-.07.06,0l-.18.08c-.22.08.33-.1.08,0l-.39.1a2.16,2.16,0,0,0-.86.42c-.12.11-.34.34-.27.53.19.51,1.08.34,1.46.26Z"/><path class="cls-24" d="M118.66,62.65a6.4,6.4,0,0,1-1-.25l-.46-.17-.09,0-.2-.11a3.89,3.89,0,0,1-1.28-1.1l.08.11a.9.9,0,0,1-.23-.55v.13s0-.11,0-.11-.1.12,0,0a1.67,1.67,0,0,1-.71.34l-.17,0c.21,0-.25,0-.11,0s-.21,0,0,0l.24,0c.13,0-.14,0,0,0l.13,0a3.41,3.41,0,0,1,.57.16l.25.09h0l.12.06c.15.08.29.17.43.26a3,3,0,0,1,.72.69l-.08-.11a2.09,2.09,0,0,1,.38.86c0,.17.35.21.47.22a2.7,2.7,0,0,0,.94-.12,2.46,2.46,0,0,0,.88-.37c.13-.1.33-.24.3-.42a2.66,2.66,0,0,0-1.08-1.58,5.09,5.09,0,0,0-2.31-.9,4.71,4.71,0,0,0-1.5,0,3.23,3.23,0,0,0-1.92.88c-.35.42-.08.81.2,1.17a3.83,3.83,0,0,0,.74.71,6.09,6.09,0,0,0,2.52,1,2.92,2.92,0,0,0,1.81-.31c.18-.09.45-.22.52-.43a.24.24,0,0,0-.22-.31Z"/><path class="cls-24" d="M126.51,67.76l2-.21a5.34,5.34,0,0,0,1.12-.18,2,2,0,0,0,1.29-1c.33-.84-.41-1.45-1.1-1.75a5.82,5.82,0,0,0-2.19-.35,9.08,9.08,0,0,0-2.38.3,1.64,1.64,0,0,0-.84.52.87.87,0,0,0-.2.77,1.23,1.23,0,0,0,1.54.59l.49-.11-.13,0,.14,0,.22,0,.52,0h.44q-.3,0-.15,0a8.27,8.27,0,0,1,1,.12l-.15,0,.11,0s.28.13.09,0,0,0,.07,0l.16.13-.19-.19a.71.71,0,0,1,.1.14l-.11-.24a.66.66,0,0,1,0,.15l0-.27a.15.15,0,0,1,0,.07l.07-.25c0,.06,0,0,.05-.06a.4.4,0,0,1,.13-.16s.4-.26.22-.17c.24-.08.31-.11.2-.08l-.09,0s.35-.05.17,0l-.81.08-1.64.17a2,2,0,0,0-1,.36,1.12,1.12,0,0,0-.44.72,1,1,0,0,0,1.21.92Z"/><path class="cls-24" d="M123.52,74.42c-.59.1-1.19.18-1.78.22-.29,0-.57,0-.86,0h-.47c-.09,0-.26,0,0,0a1.13,1.13,0,0,1-.26,0l.11,1.66a7.46,7.46,0,0,1,1-.47c.09,0,.33-.09-.06,0l.29-.1.51-.14.53-.12-.12,0,.15,0,.24,0a9.18,9.18,0,0,1,1.17-.07,1.83,1.83,0,0,0,1-.36,1,1,0,0,0,.45-.67c0-.67-.66-.82-1.18-.82a10.44,10.44,0,0,0-5.08,1.28c-.36.21-.76.5-.73,1a.84.84,0,0,0,.85.69,19.68,19.68,0,0,0,4-.25,2.14,2.14,0,0,0,1-.35,1.09,1.09,0,0,0,.45-.68c0-.6-.66-.91-1.18-.82Z"/><path class="cls-24" d="M132.11,76.67a10.51,10.51,0,0,0,3.49.26,2.1,2.1,0,0,0,1.21-.52c.2-.2.38-.53.15-.78a5.41,5.41,0,0,0-1.91-1.3,7.15,7.15,0,0,0-2.69-.59,5.21,5.21,0,0,0-1.78.34,2.43,2.43,0,0,0-1.18.86.75.75,0,0,0,.12,1,2.06,2.06,0,0,0,1.22.43c.31,0,.62,0,.93,0H132c-.06,0-.28-.08-.12,0s-.19-.12,0,0-.09-.08-.09-.08l.08.09a1.07,1.07,0,0,0,.7.27,2.38,2.38,0,0,0,1-.2c.39-.18,1-.62.67-1.11s-1.4-.53-2.06-.52h-.46c-.19,0,.3.07,0,0s.22.15,0,0c.11.1.14.12.08.06l-.06-.07c.06.11.07.13.05.06,0,.14,0,.17,0,.09a.48.48,0,0,1-.17.27q.12-.12-.12.09c.17-.12-.32.14-.07,0s-.31.08-.06,0-.26,0,0,0h.3l.17,0q-.22,0,0,0l.33.07a6.06,6.06,0,0,1,.61.16l.11,0,.3.12c.19.09.37.19.55.29l.26.17.12.08h0c.14.13.28.26.41.4l1.35-1.3a2.55,2.55,0,0,1-.39,0h-.06c-.23,0-.45,0-.68,0l-.29,0c-.13,0-.13,0,0,0l-.19,0c-.22,0-.43-.09-.65-.15a2,2,0,0,0-1.82.49.66.66,0,0,0-.25.61c.06.22.31.34.51.4Z"/><path class="cls-24" d="M121.24,77.83s-.58.08-.33.07c-.3,0-.08,0,0,0s-.12,0,0,0a1.8,1.8,0,0,1,.22.06l.09,0c-.05,0-.05,0,0,0l.15.09a1,1,0,0,1,.28.23l-.08-.09a.94.94,0,0,1,.12.22l1.19-.76-.17,0,.18,0a1,1,0,0,0-.3.06l-.52.09-.3.05c-.08,0-.35.06,0,0l-.53,0c-.35,0-.7.05-1.06.07s.16,0-.07,0h-.88a3.17,3.17,0,0,0-1.83.49c-.12.08-.35.22-.3.39s.33.19.45.19a20.17,20.17,0,0,0,5.58-.57,2.82,2.82,0,0,0,.88-.36c.1-.08.36-.24.3-.4a1.54,1.54,0,0,0-1-.8A4.37,4.37,0,0,0,121,77a3.1,3.1,0,0,0-.88.37c-.09.06-.34.23-.3.39s.34.19.46.19a3.32,3.32,0,0,0,.94-.12Z"/><path class="cls-24" d="M105.06,80.43a4.23,4.23,0,0,0,2.27.41,4.48,4.48,0,0,0,2.3-.8.93.93,0,0,0,.47-.72c0-.31-.26-.47-.52-.55a9.54,9.54,0,0,0-6.32.39c-.37.15-1.06.72-.65,1.17a1.61,1.61,0,0,0,1.73.11,2.68,2.68,0,0,0,.3-.12c-.34.17-.13.05,0,0l.56-.14.16,0-.1,0,.25,0,.64-.06c.33,0-.2,0,.06,0h.29a5.63,5.63,0,0,1,.59,0,1.54,1.54,0,0,1,.3,0c-.3-.09,0,0,.07,0l.59.16,0-1.27c-.06.05-.32.21-.12.1s0,0,0,0c-.23.1.09,0,.12,0s-.47.1-.16.05,0,0,0,0l-.18,0c-.17,0,.07,0,.11,0h-.32s-.21,0,0,0,0,0,0,0l-.13,0c-.18-.05.12.08,0,0l-.14-.07a1.85,1.85,0,0,0-1.84.2c-.37.26-.76.85-.19,1.16Z"/><path class="cls-24" d="M101.15,82.22l-3.09.86,1.12,1.56c.11-.09.22-.18.34-.26s.34-.18,0,0l.19-.11a4,4,0,0,1,.42-.2l.11,0-.17.07.2-.07a3.17,3.17,0,0,1,.44-.12l.24-.06c.33-.06-.28,0-.05,0a6.58,6.58,0,0,1,1-.06,1.77,1.77,0,0,0,1-.36,1.14,1.14,0,0,0,.45-.72.77.77,0,0,0-.33-.69,1.58,1.58,0,0,0-.88-.22,7.46,7.46,0,0,0-2.39.37,6.51,6.51,0,0,0-2.22,1.18c-.32.28-.63.8-.31,1.21a1.36,1.36,0,0,0,1.43.35l3.09-.86a1.67,1.67,0,0,0,.84-.51.93.93,0,0,0,.2-.77,1.22,1.22,0,0,0-1.54-.58Z"/><path class="cls-24" d="M86.72,85.66H87a2,2,0,0,1-.35,0l.29.05a2.32,2.32,0,0,1-.45-.13l.24.1a1.45,1.45,0,0,1-.43-.26l.17.15a1.2,1.2,0,0,1-.28-.35l.1.19a.64.64,0,0,1-.08-.3v.21a.49.49,0,0,1,0-.12l-1.1.9.09,0-.35.06a3.91,3.91,0,0,1,.68-.06h-.33a4.37,4.37,0,0,1,.72.06l-.29,0a3.8,3.8,0,0,1,.8.22l-.25-.1a2.42,2.42,0,0,1,.5.27,1.45,1.45,0,0,0,.87.14,2.09,2.09,0,0,0,1-.34c.2-.15.45-.35.47-.62a.55.55,0,0,0-.29-.55,4.37,4.37,0,0,0-1.83-.65,6.1,6.1,0,0,0-2.17.1,1.74,1.74,0,0,0-.74.38.86.86,0,0,0-.35.52,1.51,1.51,0,0,0,.74,1.4,2.59,2.59,0,0,0,.79.37,3.93,3.93,0,0,0,1.28.12,1.92,1.92,0,0,0,1-.34c.18-.13.45-.37.47-.62a.53.53,0,0,0-.29-.55,1.59,1.59,0,0,0-.86-.15Z"/><path class="cls-24" d="M91,85.15l1.57-1.75a.33.33,0,0,0,.1-.3.38.38,0,0,0-.24-.22,1.69,1.69,0,0,0-.77-.12,3.1,3.1,0,0,0-1,.14,3.15,3.15,0,0,0-1.08.51,1,1,0,0,0-.39.5.18.18,0,0,0,0,.21.26.26,0,0,0,.2.15,1,1,0,0,0,.37,0,1.85,1.85,0,0,0,.47,0,3.13,3.13,0,0,0,1-.32l.24-.15a.76.76,0,0,0,.27-.32l0-.09-.1.16.07-.08-.18.16.08,0-.24.15.07,0-.3.13.08,0-.34.11.1,0-.35.07h.09l-.32,0h-.06l-.23,0,.13,0-.14-.52-1.56,1.75a.29.29,0,0,0,0,.43.57.57,0,0,0,.28.11,1.07,1.07,0,0,0,.4,0,3.21,3.21,0,0,0,1-.22,1.81,1.81,0,0,0,.71-.44Z"/><path class="cls-24" d="M68.28,75.85l.32,1.64a5.72,5.72,0,0,0,.14.72,1.05,1.05,0,0,0,.58.64A2.33,2.33,0,0,0,70.6,79,3.41,3.41,0,0,0,72,78.48a1.66,1.66,0,0,0,.73-.88,1.25,1.25,0,0,0-.09-.85c-.24-.57-.54-1.13-.8-1.7a.65.65,0,0,0-.51-.36,2.09,2.09,0,0,0-1,.06,2.12,2.12,0,0,0-.86.43c-.13.13-.35.36-.26.56l.53,1.11a3,3,0,0,1,.4,1.07v-.18a.89.89,0,0,1-.07.28l.09-.19L70.1,78l.16-.18-.07.06.14-.1c-.16.1.18-.09.18-.09l-.05,0c-.11,0,0,0,.25-.08h.06l.11,0,.25,0c-.13,0-.07,0,.15,0l-.11,0,.24.08-.13-.06.17.12a.93.93,0,0,1-.16-.18l.1.17a1.63,1.63,0,0,1-.13-.48l-.14-.68-.25-1.34c0-.21-.33-.32-.5-.36a2.42,2.42,0,0,0-1.83.49.63.63,0,0,0-.26.56Z"/><path class="cls-24" d="M64.69,63.93a3.44,3.44,0,0,0-.89.29,3.1,3.1,0,0,0-.73.46,2.21,2.21,0,0,0-.87,1.43,1.63,1.63,0,0,0,.48,1.25,3,3,0,0,0,.37.33,3.37,3.37,0,0,0,.46.25,3.53,3.53,0,0,0,.84.25,1.25,1.25,0,0,0,.51,0,1.32,1.32,0,0,0,.51-.16A1.45,1.45,0,0,0,66,67.4a1.91,1.91,0,0,0,.23-.9,2.5,2.5,0,0,0-.05-.55,3.14,3.14,0,0,0-.23-.53,1.07,1.07,0,0,0-.74-.38,1.9,1.9,0,0,0-1,.18,1.33,1.33,0,0,0-.66.62l-.08.24a.69.69,0,0,0,.13.48l0,0-.11-.22a1.29,1.29,0,0,1,.14.51l0-.25a1.27,1.27,0,0,1-.06.48l.08-.24a1.6,1.6,0,0,1-.1.23l1.68-.79-.07,0,.3.07a1.88,1.88,0,0,1-.47-.17l.25.13a1.55,1.55,0,0,1-.39-.28l.18.18a1.52,1.52,0,0,1-.26-.35l.11.22a.9.9,0,0,1-.09-.33l0,.25a.86.86,0,0,1,0-.28l-.08.25a.84.84,0,0,1,.13-.27l-.16.23A1.57,1.57,0,0,1,65,65.7l-.22.21a1.7,1.7,0,0,1,.3-.23l-.29.17a1.76,1.76,0,0,1,.37-.17l-.33.12a2.54,2.54,0,0,1,.37-.1,1.64,1.64,0,0,0,.85-.5.86.86,0,0,0,.21-.73.83.83,0,0,0-.55-.53l-.3-.07a1.73,1.73,0,0,0-.68.06Z"/><path class="cls-24" d="M71.18,52.9l0,.07-.09-.15a1.06,1.06,0,0,1,.13.58v-.18a7.31,7.31,0,0,0,0,.81,1.24,1.24,0,0,0,.24.58,1.93,1.93,0,0,0,1.85.61,3.37,3.37,0,0,0,1.45-.48,2.13,2.13,0,0,0,.74-.69,1.92,1.92,0,0,0,.21-1.41,2.59,2.59,0,0,0-.89-1.33,1.06,1.06,0,0,0-.69-.2,2.54,2.54,0,0,0-1,.2,1.49,1.49,0,0,0-.69.49c-.09.15-.18.37,0,.5a2.53,2.53,0,0,1,.58.64l-.09-.15a1.9,1.9,0,0,1,.27,1v-.18a1.27,1.27,0,0,1-.13.58l.09-.18a.92.92,0,0,1-.19.28l.17-.18-.08.07c-.1.09.15-.1.15-.1l0,0c-.09,0,0,0,.21-.1-.16.07.36-.1.21-.07l.22,0c-.17,0,.32,0,.18,0h.15l-.11,0,.24.07a1.23,1.23,0,0,1-.26-.12l.17.11a1,1,0,0,1-.29-.31l.09.15a1,1,0,0,1-.13-.56v.17c0-.25,0-.5,0-.75a1.31,1.31,0,0,0-.27-.69c-.13-.17-.52-.2-.69-.21a2.74,2.74,0,0,0-1,.21,1.49,1.49,0,0,0-.69.49l-.09.18a.3.3,0,0,0,.08.32Z"/><path class="cls-6" d="M119,99.27a13.17,13.17,0,0,0-4.43-1.5,12.29,12.29,0,0,0-3.43-.38,3.69,3.69,0,0,0-2.84,1.28c-.27.44-.28,1-.68,1.34-.71.7-2.27.67-3.08,1.31a1.1,1.1,0,0,0-.08,1.72,3.24,3.24,0,0,0,2.32.68,17.68,17.68,0,0,1,2.87-.34,7.84,7.84,0,0,1,1.37.34,8.37,8.37,0,0,0,5.88-.63,3.85,3.85,0,0,0,2.28-3.86"/><path class="cls-7" d="M90.56,110.29a8.52,8.52,0,0,0,0-2.08v.26a3.57,3.57,0,0,1,0-.73l0-.17c0-.19,0,0,0,0l.07-.16c.06-.13.11,0,0,0a.48.48,0,0,0,.09-.11c-.15.13-.18.16-.1.1l.09-.06s-.29.18-.11.08-.27.07-.12,0a.77.77,0,0,0,.19,0c-.3.13-.28,0-.12,0l.43,0-1.31-.87a13.81,13.81,0,0,0-.55,5.46c0,.26.39.47.6.54a2.05,2.05,0,0,0,1.1,0c.62-.19,1.26-.6,1.2-1.32,0-.16,0-.32,0-.48v.26a13.48,13.48,0,0,1,.6-4.72.68.68,0,0,0-.33-.67,1.68,1.68,0,0,0-1-.19,4,4,0,0,0-3.35,1.67,4.66,4.66,0,0,0-.22,2.67l0-.26a3.59,3.59,0,0,1-.05,1,.69.69,0,0,0,.34.67,1.52,1.52,0,0,0,1,.19c.64-.07,1.46-.41,1.61-1.12Z"/><path class="cls-27" d="M93.29,112.71a10.81,10.81,0,0,1,.61-5.49.13.13,0,0,0-.06-.2,3.74,3.74,0,0,0-2.22.06,3.4,3.4,0,0,0-2.94,3.45A2.65,2.65,0,0,0,89.1,113a1.77,1.77,0,0,0,1,.52,4.79,4.79,0,0,0,2.63-.49c.19-.09,1-.56.38-.66a3.94,3.94,0,0,0-2,.39l1.13-.29c.36,0,.46,0,.31,0s-.16,0-.07,0a1.14,1.14,0,0,1-.29-.15,1.22,1.22,0,0,1-.46-.47,2.82,2.82,0,0,1-.18-1.79,7.27,7.27,0,0,1,.43-1.71,2.05,2.05,0,0,1,.4-.64l.09-.08s0,0,0,0,0,0-.1,0l-1.07.29h-.15c-.2,0,0,0,0,0l0-.2a11.13,11.13,0,0,0-.65,5.71c0,.16.43.16.49.16a4.18,4.18,0,0,0,1.06-.16,3.85,3.85,0,0,0,1-.39c.13-.08.38-.2.35-.38Z"/><path class="cls-27" d="M105,113.08a4.56,4.56,0,0,0,2.34-.25,4.36,4.36,0,0,0,1.43-.83,3.56,3.56,0,0,0,.93-1.79c0-.15.08-.3.11-.45a.89.89,0,0,0,0-.51c-.23-.5-1-.48-1.42-.44a4.62,4.62,0,0,0-3.13,1.43,5.18,5.18,0,0,0-.89,2.17c0,.2.06.28.25.34a2.24,2.24,0,0,0,.93,0,3.92,3.92,0,0,0,1.1-.35l.27-.15a1,1,0,0,0,.32-.32,4.91,4.91,0,0,1,.72-1.93l-.12.15.26-.3.06,0c-.15.12.06,0,.09-.06s-.29.16-.15.09l.08,0-.21.09-.25.08s-.44.09-.25.06l-.25,0h-.09c-.32,0,.1,0-.14,0s0,0,0,0l-.18-.08a.5.5,0,0,1,.14.1l-.09-.12a.56.56,0,0,1,.08.38v-.14a6.87,6.87,0,0,1-.24,1,3.51,3.51,0,0,1-.45.91l.12-.16a2.73,2.73,0,0,1-.23.25l-.07.06.09-.07s-.24.15,0,0,.12-.08,0,0-.06,0,.2-.08l.25-.08c-.09,0-.06,0,.11,0l.1,0c.29,0,.36,0,.22,0h.18l.11,0a2.59,2.59,0,0,0-.92,0,4.22,4.22,0,0,0-1.11.35l-.27.16a.84.84,0,0,0-.31.31.26.26,0,0,0,.24.34Z"/><path class="cls-27" d="M119.07,96.46l-1.71,0h-.82c-.1,0-.28,0,.1,0h-.17c-.17,0,.22.08,0,0s-.1,0-.14-.07l.18.1a.63.63,0,0,1-.19-.17l.09.14a.65.65,0,0,1-.1-.4v.16a1,1,0,0,1,.13-.37l-.11.18a.57.57,0,0,1,.08-.13c.1-.13-.16.13-.07.06s-.27.15-.09.06a1.51,1.51,0,0,1-.35.14c-.16,0-.18.06-.08,0,.25-.07-.41.08-.15,0s-.31,0-.14,0h.68c.25,0-.29,0,0,0l.21,0h.06c.09,0,.09,0,0,0h0l.06,0a1.33,1.33,0,0,1,.33.13l-.18-.1a1.52,1.52,0,0,1,.57.5l-.1-.14a1.24,1.24,0,0,1,.16.4c0,.2.38.27.53.29a3,3,0,0,0,1.07-.11,2.81,2.81,0,0,0,1-.44c.15-.12.37-.29.32-.52A1.84,1.84,0,0,0,118.83,95a6.57,6.57,0,0,0-3,0,4.24,4.24,0,0,0-1.81.77,1.51,1.51,0,0,0-.59,1c-.07,1,1.08,1.07,1.79,1.08.87,0,1.74,0,2.61,0a3.13,3.13,0,0,0,1.13-.24,1.85,1.85,0,0,0,.8-.49c.1-.14.21-.33,0-.48a1.25,1.25,0,0,0-.76-.16Z"/><path class="cls-27" d="M117.62,105.44a4,4,0,0,0,3.14-.61,2.8,2.8,0,0,0,1.3-1.94c.06-.67-.78-.85-1.3-.79a2.35,2.35,0,0,0-1.09.39,1.18,1.18,0,0,0-.53.69,1.86,1.86,0,0,1-.1.39l.09-.25a2,2,0,0,1-.3.56l.18-.24a2.11,2.11,0,0,1-.39.4l.26-.21a2.8,2.8,0,0,1-.4.27l.33-.18a2.43,2.43,0,0,1-.37.16l.38-.13a2.79,2.79,0,0,1-.39.1l.39-.07a1.72,1.72,0,0,1-.39,0h.37a2.19,2.19,0,0,1-.36,0l.33.06a3.31,3.31,0,0,1-.42-.12l.28.11-.08,0a1.78,1.78,0,0,0-1-.16,2.23,2.23,0,0,0-1.09.38c-.22.17-.51.4-.53.7a.61.61,0,0,0,.32.62,3.68,3.68,0,0,0,.77.26,4.61,4.61,0,0,0,1.17.08,4.56,4.56,0,0,0,1.78-.5,3.63,3.63,0,0,0,2.06-2.5l-2.92.29a1.43,1.43,0,0,1-.09.41l.09-.25a1.48,1.48,0,0,1-.25.44l.18-.24a1.7,1.7,0,0,1-.29.31l.26-.22a1.73,1.73,0,0,1-.28.19l.32-.18a2,2,0,0,1-.3.14l.37-.13-.24.06.39-.07a1.36,1.36,0,0,1-.29,0h.37l-.25,0,.33.06-.12,0a2.23,2.23,0,0,0-1.09,0,2,2,0,0,0-1,.52.76.76,0,0,0-.26.73.78.78,0,0,0,.59.49Z"/><path class="cls-27" d="M123.5,109.88l3.33-1.95c.54-.31,1.53-.81,1.25-1.6-.2-.55-.75-.74-1.07-1.18l.1.15a.57.57,0,0,1-.11-.38V105c.09-.59-.85-.56-1.22-.5a3,3,0,0,0-1.1.37c-.2.12-.51.29-.56.55a7.19,7.19,0,0,1-.76,2l.1-.19a7.38,7.38,0,0,1-.79,1.13l-.23.25a1.36,1.36,0,0,0-.12.12c.06-.08.14-.13,0,0l-.55.46c-.14.11-.36.34-.3.55s.36.31.54.33a2.89,2.89,0,0,0,2-.55A7.75,7.75,0,0,0,127,105l-2.88.42a1,1,0,0,0,.37,1,5.39,5.39,0,0,1,.7.65l-.1-.15a.63.63,0,0,1,.12.4v-.18a.58.58,0,0,1-.06.17l.11-.19c-.07.09,0,.07.07,0-.1.08-.06,0,.12-.07a1.32,1.32,0,0,0-.2.12l-.51.3-1,.57-2,1.18c-.19.11-.5.31-.56.55a.37.37,0,0,0,.27.45,2.66,2.66,0,0,0,2-.31Z"/><path class="cls-27" d="M122.25,102.07l2,.77a15.51,15.51,0,0,0,2.11.74,5.09,5.09,0,0,0,4.69-1.11.77.77,0,0,0,.28-.66.73.73,0,0,0-.57-.43,2.38,2.38,0,0,0-2.05.54l-.15.14c.13-.09.15-.11.07-.06-.33.17.21-.07-.06,0,.43-.17.06,0,0,0,.42-.2.1,0,0,0h-.13c-.26,0,.12,0-.15,0s-.51-.13-.75-.21c-.84-.28-2-.77-2.95-1.14a2.29,2.29,0,0,0-2.06.25c-.34.24-.91.94-.23,1.2Z"/><path class="cls-27" d="M113.53,119.31a9.81,9.81,0,0,0-.13-3.06.94.94,0,0,0-.61-.59,1.91,1.91,0,0,0-1.11,0c-.6.18-1.32.66-1.18,1.39a8.45,8.45,0,0,1,.15,1.11l0-.28a8.48,8.48,0,0,1,0,1.67.79.79,0,0,0,.35.72,1.57,1.57,0,0,0,1,.23,2,2,0,0,0,1.09-.4,1.26,1.26,0,0,0,.51-.77Z"/><path class="cls-27" d="M95.63,120a6.68,6.68,0,0,0,6.4,2.54,2.89,2.89,0,0,0,1.1-.38c.19-.13.51-.4.53-.66.07-.66-.79-.8-1.27-.72l-.35,0a.61.61,0,0,1-.19,0h-.25l-.15,0s-.28,0-.06,0h-.07l-.15,0-.34-.09-.33-.1c-.24-.08.16.07,0,0l-.18-.08a5.07,5.07,0,0,1-.61-.32l-.29-.19-.16-.11c.07,0,.1.08,0,0a5.57,5.57,0,0,1-1-1.07,1.1,1.1,0,0,0-.79-.3,2.47,2.47,0,0,0-1.14.21c-.45.22-1.14.7-.75,1.27Z"/><path class="cls-27" d="M106,93.27a7.61,7.61,0,0,0-4.86,1.87c-.15.14-.35.38-.29.61s.35.35.56.39a2.48,2.48,0,0,0,1.08-.07,2.52,2.52,0,0,0,1-.48l.31-.27c.24-.18-.22.15,0,0l.17-.12.31-.18-.19.1.09,0,.19-.08.19-.08.1,0-.23.08.35-.1.1,0-.24.05.2,0,.21,0h.1c-.28,0-.35,0-.21,0a3.46,3.46,0,0,0,1.14-.23,1.79,1.79,0,0,0,.77-.56c.11-.18.19-.41,0-.58a1,1,0,0,0-.77-.24Z"/><path d="M119.67,80.25c-.49.07-.71-.36-1.1-.55.12.37.21.7.33,1a2.12,2.12,0,0,1,0,1.27c-.1.37-.35.48-.62.21a11.08,11.08,0,0,1-1-1.06,2.08,2.08,0,0,1-.27-.41.94.94,0,0,1-1.31,0c-.32.41-.64.8-1,1.19a2,2,0,0,1-.3.28c-.27.21-.47.16-.62-.16a2,2,0,0,1,0-1.48c.15-.5.36-1,.54-1.48,0-.09.08-.19.11-.28l-.08,0a1.52,1.52,0,0,0-.16.4,1.54,1.54,0,0,1-.92,1c-.08,0-.2,0-.3,0,.06-.09.1-.22.17-.25a1.43,1.43,0,0,0,1-1c.07-.24.33-.44.51-.64a1.69,1.69,0,0,1,.23-.2c-.13-.15-.26-.26-.35-.39a1.64,1.64,0,0,0-1.08-.86,3,3,0,0,1-.42-.16v-.09a1.09,1.09,0,0,1,.31,0,2,2,0,0,1,1.28.86.35.35,0,0,0,.47.2.68.68,0,0,0,.28-.36.65.65,0,0,0-.1-.68.23.23,0,0,1,0-.21,2,2,0,0,0-.24-1.28c0-.07,0-.15-.07-.31.6.53.41,1.28.67,1.85l.13,0a.71.71,0,0,0-.07-.22c-.17-.3-.13-.45.17-.62l.23-.16a.35.35,0,0,1,.13-.08c.37-.09.57.22.81.39.07,0,0,.32,0,.48a1.48,1.48,0,0,0,0,.21c.06,0,.16-.07.18-.12a1.2,1.2,0,0,0,0-.38,1.9,1.9,0,0,1,.51-1.24,1.73,1.73,0,0,1-.07.31,1.75,1.75,0,0,0-.21,1.19c0,.07,0,.17-.06.26a2.56,2.56,0,0,0-.09.66.53.53,0,0,0,.28.36.39.39,0,0,0,.48-.18,1.72,1.72,0,0,1,1.68-.86,2.17,2.17,0,0,1-.38.19,1.68,1.68,0,0,0-1.24,1c-.05.12-.21.18-.36.29a1.49,1.49,0,0,0,.2.15,1.31,1.31,0,0,1,.69.9,1,1,0,0,0,.73.79C119.63,80,119.63,80,119.67,80.25Z"/><path d="M89.32,103.72c.07.5-.36.7-.56,1.09.37-.11.7-.2,1-.31a2.15,2.15,0,0,1,1.28,0c.37.11.47.35.2.63a14.29,14.29,0,0,1-1.07,1c-.12.1-.27.16-.42.26a.94.94,0,0,1,0,1.3c.4.33.79.65,1.17,1a1.58,1.58,0,0,1,.28.3c.21.28.15.47-.16.62a1.94,1.94,0,0,1-1.48,0c-.51-.16-1-.38-1.48-.57l-.28-.11,0,.08a2,2,0,0,0,.4.17,1.54,1.54,0,0,1,1,.93c0,.08,0,.2,0,.3-.08-.06-.22-.1-.24-.18a1.39,1.39,0,0,0-1-1c-.25-.08-.43-.34-.64-.52a1.67,1.67,0,0,1-.2-.24c-.15.13-.26.26-.39.35a1.69,1.69,0,0,0-.88,1.07,2.41,2.41,0,0,1-.16.42h-.08a.87.87,0,0,1,0-.32,2,2,0,0,1,.87-1.27.32.32,0,0,0,.2-.46.64.64,0,0,0-.35-.29.65.65,0,0,0-.68.1.25.25,0,0,1-.21,0,2,2,0,0,0-1.28.22,1.1,1.1,0,0,1-.31.07c.54-.59,1.28-.39,1.86-.64l0-.13a.86.86,0,0,0-.23.06c-.3.17-.45.12-.61-.17,0-.09-.11-.16-.16-.24a.35.35,0,0,1-.08-.13c-.08-.37.23-.57.41-.81,0-.06.31,0,.47,0h.22c0-.06-.07-.16-.13-.18a1.17,1.17,0,0,0-.37,0,1.9,1.9,0,0,1-1.24-.53c.1,0,.21,0,.31.08a1.74,1.74,0,0,0,1.18.22c.08,0,.18,0,.27.07a2.5,2.5,0,0,0,.66.09.51.51,0,0,0,.36-.27.38.38,0,0,0-.18-.48,1.76,1.76,0,0,1-.84-1.69,2,2,0,0,1,.2.38,1.65,1.65,0,0,0,1,1.25c.11.05.17.22.28.36a1,1,0,0,0,.15-.2,1.32,1.32,0,0,1,.91-.67A1,1,0,0,0,89,104C89.06,103.75,89.06,103.75,89.32,103.72Z"/><path d="M84.39,68.4c-.28.4-.74.26-1.15.4.34.18.65.34,1,.48a2.14,2.14,0,0,1,.94.87c.19.34.1.58-.28.6a14.22,14.22,0,0,1-1.46,0,3.44,3.44,0,0,1-.48-.1.94.94,0,0,1-.89,1l.18,1.51a2,2,0,0,1,0,.42c0,.34-.21.44-.54.33a2,2,0,0,1-1-1c-.25-.46-.46-1-.69-1.42l-.12-.28-.09,0a2.76,2.76,0,0,0,.18.39A1.49,1.49,0,0,1,80,72.92c0,.08-.14.13-.22.2,0-.1-.09-.23-.06-.3a1.4,1.4,0,0,0-.1-1.41,2.12,2.12,0,0,1-.1-.81,2.73,2.73,0,0,1,0-.31,4.18,4.18,0,0,1-.52,0,1.69,1.69,0,0,0-1.37.18,2.6,2.6,0,0,1-.41.2l0-.07c.07-.08.12-.19.21-.24A2,2,0,0,1,78.9,70a.33.33,0,0,0,.46-.2.72.72,0,0,0-.06-.45.65.65,0,0,0-.56-.4.25.25,0,0,1-.19-.11,2,2,0,0,0-1.08-.72A2,2,0,0,1,77.2,68c.8-.06,1.2.59,1.79.81l.06-.13a2,2,0,0,0-.2-.11c-.34-.08-.42-.21-.33-.54a2.7,2.7,0,0,0,0-.28.66.66,0,0,1,0-.15c.2-.33.56-.26.85-.31.09,0,.21.23.32.36l.15.15c0-.07.06-.17,0-.22a1.37,1.37,0,0,0-.25-.29A2,2,0,0,1,79.16,66a2.53,2.53,0,0,1,.18.27,1.73,1.73,0,0,0,.71,1c.07,0,.09.16.15.23a2.35,2.35,0,0,0,.41.52.49.49,0,0,0,.44,0,.37.37,0,0,0,.21-.47,1.71,1.71,0,0,1,.55-1.8,2.94,2.94,0,0,1-.12.4,1.68,1.68,0,0,0-.16,1.58c0,.11,0,.27,0,.45l.24,0a1.28,1.28,0,0,1,1.13.14,1,1,0,0,0,1.07,0C84.18,68.24,84.18,68.24,84.39,68.4Z"/><path d="M106.84,55.72a.75.75,0,0,0,.26,0l.22-.1.28-.19a.11.11,0,0,0,.07-.08.07.07,0,0,0,0-.08.29.29,0,0,0-.27,0l-.24.16-.06,0s0,0,0,0h0s0,0,0,0,0,0,0,0,0,0,0,0h0s-.06,0,0,0h-.15a.33.33,0,0,0-.13.07s0,.06,0,.09,0,.05.08.06Z"/><path d="M105.94,57.07a1.51,1.51,0,0,1-.23-.21c-.14-.18-.09-.3.13-.38s.26.05.32.19a.39.39,0,0,0,.51.22.6.6,0,0,0,.49-.34s.09-.08.15-.12a1.89,1.89,0,0,0,0-.41l0-.07a1.6,1.6,0,0,0-.22-.52,1.86,1.86,0,0,0-.52-.36l0,0,0,0v0l0,0c-.28-.28-.64-.47-.91-.79a10.09,10.09,0,0,0-2.4-2.11,2,2,0,0,0-1.35-.3c-.26,0-.39.22-.28.44a6.11,6.11,0,0,0,.54,1c.39.57.41.56-.22.84-.45.2-.49.35-.26.77,0,.08.08.24,0,.28a2.82,2.82,0,0,1-.51.38c-.33.2-.7.35-1,.57a.49.49,0,0,0-.08.74,2.28,2.28,0,0,0,1.78.3c.54-.11,1.08-.25,1.62-.37a1.43,1.43,0,0,1,.4,0l-.5.54-.92.18.09.08.89-.19.3-.18c.19-.14.37-.3.56-.43a.83.83,0,0,1,.91,0,5.36,5.36,0,0,1,.82.69l.63,1,.19,0-.53-.78C106.26,57.3,106.25,57.3,105.94,57.07Z"/><path d="M107,55.87a2.9,2.9,0,0,0,.72,0l.14,0a.18.18,0,0,0,.09-.06c0-.06-.14,0-.16,0l-.08,0h0l-.15,0h-.27a.32.32,0,0,0-.14,0,.34.34,0,0,0-.14,0s0,0,0,.05,0,0,.06,0Z"/><path d="M55.94,128.63a.93.93,0,0,1-.23-.21c-.14-.18-.1-.3.12-.37s.27,0,.33.18a.4.4,0,0,0,.51.23.65.65,0,0,0,.49-.34c0-.06.09-.09.15-.12a3.07,3.07,0,0,0,0-.42l0-.07a1.43,1.43,0,0,0-.23-.52,1.68,1.68,0,0,0-.51-.36l0,0,0,0h0l0,0a11.18,11.18,0,0,1-.91-.79,9.94,9.94,0,0,0-2.41-2.11,2.05,2.05,0,0,0-1.35-.3c-.25,0-.38.22-.28.44a9,9,0,0,0,.54,1c.4.56.42.55-.21.83-.45.2-.5.35-.26.77,0,.08.08.24,0,.28a2.71,2.71,0,0,1-.51.38c-.33.2-.7.35-1,.57a.5.5,0,0,0-.07.74,2.23,2.23,0,0,0,1.78.3c.54-.11,1.08-.25,1.62-.37a2,2,0,0,1,.4,0l-.51.55-.91.17.09.08.89-.18.3-.19c.19-.14.36-.3.56-.43a.83.83,0,0,1,.91,0A7.5,7.5,0,0,1,56,129l.63,1,.19,0-.53-.78C56.25,128.86,56.25,128.86,55.94,128.63Z"/><path d="M57,127.44a3.35,3.35,0,0,0,.71,0l.15,0s.07,0,.08-.06-.14,0-.15,0l-.08,0h0s0,0,0,0h0l-.15,0H57.3a.26.26,0,0,0-.15,0,.35.35,0,0,0-.13,0s-.05,0-.05,0,.06,0,.07,0Z"/><path d="M121.48,96.47v-.59a2.06,2.06,0,0,0-.34.19.32.32,0,0,1-.37,0c-.17-.09-.36-.15-.54-.24s-.07-.11-.11-.16a.6.6,0,0,1,.19,0,1.55,1.55,0,0,1,.29.14.32.32,0,0,0,.44,0,.66.66,0,0,0,.32-.64,4.55,4.55,0,0,1,.14-1.72,1,1,0,0,1,.45-.67.34.34,0,0,1,.43,0,2.22,2.22,0,0,1,.37.44,6.59,6.59,0,0,1,.33.65c.07.15.18.09.26,0s.42-.29.63-.43a2.2,2.2,0,0,1,.49-.28c.22-.08.35,0,.36.22a3.39,3.39,0,0,1,0,.78,10.84,10.84,0,0,1-.25,1.13,1.61,1.61,0,0,1-.24.47.44.44,0,0,0-.1.39c0,.14.08.27.13.4a.39.39,0,0,0,.32.27c.19,0,.25.14.2.31s-.07.19-.11.29-.17.41-.22.62.14.49.32.68.21.11.28.19a1.67,1.67,0,0,1,.24.35.14.14,0,0,1,0,.15s-.12,0-.15,0a3.46,3.46,0,0,1-.9-.93.48.48,0,0,1,0-.29c.06-.2.15-.4.22-.59a.82.82,0,0,0,.06-.26s-.09-.11-.14-.11c-.22,0-.43,0-.65,0s-.2.06-.18.19a.77.77,0,0,1-.09.49.27.27,0,0,0,0,.26,1.23,1.23,0,0,1,.19.81,4.52,4.52,0,0,0,.06.74s0,.07,0,.1c-.18.47.11.84.24,1.25a3.49,3.49,0,0,0,.25.45.67.67,0,0,1-.19.09.16.16,0,0,1-.13-.09,2.44,2.44,0,0,0-.34-1,1.53,1.53,0,0,1-.15-.94,1.64,1.64,0,0,0-.28-1.23c-.09-.15-.16-.13-.27,0a3.85,3.85,0,0,1-.3.27s-.11.09-.15.14a.41.41,0,0,1-.62,0,.15.15,0,0,1,0-.11c.07-.29-.15-.47-.28-.68,0,0-.2-.06-.26,0a2.18,2.18,0,0,0-1,1.23c0,.07-.1.13-.16.19s-.3.29-.46.42-.5.33-.64.61c0,0-.14,0-.21.06s0-.16,0-.2c.3-.31.61-.6.93-.9,0,0,.09,0,.09-.09.07-.41.46-.59.64-.93s.45-.47.62-.74a2.7,2.7,0,0,0,.28-.75s0-.09-.08-.11l-.67-.32c-.12-.06-.21,0-.23.12s-.05.41-.05.61a.31.31,0,0,1-.24.35l-1.35.47c-.05,0-.13,0-.2,0s.08-.11.13-.13l1.12-.43a.36.36,0,0,0,.25-.34,5.85,5.85,0,0,1,.12-.73.2.2,0,0,1,.27-.17c.27.09.53.17.8.24Zm2.53-.2a.94.94,0,0,0-.18.09,1.73,1.73,0,0,0-.19.28,1,1,0,0,0,0,.25h.41Z"/><path d="M77.55,44.74v-.59a3.2,3.2,0,0,0-.34.19.32.32,0,0,1-.37,0c-.17-.09-.36-.15-.54-.24s-.07-.1-.11-.16a.61.61,0,0,1,.19,0,1.14,1.14,0,0,1,.29.15.32.32,0,0,0,.43,0,.63.63,0,0,0,.32-.63,4.75,4.75,0,0,1,.15-1.72,1,1,0,0,1,.45-.68.33.33,0,0,1,.42,0,2,2,0,0,1,.38.44c.12.21.22.43.32.65s.18.09.27,0,.41-.29.63-.43a3.43,3.43,0,0,1,.49-.28c.21-.08.34,0,.36.22a3.38,3.38,0,0,1,0,.78,9.36,9.36,0,0,1-.26,1.14,1.61,1.61,0,0,1-.24.47.45.45,0,0,0-.09.39c0,.13.08.27.13.4a.38.38,0,0,0,.32.26c.19,0,.25.14.19.31s-.07.19-.1.29a3.62,3.62,0,0,0-.22.63c-.06.28.14.48.32.67s.2.11.28.19a1.67,1.67,0,0,1,.24.35.16.16,0,0,1,0,.15.16.16,0,0,1-.16,0,3.42,3.42,0,0,1-.89-.93.36.36,0,0,1,0-.29,4.71,4.71,0,0,1,.22-.59.76.76,0,0,0,.06-.26.2.2,0,0,0-.14-.11c-.22,0-.44,0-.65,0s-.2.06-.19.19a.71.71,0,0,1-.09.49.3.3,0,0,0,0,.26,1.25,1.25,0,0,1,.2.82,3,3,0,0,0,.06.73.33.33,0,0,1,0,.1c-.17.47.12.84.25,1.25a2.6,2.6,0,0,0,.25.45.84.84,0,0,1-.19.09s-.14-.06-.14-.09a2.3,2.3,0,0,0-.34-1,1.6,1.6,0,0,1-.14-.94,1.69,1.69,0,0,0-.28-1.23c-.09-.14-.16-.13-.27,0a2.73,2.73,0,0,1-.31.27c-.05,0-.11.09-.15.14a.4.4,0,0,1-.61,0,.23.23,0,0,1,0-.11c.07-.29-.15-.47-.27-.68,0,0-.2-.06-.26,0a2.16,2.16,0,0,0-1,1.22c0,.07-.1.13-.16.19a6,6,0,0,1-.46.42,2.07,2.07,0,0,0-.64.61c0,.05-.14,0-.21.06s0-.16,0-.2l.93-.9s.09,0,.1-.08c.07-.41.46-.6.64-.93s.45-.47.62-.74a3.29,3.29,0,0,0,.28-.76s0-.09-.08-.11l-.67-.32c-.13-.06-.22,0-.23.12s0,.41,0,.61a.32.32,0,0,1-.24.35l-1.35.47c-.06,0-.14,0-.2,0s.07-.11.12-.13l1.13-.43a.34.34,0,0,0,.24-.34,5.86,5.86,0,0,1,.13-.73c0-.14.11-.21.26-.16l.81.24Zm2.52-.2c-.1.05-.15.06-.17.09a1.12,1.12,0,0,0-.19.29.68.68,0,0,0,0,.25h.42Z"/><path d="M44.66,62.18v-.6a3.08,3.08,0,0,0-.34.2.32.32,0,0,1-.37,0c-.17-.09-.36-.15-.54-.24s-.07-.11-.11-.16a.61.61,0,0,1,.19,0,1.55,1.55,0,0,1,.29.14.31.31,0,0,0,.43,0,.65.65,0,0,0,.33-.64,4.55,4.55,0,0,1,.14-1.72,1,1,0,0,1,.45-.67.34.34,0,0,1,.43,0,2.22,2.22,0,0,1,.37.44c.12.2.22.43.32.64s.18.1.27,0,.42-.29.63-.43a2.2,2.2,0,0,1,.49-.28c.21-.09.35,0,.36.22a3.39,3.39,0,0,1,0,.78,10.84,10.84,0,0,1-.25,1.13,1.63,1.63,0,0,1-.25.47.47.47,0,0,0-.09.39c0,.14.08.27.13.4a.39.39,0,0,0,.32.27c.19,0,.25.14.2.31s-.08.19-.11.28a3.94,3.94,0,0,0-.22.63c-.06.29.14.49.32.67s.21.12.28.2a1.45,1.45,0,0,1,.24.35.16.16,0,0,1,0,.15.22.22,0,0,1-.16,0,3.58,3.58,0,0,1-.89-.93.42.42,0,0,1,0-.29c.06-.21.15-.4.22-.59a.88.88,0,0,0,.06-.26.24.24,0,0,0-.14-.12c-.22,0-.43,0-.65,0s-.2.05-.18.18a.8.8,0,0,1-.1.5.3.3,0,0,0,0,.26,1.22,1.22,0,0,1,.2.81,3.7,3.7,0,0,0,.06.74.34.34,0,0,1,0,.1c-.17.46.12.84.25,1.25a2.22,2.22,0,0,0,.25.44.85.85,0,0,1-.19.1s-.13-.06-.13-.09a2.54,2.54,0,0,0-.34-1,1.53,1.53,0,0,1-.15-.94,1.68,1.68,0,0,0-.28-1.23c-.09-.15-.16-.14-.27,0a3.85,3.85,0,0,1-.3.27.69.69,0,0,0-.15.14.41.41,0,0,1-.62,0,.17.17,0,0,1,0-.1c.07-.29-.15-.47-.27-.68,0-.05-.2-.06-.26,0a2.2,2.2,0,0,0-1,1.22c0,.08-.1.14-.16.2s-.3.29-.46.42-.5.32-.64.61c0,0-.14,0-.21,0s0-.15,0-.19c.31-.31.62-.6.93-.9,0,0,.1,0,.1-.09.07-.41.46-.59.64-.93s.45-.47.62-.74a3.22,3.22,0,0,0,.28-.75s0-.09-.08-.11c-.22-.12-.44-.22-.67-.32s-.22,0-.23.12a6,6,0,0,0,0,.61.32.32,0,0,1-.24.35l-1.35.47c-.06,0-.14,0-.2-.06s.07-.1.13-.12L43,63.13a.35.35,0,0,0,.24-.34,5.86,5.86,0,0,1,.13-.73.19.19,0,0,1,.27-.17l.8.24Zm2.52-.2c-.09.05-.15.06-.17.09a1.26,1.26,0,0,0-.19.28.7.7,0,0,0,0,.25h.42Z"/><path class="cls-28" d="M61.41,37.57a1.22,1.22,0,0,1-.71-.2.79.79,0,0,0,.1-.77.91.91,0,0,0-.62-.41l-1-.88-.12,0h0s-1.37-1.51-2-1.6-.73-.07-.61.36a3,3,0,0,0,.63.92,6.09,6.09,0,0,0-2.82-.31c-.75.36.45.66.45.66a6.27,6.27,0,0,0,1.12.41c-.31,0-.28.38-.08.6a.86.86,0,0,0,.32.22,2.75,2.75,0,0,0,0,1s-.53.59-.91.64-.05.13.11.07,1-.43,1-.64-.16-.34,0-1a6.36,6.36,0,0,0,.7.33c-.15.08-.33.19-.33.29a4.69,4.69,0,0,0,.58,1,1.63,1.63,0,0,1-.27,1.25c-.35.34,0,.27.22-.15a2.59,2.59,0,0,0,.24-1.24,3.17,3.17,0,0,0-.38-.67s.78.15,1-.09a1.61,1.61,0,0,0,.33.06c.07.13.21.37.33.39l.16,0a5.15,5.15,0,0,0-.23,1.35,1.51,1.51,0,0,0,.3.7s.1.1.1,0-.32-.58-.28-.86.28-1.16.27-1.33a.78.78,0,0,0-.13-.3l.23,0a1.76,1.76,0,0,0,.26.26.51.51,0,0,0,0,.37c.08.17.21.57.21.57l-.2.22a.1.1,0,0,0,.17,0c.1-.1.2-.18.18-.22a5.4,5.4,0,0,1-.24-.8.31.31,0,0,1,0-.08.71.71,0,0,0,.64.1,1,1,0,0,0,.42-.3A1.41,1.41,0,0,0,61.41,37.57Z"/><path class="cls-28" d="M112.74,20.4a1.22,1.22,0,0,0,.71-.2.81.81,0,0,1-.09-.77A.85.85,0,0,1,114,19l1-.89.12,0h0s1.37-1.51,2-1.6.72-.07.6.36a3,3,0,0,1-.63.92,6.23,6.23,0,0,1,2.82-.31c.75.36-.45.66-.45.66a6.27,6.27,0,0,1-1.12.41c.32.05.29.38.08.6a.91.91,0,0,1-.31.22,3.06,3.06,0,0,1,0,1s.53.58.91.63,0,.13-.11.07-1-.43-1-.64.16-.34,0-1a6.36,6.36,0,0,1-.7.33c.15.08.33.19.33.29a4.69,4.69,0,0,1-.58,1,1.68,1.68,0,0,0,.27,1.25c.35.34,0,.28-.22-.14a2.6,2.6,0,0,1-.24-1.25,3.69,3.69,0,0,1,.38-.67s-.78.15-1-.09a1.61,1.61,0,0,1-.33.06c-.07.13-.21.37-.32.39l-.16,0a5.26,5.26,0,0,1,.22,1.35,1.44,1.44,0,0,1-.29.7s-.11.1-.11,0,.32-.58.28-.86-.28-1.16-.27-1.33a.78.78,0,0,1,.13-.3l-.23-.05a1.76,1.76,0,0,1-.26.26.51.51,0,0,1,0,.37c-.07.17-.21.57-.21.57l.2.22a.1.1,0,0,1-.17,0c-.1-.1-.2-.18-.18-.22a6.88,6.88,0,0,0,.25-.8l0-.08a.71.71,0,0,1-.64.1,1,1,0,0,1-.42-.3A1.41,1.41,0,0,1,112.74,20.4Z"/><path class="cls-28" d="M25.55,62.23a1.28,1.28,0,0,0,.6-.43.82.82,0,0,1-.35-.7.9.9,0,0,1,.44-.59l.59-1.16.1-.07h0s.77-1.9,1.32-2.18.66-.32.69.12a3,3,0,0,1-.28,1.09,6,6,0,0,1,2.55-1.25c.82.08-.2.76-.2.76a5.85,5.85,0,0,1-.91.77c.31-.06.39.26.28.54a.93.93,0,0,1-.22.31,3,3,0,0,1,.33,1,2.27,2.27,0,0,0,1.07.29c.37-.08.1.1-.07.1s-1.06-.07-1.2-.24,0-.38-.32-.94a4.76,4.76,0,0,1-.54.56c.17,0,.38.06.41.15a4.21,4.21,0,0,1-.21,1.13,1.7,1.7,0,0,0,.68,1.09c.44.19.07.27-.25-.06a2.64,2.64,0,0,1-.66-1.09,3.84,3.84,0,0,1,.14-.76s-.69.41-1,.25a2.48,2.48,0,0,1-.29.17c0,.15-.07.42-.17.47l-.14.08a5.28,5.28,0,0,1,.67,1.19,1.53,1.53,0,0,1,0,.76s-.07.13-.1,0,.11-.66,0-.91-.66-1-.71-1.16a.63.63,0,0,1,0-.33l-.24,0a1.77,1.77,0,0,1-.15.33.55.55,0,0,1,.16.34c0,.18,0,.6,0,.6l.26.14a.1.1,0,0,1-.15.08c-.13-.06-.25-.1-.25-.14a4.91,4.91,0,0,0,0-.84l-.05-.07a.71.71,0,0,1-.56.32,1,1,0,0,1-.5-.14A1.56,1.56,0,0,1,25.55,62.23Z"/><path class="cls-28" d="M116.26,118.39a1.22,1.22,0,0,1-.71-.2.81.81,0,0,0,.09-.77A.89.89,0,0,0,115,117l-1-.89-.13,0h0s-1.36-1.52-2-1.6-.72-.07-.6.35a3.19,3.19,0,0,0,.63.93,6.09,6.09,0,0,0-2.82-.31c-.75.36.45.65.45.65a6.71,6.71,0,0,0,1.11.42c-.31,0-.28.37-.07.6a.91.91,0,0,0,.31.22,3,3,0,0,0,0,1s-.53.59-.91.64,0,.12.11.07,1-.43,1-.64-.16-.35,0-1a5.52,5.52,0,0,0,.69.34c-.14.08-.32.19-.32.28a4.45,4.45,0,0,0,.58,1,1.74,1.74,0,0,1-.27,1.26c-.35.33,0,.27.22-.15a2.6,2.6,0,0,0,.24-1.25,3.89,3.89,0,0,0-.38-.66s.78.15,1-.09l.33,0c.07.14.21.38.32.39l.16,0a5.26,5.26,0,0,0-.22,1.35,1.43,1.43,0,0,0,.29.69s.11.11.11,0-.32-.58-.28-.86.28-1.17.27-1.34a.94.94,0,0,0-.13-.3,1.06,1.06,0,0,0,.23,0,1.56,1.56,0,0,0,.26.27.51.51,0,0,0,0,.37c.08.17.22.56.22.56l-.2.22a.1.1,0,0,0,.17,0c.1-.1.2-.18.18-.22a6.88,6.88,0,0,1-.25-.8l0-.08a.71.71,0,0,0,.64.1,1.08,1.08,0,0,0,.42-.3A1.41,1.41,0,0,0,116.26,118.39Z"/><path class="cls-28" d="M137.84,64.68a1.29,1.29,0,0,0,.74,0,.81.81,0,0,1,.08-.77.88.88,0,0,1,.69-.26l1.12-.66h.13s1.68-1.17,2.29-1.12.73.09.51.48a3.2,3.2,0,0,1-.82.77,6,6,0,0,1,2.82.32c.65.52-.58.54-.58.54a6.65,6.65,0,0,1-1.18.15c.29.12.19.43-.06.61a.9.9,0,0,1-.36.14,2.76,2.76,0,0,1-.25,1s.39.69.75.82,0,.14-.12,0-.85-.63-.87-.86.23-.3.23-.95a4.79,4.79,0,0,1-.75.17c.13.11.28.25.26.35a4.94,4.94,0,0,1-.79.84,1.68,1.68,0,0,0,0,1.28c.27.4-.09.26-.18-.19a2.69,2.69,0,0,1,0-1.27,4,4,0,0,1,.53-.57s-.8,0-.94-.31a1.82,1.82,0,0,1-.33,0c-.11.11-.29.31-.41.3h-.16a5.59,5.59,0,0,1-.08,1.37,1.49,1.49,0,0,1-.44.61s-.13.08-.11,0,.44-.49.47-.78,0-1.19,0-1.36a.72.72,0,0,1,.19-.26l-.21-.1a1.73,1.73,0,0,1-.31.2.54.54,0,0,1-.05.37c-.12.15-.34.5-.34.5l.14.26s-.08.1-.16,0-.16-.21-.13-.25a6.84,6.84,0,0,0,.42-.72.34.34,0,0,0,0-.09.69.69,0,0,1-.64,0,1,1,0,0,1-.35-.39A1.49,1.49,0,0,1,137.84,64.68Z"/><path class="cls-28" d="M34,82.42a1.16,1.16,0,0,1-.52.51.82.82,0,0,0-.63-.45.89.89,0,0,0-.66.33L31,83.2l-.09.1h0s-2,.45-2.36.94-.42.6,0,.7a3.13,3.13,0,0,0,1.12-.09c-.56.55-1.61,1.69-1.66,2.3-.05.83.79-.07.79-.07a6.46,6.46,0,0,0,.91-.77c-.11.29.19.43.49.36a.91.91,0,0,0,.34-.17,2.62,2.62,0,0,0,.91.49,2.3,2.3,0,0,1,.11,1.11c-.14.35.08.11.11-.06s.11-1.05,0-1.22-.38,0-.87-.47a4.46,4.46,0,0,0,.63-.44c0,.17,0,.38.09.43a4.84,4.84,0,0,0,1.15,0c.08,0,.84.38,1,.85s.25.1,0-.27a2.6,2.6,0,0,0-1-.82,3.6,3.6,0,0,0-.77,0s.52-.61.4-.9a1.88,1.88,0,0,0,.22-.26c.15,0,.42,0,.49-.09l.1-.13a5.62,5.62,0,0,0,1.07.86,1.5,1.5,0,0,0,.75.08s.14,0,.07-.09-.67,0-.89-.17-.88-.81-1-.89a.86.86,0,0,0-.33,0,1.42,1.42,0,0,0,.07-.22,1.48,1.48,0,0,0,.36-.1.48.48,0,0,0,.31.21l.59.09.1.28s.13,0,.1-.13-.05-.26-.1-.27a5.45,5.45,0,0,1-.82-.17.22.22,0,0,1-.06-.07.69.69,0,0,0,.4-.5,1,1,0,0,0,0-.52A1.43,1.43,0,0,0,34,82.42Z"/></svg>