<svg xmlns="http://www.w3.org/2000/svg" xmlns:xlink="http://www.w3.org/1999/xlink" viewBox="0 0 165.86 165.86"><defs><style>.cls-1,.cls-10,.cls-25,.cls-27,.cls-28,.cls-29,.cls-56,.cls-58{fill:none;}.cls-2{clip-path:url(#clip-path);}.cls-3{fill:#baaf93;}.cls-4{fill:#9e9d9e;}.cls-5{fill:#6a645d;}.cls-6{fill:#e2dcc7;}.cls-7{fill:#6a4b21;}.cls-8{fill:#110f0e;}.cls-9{clip-path:url(#clip-path-2);}.cls-10,.cls-56{stroke:#7f7f7f;}.cls-10,.cls-19,.cls-25,.cls-27,.cls-28,.cls-29,.cls-30,.cls-56,.cls-58{stroke-miterlimit:10;}.cls-10{stroke-width:1.11px;}.cls-11{fill:#9db064;}.cls-12{fill:#e0e0e0;}.cls-13{fill:#eee0ce;}.cls-14{fill:#e1d2c2;}.cls-15{fill:#b5b5b6;}.cls-16{fill:#8b8c8b;}.cls-17{fill:#9ca09c;}.cls-18{fill:#cccccb;}.cls-19,.cls-52{fill:#fff;}.cls-19{stroke:#4c4c4d;}.cls-19,.cls-27{stroke-width:0.27px;}.cls-20{fill:#7e7f7f;}.cls-21{fill:#bca573;}.cls-22{fill:#dbc694;}.cls-23,.cls-30{fill:#765522;}.cls-24{fill:#533b18;}.cls-25,.cls-27{stroke:#6b6b6b;}.cls-25{stroke-width:0.26px;}.cls-26{fill:#848484;}.cls-28{stroke:#9ca09c;stroke-width:0.31px;}.cls-29,.cls-30{stroke:#533b18;stroke-width:0.61px;}.cls-31{fill:#a5704b;}.cls-32{fill:#070808;}.cls-33{fill:#e98427;}.cls-34{fill:#273339;}.cls-35{fill:#b76328;}.cls-36{fill:#c12026;}.cls-37{fill:#7c1317;}.cls-38{fill:#bfbfc1;}.cls-39{fill:#192023;}.cls-40{fill:#9ed0e3;}.cls-41{fill:#553326;}.cls-42{fill:#825639;}.cls-43{fill:#151210;}.cls-44{fill:#231f20;}.cls-45{fill:#010101;}.cls-46{fill:#161312;}.cls-47{fill:#171514;}.cls-48{fill:#181615;}.cls-49{fill:#191716;}.cls-50{fill:#040404;}.cls-51{fill:#31160e;}.cls-53{fill:#653c29;}.cls-54{clip-path:url(#clip-path-3);}.cls-55{clip-path:url(#clip-path-4);}.cls-56{stroke-width:0.88px;}.cls-57{fill:#ceb066;}.cls-58{stroke:#80693c;stroke-width:0.48px;}</style><clipPath id="clip-path"><rect class="cls-1" x="-207.87" y="8.22" width="166.13" height="165.79"/></clipPath><clipPath id="clip-path-2"><polygon class="cls-1" points="-286.81 -110.41 -411.26 -24.83 173.86 -24.83 39.6 -110.41 -286.81 -110.41"/></clipPath><clipPath id="clip-path-3"><rect class="cls-1" x="-207.31" y="224.6" width="165" height="166.57"/></clipPath><clipPath id="clip-path-4"><polygon class="cls-1" points="-253.87 139.47 -353.01 207.65 113.12 207.65 6.17 139.47 -253.87 139.47"/></clipPath></defs><g id="Layer_1" data-name="Layer 1"><g class="cls-2"><polygon class="cls-3" points="148.54 156.45 -375.17 156.45 -386.42 -4.52 148.54 -4.52 148.54 156.45"/><rect class="cls-4" x="-401.66" y="160.28" width="569.31" height="9.15"/><rect class="cls-5" x="-377.56" y="145.09" width="511.86" height="18.99"/><path class="cls-6" d="M-394.3-17.12V164.42h210.74V25.87h5.84V12.31s3-7.42,16.11-6.82V.91h76.07V5.8s15.76-1.59,15.81,9.32c0,4.63,0,10.75,0,10.75h5V164.42H158.47V37h.2l.16-28.91h0v-25.2Zm190.05,32.24c-.12,4.45,0,10.75,0,10.75h6.34v84.07H-377.56V29.09h6.67V21.48s3-9.42,16.12-8.82V.91h134.71V5.8S-204,4.22-204.25,15.12Zm341.7,6.36V33h4.28v76.9H-50.33V26.06h4.74V13.51s1.22-9.75,16.12-8.82V2.1H121.34V12.66C134.41,12.06,137.45,21.48,137.45,21.48Z"/><rect class="cls-7" x="-6.82" y="32.65" width="89.7" height="61.85"/><rect class="cls-8" x="-2.93" y="36.78" width="81.91" height="53.59"/><rect class="cls-7" x="35.5" y="18.72" width="5.05" height="89.7" transform="translate(101.6 25.55) rotate(90)"/><g class="cls-9"><line class="cls-10" x1="161.09" y1="-125.01" x2="161.09" y2="8.27"/><line class="cls-10" x1="152.64" y1="-125.01" x2="152.64" y2="8.27"/><line class="cls-10" x1="144.41" y1="-125.01" x2="144.41" y2="8.27"/><line class="cls-10" x1="136.52" y1="-125.01" x2="136.52" y2="8.27"/><line class="cls-10" x1="128.29" y1="-125.01" x2="128.29" y2="8.27"/><line class="cls-10" x1="120.92" y1="-125.01" x2="120.92" y2="8.27"/><line class="cls-10" x1="112.69" y1="-125.01" x2="112.69" y2="8.27"/><line class="cls-10" x1="104.8" y1="-125.01" x2="104.8" y2="8.27"/><line class="cls-10" x1="96.57" y1="-125.01" x2="96.57" y2="8.27"/><line class="cls-10" x1="88.13" y1="-125.01" x2="88.13" y2="8.27"/><line class="cls-10" x1="79.9" y1="-125.01" x2="79.9" y2="8.27"/><line class="cls-10" x1="72.01" y1="-125.01" x2="72.01" y2="8.27"/><line class="cls-10" x1="63.78" y1="-125.01" x2="63.78" y2="8.27"/><line class="cls-10" x1="63.78" y1="-125.01" x2="63.78" y2="8.27"/><line class="cls-10" x1="55.55" y1="-125.01" x2="55.55" y2="8.27"/><line class="cls-10" x1="47.66" y1="-125.01" x2="47.66" y2="8.27"/><line class="cls-10" x1="39.43" y1="-125.01" x2="39.43" y2="8.27"/><line class="cls-10" x1="30.99" y1="-125.01" x2="30.99" y2="8.27"/><line class="cls-10" x1="22.76" y1="-125.01" x2="22.76" y2="8.27"/><line class="cls-10" x1="14.87" y1="-125.01" x2="14.87" y2="8.27"/><line class="cls-10" x1="6.64" y1="-125.01" x2="6.64" y2="8.27"/></g><path class="cls-11" d="M117.85,58.54a31.34,31.34,0,0,0-9.7-15.7,21.76,21.76,0,0,1,13,7l-1.38-18.39a110.19,110.19,0,0,0,6.79,14.47,164.45,164.45,0,0,1,6.67-24.17q.3,11.74-.46,23.48a17.42,17.42,0,0,1,7.58-10.63,46.47,46.47,0,0,0-1.17,12.1,34.63,34.63,0,0,1,10.68-7.91c.6,2.12-1.36,4-2.85,5.61a18.36,18.36,0,0,0-4.72,14c.06.57.1,1.26-.36,1.61a1.62,1.62,0,0,1-1,.24L122.19,61"/></g></g><g id="Layer_5" data-name="Layer 5"><path class="cls-11" d="M154.54,138.72c.7-3.38,3.37-8-.16-10.74-4.42-3.47-13.48-4.06-19-3.2a4.43,4.43,0,0,1-3.81-1.11H28.47c-7.3,0-24.86,1.39-22.91,10,1.72,7.52,16.31,11.22,18.6,12.41,3.6,1.88,7.12,4.3,8.83,7.78.76,1.56,1.14,3.3,2.21,4.7,3.18,4.16,14.8,4.79,19.44,4.47,7.32-.5,11.32-3.76,18.67-3.9,13.44-.27,26-1,39.22.53,12.59,1.41,26.34,1.9,38.11-3.16C160.7,152.14,153,146,154.54,138.72Z"/><path class="cls-12" d="M138,147.1l-82.05,9.79A12.28,12.28,0,0,1,45.5,153L22.12,123.67l96.82-4.1,20.74,21.78A3.26,3.26,0,0,1,138,147.1Z"/><polygon class="cls-13" points="124.23 137.81 93.34 111.74 93.34 21.42 126.16 21.42 124.23 137.81"/><polygon class="cls-14" points="93.34 20.96 93.34 111.74 41.65 117.08 42.87 20.88 93.34 20.96"/><polygon class="cls-15" points="57.64 138.06 124.94 129.25 93.34 111.74 45.19 114.97 57.64 138.06"/><polygon class="cls-16" points="120.44 135.76 58.5 141.88 58.5 134.85 120.44 128.9 120.44 135.76"/><polygon class="cls-17" points="123.98 143.34 62.04 150.63 62.04 144.99 123.98 137.81 123.98 143.34"/><polygon class="cls-18" points="123.98 137.81 62.04 144.99 58.5 141.88 120.27 134.46 123.98 137.81"/><polygon class="cls-16" points="58.5 141.88 58.5 147.17 62.04 150.63 62.04 144.99 58.5 141.88"/><path class="cls-19" d="M99.91,125.9l-30.64,3A7.1,7.1,0,0,1,64,127.18l-5.39-4.36V120.5l0-2.56,26.44-2.35a7.55,7.55,0,0,1,4.69,1.24l10.64,7.08A1.09,1.09,0,0,1,99.91,125.9Z"/><path class="cls-17" d="M123.69,7.76a3.19,3.19,0,0,0,1,.16,3.38,3.38,0,0,0,3.38-3.38Z"/><path class="cls-17" d="M115.45,4.59,94.78,16.25h4.87L117.6,7.73A3.38,3.38,0,0,1,115.45,4.59Z"/><path class="cls-17" d="M121.63,4.56,117,7.71h0l-17.67,8.5h-.32l-1.51,1,7.74.71L124,7.79A3.38,3.38,0,0,1,121.63,4.56Z"/><path class="cls-17" d="M128.1,4.56,107.44,16.22h4.87l17.94-8.51A3.41,3.41,0,0,1,128.1,4.56Z"/><path class="cls-20" d="M117.22,7.55s4.35.64,4.41-3l-4.41,3"/><path class="cls-20" d="M123.54,7.59s3.66,1.56,4.54-3l-4.41,3"/><path class="cls-17" d="M111,7.75a3.14,3.14,0,0,0,1,.16,3.38,3.38,0,0,0,3.38-3.38Z"/><path class="cls-17" d="M102.8,4.58,82.13,16.24H87l17.94-8.52A3.37,3.37,0,0,1,102.8,4.58Z"/><path class="cls-17" d="M109,4.56,104.36,7.7h0l-17.66,8.5h-.33l-1.51,1,7.75.71L111.38,7.78A3.37,3.37,0,0,1,109,4.56Z"/><path class="cls-17" d="M115.45,4.56,94.78,16.21h4.87L117.6,7.7A3.38,3.38,0,0,1,115.45,4.56Z"/><path class="cls-20" d="M104.57,7.54s4.34.64,4.41-3l-4.41,3"/><path class="cls-20" d="M110.89,7.58s3.65,1.56,4.53-3l-4.4,3"/><path class="cls-17" d="M98.38,7.76a3.59,3.59,0,0,0,1,.16,3.38,3.38,0,0,0,3.38-3.38Z"/><path class="cls-17" d="M90.14,4.58,69.47,16.24h4.87l18-8.51A3.39,3.39,0,0,1,90.14,4.58Z"/><path class="cls-17" d="M96.32,4.56,91.7,7.7l0,0-17.67,8.5h-.32l-1.51,1L80,18,98.73,7.78A3.37,3.37,0,0,1,96.32,4.56Z"/><path class="cls-17" d="M102.8,4.56,82.13,16.22H87L104.94,7.7A3.37,3.37,0,0,1,102.8,4.56Z"/><path class="cls-20" d="M91.92,7.54s4.34.64,4.4-3l-4.4,3"/><path class="cls-20" d="M98.23,7.59s3.66,1.55,4.54-3l-4.41,3"/><path class="cls-17" d="M85.73,7.75a3.53,3.53,0,0,0,1,.16,3.38,3.38,0,0,0,3.38-3.38Z"/><path class="cls-17" d="M77.49,4.57,56.82,16.23h4.87L79.63,7.72A3.39,3.39,0,0,1,77.49,4.57Z"/><path class="cls-17" d="M83.67,4.55,79.05,7.69l0,0-17.66,8.5H61.1l-1.51,1,7.75.71L86.07,7.77A3.37,3.37,0,0,1,83.67,4.55Z"/><path class="cls-17" d="M90.14,4.55,69.47,16.21h4.87l18-8.52A3.37,3.37,0,0,1,90.14,4.55Z"/><path class="cls-20" d="M79.26,7.54s4.35.63,4.41-3l-4.41,3"/><path class="cls-20" d="M85.58,7.58s3.65,1.56,4.53-3l-4.4,3"/><path class="cls-17" d="M98.05,7.92a3.19,3.19,0,0,0,1,.16,3.38,3.38,0,0,0,3.38-3.38Z"/><path class="cls-17" d="M89.81,4.75,69.14,16.41H74L92,7.89A3.38,3.38,0,0,1,89.81,4.75Z"/><path class="cls-17" d="M96,4.72,91.37,7.87h0l-17.66,8.5h-.33l-1.5,1,7.74.71L98.4,8A3.38,3.38,0,0,1,96,4.72Z"/><path class="cls-17" d="M102.46,4.72,81.79,16.38h4.87l18-8.51A3.39,3.39,0,0,1,102.46,4.72Z"/><path class="cls-20" d="M91.58,7.71s4.35.64,4.41-3l-4.41,3"/><path class="cls-20" d="M97.9,7.75s3.65,1.56,4.53-3l-4.4,3"/><path class="cls-17" d="M85.4,7.91a3.13,3.13,0,0,0,1,.16,3.38,3.38,0,0,0,3.39-3.38Z"/><path class="cls-17" d="M77.15,4.74,56.49,16.4h4.86L79.3,7.88A3.37,3.37,0,0,1,77.15,4.74Z"/><path class="cls-17" d="M83.33,4.72,78.71,7.86h.05L61.1,16.37h-.33l-1.51,1,7.74.71L85.74,7.94A3.38,3.38,0,0,1,83.33,4.72Z"/><path class="cls-17" d="M89.81,4.72,69.14,16.37H74L92,7.86A3.38,3.38,0,0,1,89.81,4.72Z"/><path class="cls-20" d="M78.93,7.7s4.34.64,4.4-3l-4.4,3"/><path class="cls-20" d="M85.24,7.74s3.66,1.56,4.54-3l-4.41,3"/><path class="cls-17" d="M72.74,7.92a3.53,3.53,0,0,0,1,.16A3.38,3.38,0,0,0,77.1,4.7Z"/><path class="cls-17" d="M64.5,4.74,43.83,20.09H48.7l18-12.2A3.39,3.39,0,0,1,64.5,4.74Z"/><path class="cls-17" d="M70.68,4.72,66.06,7.86l0,0L48.44,20.06h-.33l-1.5,1,7.74-3L73.09,7.94A3.37,3.37,0,0,1,70.68,4.72Z"/><path class="cls-17" d="M77.15,4.72,56.49,16.38h4.86L79.3,7.86A3.37,3.37,0,0,1,77.15,4.72Z"/><path class="cls-20" d="M66.27,7.7s4.35.64,4.41-3l-4.41,3"/><path class="cls-20" d="M72.59,7.75s3.66,1.55,4.54-3l-4.41,3"/><path class="cls-17" d="M60.09,7.91a3.47,3.47,0,0,0,1,.16,3.38,3.38,0,0,0,3.38-3.38Z"/><path class="cls-17" d="M51.85,4.73l-25.58,19h4.87L54,7.88A3.4,3.4,0,0,1,51.85,4.73Z"/><path class="cls-17" d="M58,4.71,53.41,7.85l0,0L35.79,20.05h-.33l-1.51,1,7.75.7L60.43,7.93A3.36,3.36,0,0,1,58,4.71Z"/><path class="cls-17" d="M64.5,4.71,43.83,20.05H48.7l18-12.2A3.37,3.37,0,0,1,64.5,4.71Z"/><path class="cls-20" d="M53.62,7.7s4.34.63,4.41-3l-4.41,3"/><path class="cls-20" d="M59.94,7.74s3.65,1.56,4.53-3l-4.4,3"/><polygon class="cls-21" points="31.42 125.18 30.66 25.15 49.72 13.16 49.72 148.4 31.42 125.18"/><polygon class="cls-22" points="126.16 13.92 49.72 13.16 49.72 15.62 49.72 27.41 49.72 148.4 58.5 147.17 58.5 22.05 126.16 22.18 126.16 13.92"/><polygon class="cls-23" points="29.9 23.31 29.9 27.21 49.72 13.16 49.72 8.91 29.9 23.31"/><polygon class="cls-23" points="49.72 8.91 49.72 13.16 126.51 14.05 126.51 10.71 49.72 8.91"/><polygon class="cls-23" points="116.94 22.23 116.94 128.4 142.96 141.34 142.44 15.28 116.94 22.23"/><rect class="cls-24" x="142.44" y="15.28" width="3.74" height="126.07"/><path class="cls-25" d="M74.61,117.5c-3.22.23-6.4,1-6.49,2.71-.11,2.09,5.34,1.34,6.51,2.44s4.16,4.73,9.07,3.54-1.18-3.89-1.07-4.58c.16-1.09,1-2.63-.21-3.47a3.34,3.34,0,0,0-1.31-.48A30.9,30.9,0,0,0,74.61,117.5Z"/><ellipse class="cls-18" cx="75.86" cy="119.91" rx="2.72" ry="0.96"/><path class="cls-26" d="M73.52,120.37a4.77,4.77,0,0,0,2.38.5c1.39,0,2.52-.37,2.68-.85a3.46,3.46,0,0,0-2-.5C75.14,119.52,73.68,119.89,73.52,120.37Z"/><line class="cls-27" x1="84.4" y1="119.21" x2="90.26" y2="118.85"/><line class="cls-27" x1="85.61" y1="120.41" x2="91.94" y2="120.02"/><line class="cls-27" x1="87.61" y1="121.65" x2="94.1" y2="121.25"/><line class="cls-27" x1="89.61" y1="122.96" x2="96.1" y2="122.56"/><line class="cls-27" x1="61.63" y1="121.42" x2="67.49" y2="121.06"/><line class="cls-27" x1="62.54" y1="122.59" x2="68.86" y2="122.2"/><line class="cls-27" x1="64.56" y1="124.01" x2="71.05" y2="123.61"/><line class="cls-27" x1="66.02" y1="125.43" x2="72.51" y2="125.04"/><line class="cls-28" x1="93.35" y1="111.74" x2="93.53" y2="22.12"/><line class="cls-29" x1="137.99" y1="16.92" x2="138.55" y2="139.15"/><line class="cls-29" x1="133.8" y1="17.91" x2="134.34" y2="136.27"/><line class="cls-29" x1="129.53" y1="19.52" x2="130.07" y2="134.32"/><line class="cls-29" x1="120.71" y1="21.42" x2="121.21" y2="130.52"/><line class="cls-29" x1="125.36" y1="20.37" x2="125.88" y2="132.46"/><polygon class="cls-30" points="142.57 38.82 116.93 42.5 116.93 37.21 142.57 33.52 142.57 38.82"/><polygon class="cls-30" points="142.98 116.53 117.34 109.16 117.34 103.87 142.98 111.23 142.98 116.53"/><rect class="cls-16" x="112.58" y="41.07" width="0.72" height="7.92"/><rect class="cls-16" x="112.58" y="103.66" width="0.72" height="7.92"/><path class="cls-31" d="M120.43,128.48s.44,6.57.53,9.67-1.23,2.27-3.48,3.95a16,16,0,0,1-2.37,1.2,6.94,6.94,0,0,0-2.27.77c-.33.36-.54,1.16.45,1.25a34.47,34.47,0,0,0,5.6.28c1.27-.2,4.55-1.23,5.82-1.29s2.05,0,2.31-.67a4.42,4.42,0,0,0-.34-3.12,5.06,5.06,0,0,1-.42-3.44c.31-.77,2-8.89,2-8.89Z"/><path class="cls-32" d="M113.33,146a12.34,12.34,0,0,1,3.27-.12,17.8,17.8,0,0,0,3.34-.15c2.55-.36,4.57-.68,7.12-1.07.53-.08.43-.73.09-.69-2.79.35-5.18.81-7.78,1.17a18,18,0,0,1-3.44.11,12.23,12.23,0,0,0-3.2.18c-.22.05-.1.3,0,.4a.66.66,0,0,0,.61.17Z"/><path class="cls-32" d="M114.76,143.39a9,9,0,0,1,1.22-.23,2.18,2.18,0,0,1,1.72.61,4.11,4.11,0,0,1,.45,1.62l.95,0s-.58-1.89-1.25-2.31A2.62,2.62,0,0,0,114.76,143.39Z"/><path class="cls-31" d="M105.39,121.7s.43,6.57.52,9.67-1.23,2.27-3.48,3.95a16,16,0,0,1-2.37,1.2,6.94,6.94,0,0,0-2.27.77c-.33.36-.53,1.16.45,1.25a34.47,34.47,0,0,0,5.6.28c1.27-.2,4.55-1.23,5.82-1.29s2,0,2.31-.67a4.42,4.42,0,0,0-.34-3.12,5,5,0,0,1-.41-3.44c.3-.77-2.4-8.72-2.4-8.72Z"/><path class="cls-32" d="M98.28,139.24a12.34,12.34,0,0,1,3.27-.12,17.8,17.8,0,0,0,3.34-.15c2.55-.36,4.57-.68,7.12-1.07.53-.08.43-.73.09-.69-2.79.35-5.18.81-7.78,1.17a18,18,0,0,1-3.44.11,12.23,12.23,0,0,0-3.2.18c-.22.05-.1.31,0,.4a.66.66,0,0,0,.61.17Z"/><path class="cls-32" d="M99.71,136.61a11.18,11.18,0,0,1,1.22-.23,2.18,2.18,0,0,1,1.72.61,4.11,4.11,0,0,1,.45,1.62l1-.05s-.58-1.89-1.25-2.31A2.62,2.62,0,0,0,99.71,136.61Z"/><path class="cls-33" d="M114.21,67.69l-9.46.93s-.91-11.65.59-15,4-4.14,5.79-3.33S114.56,61,114.21,67.69Z"/><path class="cls-34" d="M129.11,79.69s1.51,7,0,10.1a15.5,15.5,0,0,1-9.23,7.36C114.27,98.74,108,108,108,108s1.47,5.32,2.3,8.38C110.7,119.75,112,130,112,130l-8.14,1.34L97,107.77s-1.79-3.8,2.37-7.45C103.91,96.18,111.21,83,111.21,83l1-2.22Z"/><path class="cls-34" d="M128.29,88.65l-2.22,3.86,1,19.29a72.26,72.26,0,0,1,1.9,9.8c.21,3.35.19,16.77.19,16.77l-10-.82s-.2-16.35-2.8-21.47c-2-4-3.08-10.84-3.14-11.28s-2.65-11.43-2.65-11.43l5.63-8.87Z"/><path class="cls-33" d="M111.2,49.88c1.26-.45,2.62-.74,2.86-2a5.3,5.3,0,0,1,.26-1.55c.48-.85,2.09-.35,2.85-.34a50,50,0,0,1,6,1.14c1.58.27,1.06.87,2.06,1.94.85,3.23,1.77,8.85,1.77,8.85l3.49,23.31c.27.78-2.44,1.32-4,1.71l-13,1.85s-3.88-.46-4.37-1.52c-.39-.86-.83-12.59-1.66-17.5-.16-.91-.59-3.67-.84-5.27a16.17,16.17,0,0,1-.19-2.4V52L110,48.66C110.5,49.23,110.4,50.17,111.2,49.88Z"/><path class="cls-31" d="M128,57.92c.83,3.87.63,14.26.13,15.49-1.53,3.74-13,12.94-13,12.94l-2.78-1.77,9.76-13.45-1-14.11"/><path class="cls-31" d="M108.09,68.37c-.36,0-.66,0-1,0s-.87.15-1.31.15l.29,4.18L96.3,86.19,99.07,88a95.62,95.62,0,0,0,9.79-8.1c-.19-4.34-.33-5.31-.54-8.62C108.28,70.58,108.14,69.2,108.09,68.37Z"/><path class="cls-33" d="M129.92,64.83l-9.51,1.68s-2.3-10.81-2-14.51,2.54-5.23,4.45-5C129.47,47.84,129.62,62,129.92,64.83Z"/><path class="cls-35" d="M118.77,51.62a5.67,5.67,0,0,1,1.06-3.16,3.49,3.49,0,0,1,2-1.36,2.75,2.75,0,0,1,.95,0,3,3,0,0,1,1.47.74l-.09,0a2.93,2.93,0,0,0-3.43.22,7.58,7.58,0,0,0-1.32,1.9,5.2,5.2,0,0,0-.37,1c0,.14-.06.29-.1.44a3.93,3.93,0,0,0-.21.4Z"/><path class="cls-31" d="M116.29,47c-.39.54-.72,1.13-1.16,1.63A7.8,7.8,0,0,1,113,50.35c-.73.4-2.11,1.09-2.78.22a2.77,2.77,0,0,1-.42-1.42,17.61,17.61,0,0,0-.81-3.59,2.76,2.76,0,0,1-.08-.27l6.69-7.47s0,.32,0,.38c0,.36,0,.73.07,1.1a26.18,26.18,0,0,0,.7,3.92c.13.52.28,1,.44,1.53a7.62,7.62,0,0,1,.33.91c.07.39-.14.51-.38.77A5,5,0,0,0,116.29,47Z"/><path class="cls-35" d="M106.43,55.18s-.43.8-.1,5.43c.1,1.47,1.12,7.75,1.12,7.75l.36,0s-1.75-9.55-1.38-13.14"/><path class="cls-36" d="M93.18,91.48l9,.83h0l.37,0c1.44.16,2.89.3,4.34.44a.88.88,0,0,0,.72-.25l0,0a7,7,0,0,0,1.95-3.59l.74-3.61a6.24,6.24,0,0,0-.45-3.95v0a.72.72,0,0,0-.43-.37c-1.27-.39-2.54-.79-3.82-1.16-1.5-.44-3-1-4.5-1.38l-3.25-1-.15-.1c-.28-.07-1.07-.34-1.58-.51a1.16,1.16,0,0,0-.75-.66c-1.37-.28-2.73,3.11-3.63,7.44s-1,8,.39,8.27A1.23,1.23,0,0,0,93.18,91.48ZM96.5,77.9h0Z"/><path class="cls-37" d="M92.2,91c1,.2,2.38-2.76,3.17-6.61s.66-7.14-.29-7.33-2.14,2.81-2.94,6.66S91.24,90.84,92.2,91Z"/><path class="cls-38" d="M102.58,85.93a7.81,7.81,0,0,0-5.45-9.21.4.4,0,0,0-.49.3h0a.39.39,0,0,0,.28.46,7.16,7.16,0,0,1-2.88,14,.39.39,0,0,0-.44.31h0a.39.39,0,0,0,.33.47A7.8,7.8,0,0,0,102.58,85.93Z"/><path class="cls-37" d="M96.12,76.82a14.43,14.43,0,0,1,.24,7.8c-1,4.8-3.18,6.86-3.18,6.86s2.61-1,3.84-6.51S96.12,76.82,96.12,76.82Z"/><path class="cls-35" d="M121.76,66.27l-1.11.2s-2-10.41-1.88-12.07c0,0,.63,8.87,1.64,12.11l.09.19,1.26-.19Z"/><path class="cls-39" d="M112.61,102.2s5.58-5.67,6.9-6.26,7.25-2.07,8.72-5.09c0,0-.73,2.43-4.28,3.89s-5.57,2.59-6.33,3.47-4.68,5-4.68,5Z"/><path class="cls-40" d="M94,86.8a11.72,11.72,0,0,0-7.91,5.61A16.12,16.12,0,0,0,84,102c.14,1.62.48,3.31-.08,4.84-.74,2-1.6,1.9-1,4a2.87,2.87,0,0,0,2.56,1.86,4.86,4.86,0,0,0,3.13-1c.77-.55.08.59.52-.25,1-1.83.81-4.05.38-6.07a26.81,26.81,0,0,1-1.06-6.11c.07-3.13,1.77-6,3.65-8.5.81-1.08,1.71-2.32,1.44-3.64"/><path class="cls-40" d="M91.07,93.74a9.73,9.73,0,0,0-1.39,5,1.32,1.32,0,0,0,.21.91,1.16,1.16,0,0,0,1.31.14,1.19,1.19,0,0,0,.78-1,9.7,9.7,0,0,0-.11-1.42,11.18,11.18,0,0,1,.31-3.31c.11-.47-1.15-.28-1.26.15a12.16,12.16,0,0,0-.33,3.06c0,.51.1,1,.13,1.51a1.06,1.06,0,0,1,0,.31c0,.22-.2.21.17.14s.26,0,.17-.14a.57.57,0,0,1-.08-.23,4.4,4.4,0,0,1,0-1.2,13.19,13.19,0,0,1,.22-1.38,7.39,7.39,0,0,1,1-2.56c.16-.25-.14-.37-.34-.38a1,1,0,0,0-.83.35Z"/><path class="cls-40" d="M89.29,86.7a4.59,4.59,0,0,0-1.67.44,3.79,3.79,0,0,0-1.34,1,.79.79,0,0,0-.1.93.93.93,0,0,0,1.27.1,3.61,3.61,0,0,0,.57-.6l0,0s.09-.08,0,0,0,0,0,0l0,0,.31-.26a2.62,2.62,0,0,1,.34-.24l.08-.06h0l.19-.11.39-.19.17-.08.09,0c.13-.06-.12,0,0,0a.86.86,0,0,0,.41-.25.43.43,0,0,0,.1-.37.59.59,0,0,0-.75-.29A6.4,6.4,0,0,0,87.15,88c-.16.16-.32.32-.46.49s-.11.11,0,0c-.11.09-.11,0,.3,0s.23-.09.37,0c0,0,0-.06,0,0s0,0,0,0v.07s0,0,0,0l0,0a1.18,1.18,0,0,1,.18-.21l0,0,.13-.11.23-.17L88,88s-.1.06,0,0l.14-.09.32-.15.07,0s-.11,0,0,0l.18-.06a1.5,1.5,0,0,0,.32-.07H89l.18,0c.27,0,.68-.21.69-.52s-.31-.46-.59-.45Z"/><path class="cls-40" d="M87.13,114.83a9,9,0,0,0-1.22,1.84c-.24.47-.63,1.15-.42,1.69a.59.59,0,0,0,.63.34,1.77,1.77,0,0,0,1.33-.53,2.84,2.84,0,0,0,.21-1.78,2.8,2.8,0,0,1,.44-2c.13-.16-.47-.1-.5-.1a1.32,1.32,0,0,0-.74.33c-.75.9-.37,2.17-.45,3.23a1.06,1.06,0,0,1-.21.6c-.19.27.63-.28.72-.19l-.1-.07a.43.43,0,0,1-.1-.25,2.55,2.55,0,0,1,.44-1.5,9.1,9.1,0,0,1,1.2-1.8c.14-.16-.46-.1-.49-.1a1.32,1.32,0,0,0-.74.33Z"/><path class="cls-40" d="M70.47,126a4.26,4.26,0,0,0-2.43.55,1.46,1.46,0,0,0-.73,1.61c0,.14.24.16.36.15a3,3,0,0,0,2.74-1.69c0-.08,0-.16-.12-.19a.7.7,0,0,0-.38,0,3.82,3.82,0,0,0-1.91.91s-.14.14-.12.23.15.13.22.14a1.1,1.1,0,0,0,.84-.22,2.88,2.88,0,0,1,.27-.22l.06,0,0,0,0,0,.15-.08.07,0a.19.19,0,1,0,0,0l.16-.07h0l.08,0s.25-.06.06,0l-.5-.21-.06.12s0,0,0,0a.21.21,0,0,1,0,.06,1.7,1.7,0,0,1-.15.22l-.09.1,0,0s0,0,0,0l-.22.18c-.06,0,.08,0,0,0l-.06,0-.12.07h0c.08,0,0,0,0,0l-.13,0,.06,0-.07,0-.06,0h.06l-.14,0c-.07,0,.12,0,0,0h-.08l.35.15a.83.83,0,0,1,0-.64l0-.08,0,0a1.3,1.3,0,0,1,.1-.15l0-.06s.1-.08,0,0l.14-.12c.05,0-.09.06,0,0l.09,0s-.09,0,0,0,.09,0,.09,0l-.06,0H69l.09,0c.1,0,0,0,0,0l.11,0,.2,0c.13,0-.11,0,0,0H70a1,1,0,0,0,.79-.31c.16-.22-.14-.31-.31-.3Z"/><path class="cls-40" d="M79.05,121.59l-.35-.11-.16-.06-.09,0h0c-.23-.1-.44-.22-.65-.33A2,2,0,0,0,76,121c-.41.2-.83.68-.61,1.18s1,.46,1.52.45l1.81,0a.76.76,0,0,0,.62-.34c.11-.2,0-.34-.2-.41a5.7,5.7,0,0,0-2.12-.4.88.88,0,0,0-.78.35c-.13.24.11.43.34.43a4.17,4.17,0,0,1,.5,0l.25,0,.12,0c.09,0-.12,0,0,0a4.51,4.51,0,0,1,1,.28l.42-.75-1.7,0h-.58c.07,0,.07,0,0,0s0,0,0,0h0l0,0s0,0,0,0a.28.28,0,0,1,0-.13c0,.09,0,0,0,0a.43.43,0,0,1,0,0h0l0,0s0,0,0,0,0,0,0,0,0,0,0,0,0,0,0,0h0c-.08,0-.09,0,0,0h.09c-.07,0-.08,0,0,0l.18.05h0l.09,0a10,10,0,0,0,1.5.65.9.9,0,0,0,.84-.23.28.28,0,0,0-.14-.5Z"/><path class="cls-40" d="M84.05,131.88c.29.67-.19,1.31-.21,2a1.25,1.25,0,0,0,.8,1.33,1.55,1.55,0,0,0,1.8-.92,3.29,3.29,0,0,0-.24-1.95c-.17-.63-.34-1.54.26-2,.22-.16.12-.39-.12-.44a1.09,1.09,0,0,0-.88.24,2,2,0,0,0-.63,2c.13.71.58,1.49.37,2.22,0,.08-.1.27-.15.26a.63.63,0,0,1,.31-.12h.1s0,0,0,0a1,1,0,0,1-.31-.7,3.17,3.17,0,0,1,.21-1,1.83,1.83,0,0,0,0-1.2c-.11-.25-.5-.2-.71-.15s-.65.24-.54.49Z"/><path class="cls-40" d="M75.69,139.8l1.48.75.72.35a3.48,3.48,0,0,1,.69.36.63.63,0,0,1,.13.5,4.74,4.74,0,0,1-.06.75,4.06,4.06,0,0,1-.48,1.34s-.11.15-.1.17.35-.1.35-.08l-.08-.05a.57.57,0,0,1-.09-.49,11.56,11.56,0,0,1,.66-1.19c.37-.94-.3-1.66-1.17-1.93a8.2,8.2,0,0,1-1.48-.36c-.31-.15-.63-.56-.43-.91s-.13-.44-.36-.47a.81.81,0,0,0-.77.36,1.16,1.16,0,0,0,.21,1.34,2.5,2.5,0,0,0,1.51.68,1.93,1.93,0,0,1,1.26.52c.35.44,0,.92-.28,1.31a1.46,1.46,0,0,0-.24,1.52,1.17,1.17,0,0,0,1.63.29,2.65,2.65,0,0,0,.85-1.37,4.79,4.79,0,0,0,.26-1.76,1,1,0,0,0-.34-.78,4.7,4.7,0,0,0-.94-.5l-2-1a.84.84,0,0,0-.85.08c-.17.13-.34.45-.07.58Z"/><path class="cls-40" d="M82,145.83a3.75,3.75,0,0,0,1.47.65,3.8,3.8,0,0,0,.82.08c.14,0,.28,0,.42,0l.13,0c-.07,0,0,0,0,0a.81.81,0,0,1,.33.31,1.31,1.31,0,0,1,.2.47,2,2,0,0,1,.07.59,1.85,1.85,0,0,1,0,.23l0,.13c0,.17-.07,0,.15-.05l.31-.08c.12,0,.19,0,.09,0l0,0a.81.81,0,0,1-.16-.16,1.3,1.3,0,0,1-.18-.41,5.49,5.49,0,0,0-.39-1A1.31,1.31,0,0,0,84,146.1l-.22,0c.1,0-.12,0-.09,0s-.07,0-.07,0l-.1-.07a.69.69,0,0,1-.25-.57c0-.25-.33-.26-.51-.24a1.35,1.35,0,0,0-.44.15c-.09.05-.22.14-.23.25a1,1,0,0,0,.58,1,1.54,1.54,0,0,0,.73.12h.37a.24.24,0,0,1,.19,0s.09.06,0,0l.08.07a1,1,0,0,1,.12.15,1.67,1.67,0,0,1,.15.35,7.69,7.69,0,0,0,.27.81,1.1,1.1,0,0,0,.62.63c.55.2,1.4,0,1.5-.69a2,2,0,0,0-.63-1.94,1.46,1.46,0,0,0-.75-.25c-.27,0-.54,0-.81,0a2.94,2.94,0,0,1-1.36-.53.8.8,0,0,0-.78,0c-.1,0-.54.3-.32.46Z"/><path class="cls-40" d="M90.54,127.86a5,5,0,0,0-3.5-2.11,3.78,3.78,0,0,1-2.12-.51,6.37,6.37,0,0,1-.7-.92,3.35,3.35,0,0,0-2.66-1.14,9.85,9.85,0,0,0-2.93.59l-.54-.16a6.66,6.66,0,0,0-2.52.27A2.27,2.27,0,0,0,74,125.72a3.94,3.94,0,0,1,0,.77c-.27,1-1.71.8-2.67,1.13a2.75,2.75,0,0,0-1.62,1.9,8.16,8.16,0,0,0-.19,2.57,1.22,1.22,0,0,0,.18.73,1.18,1.18,0,0,0,.77.37,8.69,8.69,0,0,0,2.69-.08c.49.53.35,1.43.22,2.17s0,1.89.75,2.11c.43.11.9-.11,1.34,0,.78.16,1.07,1.14,1.74,1.57,1.22.78,3.22-.55,4.15.57.6.71.18,1.89.73,2.64a1.63,1.63,0,0,0,.72.52c.8.32,1.95,0,2.06-.86s-.68-1.37-1-2.08A3.89,3.89,0,0,1,84,137a1.51,1.51,0,0,1-1.67-1.25,3.52,3.52,0,0,1,.45-2.23A3.11,3.11,0,0,0,83,133a13.43,13.43,0,0,1,3.35-1.15c1.47-.15,3.19.44,4.25-.58C91.47,130.41,91.24,128.88,90.54,127.86ZM78.21,133.2a3.63,3.63,0,0,1-.65,1.34c-.21.29-.54.6-.87.47s-.36-.61-.3-1a5.37,5.37,0,0,0,.1-1.74c-.07-.38-.3-.79-.68-.81l.57-.16a2.39,2.39,0,0,1,1.46.48A1.57,1.57,0,0,1,78.21,133.2Zm4.55-6.1a.19.19,0,0,1-.15,0,16.16,16.16,0,0,1-1.69-.3.48.48,0,0,1-.24-.11.5.5,0,0,1-.11-.34.93.93,0,0,1,.08-.55.47.47,0,0,1,.63-.14L82,126a2.19,2.19,0,0,1,.78.82C82.79,126.94,82.82,127.05,82.76,127.1Z"/><path class="cls-31" d="M105.82,87.62a9.19,9.19,0,0,0,1.85-.25c.08-.1.75-.65,1.34-1.13a.69.69,0,0,0,.15-1c-.06-.08-1.78.61-2.07-.18l1.33-.89a5.78,5.78,0,0,1,1.47-.49,10.22,10.22,0,0,1,2.06.17l1.15-.4,2.69,2.3-3,2.49s-2.94,2.24-3.48,2.24a4.63,4.63,0,0,1-1.58-.58c-.7.13-1.32-.64-1.32-.64-1.23-.16-.7-.75-.7-.75a.19.19,0,0,1-.13,0A.48.48,0,0,1,105.82,87.62Z"/><path class="cls-41" d="M109.62,87.24a2,2,0,0,1-.41.5,3.36,3.36,0,0,1-1.28.89,2.91,2.91,0,0,1-1.55,0,2.21,2.21,0,0,1-.62-.18,3.28,3.28,0,0,1,.63.06,3.36,3.36,0,0,0,1.48-.07,3.92,3.92,0,0,0,1.26-.82A3.23,3.23,0,0,1,109.62,87.24Z"/><path class="cls-41" d="M110,88.07a1.2,1.2,0,0,1-.35.48,4,4,0,0,1-.49.42,1.93,1.93,0,0,1-.71.37,3.4,3.4,0,0,1-.78,0l-.63,0a2.3,2.3,0,0,1-.58-.07,1.91,1.91,0,0,1,.58-.06c.18,0,.4,0,.63,0a3.8,3.8,0,0,0,.75-.06,1.89,1.89,0,0,0,.67-.32,5.85,5.85,0,0,0,.49-.38A4.51,4.51,0,0,0,110,88.07Z"/><path class="cls-41" d="M110.36,89.09a4.73,4.73,0,0,1-1.14.89.67.67,0,0,1-.31.1h-.28a2.42,2.42,0,0,1-.46,0c-.26,0-.41-.13-.4-.15a2.14,2.14,0,0,1,.42,0,3.23,3.23,0,0,0,.44,0l.26,0a.49.49,0,0,0,.23-.08l.86-.55A1.72,1.72,0,0,1,110.36,89.09Z"/><path class="cls-42" d="M116.51,41.27v0A0,0,0,0,0,116.51,41.27Z"/><path class="cls-31" d="M112.19,47.14l-2.61.52h-1.36c-.13,0-1-1.16-1.14-1.3a11.06,11.06,0,0,1-1.24-1.58,11.19,11.19,0,0,1-1.1-1.71,3.45,3.45,0,0,1-.21-1.83,1.3,1.3,0,0,0-.14-.69c-.24-.47-.42-1.05-.72-1.69a1.51,1.51,0,0,1-.14-.35s-.79-2.78-.52-3.9a3.08,3.08,0,0,1,1.6-2.13,16,16,0,0,1,2.9-.76l2.91-1.15,2.86.66,2,2.79.67,3.65.39,3.31"/><path class="cls-43" d="M115.07,37.62c.06.28,0,1.75.07,2l1.44-.37c.2-1.06.46-2.31.56-2.6.16-.46-1-2.27-1.2-3l0-.15c-.15-.71-1.08-1.66-2.5-2.55-2.43-1.54-2.34-1.58-5.31-.65a6.08,6.08,0,0,0-.6.21c-1.83.73-3.42,1.08-4.26,3-.6,1.35-.28-.25,0,.54-.32-1.59-.31-.22-.19-.45.69-1.31,1.44-.26,1.89-.44a1.56,1.56,0,0,1,.79-.11,3.87,3.87,0,0,0,1.39-.36c.35-.14,1.22-.57,1.29-.6.21-.23-.23-1.13.2-1.3a6.58,6.58,0,0,1,3.12-.17c.66.14,2.23.4,2.41,2"/><path class="cls-43" d="M108.42,47.26s0,0,0,0c.23-.25.22-.35.35-.42a.74.74,0,0,1,.14-.06c.37-.15.6-.25,1.79.16,0,0,1.35-.49,1.37-.5l.63-.5c.1-.1,2.2-2.95,2.2-2.95s.37-.73.37-.8l0,0h0l0,.09a1.88,1.88,0,0,1,0,.41c0,.21,0,.42,0,.63a1.8,1.8,0,0,1,0,.22c-.25.26-1.58,3.12-2.54,3.92a4.54,4.54,0,0,1-.85.34,9.08,9.08,0,0,1-3.35.57,1,1,0,0,1-.76-.4,18.59,18.59,0,0,1-2.09-3.28l2.11,2.68a2.91,2.91,0,0,0,.49,0"/><path class="cls-31" d="M116.15,41.43c1.43.86,1.2-1.13,1.2-1.13a3.85,3.85,0,0,0,.09-2.92.8.8,0,0,0-1-.5c-.65.24-.85.68-.84,3"/><path class="cls-43" d="M105.18,32.4c1.07-.27,3.74-1.69,5.18-2.13.6-.18,3,.85,3.32,1.13.78.65-.18,2.78,1.45,5,.53.75.67-.81,1.23-.37s.78.62.78.62a8.94,8.94,0,0,0-1.32-4.63c-1.08-2.23-3.89-2.66-5.19-2.56a19.51,19.51,0,0,0-6.15,2.18"/><path class="cls-44" d="M116.17,39.38a5.06,5.06,0,0,1,.37-1.26,1.28,1.28,0,0,1,.29-.39l0,0s0,0,0,0h-.06a.79.79,0,0,1,.18.22,1.49,1.49,0,0,1,.18.75s.12,0,.12,0a1.53,1.53,0,0,0-.25-.88c-.05-.06-.12-.17-.21-.14a.74.74,0,0,0-.17.12,1.64,1.64,0,0,0-.27.46,5.24,5.24,0,0,0-.34,1.17s.11,0,.12,0Z"/><path class="cls-44" d="M116.38,39.51c.21-.06.22.3.24.43s0,.45.19.43.13-.1.14-.18a1.82,1.82,0,0,0,0-.52,1.74,1.74,0,0,0-.13-.6c-.09-.23-.24-.5-.51-.54-.06,0-.12.07,0,.08s.35.29.43.48a1.31,1.31,0,0,1,.12.47,2.44,2.44,0,0,1,0,.54.9.9,0,0,1,0,.16l0,0h0a0,0,0,0,0,0,0,1.9,1.9,0,0,1-.09-.53c0-.2-.13-.38-.35-.31-.07,0,0,.1,0,.08Z"/><path class="cls-43" d="M109.87,38.62a.44.44,0,0,1,.49,0,.38.38,0,0,1,.17.16.43.43,0,0,1,0,.41.41.41,0,0,1-.44.2.44.44,0,0,1-.22-.74"/><path class="cls-43" d="M105.13,39.88a.46.46,0,0,0-.45.21.41.41,0,0,0-.07.23.43.43,0,0,0,.2.36.41.41,0,0,0,.48,0,.45.45,0,0,0,.08-.57.38.38,0,0,0-.24-.19"/><path class="cls-43" d="M106.66,40.15a2.8,2.8,0,0,0-1.33-.41c-.73.12-.87.33-1,.72a1.57,1.57,0,0,1,.88-.53A5,5,0,0,1,106.66,40.15Z"/><path class="cls-43" d="M108.91,39.39a4.71,4.71,0,0,1,1.32-1,2.59,2.59,0,0,1,2,.28,5.2,5.2,0,0,0-1.77-.17A9,9,0,0,0,108.91,39.39Z"/><path class="cls-43" d="M108.05,37l.15.51.17.54c.36-.23.68-.5.92-.62a5.13,5.13,0,0,1,1.52-.62,1.89,1.89,0,0,1,.75,0c.08,0,.31.14.39.07s-.09-.22-.1-.24a1.17,1.17,0,0,0-1.13-.4,8.05,8.05,0,0,0-2.67.74"/><path class="cls-43" d="M103.4,38.47l.27-.17a6.55,6.55,0,0,1,2.39-.87l.17.5c0,.13.12.35.16.48a9.77,9.77,0,0,0-1,0,4.18,4.18,0,0,0-1.48.36l-.26.15C103.42,38.77,103.35,38.52,103.4,38.47Z"/><path class="cls-43" d="M110,44.91l-1.84.38s.61.59,1,.48C109.52,45.7,109.82,45.3,110,44.91Z"/><path class="cls-45" d="M107.93,42.79a.81.81,0,0,0,.72-.24s.2,0,.14,0a1.13,1.13,0,0,1-1,.3s0,0,0,0a.16.16,0,0,1,.12,0"/><path class="cls-45" d="M108.87,42.47a1.32,1.32,0,0,1,.42-.23.08.08,0,0,1,.08,0,0,0,0,0,1,0,0,.56.56,0,0,1-.24.13s-.06,0-.08,0,0,0,0,0a.35.35,0,0,0,.19-.1l.08,0a1.11,1.11,0,0,0-.37.2.15.15,0,0,1-.09,0s0,0,0-.05"/><path class="cls-45" d="M109.5,42.33a.62.62,0,0,0,.42-.35.53.53,0,0,0-.39-.62s0,0,0,0a.14.14,0,0,1,.11,0,.68.68,0,0,1,.45.51.52.52,0,0,1-.33.48l-.19.08h-.1s0,0,0-.05"/><path class="cls-45" d="M107.57,42.78s0,0,0,0a.16.16,0,0,1-.15,0l0,.07a.82.82,0,0,1,.31,0s0,0,.06,0a0,0,0,0,0,0,0"/><path class="cls-45" d="M107.71,42.77a.69.69,0,0,0-.35,0s0,0,0,0,0,0,0,0"/><path class="cls-45" d="M107.19,42.91a.38.38,0,0,1-.37-.15.58.58,0,0,1,0-.64s0,0,0,0,0,0,0,0a.64.64,0,0,0-.07.56.45.45,0,0,0,.37.3.33.33,0,0,0,.14,0s0,0,.06,0,0,0,0,0"/><path class="cls-43" d="M104.71,33a.65.65,0,0,1,.29-.18l.11-.07c.37-.09.73-.17,1.1-.24a.67.67,0,0,1,.28,0h0l.81-.2h.13a1,1,0,0,1,.34,0,.11.11,0,0,1,0,.21c-.1.06-.28,0-.34.12s.12.15.09.25-.11.1-.17.15-.07.14-.13.2a.39.39,0,0,1-.28.11c-.1,0-.25,0-.26.1a.07.07,0,0,0,0,.06.2.2,0,0,1-.11.22.32.32,0,0,1-.3,0c-.08,0-.13-.11-.22-.14l-.09,0a.19.19,0,0,1-.08.07.32.32,0,0,1-.3,0c-.08,0-.12-.11-.21-.14s-.18,0-.22-.07,0-.24,0-.3-.24,0-.36,0A.13.13,0,0,1,104.71,33Z"/><path class="cls-43" d="M110.61,47.11a.55.55,0,0,1-.24.13l-.1,0q-.45.08-.9.12a.88.88,0,0,1-.23,0h0l-.66.12-.11,0a.48.48,0,0,1-.27,0c-.07,0-.09-.12,0-.17s.22,0,.28-.07-.09-.13-.06-.21.1-.07.15-.11.07-.1.12-.15a.3.3,0,0,1,.23-.07c.08,0,.2,0,.22-.07a.06.06,0,0,0,0,0,.18.18,0,0,1,.11-.18.26.26,0,0,1,.24,0c.06,0,.1.1.17.13l.07,0a.22.22,0,0,1,.07-.06.29.29,0,0,1,.24,0c.07,0,.1.1.17.13s.14,0,.17.07-.06.19,0,.25.2,0,.29,0A.1.1,0,0,1,110.61,47.11Z"/><path class="cls-46" d="M117,36.86a.76.76,0,0,0,.3-.14.25.25,0,0,0,.06-.31c-.11-.14-.41-.11-.43-.29s.46-.21.5-.44-.19-.3-.36-.35c.08-.13.07,0,.21-.1s.14-.44,0-.55-.15,0-.13-.17-.17-.1-.1-.21a.27.27,0,0,0,0-.34.64.64,0,0,1-.14-.35c0-.13-.27-.1-.22-.21s-.14-.42-.35-.54c.09-.09,0-.08,0-.2a.29.29,0,0,0-.08-.33c-.06,0-.14,0-.21-.09-.27-.13-.22-.54-.11-.84a.43.43,0,0,1-.53-.25,1.24,1.24,0,0,0-.1-.29c-.06-.09-.21-.12-.25,0"/><path class="cls-43" d="M117.06,36.94c.2-.06.5-.16.51-.42s-.35-.22-.37-.41.38-.23.41-.44-.24-.36-.42-.43l0,.12s-.11,0,0,0h.09a.53.53,0,0,0,.17-.08.49.49,0,0,0,.12-.37c0-.17-.08-.21-.17-.33l-.06,0s0,0,0,0,0-.07,0-.1-.06-.06-.06-.16,0-.14,0-.22-.1-.16-.13-.24,0-.19-.09-.27-.09,0-.13-.08,0-.09,0-.19-.23-.35-.4-.45l0,.08c.06-.08,0-.2,0-.29a.35.35,0,0,0-.12-.32c-.15-.12-.32-.09-.38-.31a1.08,1.08,0,0,1,.08-.56c0-.09-.13-.08-.17-.07-.43.09-.31-.45-.56-.59a.34.34,0,0,0-.41.07c-.11.12.15.15.23.07a1.75,1.75,0,0,0,.11.35.49.49,0,0,0,.16.19.64.64,0,0,0,.52.08l-.16-.07c-.08.24-.17.58,0,.8s.32.13.39.26a2.28,2.28,0,0,1,0,.37.08.08,0,0,0,0,.09c.12.07.31.18.33.34s0,.14,0,.2.17.08.23.16,0,.17.06.23.07.09.1.15,0,.19,0,.33a.19.19,0,0,0,0,.08s.07,0,.08.07,0,0,0,0a.14.14,0,0,0,0,.06.18.18,0,0,0,.08.14c.08.09.12.11.13.23a.29.29,0,0,1,0,.24c-.07,0-.16,0-.24.12s0,.1,0,.12.34.12.31.29-.16.14-.23.19-.24.12-.26.22,0,.16.12.21a.59.59,0,0,0,.14.06.28.28,0,0,1,.19.13.34.34,0,0,1-.28.26c-.17,0-.12.22,0,.17Z"/><path class="cls-47" d="M115.31,31.3c-.06-.13-.32-.74-.38-.86a.32.32,0,0,1-.45-.17c0-.09,0-.21-.1-.24s-.17,0-.27.07-.31-.29-.52-.32-.25.09-.38.08-.29-.29-.48-.33-.27.07-.41.06c-.3,0-.49-.41-.78-.35-.1,0-.19.12-.3.14s.05-.24-.15-.23-.27.23-.44.29-.57-.34-.81-.17-.14.21-.24.29-.59-.14-.85,0-.21.22-.34.27-.45-.16-.67-.09-.26.28-.44.31.15-.19,0-.18-.32.28-.52.37a1.13,1.13,0,0,1-.55,0c-.18,0-.48.42-.45.6"/><path class="cls-43" d="M115.45,31.26c-.13-.28-.25-.58-.38-.86,0-.06-.15,0-.19,0-.23.09-.26-.38-.44-.43s-.1,0-.16,0l-.13.05a.48.48,0,0,1-.2-.14c-.12-.1-.18-.16-.33-.16s-.27.09-.45,0-.13-.16-.22-.21c-.25-.13-.52,0-.8-.1s-.25-.22-.44-.23-.29.1-.4.07,0-.14-.14-.16-.25.09-.37.14a.48.48,0,0,1-.49,0,1.43,1.43,0,0,0-.22-.08.51.51,0,0,0-.34.07c-.08.05-.12.18-.2.23s-.29,0-.45,0a.67.67,0,0,0-.44.05s-.08.07-.13.09a.67.67,0,0,1-.48.07.85.85,0,0,0-.39,0,.73.73,0,0,0-.23.16c-.07.08,0,.09.06,0s0,0,0,0a.47.47,0,0,0-.33.05c-.09,0-.14.12-.22.16a1.37,1.37,0,0,1-.63.16.77.77,0,0,0-.63.7c0,.06.28,0,.28-.08a.48.48,0,0,1,.5-.47,1,1,0,0,0,.39,0,.65.65,0,0,0,.23-.15c.12-.11.12-.24.06-.08s0,0,0,0a.48.48,0,0,0,.33-.08.82.82,0,0,1,.52-.15,1.43,1.43,0,0,0,.22,0,.71.71,0,0,0,.39-.14c.3-.16.51,0,.82-.09a.58.58,0,0,0,.28-.12c.22-.18.1-.26.41-.15a2.29,2.29,0,0,0,.23.1.56.56,0,0,0,.36,0,2.56,2.56,0,0,0,.22-.16c.14,0,0,0,.09.09a.05.05,0,0,0,0,0c.17,0,.31-.07.48-.06s.4.26.66.29a1.2,1.2,0,0,0,.2,0c.3,0,.3.06.48.19a.49.49,0,0,0,.41.08c.33,0,.28.09.52.21s.21,0,.32,0,.14,0,.17.07a.26.26,0,0,0,.07.19.27.27,0,0,0,.11.1.55.55,0,0,0,.47,0h-.19l.38.87c0,.07.31,0,.28-.08Z"/><path class="cls-48" d="M112.09,30.26a3.18,3.18,0,0,1,2.35,1.33l-6.38-.78a5.38,5.38,0,0,1,1.25-.41A6.87,6.87,0,0,1,112.09,30.26Z"/><path class="cls-43" d="M112,30.32a3.13,3.13,0,0,1,2.31,1.32l.22-.12-5.59-.68-.8-.1,0,.12a7.21,7.21,0,0,1,3.89-.54c.07,0,.32-.11.17-.13a7.63,7.63,0,0,0-4.16.58c-.05,0-.15.09,0,.11l5.59.68.79.1s.29-.05.22-.12a3.88,3.88,0,0,0-1-.94,4.29,4.29,0,0,0-1.36-.41C112.1,30.18,111.85,30.3,112,30.32Z"/><path class="cls-48" d="M103.59,32.18s0,0,.07-.06.19-.34,0-.4c.31.05.41-.49.72-.55a2.43,2.43,0,0,1,.27,0,.42.42,0,0,0,.37-.5,1,1,0,0,0,.76-.08l2.24.22c-.88.39-1.74.94-2.6,1.24a3.91,3.91,0,0,0-1.17.59c-.25.2-.58.36-.83.57C103.5,32.87,103.54,32.53,103.59,32.18Z"/><path class="cls-43" d="M103.7,32.21c.17-.13.35-.41.11-.56l-.16.15a.56.56,0,0,0,.39-.13c.13-.12.22-.36.4-.41s.22,0,.33,0a.49.49,0,0,0,.23-.11.48.48,0,0,0,.2-.48l-.23.11a1.27,1.27,0,0,0,.67,0s.23-.09.13-.08h.07l.73.07,1.43.14v-.14c-.85.39-1.64.89-2.52,1.22a4.66,4.66,0,0,0-1.09.49l-.53.38a4.59,4.59,0,0,0-.51.35h.25c0-.34.08-.68.13-1,0-.11-.27-.06-.28,0,0,.34-.09.69-.13,1,0,.12.21,0,.25,0a4.24,4.24,0,0,1,.56-.38c.17-.11.32-.25.5-.36a6.42,6.42,0,0,1,1.11-.48c.82-.32,1.57-.79,2.37-1.15.09,0,.12-.13,0-.14l-1.34-.13-.75-.07-.15,0a.49.49,0,0,0-.17.06.89.89,0,0,1-.56,0c-.06,0-.24,0-.22.11a.33.33,0,0,1-.06.29c-.12.13-.2.08-.32.08a.59.59,0,0,0-.31.09.8.8,0,0,0-.21.2c-.06.07-.16.28-.27.27s-.27.07-.16.14,0,.31-.11.38,0,.08,0,.1S103.65,32.24,103.7,32.21Z"/><path class="cls-46" d="M106.38,45.84a2.65,2.65,0,0,0,.49.71c-.1.06,0,.2.07.26s.22.11.22.22,0,.07,0,.11.15.16.27.16c-.06.08,0,.19.12.23s.2.1.2.2,0,.1,0,.14.19.07.26.14,0,.11.07.16a.19.19,0,0,0,.3,0c.07.2.21.44.41.38s.22-.18.34-.15.13.1.2.13c.26.09.43-.43.68-.34s.18.26.32.28.22-.15.35-.2.31.07.43,0a.54.54,0,0,0,.1-.16c.09-.12.23,0,.38,0s.25-.15.25-.15c0-.19.13-.2.31-.14a.41.41,0,0,0,.19,0c.15,0,.17-.29.32-.3a.51.51,0,0,1,.17,0,.26.26,0,0,0,.24-.4.44.44,0,0,0,.31-.54.4.4,0,0,0,.41-.44.38.38,0,0,0,.32-.56.31.31,0,0,0,.33-.36c0-.1-.09-.21,0-.28s.12,0,.18,0a.26.26,0,0,0,.14-.38.34.34,0,0,0,.22-.56.26.26,0,0,0,.17-.44.41.41,0,0,0,.18-.66l-2.45,3.87-.72.53a15.7,15.7,0,0,1-3.39.74C108.12,48,106.38,45.84,106.38,45.84Z"/><path class="cls-43" d="M106.24,45.88c.11.21.3.4.4.61a2.05,2.05,0,0,0,.08.28c0,.06.15.08.19.14s.06.27.22.41.1,0,.14.09a.41.41,0,0,0,.06.11c.12.14.16.07.25.31,0,.07,0,.06,0,.13s.07,0,.1,0,.13.15.2.21a.4.4,0,0,0,.54,0l-.25,0c.14.34.29.44.63.36l.11,0a.17.17,0,0,1,.22,0l.12,0a.46.46,0,0,0,.26-.07c.09,0,.14-.12.22-.17s.08,0,.26.07.12.11.24.11.2-.09.33-.14.36,0,.53-.11.14-.13.32-.12a.8.8,0,0,0,.34-.05c.08,0,.1-.13.15-.17s.19,0,.34,0a.56.56,0,0,0,.27-.15.26.26,0,0,0,0-.15l.22,0c.25,0,.49-.24.36-.5l-.09.07a.51.51,0,0,0,.4-.61l-.2.1c.32,0,.6-.17.61-.53l-.2.09c.33,0,.69-.27.52-.66l-.2.1c.34,0,.52-.16.51-.51s.07-.15.23-.28a.29.29,0,0,0,.09-.37l-.17.09c.32-.05.64-.35.38-.67l-.16.1c.25-.05.55-.25.34-.53l-.09.07c.31-.13.49-.44.26-.74-.05-.06-.24,0-.27.07l-1.08,1.71c-.44.69-.83,1.44-1.32,2.09a7.49,7.49,0,0,1-.67.53c-.09.07,0,0,0,0a.38.38,0,0,1-.1,0l-.54.16c-.55.16-1.1.31-1.66.42a1.5,1.5,0,0,1-1.23,0,10.58,10.58,0,0,1-2-2.09c-.05,0-.31.05-.27.1a12.49,12.49,0,0,0,2,2c.71.53,1.82.06,2.58-.14a11.82,11.82,0,0,0,1.29-.37,2.87,2.87,0,0,0,.78-.52,1.59,1.59,0,0,0,.33-.43l.78-1.23,1.45-2.31-.26.08a.37.37,0,0,1-.1.57s-.11,0-.09.07.14.33,0,.36-.21,0-.16.1.14.43-.07.46c0,0-.18,0-.16.09.15.33-.17.25-.29.38s.09.58-.14.59c0,0-.23,0-.2.1s.08.44-.12.47c0,0-.2,0-.2.09a.29.29,0,0,1-.21.34s-.21,0-.2.1a.39.39,0,0,1-.22.47s-.11,0-.09.07c.19.35-.27.22-.44.35s-.1.16-.27.17-.17,0-.26,0a.45.45,0,0,0-.22.13c-.14.15,0,.15-.24.13s-.27.06-.45.16-.2,0-.35.07-.17.11-.24.11-.25-.18-.41-.2a.49.49,0,0,0-.21,0,.7.7,0,0,0-.23.15c-.2.17-.16.06-.39,0a.58.58,0,0,0-.26,0c-.06,0-.1.07-.16.07s-.23-.19-.28-.33-.21,0-.25,0c.16-.1-.37-.35-.38-.36.16.23-.08-.36,0-.23-.07-.13-.34-.11-.29-.33,0,0,0,0,0,0-.4-.05-.11-.22-.25-.35s-.36-.18-.25-.36a0,0,0,0,0,0,0,3.75,3.75,0,0,1-.49-.69C106.48,45.73,106.21,45.83,106.24,45.88Z"/><path class="cls-49" d="M115.06,37.8c-.34-.22-.1-.83-.39-1.11-.07-.07-.16-.11-.21-.19s0-.54-.17-.75-.18-.16-.24-.26,0-.46,0-.67-.41-.39-.37-.64.14-.21.16-.34-.25-.43-.13-.6.12-.1.15-.17-.11-.25-.2-.37a1.67,1.67,0,0,1-.13-.45c0-.15-.22-.28-.35-.19,0-.26-.25-.88-.49-.8s-.27.14-.36,0,0-.18-.09-.25-.42.19-.63.09c-.06,0-.09-.08-.15-.12a.39.39,0,0,0-.4,0,1.11,1.11,0,0,1-.39.16c-.14,0-.29-.15-.23-.27a1.26,1.26,0,0,1-.42.27.39.39,0,0,1-.44-.15.33.33,0,0,1-.51.25c-.07-.06-.14-.16-.23-.15a.17.17,0,0,0-.11.06c-.15.12-.26.67-.32.85l-.14-1,2.75-1,2.63.91,1.48,2.77L115,38"/><path class="cls-43" d="M115.19,37.75c-.26-.21-.17-.55-.25-.84s-.37-.38-.43-.67,0-.33-.06-.49-.25-.23-.3-.4,0-.34,0-.51a.78.78,0,0,0-.21-.35.36.36,0,0,1-.09-.5.45.45,0,0,0,.06-.32c-.06-.26-.17-.25-.05-.52s.14-.1.07-.27-.19-.23-.24-.38,0-.27-.12-.38a.37.37,0,0,0-.49-.09h.19c0-.25-.13-.71-.41-.8-.1,0-.17,0-.27,0s-.14,0-.22-.13,0-.1-.11-.14a.39.39,0,0,0-.26,0s-.1.05-.14.06-.21,0-.36-.08a.71.71,0,0,0-.29,0c-.19,0-.72.31-.68,0,0-.06-.24,0-.27.05a.46.46,0,0,1-.59.07c0-.06-.27,0-.28.08,0,.37-.37,0-.53,0a.61.61,0,0,0-.29.11c-.23.19-.27.61-.35.88l.28-.06-.14-1-.09.07c.88-.32,1.78-.59,2.63-.95l.12,0s-.15,0-.15,0H111a2.26,2.26,0,0,0,.63.23l1.63.56c.33.11.29.13.47.47l.83,1.54a4.12,4.12,0,0,1,.46.85,5.18,5.18,0,0,1,0,1l-.09,3.24s.28,0,.28-.08l.08-2.88a9.85,9.85,0,0,0,0-1.33,2.34,2.34,0,0,0-.35-.73L114,31.41c-.13-.24-.18-.47-.43-.55L112,30.3c-.28-.1-.7-.35-1-.29a11,11,0,0,0-1.36.49l-1.42.51s-.09,0-.09.06l.14,1s.26,0,.28-.07a2.17,2.17,0,0,1,.2-.67c.13-.16.2,0,.39.05a.52.52,0,0,0,.58-.4l-.28.08c.31.39.84.08,1.12-.17l-.26,0c0,.4.44.28.65.2s.2-.17.38-.1.1.1.16.13a.55.55,0,0,0,.31,0l.19-.08c.07-.07.12,0,.15.07a.28.28,0,0,0,0,.13.27.27,0,0,0,.27.09c.22,0,.28-.1.44.14a1,1,0,0,1,.16.57s.18,0,.19,0,.2.36.21.43a1,1,0,0,0,.21.37c.17.24-.17.34-.07.63s.15.26.09.44-.13.18-.13.3c0,.29.37.42.39.71s-.06.3,0,.45.13.19.21.28c.22.26,0,.59.24.85s.23.17.31.31a1.09,1.09,0,0,1,.07.35.8.8,0,0,0,.23.63s.3-.06.26-.09Z"/><path class="cls-46" d="M115.48,39.63l-.24.08h-.07c-.06,0,0-.11,0-.18a.72.72,0,0,0-.19-.39.4.4,0,0,1-.1-.41c0-.07.12-.12.11-.2s-.14-.13-.23-.19a.25.25,0,0,1,0-.4.73.73,0,0,1-.24-.55c0-.39,0-.82,0-.82l.5-.44Z"/><path class="cls-43" d="M115.43,39.59a.64.64,0,0,1-.18.06s0-.11,0-.1a.51.51,0,0,0-.05-.25c-.11-.19-.35-.38-.21-.61s.13-.23,0-.32-.15-.07-.19-.15a.23.23,0,0,1,.07-.26s0,0,0-.06a.69.69,0,0,1-.22-.42,4.94,4.94,0,0,1,0-.86v-.08c0,.05,0,0,0,0l.17-.15.3-.26-.27,0,.39,3,.06.44c0,.06.29,0,.28-.08l-.39-3-.06-.45c0-.08-.24,0-.26,0l-.33.29c-.1.08-.18.12-.19.24a4.51,4.51,0,0,0,0,.9.71.71,0,0,0,.23.42l0-.06a.29.29,0,0,0-.06.46c.07.05.24.08.22.2s-.08.11-.1.16a.26.26,0,0,0,0,.17,1,1,0,0,0,.22.4.62.62,0,0,1,.08.33c0,.25.43.05.55,0s.11,0,.08-.09S115.46,39.58,115.43,39.59Z"/><path class="cls-49" d="M104.17,32.54c0,.07,0,.15-.13.18s-.19.07-.19.16.05.09.05.15-.33.09-.38.25.12.25,0,.35-.11,0-.17.06a.26.26,0,0,0-.17.23.54.54,0,0,1,0,.22c0,.09-.13.12-.21.18s-.18.43-.14.67a.86.86,0,0,1,0,.69c-.2-.1,0-.29,0-.49A1,1,0,0,0,103,35a.16.16,0,0,0,0-.18s-.07,0-.09,0,.09-.13.16-.2,0-.22-.1-.3-.2-.18-.16-.29.17-.14.2-.24-.06-.22-.06-.34.19-.24.34-.29a.24.24,0,0,1,0-.39c.06,0,.13,0,.16-.1s0-.19,0-.27.16,0,.21-.09-.07-.24,0-.35.37-.17.32-.33"/><path class="cls-43" d="M104,32.57c0,.1-.28.18-.31.28s.07.18,0,.23-.15,0-.18.05a.27.27,0,0,0-.2.23c0,.06.1.2.06.25s-.16.06-.2.09a.3.3,0,0,0-.11.14c0,.08,0,.14,0,.23s-.26.24-.33.41c-.17.39.18.84-.06,1.2l.24-.06c-.24-.16.23-.53.17-.75a.31.31,0,0,0-.07-.09c0-.05-.08,0,0-.09s.09-.06.11-.09a.2.2,0,0,0,0-.13c0-.1-.09-.19-.16-.26s-.17-.14-.11-.25.08-.07.11-.1a.23.23,0,0,0,.08-.25c0-.06,0-.11,0-.17s.09-.2.21-.24.16-.07.11-.12a.19.19,0,0,1,0-.3c.06-.05.15-.06.19-.13s0-.21,0-.25.16,0,.21-.11a.19.19,0,0,0,0-.19c0-.13-.09-.18,0-.27s.25-.11.23-.27-.3,0-.28.08-.29.18-.32.3,0,.17.06.26,0,0-.07.07a.26.26,0,0,0-.11.07c-.08.06,0,.11-.06.2s-.08.13-.16.21a.3.3,0,0,0,0,.44l.11-.13c-.25.08-.52.21-.43.51,0,.12.06.2,0,.29a.29.29,0,0,0-.11.11c-.08.14,0,.26.12.35s.18.18.09.3-.1.06-.13.11.13.15.15.26-.18.34-.22.48a.22.22,0,0,0,.1.28.21.21,0,0,0,.24-.06c.25-.37,0-.76.05-1.15,0-.21.28-.22.35-.4s0-.2,0-.29.16-.1.24-.15.09-.19,0-.32,0-.13.12-.16l.16-.07c.16-.12,0-.26.12-.36s.29-.11.23-.29-.3,0-.27.07Z"/><path class="cls-50" d="M115.51,38.12l-.09-.33-3.62-.15h0A4.91,4.91,0,0,0,108,39.08l-.86.25v0a4.33,4.33,0,0,0-4.06.7l.07.13h0a.14.14,0,0,1,0,0l.06.11a5.47,5.47,0,0,0,1,1.6,2.07,2.07,0,0,0,1.06,0l.38-.06c.11,0,1.14-.24,1.28-.44a7.4,7.4,0,0,0,.13-1.84l.89-.26c.18.26.71,1.46,1.2,1.61a5.1,5.1,0,0,0,2.84-.85,7.77,7.77,0,0,0,.33-1.59l.06-.58Zm-8.6,3.19a5.33,5.33,0,0,1-2.51.45,6.4,6.4,0,0,1-1-1.54h0a4.12,4.12,0,0,1,3.61-.6,7.87,7.87,0,0,1-.11,1.7Zm4.9-1.28a4.72,4.72,0,0,1-2.5.72c-.35-.11-.76-1-1-1.47a5.35,5.35,0,0,1,3.94-1.34,6.58,6.58,0,0,1-.41,2.09Z"/><path class="cls-51" d="M108.52,43.71a6.55,6.55,0,0,1,2.6,0,4.65,4.65,0,0,1-2.19,1.06c-1.55.38-1.93-.06-1.93-.06A3.35,3.35,0,0,1,108.52,43.71Z"/><path class="cls-52" d="M110.42,43.63s-.81.13-1.44.29-1.42.41-1.42.41-.21-.43.94-.71A3.51,3.51,0,0,1,110.42,43.63Z"/><path class="cls-53" d="M108.88,44.61a11.35,11.35,0,0,1,2.24-.86s0,1-1.84,1.41-2.28-.41-2.28-.41A6.85,6.85,0,0,1,108.88,44.61Z"/><path class="cls-53" d="M107.65,43.57a3.86,3.86,0,0,1,.82-.09,3.78,3.78,0,0,1,.76-.3c.37-.06,2.08.39,1.94.54a24,24,0,0,0-2.62.11c-1.15.28-1.41,1-1.61.92S107.3,43.68,107.65,43.57Z"/><path class="cls-43" d="M111.22,43c.13.07.28.15.32.29a.44.44,0,0,1,0,.16v.3a.1.1,0,0,1,0,0,.43.43,0,0,1-.16.05.12.12,0,0,1-.14-.08.1.1,0,0,0,0-.07s-.08,0-.13,0-.17-.14-.25-.23a.59.59,0,0,0-.42-.19l-.24,0A.22.22,0,0,1,110,43"/><path class="cls-43" d="M106.36,44.13a.58.58,0,0,0-.15.41.94.94,0,0,0,.06.15l.11.22,0,0h.06a.52.52,0,0,0,.17,0,.14.14,0,0,0,.08-.14s0,0,0-.07.06-.06.1-.08.09-.2.11-.32a.59.59,0,0,1,.28-.36,1.43,1.43,0,0,0,.2-.14.26.26,0,0,0,.07-.22"/><path class="cls-43" d="M111.21,42.74a.49.49,0,0,0-.31-.11s-.13,0-.17,0-.07-.08-.09-.09a.36.36,0,0,0-.3-.06l-.16.07-.06.05s0,0,0,0,0,0,0,0a.45.45,0,0,0-.28-.06.33.33,0,0,0-.16.07l-.05,0c-.06.08,0,0,0,0l-.15-.09a.29.29,0,0,0-.16,0,.38.38,0,0,0-.17,0l-.08,0,0,0s0,0,0,0-.33,0-.26.11a.31.31,0,0,0,.31,0l.13-.07,0,0s0,0,0,0,0,0,.07.05a.37.37,0,0,0,.32,0,.27.27,0,0,0,.14-.07l.06-.06-.08,0h0a.39.39,0,0,0,.3,0,.35.35,0,0,0,.14-.06.22.22,0,0,0,.07-.06l0,0s-.05,0,0,0,.05,0,.07.05l.06.06a.31.31,0,0,0,.12.05,1,1,0,0,0,.17,0,.24.24,0,0,1,.18.07c.07.06.33-.05.26-.11Z"/><path class="cls-43" d="M107.94,43a.41.41,0,0,0-.3.1s-.1.12-.16.13a.39.39,0,0,0-.18.06s-.12.11-.1.13.11,0,0,0l-.08,0a.41.41,0,0,0-.19,0c-.12,0-.15.12-.19.23s0,0,0,0h0a.33.33,0,0,0-.17,0,.24.24,0,0,0-.13.09.16.16,0,0,0,0,.07s0,.07,0,.08l0,0h0l-.06,0a.13.13,0,0,0-.06.13c0,.07.12.06.16,0a.13.13,0,0,0,.12-.12h0l0,0h0l0,0a.19.19,0,0,0,.1-.12s0,0,0-.07,0,0,0,0h.08a.36.36,0,0,0,.28-.15s0-.07,0-.11v0c-.08,0-.1,0-.06,0h0a.42.42,0,0,0,.31,0,.29.29,0,0,0,.12-.1l0-.06s-.06,0,0,0a.42.42,0,0,0,.26-.12l.08-.08,0,0h0a.2.2,0,0,0,.19-.08c0-.06,0-.1-.09-.11Z"/><path class="cls-43" d="M108.71,43l.17.36a.15.15,0,0,0,.14.08c.41,0,2-.24,2.33-.33,0,0,0,.15,0,.15l.08,0c.13-.06-.09-.48-.23-.5a7.2,7.2,0,0,0-1-.06,8.46,8.46,0,0,0-1.39.13A.14.14,0,0,0,108.71,43Z"/><path class="cls-43" d="M108.25,43.16l.08.35a.15.15,0,0,1-.08.14c-.36.15-1.52.66-1.86.74h-.13c-.13,0-.13-.29,0-.37a6.59,6.59,0,0,1,.72-.5,7.4,7.4,0,0,1,1.14-.5A.13.13,0,0,1,108.25,43.16Z"/></g><g id="Layer_7" data-name="Layer 7"><g class="cls-54"><rect class="cls-7" x="2.9" y="150.94" width="4.03" height="49.27"/><polygon class="cls-4" points="-254.03 139.84 -353.18 208.02 112.95 208.02 6 139.84 -254.03 139.84"/><g class="cls-55"><line class="cls-56" x1="122.34" y1="127.84" x2="122.34" y2="234.01"/><line class="cls-56" x1="115.78" y1="127.84" x2="115.78" y2="234.01"/><line class="cls-56" x1="109.5" y1="127.84" x2="109.5" y2="234.01"/><line class="cls-56" x1="102.95" y1="127.84" x2="102.95" y2="234.01"/><line class="cls-56" x1="96.22" y1="127.84" x2="96.22" y2="234.01"/><line class="cls-56" x1="89.66" y1="127.84" x2="89.66" y2="234.01"/><line class="cls-56" x1="83.38" y1="127.84" x2="83.38" y2="234.01"/><line class="cls-56" x1="76.82" y1="127.84" x2="76.82" y2="234.01"/><line class="cls-56" x1="70.95" y1="127.84" x2="70.95" y2="234.01"/><line class="cls-56" x1="64.39" y1="127.84" x2="64.39" y2="234.01"/><line class="cls-56" x1="58.11" y1="127.84" x2="58.11" y2="234.01"/><line class="cls-56" x1="51.55" y1="127.84" x2="51.55" y2="234.01"/><line class="cls-56" x1="44.82" y1="127.84" x2="44.82" y2="234.01"/><line class="cls-56" x1="38.27" y1="127.84" x2="38.27" y2="234.01"/><line class="cls-56" x1="31.98" y1="127.84" x2="31.98" y2="234.01"/><line class="cls-56" x1="25.43" y1="127.84" x2="25.43" y2="234.01"/><line class="cls-56" x1="25.43" y1="127.84" x2="25.43" y2="234.01"/><line class="cls-56" x1="18.87" y1="127.84" x2="18.87" y2="234.01"/><line class="cls-56" x1="12.59" y1="127.84" x2="12.59" y2="234.01"/><line class="cls-56" x1="6.03" y1="127.84" x2="6.03" y2="234.01"/></g></g></g><g id="Layer_8" data-name="Layer 8"><path class="cls-57" d="M41.66,110.08s-2.15,16.77-13.16,28.1l-11,11.34a47.51,47.51,0,0,0,5.28-3.87l3.3-2.71s-4,6.06-5.9,7.17,4.71-1.08,6.87-5-3.23,5.9-4.68,7.51,3.38-1,6.35-2.12,4.05-1.6,4.05-1.6l1.89-2.62S31,152.56,30.3,153s5.87-1.34,8.8-5.91,4.82-8.55,4.48-16.23.88-20.36,2.11-25.22,3-11.52,3-11.52l1.19-3.86-3.38-.48Z"/><path class="cls-58" d="M40.67,114.53S38,129,35.72,134.12,33.56,143.71,24.58,150"/><path class="cls-58" d="M43.52,110.45s-1,13.85-10.5,32.92a19.48,19.48,0,0,1-4.9,6.13"/><path class="cls-58" d="M40.85,131.28s-4.64,9.78-7,13.52c-3.58,5.58-4.66,5.24-4.66,5.24"/><path class="cls-58" d="M43.1,122.44s1,7.51-3.88,17.2c-2,3.88-4.75,7.73-6.2,8.87,0,0,3-2.51,6.49-12.85a138.61,138.61,0,0,0,5.05-22.42l-2.62-.41,2.24-1-1.71-.4,2-1.07L42.69,110l2-.67-1.93-1.21,1.9-.1L43,106.89l2-.67-1.75-.92,3-1.94-2,10.35-3.43.5,2.77-12.39,2.7,1.36.46-1.8-2.2-.6,2.59-.9"/><path class="cls-58" d="M32.25,150.57s5.52-4.61,7.53-9.27,4.28-10,3.47-14.12"/><path class="cls-58" d="M43,133.21s.3,5.82-5.08,13.13c-2.49,3.38-7.48,6.53-7.48,6.53"/><path class="cls-58" d="M26,146.53S31.67,140,32.93,138s4.88-10.53,4.88-10.53"/><path class="cls-58" d="M25.83,143.28s5-3.82,7.35-8.48,5.19-9.59,5.19-9.59"/><polyline class="cls-58" points="49.84 90.3 48.21 96.06 45.97 94.44 48.37 93.92 46.58 93.45 48.28 92.76 46.76 92.27 48.58 91.48 47.14 91.08 49.35 90.37 46.46 89.82 45.09 95.62 47.99 96.04"/><polygon class="cls-58" points="48.39 94.65 45.48 96.5 47.04 97.47 44.88 98.12 45.96 99.16 44.42 98.44 44.82 96.75 45.17 95.29 48.21 96.06 46.78 101.39 43.9 100.65 44.42 98.44 46.64 100.93 47.17 98.89 47.17 98.37 45.38 97.33 47.8 96.64 48.39 94.65"/><polyline class="cls-58" points="42.66 104.81 45.3 105.07 43.5 103.04 46.18 102.13 43.65 101.69 43.98 100.31 46.18 98.88 43.92 101.14"/></g></svg>