<svg id="Layer_1" data-name="Layer 1" xmlns="http://www.w3.org/2000/svg" xmlns:xlink="http://www.w3.org/1999/xlink" viewBox="0 0 165.86 165.86"><defs><style>.cls-1,.cls-12,.cls-16{fill:none;}.cls-2{fill:#e3f3f7;}.cls-3{fill:#9db064;}.cls-4{fill:#baaf93;}.cls-5{fill:#9e9d9e;}.cls-6{fill:#6a645d;}.cls-7{fill:#e2dcc7;}.cls-8{fill:#6a4b21;}.cls-9{fill:#110f0e;}.cls-10{fill:#727373;}.cls-11{clip-path:url(#clip-path);}.cls-12,.cls-16{stroke:#7f7f7f;stroke-miterlimit:10;}.cls-12{stroke-width:0.28px;}.cls-13{fill:#828282;}.cls-14{clip-path:url(#clip-path-2);}.cls-15{clip-path:url(#clip-path-3);}.cls-16{stroke-width:1.11px;}</style><clipPath id="clip-path"><polygon class="cls-1" points="41.15 44.52 9.64 66.19 157.81 66.19 123.81 44.52 41.15 44.52"/></clipPath><clipPath id="clip-path-2"><rect class="cls-1" x="-0.13" y="259.55" width="166.13" height="165.79"/></clipPath><clipPath id="clip-path-3"><polygon class="cls-1" points="-79.07 140.92 -203.52 226.51 381.6 226.51 247.35 140.92 -79.07 140.92"/></clipPath></defs><path class="cls-2" d="M162.61,83.79c.87,15.86-.47,30.22-3.81,34.43-5.79,7.28-39.48,9.45-74.73,9.45-34.36,0-68-6.08-74.22-9.45C4.7,115.44,4,102.82,3.8,95.4,2.25,44.7,40.7,25.3,84.07,25.3S160.66,48.09,162.61,83.79Z"/><path class="cls-3" d="M16.65,115.44c-2.07-.26-4.25-.5-6.18.33s-3.4,3.11-2.62,5.08c.59,1.46,2.15,2.23,3.64,2.67,6.21,1.82,12.87,0,19.31.62,7.42.67,14.17,3.48,21,6.56,11.11,5,27.8,6.84,39.26,2.7,5.27-1.9,6-2.79,11.25-4.72,13.68-5,29.07.47,43.3-2.55,0,0,16.36,1.3,14.34-8.13,0,0-.21-2.52-3.73-2.66S16.65,115.44,16.65,115.44Z"/><polygon class="cls-4" points="150.79 112.09 18.17 112.09 15.32 71.33 150.79 71.33 150.79 112.09"/><rect class="cls-5" x="12.08" y="114.18" width="144.17" height="2.32"/><rect class="cls-6" x="18.17" y="110.01" width="129.62" height="4.17"/><path class="cls-7" d="M13.93,68.14v46H67.3V80.84h2.08V77.92s.77-2.39,4.08-2.24V74.52H91.52v1.24s3.79-.39,4,2.36c.2,2.53,0,2.72,0,2.72H97.4v33.27h56.51V81.84H154l0-7.32h0V68.14Zm47.52,10a11,11,0,0,1,0,2.72h1.61v19.48H18.17V79.84h1.69V77.92s.77-2.39,4.08-2.24V74.52H57.45v1.24S61.1,75.38,61.45,78.12Zm87.14-.2v2.92h1.08v19.48h-48V80.84h1.81V77.92s.77-2.39,4.08-2.24V74.52h37v1.16C147.82,75.53,148.59,77.92,148.59,77.92Z"/><rect class="cls-8" x="73.85" y="81.03" width="17.18" height="28.98"/><rect class="cls-8" x="31.9" y="80.8" width="22.72" height="15.66"/><rect class="cls-9" x="32.88" y="81.84" width="20.74" height="13.57"/><rect class="cls-8" x="42.61" y="80.8" width="1.28" height="15.66"/><rect class="cls-8" x="42.61" y="77.27" width="1.28" height="22.72" transform="translate(131.88 45.38) rotate(90)"/><rect class="cls-8" x="112.05" y="80.75" width="22.72" height="15.66"/><rect class="cls-9" x="113.04" y="81.79" width="20.74" height="13.57"/><rect class="cls-8" x="122.77" y="80.75" width="1.28" height="15.66"/><rect class="cls-8" x="122.77" y="77.22" width="1.28" height="22.72" transform="translate(211.99 -34.84) rotate(90)"/><ellipse class="cls-6" cx="76.84" cy="95.27" rx="1.03" ry="0.66"/><polygon class="cls-5" points="41.1 44.64 9.58 66.31 157.75 66.31 123.76 44.64 41.1 44.64"/><rect class="cls-10" x="9.58" y="66.31" width="148.22" height="2.29"/><g class="cls-11"><line class="cls-12" x1="160.74" y1="40.82" x2="160.74" y2="74.57"/><line class="cls-12" x1="158.66" y1="40.82" x2="158.66" y2="74.57"/><line class="cls-12" x1="156.66" y1="40.82" x2="156.66" y2="74.57"/><line class="cls-12" x1="154.57" y1="40.82" x2="154.57" y2="74.57"/><line class="cls-12" x1="152.44" y1="40.82" x2="152.44" y2="74.57"/><line class="cls-12" x1="150.35" y1="40.82" x2="150.35" y2="74.57"/><line class="cls-12" x1="148.35" y1="40.82" x2="148.35" y2="74.57"/><line class="cls-12" x1="146.27" y1="40.82" x2="146.27" y2="74.57"/><line class="cls-12" x1="144.4" y1="40.82" x2="144.4" y2="74.57"/><line class="cls-12" x1="142.32" y1="40.82" x2="142.32" y2="74.57"/><line class="cls-12" x1="140.32" y1="40.82" x2="140.32" y2="74.57"/><line class="cls-12" x1="138.24" y1="40.82" x2="138.24" y2="74.57"/><line class="cls-12" x1="136.1" y1="40.82" x2="136.1" y2="74.57"/><line class="cls-12" x1="134.01" y1="40.82" x2="134.01" y2="74.57"/><line class="cls-12" x1="132.02" y1="40.82" x2="132.02" y2="74.57"/><line class="cls-12" x1="129.93" y1="40.82" x2="129.93" y2="74.57"/><line class="cls-12" x1="129.93" y1="40.82" x2="129.93" y2="74.57"/><line class="cls-12" x1="127.85" y1="40.82" x2="127.85" y2="74.57"/><line class="cls-12" x1="125.85" y1="40.82" x2="125.85" y2="74.57"/><line class="cls-12" x1="123.77" y1="40.82" x2="123.77" y2="74.57"/><line class="cls-12" x1="121.63" y1="40.82" x2="121.63" y2="74.57"/><line class="cls-12" x1="119.54" y1="40.82" x2="119.54" y2="74.57"/><line class="cls-12" x1="117.55" y1="40.82" x2="117.55" y2="74.57"/><line class="cls-12" x1="115.46" y1="40.82" x2="115.46" y2="74.57"/><line class="cls-12" x1="113.6" y1="40.82" x2="113.6" y2="74.57"/><line class="cls-12" x1="111.51" y1="40.82" x2="111.51" y2="74.57"/><line class="cls-12" x1="109.51" y1="40.82" x2="109.51" y2="74.57"/><line class="cls-12" x1="107.43" y1="40.82" x2="107.43" y2="74.57"/><line class="cls-12" x1="105.29" y1="40.82" x2="105.29" y2="74.57"/><line class="cls-12" x1="103.21" y1="40.82" x2="103.21" y2="74.57"/><line class="cls-12" x1="101.21" y1="40.82" x2="101.21" y2="74.57"/><line class="cls-12" x1="99.13" y1="40.82" x2="99.13" y2="74.57"/><line class="cls-12" x1="99.13" y1="40.82" x2="99.13" y2="74.57"/><line class="cls-12" x1="97.04" y1="40.82" x2="97.04" y2="74.57"/><line class="cls-12" x1="95.04" y1="40.82" x2="95.04" y2="74.57"/><line class="cls-12" x1="92.96" y1="40.82" x2="92.96" y2="74.57"/><line class="cls-12" x1="90.82" y1="40.82" x2="90.82" y2="74.57"/><line class="cls-12" x1="88.74" y1="40.82" x2="88.74" y2="74.57"/><line class="cls-12" x1="86.74" y1="40.82" x2="86.74" y2="74.57"/><line class="cls-12" x1="84.66" y1="40.82" x2="84.66" y2="74.57"/><line class="cls-12" x1="82.79" y1="40.82" x2="82.79" y2="74.57"/><line class="cls-12" x1="80.7" y1="40.82" x2="80.7" y2="74.57"/><line class="cls-12" x1="78.71" y1="40.82" x2="78.71" y2="74.57"/><line class="cls-12" x1="76.62" y1="40.82" x2="76.62" y2="74.57"/><line class="cls-12" x1="74.48" y1="40.82" x2="74.48" y2="74.57"/><line class="cls-12" x1="72.4" y1="40.82" x2="72.4" y2="74.57"/><line class="cls-12" x1="70.4" y1="40.82" x2="70.4" y2="74.57"/><line class="cls-12" x1="68.32" y1="40.82" x2="68.32" y2="74.57"/><line class="cls-12" x1="68.32" y1="40.15" x2="68.32" y2="73.9"/><line class="cls-12" x1="66.24" y1="40.15" x2="66.24" y2="73.9"/><line class="cls-12" x1="64.24" y1="40.15" x2="64.24" y2="73.9"/><line class="cls-12" x1="62.15" y1="40.15" x2="62.15" y2="73.9"/><line class="cls-12" x1="60.01" y1="40.15" x2="60.01" y2="73.9"/><line class="cls-12" x1="57.93" y1="40.15" x2="57.93" y2="73.9"/><line class="cls-12" x1="55.93" y1="40.15" x2="55.93" y2="73.9"/><line class="cls-12" x1="53.85" y1="40.15" x2="53.85" y2="73.9"/><line class="cls-12" x1="51.98" y1="40.15" x2="51.98" y2="73.9"/><line class="cls-12" x1="49.9" y1="40.15" x2="49.9" y2="73.9"/><line class="cls-12" x1="47.9" y1="40.15" x2="47.9" y2="73.9"/><line class="cls-12" x1="45.82" y1="40.15" x2="45.82" y2="73.9"/><line class="cls-12" x1="43.68" y1="40.15" x2="43.68" y2="73.9"/><line class="cls-12" x1="41.59" y1="40.15" x2="41.59" y2="73.9"/><line class="cls-12" x1="39.6" y1="40.15" x2="39.6" y2="73.9"/><line class="cls-12" x1="37.51" y1="40.15" x2="37.51" y2="73.9"/><line class="cls-12" x1="37.51" y1="40.15" x2="37.51" y2="73.9"/><line class="cls-12" x1="35.43" y1="40.15" x2="35.43" y2="73.9"/><line class="cls-12" x1="33.43" y1="40.15" x2="33.43" y2="73.9"/><line class="cls-12" x1="31.35" y1="40.15" x2="31.35" y2="73.9"/><line class="cls-12" x1="29.21" y1="40.15" x2="29.21" y2="73.9"/><line class="cls-12" x1="27.12" y1="40.15" x2="27.12" y2="73.9"/><line class="cls-12" x1="25.13" y1="40.15" x2="25.13" y2="73.9"/><line class="cls-12" x1="23.04" y1="40.15" x2="23.04" y2="73.9"/><line class="cls-12" x1="21.17" y1="40.15" x2="21.17" y2="73.9"/><line class="cls-12" x1="19.09" y1="40.15" x2="19.09" y2="73.9"/><line class="cls-12" x1="17.09" y1="40.15" x2="17.09" y2="73.9"/><line class="cls-12" x1="15.01" y1="40.15" x2="15.01" y2="73.9"/><line class="cls-12" x1="12.87" y1="40.15" x2="12.87" y2="73.9"/><line class="cls-12" x1="10.79" y1="40.15" x2="10.79" y2="73.9"/><line class="cls-12" x1="8.79" y1="40.15" x2="8.79" y2="73.9"/><line class="cls-12" x1="6.71" y1="40.15" x2="6.71" y2="73.9"/></g><polygon class="cls-13" points="124.67 45.22 40.25 45.22 41.59 44.07 123.37 44.07 124.67 45.22"/><path class="cls-3" d="M143.62,117.19a7.89,7.89,0,0,0-2.45-4,5.51,5.51,0,0,1,3.29,1.76l-.35-4.65a29,29,0,0,0,1.72,3.66,43,43,0,0,1,1.69-6.12c0,2,0,4-.11,6a4.43,4.43,0,0,1,1.91-2.7,11.76,11.76,0,0,0-.29,3.07,8.74,8.74,0,0,1,2.7-2c.15.54-.34,1-.72,1.43a4.62,4.62,0,0,0-1.19,3.55c0,.14,0,.32-.09.41a.51.51,0,0,1-.25.06l-4.76.19"/><path class="cls-3" d="M18.56,117.65a7.94,7.94,0,0,0-2.45-4,5.47,5.47,0,0,1,3.29,1.77l-.35-4.66a28.41,28.41,0,0,0,1.72,3.66,42,42,0,0,1,1.69-6.12c.05,2,0,4-.11,6a4.38,4.38,0,0,1,1.91-2.69,11.64,11.64,0,0,0-.29,3.06,8.71,8.71,0,0,1,2.7-2c.15.53-.34,1-.72,1.42a4.63,4.63,0,0,0-1.19,3.55c0,.15,0,.32-.09.41a.42.42,0,0,1-.25.06l-4.76.19"/><path class="cls-3" d="M24.27,117.17a9.27,9.27,0,0,0-2.87-4.64,6.47,6.47,0,0,1,3.85,2.06l-.41-5.43a33.25,33.25,0,0,0,2,4.27,48.12,48.12,0,0,1,2-7.14c.06,2.31,0,4.63-.14,6.94a5.2,5.2,0,0,1,2.24-3.14,13.82,13.82,0,0,0-.34,3.57,10.17,10.17,0,0,1,3.15-2.33c.18.62-.4,1.18-.84,1.65a5.41,5.41,0,0,0-1.39,4.15c0,.17,0,.37-.11.47a.49.49,0,0,1-.29.08l-5.55.22"/><g class="cls-14"><polygon class="cls-5" points="-79.28 141.4 -203.73 226.98 381.39 226.98 247.14 141.4 -79.28 141.4"/><g class="cls-15"><line class="cls-16" x1="165.98" y1="126.33" x2="165.98" y2="259.6"/><line class="cls-16" x1="158.09" y1="126.33" x2="158.09" y2="259.6"/><line class="cls-16" x1="149.86" y1="126.33" x2="149.86" y2="259.6"/><line class="cls-16" x1="149.86" y1="126.33" x2="149.86" y2="259.6"/><line class="cls-16" x1="141.64" y1="126.33" x2="141.64" y2="259.6"/><line class="cls-16" x1="133.75" y1="126.33" x2="133.75" y2="259.6"/><line class="cls-16" x1="125.52" y1="126.33" x2="125.52" y2="259.6"/><line class="cls-16" x1="117.07" y1="126.33" x2="117.07" y2="259.6"/><line class="cls-16" x1="108.84" y1="126.33" x2="108.84" y2="259.6"/><line class="cls-16" x1="100.95" y1="126.33" x2="100.95" y2="259.6"/><line class="cls-16" x1="92.72" y1="126.33" x2="92.72" y2="259.6"/><line class="cls-16" x1="85.35" y1="126.33" x2="85.35" y2="259.6"/><line class="cls-16" x1="77.12" y1="126.33" x2="77.12" y2="259.6"/><line class="cls-16" x1="69.23" y1="126.33" x2="69.23" y2="259.6"/><line class="cls-16" x1="61" y1="126.33" x2="61" y2="259.6"/><line class="cls-16" x1="52.56" y1="126.33" x2="52.56" y2="259.6"/><line class="cls-16" x1="44.33" y1="126.33" x2="44.33" y2="259.6"/><line class="cls-16" x1="36.44" y1="126.33" x2="36.44" y2="259.6"/><line class="cls-16" x1="28.21" y1="126.33" x2="28.21" y2="259.6"/><line class="cls-16" x1="28.21" y1="123.68" x2="28.21" y2="256.95"/><line class="cls-16" x1="19.98" y1="123.68" x2="19.98" y2="256.95"/><line class="cls-16" x1="12.09" y1="123.68" x2="12.09" y2="256.95"/><line class="cls-16" x1="3.86" y1="123.68" x2="3.86" y2="256.95"/></g></g></svg>