<svg xmlns="http://www.w3.org/2000/svg" xmlns:xlink="http://www.w3.org/1999/xlink" viewBox="0 0 165.86 165.86"><defs><style>.cls-1,.cls-12,.cls-17,.cls-39{fill:none;}.cls-2{clip-path:url(#clip-path);}.cls-3{fill:#9db064;}.cls-4{clip-path:url(#clip-path-2);}.cls-5{fill:#8b9952;}.cls-6{fill:#baaf93;}.cls-7{fill:#9e9d9e;}.cls-8{fill:#6a645d;}.cls-9{fill:#e2dcc7;}.cls-10{fill:#593d1b;}.cls-11{clip-path:url(#clip-path-3);}.cls-12{stroke:#7f7f7f;stroke-width:0.88px;}.cls-12,.cls-17,.cls-39{stroke-miterlimit:10;}.cls-13{fill:#6a4b21;}.cls-14{fill:#a5704b;}.cls-15{fill:#070808;}.cls-16{fill:#273238;}.cls-17{stroke:#465b65;stroke-width:0.56px;}.cls-18{fill:#e98427;}.cls-19{fill:#b76328;}.cls-20{fill:#c12026;}.cls-21{fill:#7c1317;}.cls-22{fill:#bfbfc1;}.cls-23{fill:#9ed0e3;}.cls-24{fill:#553326;}.cls-25{fill:#825639;}.cls-26{fill:#151210;}.cls-27{fill:#231f20;}.cls-28{fill:#010101;}.cls-29{fill:#161312;}.cls-30{fill:#171514;}.cls-31{fill:#181615;}.cls-32{fill:#191716;}.cls-33{fill:#040404;}.cls-34{fill:#31160e;}.cls-35{fill:#fff;}.cls-36{fill:#653c29;}.cls-37{fill:#cfcfce;}.cls-38{fill:#ceb066;}.cls-39{stroke:#927b46;stroke-width:0.48px;}</style><clipPath id="clip-path"><rect class="cls-1" x="-0.13" y="-216.74" width="166.13" height="165.79"/></clipPath><clipPath id="clip-path-2"><rect class="cls-1" x="0.43" y="-0.35" width="165" height="166.57"/></clipPath><clipPath id="clip-path-3"><polygon class="cls-1" points="-46.13 -85.49 -145.27 -17.31 320.86 -17.31 213.91 -85.49 -46.13 -85.49"/></clipPath></defs><g id="Layer_1" data-name="Layer 1"><g class="cls-2"><path class="cls-3" d="M-175.83-55.31c-8.18-1-16.8-2-24.39,1.3s-13.45,12.31-10.35,20.08c2.31,5.77,8.49,8.82,14.36,10.54,24.54,7.2,50.84.15,76.27,2.46C-90.64-18.28-64-7.18-37.13,5c43.86,19.84,109.78,27,155,10.66C138.69,8.12,141.56,4.6,162.34-3c54-19.79,114.78,1.84,171-10.07,0,0,64.6,5.11,56.62-32.09,0,0-.84-9.95-14.71-10.54S-175.83-55.31-175.83-55.31Z"/></g></g><g id="Layer_7" data-name="Layer 7"><g class="cls-4"><path class="cls-5" d="M-123.2,137.61c-6.52-.8-13.39-1.55-19.43,1s-10.72,9.81-8.25,16c1.84,4.59,6.76,7,11.44,8.39,19.55,5.74,40.5.12,60.76,2,23.34,2.12,44.55,10.95,66,20.64,34.94,15.8,87.45,21.51,123.48,8.49,16.58-6,18.87-8.79,35.42-14.85,43-15.77,91.44,1.47,136.21-8,0,0,51.46,4.08,45.1-25.56,0,0-.67-7.93-11.72-8.39S-123.2,137.61-123.2,137.61Z"/><polygon class="cls-6" points="300.69 127.1 -116.52 127.1 -125.48 -1.13 300.69 -1.13 300.69 127.1"/><rect class="cls-7" x="-137.62" y="130.15" width="453.53" height="7.29"/><rect class="cls-8" x="-118.42" y="118.06" width="407.76" height="15.13"/><path class="cls-9" d="M-131.75-11.17V133.45H36.13V23.08h4.65V12.28S43.2,6.36,53.62,6.85V3.19h60.59v3.9s12.56-1.26,12.6,7.42c0,3.69,0,8.57,0,8.57h4V133.45H308.6V31.93h.16l.13-23h0V-11.17ZM19.64,14.51c-.09,3.55,0,8.57,0,8.57H24.7v67H-118.42V25.64h5.32V19.58s2.42-7.51,12.84-7V3.19H7.05v3.9S19.87,5.83,19.64,14.51Zm272.21,5.07v9.21h3.42V90.05h-153V23.23H146v-10s1-7.76,12.84-7V4.14H279v8.42C289.43,12.07,291.85,19.58,291.85,19.58Z"/><rect class="cls-10" x="57.94" y="19.59" width="52.35" height="98.58"/><ellipse class="cls-8" cx="66.14" cy="74.17" rx="3.23" ry="2.07"/><g class="cls-11"><line class="cls-12" x1="162.38" y1="-97.12" x2="162.38" y2="9.05"/><line class="cls-12" x1="155.65" y1="-97.12" x2="155.65" y2="9.05"/><line class="cls-12" x1="149.09" y1="-97.12" x2="149.09" y2="9.05"/><line class="cls-12" x1="142.81" y1="-97.12" x2="142.81" y2="9.05"/><line class="cls-12" x1="136.25" y1="-97.12" x2="136.25" y2="9.05"/><line class="cls-12" x1="136.25" y1="-97.12" x2="136.25" y2="9.05"/><line class="cls-12" x1="129.7" y1="-97.12" x2="129.7" y2="9.05"/><line class="cls-12" x1="123.41" y1="-97.12" x2="123.41" y2="9.05"/><line class="cls-12" x1="116.86" y1="-97.12" x2="116.86" y2="9.05"/><line class="cls-12" x1="110.13" y1="-97.12" x2="110.13" y2="9.05"/><line class="cls-12" x1="103.57" y1="-97.12" x2="103.57" y2="9.05"/><line class="cls-12" x1="97.29" y1="-97.12" x2="97.29" y2="9.05"/><line class="cls-12" x1="90.73" y1="-97.12" x2="90.73" y2="9.05"/><line class="cls-12" x1="84.86" y1="-97.12" x2="84.86" y2="9.05"/><line class="cls-12" x1="78.3" y1="-97.12" x2="78.3" y2="9.05"/><line class="cls-12" x1="72.02" y1="-97.12" x2="72.02" y2="9.05"/><line class="cls-12" x1="65.46" y1="-97.12" x2="65.46" y2="9.05"/><line class="cls-12" x1="58.73" y1="-97.12" x2="58.73" y2="9.05"/><line class="cls-12" x1="52.18" y1="-97.12" x2="52.18" y2="9.05"/><line class="cls-12" x1="45.89" y1="-97.12" x2="45.89" y2="9.05"/><line class="cls-12" x1="39.34" y1="-97.12" x2="39.34" y2="9.05"/><line class="cls-12" x1="39.34" y1="-99.22" x2="39.34" y2="6.95"/><line class="cls-12" x1="32.78" y1="-99.22" x2="32.78" y2="6.95"/><line class="cls-12" x1="26.5" y1="-99.22" x2="26.5" y2="6.95"/><line class="cls-12" x1="19.94" y1="-99.22" x2="19.94" y2="6.95"/><line class="cls-12" x1="13.21" y1="-99.22" x2="13.21" y2="6.95"/><line class="cls-12" x1="6.66" y1="-99.22" x2="6.66" y2="6.95"/><line class="cls-12" x1="0.37" y1="-99.22" x2="0.37" y2="6.95"/></g><rect class="cls-13" x="60.43" y="22" width="47.57" height="96.19"/></g></g><g id="Layer_8" data-name="Layer 8"><path class="cls-14" d="M119.37,134.68s-.17,7.34-.38,10.8-1.6,2.4-4.27,4.05a18.57,18.57,0,0,1-2.76,1.1,8,8,0,0,0-2.61.61c-.39.37-.7,1.25.38,1.44a39,39,0,0,0,6.2.88c1.43-.1,5.19-.91,6.6-.85s2.3.16,2.64-.51a4.93,4.93,0,0,0-.06-3.51,5.61,5.61,0,0,1-.12-3.86c.42-.83.87-9.81.87-9.81Z"/><path class="cls-15" d="M111.56,150.69a10.23,10.23,0,0,1,1.39-.13,2.39,2.39,0,0,1,1.84.84,4.54,4.54,0,0,1,.34,1.85l1.07,0s-.46-2.16-1.17-2.7A3,3,0,0,0,111.56,150.69Z"/><path class="cls-15" d="M109.71,153.47a13.87,13.87,0,0,1,3.64.19,19.43,19.43,0,0,0,3.73.17c2.88-.14,5.16-.3,8-.47.6,0,.56-.77.18-.76-3.15.11-5.85.38-8.78.52a21.3,21.3,0,0,1-3.83-.22,13.1,13.1,0,0,0-3.59-.12c-.24,0-.14.32,0,.44a.73.73,0,0,0,.66.25Z"/><path class="cls-14" d="M128,135.47s-.17,7.34-.38,10.8-1.6,2.4-4.27,4a18.57,18.57,0,0,1-2.76,1.1A7.71,7.71,0,0,0,118,152c-.39.37-.7,1.24.38,1.44a38.88,38.88,0,0,0,6.2.88c1.43-.1,5.19-.92,6.6-.85s2.3.16,2.64-.52a5,5,0,0,0-.06-3.5,5.58,5.58,0,0,1-.12-3.87c.42-.82.87-9.8.87-9.8Z"/><path class="cls-16" d="M136.6,83.26l.5,3.6A31.6,31.6,0,0,1,137,96L134.11,115s.73,11.69,1.19,18.31a88.82,88.82,0,0,1-.76,14.31l-9.66-.25-5.14-31.26,1-21.49-3.26-10.87Z"/><path class="cls-16" d="M110.38,84.53l0,31.93a13.18,13.18,0,0,0,.79,4.69l6.75,23.11.41,1.53,5.8-1.26L121.3,83.26Z"/><path class="cls-17" d="M124.88,147.4l-5.14-31.26,1-21.49"/><path class="cls-15" d="M118.32,154.26a13.9,13.9,0,0,1,3.64.19,20.27,20.27,0,0,0,3.73.17c2.88-.15,5.16-.3,8-.47.6,0,.56-.77.18-.76-3.15.11-5.85.38-8.78.52a21.3,21.3,0,0,1-3.83-.22,13.1,13.1,0,0,0-3.59-.12c-.24,0-.14.32,0,.44a.75.75,0,0,0,.66.25Z"/><path class="cls-5" d="M6.56,138.87c-1-3.73-2.12-6.39-5-8.92a13.48,13.48,0,0,1,8,4.29l-.85-11.35a67.87,67.87,0,0,0,4.19,8.93A101.65,101.65,0,0,1,17,116.91c.12,4.83,0,9.67-.29,14.49a10.76,10.76,0,0,1,4.68-6.56,28.41,28.41,0,0,0-.72,7.47,21.46,21.46,0,0,1,6.59-4.89c.37,1.31-.84,2.47-1.76,3.47-2.13,2.3-3.45,4.62-3.15,7.74l.05.2Z"/><path class="cls-18" d="M117.58,66.61l-11.27,1.11s-1.08-13.87.7-17.91,4.83-4.93,6.9-4S118,58.59,117.58,66.61Z"/><path class="cls-18" d="M114,45.4c1.5-.53,3.12-.88,3.41-2.39a6.34,6.34,0,0,1,.31-1.84c.58-1,2.49-.41,3.39-.4,1.86,0,5.28,1,7.13,1.36s1.26,1,2.45,2.31c1,3.84,2.11,10.53,2.11,10.53l4.15,27.76c.32.93-2.91,1.58-4.78,2L116.73,87s-4.62-.55-5.2-1.82c-.47-1-1-15-2-20.84-.19-1.07-.7-4.36-1-6.27a18.27,18.27,0,0,1-.22-2.86l0-7.29L112.53,44C113.16,44.62,113,45.74,114,45.4Z"/><path class="cls-14" d="M134,55c1,4.61.76,17,.16,18.44-1.82,4.45-15.52,15.42-15.52,15.42l-3.3-2.11,11.61-16-1.16-16.8"/><path class="cls-14" d="M110.29,67.42c-.42.06-.79,0-1.22.06s-1,.17-1.56.17l.35,5-11.62,16,3.31,2.11a114.47,114.47,0,0,0,11.66-9.64c-.23-5.17-.4-6.33-.64-10.26C110.52,70.06,110.35,68.41,110.29,67.42Z"/><path class="cls-18" d="M136.29,63.21l-11.33,2s-2.74-12.88-2.33-17.28,3-6.23,5.29-6C135.75,43,135.93,59.78,136.29,63.21Z"/><path class="cls-19" d="M123,47.47a6.74,6.74,0,0,1,1.28-3.76,4.08,4.08,0,0,1,2.42-1.62,3.34,3.34,0,0,1,1.14-.05,3.6,3.6,0,0,1,1.74.89.38.38,0,0,1-.1,0,3.5,3.5,0,0,0-4.09.26,9,9,0,0,0-1.57,2.26,6.45,6.45,0,0,0-.44,1.13c0,.18-.08.36-.12.53s-.26.4-.26.47Z"/><path class="cls-14" d="M120.05,42c-.46.64-.85,1.34-1.37,1.95A9.45,9.45,0,0,1,116.11,46c-.87.48-2.51,1.3-3.3.26a3.16,3.16,0,0,1-.51-1.69,20.4,20.4,0,0,0-1-4.28l-.09-.31,8-8.9c0,.05,0,.38,0,.45,0,.44.05.87.09,1.31a29.45,29.45,0,0,0,.82,4.67c.16.62.33,1.22.52,1.82a8.85,8.85,0,0,1,.41,1.08c.08.47-.17.61-.46.92S120.22,41.73,120.05,42Z"/><path class="cls-19" d="M108.31,51.71s-.51,1-.12,6.47c.12,1.75,1.34,9.23,1.34,9.23l.43,0S107.88,56,108.31,51.71"/><path class="cls-20" d="M92.53,95l10.7,1h0l.45,0c1.72.19,3.44.35,5.16.52a1,1,0,0,0,.86-.29l0,0a8.28,8.28,0,0,0,2.32-4.28l.88-4.3a7.45,7.45,0,0,0-.53-4.7l0,0a.85.85,0,0,0-.51-.44c-1.51-.47-3-.94-4.54-1.38-1.8-.53-3.56-1.16-5.36-1.65L98.1,78.21l-.18-.11c-.34-.09-1.27-.42-1.88-.61a1.42,1.42,0,0,0-.9-.79c-1.63-.33-3.26,3.7-4.32,8.86s-1.17,9.52.46,9.85A1.51,1.51,0,0,0,92.53,95Zm4-16.18h0Z"/><path class="cls-21" d="M91.37,94.41c1.14.24,2.83-3.29,3.77-7.88s.79-8.49-.35-8.73-2.55,3.35-3.49,7.94S90.23,94.18,91.37,94.41Z"/><path class="cls-22" d="M103.73,88.33a9.3,9.3,0,0,0-6.49-11,.48.48,0,0,0-.59.36h0a.46.46,0,0,0,.34.54A8.53,8.53,0,0,1,93.55,94.9a.46.46,0,0,0-.52.37h0a.48.48,0,0,0,.4.56A9.3,9.3,0,0,0,103.73,88.33Z"/><path class="cls-21" d="M96,77.49s1.46,3.57.28,9.29S92.53,95,92.53,95s3.11-1.21,4.57-7.75S96,77.49,96,77.49Z"/><path class="cls-19" d="M126.57,64.92l-1.32.24s-2.37-12.4-2.25-14.37c0,0,.76,10.56,2,14.42l.11.22,1.5-.22Z"/><path class="cls-23" d="M93.47,89.37A13.93,13.93,0,0,0,84,96.05a19.12,19.12,0,0,0-2.41,11.47c.16,1.93.56,3.94-.1,5.77-.88,2.4-1.91,2.26-1.15,4.7a3.42,3.42,0,0,0,3.05,2.21A5.87,5.87,0,0,0,87.16,119c.92-.66.09.69.62-.31,1.17-2.17,1-4.82.45-7.23s-1.32-4.8-1.26-7.27c.08-3.73,2.11-7.13,4.35-10.12,1-1.29,2-2.76,1.72-4.34"/><path class="cls-23" d="M90,97.6a11.73,11.73,0,0,0-1.65,6,1.66,1.66,0,0,0,.26,1.11,1.36,1.36,0,0,0,1.57.2,1.46,1.46,0,0,0,.92-1.19A13.92,13.92,0,0,0,91,102a13.32,13.32,0,0,1,.37-3.93c.16-.63-1.36-.42-1.5.16a13.66,13.66,0,0,0-.4,3.19c0,.53,0,1,.08,1.57a6.36,6.36,0,0,1,.08.75,1,1,0,0,1,0,.34c-.09.24-.08,0,.17,0l.36,0c-.36-.07-.22-.92-.21-1.17a16.31,16.31,0,0,1,.22-1.83,9.48,9.48,0,0,1,1.31-3.44c.2-.31-.17-.51-.43-.53a1.12,1.12,0,0,0-1,.43Z"/><path class="cls-23" d="M88,89.42a5.19,5.19,0,0,0-3.66,1.77.72.72,0,0,0-.1.91c.35.41,1.11.21,1.5,0a1.73,1.73,0,0,0,.42-.39l.15-.18,0,0,.1-.1a6.37,6.37,0,0,1,.66-.6l.09-.07c.14-.11-.06,0,0,0a1.64,1.64,0,0,0,.22-.14,4,4,0,0,1,.44-.27l.1-.05c.08,0,0,0,0,0s.16-.07.23-.11l.51-.2c.19-.07.62-.35.4-.6s-.74-.1-1,0a7.25,7.25,0,0,0-1.89,1,7,7,0,0,0-.84.69c-.15.14-.28.29-.42.44l-.15.17s-.1.12,0,.07h0c-.15.13,0,.07.48-.19h.35s.06,0,.08,0,0-.05,0,0,0-.07,0-.13a.4.4,0,0,1,.09-.15c.06-.08,0,0,0,0l.07-.08a3.17,3.17,0,0,1,.34-.3l.09-.07c.08-.06-.08,0,0,0l.21-.14s.15-.11.2-.11-.11.06,0,0l.1-.05.21-.08.11,0s-.14,0,0,0l.22-.06.13,0c.11,0-.14,0,0,0s.31,0,.47-.06.79-.19.85-.5-.45-.33-.64-.32Z"/><path class="cls-23" d="M85.45,122.45a11.51,11.51,0,0,0-1.51,2.23,3.44,3.44,0,0,0-.59,2.18c.25,1,1.7.79,2.23.17a3.13,3.13,0,0,0,.38-2.27,3.41,3.41,0,0,1,.39-2.28c.21-.24.17-.52-.16-.61a1.17,1.17,0,0,0-1.06.28,3,3,0,0,0-.69,1.89c0,.67.06,1.33,0,2a1.46,1.46,0,0,1-.18.73s0,0,0,0,.38-.15.24-.11a.85.85,0,0,1,.38,0s0,0,0,0,0,0,0,0a.09.09,0,0,1,0,0s0-.1,0-.12a2.71,2.71,0,0,1,.46-1.62,10.21,10.21,0,0,1,1.36-2.06c.21-.25.17-.52-.16-.61a1.17,1.17,0,0,0-1.06.28Z"/><path class="cls-23" d="M65.17,137.08a4.62,4.62,0,0,0-2.68.64,1.91,1.91,0,0,0-.86,2.08.6.6,0,0,0,.64.32,3.43,3.43,0,0,0,3-2,.37.37,0,0,0-.13-.48.83.83,0,0,0-.67-.07,4.2,4.2,0,0,0-2.07,1.09.41.41,0,0,0,.18.68,1,1,0,0,0,1-.27h0l.07-.05.16-.13.19-.12s-.12.06,0,0l.1-.05.18-.09.09,0c.12,0-.13,0,0,0l.42-.11-.8-.55a1.68,1.68,0,0,1-.15.3l0,.07c0,.07.06-.09,0,0l-.1.13-.23.25s.1-.09,0,0l-.06.06-.15.1s-.17.12-.07.06,0,0-.08,0L63,139l-.09,0,.07,0-.16,0a.47.47,0,0,1-.16,0s.19,0,.06,0H62.4l.65.32a.66.66,0,0,1-.06-.2.43.43,0,0,0,0-.05c0,.06,0,.07,0,0s0-.06,0-.09a.64.64,0,0,1,0-.2c0-.11,0,0,0,0s0-.1.05-.11l.1-.19c0-.06-.08.1,0,0l.07-.09.07-.07c.1-.11,0,0,0,0l.18-.13c.09-.07-.12.06,0,0l.1,0,.13-.06c.15-.07-.17,0,0,0l.22-.06.14,0-.1,0,.1,0a8.94,8.94,0,0,1,1-.05,1,1,0,0,0,.53-.2.57.57,0,0,0,.25-.37c0-.36-.36-.45-.65-.45Z"/><path class="cls-23" d="M75.86,130.91a9.48,9.48,0,0,1-1.61-.68,2.45,2.45,0,0,0-2.1-.11,1.43,1.43,0,0,0-.78.67.79.79,0,0,0,0,.62c.25.61,1.09.5,1.62.49l2.16,0a1.41,1.41,0,0,0,.84-.28c.13-.12.23-.32,0-.42a6.88,6.88,0,0,0-2.65-.49,1.26,1.26,0,0,0-.94.37c-.19.27.17.37.37.37h.45c.1,0-.14,0,0,0l.55.08a5.77,5.77,0,0,1,1,.31l.85-.69-2,0h-.71l-.09,0c.08,0,0,0,0,0s0,0,0-.05v0a.56.56,0,0,1,0-.23l0-.14,0-.07s0,0,0,0h0s0,0,0,0,.06,0,0,0a.59.59,0,0,1-.19,0h.07c-.15,0,0,0,.09,0l.13,0,.21.09c.28.13.54.29.82.42a9.25,9.25,0,0,0,.88.32,1.3,1.3,0,0,0,1-.15.49.49,0,0,0,.27-.28.18.18,0,0,0-.13-.22Z"/><path class="cls-23" d="M57.73,144.6l1.77.89.85.42c.2.1.62.22.76.41s.06.4.06.56a5.24,5.24,0,0,1-.08.88,4.62,4.62,0,0,1-.58,1.58l-.07.1c0,.09,0,0,.05,0l.34,0h0s-.07,0-.09-.06a.61.61,0,0,1-.08-.57c.17-.52.61-.91.79-1.43A1.8,1.8,0,0,0,60,145a10.09,10.09,0,0,1-1.8-.45c-.35-.18-.67-.62-.46-1s-.15-.58-.44-.62a.88.88,0,0,0-.91.44,1.42,1.42,0,0,0,.26,1.63,3,3,0,0,0,1.81.85,2.34,2.34,0,0,1,1.48.58c.43.5-.06,1.08-.33,1.52a1.71,1.71,0,0,0-.23,1.92,1.37,1.37,0,0,0,1.81.36,3.07,3.07,0,0,0,1.13-1.8,5.81,5.81,0,0,0,.26-2.11,1.15,1.15,0,0,0-.48-.93,7.92,7.92,0,0,0-1.12-.58l-2.45-1.22c-.62-.31-1.62.58-.81,1Z"/><path class="cls-23" d="M66.29,148.84a2.85,2.85,0,0,0-1.2-.07h0c.13,0,0,0,0,0h-.11c-.06,0,.16,0,0,0h-.07l-.15-.09.09.06a1,1,0,0,1-.31-.32l0,.08a1,1,0,0,1-.14-.5v0c0-.31-.39-.32-.6-.29a1.5,1.5,0,0,0-.54.18c-.09.06-.25.16-.27.29a1.25,1.25,0,0,0,.67,1.23,1.7,1.7,0,0,0,.91.16l.34,0H65c.13,0,0,0,0,0s.15,0,.2,0h-.09l.07,0s.14,0,0,0a1.21,1.21,0,0,0,1-.13c.1-.07.25-.17.27-.29a.21.21,0,0,0-.14-.25Z"/><path class="cls-23" d="M84.79,142.3a4.53,4.53,0,0,0,1.75.78,5.33,5.33,0,0,0,1,.09c.16,0,.33,0,.5,0l.15,0c-.08,0,0,0,.06,0a1.08,1.08,0,0,1,.4.37,1.73,1.73,0,0,1,.24.56,2.39,2.39,0,0,1,.08.7,2.46,2.46,0,0,1,0,.28.45.45,0,0,1,0,.16c0,.14-.08.09.08,0-.19.11-.43.39-.13.53a1.18,1.18,0,0,0,1-.14,1,1,0,0,0,.5-.79,3.07,3.07,0,0,0,0-.8,2.1,2.1,0,0,0-.64-1.32,1.68,1.68,0,0,0-.78-.35,8.53,8.53,0,0,0-1.13,0,3.56,3.56,0,0,1-1.69-.64,1,1,0,0,0-.93,0c-.12.05-.64.36-.38.55Z"/><path class="cls-23" d="M89.39,138.27a6,6,0,0,0-4.17-2.51,4.52,4.52,0,0,1-2.52-.61,7,7,0,0,1-.84-1.1,4,4,0,0,0-3.17-1.35,11.69,11.69,0,0,0-3.49.69l-.64-.18a8,8,0,0,0-3,.32,2.7,2.7,0,0,0-1.85,2.19,4.73,4.73,0,0,1,0,.92c-.32,1.17-2,.94-3.19,1.34a3.3,3.3,0,0,0-1.92,2.26,9.81,9.81,0,0,0-.23,3.06,1.56,1.56,0,0,0,.21.88,1.35,1.35,0,0,0,.92.43,10.48,10.48,0,0,0,3.21-.09c.58.63.42,1.7.26,2.59s-.05,2.25.89,2.5c.52.14,1.08-.12,1.6,0,.93.19,1.27,1.36,2.07,1.86,1.46.93,3.84-.65,4.94.68.71.85.22,2.26.88,3.15a1.88,1.88,0,0,0,.85.62c1,.38,2.32,0,2.45-1s-.81-1.63-1.2-2.47a4.69,4.69,0,0,1,.17-3.27,1.8,1.8,0,0,1-2-1.49,4.21,4.21,0,0,1,.53-2.65,4,4,0,0,0,.26-.6,16.26,16.26,0,0,1,4-1.37c1.74-.17,3.8.52,5.06-.69C90.5,141.31,90.22,139.48,89.39,138.27ZM74.7,144.62a4.17,4.17,0,0,1-.77,1.6c-.25.35-.64.72-1,.57s-.42-.73-.35-1.17a6.3,6.3,0,0,0,.12-2.07c-.08-.45-.36-1-.81-1l.67-.18a2.81,2.81,0,0,1,1.75.58A1.79,1.79,0,0,1,74.7,144.62Zm5.42-7.25a.28.28,0,0,1-.18,0,17.66,17.66,0,0,1-2-.36.66.66,0,0,1-.28-.13.58.58,0,0,1-.13-.41,1.19,1.19,0,0,1,.09-.65.57.57,0,0,1,.75-.17l.83.44a2.45,2.45,0,0,1,.92,1C80.16,137.17,80.2,137.3,80.12,137.37Z"/><path class="cls-14" d="M107.59,90.35a9.51,9.51,0,0,0,2.19-.31c.11-.11.91-.76,1.61-1.33a.84.84,0,0,0,.18-1.17c-.07-.1-2.13.72-2.47-.22l1.58-1.06a7.34,7.34,0,0,1,1.75-.58,11.57,11.57,0,0,1,2.45.21l1.38-.49,3.2,2.75-3.52,3s-3.5,2.66-4.14,2.67a5.57,5.57,0,0,1-1.88-.69c-.83.15-1.57-.76-1.57-.76-1.46-.2-.84-.9-.84-.9a.26.26,0,0,1-.15,0A.57.57,0,0,1,107.59,90.35Z"/><path class="cls-24" d="M112.11,89.89a2.39,2.39,0,0,1-.49.6,4,4,0,0,1-1.53,1.06,3.59,3.59,0,0,1-1.84,0,2.57,2.57,0,0,1-.73-.22,3.81,3.81,0,0,1,.75.07,3.87,3.87,0,0,0,1.76-.08,4.69,4.69,0,0,0,1.5-1A4.55,4.55,0,0,1,112.11,89.89Z"/><path class="cls-24" d="M112.55,90.88a1.39,1.39,0,0,1-.42.57,4,4,0,0,1-.58.51,2.17,2.17,0,0,1-.84.43,4.21,4.21,0,0,1-.94.06l-.74,0a2.33,2.33,0,0,1-.69-.08,2.69,2.69,0,0,1,.69-.06h.75a4.44,4.44,0,0,0,.89-.06,2.38,2.38,0,0,0,.8-.39,6.41,6.41,0,0,0,.58-.45A4.72,4.72,0,0,0,112.55,90.88Z"/><path class="cls-24" d="M113,92.09a5.3,5.3,0,0,1-1.36,1.07.66.66,0,0,1-.36.11,1.83,1.83,0,0,1-.33,0,2.5,2.5,0,0,1-.55,0c-.31-.06-.49-.15-.48-.18a4,4,0,0,1,.49,0,4.69,4.69,0,0,0,.53,0,1.63,1.63,0,0,0,.31,0,.49.49,0,0,0,.28-.09c.39-.27.76-.49,1-.65A2.46,2.46,0,0,1,113,92.09Z"/><path class="cls-25" d="M120.32,35.15v0S120.32,35.16,120.32,35.15Z"/><path class="cls-14" d="M115.18,42.13l-3.11.62-1.62,0c-.16,0-1.21-1.38-1.37-1.55a13.39,13.39,0,0,1-1.47-1.88,12.9,12.9,0,0,1-1.31-2,4.29,4.29,0,0,1-.25-2.19,1.5,1.5,0,0,0-.17-.82c-.28-.56-.5-1.25-.86-2a1.92,1.92,0,0,1-.16-.42s-.94-3.3-.62-4.64a3.67,3.67,0,0,1,1.91-2.54,18.71,18.71,0,0,1,3.45-.9l3.46-1.37,3.4.78,2.44,3.33.8,4.34.46,3.94"/><path class="cls-26" d="M118.61,30.8c.06.33,0,2.09.08,2.42l1.71-.44c.24-1.26.55-2.75.67-3.1.19-.55-1.25-2.7-1.44-3.58l0-.19c-.18-.83-1.29-2-3-3-2.9-1.83-2.79-1.88-6.33-.77-.24.07-.48.16-.71.25-2.19.87-4.08,1.29-5.08,3.52-.71,1.61-.33-.29,0,.64-.38-1.89-.37-.26-.23-.52.83-1.56,1.72-.32,2.25-.53a2,2,0,0,1,.94-.14,4.47,4.47,0,0,0,1.65-.42c.42-.17,1.46-.68,1.55-.72.24-.27-.28-1.34.24-1.55a7.89,7.89,0,0,1,3.7-.2c.79.16,2.67.48,2.88,2.44"/><path class="cls-26" d="M110.68,42.29l.06,0c.27-.3.27-.42.42-.5a.53.53,0,0,1,.16-.08c.45-.18.72-.29,2.14.2,0,0,1.6-.59,1.63-.6l.74-.6c.12-.12,2.62-3.51,2.62-3.51s.45-.87.45-1l0,0h0v0l0,.1a1.61,1.61,0,0,1,0,.49c0,.25,0,.5,0,.75,0,.08,0,.17,0,.26-.31.31-1.89,3.72-3,4.67a6.39,6.39,0,0,1-1,.41,10.78,10.78,0,0,1-4,.67,1.17,1.17,0,0,1-.91-.47,21.65,21.65,0,0,1-2.49-3.91l2.51,3.2a3.94,3.94,0,0,0,.58-.06"/><path class="cls-14" d="M119.88,35.34c1.71,1,1.44-1.35,1.44-1.35a4.56,4.56,0,0,0,.11-3.47c-.25-.84-1.18-.59-1.18-.59-.77.28-1,.79-1,3.63"/><path class="cls-26" d="M106.82,24.59c1.28-.33,4.46-2,6.18-2.54.71-.21,3.54,1,3.94,1.35.94.76-.21,3.3,1.73,6,.64.89.8-1,1.47-.45s.93.74.93.74a10.76,10.76,0,0,0-1.57-5.51c-1.29-2.66-4.64-3.17-6.18-3.06A23.38,23.38,0,0,0,106,23.72"/><path class="cls-27" d="M119.91,32.89a6,6,0,0,1,.45-1.5,1.3,1.3,0,0,1,.35-.49l0,0h-.08a1,1,0,0,1,.22.28,1.77,1.77,0,0,1,.22.9s.13,0,.13,0a1.7,1.7,0,0,0-.31-1c-.06-.08-.12-.17-.23-.13-.27.1-.43.44-.53.68a6.14,6.14,0,0,0-.4,1.39s.13,0,.14,0Z"/><path class="cls-27" d="M120.16,33.05c.25-.07.27.36.28.52s0,.53.24.51.14-.13.16-.22a2.56,2.56,0,0,0,0-.62,2,2,0,0,0-.15-.71c-.11-.28-.29-.59-.61-.64-.06,0-.14.08,0,.1.26,0,.42.34.51.56a1.9,1.9,0,0,1,.14.57,3.41,3.41,0,0,1,0,.64.53.53,0,0,1,0,.18V34s0,0,0,0l0,0a2.13,2.13,0,0,1-.12-.63c0-.23-.15-.44-.41-.36-.09,0-.06.12,0,.09Z"/><path class="cls-26" d="M112.41,32A.52.52,0,0,1,113,32a.59.59,0,0,1,.21.2.53.53,0,0,1,0,.49.5.5,0,0,1-.52.24.54.54,0,0,1-.42-.55.45.45,0,0,1,.15-.33"/><path class="cls-26" d="M106.76,33.5a.53.53,0,0,0-.53.24.63.63,0,0,0-.09.27.56.56,0,0,0,.24.44.5.5,0,0,0,.57-.05.53.53,0,0,0,.1-.68.48.48,0,0,0-.29-.22"/><path class="cls-26" d="M108.58,33.82a3.23,3.23,0,0,0-1.58-.49c-.86.14-1,.39-1.23.85a1.9,1.9,0,0,1,1.06-.63A5.92,5.92,0,0,1,108.58,33.82Z"/><path class="cls-26" d="M111.27,32.9a5.55,5.55,0,0,1,1.57-1.21,3.06,3.06,0,0,1,2.35.33,5.92,5.92,0,0,0-2.11-.2A10.11,10.11,0,0,0,111.27,32.9Z"/><path class="cls-26" d="M110.24,30.09c.06.2.12.4.19.6s.14.5.19.65c.44-.27.81-.6,1.1-.75a6,6,0,0,1,1.81-.73,2,2,0,0,1,.89,0c.09,0,.37.17.47.08s-.11-.26-.13-.28a1.37,1.37,0,0,0-1.34-.49,9.33,9.33,0,0,0-3.18.89"/><path class="cls-26" d="M104.71,31.81l.31-.2a8,8,0,0,1,2.85-1c.07.19.13.39.2.59l.2.57c-.48,0-.91,0-1.21,0a5.36,5.36,0,0,0-1.76.44l-.31.17C104.72,32.17,104.64,31.88,104.71,31.81Z"/><path class="cls-26" d="M112.61,39.48l-2.21.45s.73.71,1.26.58C112,40.42,112.35,40,112.61,39.48Z"/><path class="cls-28" d="M110.09,37a1,1,0,0,0,.86-.28s.24-.07.18,0a1.35,1.35,0,0,1-1.18.37s0,0,0-.06a.19.19,0,0,1,.14,0"/><path class="cls-28" d="M111.22,36.58a1.74,1.74,0,0,1,.5-.28h.09s0,0,0,0a.57.57,0,0,1-.28.14.12.12,0,0,1-.1,0s0-.05,0-.05a.48.48,0,0,0,.22-.12l.1,0a1.53,1.53,0,0,0-.45.25.11.11,0,0,1-.1,0s0,0,0-.05"/><path class="cls-28" d="M112,36.41a.73.73,0,0,0,.51-.42.65.65,0,0,0-.47-.74s0,0,0,0a.17.17,0,0,1,.12,0,.81.81,0,0,1,.54.6.65.65,0,0,1-.39.58.92.92,0,0,1-.23.09s-.1,0-.12,0,0,0,0-.06"/><path class="cls-28" d="M109.67,37a0,0,0,0,0,0,0,.25.25,0,0,1-.19,0l0,.09a.82.82,0,0,1,.38,0,0,0,0,0,0,.06,0s0,0,0-.06"/><path class="cls-28" d="M109.84,36.94a.86.86,0,0,0-.42,0,.07.07,0,0,0,0,0s0,0,0,.05"/><path class="cls-28" d="M109.22,37.1a.48.48,0,0,1-.45-.18.68.68,0,0,1,0-.76s0,0,0,0a.08.08,0,0,0-.06,0,.78.78,0,0,0-.08.67.53.53,0,0,0,.44.36h.17s.06,0,.06,0,0,0,0,0"/><path class="cls-26" d="M106.26,25.29a1,1,0,0,1,.35-.22l.13-.08c.44-.11.87-.21,1.31-.29a.93.93,0,0,1,.33,0h0c.32-.09.64-.18,1-.25h.16a1,1,0,0,1,.4,0,.13.13,0,0,1,0,.24c-.12.08-.33.05-.41.15s.14.18.11.29-.14.12-.2.18-.09.17-.16.24a.47.47,0,0,1-.33.13c-.12,0-.3,0-.31.12a.08.08,0,0,0,0,.07.26.26,0,0,1-.13.27.42.42,0,0,1-.36,0c-.1,0-.15-.13-.26-.17l-.1,0-.1.09a.4.4,0,0,1-.35,0c-.1,0-.16-.13-.26-.17s-.21,0-.27-.09.07-.28,0-.35-.29.07-.43.05A.16.16,0,0,1,106.26,25.29Z"/><path class="cls-26" d="M113.29,42.1a.63.63,0,0,1-.29.16l-.11.05-1.08.15a.82.82,0,0,1-.27,0h0l-.79.14-.13,0a.56.56,0,0,1-.32,0c-.09,0-.11-.15,0-.19s.27,0,.34-.1-.1-.15-.07-.24.12-.09.18-.13.08-.13.14-.19a.42.42,0,0,1,.28-.08c.09,0,.23,0,.26-.07s0,0,0-.06a.2.2,0,0,1,.12-.21.33.33,0,0,1,.29,0c.08,0,.12.11.2.15l.08,0a.22.22,0,0,1,.09-.07.3.3,0,0,1,.29,0c.07,0,.11.11.19.15s.17,0,.21.09-.07.22,0,.29.24,0,.35,0A.13.13,0,0,1,113.29,42.1Z"/><path class="cls-29" d="M120.94,29.89a.82.82,0,0,0,.37-.16.29.29,0,0,0,.06-.37c-.13-.17-.48-.13-.51-.34.13-.24.56-.25.6-.52s-.22-.36-.43-.43c.1-.15.09,0,.25-.11s.17-.53,0-.66-.18,0-.16-.2-.2-.12-.12-.25a.34.34,0,0,0,0-.41.63.63,0,0,1-.17-.42c0-.15-.33-.11-.27-.25s-.17-.5-.41-.63c.1-.11,0-.1,0-.24a.35.35,0,0,0-.1-.4,1.73,1.73,0,0,0-.24-.1c-.34-.16-.27-.65-.14-1a.53.53,0,0,1-.64-.3,1.3,1.3,0,0,0-.11-.35c-.07-.1-.25-.14-.3,0"/><path class="cls-26" d="M121,30c.24-.07.61-.2.61-.51,0-.16-.1-.23-.23-.29s-.21-.05-.24-.1.12-.22.2-.27.42-.31.26-.56a.61.61,0,0,0-.17-.15c-.05,0-.32-.14-.31,0s.3-.08.32-.1a.59.59,0,0,0,.1-.71c0-.05-.12-.08-.15-.12l0,0s0,0,0-.05,0-.05,0-.07-.07-.06-.08-.09,0-.3,0-.46-.11-.15-.15-.23,0-.2-.08-.29-.21-.1-.25-.2,0-.17,0-.21a.62.62,0,0,0-.17-.28,1.77,1.77,0,0,1-.22-.16s0-.07,0-.11,0-.33-.07-.48-.4-.15-.5-.39a1.12,1.12,0,0,1,.06-.74c0-.1-.15-.08-.19-.07-.52.11-.37-.55-.68-.71a.4.4,0,0,0-.48.09c-.13.14.19.14.27.06a2.14,2.14,0,0,0,.14.43.5.5,0,0,0,.19.22.77.77,0,0,0,.61.09l-.19-.07c-.09.28-.2.69,0,.95s.38.15.46.31a3.37,3.37,0,0,1,0,.45.06.06,0,0,0,0,.09c.14.09.36.22.39.41s0,.17,0,.24,0,0,.06.07l.11,0a.16.16,0,0,1,.12.18,1.71,1.71,0,0,1,.22.53c0,.2-.12.18,0,.33s.11.06.11,0,0,.12,0,.14.09.07.17.16a.38.38,0,0,1,0,.52c-.09.07-.17.07-.26.18a.05.05,0,0,0,0,.08c.32.12.55.36.15.58-.1.06-.31.15-.34.28s.05.18.14.24.2.05.28.11c.29.19,0,.39-.21.45s-.15.23,0,.17Z"/><path class="cls-30" d="M118.89,23.27c-.07-.15-.38-.87-.46-1a.37.37,0,0,1-.53-.2c0-.11,0-.25-.12-.29s-.21.07-.32.08-.37-.34-.62-.38-.3.11-.45.1-.35-.35-.58-.39-.32.08-.48.07c-.36,0-.58-.48-.93-.41-.13,0-.23.14-.35.15s0-.28-.18-.26-.33.27-.54.34-.68-.4-1-.21-.16.26-.28.35c-.28.21-.7-.17-1,0-.16.07-.24.27-.41.33s-.53-.19-.79-.12-.31.34-.53.37.18-.22,0-.21-.38.34-.62.45a1.43,1.43,0,0,1-.65,0c-.21,0-.58.5-.54.72"/><path class="cls-26" d="M119.06,23.23c-.16-.34-.3-.69-.46-1,0-.07-.18,0-.23,0-.26.1-.3-.46-.52-.52s-.12,0-.19,0l-.15.06a.46.46,0,0,1-.24-.17.58.58,0,0,0-.4-.19c-.2,0-.32.12-.53,0s-.16-.18-.27-.24c-.3-.17-.61,0-.94-.13s-.3-.25-.54-.27-.33.12-.47.08,0-.16-.17-.19-.29.11-.43.17a.58.58,0,0,1-.58,0,1.48,1.48,0,0,0-.27-.1.63.63,0,0,0-.4.08c-.1.06-.15.22-.24.28s-.35,0-.54,0a.86.86,0,0,0-.52.06c-.06,0-.1.09-.16.12a.8.8,0,0,1-.57.07.93.93,0,0,0-.47,0,.7.7,0,0,0-.26.19c-.09.09,0,.1.06,0s0,0,0-.05a.54.54,0,0,0-.39.06,2.43,2.43,0,0,0-.25.2,1.76,1.76,0,0,1-.75.18.91.91,0,0,0-.75.83c0,.07.33,0,.33-.09a.56.56,0,0,1,.6-.56,1.22,1.22,0,0,0,.46-.06,1,1,0,0,0,.27-.17c.15-.14.15-.29.08-.1s0,.05.06.05a.62.62,0,0,0,.39-.1,1,1,0,0,1,.61-.18,2.16,2.16,0,0,0,.27.05.86.86,0,0,0,.46-.17c.36-.19.61-.05,1-.11a.69.69,0,0,0,.33-.14c.26-.21.12-.31.5-.18a1.31,1.31,0,0,0,.27.12.68.68,0,0,0,.42,0l.27-.18c.16,0,0,0,.1.11a.07.07,0,0,0,.06,0c.21,0,.37-.09.57-.07s.48.31.79.34c.08,0,.16,0,.24,0,.36,0,.35.07.57.22s.27.11.48.1c.4,0,.35.1.63.25s.24,0,.38,0,.16,0,.2.09a.38.38,0,0,0,.08.23.47.47,0,0,0,.13.11.65.65,0,0,0,.56,0h-.22l.45,1c0,.09.37,0,.34-.09Z"/><path class="cls-31" d="M115.05,22a3.78,3.78,0,0,1,2.8,1.59l-7.6-.93a6.5,6.5,0,0,1,1.49-.49A8.42,8.42,0,0,1,115.05,22Z"/><path class="cls-26" d="M114.94,22.12a4.7,4.7,0,0,1,1.56.47,4.79,4.79,0,0,1,1.2,1.09l.26-.15-6.66-.81-1-.11,0,.14a8.56,8.56,0,0,1,4.63-.63c.1,0,.39-.14.21-.17a9.17,9.17,0,0,0-5,.68c-.06,0-.17.13,0,.15l6.65.81,1,.11s.34,0,.26-.14a4.62,4.62,0,0,0-1.25-1.12,4.78,4.78,0,0,0-1.61-.49C115.05,21.93,114.76,22.09,114.94,22.12Z"/><path class="cls-31" d="M104.93,24.33l.09-.07c.14-.13.22-.41,0-.49.37.07.49-.58.86-.65.11,0,.21,0,.32,0a.5.5,0,0,0,.44-.59,1.22,1.22,0,0,0,.9-.09l2.67.25c-1,.47-2.07,1.12-3.09,1.48a4.49,4.49,0,0,0-1.4.7c-.29.24-.69.43-1,.68C104.82,25.14,104.87,24.74,104.93,24.33Z"/><path class="cls-26" d="M105,24.39c.21-.15.47-.51.16-.71l-.19.2a.59.59,0,0,0,.47-.16c.16-.14.26-.43.48-.48s.26,0,.39,0a.92.92,0,0,0,.28-.14.62.62,0,0,0,.22-.6l-.26.15a1.42,1.42,0,0,0,.79,0s.27-.1.16-.08a.21.21,0,0,1,.08,0c.29,0,.58.06.87.09l1.71.16v-.19c-1,.45-1.93,1-3,1.42a6.6,6.6,0,0,0-1.3.58c-.21.14-.39.3-.6.43a7,7,0,0,0-.66.45l.28.05.15-1.23c0-.15-.31-.1-.33,0-.06.41-.11.82-.16,1.23,0,.13.22.1.28.05a5.19,5.19,0,0,1,.62-.42l.59-.43a6.86,6.86,0,0,1,1.36-.6c1-.38,1.9-1,2.87-1.39.11-.05.13-.18,0-.2l-1.6-.15-.89-.09-.18,0a.68.68,0,0,0-.2.07,1.07,1.07,0,0,1-.66,0c-.09,0-.29,0-.27.14.06.33-.17.43-.45.43a.69.69,0,0,0-.37.1,1.11,1.11,0,0,0-.27.26c-.06.08-.18.31-.3.3s-.33.11-.19.2,0,.33-.11.4S104.91,24.49,105,24.39Z"/><path class="cls-29" d="M108.25,40.59a3.55,3.55,0,0,0,.58.85c-.11.06,0,.24.09.3s.27.13.27.26,0,.09,0,.14.18.19.33.19c-.08.09,0,.22.13.28s.25.12.24.23-.05.12,0,.17.22.08.31.17,0,.13.08.19a.23.23,0,0,0,.36,0c.07.24.24.52.48.46s.26-.21.41-.18.15.11.24.15c.3.11.51-.51.81-.4s.21.31.38.33.26-.18.41-.23.38.08.52,0a.76.76,0,0,0,.12-.19c.11-.14.28,0,.45,0s.29-.18.29-.18c0-.23.16-.23.38-.17a.43.43,0,0,0,.22.06c.18,0,.2-.35.39-.37a.45.45,0,0,1,.19,0,.32.32,0,0,0,.29-.49.51.51,0,0,0,.37-.64.48.48,0,0,0,.49-.52.45.45,0,0,0,.38-.67.36.36,0,0,0,.39-.43c0-.11-.11-.25,0-.33s.14,0,.22-.06a.3.3,0,0,0,.16-.45.4.4,0,0,0,.26-.67.32.32,0,0,0,.21-.53.49.49,0,0,0,.21-.78l-2.91,4.6-.87.64s-3.33,1-4,.88S108.25,40.59,108.25,40.59Z"/><path class="cls-26" d="M108.08,40.64c.13.25.37.48.48.73,0,0,.07.29.1.32s.17.11.23.18c.17.22.07.32.25.48s.12.07.17.11,0,.1.07.13.19.09.3.37c0,.08,0,.08,0,.16s.08,0,.11.05.16.19.24.26a.48.48,0,0,0,.64,0l-.29,0c.16.41.34.53.75.44l.14-.07a.22.22,0,0,1,.26.06l.13,0a.59.59,0,0,0,.32-.09c.1,0,.16-.14.26-.2s.1-.06.3.08.15.13.3.13.24-.1.39-.17.42,0,.62-.12.17-.15.38-.15a.81.81,0,0,0,.41-.06c.1-.05.12-.15.19-.21s.21,0,.4,0a.64.64,0,0,0,.32-.18.38.38,0,0,0,.06-.17,2.06,2.06,0,0,0,.26,0c.3,0,.59-.29.42-.59l-.1.09a.61.61,0,0,0,.47-.73l-.23.11c.38,0,.72-.2.72-.63l-.23.11c.39,0,.82-.32.61-.78l-.23.11c.4,0,.61-.19.61-.6s.08-.18.27-.33a.35.35,0,0,0,.1-.45l-.19.1c.38,0,.75-.41.45-.79l-.19.12c.3-.06.65-.29.4-.63l-.1.08a.55.55,0,0,0,.3-.88c0-.07-.28,0-.32.09l-1.28,2c-.52.82-1,1.72-1.58,2.49a6,6,0,0,1-.8.63c-.09.08,0,0,0,0l-.12,0-.65.19c-.65.19-1.31.36-2,.5a1.79,1.79,0,0,1-1.47,0,13.22,13.22,0,0,1-2.42-2.48c-.05-.07-.36.05-.31.11a14.32,14.32,0,0,0,2.32,2.41c.84.64,2.17.08,3.08-.16.5-.13,1-.25,1.52-.43a3.69,3.69,0,0,0,.94-.63,2.22,2.22,0,0,0,.39-.51l.93-1.47L119,37.12l-.32.09a.44.44,0,0,1-.11.68s-.13,0-.11.08.17.39,0,.43-.24.05-.18.12.16.51-.08.55c0,0-.22,0-.2.1.18.39-.19.3-.34.46s.11.68-.17.7c0,0-.27.05-.24.12s.1.53-.14.55c-.06,0-.24,0-.24.12a.35.35,0,0,1-.25.4s-.25,0-.24.11a.44.44,0,0,1-.26.56s-.13.05-.11.09c.23.42-.31.26-.52.42s-.12.18-.32.2-.2,0-.31,0a.44.44,0,0,0-.26.16c-.17.17,0,.18-.29.15s-.32.07-.53.19-.24,0-.42.08-.2.13-.29.14-.29-.22-.48-.25a.75.75,0,0,0-.26,0,.91.91,0,0,0-.27.18c-.24.2-.19.07-.46,0a.81.81,0,0,0-.31.05c-.07,0-.12.09-.2.09s-.27-.23-.33-.39-.25,0-.29,0c.18-.12-.45-.41-.46-.43.19.28-.09-.43,0-.27-.08-.15-.4-.13-.34-.39,0,0,0,0-.06-.05-.48-.06-.13-.27-.3-.42s-.43-.21-.3-.43a0,0,0,0,0,0,0,4.27,4.27,0,0,1-.58-.83C108.37,40.47,108.05,40.58,108.08,40.64Z"/><path class="cls-32" d="M118.59,31c-.41-.26-.12-1-.46-1.32a2.75,2.75,0,0,1-.26-.22c-.2-.24,0-.64-.2-.9s-.22-.19-.28-.31,0-.54,0-.79-.49-.47-.44-.77c0-.14.17-.25.19-.39s-.3-.52-.16-.73.15-.11.19-.19-.14-.3-.24-.45a1.61,1.61,0,0,1-.15-.53c-.06-.18-.27-.34-.42-.23,0-.31-.3-1.05-.59-.95s-.32.16-.43.05,0-.22-.1-.3-.51.23-.76.11c-.07,0-.11-.1-.17-.15a.46.46,0,0,0-.48,0,1,1,0,0,1-.46.19c-.17,0-.35-.16-.28-.32a1.29,1.29,0,0,1-.5.33A.46.46,0,0,1,112,23a.4.4,0,0,1-.61.3c-.09-.07-.16-.19-.28-.18a.19.19,0,0,0-.13.07,3,3,0,0,0-.37,1L110.47,23l3.28-1.18,3.12,1.09,1.77,3.3-.15,5.1"/><path class="cls-26" d="M118.74,31c-.3-.25-.2-.66-.29-1s-.44-.46-.51-.8,0-.39-.08-.58-.3-.28-.35-.49.06-.4,0-.6a1,1,0,0,0-.29-.45c-.17-.21-.17-.3-.07-.57s.11-.2.07-.37-.2-.3,0-.63c.07-.14.15-.12.08-.31s-.24-.27-.29-.45a1.45,1.45,0,0,0-.14-.46c-.15-.21-.36-.18-.58-.1l.22,0c0-.31-.18-.9-.55-1-.09,0-.17,0-.26,0s-.18.05-.25-.06a.42.42,0,0,0-.06-.21.15.15,0,0,0-.09-.06.44.44,0,0,0-.32,0,1.34,1.34,0,0,1-.18.07c-.31.07-.23-.06-.45-.13a.75.75,0,0,0-.42,0c-.2.06-.73.37-.68-.08,0-.06-.29,0-.32.06a.53.53,0,0,1-.7.08c0-.06-.32,0-.33.09-.07.45-.45,0-.63,0a.54.54,0,0,0-.35.13c-.28.22-.33.72-.42,1l.33-.07-.16-1.23-.11.07,3.27-1.17-.21,0,2.52.87a1.9,1.9,0,0,1,.63.26,5.61,5.61,0,0,1,.55,1l.8,1.5a3.53,3.53,0,0,1,.39.71,3.4,3.4,0,0,1,0,.78l0,1.58-.08,2.74s.33,0,.33-.09l.1-3.43a12.07,12.07,0,0,0,0-1.59,3,3,0,0,0-.42-.86l-1-1.94c-.17-.31-.21-.55-.54-.66l-2-.68c-.33-.11-.79-.39-1.15-.31a13.45,13.45,0,0,0-1.61.58l-1.68.6s-.12,0-.11.08l.16,1.22c0,.06.31,0,.33-.07.09-.33.14-.88.47-1.05l-.26.06c.18,0,.27.22.46.25a.68.68,0,0,0,.28,0,.54.54,0,0,0,.45-.44l-.33.09c.36.47,1,.09,1.33-.2l-.31.06c0,.47.52.31.77.22s.24-.19.46-.11c.07,0,.11.12.18.15a.66.66,0,0,0,.37,0l.23-.1c.22,0,.11.15.22.25a.28.28,0,0,0,.31.09c.26,0,.34-.1.52.18a1.17,1.17,0,0,1,.2.67c0,.05.21,0,.22,0s.24.44.26.52a1.45,1.45,0,0,0,.24.44c.17.24,0,.25-.11.49a.48.48,0,0,0,0,.31.64.64,0,0,1,0,.57c0,.11-.12.18-.1.32,0,.34.46.46.46.85a1.58,1.58,0,0,0,0,.53c.06.16.2.24.29.38s0,.64.22.91.28.2.36.37a1.16,1.16,0,0,1,.09.41,1,1,0,0,0,.27.76c.07.05.35-.08.31-.11Z"/><path class="cls-29" d="M119.09,33.2l-.28.09a.14.14,0,0,1-.09,0c-.07,0-.06-.13,0-.21a.8.8,0,0,0-.23-.47c-.1-.14-.2-.33-.11-.48s.14-.15.13-.25-.17-.15-.27-.22a.3.3,0,0,1,0-.48.83.83,0,0,1-.28-.65c0-.47,0-1,0-1l.6-.52Z"/><path class="cls-26" d="M119,33.15a1,1,0,0,1-.21.07s0-.13,0-.12a.51.51,0,0,0-.07-.3c-.12-.23-.41-.45-.24-.73s.16-.26,0-.38-.17-.07-.22-.17a.26.26,0,0,1,.09-.31s0-.05,0-.08a.78.78,0,0,1-.25-.5,5.78,5.78,0,0,1,0-1s0-.06,0-.09,0,0,0,0l.2-.17.36-.32-.32.06.47,3.62.06.53c0,.08.35,0,.34-.09l-.47-3.62-.07-.53c0-.1-.28,0-.31.05l-.39.34c-.12.1-.22.15-.23.3a4.7,4.7,0,0,0,0,1.06.79.79,0,0,0,.26.5l0-.07a.34.34,0,0,0-.06.55c.08.07.28.1.25.24s-.09.13-.12.19a.37.37,0,0,0,0,.21,1.12,1.12,0,0,0,.26.46.82.82,0,0,1,.1.4c0,.3.5.06.65,0s.13-.05.09-.1S119.07,33.14,119,33.15Z"/><path class="cls-32" d="M105.61,24.75c.06.08,0,.19-.15.22s-.22.08-.22.18.06.12.06.18-.39.12-.45.3.14.3.05.42-.12.05-.19.07a.3.3,0,0,0-.21.27.82.82,0,0,1,0,.27c0,.1-.16.14-.25.21a.76.76,0,0,0-.16.79,1.05,1.05,0,0,1-.06.84c-.23-.13-.06-.35.06-.59,0-.07.08-.14.11-.21a.2.2,0,0,0-.07-.22s-.08,0-.1-.05.11-.15.18-.23,0-.27-.12-.36-.23-.22-.19-.35.2-.16.25-.28-.08-.27-.08-.41.22-.29.4-.34a.3.3,0,0,1,0-.47c.06,0,.15,0,.18-.12s0-.23,0-.32.19,0,.25-.11-.08-.28,0-.42.44-.2.38-.39"/><path class="cls-26" d="M105.45,24.79c0,.14-.32.21-.37.34s.09.21,0,.27-.16.05-.2.06-.25.12-.26.26.11.2.09.28-.14.07-.21.11a.42.42,0,0,0-.21.39c0,.11,0,.19-.09.27a1.48,1.48,0,0,1-.13.08A.52.52,0,0,0,104,27c-.25.47.21,1-.09,1.47l.31-.06c-.3-.21.19-.59.18-.85a.33.33,0,0,0,0-.13.18.18,0,0,0-.07-.05c-.07-.06-.07-.1,0-.13s.16-.09.15-.24-.13-.22-.22-.31-.18-.22-.06-.35a.48.48,0,0,0,.11-.09.3.3,0,0,0,.05-.33c0-.08-.07-.15,0-.24s.18-.17.29-.21.14-.07.09-.11a.25.25,0,0,1,0-.4c.07-.05.15-.07.18-.15s0-.22,0-.29.18,0,.23-.12-.18-.4.09-.56.29-.13.26-.29-.35,0-.33.09-.34.21-.38.36.06.23.07.34,0,0-.07.07a.33.33,0,0,0-.12.05.2.2,0,0,0-.1.2c0,.09,0,.14,0,.22s-.11,0-.15.09a.35.35,0,0,0,0,.51l.09-.12c-.3.1-.58.27-.46.62a.26.26,0,0,1-.08.33l-.11.11c-.09.17,0,.3.15.41s.21.21.13.34-.12.08-.16.14.11.15.15.27-.18.43-.23.57a.25.25,0,0,0,.08.37.27.27,0,0,0,.3-.07c.3-.44-.07-.92.07-1.39.07-.24.37-.27.42-.5s0-.23,0-.34.18-.08.27-.14.12-.21.07-.37.16-.18.31-.28.11-.07.12-.12-.09-.21,0-.31.38-.11.31-.34-.36,0-.33.09Z"/><path class="cls-33" d="M119.12,31.4,119,31l-4.31-.18h0a5.88,5.88,0,0,0-4.5,1.7l-1,.31v0a5.12,5.12,0,0,0-4.83.83l.08.15h0l0,.06.07.13a6.64,6.64,0,0,0,1.25,1.91,2.5,2.5,0,0,0,1.26,0,3.4,3.4,0,0,0,.45-.08c.14,0,1.37-.27,1.53-.51a9.73,9.73,0,0,0,.16-2.2l1-.31c.22.32.85,1.74,1.44,1.92s3.22-.59,3.37-1a8.65,8.65,0,0,0,.4-1.89l.07-.68Zm-10.24,3.8a6.66,6.66,0,0,1-3,.54,8,8,0,0,1-1.18-1.84v0a4.92,4.92,0,0,1,4.31-.7,8.78,8.78,0,0,1-.14,2Zm5.84-1.53a5.54,5.54,0,0,1-3,.85c-.42-.12-.9-1.16-1.22-1.74a6.38,6.38,0,0,1,4.69-1.6,7.82,7.82,0,0,1-.49,2.49Z"/><path class="cls-34" d="M110.81,38.06a7.64,7.64,0,0,1,3.08,0,5.5,5.5,0,0,1-2.6,1.26c-1.85.45-2.3-.07-2.3-.07A4,4,0,0,1,110.81,38.06Z"/><path class="cls-35" d="M113.07,38s-1,.16-1.72.34-1.69.49-1.69.49-.25-.5,1.12-.84A4.25,4.25,0,0,1,113.07,38Z"/><path class="cls-36" d="M111.23,39.13a13,13,0,0,1,2.66-1s0,1.16-2.18,1.68-2.72-.49-2.72-.49A8.33,8.33,0,0,1,111.23,39.13Z"/><path class="cls-36" d="M109.77,37.88a4.72,4.72,0,0,1,1-.1,5.26,5.26,0,0,1,.91-.36c.43-.07,2.48.47,2.31.65s-1.75-.21-3.12.13-1.69,1.17-1.92,1.1S109.35,38,109.77,37.88Z"/><path class="cls-26" d="M114,37.17a.66.66,0,0,1,.38.35,1.25,1.25,0,0,1,0,.19V38a.13.13,0,0,1,0,.06.1.1,0,0,1-.05,0,.48.48,0,0,1-.2.07.16.16,0,0,1-.16-.1s0-.06,0-.08-.1,0-.15,0-.21-.16-.3-.27a.71.71,0,0,0-.5-.23,1.33,1.33,0,0,1-.28,0,.27.27,0,0,1-.2-.19"/><path class="cls-26" d="M108.23,38.55a.71.71,0,0,0-.18.49,1.34,1.34,0,0,0,.07.18l.14.27s0,0,0,0a.07.07,0,0,0,.06,0,.49.49,0,0,0,.21,0,.18.18,0,0,0,.1-.17.24.24,0,0,1,0-.08c0-.06.08-.07.13-.1s.1-.24.13-.37a.7.7,0,0,1,.33-.44,1.34,1.34,0,0,0,.23-.16.27.27,0,0,0,.09-.26"/><path class="cls-26" d="M114,36.91a.55.55,0,0,0-.39-.12l-.1,0h-.06s0,0,0,0-.08-.1-.14-.13a.51.51,0,0,0-.4,0,.53.53,0,0,0-.15.08s-.09.06-.08.07.1,0,.06,0l-.06,0a.52.52,0,0,0-.35,0,.38.38,0,0,0-.17.08l-.07.07s0,0,.12,0l0,0c-.12-.06-.2-.14-.35-.13a.67.67,0,0,0-.24.07l-.1,0,0,0c.07,0,.08,0,0,0s-.37.07-.31.12a.38.38,0,0,0,.36,0l.2-.1h-.06l.07,0,.07,0a.46.46,0,0,0,.38.05.44.44,0,0,0,.19-.1l.06-.06s0,0-.14,0l0,0a.6.6,0,0,0,.35,0,.68.68,0,0,0,.2-.07l.08-.06,0,0s0,0,0,0,0,0,0,0l0,0,.08.08a.2.2,0,0,0,.15.06l.21,0a.33.33,0,0,1,.23.09c.07.06.36-.07.31-.11Z"/><path class="cls-26" d="M110.11,37.19a.44.44,0,0,0-.36.12c-.06,0-.12.14-.19.15a.44.44,0,0,0-.22.07s-.13.12-.11.15l.06,0h-.11a.49.49,0,0,0-.24,0c-.15,0-.19.14-.23.27s0,0,0,.05,0,0,0,0l-.18,0c-.12,0-.26.14-.24.29s0,0,0,0h0l0,0a.2.2,0,0,0-.12.16.15.15,0,0,0,.16.12c.06,0,.18-.06.18-.14s-.08.07,0,0h0l.06,0a.19.19,0,0,0,.11-.14s0-.11,0-.09h.09A.44.44,0,0,0,109,38a.42.42,0,0,0,0-.12.11.11,0,0,0,0-.06c-.1,0-.12,0-.07,0h0a.52.52,0,0,0,.37,0,.44.44,0,0,0,.14-.13l0-.07s-.08,0,0,0a.52.52,0,0,0,.3-.14l.09-.09,0,0s-.08,0,0,0a.21.21,0,0,0,.21-.1c0-.08,0-.14-.1-.15Z"/><path class="cls-26" d="M111,37.21l.2.42a.17.17,0,0,0,.17.1c.49-.06,2.36-.28,2.78-.39,0,0,0,.18,0,.18l.1,0c.15-.08-.1-.58-.27-.6a9.14,9.14,0,0,0-1.23-.08,9.84,9.84,0,0,0-1.66.17A.17.17,0,0,0,111,37.21Z"/><path class="cls-26" d="M110.48,37.4l.09.42a.15.15,0,0,1-.09.16c-.43.18-1.81.78-2.21.88h-.16c-.16,0-.16-.34,0-.44a7.18,7.18,0,0,1,.85-.59,7.64,7.64,0,0,1,1.36-.59A.16.16,0,0,1,110.48,37.4Z"/><path class="cls-23" d="M91.21,138.46l.15,3.55c0,.5,0,1.07.57,1.24.39.12.8,0,1.2.18a2.62,2.62,0,0,1,1.37,1.1c.12.18.18.47.36.57a1.43,1.43,0,0,0,1.65-.46,1.09,1.09,0,0,0,0-1c-.14-.33-.61-.29-.9-.21s-.82.31-.67.63a.86.86,0,0,1,.09.35.7.7,0,0,0,0,.14c0,.11-.11,0,.11-.08l.38-.17-.05,0,.41-.05H96l.31.24a3.48,3.48,0,0,0-3.08-2.12.88.88,0,0,1-.23,0s.06,0,0,0a1.26,1.26,0,0,1,0-.47l0-1.26-.12-2.6c0-.34-.71-.26-.9-.21s-.69.27-.67.63Z"/><path class="cls-24" d="M117.79,153.23s-.63-.68.41-1.34a10.74,10.74,0,0,0,2.65-.56c1.26-.46,4.46-1.94,4.46-1.94l-.13-.46a31.06,31.06,0,0,1-4.08,1.94c-.94.21-3.23.43-3.5,1S117.24,153,117.79,153.23Z"/><path class="cls-15" d="M120.17,151.48a10.23,10.23,0,0,1,1.39-.13,2.39,2.39,0,0,1,1.84.84,4.54,4.54,0,0,1,.34,1.85l1.06,0s-.45-2.16-1.16-2.7A2.92,2.92,0,0,0,120.17,151.48Z"/><path class="cls-23" d="M77.22,146.94c2,.08,3.23,2.55,5.21,3a4.44,4.44,0,0,0,3.36-.78c.63-.4,1.28-1.11,1-1.8-.12-.32-.41-.54-.57-.84-.42-.8.24-1.71.69-2.5a5.5,5.5,0,0,0,.65-1.79.92.92,0,0,0,0-.52.93.93,0,0,0-.71-.41,20.44,20.44,0,0,0-4.2-.44"/><circle class="cls-37" cx="27.67" cy="137.19" r="0.8"/><circle class="cls-37" cx="27.89" cy="139.54" r="0.8"/><circle class="cls-37" cx="25.98" cy="138.8" r="0.57"/><path class="cls-38" d="M26.1,98.72s2.14,16.77,13.16,28.11l11,11.33A45.86,45.86,0,0,1,45,134.29l-3.3-2.71s4,6.06,5.9,7.17-4.72-1.08-6.87-5,3.23,5.9,4.68,7.51-3.38-1-6.35-2.12-4.05-1.6-4.05-1.6l-1.89-2.61s3.63,6.29,4.34,6.77-5.87-1.34-8.8-5.91-4.82-8.54-4.48-16.23-.89-20.36-2.11-25.22-3-11.52-3-11.52l-1.19-3.86,3.38-.48Z"/><path class="cls-39" d="M27.09,103.18s2.72,14.41,4.95,19.58,4.26,12.63,13.24,19"/><path class="cls-39" d="M24.23,99.09S25.57,114.63,35,133.7c1.36,2.74,8,6.73,9.34,7.7"/><path class="cls-39" d="M26.91,119.92s4.64,9.79,7,13.52C37.51,139,42.41,140,42.41,140"/><path class="cls-39" d="M24.66,111.08s-1.05,7.51,3.87,17.21c2,3.87,4.75,7.72,6.21,8.86,0,0-3-2.51-6.5-12.85a139.23,139.23,0,0,1-5-22.42l2.62-.41-2.24-1,1.71-.4L23.34,99l1.73-.45-2-.67L25,96.71l-1.9-.1,1.59-1.08-2-.66,1.75-.93-3-1.94,2,10.35,3.43.5L24.14,90.47l-2.7,1.36L21,90l2.2-.61-2.59-.9"/><path class="cls-39" d="M35.5,139.21S30,134.61,28,129.94s-4.29-10-3.47-14.12"/><path class="cls-39" d="M24.73,121.85s-.3,5.82,5.08,13.13c2.49,3.38,7.47,6.53,7.47,6.53"/><path class="cls-39" d="M41.76,135.17s-5.67-6.49-6.93-8.53S30,116.1,30,116.1"/><path class="cls-39" d="M41.93,131.92s-5-3.81-7.35-8.48-5.19-9.59-5.19-9.59"/><polyline class="cls-39" points="17.92 78.94 19.55 84.7 21.79 83.08 19.39 82.56 21.18 82.09 19.48 81.4 21 80.92 19.18 80.13 20.62 79.72 18.41 79.02 21.3 78.46 22.67 84.26 19.77 84.68"/><polygon class="cls-39" points="19.37 83.29 22.28 85.14 20.72 86.11 22.88 86.76 21.8 87.8 23.34 87.08 22.94 85.39 22.59 83.93 19.55 84.7 20.98 90.03 23.86 89.29 23.34 87.08 21.12 89.57 20.59 87.53 20.59 87.02 22.38 85.98 19.95 85.28 19.37 83.29"/><polyline class="cls-39" points="25.1 93.45 22.46 93.71 24.26 91.68 21.58 90.78 24.11 90.33 23.78 88.95 21.58 87.52 23.83 89.79"/><circle class="cls-37" cx="29.92" cy="136.39" r="0.57"/><circle class="cls-37" cx="25.18" cy="133.87" r="0.57"/><circle class="cls-37" cx="21.58" cy="140.46" r="0.57"/><ellipse class="cls-10" cx="67.92" cy="67.41" rx="2.58" ry="1.7"/></g></svg>