<svg xmlns="http://www.w3.org/2000/svg" viewBox="0 0 165.86 165.86"><defs><style>.cls-1{fill:#e3f3f7;}.cls-2{fill:#9e9d9e;}.cls-3{fill:#9db064;}.cls-4{fill:#a5704b;}.cls-5{fill:#070808;}.cls-6{fill:#c12026;}.cls-7{fill:#7c1317;}.cls-8{fill:#5684c2;}.cls-9{fill:#595a5a;}.cls-10{fill:#5a9dca;}.cls-11{fill:#939393;}.cls-12{fill:#273238;}.cls-13{fill:none;stroke:#465b65;stroke-miterlimit:10;stroke-width:0.64px;}.cls-14{fill:#e98427;}.cls-15{fill:#a25325;}.cls-16{fill:#bb8e2d;}.cls-17{fill:#e5a946;}.cls-18{fill:#515659;}.cls-19{fill:#e5b52b;}.cls-20{fill:#825639;}.cls-21{fill:#151210;}.cls-22{fill:#231f20;}.cls-23{fill:#010101;}.cls-24{fill:#161312;}.cls-25{fill:#171514;}.cls-26{fill:#181615;}.cls-27{fill:#191716;}.cls-28{fill:#040404;}.cls-29{fill:#31160e;}.cls-30{fill:#fff;}.cls-31{fill:#653c29;}.cls-32{fill:#422913;}</style></defs><g id="Layer_1" data-name="Layer 1"><path class="cls-1" d="M159.35,74.38c0-24.94-20.94-45.19-46.91-45.57-9-12.57-23.27-20.52-42.75-20.52C33.94,8.29,5,35,5,68a56.17,56.17,0,0,0,10,31.83,57.11,57.11,0,0,0-3.47,19.59c0,16.78,7.28,32,19.09,43.09h95.11c11.81-11.1,19.1-26.31,19.1-43.09a56.93,56.93,0,0,0-1.13-11.22A44.65,44.65,0,0,0,159.35,74.38Z"/><path class="cls-2" d="M25.81,157.83H140.14a1.31,1.31,0,0,1,1.31,1.31v1a1.31,1.31,0,0,1-1.31,1.31H24.81a1.31,1.31,0,0,1-1.31-1.31v0a2.31,2.31,0,0,1,2.31-2.31Z"/><rect class="cls-3" x="15.32" y="161.21" width="136.94" height="2.63" rx="1.31"/><path class="cls-4" d="M54.11,136.51s.2,8.35.44,12.28,1.82,2.73,4.86,4.6a20.18,20.18,0,0,0,3.13,1.25c.84.15,2.51.29,3,.71s.8,1.41-.42,1.63A45.45,45.45,0,0,1,58,158c-1.62-.11-5.9-1-7.5-1s-2.61.19-3-.58a5.65,5.65,0,0,1,.07-4,6.35,6.35,0,0,0,.13-4.39c-.47-.94-1-11.14-1-11.14Z"/><path class="cls-5" d="M63,154.71a13.31,13.31,0,0,0-1.57-.15,2.78,2.78,0,0,0-2.1,1,5.29,5.29,0,0,0-.38,2.11l-1.22,0s.53-2.45,1.33-3.07A3.33,3.33,0,0,1,63,154.71Z"/><path class="cls-5" d="M65.1,157.88a15.15,15.15,0,0,0-4.14.22,23.24,23.24,0,0,1-4.25.19c-3.26-.17-5.86-.35-9.12-.54-.68,0-.63-.87-.2-.86,3.58.12,6.65.43,10,.59a24.37,24.37,0,0,0,4.35-.25,14.69,14.69,0,0,1,4.08-.14c.28,0,.16.37,0,.5a.84.84,0,0,1-.75.29Z"/><path class="cls-4" d="M44.32,137.41s.2,8.35.44,12.28,1.82,2.72,4.86,4.6a21.26,21.26,0,0,0,3.13,1.25c.84.15,2.51.28,3,.7s.81,1.41-.42,1.64-5.43,1.1-7.06,1-5.9-1-7.5-1-2.6.19-3-.58a5.62,5.62,0,0,1,.07-4,6.39,6.39,0,0,0,.14-4.4c-.48-.94-1-11.14-1-11.14Z"/><path class="cls-5" d="M53.2,155.61a11.3,11.3,0,0,0-1.57-.15,2.78,2.78,0,0,0-2.1,1,5.24,5.24,0,0,0-.38,2.1l-1.21,0s.52-2.46,1.32-3.07A3.33,3.33,0,0,1,53.2,155.61Z"/><path class="cls-4" d="M89.81,67.49a21.36,21.36,0,0,0,2.32.86c.31,0,4.2-.33,4.48-.19s2.56,1.67,2.56,1.67l0,1.52s.7,1.45.52,1.89a.88.88,0,0,1-1.12.33,1.31,1.31,0,0,0-.62-.1,1.1,1.1,0,0,1-.22.8c-.26.25-1,0-1,0a2.43,2.43,0,0,1-.46.77c-.27.25-.75.06-.75.06s-.15.92-.41,1.09a4.69,4.69,0,0,1-2.73-1.28,2,2,0,0,1-1.32-.54c-.58-.55-3.95-3.43-3.95-3.43l2.32-3.26"/><path class="cls-6" d="M86.61,134.63c0-2.1-5.41-3.08-12.08-3.08s-12.08,1-12.08,3.08A1.79,1.79,0,0,0,63.2,136c.08.8.25,2,.27,2.48a2.5,2.5,0,0,1,.09.25l.49,5.1c.14,2.36.48,4.7.67,7.06.17,2.13.39,4.26.59,6.39a3.69,3.69,0,0,0,.71.93H82.75a2,2,0,0,0,.67-1c.24-2.35.5-4.7.72-7.05,0-.18,0-.37,0-.56h0l1.52-13.5A1.9,1.9,0,0,0,86.61,134.63Zm-21.92,2.21h0Z"/><path class="cls-7" d="M85.34,134.49c0,1.47-4.8,2.66-10.72,2.66S63.91,136,63.91,134.49s4.79-2.3,10.71-2.3S85.34,133,85.34,134.49Z"/><path class="cls-2" d="M90.42,86.2V83h10.07c0,2.66,0,29,0,31.65l0,.06v36H90.42V89.18l0,0Z"/><path class="cls-2" d="M89.76,91.06V81.38l.65,0v-.76h8.15v.16l2.36,0q0,8.19,0,16.39c0,.32,0,.68-.45.67h0v0H90.42v0h0c-.64.1-.67-.29-.67-.77C89.76,95,89.76,93.05,89.76,91.06Z"/><path class="cls-2" d="M72.49,94.67c-.55,0-1,.14-.95,1s.54.89,1,.89c1.18,0,2.36,0,3.53,0,.56,0,1-.12,1-1s-.43-.93-1-.9Z"/><polygon class="cls-8" points="75.55 97.34 75.58 97.31 75.56 97.35 75.55 97.34"/><path class="cls-9" d="M93.57,89a2,2,0,0,1,1.73-1.78,1.72,1.72,0,1,1,.11,3.44A1.9,1.9,0,0,1,93.57,89Zm2.32-.12c0-.32-.22-.54-.56-.47s-.53.23-.47.58a.67.67,0,0,0,.55.51A.54.54,0,0,0,95.89,88.87Z"/><rect class="cls-9" x="90.42" y="97.78" width="10.12" height="1.99"/><rect class="cls-9" x="90.32" y="143.4" width="10.12" height="1.99"/><rect class="cls-9" x="89.75" y="79.36" width="11.16" height="1.99"/><rect class="cls-9" x="90.95" y="75.08" width="9.03" height="1.99" transform="translate(19.4 171.54) rotate(-90)"/><rect class="cls-9" x="91.78" y="70.72" width="7.37" height="1.99" rx="0.99"/><path class="cls-2" d="M88.63,85.65c-.85-.4-1.22.63-1.78,1h-.64c-5.61,0-5.07,0-10.68,0a3.13,3.13,0,0,0-2.68,1.92c-.44,1.11-.13,2.4-.18,3.58,0,.49,0,2,0,2.52a8.31,8.31,0,0,1,3.44,0c0-.87,0-2.27,0-3.13s.31-1.35,1.08-1.35l9.19,0a1,1,0,0,1,1,.43c.33.52.8.46,1.26.35Z"/><rect class="cls-9" x="86.32" y="87.61" width="5.45" height="1.42" transform="translate(177.37 -0.73) rotate(90)"/><rect class="cls-9" x="72.61" y="93.26" width="3.5" height="1.42" transform="translate(148.72 187.94) rotate(180)"/><rect class="cls-2" x="85.12" y="145.2" width="21.17" height="12.7"/><path class="cls-10" d="M64.53,135.38c1.48,1,5.44,1.77,10.1,1.77s8.61-.74,10.09-1.77c-1.86-1.1-5.68-1.13-10.1-1.13S66.39,134.28,64.53,135.38Z"/><rect class="cls-10" x="73.36" y="96.54" width="2.13" height="38.13"/><circle class="cls-10" cx="71.82" cy="132.85" r="1.98"/><circle class="cls-10" cx="69.08" cy="119.83" r="0.56"/><circle class="cls-10" cx="71.82" cy="121.96" r="0.49"/><circle class="cls-10" cx="77.57" cy="99.73" r="0.49"/><circle class="cls-10" cx="71.54" cy="102.15" r="0.49"/><circle class="cls-10" cx="78.36" cy="127.01" r="0.49"/><circle class="cls-10" cx="76.27" cy="133.52" r="1.3"/><path class="cls-7" d="M63.37,136.42s4.05,2.73,11.42,2.73,11.09-2.6,11.09-2.6-2.29,3.53-10.77,3.67S63.37,136.42,63.37,136.42Z"/><path class="cls-11" d="M74.61,147.36a11.82,11.82,0,0,1-12-10.84.6.6,0,0,1,.6-.63h0a.58.58,0,0,1,.59.55,10.86,10.86,0,0,0,21.61,0,.59.59,0,0,1,.6-.55h0a.59.59,0,0,1,.59.63A11.8,11.8,0,0,1,74.61,147.36Z"/><rect class="cls-2" x="89.05" y="77.22" width="12.57" height="2.14" rx="1.07"/><path class="cls-4" d="M59.81,42.29c.54,5,7.9,22,9,23.27,3.34,3.93,21.64,6.63,21.64,6.63l2.66-3.26L75.24,60.38,70.81,42.9"/><path class="cls-4" d="M51.52,19s0,6.76-1,8.7c-.26.47-3.65,1.43-3.65,1.43l8.24,5.79,12.39-1.31s-6.34-3.4-6.42-4a50,50,0,0,1,.82-5.11"/><path class="cls-12" d="M34.53,78.06,34,82.16A35.83,35.83,0,0,0,34,92.5l3.33,21.67S36.53,127.46,36,135c-.46,6.52.86,16.27.86,16.27l11-.29,5.85-35.53L52.62,91l3.7-12.35Z"/><path class="cls-12" d="M64.34,79.51V115.8a14.89,14.89,0,0,1-.89,5.33L55.79,147.4l-.46,1.74-6.6-1.42,3.19-69.66Z"/><path class="cls-13" d="M47.85,151l5.85-35.53L52.62,91"/><path class="cls-14" d="M37,33.67c.8-1.29,3.73-3.19,5.17-3.65,3.76-1.2,7.58-2.15,7.58-2.15,3,5.92,9.64,7.77,11.87,2.18l3.52,1.4,2.45,1.26s4.27,1.3,4.94,8.66a30,30,0,0,0,1.88,8.84S74,51.8,69.59,52.76a9.73,9.73,0,0,0-2.38,1h0c-.08.13-1.91,11.08-1.93,11.26-.35,3.13,0,6.33-.27,9.47a36.4,36.4,0,0,0-.29,5.9A9.1,9.1,0,0,1,62,81.91a18.77,18.77,0,0,1-6.41.71S41,80.88,35.71,78.34c-.49-.24-2.81-.3-3-.74s1.52-3.49,1.56-4l.24-2.71c.63-6.72,3.82-15.14,4.85-19.32l-3.75-1.92-5.14-1.5A51.76,51.76,0,0,1,37,33.67Z"/><path class="cls-4" d="M31.61,48.47l4,1.16,4,1.14L36.13,63.48l.19,1.84a22.65,22.65,0,0,1,0,4.8l-1.52,14-3.63.49s-2.05-17.86-1.94-20.78A97.79,97.79,0,0,1,31.61,48.47Z"/><path class="cls-4" d="M36.65,97.1a24.89,24.89,0,0,0-2.2-2.61l-.67-3L34.31,90l.77,0s-.1,3.92.49,4.62.92.72.92.72l.59-.87-.41-5.82s-.55-2.5-.75-3.08A12.11,12.11,0,0,0,35,84l0-2.9-4.42.13c.11.8.17,2.15.35,3.06l-.81,6.13,1.14,2.73,1.53,2.45,3.9,2.85S37.34,98.16,36.65,97.1Z"/><path class="cls-15" d="M44.73,40.22a5.35,5.35,0,0,0,.18-1,6.23,6.23,0,0,0-2.64-5.68,5.57,5.57,0,0,0-.85-.5,1.46,1.46,0,0,0-.33-.12s.46.23,1.11.73a6.51,6.51,0,0,1,2.57,5.56c0,.82-.2,1.31-.17,1.32A1.09,1.09,0,0,0,44.73,40.22Z"/><path class="cls-16" d="M133.13,157.19l-21.45,0c0,.7.53.72,1,.72q9.69,0,19.38,0C132.57,157.89,133.09,157.88,133.13,157.19Z"/><path class="cls-16" d="M111.25,127.76a.17.17,0,0,1-.16.15l-.34.24h0a.26.26,0,0,1-.26.26h0a.24.24,0,0,1-.24.26v0l-.24.3a1,1,0,0,0,0,.17c.15.64.13,1.38.87,1.73,1.72-1.26,2.93-3.08,4.68-4.31.25-.17.23-.49.22-.78-.3-.81-1.08-.55-1.66-.75l-.16,0-.34.25h0a.66.66,0,0,1-.5.49h0a.24.24,0,0,1-.25.25h0a2,2,0,0,1-1,1h0a.24.24,0,0,1-.25.25h0a.26.26,0,0,1-.26.25h0Z"/><path class="cls-17" d="M110.7,131.5l.26-.36Z"/><path class="cls-16" d="M115.18,153.28c-1.52,0-2-.47-2-2q0-6.94,0-13.9a1.8,1.8,0,0,1,1.9-2q7.56,0,15.1,0a1.67,1.67,0,0,1,1.83,1.79q.06,7.14,0,14.26c0,1.33-.64,1.83-2,1.83H115.18Z"/><rect class="cls-18" x="107.25" y="124.5" width="7.71" height="3.25" rx="0.74" transform="translate(278.85 136.75) rotate(135)"/><path class="cls-19" d="M109.5,153.84a3.1,3.1,0,0,0,2.18,3.33l21.45,0a3.15,3.15,0,0,0,2.13-3.36c-.06-8.82,0-17.63,0-26.45,0-2.12-1-3.11-3.09-3.11-4.14,0-8.29,0-12.44,0a3.88,3.88,0,0,0-3.25,1.21.76.76,0,0,1-.64.29c0,.29,0,.61-.22.78-1.75,1.23-3,3-4.68,4.31a2.87,2.87,0,0,1,0,.31,13.63,13.63,0,0,0-1,1v0a2.81,2.81,0,0,0-.41,1.8C109.53,140.56,109.55,147.2,109.5,153.84Zm21.23-24.53a1.65,1.65,0,0,1-1.68,1.9c-2.7,0-5.39,0-8.09,0-1.13,0-1.68-.67-1.69-1.89s.5-1.86,1.67-1.89c1.32,0,2.65,0,4,0s2.73,0,4.1,0C130.15,127.46,130.72,128.1,130.73,129.31Zm-17.56,8.07a1.8,1.8,0,0,1,1.9-2q7.56,0,15.1,0a1.67,1.67,0,0,1,1.83,1.79q.06,7.14,0,14.26c0,1.33-.64,1.83-2,1.83H115.18c-1.52,0-2-.47-2-2Q113.16,144.34,113.17,137.38Z"/><polygon class="cls-15" points="39.52 50.77 40.6 51.08 43.95 42.29 41.09 51.54 39.56 51.2 39.52 50.77"/><polygon class="cls-15" points="67.21 53.79 68.78 42.29 67.69 53.56 67.21 53.79"/><path class="cls-5" d="M55.31,158.77a16,16,0,0,0-4.14.22,22.28,22.28,0,0,1-4.24.19c-3.27-.16-5.86-.34-9.13-.53-.68,0-.63-.88-.2-.86,3.58.12,6.65.43,10,.58a23.54,23.54,0,0,0,4.36-.25A15.43,15.43,0,0,1,56,158c.28,0,.16.37.05.51a.85.85,0,0,1-.75.28Z"/></g><g id="Layer_3" data-name="Layer 3"><path class="cls-20" d="M51.13,20.62v0S51.12,20.62,51.13,20.62Z"/><path class="cls-4" d="M57.68,27.79l3.54.33L63,28c.18,0,1.19-1.68,1.34-1.89a15.68,15.68,0,0,0,1.42-2.27A14,14,0,0,0,67,21.37a4.62,4.62,0,0,0,0-2.46,1.74,1.74,0,0,1,.09-.93c.25-.67.41-1.46.72-2.35a1.63,1.63,0,0,0,.14-.49s.66-3.79.15-5.25a4.15,4.15,0,0,0-2.43-2.6,21.49,21.49,0,0,0-4-.6l-4-1.12L54,6.84l-2.31,4-.39,4.94,0,4.45"/><path class="cls-21" d="M52.53,15.56c0,.38.2,2.33.19,2.71L50.77,18c-.43-1.37-.94-3-1.12-3.37-.28-.59,1.07-3.16,1.18-4.15l0-.22c.1-1,1.2-2.35,3-3.73,3-2.38,2.89-2.43,7-1.61l.83.2c2.53.72,4.69,1,6.06,3.34,1,1.71.34-.37.1.71.21-2.16.39-.34.2-.62-1.11-1.64-2-.15-2.57-.32a2.14,2.14,0,0,0-1.07,0,5.2,5.2,0,0,1-1.89-.28c-.48-.14-1.7-.58-1.8-.62-.3-.28.15-1.53-.45-1.7A8.87,8.87,0,0,0,56,5.77c-.86.28-2.91.85-2.92,3.06"/><path class="cls-21" d="M62.71,27.44l-.07,0c-.34-.29-.35-.44-.52-.51l-.19-.07c-.52-.14-.84-.24-2.37.47,0,0-1.85-.46-1.89-.47l-.89-.58c-.15-.12-3.33-3.61-3.33-3.61s-.6-.91-.61-1l0,0h0v0a.5.5,0,0,0,0,.12,1.71,1.71,0,0,0,0,.55c0,.27.06.55.09.83l.06.29c.37.3,2.54,3.92,3.92,4.85a6.85,6.85,0,0,0,1.19.34,12,12,0,0,0,4.51.28,1.34,1.34,0,0,0,1-.64,25,25,0,0,0,2.32-4.64l-2.43,3.86s-.6,0-.65,0"/><path class="cls-4" d="M51.64,20.77c-1.79,1.34-1.76-1.33-1.76-1.33a5.13,5.13,0,0,1-.53-3.86c.18-1,1.24-.8,1.24-.8.89.23,1.22.77,1.54,3.93"/><path class="cls-21" d="M64.94,7.26c-1.47-.22-5.2-1.73-7.18-2.11-.82-.15-3.83,1.54-4.25,2-.95,1,.63,3.65-1.22,6.87-.6,1.07-1-1-1.69-.32s-1,.93-1,.93c0-3.31,0-3.2,1.11-6.32s4.8-4.08,6.53-4.13,7.09,1.17,8.48,2"/><path class="cls-22" d="M51.48,18a8.84,8.84,0,0,0-.55-1.4,2.49,2.49,0,0,0-.44-.62.56.56,0,0,0-.26-.17c-.11,0-.18.08-.24.16a2,2,0,0,0-.26,1.27c0,.06.16,0,.16,0a1.91,1.91,0,0,1,.14-1,1,1,0,0,1,.2-.3l-.09,0s0,0,0,0a.66.66,0,0,1,.17.12,3,3,0,0,1,.58.91,10.9,10.9,0,0,1,.39,1.09c0,.07.18,0,.16,0Z"/><path class="cls-22" d="M51.09,18.14c-.6-.11-.38.81-.46,1.13a.14.14,0,0,0,0,.06h0c0,.05,0,0,0,0s0-.05,0,0l0-.09a2.82,2.82,0,0,1-.09-.64,2.35,2.35,0,0,1,0-.75c.07-.28.21-.7.52-.79.1,0,.07-.13,0-.1a1,1,0,0,0-.59.67,2.12,2.12,0,0,0-.12.71,4.73,4.73,0,0,0,.05.75c0,.11,0,.31.16.37a.18.18,0,0,0,.24-.11.68.68,0,0,0,0-.35c0-.17-.07-.79.24-.73.08,0,.16-.1.05-.12Z"/><path class="cls-21" d="M59.58,16.17a.59.59,0,0,0-.65,0,.51.51,0,0,0-.21.24.57.57,0,0,0,.06.55.53.53,0,0,0,.6.2.58.58,0,0,0,.4-.65.48.48,0,0,0-.2-.36"/><path class="cls-21" d="M66.05,17.18a.61.61,0,0,1,.62.21.6.6,0,0,1,.13.29.57.57,0,0,1-.22.51.56.56,0,0,1-.64,0,.6.6,0,0,1-.19-.74.51.51,0,0,1,.3-.29"/><path class="cls-21" d="M64.05,17.75A3.68,3.68,0,0,1,65.76,17c1,.06,1.2.31,1.47.8A2.13,2.13,0,0,0,66,17.25,6.8,6.8,0,0,0,64.05,17.75Z"/><path class="cls-21" d="M61,17.05a6.17,6.17,0,0,0-1.88-1.17,3.41,3.41,0,0,0-2.59.64,6.69,6.69,0,0,1,2.32-.47A11.53,11.53,0,0,1,61,17.05Z"/><path class="cls-21" d="M61.77,13.79c0,.23-.09.46-.13.69s-.11.58-.14.75c-.52-.26-1-.57-1.32-.7a6.32,6.32,0,0,0-2.1-.61,2.33,2.33,0,0,0-1,.13c-.1,0-.39.24-.52.15s.1-.3.11-.33a1.54,1.54,0,0,1,1.44-.69,10.33,10.33,0,0,1,3.65.61"/><path class="cls-21" d="M68.14,15.06l-.37-.19a9,9,0,0,0-3.3-.81l-.15.68c0,.17-.12.49-.15.66.53,0,1-.12,1.34-.11a6,6,0,0,1,2,.28l.36.16C68.17,15.46,68.22,15.13,68.14,15.06Z"/><path class="cls-21" d="M60.24,24.54l2.5.24s-.73.88-1.33.79C61,25.51,60.58,25,60.24,24.54Z"/><path class="cls-23" d="M62.74,21.43a1.09,1.09,0,0,1-1-.21c-.06,0-.28,0-.2,0a1.53,1.53,0,0,0,1.36.27s0,0,0-.06a.18.18,0,0,0-.16,0"/><path class="cls-23" d="M61.44,21.14a1.72,1.72,0,0,0-.59-.25.12.12,0,0,0-.1,0s0,0,0,.05a.61.61,0,0,0,.32.13.11.11,0,0,0,.11,0s0,0,0,0a.54.54,0,0,1-.27-.11l-.1.07a1.78,1.78,0,0,1,.53.23.11.11,0,0,0,.11,0s.06,0,0-.06"/><path class="cls-23" d="M60.59,21a.86.86,0,0,1-.62-.41.73.73,0,0,1,.44-.88s0,0,0-.05a.22.22,0,0,0-.14,0,.92.92,0,0,0-.52.74.71.71,0,0,0,.5.6l.27.08s.11,0,.13,0,0,0,0-.05"/><path class="cls-23" d="M63.22,21.37a0,0,0,0,1,0-.05.25.25,0,0,0,.2,0l0,.09a.87.87,0,0,0-.41.09.08.08,0,0,1-.08,0s0-.05,0-.06"/><path class="cls-23" d="M63,21.38a1,1,0,0,1,.46-.1.12.12,0,0,1,.07,0,0,0,0,0,1,0,.05"/><path class="cls-23" d="M63.73,21.48a.5.5,0,0,0,.48-.25.77.77,0,0,0-.07-.84s0-.05,0-.06a.1.1,0,0,1,.08.05.84.84,0,0,1,.16.73.58.58,0,0,1-.45.45.59.59,0,0,1-.19,0,.09.09,0,0,1-.07-.05s0,0,0,0"/><path class="cls-21" d="M65.64,8a.83.83,0,0,0-.41-.2l-.16-.08c-.49-.07-1-.12-1.49-.16a1.15,1.15,0,0,0-.37,0h0c-.36-.06-.73-.12-1.09-.16l-.18,0a.93.93,0,0,0-.45.07.15.15,0,0,0,0,.27c.15.07.38,0,.47.12s-.13.21-.08.33.17.12.25.18.11.18.2.25a.5.5,0,0,0,.38.1c.14,0,.34,0,.37.1s0,.06,0,.08a.28.28,0,0,0,.18.29.5.5,0,0,0,.4,0c.1-.06.15-.17.27-.22l.11,0a.27.27,0,0,0,.12.09.47.47,0,0,0,.4,0c.11-.06.16-.17.27-.22s.23-.06.28-.13-.11-.31,0-.4.33,0,.49,0A.17.17,0,0,0,65.64,8Z"/><path class="cls-21" d="M59.78,27.54a.74.74,0,0,0,.34.14l.14.05c.4,0,.81,0,1.21,0a1,1,0,0,0,.3,0h0l.9.06.13,0a.8.8,0,0,0,.36-.09.12.12,0,0,0,0-.22c-.12,0-.3,0-.38-.06s.09-.18,0-.28-.14-.08-.21-.12-.1-.14-.18-.19a.44.44,0,0,0-.32-.06c-.11,0-.26,0-.29-.06a.06.06,0,0,1,0-.06.24.24,0,0,0-.17-.22.36.36,0,0,0-.32,0c-.08.06-.11.15-.2.2l-.09,0-.1-.07a.38.38,0,0,0-.33,0c-.08.05-.11.14-.2.19s-.18.06-.22.13.11.24,0,.32-.27,0-.39,0A.14.14,0,0,0,59.78,27.54Z"/><path class="cls-24" d="M49.82,14.83a1.05,1.05,0,0,1-.43-.15.32.32,0,0,1-.11-.4c.12-.2.52-.2.53-.44-.17-.25-.65-.21-.73-.51s.2-.42.43-.53c-.13-.15-.1,0-.3-.09S49,12.14,49.1,12s.2,0,.15-.24c-.15-.07.21-.16.1-.29a.38.38,0,0,1,0-.46.83.83,0,0,0,.14-.49c0-.17.35-.16.27-.31s.13-.58.38-.76c-.12-.1,0-.11,0-.26a.41.41,0,0,1,.06-.46,2.29,2.29,0,0,1,.27-.14c.35-.22.21-.75,0-1.13A.6.6,0,0,0,51.11,7a1.77,1.77,0,0,1,.08-.4c.07-.12.26-.19.33-.07"/><path class="cls-21" d="M49.89,14.7c-.32,0-.62-.26-.26-.51,0,0,.13-.06.18-.1s.2-.16.18-.28c-.05-.36-1.38-.43-.4-.91,0,0,.16-.11.09-.17s-.17-.06-.3-.13a.42.42,0,0,1-.07-.62c.06-.08.13-.05.14-.18a.91.91,0,0,0-.06-.16c0,.06.11,0,.11-.05s.06-.11,0-.22a.31.31,0,0,1,0-.37.33.33,0,0,0,.07-.13c0-.09,0-.19.07-.27s.21-.2.27-.34,0-.07,0-.12a.32.32,0,0,1,0-.35,1.1,1.1,0,0,1,.29-.28s.1-.1.05-.15,0-.31,0-.33c0-.32.33-.35.47-.56a1.18,1.18,0,0,0-.08-1.08l-.25.17a.91.91,0,0,0,.69-.19.68.68,0,0,0,.18-.23,3.05,3.05,0,0,0,.14-.48c.11.09.44-.07.29-.2a.39.39,0,0,0-.47,0c-.36.2-.14.92-.7.87-.07,0-.3,0-.25.17a1.37,1.37,0,0,1,.17.74c-.06.31-.35.29-.5.51a.56.56,0,0,0-.06.38c0,.13,0,.29.07.39l0-.15a1.08,1.08,0,0,0-.49.64s0,.19,0,.19c0,.15,0,0,0,.09s-.14.09-.18.18,0,.28-.1.42-.13.18-.13.32.11.25.08.36-.1.1-.11.17a.07.07,0,0,0,0,.08v.08l.11-.12a.55.55,0,0,0-.33.66.51.51,0,0,0,.17.34c.09.08.27.06.32.11l.09-.17c-.24.11-.58.31-.54.62a.38.38,0,0,0,.18.28c.1.07.43.12.47.22s-.2.21-.3.29a.41.41,0,0,0-.18.28c0,.39.41.5.69.55s.38-.2.14-.25Z"/><path class="cls-25" d="M51.33,7.2c.06-.17.33-1,.39-1.19a.42.42,0,0,0,.57-.28c0-.13,0-.28.1-.34s.24.05.37.05c.28,0,.37-.43.64-.49s.35.08.52,0,.34-.43.6-.51.36.06.54,0c.4-.06.59-.61,1-.57.14,0,.27.13.41.13s-.09-.3.17-.31.4.26.63.32c.38.08.71-.53,1.06-.35.14.08.21.27.35.36.34.2.76-.27,1.13-.14.19.07.3.27.49.32s.57-.27.87-.22.39.34.64.35-.23-.22-.06-.23.47.33.75.42a1.63,1.63,0,0,0,.72-.06c.24,0,.7.48.68.73"/><path class="cls-21" d="M51.51,7.18c.14-.4.26-.8.39-1.2l-.33.11a.78.78,0,0,0,.54,0c.29-.12.3-.48.43-.55s.32,0,.45-.06.16-.15.26-.23.28-.11.55-.14a.72.72,0,0,0,.4-.14c.24-.17.23-.32.56-.34a1.71,1.71,0,0,0,.32,0c.3-.06.44-.28.68-.43s.51,0,.81,0c0,0,.14,0,.16-.11s0-.1,0-.1.21.15.27.18a.75.75,0,0,0,.55,0c.09,0,.16-.09.24-.12l.12-.08q.34-.17.48.12c.23.11.26.2.54.17a2.1,2.1,0,0,0,.24-.06,1,1,0,0,1,.61-.06l.23.19a.69.69,0,0,0,.47.07c.09,0,.15-.06.23-.08a.54.54,0,0,1,.56,0,1.46,1.46,0,0,0,.24.17.48.48,0,0,0,.37,0s.19-.06.16-.12c-.11-.23-.07.05,0,.17a.8.8,0,0,0,.49.2,4.87,4.87,0,0,1,.54,0,.7.7,0,0,1,.62.62c0,.09.38,0,.37-.1a.88.88,0,0,0-.93-.75,1.71,1.71,0,0,1-.86-.18c-.11-.07-.14-.13-.28-.17a.55.55,0,0,0-.42,0s-.09,0-.08.09.11.12.14.2l.17-.12s-.32-.27-.37-.29A.64.64,0,0,0,61.09,4c-.33,0-.51.24-.87.08s-.35-.24-.67-.19c-.13,0-.27.12-.39.13-.55,0-.36-.17-.67-.32a.59.59,0,0,0-.47,0c-.11,0-.2.12-.3.16a.94.94,0,0,1-.66,0c-.19-.06-.33-.18-.53-.08s-.1.12-.18.22,0,.08.12,0a1.25,1.25,0,0,0-.27-.1.7.7,0,0,0-.25,0,1.06,1.06,0,0,0-.5.27,1.11,1.11,0,0,1-.64.25,1.62,1.62,0,0,0-.31,0c-.25.07-.3.28-.49.39s-.45,0-.68.08-.31.35-.5.42-.33-.07-.51,0-.25.65-.45.6-.3,0-.34.11c-.13.39-.25.8-.38,1.19,0,.1.33,0,.36-.05Z"/><path class="cls-26" d="M55.47,5.37a4.25,4.25,0,0,0-2.94,2.1l8.36-1.92a7.09,7.09,0,0,0-1.72-.38A9.39,9.39,0,0,0,55.47,5.37Z"/><path class="cls-21" d="M55.45,5.3A6,6,0,0,0,53.69,6a5.26,5.26,0,0,0-1.33,1.45c-.08.11.14.09.19.07l7.32-1.68,1-.24s.26-.12.13-.16a10.21,10.21,0,0,0-5.59-.16c-.22,0-.18.21,0,.15a9.66,9.66,0,0,1,5.25.18l.13-.16L53.55,7.15l-1,.24.19.07a5.35,5.35,0,0,1,1.13-1.29,4.74,4.74,0,0,1,1.66-.72C55.71,5.39,55.67,5.24,55.45,5.3Z"/><path class="cls-26" d="M67,6.74l-.11-.06c-.18-.13-.29-.43-.11-.54-.4.11-.61-.59-1-.63-.12,0-.24,0-.36,0a.55.55,0,0,1-.55-.61,1.29,1.29,0,0,1-1,0l-3,.61c1.22.39,2.44,1,3.63,1.28a4.94,4.94,0,0,1,1.63.61c.36.24.82.4,1.19.65C67.23,7.64,67.13,7.19,67,6.74Z"/><path class="cls-21" d="M67.17,6.65c-.13-.07-.41-.32-.22-.48s0-.15-.12-.14c-.26.06-.54-.46-.76-.57a.82.82,0,0,0-.41,0c-.34,0-.64-.1-.62-.49,0-.12-.19-.08-.26,0a1.29,1.29,0,0,1-.8,0h-.17l-.19,0-1,.2-1.75.36s-.26.14-.12.19c1.13.37,2.22.9,3.37,1.22a7.94,7.94,0,0,1,1.65.53c.47.26,1,.5,1.42.79.08.05.36,0,.33-.14-.1-.45-.2-.9-.31-1.35,0-.13-.41,0-.38.1.11.45.22.9.32,1.35L67.48,8c-.43-.29-.92-.51-1.37-.76a6,6,0,0,0-1.54-.53c-1.21-.3-2.34-.86-3.53-1.26l-.12.19L63.86,5h-.17a1.71,1.71,0,0,0,1.24,0l-.26,0a.63.63,0,0,0,.28.58.64.64,0,0,0,.3.11c.17,0,.36-.08.52,0,.4.16.5.7,1,.6l-.13-.13c-.29.24,0,.57.22.72S67.32,6.74,67.17,6.65Z"/><path class="cls-24" d="M65.23,25.27a4.08,4.08,0,0,1-.56,1c.13.06,0,.27-.06.36s-.28.17-.27.32a.74.74,0,0,1,0,.14c0,.16-.18.24-.34.26.09.09,0,.25-.12.32s-.26.16-.24.29.07.12.06.19-.24.11-.33.22,0,.15-.06.22a.26.26,0,0,1-.4.09c-.06.27-.22.61-.49.57S62.14,29,62,29.1s-.15.14-.25.19c-.32.16-.63-.51-.95-.35s-.19.37-.38.42-.31-.18-.49-.22-.41.14-.57,0-.11-.14-.17-.2-.3,0-.49.07c-.35.07-.35-.17-.35-.17-.08-.24-.21-.24-.44-.14a.7.7,0,0,1-.24.09c-.2,0-.27-.37-.47-.37a.58.58,0,0,0-.22.08.35.35,0,0,1-.37-.51.57.57,0,0,1-.49-.67.54.54,0,0,1-.61-.52.51.51,0,0,1-.5-.7.42.42,0,0,1-.49-.44c0-.13.09-.29,0-.37s-.17,0-.25-.05A.32.32,0,0,1,54,24.8a.46.46,0,0,1-.38-.72.36.36,0,0,1-.29-.57.54.54,0,0,1-.32-.84l3.78,4.79,1,.61s3.84.75,4.6.5S65.23,25.27,65.23,25.27Z"/><path class="cls-21" d="M65,25.3a4.51,4.51,0,0,1-.55,1s0,0,0,0-.44.94-.48.95-.19.06-.17.11c.09.28-.25.31-.33.48s.07.18-.09.38c0,0-.15.06-.19.12s-.06.27-.12.24-.33,0-.36.09c-.14.53-.47.2-.84.34-.12,0-.18.15-.3.14s-.31-.27-.47-.32a.59.59,0,0,0-.53.09s-.09.11-.14.14-.1.06-.26,0-.25-.05-.4-.06c-.41,0-.5-.24-.89-.19-.17,0-.3,0-.42-.06s0-.19-.25-.23-.21,0-.31.05-.12.07-.17.06-.19-.2-.32-.27-.94.23-.69-.44c0,0,0,0,0,0a.58.58,0,0,1-.46-.65s-.09,0-.1,0a.49.49,0,0,1-.5-.49s0,0-.07,0a.47.47,0,0,1-.44-.66c0-.05-.07,0-.1,0-.6,0-.25-.53-.4-.79s-.64,0-.48-.5c0,0,0,0-.06,0a.43.43,0,0,1-.32-.67s0-.05-.06-.05a.33.33,0,0,1-.23-.52s0,0,0,0a.53.53,0,0,1-.29-.81l-.36.1,1.89,2.4L56,26.77a5.48,5.48,0,0,0,.6.75,5,5,0,0,0,2.75.92,19.14,19.14,0,0,0,2.25.26,1.9,1.9,0,0,0,1.19-.25,7.52,7.52,0,0,0,1.52-1.71c.37-.49.73-1,1.07-1.51,0,0-.31,0-.37.07a18.17,18.17,0,0,1-2.11,2.76,1.32,1.32,0,0,1-.69.48,3.55,3.55,0,0,1-.92,0c-.75-.06-1.49-.18-2.23-.3A3.85,3.85,0,0,1,57,27.37a7.51,7.51,0,0,1-.66-.83l-1.18-1.49L53.19,22.6c-.06-.07-.32,0-.36.1-.24.41,0,.53.21.84.08.14,0,.12.05.27s.2.2.26.33,0,.4.2.62.17.08.23.18,0,.21.12.31.38.08.46.22-.1.36,0,.55.22.1.3.19,0,.11.07.25a.67.67,0,0,0,.28.38,1.29,1.29,0,0,1,.34.32.9.9,0,0,0,.26.22c.27.17.14,0,.29.32.08.17.22.21.32.35s.06.22.14.33c.19.27.3.19.58.21s.3.27.55.3.19-.05.28-.05.24.09.36.16a.52.52,0,0,0,.47.11c.09,0,.21-.1.28-.09s.23.22.4.26.19,0,.29,0c.3,0,.26.09.5.16a.63.63,0,0,0,.53-.1c.07-.06.15-.27.26-.27s.33.28.47.32a.79.79,0,0,0,.5-.06c.23-.07.18,0,.38,0a.91.91,0,0,0,.33,0,.8.8,0,0,0,.55-.66l-.36.09a.5.5,0,0,0,.46,0c.27-.09.21-.22.38-.4s.22-.15.31-.28a.38.38,0,0,1,.14-.42l.13-.11c0-.17.09-.11,0-.27l-.17.11c.52-.12.47-.37.72-.8a.94.94,0,0,0,.14-.33c.11-.37.36-.69.5-1.05C65.44,25.17,65.08,25.2,65,25.3Z"/><path class="cls-27" d="M52.57,15.8c.43-.34,0-1.11.36-1.53.08-.1.2-.17.26-.27.2-.3,0-.72.12-1,.07-.14.22-.24.28-.38s-.12-.6-.06-.89.5-.58.41-.9c0-.16-.22-.26-.26-.43s.28-.6.09-.82-.18-.11-.23-.19.12-.35.22-.53a2.05,2.05,0,0,0,.1-.61c0-.21.26-.41.45-.31-.08-.33.2-1.2.54-1.12.17,0,.38.13.48,0s0-.25.08-.35c.16-.26.59.2.86,0,.07-.05.11-.13.17-.18a.52.52,0,0,1,.54,0,1.17,1.17,0,0,0,.54.16c.19,0,.37-.23.27-.39a1.38,1.38,0,0,0,.59.3.5.5,0,0,0,.56-.26.44.44,0,0,0,.72.26c.09-.09.16-.23.29-.23a.32.32,0,0,1,.15.06c.21.14.44.86.54,1.09l0-1.39-3.79-.93L53.53,6.52,52,10.4l.76,5.67"/><path class="cls-21" d="M52.74,15.78A1,1,0,0,0,53,15a1.46,1.46,0,0,1,.07-.66c.09-.16.25-.24.34-.39a.82.82,0,0,0,.07-.44,1.18,1.18,0,0,1,.22-.81c.21-.32.08-.48,0-.84s.39-.59.41-1c0-.15-.06-.22-.14-.34a.61.61,0,0,1-.06-.57c0-.12.11-.24.08-.37s-.33-.14-.25-.54c0-.14.19-.27.23-.43S54,8,54.15,8s.35,0,.34-.12,0-.79.25-.93.31,0,.51,0a.49.49,0,0,0,.3-.26.25.25,0,0,0-.06-.21l.19.06a2.76,2.76,0,0,0,.27.08.76.76,0,0,0,.42-.08c.12,0,.16-.18.32-.2s.36.16.49.18c.32.07.88-.06.79-.49l-.36.11c.46.32,1.16.52,1.51,0l-.36.08a.53.53,0,0,0,.62.39c.31,0,.37-.27.63-.37l-.24,0c.42.17.53.75.68,1.14,0,.08.37,0,.38-.1l0-1.39s0,0,0,0L59.1,5.37a19.4,19.4,0,0,0-2-.48,1.91,1.91,0,0,0-1,.33l-2.23,1c-.36.17-.52.19-.67.55L52.37,9l-.43,1a2.39,2.39,0,0,0-.18.44,5,5,0,0,0,.16,1.21l.6,4.48c0,.07.39,0,.37-.1l-.53-4a8.19,8.19,0,0,1-.22-1.62,6,6,0,0,1,.51-1.32l.93-2.28c0-.09.2-.38.07-.27a3.81,3.81,0,0,1,.71-.33l2.28-1.07A1,1,0,0,0,56.93,5c.14-.11-.19,0-.16,0s.61.15.7.17l2.7.67c.33.08.33,0,.32.3l0,1.15.38-.1c-.14-.34-.28-1.09-.72-1.17s-.83.58-1,0c0-.09-.34,0-.37.09-.2.32-.62,0-.8-.14s-.38,0-.36.11-.85,0-1,.07-.31.22-.43.25c-.29.06-.59-.28-.88,0-.12.1,0,.09-.12.21s.05.05-.22.11a1.29,1.29,0,0,0-.38.08A1.24,1.24,0,0,0,54.12,8l.34-.12a.68.68,0,0,0-.52.07c-.36.22-.21.62-.37.95-.07.16-.26.29-.22.48s.3.26.26.57-.16.32-.11.51.25.3.25.54-.45.58-.4,1c0,.11,0,.2.07.31a.66.66,0,0,1-.19.57.86.86,0,0,0-.16.38c0,.31.08.59-.12.88-.1.13-.22.2-.29.36-.18.44.1,1-.25,1.34-.08.08.27,0,.33,0Z"/><path class="cls-24" d="M52.27,18.29l.33.07a.17.17,0,0,0,.1,0c.07,0,0-.15,0-.23a.83.83,0,0,1,.2-.55A.53.53,0,0,0,53,17c-.06-.09-.17-.15-.17-.25s.17-.19.27-.29A.32.32,0,0,0,53,16a1,1,0,0,0,.23-.76,10.59,10.59,0,0,0-.13-1.09l-.72-.51Z"/><path class="cls-21" d="M52.12,18.37c.2,0,.65.19.79-.07s0-.29,0-.42.22-.35.28-.54a.49.49,0,0,0-.08-.44c-.05-.06-.15-.12-.12-.22s.17-.13.23-.18a.37.37,0,0,0-.07-.61V16c.44-.41.21-1.26.14-1.77,0-.17-.12-.2-.27-.3l-.49-.35c-.07,0-.36,0-.36.12l-.09,4.1v.59c0,.07.36,0,.37-.1l.09-4.1v-.59l-.36.11.44.31c.13.09.27.15.29.27a9.82,9.82,0,0,1,.12,1.09,1,1,0,0,1-.22.64s0,0,0,0a.29.29,0,0,1,.17.22c0,.16-.05.23-.16.32s-.26.21-.14.38.19.2.17.39a1,1,0,0,1-.16.34,1.06,1.06,0,0,0-.16.38c0,.08.06.26,0,.32l.2-.09a1.16,1.16,0,0,1-.31-.07.48.48,0,0,0-.26.05S52,18.35,52.12,18.37Z"/><path class="cls-27" d="M66.3,7.29c0,.1.08.2.2.23s.26.06.27.18-.06.14,0,.21c0,.22.45.08.54.28s-.13.35,0,.47.15.05.22.06a.33.33,0,0,1,.27.27c0,.1,0,.21,0,.3s.19.14.3.2a.92.92,0,0,1,.28.87,1.14,1.14,0,0,0,.16.93c.24-.17,0-.4-.14-.65a1.76,1.76,0,0,1-.14-.23.19.19,0,0,1,0-.24s.08,0,.11-.07-.14-.16-.24-.24,0-.3.09-.42.24-.27.17-.41-.24-.16-.3-.28,0-.31,0-.47S67.86,8,67.66,8a.34.34,0,0,0-.09-.52c-.08,0-.18,0-.22-.11s0-.26-.06-.35-.21,0-.29-.1.07-.32,0-.47-.52-.18-.47-.39"/><path class="cls-21" d="M66.12,7.31c-.06.3.27.23.4.35s-.1.35.16.46.46,0,.38.31,0,.32.18.38.27,0,.31.23,0,.24.06.35a.67.67,0,0,0,.25.16.55.55,0,0,1,.26.3c.17.5-.16,1.06.21,1.51.07.08.26,0,.33,0a.33.33,0,0,0,.1-.41c-.08-.19-.34-.39-.35-.6s.21-.16.17-.32-.42-.14-.23-.46c.09-.15.29-.28.27-.48s-.35-.23-.34-.47.11-.34,0-.5a.83.83,0,0,0-.49-.23l.06.1a.4.4,0,0,0,0-.56l-.14-.07c-.12-.06-.12-.07-.14-.2s0-.17-.07-.24-.28,0-.27-.25.07-.21,0-.32-.46-.19-.45-.32-.36-.08-.37,0,.18.24.33.31c.31.14,0,.37.14.58s.17,0,.25.1,0,.23.09.35.17.1.26.15a.27.27,0,0,1,.06.42c0,.06,0,.1.06.11.24,0,.45.13.4.42,0,.14-.08.27,0,.4s.39.17.21.44-.25.25-.26.43.08.2.19.27a.2.2,0,0,1,.07.06s0,0,0,0-.09.08-.11.13c-.15.33.6.77.31,1l.32,0c-.35-.42,0-1-.2-1.49a.78.78,0,0,0-.41-.39c-.24-.13-.07-.46-.3-.63-.08-.06-.16,0-.24-.09s-.11-.14-.08-.29A.26.26,0,0,0,67.26,8,2,2,0,0,0,67,8c-.18,0-.06-.16-.07-.29s-.5-.22-.46-.39-.35-.08-.37,0Z"/><path class="cls-28" d="M56,15.57l.16.75a9.61,9.61,0,0,0,.66,2.06c.23.46,3.24,1,3.88.74s1.17-1.93,1.38-2.31l1.21.22a9.7,9.7,0,0,0,.44,2.43c.2.25,1.6.39,1.76.4l.51,0a3,3,0,0,0,1.4-.15,7.44,7.44,0,0,0,1.17-2.28l.07-.15s0-.07,0-.08h0l.07-.18a5.78,5.78,0,0,0-5.48-.35v0l-1.17-.22a6.63,6.63,0,0,0-5.23-1.38h0l-4.78.71-.07.45Zm7.89,3.75a10.29,10.29,0,0,1-.39-2.23,5.49,5.49,0,0,1,4.88.28v0a9,9,0,0,1-1.1,2.18,7.23,7.23,0,0,1-3.39-.25Zm-6.7-1a9,9,0,0,1-.83-2.72,7.15,7.15,0,0,1,5.42,1.23c-.3.69-.71,1.9-1.17,2.09a6.37,6.37,0,0,1-3.42-.6Z"/><path class="cls-29" d="M62.07,22.74a9.06,9.06,0,0,0-3.43.4,6.2,6.2,0,0,0,3,1.11c2.11.28,2.55-.35,2.55-.35A4.42,4.42,0,0,0,62.07,22.74Z"/><path class="cls-30" d="M59.55,22.89s1.09.07,2,.18,1.94.35,1.94.35.22-.59-1.35-.8A4.75,4.75,0,0,0,59.55,22.89Z"/><path class="cls-31" d="M61.73,24a15.32,15.32,0,0,0-3.09-.84s.15,1.29,2.63,1.63,3-.87,3-.87A9.41,9.41,0,0,0,61.73,24Z"/><path class="cls-31" d="M63.22,22.42a5.54,5.54,0,0,0-1.1,0,4.9,4.9,0,0,0-1.06-.29c-.49,0-2.71.81-2.5,1s1.93-.43,3.49-.22,2,1.11,2.27,1S63.7,22.52,63.22,22.42Z"/><path class="cls-21" d="M58.39,22.13a.86.86,0,0,0-.39.43.81.81,0,0,0,0,.22l0,.33a.19.19,0,0,0,0,.07.07.07,0,0,0,.06,0,.6.6,0,0,0,.22.06.18.18,0,0,0,.18-.13.25.25,0,0,1,0-.09c0-.05.12,0,.18,0s.21-.21.29-.34a.81.81,0,0,1,.53-.31,1.65,1.65,0,0,0,.32-.07.32.32,0,0,0,.19-.23"/><path class="cls-21" d="M65,23a.58.58,0,0,1,.19.74l-.11.31,0,.06-.07,0a.45.45,0,0,1-.23,0,.21.21,0,0,1-.13-.17.17.17,0,0,0,0-.1c0-.06-.09-.06-.15-.09s-.15-.25-.19-.4a.84.84,0,0,0-.42-.45,1.84,1.84,0,0,1-.28-.15.3.3,0,0,1-.13-.28"/><path class="cls-21" d="M58.72,21.88c.07-.07.12-.05.21-.05a.5.5,0,0,0,.24,0,.37.37,0,0,0,.17-.1l.07-.09,0,0c-.05,0-.05,0,0,0s.14.1.18.12a.36.36,0,0,0,.18,0,.64.64,0,0,0,.23-.05l.09-.05,0,0s0,0-.06,0a.85.85,0,0,0,.14.11.42.42,0,0,0,.22,0,.68.68,0,0,0,.4-.21s0,0,0,0,0,0,0,0l.1.05a.59.59,0,0,0,.19.05.53.53,0,0,0,.39-.16c.05-.06,0-.09-.1-.09a.35.35,0,0,0-.25.1c.12,0,.16,0,.1-.06l0,0-.12-.06a.5.5,0,0,0-.21,0,.65.65,0,0,0-.42.21s0,0,0,0,0,0,0,0l-.08-.06a.34.34,0,0,0-.17-.05.71.71,0,0,0-.24.06l-.09,0,0,0h0c.06,0,0,0-.05-.05l-.09-.06a.45.45,0,0,0-.2,0,.62.62,0,0,0-.43.18l-.07.07s0,0,0,0,0,0,0,0a.7.7,0,0,0-.25,0,.88.88,0,0,0-.43.24c-.06.06,0,.09.1.09a.3.3,0,0,0,.24-.09Z"/><path class="cls-21" d="M62.86,21.94c-.09,0,0,0,0,0l.06,0,.13.1a.55.55,0,0,0,.31.11c.07,0,.06,0,.11.07a.26.26,0,0,0,.14.11.41.41,0,0,0,.22,0l.09,0,.11,0h0s0,0,0,0a.33.33,0,0,0,0,.06.67.67,0,0,0,.06.12.39.39,0,0,0,.32.13s.11,0,.14,0,0,.1,0,.14a.2.2,0,0,0,.13.12l.05,0h0s0-.05,0,0,.16.09.22.07.16-.08.15-.17-.06-.09-.11-.12H65s0,0,0,0,0-.11-.06-.16a.33.33,0,0,0-.2-.09H64.5a.11.11,0,0,1-.1-.08c-.06-.12-.1-.22-.24-.24a.59.59,0,0,0-.26,0l-.1,0s0,0,0,0,0,0,0,0-.21-.18-.34-.19-.19-.09-.27-.15a.47.47,0,0,0-.4-.08c-.06,0-.17.09-.15.17s.15.09.22.07Z"/><path class="cls-21" d="M61.73,21.82l-.17.49a.19.19,0,0,1-.18.13c-.55,0-2.65,0-3.14-.11,0,0,0,.21,0,.2l-.11,0c-.18-.06,0-.66.23-.7a10.93,10.93,0,0,1,1.36-.23,11.62,11.62,0,0,1,1.87,0A.19.19,0,0,1,61.73,21.82Z"/><path class="cls-21" d="M62.36,22l0,.47a.17.17,0,0,0,.13.17c.49.16,2.1.66,2.56.73h.18c.17,0,.13-.4,0-.5a7.22,7.22,0,0,0-2.6-1.06A.19.19,0,0,0,62.36,22Z"/><rect class="cls-4" x="97.64" y="69.68" width="1.51" height="3.36" rx="0.75"/><rect class="cls-4" x="96.3" y="71.36" width="1.51" height="3.36" rx="0.75" transform="translate(-24.38 75.82) rotate(-38.27)"/><rect class="cls-4" x="95.11" y="72.3" width="1.51" height="3.36" rx="0.75" transform="translate(-25.22 75.28) rotate(-38.27)"/><path class="cls-32" d="M97.64,70.43s-2,.5-2.88,0l-.92-.49a3,3,0,0,0,2.32.9,10.73,10.73,0,0,1,1.48-.07s-.57,2.06.76,2.27c0,0,.94.42.86-1.55,0,0-.05,1.38-.73,1.41s-.84-.58-.84-1,.14-1.58.14-1.58Z"/><path class="cls-32" d="M95.85,72.71l1.27,1.67A5.14,5.14,0,0,1,95.85,72.71Z"/></g></svg>