<svg xmlns="http://www.w3.org/2000/svg" viewBox="0 0 165.86 165.86"><defs><style>.cls-1{fill:#95ccdc;}.cls-2{fill:#facf0a;}.cls-3{fill:#50b248;}.cls-4{fill:#d2ad2a;}.cls-5{fill:#59a445;}.cls-6{fill:#377137;}.cls-7{fill:#7cb141;}.cls-8{fill:#b64297;}.cls-9{fill:#b64298;}.cls-10{fill:#c0519e;}.cls-11{fill:#9c3d84;}.cls-12{fill:#af3d94;}.cls-13{fill:#af3e95;}.cls-14{fill:#a4742a;}.cls-15{fill:#b674a6;}.cls-16{fill:#cb76b0;}.cls-17{fill:#d283b7;}.cls-18{fill:#c774af;}.cls-19{fill:#a12383;}.cls-20{fill:#e21f26;}.cls-21{fill:#66b645;}.cls-22{fill:#db838a;}.cls-23{fill:#ed8423;}.cls-24{fill:#e8b28e;}.cls-25{fill:#1faa4a;}.cls-26{fill:#c184b6;}.cls-27{fill:#cfcec6;}.cls-28{fill:#8c8a83;}.cls-29{fill:#61605c;}</style></defs><g id="Layer_3" data-name="Layer 3"><path class="cls-1" d="M71.08,155s-3.18,2.17,9.46,3.48,31.05-5.48,34.56-4.86,23.57,6.49,32.05,6.49,18.27-11,12.23-15.42S134.1,140,134.1,140l-58.38,3.59-6,7.88Z"/><path class="cls-1" d="M17.68,134.06c-2,2.57-6.07-1.08-10.39,8.75-2.65,6-1.86,7.06.31,9.49,3.43,3.83,13.6,4.38,18.25,2.19s6.1-1.79,11.21-1.21c3,.33,5.68,1.92,8.4,3.23a46.29,46.29,0,0,0,16.84,4.6,15.29,15.29,0,0,0,8.38-1.89c2.68-1.58,4.11-4.61,6.61-6.5,3.71-2.81,8.76-3,13.4-2.57s9.36,1.32,13.9.28c3.83-.88,7.79-4.32,6.7-8.1-1-3.53-5.48-4.54-9.15-4.75-25.5-1.44-41.3,0-66.09-6.18"/><path class="cls-1" d="M101.52,113.05c1.41-8.34,10.13-8.13,16.63-10a13.58,13.58,0,0,0,7.24-4.47c2.21-3,2.41-7,1.78-10.63a138.86,138.86,0,0,0-4.65-17.56c-3.19-10.26-9.8-17.78-7.23-31.15-2.74-.06-5.58,1-8.31.95-5.19,15.63,3.87,23.84-3.14,33-7.2,9.42-32.21-2.81-47.42,10S23.11,123.3,38,140.53s83.77,19.11,88.41,3.77S99.5,125,101.52,113.05Z"/><path class="cls-2" d="M66.56,105.13c.65-3.56,1.29-7.14,3.13-10.34C71.27,92,74,91,76.82,90.57a18.08,18.08,0,0,1,10.5,1.34,9.4,9.4,0,0,1,5.76,9,56.22,56.22,0,0,1-1.83,11.6,71.89,71.89,0,0,1-4.82,12.95,53.16,53.16,0,0,1-5.62,9.7,11.63,11.63,0,0,1-4.35,4,3.55,3.55,0,0,1-4.48-.9c-2.26-2.36-3.19-5.37-4-8.41a61.09,61.09,0,0,1-1.85-15.33A55,55,0,0,1,66.56,105.13Z"/><path class="cls-2" d="M88.67,91.71C95.4,90.36,101.43,94,103,100.36a20.23,20.23,0,0,1,.13,10,43.52,43.52,0,0,1-5,12.7c-2.56,4-4.8,8.29-7.76,12a10.94,10.94,0,0,1-9.19,4.22,3.94,3.94,0,0,1-.84-.1c-1.79-.38-2-.8-1-2.25a71.33,71.33,0,0,0,7.79-14,83,83,0,0,0,5.06-17.17,25.44,25.44,0,0,0,0-8.35,9.48,9.48,0,0,0-2.42-4.45C89.44,92.53,89.07,92.16,88.67,91.71Z"/><path class="cls-2" d="M75.19,89.78c-1.89,1.44-3.73,2.26-4.87,4a22.6,22.6,0,0,0-2.81,7.47,58.8,58.8,0,0,0-1,15.4,75.62,75.62,0,0,0,1.32,11.73,33.8,33.8,0,0,0,2.65,8.17c.21.44.47.84.17,1.21s-.74.08-1.12.08c-5.39,0-8-3.63-9.89-7.88a50,50,0,0,1-4.32-18.49c-.21-6.22.54-12.4,4.19-17.82a10.67,10.67,0,0,1,11.3-4.89C72.14,89,73.48,89.39,75.19,89.78Z"/><path class="cls-3" d="M78,90.81a4.27,4.27,0,0,1,1.43-.44c2.2.17,2.54-1.34,2.79-3a17.44,17.44,0,0,0,.4-5.49c-.2-1.24.47-1.62,1.65-1.13,1.84.78,1.92,1.42,1.26,3.26a38,38,0,0,0-1.23,5.56c-.18.89.66.75,1.11.92,3,1.08,4.17,1.87,5.46,4-3.39-2.18-7-2.61-10.63-2.86C79.52,91.28,78.42,92,78,90.81Z"/><path class="cls-3" d="M84.7,89.67a9.93,9.93,0,0,0-12.56,2.7s8.33-1.18,12.33-1"/><path class="cls-4" d="M90.86,94.51s10.51,14-12.06,43.46c0,0,15.32-15.17,16-33.24C94.77,104.73,94.35,96.17,90.86,94.51Z"/><path class="cls-4" d="M72.14,92.42S58,102.72,70.92,137.51c0,0-10.19-19-5.52-36.46C65.4,101.05,68.31,93,72.14,92.42Z"/><path class="cls-5" d="M111.63,129.74c.06-.47.28-.94,0-1.43.9-1.45,2.31-1.49,3.75-1.46,2.87.81,7,1,8.35.14a4.12,4.12,0,0,0,1.84-3.79,3.75,3.75,0,0,1,3.61-2.16,13.61,13.61,0,0,0,2.88-.46c2.65-.56,3.77-1.73,4.09-4.39a8.63,8.63,0,0,1,1.55-3.93,28,28,0,0,0,2.58-4,5.07,5.07,0,0,0-.59-5.62,5,5,0,0,0-4.95-2,13.23,13.23,0,0,0-2.41.58c-2.34.81-4.63,1.65-7.24,1.06a3.87,3.87,0,0,0-4.13,2,18.38,18.38,0,0,0-2,3.92,2.94,2.94,0,0,1-2.47,2.16.44.44,0,0,1-.53,0,6.86,6.86,0,0,1-2.19.51c-2.8.51-3.72,1.58-3.78,4.41,0,1,0,2-.13,3-.3,2.43-1.46,4.15-4,4.65m1.83,3.09a41.87,41.87,0,0,0,4.21-3,1.78,1.78,0,0,0,.65-1.14c.21-1.3.42-2.6.64-3.89,0-.21,0-.54.33-.51s.31.37.27.63c-.17,1.15-.35,2.3-.54,3.54a2.56,2.56,0,0,0,1.23-.62c1.6-1,3-2.29,4.56-3.48a2.25,2.25,0,0,0,.75-1.67c.2-1.38.36-2.76.59-4.13,0-.32,0-1,.43-.89s.22.62.17,1c-.19,1.27-.4,2.53-.6,3.79,0,.25-.22.56,0,.74s.56-.11.78-.27c1.61-1.22,3.21-2.46,4.82-3.69a1.3,1.3,0,0,0,.43-1c.11-1,.25-2,.39-3,0-.23.13-.48.4-.46s.19.33.21.54a9.5,9.5,0,0,1-.29,2.12c-.09.53.09.77.59.41,1.74-1.25,3.45-2.53,5.18-3.8.42-.31.82-.65,1.25-1,.17-.12.39-.34.59-.11s0,.51-.23.64c-1.22.74-2.29,1.7-3.44,2.54a23.86,23.86,0,0,1-3.7,2.65c1.3.55,2.61.13,3.72,1a3.89,3.89,0,0,1-2.53-.12,3.62,3.62,0,0,0-3.69,1.08,34.63,34.63,0,0,1-3.27,2.39c-.23.16-.65.26-.54.63s.51.28.8.32c1.33.21,2.67.4,4,.58.3,0,.7,0,.65.43s-.43.18-.66.15c-1.56-.21-3.13-.39-4.68-.67a2.39,2.39,0,0,0-2.25.67c-1.34,1.27-3.08,2-4.4,3.32-.17.17-.57.2-.42.55s.36.21.59.24c.86.09,1.72.21,2.57.33.29,0,.73.08.7.44s-.47.2-.73.18a4.59,4.59,0,0,1-1.34-.14c-2.39-.83-4.21.14-5.83,1.8a6.1,6.1,0,0,1-.91.67c0,.36-.22.48-.56.38"/><path class="cls-6" d="M107.75,126.12a41.87,41.87,0,0,0,4.21-3,1.78,1.78,0,0,0,.65-1.14c.21-1.3.42-2.6.64-3.89,0-.21,0-.54.33-.51s.31.37.27.63c-.17,1.15-.35,2.3-.54,3.54a2.56,2.56,0,0,0,1.23-.62c1.6-1,3-2.29,4.56-3.48a2.25,2.25,0,0,0,.75-1.67c.2-1.38.36-2.76.59-4.13,0-.32,0-1,.43-.89s.22.62.17,1c-.19,1.27-.4,2.53-.6,3.79,0,.25-.22.56,0,.74s.56-.11.78-.27c1.61-1.22,3.21-2.46,4.82-3.69a1.3,1.3,0,0,0,.43-1c.11-1,.25-2,.39-3,0-.23.13-.48.4-.46s.19.33.21.54a9.5,9.5,0,0,1-.29,2.12c-.09.53.09.77.59.41,1.74-1.25,3.45-2.53,5.18-3.8.42-.31.82-.65,1.25-1,.17-.12.39-.34.59-.11s0,.51-.23.64c-1.22.74-2.29,1.7-3.44,2.54a23.86,23.86,0,0,1-3.7,2.65c1.3.55,2.61.13,3.72,1a3.89,3.89,0,0,1-2.53-.12,3.62,3.62,0,0,0-3.69,1.08,34.63,34.63,0,0,1-3.27,2.39c-.23.16-.65.26-.54.63s.51.28.8.32c1.33.21,2.67.4,4,.58.3,0,.7,0,.65.43s-.43.18-.66.15c-1.56-.21-3.13-.39-4.68-.67a2.39,2.39,0,0,0-2.25.67c-1.34,1.27-3.08,2-4.4,3.32-.17.17-.57.2-.42.55s.36.21.59.24c.86.09,1.72.21,2.57.33.29,0,.73.08.7.44s-.47.2-.73.18a4.59,4.59,0,0,1-1.34-.14c-2.39-.83-4.21.14-5.83,1.8a6.1,6.1,0,0,1-.91.67c0,.36-.22.48-.56.38"/><path class="cls-5" d="M109.81,125.24c-.18-.45-.21-1-.65-1.27.08-1.71,1.3-2.42,2.57-3.09,2.91-.67,6.65-2.53,7.39-3.91a4.12,4.12,0,0,0-.22-4.21,3.74,3.74,0,0,1,2.12-3.63,13.12,13.12,0,0,0,2.3-1.8c2.05-1.76,2.47-3.32,1.47-5.81a8.55,8.55,0,0,1-.54-4.19,27.43,27.43,0,0,0,.34-4.71A5.05,5.05,0,0,0,121.37,88a5,5,0,0,0-5.3.64,12.09,12.09,0,0,0-1.82,1.68c-1.67,1.84-3.27,3.68-5.83,4.42a3.86,3.86,0,0,0-2.68,3.7,18.32,18.32,0,0,0,.18,4.38,2.94,2.94,0,0,1-1.12,3.09c-.09.17-.21.32-.44.29a6.81,6.81,0,0,1-1.67,1.5c-2.21,1.8-2.5,3.18-1.18,5.69.47.9,1,1.79,1.35,2.73.91,2.27.73,4.34-1.29,6m3.1,1.83a44.56,44.56,0,0,0,2.23-4.68,1.72,1.72,0,0,0,0-1.3c-.44-1.24-.88-2.48-1.31-3.73-.07-.2-.22-.49,0-.6s.45.18.54.42c.41,1.09.8,2.18,1.24,3.36a2.39,2.39,0,0,0,.77-1.13c.91-1.69,1.57-3.49,2.32-5.25a2.23,2.23,0,0,0-.15-1.83c-.49-1.3-1-2.59-1.48-3.9-.11-.31-.5-.81,0-1s.5.43.62.75c.44,1.2.86,2.41,1.29,3.61.09.24.09.6.38.64s.44-.36.55-.61c.83-1.85,1.63-3.71,2.45-5.56a1.25,1.25,0,0,0-.11-1.08c-.38-.94-.74-1.88-1.11-2.83-.08-.22-.12-.48.13-.59s.33.19.44.37a8.91,8.91,0,0,1,.77,2c.18.51.45.64.72.08.91-1.94,1.8-3.88,2.7-5.83.22-.47.41-1,.64-1.43.09-.19.18-.5.46-.38s.24.44.11.67c-.71,1.24-1.19,2.59-1.78,3.88a24.7,24.7,0,0,1-2,4.11c1.4-.15,2.35-1.14,3.76-.88a3.87,3.87,0,0,1-2.27,1.12,3.64,3.64,0,0,0-2.71,2.72,35.11,35.11,0,0,1-1.71,3.68c-.12.25-.45.54-.17.8s.58,0,.85-.1c1.27-.46,2.54-.94,3.8-1.42.28-.11.62-.33.77,0s-.29.37-.5.45c-1.47.58-2.93,1.17-4.42,1.68a2.39,2.39,0,0,0-1.65,1.67c-.57,1.76-1.73,3.25-2.25,5-.07.22-.41.44-.11.68s.42,0,.64-.08c.8-.33,1.6-.65,2.41-1,.27-.1.67-.28.82.05s-.31.4-.55.51a4.61,4.61,0,0,1-1.24.52c-2.5.43-3.62,2.16-4.24,4.39a6.81,6.81,0,0,1-.47,1c.14.32,0,.52-.31.6"/><path class="cls-6" d="M104.67,123.94a44.56,44.56,0,0,0,2.23-4.68,1.72,1.72,0,0,0,0-1.3c-.44-1.24-.88-2.48-1.31-3.73-.07-.2-.22-.49,0-.6s.45.18.54.42c.41,1.09.8,2.18,1.24,3.36a2.39,2.39,0,0,0,.77-1.13c.91-1.69,1.57-3.49,2.32-5.25a2.23,2.23,0,0,0-.15-1.83c-.49-1.3-1-2.59-1.48-3.9-.11-.31-.5-.81,0-1s.5.43.62.75c.44,1.2.86,2.41,1.29,3.61.09.24.09.6.38.64s.44-.36.55-.61c.83-1.85,1.63-3.71,2.45-5.56a1.25,1.25,0,0,0-.11-1.08c-.38-.94-.74-1.88-1.11-2.83-.08-.22-.12-.48.13-.59s.33.19.44.37a8.91,8.91,0,0,1,.77,2c.18.51.45.64.72.08.91-1.94,1.8-3.88,2.7-5.83.22-.47.41-1,.64-1.43.09-.19.18-.5.46-.38s.24.44.11.67c-.71,1.24-1.19,2.59-1.78,3.88a24.7,24.7,0,0,1-2,4.11c1.4-.15,2.35-1.14,3.76-.88a3.87,3.87,0,0,1-2.27,1.12,3.64,3.64,0,0,0-2.71,2.72,35.11,35.11,0,0,1-1.71,3.68c-.12.25-.45.54-.17.8s.58,0,.85-.1c1.27-.46,2.54-.94,3.8-1.42.28-.11.62-.33.77,0s-.29.37-.5.45c-1.47.58-2.93,1.17-4.42,1.68a2.39,2.39,0,0,0-1.65,1.67c-.57,1.76-1.73,3.25-2.25,5-.07.22-.41.44-.11.68s.42,0,.64-.08c.8-.33,1.6-.65,2.41-1,.27-.1.67-.28.82.05s-.31.4-.55.51a4.61,4.61,0,0,1-1.24.52c-2.5.43-3.62,2.16-4.24,4.39a6.81,6.81,0,0,1-.47,1c.14.32,0,.52-.31.6"/><path class="cls-7" d="M50.39,98.33a7.13,7.13,0,0,1-3.87,1.43A6,6,0,0,1,42.29,99c-.41-.3-.62-.47.05-.84a8.24,8.24,0,0,1-2.78-1.7c0-.27.38-.19.43-.5l-1.88-1a9.49,9.49,0,0,1-1.82-1.34c-.33-.31-.35-.51,0-.79A8.34,8.34,0,0,1,39.74,91a5.62,5.62,0,0,1-1.34-1.56c-.11-.22-.35-.45-.2-.69s.42,0,.64,0l.28-.05a12.93,12.93,0,0,1-1-2.82,12.63,12.63,0,0,1-.25-3.83c0-.45.18-.58.64-.51a12.06,12.06,0,0,1,5.42,2.23c.76.56.75.56,1-.34.73.3,1.19.81,1.85,2.08a8.67,8.67,0,0,1,2.46-2.88c.45-.36.63-.21.88.21a13.33,13.33,0,0,1,1.24,3.63c.08.29.06.68.51.22.25-.25.33.11.41.26A7.84,7.84,0,0,1,53,89.17c0,.15,0,.5.26.33.55-.33.54.09.63.4.82,2.85-.28,5.15-2.08,7.25a7.11,7.11,0,0,1-3.28-2,13.7,13.7,0,0,1-2.83-3.67c-.2-.36-.45-.66-.93-.43s-.43.6-.2,1a16.25,16.25,0,0,0,1.4,2.27,13.42,13.42,0,0,0,4.46,3.74C50.67,98.18,50.43,98.24,50.39,98.33Z"/><path class="cls-8" d="M28.34,144.41a11.77,11.77,0,0,1-1.1,2.71,6.2,6.2,0,0,1-6.43,2.8,6.06,6.06,0,0,1-5.12-4.68,6.28,6.28,0,0,1,2.45-6.86c.15-.11.33-.18.38-.38a1.59,1.59,0,0,0,.59-.12,5.71,5.71,0,0,1,3.6-.63c.36,0,.72.21,1.11.13a.65.65,0,0,0,.41.35A4,4,0,0,1,27,140c.2.38.69.59.76,1A17,17,0,0,1,28.34,144.41Zm-7.89-3.09A1.3,1.3,0,0,0,19,140a1.38,1.38,0,1,0,.2,2.76A1.32,1.32,0,0,0,20.45,141.32Z"/><path class="cls-9" d="M50.34,112.62a6.33,6.33,0,0,1,6.21,4.88,6.42,6.42,0,0,1-3.33,7.17s-.09-.06-.11,0a6,6,0,0,1-6.59-.48c-.28-.18-.41-.63-.87-.55a7,7,0,0,0-.92-1.64,4.11,4.11,0,0,1-.78-1.88,5,5,0,0,1,.06-2.28,6.3,6.3,0,0,1,1.4-3,5.79,5.79,0,0,1,2-1.52A7.45,7.45,0,0,1,50.34,112.62Zm-3,2.78A1.41,1.41,0,0,0,46,117a1.67,1.67,0,0,0,1.68,1.3,1.55,1.55,0,0,0,1.2-1.62A1.31,1.31,0,0,0,47.39,115.4Z"/><path class="cls-9" d="M44.87,134.43a7.14,7.14,0,0,1-2.59,3.11,6.28,6.28,0,0,1-5.06.81c-.28-.07-.59-.24-.67.24a1.79,1.79,0,0,0-1-1.06,3.19,3.19,0,0,1-1.59-1.2c-.63-1.14-1.53-2.16-1.41-3.59a1,1,0,0,0-.19-.58,12.46,12.46,0,0,1,.39-2,6,6,0,0,1,2.16-3c.27-.19.66-.36.65-.81a.53.53,0,0,1,.19,0,5.47,5.47,0,0,0,5.39,1.15c.54-.14,1.07-.52,1.69-.34A6.58,6.58,0,0,1,44.87,134.43Zm-7.5-4.67a1.32,1.32,0,0,0-1.51-1.24,1.51,1.51,0,0,0-1.35,1.55,1.71,1.71,0,0,0,1.54,1.33A1.34,1.34,0,0,0,37.37,129.76Z"/><path class="cls-10" d="M50.34,112.62a7.45,7.45,0,0,0-3,.69,5.79,5.79,0,0,0-2,1.52,6.3,6.3,0,0,0-1.4,3,6.47,6.47,0,0,1-7.5-6.23,8.13,8.13,0,0,1,.37-2.12,6.19,6.19,0,0,1,3.91-4c.63-.26,1.31-.25,2-.46a11.61,11.61,0,0,1,3,.58,10.68,10.68,0,0,0,1.72,1.21,9.06,9.06,0,0,1,1.64,3,5.68,5.68,0,0,1,.2,2c-.07.58,0,.89.68.73C50.11,112.53,50.23,112.6,50.34,112.62Zm-10.11-2a1.35,1.35,0,0,0,1.32-1.43A1.47,1.47,0,0,0,40,107.83a1.49,1.49,0,0,0-1.35,1.53A1.32,1.32,0,0,0,40.23,110.67Z"/><path class="cls-11" d="M23.82,137.38c-.39.08-.75-.12-1.11-.13a5.71,5.71,0,0,0-3.6.63,1.59,1.59,0,0,1-.59.12,6.39,6.39,0,0,1-.26-11.91l.31-.14a5.29,5.29,0,0,1,2.85-.29,3.19,3.19,0,0,0,1.6.17c.06.68.11,1.36.19,2a5.79,5.79,0,0,0,3.34,4.69c.05.23-.07.37-.22.53C25.25,134.22,24,135.26,24,137,24,137.14,23.88,137.26,23.82,137.38ZM16.49,130a1.5,1.5,0,0,0,1.69,1.26,1.58,1.58,0,0,0,1.17-1.64,1.49,1.49,0,0,0-1.59-1.21A1.43,1.43,0,0,0,16.49,130Z"/><path class="cls-12" d="M23.82,137.38c.06-.12.18-.24.18-.36,0-1.76,1.25-2.8,2.33-3.93.15-.16.27-.3.22-.53a.93.93,0,0,0,.84-.07,7.27,7.27,0,0,1,3.23-.65c.61,0,1.11.39,1.71.32a1,1,0,0,1,.19.58c-.12,1.43.78,2.45,1.41,3.59a3.19,3.19,0,0,0,1.59,1.2,1.79,1.79,0,0,1,1,1.06A6.31,6.31,0,0,1,29,144.54c-.14-.23-.36-.11-.54-.12h-.16a17,17,0,0,0-.6-3.39c-.07-.45-.56-.66-.76-1a4,4,0,0,0-2.75-2.25A.65.65,0,0,1,23.82,137.38Zm3.64.08A1.38,1.38,0,0,0,28.8,136a1.45,1.45,0,0,0-2.88.22A1.34,1.34,0,0,0,27.46,137.46Z"/><path class="cls-13" d="M42.74,105c-.64.21-1.32.2-2,.46a6.19,6.19,0,0,0-3.91,4,8.13,8.13,0,0,0-.37,2.12c-.65-.25-1.23-.71-1.88-.89a8.61,8.61,0,0,0-3.08-.31,1.31,1.31,0,0,0-.29-.89,7.25,7.25,0,0,1-1.37-3.53,7.16,7.16,0,0,1,1.32-4.12,6.44,6.44,0,0,1,6.73-2.39,6.33,6.33,0,0,1,4.74,5.25Zm-10.58-1.46a1.34,1.34,0,0,0,1.41,1.35,1.45,1.45,0,0,0,1.36-1.5A1.34,1.34,0,0,0,33.35,102,1.32,1.32,0,0,0,32.16,103.56Z"/><path class="cls-11" d="M44.87,134.43a6.58,6.58,0,0,0-2.07-7.25.7.7,0,0,1,.41-.66,4.5,4.5,0,0,0,2-2.13c.14-.27.16-.62.46-.8.46-.08.59.37.87.55a6,6,0,0,0,6.59.48s.07,0,.11,0c0,.3.27.47.43.69a6.44,6.44,0,0,1-3.71,9.9A6.62,6.62,0,0,1,44.87,134.43Zm2.05-7.73a1.32,1.32,0,0,0-1.46-1.29,1.45,1.45,0,0,0,.25,2.88A1.31,1.31,0,0,0,46.92,126.7Z"/><path class="cls-12" d="M23,125.83a3.19,3.19,0,0,1-1.6-.17,5.29,5.29,0,0,0-2.85.29,7.32,7.32,0,0,1-2.24-3.3,6.42,6.42,0,0,1,4-7.93l.52-.18.41,0a6.63,6.63,0,0,1,3.35.28c.43.19.86.68,1.44.52-.07.45-.32.88-.15,1.34a7.82,7.82,0,0,1,.32,2,1.55,1.55,0,0,0,.3.75c.3.47.58,1,.87,1.43a6.1,6.1,0,0,0-3.85,3.67C23.37,125,23.38,125.47,23,125.83Zm-3.52-8.67a1.44,1.44,0,1,0,.36,2.86,1.52,1.52,0,0,0,1.22-1.65A1.48,1.48,0,0,0,19.5,117.16Z"/><path class="cls-14" d="M47.49,106.81a10.68,10.68,0,0,1-1.72-1.21,29.79,29.79,0,0,1,6.58-6.69c-.72-.2-1.22-.73-2-.58,0-.09.28-.15,0-.28a13.42,13.42,0,0,1-4.46-3.74A16.25,16.25,0,0,1,44.53,92c-.23-.37-.3-.73.2-1s.73.07.93.43a13.7,13.7,0,0,0,2.83,3.67,7.11,7.11,0,0,0,3.28,2,2.37,2.37,0,0,0,2.79.37,16.8,16.8,0,0,1,3.87-1.6c.81-.2,1.36,0,1.52.72s-.2,1.13-1,1.35a16.41,16.41,0,0,0-5.32,2.66s0,.08-.09.17a9.33,9.33,0,0,1,3.71,1.71,5.6,5.6,0,0,1,2.53,3.84c0,.26.23.37.41.52A6.55,6.55,0,0,1,61.83,109h-.19a7.32,7.32,0,0,0-1.49-1.7c-.23-.19-.37-.22-.56.11a4,4,0,0,1-5.3,1.2,1.71,1.71,0,0,1-.83-1.69,1.57,1.57,0,0,1,1.25-1.31,5.66,5.66,0,0,1,3.31.15l.72.24a3.59,3.59,0,0,0-1.18-1.81,7.83,7.83,0,0,0-4.85-2.2,1.47,1.47,0,0,0-1.23.41A35.73,35.73,0,0,0,47.49,106.81Zm9,1.55c.94-.14,1.88-.28,2.29-1.33.11-.28.16-.54-.2-.68a5.56,5.56,0,0,0-3.75-.28,1,1,0,0,0-.82,1,1.15,1.15,0,0,0,.79,1.09A3.26,3.26,0,0,0,56.52,108.36Z"/><path class="cls-11" d="M26.06,115.3c-.58.16-1-.33-1.44-.52a6.63,6.63,0,0,0-3.35-.28l-.41,0c-1.36-3.08-.9-5.77,1.35-7.91,2-1.89,5.56-2.16,7.48-.71a.44.44,0,0,0,.2,0,7.25,7.25,0,0,0,1.37,3.53,1.31,1.31,0,0,1,.29.89,6.13,6.13,0,0,0-4.28,2.38A8.46,8.46,0,0,0,26.06,115.3Zm-3.74-5.92a1.44,1.44,0,0,0,1.5,1.28,1.46,1.46,0,0,0,1.26-1.52,1.4,1.4,0,0,0-1.56-1.35A1.31,1.31,0,0,0,22.32,109.38Z"/><path class="cls-15" d="M61.64,109h.19a1.94,1.94,0,0,1,.44,1.53Z"/><path class="cls-8" d="M28.5,144.42c.18,0,.4-.11.54.12A.7.7,0,0,1,28.5,144.42Z"/><path class="cls-16" d="M20.45,141.32a1.32,1.32,0,0,1-1.27,1.48A1.38,1.38,0,1,1,19,140,1.3,1.3,0,0,1,20.45,141.32Z"/><path class="cls-12" d="M45.65,123.59c-.3.18-.32.53-.46.8a4.5,4.5,0,0,1-2,2.13.7.7,0,0,0-.41.66c-.62-.18-1.15.2-1.69.34a5.47,5.47,0,0,1-5.39-1.15.53.53,0,0,0-.19,0,1.47,1.47,0,0,1-.47-.39,7.79,7.79,0,0,1-1.93-4.51,13.23,13.23,0,0,1,.22-1.66,5.66,5.66,0,0,1,1.75-2.9c.79-.7,1.49-1.61,2.73-1.55A6.23,6.23,0,0,0,44,117.79a5,5,0,0,0-.06,2.28,4.11,4.11,0,0,0,.78,1.88A7,7,0,0,1,45.65,123.59ZM38.17,119c-.07-.82-.66-1.26-1.59-1.19s-1.3.64-1.26,1.52a1.38,1.38,0,0,0,1.53,1.23A1.3,1.3,0,0,0,38.17,119Z"/><path class="cls-16" d="M47.39,115.4a1.31,1.31,0,0,1,1.5,1.24,1.55,1.55,0,0,1-1.2,1.62A1.67,1.67,0,0,1,46,117,1.41,1.41,0,0,1,47.39,115.4Z"/><path class="cls-10" d="M33.13,121.43a7.79,7.79,0,0,0,1.93,4.51,1.47,1.47,0,0,0,.47.39c0,.45-.38.62-.65.81a6,6,0,0,0-2.16,3,12.46,12.46,0,0,0-.39,2c-.6.07-1.1-.3-1.71-.32a7.27,7.27,0,0,0-3.23.65.93.93,0,0,1-.84.07,5.79,5.79,0,0,1-3.34-4.69c-.08-.68-.13-1.36-.19-2,.36-.36.35-.88.53-1.31a6.1,6.1,0,0,1,3.85-3.67,6.65,6.65,0,0,1,4.94.3C32.6,121.26,32.79,121.54,33.13,121.43ZM28,124.65a1.31,1.31,0,0,0-1.44-1.37,1.47,1.47,0,0,0-1.41,1.6,1.65,1.65,0,0,0,1.55,1.29A1.38,1.38,0,0,0,28,124.65Z"/><path class="cls-16" d="M37.37,129.76a1.34,1.34,0,0,1-1.32,1.64,1.71,1.71,0,0,1-1.54-1.33,1.51,1.51,0,0,1,1.35-1.55A1.32,1.32,0,0,1,37.37,129.76Z"/><path class="cls-9" d="M33.13,121.43c-.34.11-.53-.17-.79-.28a6.65,6.65,0,0,0-4.94-.3c-.29-.48-.57-1-.87-1.43a1.55,1.55,0,0,1-.3-.75,7.82,7.82,0,0,0-.32-2c-.17-.46.08-.89.15-1.34a8.46,8.46,0,0,1,1.21-2.56,6.13,6.13,0,0,1,4.28-2.38,8.61,8.61,0,0,1,3.08.31c.65.18,1.23.64,1.88.89a6.25,6.25,0,0,0,1.32,3.76c-1.24-.06-1.94.85-2.73,1.55a5.66,5.66,0,0,0-1.75,2.9A13.23,13.23,0,0,0,33.13,121.43ZM31,114.35a1.44,1.44,0,0,0-2.88.21,1.44,1.44,0,1,0,2.88-.21Z"/><path class="cls-17" d="M40.23,110.67a1.32,1.32,0,0,1-1.57-1.31A1.49,1.49,0,0,1,40,107.83a1.47,1.47,0,0,1,1.54,1.41A1.35,1.35,0,0,1,40.23,110.67Z"/><path class="cls-15" d="M16.49,130a1.43,1.43,0,0,1,1.27-1.59,1.49,1.49,0,0,1,1.59,1.21,1.58,1.58,0,0,1-1.17,1.64A1.5,1.5,0,0,1,16.49,130Z"/><path class="cls-18" d="M27.46,137.46a1.34,1.34,0,0,1-1.54-1.28A1.45,1.45,0,0,1,28.8,136,1.38,1.38,0,0,1,27.46,137.46Z"/><path class="cls-18" d="M32.16,103.56A1.32,1.32,0,0,1,33.35,102a1.34,1.34,0,0,1,1.58,1.38,1.45,1.45,0,0,1-1.36,1.5A1.34,1.34,0,0,1,32.16,103.56Z"/><path class="cls-15" d="M46.92,126.7a1.31,1.31,0,0,1-1.21,1.59,1.45,1.45,0,0,1-.25-2.88A1.32,1.32,0,0,1,46.92,126.7Z"/><path class="cls-18" d="M19.5,117.16a1.48,1.48,0,0,1,1.58,1.21A1.52,1.52,0,0,1,19.86,120a1.44,1.44,0,1,1-.36-2.86Z"/><path class="cls-15" d="M22.32,109.38a1.31,1.31,0,0,1,1.2-1.59,1.4,1.4,0,0,1,1.56,1.35,1.46,1.46,0,0,1-1.26,1.52A1.44,1.44,0,0,1,22.32,109.38Z"/><path class="cls-18" d="M38.17,119a1.3,1.3,0,0,1-1.32,1.56,1.38,1.38,0,0,1-1.53-1.23c0-.88.3-1.46,1.26-1.52S38.1,118.16,38.17,119Z"/><path class="cls-17" d="M28,124.65a1.38,1.38,0,0,1-1.3,1.52,1.65,1.65,0,0,1-1.55-1.29,1.47,1.47,0,0,1,1.41-1.6A1.31,1.31,0,0,1,28,124.65Z"/><path class="cls-16" d="M31,114.35a1.44,1.44,0,1,1-2.88.21,1.44,1.44,0,0,1,2.88-.21Z"/><path class="cls-19" d="M80.84,154c.78-1.73,1.71-3,2.38-4.44a12.59,12.59,0,0,0,.83-8.06c-.39-1.91-.88-3.81-1.37-5.71-.94-3.63-.77-7.08,1.5-10.24,3.88-5.39,11.52-9.44,18.47-6a11.44,11.44,0,0,1,4.16,3.56,6.37,6.37,0,0,0,1.88,1.74,12.21,12.21,0,0,1,4.91,15.74,21.59,21.59,0,0,1-4.5,6.57c-3.11,3.18-6.67,4.15-10.9,2.62a19.77,19.77,0,0,0-5.38-1.24,10.36,10.36,0,0,0-7.8,2.28A37,37,0,0,1,80.84,154Z"/><path class="cls-20" d="M74.71,133s-2.51-12.36-21.66-9.28c0,0-10.29,1.4-11.51,9.5h0a5.53,5.53,0,0,0-.55,1.2,16.4,16.4,0,0,0-.29,9.05c1.32,5.79,4.75,9.6,10.64,11A24.91,24.91,0,0,0,65,153.57C75.5,150.1,77.64,140.53,74.71,133Z"/><path class="cls-20" d="M42.91,139.7a7.34,7.34,0,0,0,2.81,6.47c.4.33,1,.86,1.42.51s0-1-.19-1.45a12.66,12.66,0,0,1-1-7.08,32,32,0,0,0,.41-3.51c0-.71-.39-.93-1-.52a3.39,3.39,0,0,0-.85.88A9.47,9.47,0,0,0,42.91,139.7Z"/><path class="cls-20" d="M48.77,122.39c1.58-.91,2.84-.25,4.18.54A37.57,37.57,0,0,0,48.77,122.39Z"/><path class="cls-21" d="M58.94,124.28a31.87,31.87,0,0,0,9.92-3.21c-3-.7-5.21-.73-7.23,0a32.5,32.5,0,0,1-3.85,1.11,2.09,2.09,0,0,0-.56,0c-.85.29-1-.09-1-.87a13,13,0,0,1,.38-2.91c.49-1.79.6-1.22-.82-2.32a3.53,3.53,0,0,1-.32-.21c-.28-.28-.44-.22-.62.13a8.07,8.07,0,0,0-1,3.42,10.74,10.74,0,0,0,0,2.47c.06.54-.13.75-.65.79-.88.06-1.77.15-2.65.23h0l-4.92.4-3.69.31h-1.7a19.42,19.42,0,0,0,8.58,1.51H50c-.05.33-.43.2-.58.4l-.38,0a2.64,2.64,0,0,0-1.34.36,5.22,5.22,0,0,0-1.91.4h0c-1.84.47-3.76.81-4.91,2.63a20.56,20.56,0,0,1,5.29-.42.3.3,0,0,0-.17-.26c-.06,0-.14-.06-.21-.1s.15.06.21.1a.3.3,0,0,1,.17.26l1.15,0,.18-.23-.18.23a4.25,4.25,0,0,0,2.51-.33c1-.08,1.83-.75,3-1.14-1.11,1.75-1.08,3.29.19,4.71a6.24,6.24,0,0,0,4.28,2.25c-1.46-2.8-1.61-4.65-.69-6.74.27-.61.61-.8,1.24-.56a9.11,9.11,0,0,0,5.81.3c.55-.15,1.11-.26,1.67-.39a34.08,34.08,0,0,1,3.95-.41C66.14,124,62.49,124.87,58.94,124.28ZM45,127.11a.35.35,0,0,1,0-.18.35.35,0,0,0,0,.18,3,3,0,0,0,.07.32A3,3,0,0,1,45,127.11Z"/><path class="cls-22" d="M42.91,139.7a9.47,9.47,0,0,1,1.65-4.7,3.39,3.39,0,0,1,.85-.88c.58-.41,1-.19,1,.52a32,32,0,0,1-.41,3.51,12.66,12.66,0,0,0,1,7.08c.19.46.71,1.07.19,1.45s-1-.18-1.42-.51A7.34,7.34,0,0,1,42.91,139.7Z"/><path class="cls-23" d="M156.76,126.14s-3.13-15.42-27-11.57c0,0-12.83,1.74-14.34,11.84h0a8,8,0,0,0-.67,1.5,20.37,20.37,0,0,0-.37,11.29c1.64,7.21,5.93,12,13.27,13.66a31.14,31.14,0,0,0,17-1C157.74,147.51,160.41,135.58,156.76,126.14Z"/><path class="cls-24" d="M117.11,134.54a11.72,11.72,0,0,1,2-5.85,4.31,4.31,0,0,1,1.06-1.11c.72-.5,1.27-.23,1.21.65a39.76,39.76,0,0,1-.51,4.37,15.69,15.69,0,0,0,1.23,8.84c.23.57.88,1.33.23,1.81s-1.27-.23-1.77-.64A9.15,9.15,0,0,1,117.11,134.54Z"/><path class="cls-25" d="M133.69,118.38v-3.17s2.13-.45,2.31,0a19.51,19.51,0,0,1,0,3.17h4L136.85,120l-.85,3.39-2.31-2.94-4.41.79Z"/><path class="cls-26" d="M96.59,122.21S85.16,124.13,86,133.69l.89,9.56s.61-11.94,3-14.89A48.55,48.55,0,0,1,96.59,122.21Z"/><path class="cls-1" d="M60.91,74.4c-.54-.17-1.25-1.11-1.7-1.46A21.63,21.63,0,0,0,55,70.29c-3.65-1.71-7.94-.9-9.46,3.21a2.79,2.79,0,0,0,.78,3.27c1.4.91,3.76.15,5.09-.55C57.23,73.2,60.91,74.4,60.91,74.4Z"/><path class="cls-1" d="M136.94,85.87a5.29,5.29,0,0,1-.54,1.28,27,27,0,0,0-1,3.16c-.56,2.19-1.12,5.17.32,7.16a4.16,4.16,0,0,0,3,1.58c1.55.19,3.26-.24,3.86-1.83.72-1.86-.36-3.7-1.65-5C136.85,88.16,136.94,85.88,136.94,85.87Z"/><path class="cls-1" d="M116.15,41.7a4.36,4.36,0,0,1,0,1,18.75,18.75,0,0,0,0,2.25c-.06,1.59,0,3.73,1.29,4.88a2,2,0,0,0,1.86.65,2.38,2.38,0,0,0,2.38-1.83,3.4,3.4,0,0,0-1.87-3.19C116.43,43.29,116.15,41.7,116.15,41.7Z"/><path class="cls-1" d="M29.81,99.82a3.44,3.44,0,0,1-.66-.56,16.44,16.44,0,0,0-1.68-1.19c-1.2-.74-2.87-1.62-4.31-1.13a2.61,2.61,0,0,0-1.49,1.48,2.11,2.11,0,0,0,.37,2.63,3,3,0,0,0,3.27-.06C28.47,99.34,29.81,99.82,29.81,99.82Z"/><path class="cls-1" d="M123.85,111.17a4.92,4.92,0,0,0,.54,1.28,27,27,0,0,1,1,3.16c.56,2.19,1.12,5.17-.32,7.16a4.16,4.16,0,0,1-3,1.58c-1.56.19-3.26-.24-3.87-1.83-.71-1.86.37-3.7,1.66-5C123.94,113.46,123.85,111.17,123.85,111.17Z"/><path class="cls-27" d="M144.4,42.65c2.53,1.61,7.36-1.49,10.79-6.9s4.16-11.11,1.63-12.71L138.65,7.4,122.49,32.91Z"/><ellipse class="cls-28" cx="130.57" cy="20.15" rx="15.1" ry="7.05" transform="translate(43.68 119.68) rotate(-57.65)"/><path class="cls-29" d="M126.79,20.54a30.17,30.17,0,0,0-5,1.93c-1.85,5-1.72,9.36.69,10.89,3.29,2.08,9.57-1.94,14-9a30.89,30.89,0,0,0,2.38-4.53C135.77,19,131.39,19.22,126.79,20.54Z"/><path class="cls-1" d="M114.77,43.24s-.27-7.08,6.33-8.34,5.42.05,7.82-2a44.6,44.6,0,0,0,3.51-3.29s-10,.07-14.27,1.75S104.54,36.16,105.3,49.6Z"/></g></svg>