<svg xmlns="http://www.w3.org/2000/svg" xmlns:xlink="http://www.w3.org/1999/xlink" viewBox="0 0 165.86 165.86"><defs><style>.cls-1{fill:#944328;}.cls-2{fill:#ca6e37;}.cls-3{fill:none;stroke:#8d4326;stroke-miterlimit:10;stroke-width:0.67px;}.cls-4{fill:#8d4326;}.cls-5{fill:#e7182c;}.cls-6{fill:#60b657;}.cls-7{fill:#f98f74;}.cls-8{fill:#f76934;}.cls-9{fill:#010101;}.cls-10{fill:#c1bcb9;}.cls-11{fill:#ffd8c9;}.cls-12{fill:#fff1dd;}.cls-13{fill:#fdc6b6;}.cls-14{fill:#d54e31;}.cls-15{fill:url(#radial-gradient);}.cls-16{fill:url(#radial-gradient-2);}.cls-17{fill:#aa1b25;}.cls-18{fill:#f87049;}.cls-19{fill:#eb8663;}.cls-20{fill:#f7673f;}.cls-21{fill:#a91b26;fill-rule:evenodd;}</style><radialGradient id="radial-gradient" cx="556.21" cy="-59.03" r="15.95" gradientTransform="matrix(0.9, 0.44, -0.44, 0.9, -397.33, -90.51)" gradientUnits="userSpaceOnUse"><stop offset="0.54" stop-color="#ea172c"/><stop offset="0.75" stop-color="#ec1b2e"/><stop offset="0.97" stop-color="#f22834"/><stop offset="1" stop-color="#f32a35"/></radialGradient><radialGradient id="radial-gradient-2" cx="128.52" cy="102.21" r="15.95" gradientTransform="translate(163.13 -58.31) rotate(63.67)" gradientUnits="userSpaceOnUse"><stop offset="0" stop-color="#de192c"/><stop offset="0.38" stop-color="#e21c2c"/><stop offset="0.78" stop-color="#ef252c"/><stop offset="0.87" stop-color="#f3282c"/><stop offset="0.96" stop-color="#f43632"/><stop offset="1" stop-color="#f43e36"/></radialGradient></defs><g id="Layer_3" data-name="Layer 3"><rect class="cls-1" x="9.99" y="30.56" width="148.79" height="107.59" rx="11.16"/><rect class="cls-2" x="6.59" y="28.6" width="148.79" height="105.49" rx="11.05"/><rect class="cls-3" x="10.71" y="32.88" width="140.54" height="97.66" rx="10.33"/><path class="cls-4" d="M81.32,47.75a82.45,82.45,0,0,0-26.4.61l-14.28,2.7Z"/><path class="cls-4" d="M89.63,39A128.69,128.69,0,0,0,65.71,40C51.29,41.9,49,42.26,49,42.26Z"/><path class="cls-5" d="M130.09,53.73s-2.6-12.8-22.44-9.61c0,0-10.65,1.44-11.91,9.83h0a5.77,5.77,0,0,0-.57,1.25,16.89,16.89,0,0,0-.3,9.37c1.36,6,4.92,9.94,11,11.35A25.87,25.87,0,0,0,120,75.07C130.91,71.48,133.12,61.57,130.09,53.73Z"/><path class="cls-6" d="M113.75,44.74A32.87,32.87,0,0,0,124,41.41c-3.11-.72-5.39-.76-7.49,0a32.32,32.32,0,0,1-4,1.15,2.24,2.24,0,0,0-.58,0c-.88.3-1.08-.09-1-.9a13.8,13.8,0,0,1,.4-3c.5-1.86.62-1.27-.86-2.4a3.62,3.62,0,0,1-.32-.22c-.3-.29-.46-.23-.65.14a8.35,8.35,0,0,0-1,3.54,10.87,10.87,0,0,0,0,2.55c.06.56-.14.78-.68.82-.91.06-1.83.15-2.74.24h0l-5.1.41-3.81.32H94.36a20.08,20.08,0,0,0,8.89,1.57h1.2c-.06.34-.45.2-.6.41l-.4,0a2.8,2.8,0,0,0-1.38.37,5.57,5.57,0,0,0-2,.42h0c-1.91.49-3.9.84-5.08,2.72a21.06,21.06,0,0,1,5.47-.43.3.3,0,0,0-.17-.27l-.22-.1.22.1a.3.3,0,0,1,.17.27l1.19,0,.18-.23-.18.23a4.43,4.43,0,0,0,2.61-.34c1-.09,1.89-.77,3.08-1.18-1.15,1.8-1.12,3.4.2,4.87A6.47,6.47,0,0,0,112,54.87c-1.51-2.9-1.68-4.82-.72-7,.28-.64.63-.83,1.29-.59a9.38,9.38,0,0,0,6,.31c.57-.15,1.16-.26,1.73-.4a34.55,34.55,0,0,1,4.09-.42C121.22,44.45,117.43,45.35,113.75,44.74ZM99.31,47.67a.56.56,0,0,1,0-.19.56.56,0,0,0,0,.19,1.59,1.59,0,0,0,.08.33A1.59,1.59,0,0,1,99.31,47.67Z"/><path class="cls-7" d="M97.16,60.71a9.79,9.79,0,0,1,1.71-4.87,3.47,3.47,0,0,1,.87-.92c.6-.41,1.06-.19,1,.55a34.19,34.19,0,0,1-.42,3.63,13,13,0,0,0,1,7.34c.2.47.74,1.1.2,1.5s-1.06-.19-1.47-.54A7.59,7.59,0,0,1,97.16,60.71Z"/><path class="cls-8" d="M17.28,55.68a1,1,0,0,1,1.19.79c.25,1-.32,1.68-.3,2.08,0,.13-.24.21-.3.09-.17-.35-1-.63-1.24-1.62A1.06,1.06,0,0,1,17.28,55.68Z"/><path class="cls-8" d="M24.88,57.15a.94.94,0,0,0-1.36.39c-.54.86-.22,1.69-.36,2.07,0,.12.17.27.26.17.27-.28,1.13-.3,1.68-1.17A1,1,0,0,0,24.88,57.15Z"/><path class="cls-8" d="M29.18,61.32A.94.94,0,0,0,27.81,61c-.91.48-1,1.36-1.35,1.61-.1.08,0,.32.13.28.38-.11,1.13.31,2-.16A1,1,0,0,0,29.18,61.32Z"/><path class="cls-8" d="M30.91,66.76a1,1,0,0,0-1.1-.91c-1,.05-1.51.79-1.9.88-.13,0-.13.3,0,.32.39.06.89.75,1.91.71A1,1,0,0,0,30.91,66.76Z"/><path class="cls-9" d="M75.87,96.58l-.76,2.78c-.17.65-.48.65-.48.65a3.28,3.28,0,0,0-1.57.65c-1.4,1.57-1.84,5.67-2.06,6.81s-.68,7-1.48,10-2.18,6.6-3.1,9a3.8,3.8,0,0,0,.38,4,.85.85,0,0,1,0,.92,3.76,3.76,0,0,1-4.19,1.8c-4.63-1.26-2.57-8.67-2.57-8.67l8.14-30Z"/><path class="cls-10" d="M76.29,95,75.74,97,68,94.92,81.9,43.65s2.44-4.67,9.57-4.48l-.63,2.32c-.4-.11-.83.6-.94,1s-.09,1.22.31,1.33c-.4-.11-.83.6-.94,1s-.09,1.22.31,1.33c-.4-.11-.83.6-.94,1s-.09,1.23.31,1.33c-.4-.1-.83.6-.94,1s-.09,1.22.31,1.33c-.4-.11-.83.6-.94,1s-.09,1.23.31,1.33c-.4-.1-.83.6-.94,1s-.09,1.22.31,1.33c-.4-.11-.83.6-.94,1s-.09,1.23.31,1.34c-.4-.11-.84.59-.94,1s-.09,1.22.31,1.33c-.4-.11-.84.6-.94,1s-.09,1.23.31,1.34c-.4-.11-.84.59-.94,1s-.09,1.22.31,1.33c-.4-.11-.84.6-.94,1s-.1,1.23.31,1.34c-.41-.11-.84.59-1,1s-.09,1.22.32,1.33c-.41-.11-.84.6-1,1s-.09,1.23.32,1.34c-.41-.11-.84.59-1,1S81.61,73.93,82,74c-.41-.11-.84.6-1,1s-.09,1.22.32,1.33c-.41-.11-.84.59-1,1s-.09,1.22.31,1.33c-.4-.11-.83.6-.94,1s-.09,1.22.31,1.33c-.4-.11-.83.6-.94,1s-.09,1.22.31,1.33c-.4-.11-.83.6-.94,1s-.09,1.22.31,1.33c-.4-.11-.83.6-.94,1s-.09,1.23.31,1.34c-.4-.11-.83.59-.94,1s-.09,1.22.31,1.33c-.4-.11-.83.6-.94,1s-.09,1.23.31,1.34c-.4-.11-.83.59-.94,1S75.89,94.85,76.29,95Z"/><path class="cls-4" d="M78.76,109.57a82.63,82.63,0,0,0,26.2-3.34l13.92-4.17Z"/><path class="cls-4" d="M71.41,119.18a129,129,0,0,0,23.68-3.56c14.15-3.34,16.44-4,16.44-4Z"/><path class="cls-4" d="M140.53,53.94a128.1,128.1,0,0,0-13.85,19.53c-7.39,12.51-8.55,14.58-8.55,14.58Z"/><path class="cls-11" d="M34.39,91.2s-6-5-9-3c0,0,7.12-7.41,7.2-12.45s-1.94-12.95,2.18-22.4,11.17-15.69,13.8-15.06,7,5.42,11.82,8,8.25,4.47,2.34,12.43S44.59,73.31,40.76,79.92,34.39,91.2,34.39,91.2Z"/><path class="cls-12" d="M58.69,59.46s4.87-7.06,1-10.49-3.8-2.5-5.67-.29-2,3.77-6.25,8.21-3.58,7.75-5.44,9.4S37.51,74.15,38.3,76.4s3.28-3,7.83-6.39S56.61,63.83,58.69,59.46Z"/><path class="cls-13" d="M45.48,42S45,48.22,41.91,52.89s-2.19,10.73-4.29,13.78l-2.9,4.23S32.12,63.7,37.24,54,45.48,42,45.48,42Z"/><path class="cls-12" d="M35.81,82.75s-.66,6.35-2.48,5.6S29.1,86.5,29.1,86.5,28.09,84.72,35.81,82.75Z"/><path class="cls-14" d="M34.39,91.2s-.43,2.3-5.12,0-3.93-3-3.93-3S28.34,85.91,34.39,91.2Z"/><path class="cls-14" d="M65.79,52.26s-.33-2.91-4.11-5.18S51.05,41,49.84,38.85c0,0,2,0,7.78,3.37S67.78,47.35,65.79,52.26Z"/><path class="cls-15" d="M143.34,107.85c0,.1-1.41,2.84-1.45,2.94-3.91,7.48-13.41,10.35-21.4,6.39s-11.51-13.33-7.84-21c0-.06,1.17-2.38,1.2-2.44,2.84-5.74,12.34-8.42,20.43-4.42S144.75,105,143.34,107.85Z"/><ellipse class="cls-16" cx="128.52" cy="102.21" rx="15.54" ry="16.34" transform="translate(-20.08 172.07) rotate(-63.67)"/><path class="cls-8" d="M117.46,96.55a1,1,0,0,1,1.4-.27c.87.53,1,1.42,1.25,1.69.09.09,0,.32-.15.28-.38-.14-1.15.23-2-.3A1,1,0,0,1,117.46,96.55Z"/><path class="cls-8" d="M121.06,92.46a1,1,0,0,1,1.39.3c.59.83.31,1.68.48,2,0,.12-.15.28-.25.19-.29-.27-1.15-.23-1.74-1.06A1,1,0,0,1,121.06,92.46Z"/><path class="cls-8" d="M126.37,90.61a1,1,0,0,1,1.1.9c.16,1-.47,1.64-.49,2,0,.13-.26.18-.3.06-.14-.37-.92-.72-1.08-1.73A1.05,1.05,0,0,1,126.37,90.61Z"/><path class="cls-8" d="M139.14,108.36a1,1,0,0,0-.45-1.35c-.89-.5-1.7-.14-2.08-.26-.13,0-.27.18-.17.26.3.26.35,1.12,1.24,1.63A1.05,1.05,0,0,0,139.14,108.36Z"/><path class="cls-8" d="M135,112.5a1,1,0,0,0,.28-1.39c-.53-.88-1.42-1-1.69-1.26-.09-.1-.32,0-.27.15.13.37-.25,1.14.28,2A1,1,0,0,0,135,112.5Z"/><path class="cls-8" d="M123.17,112.83a.94.94,0,0,1-.49-1.33c.38-1,1.25-1.17,1.47-1.5.07-.11.32,0,.3.1-.08.39.41,1.1,0,2A1,1,0,0,1,123.17,112.83Z"/><path class="cls-8" d="M118.31,108.72a1,1,0,0,1,.42-1.37c.88-.51,1.7-.17,2.08-.3.12,0,.27.17.17.26-.29.27-.33,1.12-1.21,1.65A1.06,1.06,0,0,1,118.31,108.72Z"/><path class="cls-17" d="M121.63,116.14c-8-4-11.5-13.32-7.85-21a1.14,1.14,0,0,0-.1.19c-3.81,7.7-.23,16.93,7.86,20.94s17.63,1.25,21.44-6.44l.09-.2C139.19,117.2,129.65,120.11,121.63,116.14Z"/><path class="cls-18" d="M131,88.26c-8.06-1.7-15.74,3.19-17.14,10.93s4,15.37,12,17.07,15.74-3.19,17.15-10.92S139.1,90,131,88.26Zm-5.92,25.6c-3,.38-5.43-1.84-7.3-4.43s-3-5.65-1.5-8.12l0-.08a19.66,19.66,0,0,1,8.67,1.34,3,3,0,0,1,.52.3,3,3,0,0,0-.48.84.29.29,0,0,0,.35.39c.33-.12.64-.27,1-.41l.16.23c-.14.51-.39,1-.49,1.5a.29.29,0,0,0,.38.32,3.94,3.94,0,0,1,.69-.21v0A17.87,17.87,0,0,1,125.12,113.86Zm.85-10.6,0,0h0Zm2.41-4.6a1.66,1.66,0,0,1-.17.32,4.28,4.28,0,0,1-.66-.55.28.28,0,0,0-.46.14c-.08.5,0,1-.07,1.52a2.11,2.11,0,0,1-.3.16c-.22-.24-.44-.48-.67-.71a.28.28,0,0,0-.47.22,3.08,3.08,0,0,0,.1.8h-.28a19.84,19.84,0,0,1-8.5-2.28.22.22,0,0,1,0-.08c-.51-2.89,1.65-5.2,4.23-6.92s5.7-2.69,8.31-1.14A18,18,0,0,1,128.38,98.66Zm3.49-8c3-.38,5.43,1.84,7.3,4.43s3,5.65,1.49,8.13a.25.25,0,0,1,0,.07A19.52,19.52,0,0,1,132,102l-.29-.14a3.26,3.26,0,0,0,.37-.69c.08-.21-.11-.48-.35-.39s-.58.24-.86.37a3.25,3.25,0,0,1-.23-.29c.14-.47.36-.92.46-1.4a.3.3,0,0,0-.38-.32,4.25,4.25,0,0,1-.77.23,2.09,2.09,0,0,1,0-.35A17.82,17.82,0,0,1,131.87,90.66Zm-1,13.62-.16-.17.1,0a.06.06,0,0,0,0,0C130.81,104.18,130.82,104.23,130.84,104.28Zm5,9c-2.64,1.63-5.7,2.69-8.31,1.14a18.2,18.2,0,0,1,1-8.51l.09-.18a.27.27,0,0,0,.11.1,4.88,4.88,0,0,1,.75.61.28.28,0,0,0,.46-.14c.08-.53,0-1.1.07-1.64a.57.57,0,0,1,.12-.18h0c.27.29.53.59.82.86a.28.28,0,0,0,.47-.22,3.74,3.74,0,0,0-.19-1.1l.25,0a19.88,19.88,0,0,1,8.51,2.28s0,.06,0,.09C140.6,109.21,138.44,111.51,135.86,113.24Z"/><path class="cls-7" d="M131,88.26c-8.06-1.7-15.74,3.19-17.14,10.93s4,15.37,12,17.07,15.74-3.19,17.15-10.92S139.1,90,131,88.26Zm-5.92,25.6c-3,.38-5.43-1.84-7.3-4.43s-3-5.65-1.5-8.12l0-.08a19.66,19.66,0,0,1,8.67,1.34,3,3,0,0,1,.52.3,3,3,0,0,0-.48.84.29.29,0,0,0,.35.39c.33-.12.64-.27,1-.41l.16.23c-.14.51-.39,1-.49,1.5a.29.29,0,0,0,.38.32,3.94,3.94,0,0,1,.69-.21v0A17.87,17.87,0,0,1,125.12,113.86Zm.85-10.6,0,0h0Zm2.41-4.6a1.66,1.66,0,0,1-.17.32,4.28,4.28,0,0,1-.66-.55.28.28,0,0,0-.46.14c-.08.5,0,1-.07,1.52a2.11,2.11,0,0,1-.3.16c-.22-.24-.44-.48-.67-.71a.28.28,0,0,0-.47.22,3.08,3.08,0,0,0,.1.8h-.28a19.84,19.84,0,0,1-8.5-2.28.22.22,0,0,1,0-.08c-.51-2.89,1.65-5.2,4.23-6.92s5.7-2.69,8.31-1.14A18,18,0,0,1,128.38,98.66Zm3.49-8c3-.38,5.43,1.84,7.3,4.43s3,5.65,1.49,8.13a.25.25,0,0,1,0,.07A19.52,19.52,0,0,1,132,102l-.29-.14a3.26,3.26,0,0,0,.37-.69c.08-.21-.11-.48-.35-.39s-.58.24-.86.37a3.25,3.25,0,0,1-.23-.29c.14-.47.36-.92.46-1.4a.3.3,0,0,0-.38-.32,4.25,4.25,0,0,1-.77.23,2.09,2.09,0,0,1,0-.35A17.82,17.82,0,0,1,131.87,90.66Zm-1,13.62-.16-.17.1,0a.06.06,0,0,0,0,0C130.81,104.18,130.82,104.23,130.84,104.28Zm5,9c-2.64,1.63-5.7,2.69-8.31,1.14a18.2,18.2,0,0,1,1-8.51l.09-.18a.27.27,0,0,0,.11.1,4.88,4.88,0,0,1,.75.61.28.28,0,0,0,.46-.14c.08-.53,0-1.1.07-1.64a.57.57,0,0,1,.12-.18h0c.27.29.53.59.82.86a.28.28,0,0,0,.47-.22,3.74,3.74,0,0,0-.19-1.1l.25,0a19.88,19.88,0,0,1,8.51,2.28s0,.06,0,.09C140.6,109.21,138.44,111.51,135.86,113.24Z"/><path class="cls-8" d="M116.7,103.07a1,1,0,0,1,1.06-.95c1,0,1.54.73,1.94.82.12,0,.13.28,0,.31-.39.08-.87.79-1.89.78A1,1,0,0,1,116.7,103.07Z"/><path class="cls-8" d="M133.9,91.65a1,1,0,0,1,.49,1.34c-.39,1-1.25,1.17-1.47,1.5-.08.11-.32,0-.3-.11.07-.38-.41-1.09,0-2A1.06,1.06,0,0,1,133.9,91.65Z"/><path class="cls-8" d="M138.76,95.77a1,1,0,0,1-.42,1.36c-.88.52-1.7.18-2.08.31-.13,0-.27-.18-.17-.26.29-.27.33-1.13,1.2-1.65A1.06,1.06,0,0,1,138.76,95.77Z"/><path class="cls-8" d="M140.37,101.42a1,1,0,0,1-1.06,1c-1,0-1.54-.74-1.94-.82-.13,0-.14-.29,0-.31.39-.08.87-.79,1.89-.79A1.05,1.05,0,0,1,140.37,101.42Z"/><path class="cls-8" d="M129.46,114.38a.94.94,0,0,0,.93-1.07c0-1-.75-1.54-.84-1.93,0-.13-.29-.13-.31,0-.08.38-.78.87-.76,1.89A1,1,0,0,0,129.46,114.38Z"/><path class="cls-10" d="M66.56,75.77s1.34,3.09-10.12,17c-2.93,3.55-6.69,7.81-11.53,12.91h0l-1.84,1.89c-.43.44-.67.31-.67.31a3,3,0,0,0-1.55-.19c-1.81.64-4,3.71-4.67,4.53s-3.66,5.31-5.6,7.3-4.68,4.3-6.48,5.83a3.46,3.46,0,0,0-1.49,3.38.77.77,0,0,1-.37.76,3.43,3.43,0,0,1-4.14-.43C15,126,19.91,121,19.91,121l19.84-20.36h0L56,84C62.35,77.47,66.56,75.77,66.56,75.77Z"/><path class="cls-9" d="M44.52,106.1l-1.43,1.47c-.43.44-.67.31-.67.31a3,3,0,0,0-1.55-.19c-1.81.64-4,3.71-4.67,4.53s-3.66,5.31-5.6,7.3-4.68,4.3-6.48,5.83a3.46,3.46,0,0,0-1.49,3.38.77.77,0,0,1-.37.76,3.43,3.43,0,0,1-4.14-.43C15,126,19.91,121,19.91,121l19.44-20Z"/></g><g id="Layer_6" data-name="Layer 6"><path class="cls-19" d="M73.6,74.4c.5-.26,0-1.07,1.82-1.52,1.12-.27,1.27-.1,1.63.35a3.43,3.43,0,0,1-.19,3.21,2.73,2.73,0,0,0-.55,1.89,4.89,4.89,0,0,0,.3,1.54,8,8,0,0,1,.27,3,2.65,2.65,0,0,1-.58,1.38c-.35.41-.92.56-1.32.94a3.31,3.31,0,0,0-.85,2.22,7.73,7.73,0,0,1-.38,2.4c-.27.63-1,1.21-1.6.91s-.61-1.09-.54-1.72c.54-4.43,1.26-7.11,1-11.56"/><path class="cls-19" d="M82.22,43.67l1.7,2.71a1.06,1.06,0,0,1,.22.54,1.3,1.3,0,0,1-.32.68,3.86,3.86,0,0,0-.55,3.26A4.22,4.22,0,0,1,83.71,53c-.22.94-1.37,1.42-1.63,2.35-.12.42,0,.86-.14,1.28s-.47.85-.88.74c-.56-.15-.48-1-.41-1.53a3.82,3.82,0,0,0-.5-2.47,2.38,2.38,0,0,1-.39-.8,5.32,5.32,0,0,1,.09-1.59c.62-2.35,1.06-5.64,2.22-7.56"/><path class="cls-19" d="M127.73,70.82a23.83,23.83,0,0,1-11.93,6,3.51,3.51,0,0,0-1.5.5,1.09,1.09,0,0,0-.36,1.41,1.35,1.35,0,0,0,.92.47c1.44.27,2.94,0,4.39.15s3,1,3.25,2.48a12.83,12.83,0,0,0,.09,1.53,2,2,0,0,0,2.16,1.35,2.72,2.72,0,0,0,2.06-1.7c.37-.92.38-2.07,1.15-2.69a5,5,0,0,1,1.92-.65,4.24,4.24,0,0,0-1.12-8.33"/><path class="cls-20" d="M32.14,65.34a23.86,23.86,0,0,1,3-13,3.41,3.41,0,0,0,.57-1.48,1.08,1.08,0,0,0-.85-1.17,1.37,1.37,0,0,0-.95.41c-1.13.94-1.86,2.27-2.92,3.29s-2.73,1.68-4,.91a13.59,13.59,0,0,0-1.24-.91,2,2,0,0,0-2.42.81,2.73,2.73,0,0,0,0,2.67c.46.87,1.34,1.61,1.33,2.6A5,5,0,0,1,24,61.37a4.24,4.24,0,0,0,7.12,4.46"/><path class="cls-20" d="M29.33,80.88a3.44,3.44,0,0,0-.87-2,2.68,2.68,0,0,0-2.23-.44,15.24,15.24,0,0,1-2.31.38,1.16,1.16,0,0,1-.66-.16,1.3,1.3,0,0,1-.47-.73,5.6,5.6,0,0,1-.26-1.67,1.33,1.33,0,0,0-.09-.6.8.8,0,0,0-.87-.32,2.42,2.42,0,0,0-.85.49L19,77.11c-.45.36-.94,1-.58,1.43.21.25.59.26.91.32,1.56.3,2.35,2,2.62,3.61s.33,3.29,1.37,4.48a1.51,1.51,0,0,0,1.8.55,1.8,1.8,0,0,0,.49-.5,38.73,38.73,0,0,0,3.51-5.52"/><path class="cls-19" d="M95.12,72.18a3.38,3.38,0,0,0-.86-2A2.73,2.73,0,0,0,92,69.69a15.24,15.24,0,0,1-2.31.38,1.2,1.2,0,0,1-.67-.15,1.34,1.34,0,0,1-.46-.73,6,6,0,0,1-.27-1.68,1.22,1.22,0,0,0-.09-.6.76.76,0,0,0-.86-.31,2.28,2.28,0,0,0-.85.49l-1.68,1.32c-.45.36-.94,1-.58,1.42.21.26.58.27.91.33,1.55.3,2.34,2,2.61,3.61s.34,3.29,1.37,4.48a1.52,1.52,0,0,0,1.8.55,1.8,1.8,0,0,0,.49-.5A39.37,39.37,0,0,0,95,72.78"/><path class="cls-19" d="M49.9,100.35a10.2,10.2,0,0,1-1.06-3.12A2.24,2.24,0,0,1,50,95c.43-.2.94-.21,1.38-.38A4.23,4.23,0,0,0,53,93.05a3,3,0,0,1,1.81-1.39c.77-.12,1.66.64,1.35,1.36a2.26,2.26,0,0,1-.7,1s-3.07,3.73-5.57,6.37"/><path class="cls-20" d="M62.91,84.07a4.1,4.1,0,0,0,0-1.44c-.13-.48-.68-.52-1.1-.46a1.93,1.93,0,0,0-1.35.72A5.45,5.45,0,0,0,60.11,84c-.5,1.31-1.76,2.29-1.71,3.79,0,.22.58.17.68.15a1.44,1.44,0,0,0,.89-.4c.37-.55.7-1.13,1.12-1.65s.76-.86,1.15-1.28a7.69,7.69,0,0,0,1.91-2.78l-1.62.25c-.37,2.21-2,3.87-3.48,5.4-.27.28.24.38.42.37a1.61,1.61,0,0,0,1.09-.42c1.55-1.57,3.22-3.33,3.59-5.6.09-.53-1.48-.17-1.62.25a7.39,7.39,0,0,1-1.85,2.65c-.37.39-.75.78-1.09,1.21s-.75,1.1-1.13,1.65L60,87.38c0-1.07.79-2,1.31-2.82a4.79,4.79,0,0,0,.37-.71,7.49,7.49,0,0,0,.23-.81.83.83,0,0,1,.08-.22c.11-.22.26-.16-.38,0s-.48,0-.36.2a.58.58,0,0,1,0,.19,5.34,5.34,0,0,1,0,1.13c0,.32.47.28.68.24a1.73,1.73,0,0,0,.62-.2c.1,0,.31-.16.32-.29Z"/><path class="cls-21" d="M83,5.9a77.17,77.17,0,1,0,77.17,77.17A77.17,77.17,0,0,0,83,5.9Zm66.3,77.17a66,66,0,0,1-15.53,42.63L40.35,32.29A66.3,66.3,0,0,1,149.28,83.07Zm-132.6,0A66,66,0,0,1,32.21,40.44l93.4,93.4A66.3,66.3,0,0,1,16.68,83.07Z"/></g></svg>