<svg xmlns="http://www.w3.org/2000/svg" viewBox="0 0 165.86 165.86"><defs><style>.cls-1{fill:#e0e1e0;}.cls-2{fill:#8a9193;}.cls-3{fill:#e04026;}.cls-4{fill:#e14326;}.cls-5{fill:#e14126;}.cls-6{fill:#e24226;}.cls-7{fill:#f6871f;}.cls-8{fill:#fdde13;}.cls-9{fill:#f8efac;}.cls-10{fill:#dadadb;}</style></defs><g id="Layer_3" data-name="Layer 3"><path class="cls-1" d="M17.61,63.92S31.78,39.81,78.17,37.17,142.7,56.82,142.7,56.82Z"/><path d="M16.48,64,141.57,56.7l-.13.3a34,34,0,0,0-4.57-4.24,69.86,69.86,0,0,0-23.53-11.7A98.1,98.1,0,0,0,89,37.33l-2.93-.11a11.68,11.68,0,0,0-1.45,0l-1.4,0-5.67.14c-1.86.11-3.68.3-5.48.45l-2.68.23c-.89,0-1.76.25-2.62.36l-5.09.78c-1.66.3-3.27.7-4.87,1l-2.35.53c-.77.2-1.52.44-2.27.65-1.49.45-2.95.87-4.37,1.31a88.58,88.58,0,0,0-14.61,6.55,69,69,0,0,0-9.83,7,50.34,50.34,0,0,0-5.32,5.51c-.54.69-.95,1.21-1.2,1.59L16.5,64l.08-.14c.06-.11.15-.25.27-.43.25-.39.65-.92,1.18-1.62a48.18,48.18,0,0,1,5.32-5.56,69.38,69.38,0,0,1,9.81-7.13A88.37,88.37,0,0,1,47.8,42.48c1.42-.45,2.88-.87,4.38-1.32.75-.22,1.49-.46,2.26-.66L56.8,40c1.59-.34,3.2-.76,4.87-1.06l5.1-.79c.87-.12,1.74-.31,2.63-.37l2.68-.23c1.8-.15,3.64-.36,5.49-.46l5.69-.15,1.44,0a14,14,0,0,1,1.45,0l2.94.11a98.18,98.18,0,0,1,24.39,3.72,69.86,69.86,0,0,1,23.67,11.77,33.51,33.51,0,0,1,4.62,4.29L142,57l-.37,0Z"/><rect x="59.31" y="33.92" width="35.79" height="4.82" rx="2.41" transform="translate(-1.93 4.43) rotate(-3.25)"/><path d="M67.26,33.6l-.94-3.39a4.58,4.58,0,0,1,4.15-5.79l13-.74A4.57,4.57,0,0,1,88.2,29l-.5,2.91a4.59,4.59,0,0,1-4,3.77L72.15,36.93A4.57,4.57,0,0,1,67.26,33.6Z"/><path class="cls-2" d="M142.72,93.06c-.85,0-1.71,0-2.58-.07-9.86-.51-18.52-4.58-19.39-9.8l4.36.23c-.07,1.28,5.2,4.68,15.25,5.2a34.88,34.88,0,0,0,11.83-1.17c3.16-1,3.23-2.64,3.24-3,0-.88-2.48-3.06-10.27-4.24l.66-4.32c7.25,1.12,14.9,4.13,14.63,9.32-.1,1.94-1.39,4.61-6.94,6.36A36.86,36.86,0,0,1,142.72,93.06Z"/><path class="cls-2" d="M21.67,67.53v.1h-5.1l8.78,55.06a9.12,9.12,0,0,0,5.3,6.87l.1.71h2.35a10.19,10.19,0,0,0,1.24.09h100l.13-.91a9.11,9.11,0,0,0,5.27-6.86l8.78-55.06Z"/><path d="M152.63,63.29H19.15a1.33,1.33,0,0,0-.49.09H12.48a1.36,1.36,0,0,0-1.36,1.37v1.51a1.36,1.36,0,0,0,1.36,1.37H146a1.44,1.44,0,0,0,.5-.1h6.17A1.36,1.36,0,0,0,154,66.17V64.65A1.36,1.36,0,0,0,152.63,63.29Z"/><path class="cls-2" d="M11.61,91.71C6.05,90,4.76,87.29,4.66,85.35,4.39,80.16,12,77.15,19.29,76L20,80.35c-7.79,1.18-10.32,3.36-10.27,4.24,0,.32.08,2,3.24,3a34.61,34.61,0,0,0,11.83,1.18C34.81,88.2,40.07,84.79,40,83.51l4.37-.22c-.87,5.21-9.54,9.29-19.4,9.8-.87,0-1.73.07-2.57.07A37.11,37.11,0,0,1,11.61,91.71Z"/><path class="cls-3" d="M22.25,134.69a15.75,15.75,0,0,1,1.55.88A22.83,22.83,0,0,1,26,124.16c.22.84.38,1.53.59,2.21a5.07,5.07,0,0,0,.81,1.75,2.4,2.4,0,0,0,.64.59c.24.15.53.37.76.24s.06-.47,0-.71c-.55-2.81.58-5.14,2.16-7.32a39.07,39.07,0,0,0,3.12-4.63,9.39,9.39,0,0,0,1-6.8c0-.2-.18-.48.25-.34a20.38,20.38,0,0,1,7.55,4.07,11.49,11.49,0,0,1,3.78,9.38,43.64,43.64,0,0,1-.53,4.4,2.83,2.83,0,0,0,0,.71.92.92,0,0,0,1.34.75c.63-.39,1.2-.85,1.8-1.28s.6-.41.87.22a17.28,17.28,0,0,1,1.32,7.31c0,.16,0,.33,0,.49s0,0,.08.06l.83-.47c.2-.11.3-.07.31.18.18,3.67,0,7.27-2.22,10.42a9.82,9.82,0,0,1-7.59,4.09,16.1,16.1,0,0,1-4.75-.2,4.62,4.62,0,0,0-1.53,0,14.38,14.38,0,0,1-8.82-1,9.51,9.51,0,0,1-4.84-6.06,20.72,20.72,0,0,1-.69-7.35A1.08,1.08,0,0,1,22.25,134.69ZM43.07,147l.2-.13a2.58,2.58,0,0,0,1.36-.79,10.76,10.76,0,0,0,3.91-5.15,11.32,11.32,0,0,0,.36-5.51,8.82,8.82,0,0,0-1-3c-.17-.3-.32-.34-.6-.15-.5.34-1,.67-1.53,1a.72.72,0,0,1-.88,0,.71.71,0,0,1-.37-.68c.13-1,.36-2,.47-3a9.7,9.7,0,0,0-.3-3.72,8.33,8.33,0,0,0-2.8-4.07,17.72,17.72,0,0,0-6.41-3.12c-.46-.14-.28.18-.24.36a6.08,6.08,0,0,1-.33,4A17,17,0,0,1,32,127.07c-1.54,1.79-2.69,3.71-2.15,6.21.08.38-.06.38-.34.3a2.31,2.31,0,0,1-1.34-1.31,23.11,23.11,0,0,1-.77-2.18.42.42,0,0,0-.18.22,19.76,19.76,0,0,0-1.06,2.77,15.05,15.05,0,0,0-.55,5.25,10.31,10.31,0,0,0,2,5.64,11.35,11.35,0,0,0,5.69,4.09,7.66,7.66,0,0,0,3.18.48,6.88,6.88,0,0,0,1.57.05,8.31,8.31,0,0,0,4.84-1.54Z"/><path class="cls-4" d="M24.78,113.25a4.76,4.76,0,0,1,.85,5.3,12.33,12.33,0,0,0-1,3.39c-1-1.35-1.75-2.59-1.68-4.19a4.13,4.13,0,0,1,.74-1.83A7.36,7.36,0,0,0,24.78,113.25Z"/><path class="cls-5" d="M51.49,114.13a3.38,3.38,0,0,1,1.15,3.9,5.39,5.39,0,0,0-.06,3.31c-1.07-.82-2.18-1.37-2.71-2.54a2.71,2.71,0,0,1,.42-2.86A7.31,7.31,0,0,0,51.49,114.13Z"/><path class="cls-6" d="M54.65,126.7a9.79,9.79,0,0,0-.95-1.51,2.13,2.13,0,0,1-.21-2.34,6.92,6.92,0,0,0,.79-2c0-.08,0-.14.13-.14s.1.07.13.14c.23.53.45,1.07.71,1.59C56,123.93,55.63,125.3,54.65,126.7Z"/><path class="cls-7" d="M36.53,148.54a7.66,7.66,0,0,1-3.18-.48A11.35,11.35,0,0,1,27.66,144a10.31,10.31,0,0,1-2-5.64,15.05,15.05,0,0,1,.55-5.25,19.76,19.76,0,0,1,1.06-2.77.42.42,0,0,1,.18-.22,23.11,23.11,0,0,0,.77,2.18,2.31,2.31,0,0,0,1.34,1.31c.28.08.42.08.34-.3-.54-2.5.61-4.42,2.15-6.21a17,17,0,0,0,2.88-4.24,6.08,6.08,0,0,0,.33-4c0-.18-.22-.5.24-.36a17.72,17.72,0,0,1,6.41,3.12,8.33,8.33,0,0,1,2.8,4.07,9.7,9.7,0,0,1,.3,3.72c-.11,1-.34,2-.47,3a.71.71,0,0,0,.37.68.72.72,0,0,0,.88,0c.52-.31,1-.64,1.53-1,.28-.19.43-.15.6.15a8.82,8.82,0,0,1,1,3,11.32,11.32,0,0,1-.36,5.51A10.76,10.76,0,0,1,44.63,146a2.58,2.58,0,0,1-1.36.79.45.45,0,0,1,.16-.28,7.47,7.47,0,0,0,2.1-3.06,9.64,9.64,0,0,0,.24-5.55,10.6,10.6,0,0,0-1-2.68,1.88,1.88,0,0,0-.29.74,2.91,2.91,0,0,1-.76,1.45c-.15.15-.3.37-.55.26s-.13-.37-.12-.55a4,4,0,0,0,0-1.25A9.11,9.11,0,0,0,41,132.38a6.42,6.42,0,0,1-1.77-5.22c.06-.4-.11-.29-.33-.23A12,12,0,0,0,36.23,128c-2.5,1.35-4,3.33-3.83,6.31a17,17,0,0,0,.29,2.24c.06.3.16.64-.16.86a.76.76,0,0,1-.92-.1,4.57,4.57,0,0,1-.68-.47c-.31-.28-.49-.25-.65.14a9.38,9.38,0,0,0-.74,3A7.59,7.59,0,0,0,33,147,4.89,4.89,0,0,0,35.22,148Z"/><path class="cls-8" d="M35.22,148A4.89,4.89,0,0,1,33,147a7.59,7.59,0,0,1-3.42-7,9.38,9.38,0,0,1,.74-3c.16-.39.34-.42.65-.14a4.57,4.57,0,0,0,.68.47.76.76,0,0,0,.92.1c.32-.22.22-.56.16-.86a17,17,0,0,1-.29-2.24c-.16-3,1.33-5,3.83-6.31a12,12,0,0,1,2.66-1.07c.22-.06.39-.17.33.23A6.42,6.42,0,0,0,41,132.38a9.11,9.11,0,0,1,2.11,3.52,4,4,0,0,1,0,1.25c0,.18-.13.44.12.55s.4-.11.55-.26A2.91,2.91,0,0,0,44.5,136a1.88,1.88,0,0,1,.29-.74,10.6,10.6,0,0,1,1,2.68,9.64,9.64,0,0,1-.24,5.55,7.47,7.47,0,0,1-2.1,3.06.45.45,0,0,0-.16.28l-.2.13-.13.1a8.31,8.31,0,0,1-4.84,1.54l.09-.05a5,5,0,0,0,3.75-6.8c-.11-.31-.22-.53-.59-.22-.19.15-.4.47-.71.26s-.1-.51-.11-.77a2.61,2.61,0,0,1,.06-.27c.43-2.92-.92-4.38-3.46-5.31-.26-.1-.37-.05-.31.28a2.94,2.94,0,0,1-.27,1.77,10.83,10.83,0,0,1-1.23,1.9,3.18,3.18,0,0,0-.69,2.16c0,.13.11.32-.09.38s-.26-.11-.36-.22c-.28-.35-.28-.82-.51-1.24a7,7,0,0,0-.46,4.89A5.24,5.24,0,0,0,35.22,148Z"/><path class="cls-9" d="M35.22,148a5.24,5.24,0,0,1-2-2.69,7,7,0,0,1,.46-4.89c.23.42.23.89.51,1.24.1.11.2.27.36.22s.1-.25.09-.38a3.18,3.18,0,0,1,.69-2.16,10.83,10.83,0,0,0,1.23-1.9,2.94,2.94,0,0,0,.27-1.77c-.06-.33,0-.38.31-.28,2.54.93,3.89,2.39,3.46,5.31a2.61,2.61,0,0,0-.06.27c0,.26-.17.58.11.77s.52-.11.71-.26c.37-.31.48-.09.59.22a5,5,0,0,1-3.75,6.8l-.09.05a6.88,6.88,0,0,1-1.57-.05Z"/><path class="cls-7" d="M42.94,147.05l.13-.1Z"/><path class="cls-3" d="M80.84,135.54a14.68,14.68,0,0,1,1.55.88A22.85,22.85,0,0,1,84.54,125c.22.84.39,1.53.59,2.21a5.26,5.26,0,0,0,.81,1.75,2.85,2.85,0,0,0,.65.6c.23.14.52.36.76.23s.06-.47,0-.71c-.54-2.81.58-5.14,2.16-7.31a39.27,39.27,0,0,0,3.13-4.64,9.43,9.43,0,0,0,1-6.8c0-.2-.18-.48.26-.34a20.41,20.41,0,0,1,7.54,4.07,11.46,11.46,0,0,1,3.78,9.38,43.3,43.3,0,0,1-.53,4.4,3.39,3.39,0,0,0,0,.71.91.91,0,0,0,1.33.75c.63-.38,1.21-.85,1.81-1.28s.59-.41.86.23a17.21,17.21,0,0,1,1.32,7.3c0,.16,0,.33,0,.49s0,0,.07.06l.83-.47c.2-.11.3-.07.31.18.19,3.67,0,7.27-2.21,10.42a9.89,9.89,0,0,1-7.6,4.1,16.47,16.47,0,0,1-4.75-.21,4.63,4.63,0,0,0-1.53,0,14.39,14.39,0,0,1-8.82-1,9.49,9.49,0,0,1-4.83-6.06,20.25,20.25,0,0,1-.69-7.35A.62.62,0,0,1,80.84,135.54Zm20.83,12.26.19-.13a2.63,2.63,0,0,0,1.36-.78,10.77,10.77,0,0,0,3.91-5.16,11.09,11.09,0,0,0,.36-5.51,9.09,9.09,0,0,0-1-3c-.18-.3-.33-.34-.6-.15-.51.34-1,.67-1.54,1a.81.81,0,0,1-1.24-.7c.12-1,.36-2,.46-3.05a9.52,9.52,0,0,0-.3-3.72,8.2,8.2,0,0,0-2.8-4.07,17.67,17.67,0,0,0-6.4-3.12c-.46-.14-.29.18-.24.37a6.16,6.16,0,0,1-.34,4,16.84,16.84,0,0,1-2.88,4.23c-1.54,1.79-2.68,3.71-2.15,6.21.08.38-.06.38-.33.3a2.25,2.25,0,0,1-1.34-1.31,20.59,20.59,0,0,1-.77-2.18.44.44,0,0,0-.18.23,20.47,20.47,0,0,0-1.07,2.76,15,15,0,0,0-.54,5.25,10.21,10.21,0,0,0,2,5.64,11.22,11.22,0,0,0,5.68,4.09,7.7,7.7,0,0,0,3.19.48,7.41,7.41,0,0,0,1.56.06,8.43,8.43,0,0,0,4.85-1.55Z"/><path class="cls-4" d="M86.79,115a4.75,4.75,0,0,1,.86,5.29,12.51,12.51,0,0,0-1,3.4c-1-1.35-1.75-2.6-1.67-4.19a4.23,4.23,0,0,1,.73-1.83A7,7,0,0,0,86.79,115Z"/><path class="cls-5" d="M112.73,114.13a3.4,3.4,0,0,1,1.15,3.9,5.46,5.46,0,0,0-.07,3.31c-1.07-.82-2.17-1.37-2.7-2.54a2.69,2.69,0,0,1,.41-2.86A7.07,7.07,0,0,0,112.73,114.13Z"/><path class="cls-6" d="M111.46,133.76a9.41,9.41,0,0,0-.95-1.5,2.14,2.14,0,0,1-.2-2.34,6.87,6.87,0,0,0,.79-2.06c0-.08,0-.14.13-.14s.1.08.13.15c.23.53.44,1.07.71,1.58A3.93,3.93,0,0,1,111.46,133.76Z"/><path class="cls-7" d="M95.13,149.39a7.7,7.7,0,0,1-3.19-.48,11.22,11.22,0,0,1-5.68-4.09,10.21,10.21,0,0,1-2-5.64,15,15,0,0,1,.54-5.25,20.47,20.47,0,0,1,1.07-2.76.44.44,0,0,1,.18-.23,20.59,20.59,0,0,0,.77,2.18,2.25,2.25,0,0,0,1.34,1.31c.27.08.41.08.33-.3-.53-2.5.61-4.42,2.15-6.21a16.84,16.84,0,0,0,2.88-4.23,6.16,6.16,0,0,0,.34-4c0-.19-.22-.51.24-.37a17.67,17.67,0,0,1,6.4,3.12,8.2,8.2,0,0,1,2.8,4.07,9.52,9.52,0,0,1,.3,3.72c-.1,1-.34,2-.46,3.05a.81.81,0,0,0,1.24.7c.52-.31,1-.64,1.54-1,.27-.19.42-.15.6.15a9.09,9.09,0,0,1,1,3,11.09,11.09,0,0,1-.36,5.51,10.77,10.77,0,0,1-3.91,5.16,2.63,2.63,0,0,1-1.36.78.42.42,0,0,1,.17-.28,7.29,7.29,0,0,0,2.09-3.06,9.61,9.61,0,0,0,.24-5.54,10.3,10.3,0,0,0-1-2.69,1.88,1.88,0,0,0-.29.74,3,3,0,0,1-.75,1.45c-.15.15-.31.37-.56.26s-.13-.36-.12-.55a3.5,3.5,0,0,0,0-1.25,9,9,0,0,0-2.11-3.52A6.46,6.46,0,0,1,97.81,128c.07-.4-.1-.28-.32-.23a12.12,12.12,0,0,0-2.67,1.07c-2.5,1.36-4,3.33-3.83,6.31a15.27,15.27,0,0,0,.3,2.24c0,.3.16.64-.16.86a.76.76,0,0,1-.93-.1,5.15,5.15,0,0,1-.68-.47c-.3-.27-.48-.25-.64.14a9.4,9.4,0,0,0-.75,3,7.6,7.6,0,0,0,3.43,7,4.75,4.75,0,0,0,2.26,1.07Z"/><path class="cls-8" d="M93.82,148.89a4.75,4.75,0,0,1-2.26-1.07,7.6,7.6,0,0,1-3.43-7,9.4,9.4,0,0,1,.75-3c.16-.39.34-.41.64-.14a5.15,5.15,0,0,0,.68.47.76.76,0,0,0,.93.1c.32-.22.21-.56.16-.86a15.27,15.27,0,0,1-.3-2.24c-.16-3,1.33-4.95,3.83-6.31a12.12,12.12,0,0,1,2.67-1.07c.22,0,.39-.17.32.23a6.46,6.46,0,0,0,1.77,5.22,9,9,0,0,1,2.11,3.52,3.5,3.5,0,0,1,0,1.25c0,.19-.12.44.12.55s.41-.11.56-.26a3,3,0,0,0,.75-1.45,1.88,1.88,0,0,1,.29-.74,10.3,10.3,0,0,1,1,2.69,9.61,9.61,0,0,1-.24,5.54,7.29,7.29,0,0,1-2.09,3.06.42.42,0,0,0-.17.28l-.19.13-.13.1a8.43,8.43,0,0,1-4.85,1.55.33.33,0,0,1,.1-.06,4.94,4.94,0,0,0,3.74-6.79c-.11-.32-.21-.54-.59-.23-.19.15-.4.47-.7.26s-.1-.51-.11-.77a1.28,1.28,0,0,1,.05-.27c.44-2.92-.92-4.38-3.46-5.31-.26-.1-.36-.05-.31.28a3,3,0,0,1-.26,1.77,11.44,11.44,0,0,1-1.23,1.9,3.14,3.14,0,0,0-.7,2.16c0,.13.11.33-.09.38s-.26-.1-.35-.22c-.28-.35-.28-.82-.52-1.24a7.08,7.08,0,0,0-.46,4.89A5.26,5.26,0,0,0,93.82,148.89Z"/><path class="cls-9" d="M93.82,148.89a5.26,5.26,0,0,1-2-2.69,7.08,7.08,0,0,1,.46-4.89c.24.42.24.89.52,1.24.09.12.19.27.35.22s.1-.25.09-.38a3.14,3.14,0,0,1,.7-2.16,11.44,11.44,0,0,0,1.23-1.9,3,3,0,0,0,.26-1.77c0-.33,0-.38.31-.28,2.54.93,3.9,2.39,3.46,5.31a1.28,1.28,0,0,0-.05.27c0,.26-.17.58.11.77s.51-.11.7-.26c.38-.31.48-.09.59.23a4.94,4.94,0,0,1-3.74,6.79.33.33,0,0,0-.1.06,7.41,7.41,0,0,1-1.56-.06Z"/><path class="cls-7" d="M101.54,147.9l.13-.1Z"/><path class="cls-3" d="M81.73,135.72a20.7,20.7,0,0,1-.69,7.35,9.51,9.51,0,0,1-4.84,6.06,14.38,14.38,0,0,1-8.82,1,4.62,4.62,0,0,0-1.53,0,16.45,16.45,0,0,1-4.75.21c-3.09-.32-5.78-1.46-7.59-4.1-2.17-3.15-2.4-6.75-2.22-10.42,0-.25.11-.29.31-.18l.83.47s.08,0,.08-.06,0-.33,0-.49a17.21,17.21,0,0,1,1.32-7.3c.27-.64.28-.64.87-.23s1.17.9,1.8,1.28a.91.91,0,0,0,1.34-.75,3.39,3.39,0,0,0,0-.71,40.66,40.66,0,0,1-.54-4.4A11.49,11.49,0,0,1,61,114.07,20.38,20.38,0,0,1,68.59,110c.43-.14.3.14.25.34a9.39,9.39,0,0,0,1,6.8A39.19,39.19,0,0,0,73,121.78c1.58,2.17,2.71,4.5,2.16,7.31,0,.24-.22.57,0,.71s.52-.09.76-.23a2.61,2.61,0,0,0,.64-.6,5.07,5.07,0,0,0,.81-1.75c.21-.68.37-1.37.6-2.21a23,23,0,0,1,2.14,11.41,15.75,15.75,0,0,1,1.55-.88A1.57,1.57,0,0,1,81.73,135.72ZM61,147.9a8.4,8.4,0,0,0,4.84,1.55,7.51,7.51,0,0,0,1.57-.06,7.66,7.66,0,0,0,3.18-.48,11.29,11.29,0,0,0,5.69-4.09,10.28,10.28,0,0,0,2-5.64,15.05,15.05,0,0,0-.55-5.25,19.17,19.17,0,0,0-1.06-2.76.44.44,0,0,0-.18-.23,23.11,23.11,0,0,1-.77,2.18,2.28,2.28,0,0,1-1.34,1.31c-.28.08-.42.08-.34-.3.54-2.5-.61-4.42-2.15-6.21A17.11,17.11,0,0,1,69,123.69a6.09,6.09,0,0,1-.33-4c0-.19.22-.51-.24-.37a17.59,17.59,0,0,0-6.4,3.12,8.29,8.29,0,0,0-2.81,4.07,9.71,9.71,0,0,0-.3,3.72c.11,1,.34,2,.47,3.05a.82.82,0,0,1-1.25.7c-.51-.31-1-.64-1.53-1-.28-.19-.43-.15-.6.15a8.89,8.89,0,0,0-1,3,11.32,11.32,0,0,0,.36,5.51,10.83,10.83,0,0,0,3.91,5.16,2.63,2.63,0,0,0,1.36.78l.2.13Z"/><path class="cls-4" d="M75.71,115a4.73,4.73,0,0,0-.85,5.29,12.51,12.51,0,0,1,1,3.4,6.69,6.69,0,0,0,1.68-4.19,4.13,4.13,0,0,0-.74-1.83A7.36,7.36,0,0,1,75.71,115Z"/><path class="cls-5" d="M80.46,110.53a3.39,3.39,0,0,0-1.15,3.89,5.5,5.5,0,0,1,.07,3.32c1.07-.83,2.17-1.37,2.7-2.54a2.69,2.69,0,0,0-.41-2.86A7.07,7.07,0,0,1,80.46,110.53Z"/><path class="cls-5" d="M60.58,99.71a3.4,3.4,0,0,0-1.15,3.89,5.35,5.35,0,0,1,.07,3.32c1.07-.83,2.18-1.37,2.71-2.54a2.71,2.71,0,0,0-.42-2.86A7.63,7.63,0,0,1,60.58,99.71Z"/><path class="cls-6" d="M48.62,125.83a9.52,9.52,0,0,1,1-1.51,2.11,2.11,0,0,0,.2-2.33,7,7,0,0,1-.79-2.06c0-.08,0-.14-.13-.14s-.1.08-.13.15c-.23.53-.44,1.07-.7,1.58C47.24,123.06,47.64,124.43,48.62,125.83Z"/><path class="cls-7" d="M67.38,149.39a7.66,7.66,0,0,0,3.18-.48,11.29,11.29,0,0,0,5.69-4.09,10.28,10.28,0,0,0,2-5.64,15.05,15.05,0,0,0-.55-5.25,19.17,19.17,0,0,0-1.06-2.76.44.44,0,0,0-.18-.23,23.11,23.11,0,0,1-.77,2.18,2.28,2.28,0,0,1-1.34,1.31c-.28.08-.42.08-.34-.3.54-2.5-.61-4.42-2.15-6.21A17.11,17.11,0,0,1,69,123.69a6.09,6.09,0,0,1-.33-4c0-.19.22-.51-.24-.37a17.59,17.59,0,0,0-6.4,3.12,8.29,8.29,0,0,0-2.81,4.07,9.71,9.71,0,0,0-.3,3.72c.11,1,.34,2,.47,3.05a.82.82,0,0,1-1.25.7c-.51-.31-1-.64-1.53-1-.28-.19-.43-.15-.6.15a8.89,8.89,0,0,0-1,3,11.32,11.32,0,0,0,.36,5.51,10.83,10.83,0,0,0,3.91,5.16,2.63,2.63,0,0,0,1.36.78.45.45,0,0,0-.16-.28,7.41,7.41,0,0,1-2.1-3.06,9.61,9.61,0,0,1-.24-5.54,10.67,10.67,0,0,1,1-2.69,1.88,1.88,0,0,1,.29.74,2.91,2.91,0,0,0,.76,1.45c.15.15.3.37.55.26s.13-.36.12-.55a4,4,0,0,1,0-1.25,9.11,9.11,0,0,1,2.11-3.52A6.42,6.42,0,0,0,64.69,128c-.06-.4.11-.28.33-.23a12,12,0,0,1,2.66,1.07c2.5,1.36,4,3.33,3.83,6.31a16.73,16.73,0,0,1-.29,2.24c-.06.3-.16.64.16.86a.74.74,0,0,0,.92-.1,4.57,4.57,0,0,0,.68-.47c.31-.27.49-.25.65.14a9.38,9.38,0,0,1,.74,3,7.59,7.59,0,0,1-3.42,7,4.75,4.75,0,0,1-2.26,1.07Z"/><path class="cls-8" d="M68.69,148.89A4.75,4.75,0,0,0,71,147.82a7.59,7.59,0,0,0,3.42-7,9.38,9.38,0,0,0-.74-3c-.16-.39-.34-.41-.65-.14a4.57,4.57,0,0,1-.68.47.74.74,0,0,1-.92.1c-.32-.22-.22-.56-.16-.86a16.73,16.73,0,0,0,.29-2.24c.16-3-1.33-4.95-3.83-6.31A12,12,0,0,0,65,127.78c-.22,0-.39-.17-.33.23a6.42,6.42,0,0,1-1.77,5.22,9.11,9.11,0,0,0-2.11,3.52,4,4,0,0,0,0,1.25c0,.19.13.44-.12.55s-.4-.11-.55-.26a2.91,2.91,0,0,1-.76-1.45,1.88,1.88,0,0,0-.29-.74,10.67,10.67,0,0,0-1,2.69,9.61,9.61,0,0,0,.24,5.54,7.41,7.41,0,0,0,2.1,3.06.45.45,0,0,1,.16.28l.2.13.13.1a8.4,8.4,0,0,0,4.84,1.55l-.09-.06A4.94,4.94,0,0,1,62,142.6c.11-.32.22-.54.59-.23.19.15.4.47.71.26s.1-.51.11-.77a2.61,2.61,0,0,0-.06-.27c-.43-2.92.93-4.38,3.46-5.31.26-.1.37-.05.31.28a2.94,2.94,0,0,0,.27,1.77,10.83,10.83,0,0,0,1.23,1.9,3.18,3.18,0,0,1,.69,2.16c0,.13-.11.33.09.38s.26-.1.36-.22c.28-.35.28-.82.51-1.24a7,7,0,0,1,.46,4.89A5.24,5.24,0,0,1,68.69,148.89Z"/><path class="cls-9" d="M68.69,148.89a5.24,5.24,0,0,0,2-2.69,7,7,0,0,0-.46-4.89c-.23.42-.23.89-.51,1.24-.1.12-.2.27-.36.22s-.1-.25-.09-.38a3.18,3.18,0,0,0-.69-2.16,10.83,10.83,0,0,1-1.23-1.9,2.94,2.94,0,0,1-.27-1.77c.06-.33,0-.38-.31-.28-2.53.93-3.89,2.39-3.46,5.31a2.61,2.61,0,0,1,.06.27c0,.26.17.58-.11.77s-.52-.11-.71-.26c-.37-.31-.48-.09-.59.23a4.94,4.94,0,0,0,3.75,6.79l.09.06a7.51,7.51,0,0,0,1.57-.06Z"/><path class="cls-7" d="M61,147.9l-.13-.1Z"/><path class="cls-3" d="M140.35,136.27a20.25,20.25,0,0,1-.69,7.35,9.49,9.49,0,0,1-4.83,6.06,14.32,14.32,0,0,1-8.82,1,4.38,4.38,0,0,0-1.53,0,16.45,16.45,0,0,1-4.75.21c-3.09-.32-5.78-1.45-7.6-4.09-2.17-3.16-2.4-6.76-2.21-10.43,0-.25.11-.29.31-.18l.83.48.07-.06a4.17,4.17,0,0,0,0-.5,17.21,17.21,0,0,1,1.32-7.3c.27-.64.28-.64.86-.23s1.18.9,1.81,1.28a.9.9,0,0,0,1.33-.74,3.48,3.48,0,0,0,0-.72,43,43,0,0,1-.53-4.4,11.46,11.46,0,0,1,3.78-9.38,20.56,20.56,0,0,1,7.54-4.07c.44-.14.31.14.26.35a9.41,9.41,0,0,0,1,6.79,38.46,38.46,0,0,0,3.13,4.64c1.58,2.18,2.7,4.5,2.16,7.32-.05.23-.23.56,0,.7s.53-.09.76-.23a2.64,2.64,0,0,0,.65-.6,5.17,5.17,0,0,0,.81-1.75c.2-.68.37-1.37.59-2.2a22.79,22.79,0,0,1,2.15,11.4,14.68,14.68,0,0,1,1.55-.88A.62.62,0,0,1,140.35,136.27ZM119.6,148.45a8.3,8.3,0,0,0,4.84,1.55,7.41,7.41,0,0,0,1.56-.06,7.7,7.7,0,0,0,3.19-.47,11.3,11.3,0,0,0,5.68-4.1,10.17,10.17,0,0,0,2-5.63,15.08,15.08,0,0,0-.54-5.26,21,21,0,0,0-1.07-2.76.35.35,0,0,0-.18-.22,17.79,17.79,0,0,1-.77,2.17A2.25,2.25,0,0,1,133,135c-.27.09-.41.08-.33-.29.53-2.5-.61-4.43-2.15-6.22a16.67,16.67,0,0,1-2.88-4.23,6.16,6.16,0,0,1-.34-3.95c0-.19.22-.51-.24-.37a17.84,17.84,0,0,0-6.4,3.12,8.27,8.27,0,0,0-2.8,4.08,9.45,9.45,0,0,0-.3,3.71c.1,1,.34,2,.46,3a.72.72,0,0,1-.36.69.75.75,0,0,1-.88,0c-.52-.32-1-.64-1.54-1-.27-.18-.42-.15-.6.15a9.07,9.07,0,0,0-1,3,11,11,0,0,0,.36,5.5,10.68,10.68,0,0,0,3.91,5.16,2.63,2.63,0,0,0,1.36.78l.2.13Z"/><path class="cls-4" d="M134.34,115.54a4.76,4.76,0,0,0-.86,5.3,12,12,0,0,1,1,3.39c1-1.35,1.75-2.59,1.68-4.19a4.37,4.37,0,0,0-.74-1.83A7.19,7.19,0,0,1,134.34,115.54Z"/><path class="cls-5" d="M140.7,106.91a3.37,3.37,0,0,0-1.15,3.89,5.5,5.5,0,0,1,.07,3.32c1.07-.83,2.17-1.37,2.7-2.54a2.71,2.71,0,0,0-.41-2.86A7.07,7.07,0,0,1,140.7,106.91Z"/><path class="cls-6" d="M107.24,126.38a9.41,9.41,0,0,1,1-1.5,2.13,2.13,0,0,0,.21-2.34,6.92,6.92,0,0,1-.79-2.05c0-.09,0-.15-.13-.15s-.1.08-.13.15c-.23.53-.45,1.07-.71,1.58A3.91,3.91,0,0,0,107.24,126.38Z"/><path class="cls-7" d="M126,149.94a7.7,7.7,0,0,0,3.19-.47,11.3,11.3,0,0,0,5.68-4.1,10.17,10.17,0,0,0,2-5.63,15.08,15.08,0,0,0-.54-5.26,21,21,0,0,0-1.07-2.76.35.35,0,0,0-.18-.22,17.79,17.79,0,0,1-.77,2.17A2.25,2.25,0,0,1,133,135c-.27.09-.41.08-.33-.29.53-2.5-.61-4.43-2.15-6.22a16.67,16.67,0,0,1-2.88-4.23,6.16,6.16,0,0,1-.34-3.95c0-.19.22-.51-.24-.37a17.84,17.84,0,0,0-6.4,3.12,8.27,8.27,0,0,0-2.8,4.08,9.45,9.45,0,0,0-.3,3.71c.1,1,.34,2,.46,3a.72.72,0,0,1-.36.69.75.75,0,0,1-.88,0c-.52-.32-1-.64-1.54-1-.27-.18-.42-.15-.6.15a9.07,9.07,0,0,0-1,3,11,11,0,0,0,.36,5.5,10.68,10.68,0,0,0,3.91,5.16,2.63,2.63,0,0,0,1.36.78.42.42,0,0,0-.17-.28,7.32,7.32,0,0,1-2.09-3.05,9.64,9.64,0,0,1-.24-5.55,10.3,10.3,0,0,1,1-2.69,1.88,1.88,0,0,1,.29.74,2.94,2.94,0,0,0,.75,1.45c.15.16.31.38.56.26s.13-.36.12-.54a3.55,3.55,0,0,1,0-1.26,9.18,9.18,0,0,1,2.11-3.52,6.43,6.43,0,0,0,1.77-5.21c-.07-.4.1-.29.32-.23a11.21,11.21,0,0,1,2.67,1.07c2.5,1.35,4,3.32,3.83,6.3a16.73,16.73,0,0,1-.29,2.24c-.06.3-.16.64.15.87a.77.77,0,0,0,.93-.1,6.8,6.8,0,0,0,.68-.47c.3-.28.48-.26.64.13a9.39,9.39,0,0,1,.75,3,7.61,7.61,0,0,1-3.42,7,4.82,4.82,0,0,1-2.27,1.07Z"/><path class="cls-8" d="M127.31,149.44a4.82,4.82,0,0,0,2.27-1.07,7.61,7.61,0,0,0,3.42-7,9.39,9.39,0,0,0-.75-3c-.16-.39-.34-.41-.64-.13a6.8,6.8,0,0,1-.68.47.77.77,0,0,1-.93.1c-.31-.23-.21-.57-.15-.87a16.73,16.73,0,0,0,.29-2.24c.16-3-1.33-5-3.83-6.3a11.21,11.21,0,0,0-2.67-1.07c-.22-.06-.39-.17-.32.23a6.43,6.43,0,0,1-1.77,5.21,9.18,9.18,0,0,0-2.11,3.52,3.55,3.55,0,0,0,0,1.26c0,.18.12.43-.12.54s-.41-.1-.56-.26a2.94,2.94,0,0,1-.75-1.45,1.88,1.88,0,0,0-.29-.74,10.3,10.3,0,0,0-1,2.69,9.64,9.64,0,0,0,.24,5.55,7.32,7.32,0,0,0,2.09,3.05.42.42,0,0,1,.17.28l.2.13.13.1a8.3,8.3,0,0,0,4.84,1.55.33.33,0,0,0-.1-.06,4.94,4.94,0,0,1-3.74-6.79c.11-.32.21-.54.59-.23.19.16.4.47.7.27s.1-.52.12-.78a2.61,2.61,0,0,0-.06-.27c-.44-2.91.92-4.38,3.46-5.31.26-.09.36-.05.31.28a3.06,3.06,0,0,0,.26,1.78,12.33,12.33,0,0,0,1.23,1.9,3.13,3.13,0,0,1,.7,2.16c0,.13-.11.32.09.38s.26-.11.35-.23c.29-.35.28-.82.52-1.24a7.09,7.09,0,0,1,.46,4.89A5.26,5.26,0,0,1,127.31,149.44Z"/><path class="cls-9" d="M127.31,149.44a5.26,5.26,0,0,0,2-2.69,7.09,7.09,0,0,0-.46-4.89c-.24.42-.23.89-.52,1.24-.09.12-.19.27-.35.23s-.1-.25-.09-.38a3.13,3.13,0,0,0-.7-2.16,12.33,12.33,0,0,1-1.23-1.9,3.06,3.06,0,0,1-.26-1.78c0-.33,0-.37-.31-.28-2.54.93-3.9,2.4-3.46,5.31a2.61,2.61,0,0,1,.06.27c0,.26.16.59-.12.78s-.51-.11-.7-.27c-.38-.31-.48-.09-.59.23a4.94,4.94,0,0,0,3.74,6.79.33.33,0,0,1,.1.06,7.41,7.41,0,0,0,1.56-.06Z"/><path class="cls-7" d="M119.6,148.45l-.13-.1Z"/><path class="cls-10" d="M142.7,24.68a40.29,40.29,0,0,0-3.52,3.64c-3.17,4.35-2.71,9.62,1.42,12.61a22.77,22.77,0,0,1,5.76,6.41,8.54,8.54,0,0,1,.53,7.16,12.8,12.8,0,0,1-4.46,5.78,11.26,11.26,0,0,0,6-7.54,10.94,10.94,0,0,0-3.16-10.3c-2.41-2.32-5.46-4.5-6-8a6.11,6.11,0,0,1,1.7-5.25,35.47,35.47,0,0,0,4.19-5.42c1.48-2.48,2.69-5.75.86-8.38-1.2-1.73-3.3-2.58-5.32-3.14A7,7,0,0,1,145.38,17S146.62,20.47,142.7,24.68Z"/><path class="cls-10" d="M140.6,48.66c-5.1-1.78-9.73-8.5-8-13.85a13.77,13.77,0,0,1,1.76-3.38,17.37,17.37,0,0,0,1.69-2.88c.62-1.57.28-3.32,0-4.93-.53-2.95-3.52-5.16-6.37-6.41,1.12,1.43,4,3.07,4.82,4.7a6.31,6.31,0,0,1,.57,4.51c-.47,2.58-2.4,4.53-3.45,6.86a10.15,10.15,0,0,0-.5,7.61C132.87,46,140.59,48.66,140.6,48.66Z"/><path class="cls-10" d="M149.79,44.65A49.27,49.27,0,0,0,146,40.36,10.69,10.69,0,0,1,143.24,36a9.7,9.7,0,0,1,.54-5.55,6.12,6.12,0,0,1,3.92-3.87,3.49,3.49,0,0,1,1.94-.16A3.9,3.9,0,0,1,152,29a5.33,5.33,0,0,1,.3,3.53,2.83,2.83,0,0,1-2.64,2.07,1.62,1.62,0,0,0,1-.89,4.85,4.85,0,0,0,.15-4.43,2.54,2.54,0,0,0-1-1.12,2.57,2.57,0,0,0-1.52-.29,3.89,3.89,0,0,0-2,.63A4.39,4.39,0,0,0,145,30.4a6.93,6.93,0,0,0-.09,5.05c.66,1.83,2.19,3.16,3.37,4.66,1.33,1.7,3.06,3.67,3.41,5.88.6,3.71-1.41,9.19-3.56,10.75a15.07,15.07,0,0,0,1.39-2.36c.81-2.1,1.38-3.4,1.28-5.66A8.25,8.25,0,0,0,149.79,44.65Z"/></g></svg>