<svg id="Layer_1" data-name="Layer 1" xmlns="http://www.w3.org/2000/svg" viewBox="0 0 165.86 165.86"><defs><style>.cls-1{fill:#cccccb;}.cls-2{opacity:0.24;}.cls-3{fill:#e8e8e8;}.cls-4{fill:none;}.cls-5{fill:#e1d6b7;}.cls-6{fill:#ece1c5;}.cls-7{fill:#eae0cc;}.cls-8{fill:#a68c62;}.cls-9{fill:#d1b199;}.cls-10{fill:#6d482e;}.cls-11{fill:#311f11;}.cls-12{fill:#473f3c;}.cls-13{fill:#91795f;}.cls-14{fill:#3a3027;}.cls-15,.cls-24{fill:#9c3821;}.cls-15,.cls-26{opacity:0.42;}.cls-16{fill:#2f5629;}.cls-17{fill:#162115;}.cls-18{opacity:0.35;}.cls-19{fill:#3a6731;}.cls-20{fill:#39783a;}.cls-21{fill:#2c5428;}.cls-22{fill:#377e3d;}.cls-23{fill:#356b34;}.cls-25{fill:#d4a643;}.cls-27{fill:#b0b0b0;}.cls-28{fill:#d5c8aa;}</style></defs><path class="cls-1" d="M125.78,138.22c34.23-18.68,41-52.76,15.13-76.12S74.31,35,40.08,53.64-.92,106.41,25,129.76C51.83,154,93.21,156,125.78,138.22Z"/><g class="cls-2"><path class="cls-3" d="M137.22,65.75c22.84,20.62,16.86,50.69-13.35,67.18l-3,1.62c-26.5,13.26-70.25,11.53-93.09-9.08S11,74.78,41.18,58.29s73.21-13.15,96,7.46"/></g><path class="cls-4" d="M70.46,121.31a12.49,12.49,0,0,1,3.08,2.86,2.9,2.9,0,0,1,0,3.51.52.52,0,0,1-.3.21.65.65,0,0,1-.62-.26c-1.68-1.93-.55-4.63-2.21-6.56"/><path class="cls-4" d="M71.93,129.11l-6.56-2.68a.92.92,0,0,0-.63-.09c-.33.1-.26.44-.09.65A5.59,5.59,0,0,0,68,128.71a23.66,23.66,0,0,0,4.31.26"/><path class="cls-5" d="M125.3,95.56a13,13,0,0,1,7.19,3.28,4.35,4.35,0,0,1,1.09,4.47c-.18.59-5.29,3.16-5.05,3.77s1,1.25,1.55,1.88c.86,1.06,3.7,1.49,3.73,2.57.05,1.38,2.13,1.45,2.17,2.83.06,1.88.12,3.79-.9,5.54a16.34,16.34,0,0,1-3.17,3.45l-5.69,5.18a7,7,0,0,1-4.94,2.08c-.73,0-1.5-.08-2.2,0a4.37,4.37,0,0,0-3,1.57c-3.52,3.38-11.77,5.44-20.42,4.86s-17.1-3.92-19.41-7.89c-.46-.78-.66-1.66.24-2.26a19.51,19.51,0,0,1,1.89-.86c2.82-1.46.14-4.12,1.58-6,1.08-1.41,4.22-2.12,6.37-3.19,3-1.52,4-3.72,5-5.83a88.08,88.08,0,0,1,5.77-10.31,12.59,12.59,0,0,1,4.26-4.45c2.65-1.58,6.83-2.55,11.39-2.65a37.85,37.85,0,0,1,13.37,2.09"/><path class="cls-6" d="M111.08,123.6a24.19,24.19,0,0,0-7.91-2.13,21.88,21.88,0,0,0-6-.32c-2,.25-4,1.13-4.62,2.48-.38.77-.29,1.65-.9,2.36-1.07,1.25-3.77,1.37-5,2.54a1.88,1.88,0,0,0,.2,2.94,5.76,5.76,0,0,0,4.13.94c1.66-.2,3.2-.93,4.87-.86a16.23,16.23,0,0,1,2.41.44,14.09,14.09,0,0,0,10-1.65c2.65-1.71,3.9-4.41,3.15-6.82"/><path class="cls-7" d="M91.71,115.15a11.46,11.46,0,0,0-.3,5.48,2.77,2.77,0,0,0,1.48,2.19c1.32.59,3.09.14,4.67.16,2.89,0,5.1,1.69,7.8,2.34a13.66,13.66,0,0,0,8-.69,13.49,13.49,0,0,0,5.63-4.24,13.83,13.83,0,0,1,1.52-1.87c1.17-1.09,2.95-1.81,4.19-2.86s1.75-2.81.25-3.63c-1.33-.73-3.28-.28-5,0-4.73.74-9.55-.26-14.34-.58s-10.44.36-13,3.26"/><path class="cls-7" d="M120.24,101.32a8.25,8.25,0,0,0-4.19,4.24,15.84,15.84,0,0,0-1,5.14,4.43,4.43,0,0,0,.64,3.36c1.27,1.54,4.19,1.94,6.77,1.9,4.32-.07,9.09-1.21,11.11-3.91a9.21,9.21,0,0,0,1.26-2.75l1.95-6a1.49,1.49,0,0,0-.09-1.55,3.34,3.34,0,0,0-2-.67c-4-.51-8.39-1-11.9.54"/><path class="cls-8" d="M126.63,76.71s12.46-3.68,16.05-4.06,10-1.18,7.62,2.23-2.44,2.57-2.62,4.69,2.63,3.68,1.83,6.6-.55,2.27-8,1.45a69.44,69.44,0,0,1-14.3-3.32Z"/><path class="cls-9" d="M134.42,82.88s-35,11.87-56.36,11.87-38.81-6.19-45.65-10-9.47-7.65-9.42-8,.12-1.72,2-4S53.36,52.51,73.17,54.63s45.45,18,49.1,19.6,15.35,4.08,16.4,6.92Z"/><path class="cls-10" d="M73.14,54.63c-19.81-2.12-46.4,15.79-48.23,18.13A12,12,0,0,0,23.5,75a95.49,95.49,0,0,0,14.77,2.5c7.29.4,11.72,6.62,16,2.7s4.6-6.1,7.65-3.86,3,6.39,9.23,10,8.48,6.57,17.15,4.36,35.36-4.8,39.71-8.35c1.75-1.42,2-3.59,1.76-5.68-3-1-6-1.78-7.52-2.45C118.59,72.64,93,56.75,73.14,54.63Z"/><path class="cls-11" d="M122.27,74.23c-3.65-1.59-29.29-17.48-49.1-19.6S26.77,70.42,24.94,72.76c-.27.35-.5.67-.7,1a26.64,26.64,0,0,0,14.22.56c7.57-2,13.71-9.71,17.62-9.26s5.71,2.76,8.76.48S68.49,60.18,73.5,61s17.69,1.7,21.06,4.84,8.74,4.34,12.74,5.15,12,4.44,16.38,4.67a32.5,32.5,0,0,1,6.47,1.19C127,75.8,123.88,74.93,122.27,74.23Z"/><path class="cls-12" d="M37.92,87.35s9.56-1,11.94-6-3.54-13.12-3.54-13.12,4.56,2.19,5.93,6.37.5,9.63-4.57,12.05-5.45,2.62-5.45,2.62Z"/><ellipse class="cls-13" cx="38.66" cy="67.81" rx="1.71" ry="1.45" transform="translate(-13.04 9.33) rotate(-11.79)"/><path class="cls-14" d="M23.29,75.57l3.55,1.19-3.85,0A9.62,9.62,0,0,1,23.29,75.57Z"/><path class="cls-8" d="M62.76,54.88s12.05-2.1,17.74-1.24,12.11.51,12,2.07-.62,2.33,1.7,2.61,4.85-.21,5.27.6S99.2,61,99.2,61a13.37,13.37,0,0,1,5.18.67,1.74,1.74,0,0,1,.94,2.8s3.64-.67,5.32.29,12.8,2.71,16.21,3.6S122.94,73,122.94,73l-1.66.78S97.17,61.23,87.17,58.25,62.76,54.88,62.76,54.88Z"/><path class="cls-8" d="M94.49,93.13s19.58-.21,24.27-.44,4.46-1.47,4.46-1.47,3.37.12,3.4-1.46-4.35-3.14-4.35-3.14Z"/><path class="cls-15" d="M134.42,82.88s-35,11.87-56.36,11.87-38.81-6.19-45.65-10-9.47-7.65-9.42-8,.12-1.72,2-4S53.36,52.51,73.17,54.63s45.45,18,49.1,19.6,15.35,4.08,16.4,6.92Z"/><path class="cls-8" d="M72.19,59.69s5.15,9.44-.25,22.43C71.94,82.12,84,70.78,72.19,59.69Z"/><path class="cls-8" d="M61.09,59.73s6.5,8.74,3,22.1C64.05,81.83,74.45,69.4,61.09,59.73Z"/><path class="cls-8" d="M83.62,60.2s3.58,10-3.74,22.41C79.88,82.61,93.45,72.64,83.62,60.2Z"/><path class="cls-8" d="M92.29,64.07s4,8.78-2.79,19.34C89.5,83.41,102.56,75.08,92.29,64.07Z"/><path class="cls-8" d="M102.53,68.57s1.26,7.35-5.87,14.54C96.66,83.11,108.08,78.55,102.53,68.57Z"/><path class="cls-16" d="M71.14,126.41c1.36,1,4,.41,5-.75a4,4,0,0,0,.59-4c-.39-1.33-1.06-2.64-1-4,.08-2,1.75-4.09,1-6.05s-3.44-3-5.36-4.51-3-3.21-4.6-4.76a19,19,0,0,0-6.56-4c-3.07-1.14-6.64-1.74-9.16-3.4-1-.65-1.78-1.45-2.8-2.08A17.28,17.28,0,0,0,43.13,91a11.75,11.75,0,0,0-4.3-.35,6.33,6.33,0,0,0-4.18,2.54,10.1,10.1,0,0,0-1.43,3.83L30,111.65c-.5,2.22-1,4.6.41,6.6s4.08,3.25,4.35,5.33a1.34,1.34,0,0,0,.26.83,2.25,2.25,0,0,0,1.25.44c2.35.34,4.86.43,6.88,1.31,2.24,1,3.56,2.8,5.9,3.67,3.07,1.13,6.86.32,10.38.13,1.88-.09,3.77,0,5.62-.25a12.55,12.55,0,0,0,6.71-2.94"/><path class="cls-17" d="M40.62,98.83c.42-1.65,2.65-1.69,2.51-2.55s-2.24-1.83-3.65-1.51a6,6,0,0,1-1.34.25,8.8,8.8,0,0,1-1.93-.43,4.94,4.94,0,0,0-4.13,1,6.88,6.88,0,0,0-2,3.3,5.93,5.93,0,0,0,.65,5.49,10.94,10.94,0,0,1,1,1.21c.76,1.33,0,2.87.76,4.21s2.3,1.84,3.43,2.81c.74.64,1.27,1.43,2.07,2,1.35,1,3.14,1.07,4.78,1.42a14.81,14.81,0,0,1,7.69,4.28l1.07-1c-1.43-2.37-4.29-3.9-7-5.14s-5.68-2.45-7.64-4.56a6.46,6.46,0,0,1-1.9-5.25c.28-1.68,1.9-3.64,3.74-3.76a2.39,2.39,0,0,0,1.52-.36C40.6,99.86,40.48,99.38,40.62,98.83Z"/><g class="cls-18"><path class="cls-4" d="M40.49,96.35c-1.53,1-4,.78-5.62,1.68a3.34,3.34,0,0,0-1.62,2,6.91,6.91,0,0,0-.14,2.31,17.69,17.69,0,0,0,.49,3.82,15.64,15.64,0,0,0,.9,2.28,22.05,22.05,0,0,0,1.5,2.78,6.82,6.82,0,0,0,1.45,1.66c2.19,1.72,6.1,1.95,8.31,3.65"/></g><path class="cls-19" d="M40.71,96.75c.61-2.25,3.44-4,6.57-4.75A26.41,26.41,0,0,1,57,92a9.88,9.88,0,0,1,3.27.93,9.85,9.85,0,0,1,2.2,2.06c1.52,1.59,3.73,2.79,5.5,4.25a26.54,26.54,0,0,1,5.74,7.41c.13.22.25.49,0,.68s-.87.1-1.23-.1c-1.81-1-2.81-2.5-4-3.9a26.57,26.57,0,0,0-4.9-4.58,15.12,15.12,0,0,0-6-2.85c-2.36-.48-5.2-.18-6.9,1.1s-2.3,3.29-4.62,3.64c-1.31.2-2.83-.26-3.92.3-.69.35-1.27,1.1-2.06.9a1.13,1.13,0,0,1-.62-.48c-1.39-1.9-.63-4.48,1.74-5.92"/><path class="cls-17" d="M67.28,101.85A29.25,29.25,0,0,0,60.62,96a11,11,0,0,0-4.27-1.69,7.5,7.5,0,0,0-4.78.55c-1.42.78-2.09,2.15-3.69,2.73-.91.33-2.06.37-2.75.91a8,8,0,0,1-.74.68c-.89.54-2.37.11-3.35.57a1.73,1.73,0,0,0-.81,2,3.92,3.92,0,0,1,2.86-1.43c.84-.07,1.7.07,2.52-.06a4.39,4.39,0,0,0,2.76-1.79,9.86,9.86,0,0,1,2-2.3,8.46,8.46,0,0,1,4.7-1.05,11.29,11.29,0,0,1,4.69,1.17A21.36,21.36,0,0,1,67.28,101.85Z"/><path class="cls-20" d="M45.47,126.3c2.33,1,6,.77,9-.17A23.37,23.37,0,0,0,62,122.05a5.5,5.5,0,0,0,1.77-1.9,4.11,4.11,0,0,0,0-2.06c-.13-1.52.58-3.11.75-4.67.23-2.28-.73-4.41-1.69-6.5a.57.57,0,0,0-.54-.39,1,1,0,0,0-.87.58c-.59,1.31-.11,2.57.16,3.82a11.26,11.26,0,0,1,0,4.59,7,7,0,0,1-2.28,4.1,10.09,10.09,0,0,1-6.25,2.31c-2.27,0-4.51-.83-6.59,0-1.18.44-2,1.34-3.28,1.5-.83.09-1.89-.07-2.33.37a.5.5,0,0,0-.09.53c.5,1.63,3.22,2.73,6.24,2.52"/><path class="cls-19" d="M61.8,112.14a9.88,9.88,0,0,1-.31,6.14A6.11,6.11,0,0,1,59.58,121a7.84,7.84,0,0,1-4.16,1.72c-1.74.17-3.39-.3-5.1.06a13.75,13.75,0,0,1-2.88.66c-.39,0-.75-.08-1.14,0-1.14.07-1.93.94-3.07,1.1a2.87,2.87,0,0,1-2.28-.76,6.05,6.05,0,0,0,3.4-.42c.71-.32,1.25-.76,2-1a7.54,7.54,0,0,1,3.62-.18,18.31,18.31,0,0,0,3.46.41,9.2,9.2,0,0,0,4.5-1.41,8.1,8.1,0,0,0,2.66-2.63A8.45,8.45,0,0,0,61.8,112.14Z"/><path class="cls-21" d="M59.85,96.54c.7.5-.05,2.22-1.62,2.83-.83.32-1.15,0-2,.36-1.27.49-1.31,1.8-2.36,2.51s-2.89.59-4.15,1.17a24.63,24.63,0,0,0-2,1.45,9.4,9.4,0,0,1-3.09.87L33.8,107.5a29.75,29.75,0,0,0-6.46,1.55c-2,.82-3.66,2.17-3.93,3.74-.43-2,1.34-4,3.68-5.26a35.8,35.8,0,0,1,8-2.6c6.6-1.69,9.7-2.89,12.35-5,2.27-1.79,2.91-3.37,5.14-3.59,1.44-.14,2.31.4,5.08.19C58.92,96.45,59.5,96.28,59.85,96.54Z"/><path class="cls-17" d="M58.82,97.09c-4.34.79-6.58,2.1-7.83,3.17a24.25,24.25,0,0,1-2.41,2,17.5,17.5,0,0,1-5.36,2.06c-2.59.69-5.18,1.37-7.83,1.92-4.4.9-9.58,1.74-11.59,4.62a31,31,0,0,1,16.65-5.59A24.5,24.5,0,0,0,44,105c1.31-.25,2.35-.71,4.94-2.21,3-1.73,3.79-2.42,6.18-3.78C56.66,98.14,58,97.48,58.82,97.09Z"/><path class="cls-20" d="M42,108.67c-.07-.67,4.53-1.93,8.42-2.38a13,13,0,0,0,3.43-.72,22.34,22.34,0,0,0,2.92-1.63c3.59-2,9.36-1.68,12.06.77.73.66,1.23,1.44,2,2.06.48.38,1.06.69,1.48,1.1a2.13,2.13,0,0,1-.28,3.31,5.29,5.29,0,0,1-4.67.69c-2.81-1-3-4-5.85-5-2-.67-4.42,0-6.33.84-2.58,1.13-3.51,1.9-6,2a17.25,17.25,0,0,1-3.21-.23C43.85,109.29,42.08,109.07,42,108.67Z"/><path class="cls-4" d="M42.1,108.31a28.38,28.38,0,0,0,12.14-1.86,22.13,22.13,0,0,1,3.48-1.26,15.7,15.7,0,0,1,6.71.41,6.8,6.8,0,0,1,2.22.8,7.57,7.57,0,0,1,1.53,1.84,2.79,2.79,0,0,0,2.43,1.07"/><path class="cls-22" d="M53.75,112.16c2.25-.27,2.76-2,3.85-1.85a2,2,0,0,1,1.22,2.89,4,4,0,0,0-.61,1,4.14,4.14,0,0,0,.17,1.52c.13,1.2-.81,2.38-2.16,3.16a13.44,13.44,0,0,1-4.72,1.45c-2.42.35-5.15.34-7-.72a13.49,13.49,0,0,0-1.39-.79c-1.57-.65-3.75-.15-5.34-.76s-1.93-1.86-3-2.77a25.18,25.18,0,0,1-2.18-1.69c-1-1.08-.75-2.47-.86-3.76a8.59,8.59,0,0,0-4-6.13l1.51-.79c2.81,1.2,4.21,3.48,5.27,5.66s2,4.51,4.38,6.11a10.52,10.52,0,0,0,6.46,1.67c2.25-.15,5.15-1.33,5.68-2.75a1.74,1.74,0,0,1,.79-1.16A4.77,4.77,0,0,1,53.75,112.16Z"/><path class="cls-23" d="M50.74,109.48c.78-.1,2.4-.33,3.25.28a1.48,1.48,0,0,1,.27,2.1,5.88,5.88,0,0,1-2.38,1.56,15.67,15.67,0,0,1-7.74,1.35c-4-.45-6.72-2.81-9.87-4.5a28.41,28.41,0,0,0-10.76-3.06,10.39,10.39,0,0,1,3.13-1c5.11-.89,7,2.51,14.32,3.06A60,60,0,0,0,50.74,109.48Z"/><path class="cls-17" d="M54.57,110.75A5.51,5.51,0,0,0,52,110a15,15,0,0,0-3.32.55,16.58,16.58,0,0,1-3.86.12c-2-.15-2-.51-5.1-1a23.36,23.36,0,0,1-3-.48,18.08,18.08,0,0,1-2.89-1.22,16.41,16.41,0,0,0-4.68-1.73,9.44,9.44,0,0,0-3.59.34,11.2,11.2,0,0,1,2.8-.54c3.79-.26,4.95,1.57,9.8,2.79,4.53,1.14,10,1.17,11.65.78a11.52,11.52,0,0,1,2.4-.22,3.22,3.22,0,0,1,1.35.21A1.59,1.59,0,0,1,54.57,110.75Z"/><path class="cls-17" d="M66.9,114.42c1.66,1.17.35,2.45,1.44,2.86s3.49-.24,4-1.22a2.84,2.84,0,0,1,.52-.9,8,8,0,0,1,1.68-.85,2.3,2.3,0,0,0,1.34-2.89,7.14,7.14,0,0,0-2.6-3,13,13,0,0,0-6.78-2.72c-.67,0-1.34,0-2-.14-2-.31-3.37-1.59-5.36-1.93-1.84-.32-3.55.26-5.37.35-1.18.06-2.43-.08-3.58,0-1.93.23-3.15,1.18-4.55,1.91A20.57,20.57,0,0,1,36,107.88l.49,1.16A25,25,0,0,0,46.72,108c3.12-.86,6.31-1.84,10-1.76a15.23,15.23,0,0,1,7.26,1.88c1.79,1.1,3.09,3.12,2.11,4.23-.22.24-.67.58-.5,1.06S66.34,114,66.9,114.42Z"/><g class="cls-18"><path class="cls-4" d="M69.86,115.74c-.19-1.41,1.52-2.7,1.46-4.12a2.86,2.86,0,0,0-1.34-2,13.65,13.65,0,0,0-2.6-1.38,39.59,39.59,0,0,0-4.74-1.87c-1-.31-2.12-.55-3.21-.78-1.36-.28-2.74-.54-4.15-.72a14.63,14.63,0,0,0-2.81-.11c-3.33.27-6,2.36-9.29,2.65"/></g><path class="cls-19" d="M69.25,115.64A4.91,4.91,0,0,1,70.8,122c-1.06,2.18-3.34,4-5.84,5.52a9.3,9.3,0,0,1-3.06,1.33,18.55,18.55,0,0,1-3.73.08c-2.78,0-5.52.55-8.29.73a57.6,57.6,0,0,1-12.11-.92c-.34-.05-.73-.14-.81-.37s.41-.55.86-.64a26.84,26.84,0,0,1,6.94-.05,50.16,50.16,0,0,0,8.31-.18,19.45,19.45,0,0,0,7-1.78c2-1.07,3.36-2.85,2.89-4.53s-2.43-3.15-1.43-4.66c.57-.85,2-1.46,2-2.39,0-.59-.51-1.33.2-1.66a1.81,1.81,0,0,1,.93-.09c3.06.29,5.61,2.17,5.84,4.31"/><path class="cls-17" d="M47.19,127.8A52.67,52.67,0,0,0,58,127.32a12.75,12.75,0,0,0,4.56-1.46c1.32-.74,2.3-1.86,2.25-3s-1.23-2.39-.93-3.62c.17-.7.81-1.38.6-2.07a5,5,0,0,1-.33-.8c-.1-.81,1.31-1.4,1.37-2.21s-1-1.23-1.85-1.59a1.87,1.87,0,0,1-.06,2.43c-.43.51-1.12.91-1.46,1.46a2.29,2.29,0,0,0,.4,2.56,8.06,8.06,0,0,1,1.47,2.43c.34,1.55-1.23,2.9-1.63,3.25a10.08,10.08,0,0,1-4.22,2A35.48,35.48,0,0,1,47.19,127.8Z"/><path class="cls-21" d="M57.89,126.59a2.46,2.46,0,0,1-2.31-2.51c.13-.65.65-.67.77-1.31.2-1-1.3-1.76-1.49-2.75s1.08-2,1.15-3c.05-.67-.39-1.29-.45-2a3.85,3.85,0,0,1,.86-2.23l4.52-7.13a12.67,12.67,0,0,0,2.11-4.53,4.19,4.19,0,0,0-2-4.33,5.47,5.47,0,0,1,3.9,5c0,2-.94,4-1.79,6-2,4.68-2.54,7.11-1.71,9.78.71,2.29,2.16,3.54,1.06,4.93-.71.89-1.87,1.08-3.31,2.77C58.55,126.11,58.41,126.54,57.89,126.59Z"/><path class="cls-17" d="M57.87,125.7c1.71-2.91,1.55-4.91,1.07-6.22A13.46,13.46,0,0,1,58,117a7.27,7.27,0,0,1,.85-4.19,59,59,0,0,1,2.52-5.51c1.62-3,3.79-6.4,1.65-9.16,1.15,4.26-.17,8.86-3.59,12.56a12.12,12.12,0,0,0-1.82,2.17c-.5.89-.59,1.73-.42,4,.2,2.66.51,3.5.64,5.62A23.64,23.64,0,0,1,57.87,125.7Z"/><path class="cls-21" d="M27.42,118.32a2.46,2.46,0,0,1-2.31-2.51c.13-.64.65-.67.78-1.31.19-1-1.31-1.76-1.49-2.75s1.07-2,1.15-3c0-.66-.4-1.29-.45-2a3.83,3.83,0,0,1,.85-2.23l4.52-7.13a12.62,12.62,0,0,0,2.12-4.53c.25-1.58,3.59-.37,1.92-1.42,2.59.88,0,.11,0,2.13s-.93,4-1.79,6c-2,4.68-2.53,7.11-1.7,9.78.7,2.29,2.16,3.55,1.06,4.93-.71.89-1.87,1.08-3.32,2.77C28.08,117.84,27.94,118.27,27.42,118.32Z"/><path class="cls-17" d="M27.41,117.43c1.71-2.91,1.55-4.91,1.06-6.21a14.66,14.66,0,0,1-.9-2.51,7.27,7.27,0,0,1,.85-4.19C29.2,102.67,30,100.82,31,99c1.61-3,6-4.3,3.85-7.06,1.15,4.26-2.37,6.76-5.8,10.47a12.57,12.57,0,0,0-1.82,2.16c-.49.89-.59,1.73-.41,4,.2,2.66.51,3.51.64,5.63A27.41,27.41,0,0,1,27.41,117.43Z"/><path class="cls-20" d="M54.57,109.69c.82.33-.5,3.65-2.33,6.1A5.72,5.72,0,0,0,51,118.13a10.56,10.56,0,0,0,.12,2.57c.1,3.13-3.72,6.25-8.21,6.39-1.21,0-2.42-.11-3.63,0-.72.06-1.44.21-2.17.22-1.71,0-3.32-.87-3.69-2s.51-2.47,2-3c2.84-1,6.52.55,9.34-.51a4.59,4.59,0,0,0,2.87-4c.25-2.1-.08-3.06,1.28-4.56a11.33,11.33,0,0,1,2.21-1.69C52.76,110.37,54.08,109.49,54.57,109.69Z"/><path class="cls-4" d="M55,109.93a13.37,13.37,0,0,0-5.21,7.91,9,9,0,0,1-.64,2.68c-.78,1.51-2.67,2.62-4.55,3.56a7.2,7.2,0,0,1-2.28.81,15.86,15.86,0,0,1-3.07-.17,3.29,3.29,0,0,0-2.72.77"/><path class="cls-22" d="M43.41,114.35c-1.06,1.42.64,2.68-.19,3.22s-3.28.08-4.1-.93a4.49,4.49,0,0,0-.83-.92,9.62,9.62,0,0,0-1.87-.77,3.58,3.58,0,0,1-2.37-3,5.69,5.69,0,0,1,1.19-3.49,8.05,8.05,0,0,1,5.1-3.57c.59-.12,1.21-.17,1.77-.34,1.7-.53,2.44-2,4.12-2.59s3.34,0,5-.12c1.1,0,2.19-.33,3.28-.29,1.85.06,3.34,1,4.91,1.63A19,19,0,0,0,69,104.37v1.3c-3.1.91-6.6.42-9.79-.21s-6.47-1.38-9.76-.95a9.62,9.62,0,0,0-5.88,2.71c-1.19,1.36-1.57,3.66-.24,4.76.29.25.84.57.88,1.1S43.76,113.88,43.41,114.35Z"/><path class="cls-23" d="M48.36,114.16a3.51,3.51,0,0,1-2.3,1.68,3.13,3.13,0,0,1-2.62-1,3.07,3.07,0,0,1-.37-2.23,7.24,7.24,0,0,1,3.13-5.13c2.92-2,7.35-2.22,11.23-3.06A27,27,0,0,0,67.53,100a4.64,4.64,0,0,1-.68,2.36c-2.08,3.39-7.19,2.56-12.26,6.38S48.36,114.16,48.36,114.16Z"/><path class="cls-17" d="M44.55,115.61a5.65,5.65,0,0,0,2.48-1c.79-.64.75-1.19,1.38-2.18a8.75,8.75,0,0,1,2.2-2.26c1.37-1,1.79-.83,4.25-2.33a18,18,0,0,1,2.36-1.4,20.5,20.5,0,0,1,3.17-1c2.63-.71,3.94-1.06,4.85-1.67A4.84,4.84,0,0,0,67,101.6,5.18,5.18,0,0,1,66,103.48c-2,2.29-4.83,1.92-9.2,4-4.08,1.92-7.41,5-8,6.14a5.28,5.28,0,0,1-1.21,1.49,2.73,2.73,0,0,1-1,.65A3.42,3.42,0,0,1,44.55,115.61Z"/><path class="cls-4" d="M84.85,113.33a3.38,3.38,0,0,1-1.67,3.09,5.35,5.35,0,0,1-1.86.45c-.68.07-1.5,0-1.8-.41a.69.69,0,0,1,.16-.88,4.54,4.54,0,0,1,.94-.68,10.74,10.74,0,0,0,2.55-2.18,3.91,3.91,0,0,1,.77-.81,1.87,1.87,0,0,1,1.24-.34.4.4,0,0,1,.25.1.24.24,0,0,1,.06.2l0,1.31"/><path class="cls-4" d="M84.08,111.81A29.6,29.6,0,0,0,80.82,114a3,3,0,0,0-1.29,1.61A1.28,1.28,0,0,0,81,116.91a2.4,2.4,0,0,0,1.72-1.1l2.11-2.67a1.19,1.19,0,0,0,.31-.61.51.51,0,0,0-.51-.47"/><path class="cls-7" d="M80.54,118.13a18.4,18.4,0,0,0,5,4.14,5.3,5.3,0,0,0,3.22.92c1.58-.18,2.5-1.33,3.74-2,2.25-1.3,5.52-1.12,8.21-1.89a8.81,8.81,0,0,0,5.48-4.2,7.34,7.34,0,0,0,.29-5.7,10.32,10.32,0,0,1-.61-2.06c-.14-1.35.55-2.69.5-4a3,3,0,0,0-3.26-2.76c-1.71.08-2.78,1.31-3.81,2.28-2.93,2.73-7.58,4.22-11.56,6.2s-7.67,5.08-6.86,8.38"/><path class="cls-24" d="M59.42,117.43a5.94,5.94,0,0,1-.18-3.44.53.53,0,0,1,.56-.46.51.51,0,0,1,.34.22,6.71,6.71,0,0,1,1.5,3.21.21.21,0,0,1,0,.2.51.51,0,0,1-.32.1l-1.53.14"/><path class="cls-24" d="M35.31,110a8.53,8.53,0,0,1-2.65-2.86c-.11-.2-.15-.51.15-.58a.77.77,0,0,1,.47.07,11.62,11.62,0,0,1,3.64,2.19c.06.06.12.11.11.18s-.11.15-.21.2l-1.24.66"/><path class="cls-24" d="M48.64,99.66c-.07.58-.18,1.16-.22,1.74a.71.71,0,0,0,.13.53,1.09,1.09,0,0,0,.63.32,5.3,5.3,0,0,0,1.32,0,6.3,6.3,0,0,0,2.18-.59,3.11,3.11,0,0,0,1.14-.82.92.92,0,0,0,.2-.8,1.33,1.33,0,0,0-.64-.68,3.45,3.45,0,0,0-.73-.34A1.76,1.76,0,0,0,51.8,99a2.48,2.48,0,0,0-1,.33c-.18.12-.46.3-.49.53a.39.39,0,0,0,.26.45,3.72,3.72,0,0,1,.78.37l-.17-.11a1.14,1.14,0,0,1,.29.29l-.09-.15a.54.54,0,0,1,.05.21v-.17a.55.55,0,0,1-.05.17l.09-.19a.5.5,0,0,1-.11.17l.17-.18-.1.09c-.13.12.24-.16.09-.06l-.13.07c.35-.21.22-.11.12-.06s-.5.17,0,0l-.31.08-.16,0,.24,0-.11,0-.33,0c-.2,0,.33,0,.11,0h-.3c-.09,0,0,0,.15,0l-.1,0,.24.07-.09,0L51,101l-.08-.08.09.15a.33.33,0,0,1,0-.17v.18a8.24,8.24,0,0,1,.11-.85l.11-.91c.07-.56-.73-.59-1.11-.53a2.38,2.38,0,0,0-1,.33c-.19.12-.47.3-.5.53Z"/><path class="cls-24" d="M46.32,123.37l0,0,.18.15-.05-.06.1.19a.12.12,0,0,1,0-.08v.21a.19.19,0,0,1,0-.07l-.09.22a.43.43,0,0,1,0-.07l-.16.21.05-.06-.23.19.06,0-.29.16.06,0-.34.12.09,0-.35.07h-.06l-.3-.05.17.05-.24-.1.16.1-.18-.15a.62.62,0,0,1,.14.18l-.1-.2a.81.81,0,0,1,.09.37v-.22a.88.88,0,0,1,0,.32l.08-.22a1,1,0,0,1-.1.17l.16-.21a.49.49,0,0,1-.12.13l.23-.19a.42.42,0,0,1-.14.09l.29-.16a.61.61,0,0,1-.14.07l.34-.12-.17,0,.35-.06-.18,0h.17l.29,0-.06,0a2.16,2.16,0,0,0-1,0,2,2,0,0,0-.48.2,1.41,1.41,0,0,0-.37.27.71.71,0,0,0-.24.65.74.74,0,0,0,.53.44,2.43,2.43,0,0,0,.47.08,4.7,4.7,0,0,0,.53,0,3.12,3.12,0,0,0,.53-.11,3.61,3.61,0,0,0,.64-.27,2.55,2.55,0,0,0,.4-.27c0-.05.12-.09.17-.15a2.09,2.09,0,0,0,.22-.28,1,1,0,0,0,.1-.18,1.33,1.33,0,0,0,.12-.4,1.46,1.46,0,0,0,0-.59,1.8,1.8,0,0,0-.17-.34,1.22,1.22,0,0,0-.31-.29,1.65,1.65,0,0,0-.87-.3,2.09,2.09,0,0,0-.5,0l-.27,0a2.3,2.3,0,0,0-.59.17,1.9,1.9,0,0,0-.37.2,1.23,1.23,0,0,0-.28.23,1.1,1.1,0,0,0-.32.55.53.53,0,0,0,0,.35,2,2,0,0,0,.1.21l0,0a.53.53,0,0,0,.12.1l.13.1a1.54,1.54,0,0,0,.87.15,1.89,1.89,0,0,0,.52-.13,1.35,1.35,0,0,0,.45-.22l.23-.19a.83.83,0,0,0,.25-.42v-.22a.59.59,0,0,0-.28-.34Z"/><path class="cls-24" d="M61.28,105.43l0,0c-.09-.05-.19-.08-.28-.12a2.92,2.92,0,0,0-.39-.07,2.73,2.73,0,0,0-.9.08l-.12,0a3.75,3.75,0,0,0-.43.16,2.25,2.25,0,0,0-.67.47,1,1,0,0,0-.3.59.82.82,0,0,0,0,.31.37.37,0,0,0,.07.14.71.71,0,0,0,.08.15.28.28,0,0,0,.09.1,1.58,1.58,0,0,0,.29.22,2,2,0,0,0,.52.22,3.66,3.66,0,0,0,1.71,0,1.68,1.68,0,0,0,.48-.2,1.07,1.07,0,0,0,.37-.27.58.58,0,0,0,.2-.31.4.4,0,0,0,0-.32l-.1-.19a.89.89,0,0,0-.42-.24,2,2,0,0,0-1,0h-.06l.35-.07a1.07,1.07,0,0,1-.25,0h.33a1,1,0,0,1-.29,0l.29.05a1.34,1.34,0,0,1-.27-.07l.25.1a1,1,0,0,1-.24-.14l.18.15a.75.75,0,0,1-.14-.17l.1.19a.83.83,0,0,1,0-.15v.21a.44.44,0,0,1,0-.1l-.08.22a.16.16,0,0,1,0-.07l-.16.2.06-.06-.23.19.08-.06-.28.16.09,0-.33.12.12,0-.35.07H59.5a.48.48,0,0,1,.12,0l-.29,0,.1,0-.25-.09.08,0a.89.89,0,0,0,.38.12,1.29,1.29,0,0,0,.48,0,1.58,1.58,0,0,0,.52-.12,1.76,1.76,0,0,0,.46-.22l.23-.19a.8.8,0,0,0,.24-.42v-.21a.54.54,0,0,0-.28-.33Z"/><path class="cls-24" d="M65.32,109.61l-.06.91,0,.46a1.93,1.93,0,0,0,0,.34.67.67,0,0,0,.13.21.94.94,0,0,0,.19.14l.25.09a2,2,0,0,0,.73,0,2.77,2.77,0,0,0,.5-.1,5.32,5.32,0,0,0,.66-.26,4.09,4.09,0,0,0,.67-.4,2.59,2.59,0,0,0,.35-.31,2,2,0,0,0,.34-.46,1.58,1.58,0,0,0,.17-.49.29.29,0,0,0,0-.27.37.37,0,0,0-.22-.22,1,1,0,0,0-.38-.1,1.29,1.29,0,0,0-.48,0,2.24,2.24,0,0,0-1,.33l-.24.18a.8.8,0,0,0-.25.39.84.84,0,0,1-.07.26l.09-.2a1.75,1.75,0,0,1-.18.29l.16-.19a1.26,1.26,0,0,1-.24.22l.23-.17a2.26,2.26,0,0,1-.26.16l.29-.15a1.59,1.59,0,0,1-.27.12l.33-.12-.16,0,.35-.07h.22l.29,0h0l.24.09,0,0,.17.13a.05.05,0,0,1,0,0l.09.17s0,0,0,0v.19c0-.49.06-1,.09-1.47a.31.31,0,0,0,0-.28.4.4,0,0,0-.23-.21,1,1,0,0,0-.38-.1,1.48,1.48,0,0,0-.47,0,2.44,2.44,0,0,0-1,.34l-.23.18a.68.68,0,0,0-.25.39Z"/><path class="cls-24" d="M43.56,114.32h0l.24-.15h0l.29-.13h0l.34-.11h0l.35-.07h0l.32,0H44.9l.28,0h-.07l.24.05-.08,0,.17.09a.18.18,0,0,1-.07,0l.09.12a.11.11,0,0,1,0-.08v.15s0,0,0-.07l-.1.16,0,0-.17.16,0,0a.56.56,0,0,0,.22-.24.24.24,0,0,0,.06-.23.26.26,0,0,0-.17-.17.57.57,0,0,0-.31-.1h-.28a3.1,3.1,0,0,0-.68.1l-.33.11a2.54,2.54,0,0,0-.54.29l-.12.1s-.08.07-.11.11h0l-.1.16v0s0,0,0,0v0a.71.71,0,0,0,0,.15h0v0s0,0,0,0v0l.09.13h0a.37.37,0,0,0,.14.09.51.51,0,0,0,.15.07l.24.06h.38l.35,0h0l.18,0,.18,0h0l.35-.12h0l.16-.07.15-.08h0l.24-.15h0a.64.64,0,0,0,.22-.24.26.26,0,0,0,0-.23.23.23,0,0,0-.16-.17.57.57,0,0,0-.31-.1H45.1a3.1,3.1,0,0,0-.67.1l-.34.11a2.47,2.47,0,0,0-.53.29Z"/><path class="cls-24" d="M39.32,98.51a2.73,2.73,0,0,0-.26-1.09l-2.49.88.49.46a.61.61,0,0,0,.29.19,1,1,0,0,0,.42.09,1.67,1.67,0,0,0,.5,0,1.5,1.5,0,0,0,.51-.15l.29-.16a1.21,1.21,0,0,0,.39-.39l.09-.21a.46.46,0,0,0-.11-.39L39,97.24a.6.6,0,0,0-.3-.19,1,1,0,0,0-.41-.09h-.33a1.58,1.58,0,0,0-.52.12,1.09,1.09,0,0,0-.31.14,1.42,1.42,0,0,0-.38.26l-.16.21a.57.57,0,0,0-.08.42,2.69,2.69,0,0,1,.27,1.08.37.37,0,0,0,.19.25.59.59,0,0,0,.33.17,1.41,1.41,0,0,0,.46,0,1.79,1.79,0,0,0,.51-.07l.34-.12a1.94,1.94,0,0,0,.52-.34l.16-.2a.52.52,0,0,0,.07-.42Z"/><path class="cls-25" d="M39.13,117.94a.9.9,0,0,0-.06-.22,2.11,2.11,0,0,0-.16-.34l-.06-.11a1,1,0,0,0-.15-.2,4.31,4.31,0,0,0-.37-.37.88.88,0,0,0-.4-.17,1.16,1.16,0,0,0-.49,0,1.32,1.32,0,0,0-.52.12,1.4,1.4,0,0,0-.45.24l-.22.22a.85.85,0,0,0-.22.5l0,.26a.77.77,0,0,0,.3.43l.12.1-.2-.19a1.46,1.46,0,0,1,.29.41l-.11-.24a1.12,1.12,0,0,1,.1.31.59.59,0,0,0,.21.33.77.77,0,0,0,.35.23,1,1,0,0,0,.46.08,1.3,1.3,0,0,0,.52,0l.34-.13a1.36,1.36,0,0,0,.5-.39l.16-.25a.77.77,0,0,0,0-.52Z"/><path class="cls-25" d="M47.5,115.39c1.46,0,2-1.87.23-1.87-1.46,0-2,1.87-.23,1.87Z"/><path class="cls-25" d="M48.55,99.65a1.7,1.7,0,0,1-.11-.92l0,.11a1.8,1.8,0,0,1,.17-.51c.07-.16-.09-.23-.21-.26a1.09,1.09,0,0,0-.36,0,1.75,1.75,0,0,0-.46,0,3.78,3.78,0,0,0-1,.3l-.24.13a.73.73,0,0,0-.29.26,1.87,1.87,0,0,0-.07,1.55c.06.15.32.16.45.16a2.08,2.08,0,0,0,.43,0,2.88,2.88,0,0,0,.51-.1,3.08,3.08,0,0,0,.88-.36l.19-.13a.29.29,0,0,0,.12-.24Z"/><path class="cls-25" d="M63.05,108.19l.85,1.23a.21.21,0,0,0,.16.14.55.55,0,0,0,.31.08,2.16,2.16,0,0,0,.44,0,2.28,2.28,0,0,0,.51-.09l.34-.11a2.73,2.73,0,0,0,.54-.27l.17-.15a.29.29,0,0,0,.12-.27l-.85-1.23a.22.22,0,0,0-.16-.15.55.55,0,0,0-.31-.07,1.63,1.63,0,0,0-.44,0,3.06,3.06,0,0,0-.51.1l-.33.11a2.73,2.73,0,0,0-.54.27l-.18.14a.32.32,0,0,0-.12.28Z"/><path class="cls-25" d="M59.68,117.09l0-.22a.39.39,0,0,0-.19-.24.57.57,0,0,0-.33-.16,1.38,1.38,0,0,0-.45,0,1.81,1.81,0,0,0-.52.07l-.34.12a1.94,1.94,0,0,0-.52.34l-.16.2a.53.53,0,0,0-.08.41l0,.21a.39.39,0,0,0,.18.25.64.64,0,0,0,.33.16,1.41,1.41,0,0,0,.46,0,1.51,1.51,0,0,0,.51-.08l.34-.11a2,2,0,0,0,.52-.34l.16-.2a.5.5,0,0,0,.08-.41Z"/><path class="cls-25" d="M63.13,126.49l.17-.12-.29.18a2.81,2.81,0,0,1,.35-.17l-.33.13a1.69,1.69,0,0,1,.44-.12l-.35.06a1.83,1.83,0,0,1,.47,0h-.18a1.88,1.88,0,0,0,1-.18,1.21,1.21,0,0,0,.4-.28.92.92,0,0,0,.26-.35.75.75,0,0,0-.06-.74,1.09,1.09,0,0,0-.74-.39,4.25,4.25,0,0,0-1.55.12l-.21.06c-.17.07-.35.13-.51.21a1.92,1.92,0,0,0-.31.18,2,2,0,0,0-.31.2A1.13,1.13,0,0,0,61,126a.74.74,0,0,0,.32.68,1.35,1.35,0,0,0,.88.21,1.77,1.77,0,0,0,1-.36Z"/><path class="cls-17" d="M38.85,118.71l.26,1.53a.42.42,0,0,0,.19.26.65.65,0,0,0,.33.17,1.41,1.41,0,0,0,.46,0,1.5,1.5,0,0,0,.51-.07,1.85,1.85,0,0,0,.86-.46.72.72,0,0,0,.23-.63L41.44,118a.43.43,0,0,0-.19-.26.59.59,0,0,0-.33-.17,1.2,1.2,0,0,0-.46,0,1.52,1.52,0,0,0-.52.07,1.86,1.86,0,0,0-.85.46.72.72,0,0,0-.24.63Z"/><path class="cls-17" d="M33.39,107.91l-1.25-.38a1.19,1.19,0,0,0-.46-.06,1.87,1.87,0,0,0-1,.26,1.16,1.16,0,0,0-.37.29.75.75,0,0,0-.22.69l.1.2a.87.87,0,0,0,.43.28l1.25.39a1.19,1.19,0,0,0,.46.06,2,2,0,0,0,1-.27,1.13,1.13,0,0,0,.37-.28.75.75,0,0,0,.22-.69l-.1-.21a.87.87,0,0,0-.43-.28Z"/><path class="cls-17" d="M30.9,113.12c.18,0,.36,0,.54,0h0a1.35,1.35,0,0,1,.28,0,5.84,5.84,0,0,1,1,.25l-.24-.08a5.15,5.15,0,0,1,1,.48,1.58,1.58,0,0,0,.86.1,2.26,2.26,0,0,0,1-.34c.19-.12.46-.31.49-.56a.45.45,0,0,0-.27-.48,7.54,7.54,0,0,0-3.72-.94,2.49,2.49,0,0,0-1,.19,1.5,1.5,0,0,0-.69.52.44.44,0,0,0,0,.55,1,1,0,0,0,.71.24Z"/><path class="cls-17" d="M45.67,111.33a4.86,4.86,0,0,1-1.52-1.26l.08.1a2.43,2.43,0,0,1-.56-1.59l0,.13a1.48,1.48,0,0,1,.18-.51.21.21,0,0,1,0-.06l0,0a.32.32,0,0,0,.1-.1c.06,0,0,0-.08.07.07,0,.06,0,0,0l0,0-.14.06a1.83,1.83,0,0,0,.72-.4c.09-.1.19-.26,0-.36a1.07,1.07,0,0,0-.66-.1,4,4,0,0,0-1,.23,2.45,2.45,0,0,0-1.56,1.23,1.8,1.8,0,0,0,0,1.19,4.27,4.27,0,0,0,2.05,2.18,1.24,1.24,0,0,0,.66.1,3.45,3.45,0,0,0,1-.23,1.76,1.76,0,0,0,.72-.4c.08-.09.21-.27,0-.36Z"/><path class="cls-17" d="M45.88,102l.06.09-.08-.12a5.74,5.74,0,0,1,.86,1.84c.05.18.33.22.47.24a3.29,3.29,0,0,0,1.83-.49c.12-.1.33-.25.29-.44a6.18,6.18,0,0,0-1-2A.52.52,0,0,0,48,101a1.35,1.35,0,0,0-.4,0,3.21,3.21,0,0,0-1,.22l-.29.13a1.4,1.4,0,0,0-.42.3l-.1.15a.19.19,0,0,0,.07.25Z"/><path class="cls-17" d="M43.85,123.72s.33,0,.08,0,0,0,.09,0h.36l.4,0,.22,0c.08,0,.29,0,0,0a9.58,9.58,0,0,1,1.5.34l-.23-.08.1,0a1.93,1.93,0,0,0,.86.1,2.3,2.3,0,0,0,1-.34c.19-.12.45-.31.48-.55a.43.43,0,0,0-.26-.48,10.29,10.29,0,0,0-4.19-.53,2.49,2.49,0,0,0-1,.34c-.16.11-.45.33-.48.56-.08.59.73.6,1.12.58Z"/><path class="cls-17" d="M59.81,126.13a5.3,5.3,0,0,1-.65-.28l.16.09a3,3,0,0,1-1.1-1l.08.13,0-.05a.27.27,0,0,0-.17-.16.54.54,0,0,0-.31-.09,2.54,2.54,0,0,0-.95.09,2.6,2.6,0,0,0-.88.4l-.17.15a.37.37,0,0,0-.11.31,3,3,0,0,0,.81.86,4.65,4.65,0,0,0,1.22.61,1.94,1.94,0,0,0,.83,0,3.11,3.11,0,0,0,1-.32l.24-.15a.8.8,0,0,0,.27-.31v-.15a.35.35,0,0,0-.25-.21Z"/><path class="cls-17" d="M51.84,117.3l.75,1.36a.25.25,0,0,0,.16.17.53.53,0,0,0,.32.1,1.62,1.62,0,0,0,.44,0,2.09,2.09,0,0,0,.51-.09,2.27,2.27,0,0,0,.88-.4l.17-.16a.34.34,0,0,0,.1-.32l-.75-1.36a.25.25,0,0,0-.16-.17.6.6,0,0,0-.32-.1,1.62,1.62,0,0,0-.44,0,2.28,2.28,0,0,0-.51.09,2.16,2.16,0,0,0-.87.4l-.18.16a.38.38,0,0,0-.1.32Z"/><path class="cls-17" d="M59.52,102.17a7.84,7.84,0,0,0-.89-3.62c-.08-.16-.3-.18-.45-.19a3,3,0,0,0-1,.12,3.1,3.1,0,0,0-.88.37c-.09.06-.38.24-.3.39a7.84,7.84,0,0,1,.88,3.62c0,.16.4.18.46.19a3.79,3.79,0,0,0,1.83-.49c.14-.1.3-.2.3-.39Z"/><g class="cls-26"><path class="cls-24" d="M143.53,73.85c-2.72-.59-6.19-.35-9.41-.35s-6.78-.41-7.66-1.7c-.38-.55-.2-1.19-.62-1.73-.83-1.06-3.64-1.44-6.22-1.61a117.28,117.28,0,0,0-20.8.49c-3.63.41-7.59,1.11-9.66,2.55-.77.53-1.21,1.13-2.07,1.64a5.87,5.87,0,0,1-3.55.73l.07-.19C75.3,75,69.51,79.45,71.32,82.89c-2.55,1.52-3.86,4.13-2.77,6.32.28.58.71,1.18.47,1.78-.17.41-.63.73-1,1.1s-.51.87-.12,1.19a2.69,2.69,0,0,0,1.23.34,6.22,6.22,0,0,1,3.74,1.84c.61.69.94,1.54,1.81,2.09a6,6,0,0,0,4.2.39,33.65,33.65,0,0,0,4-1.37,22.9,22.9,0,0,1,7.82-1.19,33,33,0,0,0,6.44,0,13.09,13.09,0,0,0,6.57-3.67A16.91,16.91,0,0,0,105.48,90a76.65,76.65,0,0,1,9.21-.81c4.25-.1,8.52.15,12.73-.46a36.87,36.87,0,0,0,13.44-5c2.77-1.61,5.43-3.32,6.41-5.19S147.1,74.62,143.53,73.85Z"/></g><g class="cls-26"><path class="cls-24" d="M72.13,81.92l0,0,.09.17a2,2,0,0,1-.25-.9v.2a2.21,2.21,0,0,1,.19-.88l-.09.2a2.41,2.41,0,0,1,.41-.64l-.17.19a2.9,2.9,0,0,1,.36-.34s.16-.13,0,0h0l.25-.16-2,.1a1.34,1.34,0,0,1,.32.39l-.09-.17a1.43,1.43,0,0,1,.16.58v-.19a1.55,1.55,0,0,1-.11.56l.08-.2a1.59,1.59,0,0,1-.22.35l.17-.2-.15.16-.07.06c-.14.13.24-.18.08-.06a1.08,1.08,0,0,0-.48.57.45.45,0,0,0,.27.49,1.5,1.5,0,0,0,.86.11,2.3,2.3,0,0,0,1-.34,2.51,2.51,0,0,0,1.18-1.63,1.75,1.75,0,0,0-.57-1.51,1.18,1.18,0,0,0-.87-.25,2.42,2.42,0,0,0-1.14.35,4,4,0,0,0-1.77,2,2.47,2.47,0,0,0-.13,1,2.28,2.28,0,0,0,.36,1c.11.18.53.24.71.25a2.37,2.37,0,0,0,1-.2,1.5,1.5,0,0,0,.69-.52l.08-.2a.41.41,0,0,0-.09-.37Z"/></g><g class="cls-26"><path class="cls-24" d="M86.05,68.59a3,3,0,0,0-.14-1.88A4.26,4.26,0,0,0,84.48,65a1.53,1.53,0,0,0-1.22-.09,1.55,1.55,0,0,0-1,.69,3.81,3.81,0,0,0-.43,2.12,3.65,3.65,0,0,0,.74,1.87,1,1,0,0,0,.72.31,2,2,0,0,0,1-.19c.41-.2,1-.69.64-1.2a3.88,3.88,0,0,1-.3-.48l.1.2a3.35,3.35,0,0,1-.35-1.28v.22a3.28,3.28,0,0,1,.19-1.2l-.08.22a2.87,2.87,0,0,1,.18-.4l-2.23.6.22.17-.18-.16a3.66,3.66,0,0,1,.84,1l-.1-.2a2.77,2.77,0,0,1,.3,1.09V68.1a2.63,2.63,0,0,1-.08.74.56.56,0,0,0,.29.57,1.46,1.46,0,0,0,.87.15c.57-.07,1.29-.35,1.44-1Z"/></g><path class="cls-24" d="M82.3,77a.8.8,0,0,0,0-.64,1.07,1.07,0,0,1-.16-.55v.12a.4.4,0,0,1,.07-.18l-.1.13a1.14,1.14,0,0,1,.11-.11l-.17.14.08-.06-.18.1-.22.09.08,0c-.3.08-.39.11-.26.08l-.26.06h0l-.23,0h.08l-.23,0a.94.94,0,0,1,.3.07l-.15-.06a1.13,1.13,0,0,1,.43.32l-.08-.09a.94.94,0,0,1,.19.68l0-.12a1.86,1.86,0,0,1-.42.84l.11-.13-.37.44c-.1.11-.19.23-.05.35a1.07,1.07,0,0,0,.66.08,3.88,3.88,0,0,0,1-.22,1.83,1.83,0,0,0,.72-.4q.3-.33.57-.69a1.83,1.83,0,0,0,.3-.63,1.19,1.19,0,0,0,0-.62,1.31,1.31,0,0,0-.37-.53,2.5,2.5,0,0,0-2-.29,5,5,0,0,0-1.42.43,1.81,1.81,0,0,0-.82.65.71.71,0,0,0,0,.62,1.24,1.24,0,0,1,.19.6l0-.12,0,.11c-.07.17.08.25.21.28a2.06,2.06,0,0,0,.82,0,4.22,4.22,0,0,0,1-.31c.18-.09.45-.21.53-.41Z"/><path class="cls-24" d="M95.31,69.32A3,3,0,0,0,95,68.1a2.45,2.45,0,0,0-.8-1,2.3,2.3,0,0,0-3.14,1.09,4.59,4.59,0,0,0,1,4.31,1.46,1.46,0,0,0,1.58.23c.48-.18,1-.56.89-1.13L94.45,71c0-.24-.34-.42-.54-.49a1.72,1.72,0,0,0-1,0c-.54.16-1.15.55-1.07,1.19l.08.56,2.48-.91a4.32,4.32,0,0,1-.58-.88l.1.21a4.37,4.37,0,0,1-.43-1.59l0,.24a3.78,3.78,0,0,1,.11-1.16l-.08.24a1.51,1.51,0,0,0,.09-.18c-.12.15-.14.18-.07.1s0-.06-.11.09c.1-.08,0-.05-.15.08a1.71,1.71,0,0,1-.49.14.85.85,0,0,1-.59-.12l.09.07-.19-.17a2.24,2.24,0,0,1,.42.6l-.1-.21a2.62,2.62,0,0,1,.25.92l0-.24v.07a.65.65,0,0,0,.3.61,1.43,1.43,0,0,0,.88.19,1.88,1.88,0,0,0,1-.36c.19-.15.47-.4.46-.66Z"/><path class="cls-24" d="M91.87,83.32a7.52,7.52,0,0,0,1.8-1.09,7.08,7.08,0,0,0,.78-.77,1.62,1.62,0,0,0,.37-.65.92.92,0,0,0-.35-1,2.34,2.34,0,0,0-1.55-.33,4.24,4.24,0,0,0-1.41.35,3.49,3.49,0,0,0-1.73,1.53,3.93,3.93,0,0,0-.23,2.49c0,.26.34.47.55.56a1.67,1.67,0,0,0,1,0,1.63,1.63,0,0,0,.84-.51l.15-.25a.69.69,0,0,0,0-.51c0-.19,0-.39-.06-.58l0,.26a3.29,3.29,0,0,1,.07-1l-.07.26a1.89,1.89,0,0,1,.2-.46l-.15.24a1.79,1.79,0,0,1,.31-.37l-.23.21a2.82,2.82,0,0,1,.39-.29l-.29.18a3.29,3.29,0,0,1,.42-.21l-.34.13a2.17,2.17,0,0,1,.42-.11l-.35,0a3.91,3.91,0,0,1,.49,0h-.34l.23,0-.3-.07.12,0-.25-.13a.18.18,0,0,1,.09.06l-.19-.19a.21.21,0,0,1,0,.06L92.25,81v0l0-.26a.14.14,0,0,1,0,.09l.07-.26a.36.36,0,0,1,0,.09l.15-.24A3.23,3.23,0,0,1,92,81l.23-.22a5.18,5.18,0,0,1-.88.68l.28-.17a7.16,7.16,0,0,1-.87.45,1.35,1.35,0,0,0-.66.63.77.77,0,0,0,.06.75,1.48,1.48,0,0,0,1.76.23Z"/><path class="cls-24" d="M101.47,82.64a5,5,0,0,0,3.57-2.5c.14-.31-.29-.45-.49-.5a6.56,6.56,0,0,0-4.51.64c-1,.53-2,1.63-1.67,2.86.06.2.31.29.49.32a2.13,2.13,0,0,0,1-.07,2,2,0,0,0,.86-.42c.14-.13.33-.31.27-.53a1.43,1.43,0,0,1-.07-.46v.17a1.58,1.58,0,0,1,.1-.48.5.5,0,0,1,.05-.13c0-.11,0,0,0,0a2.29,2.29,0,0,0,.16-.23l.09-.12c.07-.09-.13.13,0,0l.23-.21c.1-.08-.24.15,0,0l.11-.07s.22-.11,0,0,0,0,0,0,.37-.14.12-.06.07,0,.14,0,.27-.06,0,0,0,0,0,0l.3,0c.15,0-.31,0-.09,0h.16c.1,0,.2,0,.3,0-.09,0-.23,0,0,0l.16,0L103,81l-.49-.5c-.07.17,0,0,0,0s-.08.12-.08.13a2.56,2.56,0,0,1-.2.26l0,0c-.07.07,0,.06,0,0s-.08.07-.1.09l-.14.12s-.21.15,0,0l0,0-.16.09-.16.09c.34-.19.14-.07.06,0l-.18.08c-.22.08.33-.1.08,0l-.39.1a2.16,2.16,0,0,0-.86.42c-.12.11-.34.34-.27.53.19.51,1.08.34,1.46.26Z"/><path class="cls-24" d="M117.66,71.65a6.4,6.4,0,0,1-1-.25l-.46-.17-.09,0-.2-.11a3.89,3.89,0,0,1-1.28-1.1l.08.11a.9.9,0,0,1-.23-.55v.13s0-.11,0-.11-.1.12,0,0a1.67,1.67,0,0,1-.71.34l-.17,0c.21,0-.25,0-.11,0s-.21,0,0,0l.24,0c.13,0-.14,0,0,0l.13,0a3.41,3.41,0,0,1,.57.16l.25.09h0l.12.06c.15.08.29.17.43.26a3,3,0,0,1,.72.69l-.08-.11a2.09,2.09,0,0,1,.38.86c0,.17.35.21.47.22a2.7,2.7,0,0,0,.94-.12,2.46,2.46,0,0,0,.88-.37c.13-.1.33-.24.3-.42a2.66,2.66,0,0,0-1.08-1.58,5.09,5.09,0,0,0-2.31-.9,4.71,4.71,0,0,0-1.5,0,3.23,3.23,0,0,0-1.92.88c-.35.42-.08.81.2,1.17a3.83,3.83,0,0,0,.74.71,6.09,6.09,0,0,0,2.52,1,2.92,2.92,0,0,0,1.81-.31c.18-.09.45-.22.52-.43a.24.24,0,0,0-.22-.31Z"/><path class="cls-24" d="M125.51,76.76l2-.21a5.34,5.34,0,0,0,1.12-.18,2,2,0,0,0,1.29-1c.33-.84-.41-1.45-1.1-1.75a5.82,5.82,0,0,0-2.19-.35,9.08,9.08,0,0,0-2.38.3,1.64,1.64,0,0,0-.84.52.87.87,0,0,0-.2.77,1.23,1.23,0,0,0,1.54.59l.49-.11-.13,0,.14,0,.22,0,.52,0h.44q-.3,0-.15,0a8.27,8.27,0,0,1,1,.12l-.15,0,.11,0s.28.13.09,0,0,0,.07,0l.16.13-.19-.19a.71.71,0,0,1,.1.14l-.11-.24a.66.66,0,0,1,0,.15l0-.27a.15.15,0,0,1,0,.07l.07-.25c0,.06,0,0,0-.06a.4.4,0,0,1,.13-.16s.4-.26.22-.17c.24-.08.31-.11.2-.08l-.09,0s.35-.05.17,0l-.81.08-1.64.17a2,2,0,0,0-1,.36,1.12,1.12,0,0,0-.44.72,1,1,0,0,0,1.21.92Z"/><path class="cls-24" d="M122.52,83.42c-.59.1-1.19.18-1.78.22-.29,0-.57,0-.86,0h-.47c-.09,0-.26,0,0,0a1.13,1.13,0,0,1-.26,0l.11,1.66a7.46,7.46,0,0,1,1-.47c.09,0,.33-.09-.06,0l.29-.1.51-.14.53-.12-.12,0,.15,0,.24,0a9.18,9.18,0,0,1,1.17-.07,1.83,1.83,0,0,0,1-.36,1,1,0,0,0,.45-.67c0-.67-.66-.82-1.18-.82a10.44,10.44,0,0,0-5.08,1.28c-.36.21-.76.5-.73,1a.84.84,0,0,0,.85.69,19.68,19.68,0,0,0,4-.25,2.14,2.14,0,0,0,1-.35,1.09,1.09,0,0,0,.45-.68c0-.6-.66-.91-1.18-.82Z"/><path class="cls-24" d="M131.11,85.67a10.51,10.51,0,0,0,3.49.26,2.1,2.1,0,0,0,1.21-.52c.2-.2.38-.53.15-.78a5.41,5.41,0,0,0-1.91-1.3,7.15,7.15,0,0,0-2.69-.59,5.21,5.21,0,0,0-1.78.34,2.43,2.43,0,0,0-1.18.86.75.75,0,0,0,.12,1,2.06,2.06,0,0,0,1.22.43c.31,0,.62,0,.93,0H131c-.06,0-.28-.08-.12,0s-.19-.12,0,0-.09-.08-.09-.08l.08.09a1.07,1.07,0,0,0,.7.27,2.38,2.38,0,0,0,1-.2c.39-.18,1-.62.67-1.11s-1.4-.53-2.06-.52h-.46c-.19,0,.3.07,0,0s.22.15,0,0c.11.1.14.12.08.06l-.06-.07c.06.11.07.13.05.06,0,.14,0,.17,0,.09a.48.48,0,0,1-.17.27q.12-.12-.12.09c.17-.12-.32.14-.07,0s-.31.08-.06,0-.26,0,0,0h.3l.17,0q-.22,0,0,0l.33.07a6.06,6.06,0,0,1,.61.16l.11,0,.3.12c.19.09.37.19.55.29l.26.17.12.08h0c.14.13.28.26.41.4l1.35-1.3a2.55,2.55,0,0,1-.39,0h-.06c-.23,0-.45,0-.68,0l-.29,0c-.13,0-.13,0,0,0l-.19,0c-.22,0-.43-.09-.65-.15a2,2,0,0,0-1.82.49.66.66,0,0,0-.25.61c.06.22.31.34.51.4Z"/><path class="cls-24" d="M120.24,86.83s-.58.08-.33.07c-.3,0-.08,0,0,0s-.12,0,0,0a1.8,1.8,0,0,1,.22.06l.09,0c-.05,0-.05,0,0,0l.15.09a1,1,0,0,1,.28.23l-.08-.09a.94.94,0,0,1,.12.22l1.19-.76-.17,0,.18,0a1,1,0,0,0-.3.06l-.52.09-.3.05c-.08,0-.35.06,0,0l-.53,0c-.35,0-.7.05-1.06.07s.16,0-.07,0h-.88a3.17,3.17,0,0,0-1.83.49c-.12.08-.35.22-.3.39s.33.19.45.19a20.17,20.17,0,0,0,5.58-.57,2.82,2.82,0,0,0,.88-.36c.1-.08.36-.24.3-.4a1.54,1.54,0,0,0-1-.8A4.37,4.37,0,0,0,120,86a3.1,3.1,0,0,0-.88.37c-.09.06-.34.23-.3.39s.34.19.46.19a3.32,3.32,0,0,0,.94-.12Z"/><path class="cls-24" d="M104.06,89.43a4.23,4.23,0,0,0,2.27.41,4.48,4.48,0,0,0,2.3-.8.93.93,0,0,0,.47-.72c0-.31-.26-.47-.52-.55a9.54,9.54,0,0,0-6.32.39c-.37.15-1.06.72-.65,1.17a1.61,1.61,0,0,0,1.73.11,2.68,2.68,0,0,0,.3-.12c-.34.17-.13.05,0,0l.56-.14.16,0-.1,0,.25,0,.64-.06c.33,0-.2,0,.06,0h.29a5.63,5.63,0,0,1,.59,0,1.54,1.54,0,0,1,.3,0c-.3-.09,0,0,.07,0l.59.16,0-1.27c-.06.05-.32.21-.12.1s0,0,0,0c-.23.1.09,0,.12,0s-.47.1-.16.05,0,0,0,0l-.18,0c-.17,0,.07,0,.11,0h-.32s-.21,0,0,0,0,0,0,0l-.13,0c-.18-.05.12.08,0,0l-.14-.07a1.85,1.85,0,0,0-1.84.2c-.37.26-.76.85-.19,1.16Z"/><path class="cls-24" d="M100.15,91.22l-3.09.86,1.12,1.56c.11-.09.22-.18.34-.26s.34-.18,0,0l.19-.11a4,4,0,0,1,.42-.2l.11,0-.17.07.2-.07a3.17,3.17,0,0,1,.44-.12l.24-.06c.33-.06-.28,0-.05,0a6.58,6.58,0,0,1,1-.06,1.77,1.77,0,0,0,1-.36,1.14,1.14,0,0,0,.45-.72.77.77,0,0,0-.33-.69,1.58,1.58,0,0,0-.88-.22,7.46,7.46,0,0,0-2.39.37,6.51,6.51,0,0,0-2.22,1.18c-.32.28-.63.8-.31,1.21a1.36,1.36,0,0,0,1.43.35l3.09-.86a1.67,1.67,0,0,0,.84-.51.93.93,0,0,0,.2-.77,1.22,1.22,0,0,0-1.54-.58Z"/><path class="cls-24" d="M85.72,94.66H86a2,2,0,0,1-.35,0l.29.05a2.32,2.32,0,0,1-.45-.13l.24.1a1.45,1.45,0,0,1-.43-.26l.17.15a1.2,1.2,0,0,1-.28-.35l.1.19a.64.64,0,0,1-.08-.3v.21a.49.49,0,0,1,0-.12l-1.1.9.09,0-.35.06a3.91,3.91,0,0,1,.68-.06h-.33a4.37,4.37,0,0,1,.72.06l-.29,0a3.8,3.8,0,0,1,.8.22l-.25-.1a2.42,2.42,0,0,1,.5.27,1.45,1.45,0,0,0,.87.14,2.09,2.09,0,0,0,1-.34c.2-.15.45-.35.47-.62a.55.55,0,0,0-.29-.55,4.37,4.37,0,0,0-1.83-.65,6.1,6.1,0,0,0-2.17.1,1.74,1.74,0,0,0-.74.38.86.86,0,0,0-.35.52,1.51,1.51,0,0,0,.74,1.4,2.59,2.59,0,0,0,.79.37,3.93,3.93,0,0,0,1.28.12,1.92,1.92,0,0,0,1-.34c.18-.13.45-.37.47-.62a.53.53,0,0,0-.29-.55,1.59,1.59,0,0,0-.86-.15Z"/><path class="cls-24" d="M90,94.15l1.57-1.75a.33.33,0,0,0,.1-.3.38.38,0,0,0-.24-.22,1.69,1.69,0,0,0-.77-.12,3.1,3.1,0,0,0-1,.14,3.15,3.15,0,0,0-1.08.51,1,1,0,0,0-.39.5.18.18,0,0,0,0,.21.26.26,0,0,0,.2.15,1,1,0,0,0,.37,0,1.85,1.85,0,0,0,.47,0,3.13,3.13,0,0,0,1-.32l.24-.15a.76.76,0,0,0,.27-.32l0-.09-.1.16.07-.08-.18.16.08,0-.24.15.07,0-.3.13.08,0-.34.11.1,0-.35.07h.09l-.32,0h-.06l-.23,0,.13,0-.14-.52-1.56,1.75a.29.29,0,0,0,0,.43.57.57,0,0,0,.28.11,1.07,1.07,0,0,0,.4,0,3.21,3.21,0,0,0,1-.22,1.81,1.81,0,0,0,.71-.44Z"/><path class="cls-24" d="M67.28,84.85l.32,1.64a5.72,5.72,0,0,0,.14.72,1.05,1.05,0,0,0,.58.64A2.33,2.33,0,0,0,69.6,88,3.41,3.41,0,0,0,71,87.48a1.66,1.66,0,0,0,.73-.88,1.25,1.25,0,0,0-.09-.85c-.24-.57-.54-1.13-.8-1.7a.65.65,0,0,0-.51-.36,2.09,2.09,0,0,0-1,.06,2.12,2.12,0,0,0-.86.43c-.13.13-.35.36-.26.56l.53,1.11a3,3,0,0,1,.4,1.07v-.18a.89.89,0,0,1-.07.28l.09-.19L69.1,87l.16-.18-.07.06.14-.1c-.16.1.18-.09.18-.09l-.05,0c-.11,0,0,0,.25-.08h.06l.11,0,.25,0c-.13,0-.07,0,.15,0l-.11,0,.24.08-.13-.06.17.12a.93.93,0,0,1-.16-.18l.1.17a1.63,1.63,0,0,1-.13-.48l-.14-.68-.25-1.34c0-.21-.33-.32-.5-.36a2.42,2.42,0,0,0-1.83.49.63.63,0,0,0-.26.56Z"/><path class="cls-24" d="M63.69,72.93a3.44,3.44,0,0,0-.89.29,3.1,3.1,0,0,0-.73.46,2.21,2.21,0,0,0-.87,1.43,1.63,1.63,0,0,0,.48,1.25,3,3,0,0,0,.37.33,3.37,3.37,0,0,0,.46.25,3.53,3.53,0,0,0,.84.25,1.25,1.25,0,0,0,.51,0,1.32,1.32,0,0,0,.51-.16A1.45,1.45,0,0,0,65,76.4a1.91,1.91,0,0,0,.23-.9,2.5,2.5,0,0,0-.05-.55,3.14,3.14,0,0,0-.23-.53,1.07,1.07,0,0,0-.74-.38,1.9,1.9,0,0,0-1,.18,1.33,1.33,0,0,0-.66.62l-.08.24a.69.69,0,0,0,.13.48l0,0-.11-.22a1.29,1.29,0,0,1,.14.51l0-.25a1.27,1.27,0,0,1-.06.48l.08-.24a1.6,1.6,0,0,1-.1.23l1.68-.79-.07,0,.3.07a1.88,1.88,0,0,1-.47-.17l.25.13a1.55,1.55,0,0,1-.39-.28l.18.18a1.52,1.52,0,0,1-.26-.35l.11.22a.9.9,0,0,1-.09-.33l0,.25a.86.86,0,0,1,0-.28l-.08.25a.84.84,0,0,1,.13-.27l-.16.23A1.57,1.57,0,0,1,64,74.7l-.22.21a1.7,1.7,0,0,1,.3-.23l-.29.17a1.76,1.76,0,0,1,.37-.17l-.33.12a2.54,2.54,0,0,1,.37-.1,1.64,1.64,0,0,0,.85-.5.86.86,0,0,0,.21-.73.83.83,0,0,0-.55-.53l-.3-.07a1.73,1.73,0,0,0-.68.06Z"/><path class="cls-24" d="M70.18,61.9l0,.07-.09-.15a1.06,1.06,0,0,1,.13.58v-.18a7.31,7.31,0,0,0,0,.81,1.24,1.24,0,0,0,.24.58,1.93,1.93,0,0,0,1.85.61,3.37,3.37,0,0,0,1.45-.48,2.13,2.13,0,0,0,.74-.69,1.92,1.92,0,0,0,.21-1.41,2.59,2.59,0,0,0-.89-1.33,1.06,1.06,0,0,0-.69-.2,2.54,2.54,0,0,0-1,.2,1.49,1.49,0,0,0-.69.49c-.09.15-.18.37,0,.5a2.53,2.53,0,0,1,.58.64l-.09-.15a1.9,1.9,0,0,1,.27,1v-.18a1.27,1.27,0,0,1-.13.58l.09-.18a.92.92,0,0,1-.19.28l.17-.18-.08.07c-.1.09.15-.1.15-.1l0,0c-.09,0,0,0,.21-.1-.16.07.36-.1.21-.07l.22,0c-.17,0,.32,0,.18,0h.15l-.11,0,.24.07a1.23,1.23,0,0,1-.26-.12l.17.11a1,1,0,0,1-.29-.31l.09.15a1,1,0,0,1-.13-.56v.17c0-.25,0-.5,0-.75a1.31,1.31,0,0,0-.27-.69c-.13-.17-.52-.2-.69-.21a2.74,2.74,0,0,0-1,.21,1.49,1.49,0,0,0-.69.49l-.09.18a.3.3,0,0,0,.08.32Z"/><path class="cls-6" d="M118,108.27a13.17,13.17,0,0,0-4.43-1.5,12.29,12.29,0,0,0-3.43-.38,3.69,3.69,0,0,0-2.84,1.28c-.27.44-.28,1-.68,1.34-.71.7-2.27.67-3.08,1.31a1.1,1.1,0,0,0-.08,1.72,3.24,3.24,0,0,0,2.32.68,17.68,17.68,0,0,1,2.87-.34,7.84,7.84,0,0,1,1.37.34,8.37,8.37,0,0,0,5.88-.63,3.85,3.85,0,0,0,2.28-3.86"/><path class="cls-27" d="M76.65,13.85a12.5,12.5,0,0,0-3.56,4.65c-1.09,2.85.11,5.3,2.18,7.28,1.68,1.61,3.36,4,2.44,6.65-1.41,4-6,5.27-5.06,9.43s4,4.17,4,4.17-4.1-1.74-3.29-5.88c.26-1.33,3-3.25,4-4,2.65-2.1,4-5.68,1.89-8.63a15.57,15.57,0,0,0-2.07-2.07c-1.39-1.31-2.87-2.56-3.07-4.45C73.81,18.67,75.23,15.65,76.65,13.85Z"/><path class="cls-27" d="M64.77,26.12a9.49,9.49,0,0,1,2.7,3.53c.82,2.16-.09,4-1.66,5.52-1.27,1.22-3.08,3.22-2.38,5.21,1.07,3.06,4.42,3.31,3.69,6.47s-2.33,3.68-2.33,3.68,2.14-2.88,1.47-4.35a6.9,6.9,0,0,0-1.94-2.45c-2-1.59-3.1-5-1.49-7.27a12.26,12.26,0,0,1,1.57-1.57,6.59,6.59,0,0,0,2.28-3.76C66.87,29.39,65.84,27.49,64.77,26.12Z"/><path class="cls-27" d="M102.88,29.94a9.51,9.51,0,0,1,2.71,3.53c.82,2.16-.09,4-1.66,5.52-1.27,1.22-2.55,3-1.85,5,1.07,3.05,5,4.13,3.84,7.15a6.87,6.87,0,0,1-3,3.16s2.76-2.63,2.1-4.11a10,10,0,0,0-2.58-2.69c-2-1.59-3.09-5-1.48-7.27a11.65,11.65,0,0,1,1.57-1.57c1-1,2.25-2.29,2.41-3.72C105.11,33.25,104,31.31,102.88,29.94Z"/><path class="cls-27" d="M96.86,17c-1.47,1.32-3.51,2.13-4.21,4-1.09,2.85-.16,4.4,1.9,6.37,1.68,1.61,4,4.71,3.11,7.34-1.41,4-6.69,4.58-5.73,8.75s4,4.16,4,4.16-3.75-2-1.94-5.74a9.47,9.47,0,0,1,2.57-3.22c2.65-2.1,4.08-6.64,2-9.58A15,15,0,0,0,96.42,27c-1.39-1.31-2.9-2.23-3.1-4.12C93.07,20.58,95.44,18.83,96.86,17Z"/><path class="cls-27" d="M80.74,18.24a10.25,10.25,0,0,0,2.92,6.62c2,2,4.94,6.47,3.81,9.68-1.72,4.92-6.85,5.29-5.44,10.32a8.66,8.66,0,0,0,3.28,4.73s-3.46-4.64-2.38-7a11.27,11.27,0,0,1,3.14-3.94c3.24-2.56,5-8.11,2.39-11.7a18.9,18.9,0,0,0-2.53-2.53c-1.69-1.61-3.78-4-4-6.28a10.91,10.91,0,0,1,.12-3c.4-1.45,2.29-4.51,4-4.43,2.43.11,3.86,4.77,2.22,5.61s-1.45,1-1.45,1A3,3,0,0,0,90,15.05c.88-3.15-2.67-6.31-5.4-4.76C84.61,10.29,80.35,12.32,80.74,18.24Z"/><path class="cls-7" d="M89.56,119.29a8.52,8.52,0,0,0,0-2.08v.26a3.57,3.57,0,0,1,0-.73l0-.17c0-.19,0,0,0,0l.07-.16c.06-.13.11,0,0,0a.48.48,0,0,0,.09-.11c-.15.13-.18.16-.1.1l.09-.06s-.29.18-.11.08-.27.07-.12,0a.77.77,0,0,0,.19,0c-.3.13-.28,0-.12,0l.43,0-1.31-.87a13.81,13.81,0,0,0-.55,5.46c0,.26.39.47.6.54a2.05,2.05,0,0,0,1.1,0c.62-.19,1.26-.6,1.2-1.32,0-.16,0-.32,0-.48v.26a13.48,13.48,0,0,1,.6-4.72.68.68,0,0,0-.33-.67,1.68,1.68,0,0,0-1-.19,4,4,0,0,0-3.35,1.67,4.66,4.66,0,0,0-.22,2.67l0-.26a3.59,3.59,0,0,1-.05,1,.69.69,0,0,0,.34.67,1.52,1.52,0,0,0,1,.19c.64-.07,1.46-.41,1.61-1.12Z"/><path class="cls-28" d="M92.29,121.71a10.81,10.81,0,0,1,.61-5.49.13.13,0,0,0-.06-.2,3.74,3.74,0,0,0-2.22.06,3.4,3.4,0,0,0-2.94,3.45A2.65,2.65,0,0,0,88.1,122a1.77,1.77,0,0,0,1,.52,4.79,4.79,0,0,0,2.63-.49c.19-.09,1-.56.38-.66a3.94,3.94,0,0,0-2,.39l1.13-.29c.36,0,.46,0,.31,0s-.16,0-.07,0a1.14,1.14,0,0,1-.29-.15,1.22,1.22,0,0,1-.46-.47,2.82,2.82,0,0,1-.18-1.79,7.27,7.27,0,0,1,.43-1.71,2.05,2.05,0,0,1,.4-.64l.09-.08s0,0,0,0,0,0-.1,0l-1.07.29h-.15c-.2,0,0,0,0,0l0-.2a11.13,11.13,0,0,0-.65,5.71c0,.16.43.16.49.16a4.18,4.18,0,0,0,1.06-.16,3.85,3.85,0,0,0,1-.39c.13-.08.38-.2.35-.38Z"/><path class="cls-28" d="M104,122.08a4.56,4.56,0,0,0,2.34-.25,4.36,4.36,0,0,0,1.43-.83,3.56,3.56,0,0,0,.93-1.79c0-.15.08-.3.11-.45a.89.89,0,0,0,0-.51c-.23-.5-1-.48-1.42-.44a4.62,4.62,0,0,0-3.13,1.43,5.18,5.18,0,0,0-.89,2.17c0,.2.06.28.25.34a2.24,2.24,0,0,0,.93,0,3.92,3.92,0,0,0,1.1-.35l.27-.15a1,1,0,0,0,.32-.32,4.91,4.91,0,0,1,.72-1.93l-.12.15.26-.3.06,0c-.15.12.06,0,.09-.06s-.29.16-.15.09l.08,0-.21.09-.25.08s-.44.09-.25.06l-.25,0h-.09c-.32,0,.1,0-.14,0s0,0,0,0l-.18-.08a.5.5,0,0,1,.14.1l-.09-.12a.56.56,0,0,1,.08.38v-.14a6.87,6.87,0,0,1-.24,1,3.51,3.51,0,0,1-.45.91l.12-.16a2.73,2.73,0,0,1-.23.25l-.07.06.09-.07s-.24.15,0,0,.12-.08,0,0-.06,0,.2-.08l.25-.08c-.09,0-.06,0,.11,0l.1,0c.29,0,.36,0,.22,0h.18l.11,0a2.59,2.59,0,0,0-.92,0,4.22,4.22,0,0,0-1.11.35l-.27.16a.84.84,0,0,0-.31.31.26.26,0,0,0,.24.34Z"/><path class="cls-28" d="M118.07,105.46l-1.71,0h-.82c-.1,0-.28,0,.1,0h-.17c-.17,0,.22.08,0,0s-.1,0-.14-.07l.18.1a.63.63,0,0,1-.19-.17l.09.14a.65.65,0,0,1-.1-.4v.16a1,1,0,0,1,.13-.37l-.11.18a.57.57,0,0,1,.08-.13c.1-.13-.16.13-.07.06s-.27.15-.09.06a1.51,1.51,0,0,1-.35.14c-.16,0-.18.06-.08,0,.25-.07-.41.08-.15,0s-.31,0-.14,0h.68c.25,0-.29,0,0,0l.21,0h.06c.09,0,.09,0,0,0h0l.06,0a1.33,1.33,0,0,1,.33.13l-.18-.1a1.52,1.52,0,0,1,.57.5l-.1-.14a1.24,1.24,0,0,1,.16.4c0,.2.38.27.53.29a3,3,0,0,0,1.07-.11,2.81,2.81,0,0,0,1-.44c.15-.12.37-.29.32-.52a1.84,1.84,0,0,0-1.39-1.27,6.57,6.57,0,0,0-3,0,4.24,4.24,0,0,0-1.81.77,1.51,1.51,0,0,0-.59,1c-.07,1,1.08,1.07,1.79,1.08.87,0,1.74,0,2.61,0a3.13,3.13,0,0,0,1.13-.24,1.85,1.85,0,0,0,.8-.49c.1-.14.21-.33,0-.48a1.25,1.25,0,0,0-.76-.16Z"/><path class="cls-28" d="M116.62,114.44a4,4,0,0,0,3.14-.61,2.8,2.8,0,0,0,1.3-1.94c.06-.67-.78-.85-1.3-.79a2.35,2.35,0,0,0-1.09.39,1.18,1.18,0,0,0-.53.69,1.86,1.86,0,0,1-.1.39l.09-.25a2,2,0,0,1-.3.56l.18-.24a2.11,2.11,0,0,1-.39.4l.26-.21a2.8,2.8,0,0,1-.4.27l.33-.18a2.43,2.43,0,0,1-.37.16l.38-.13a2.79,2.79,0,0,1-.39.1l.39-.07a1.72,1.72,0,0,1-.39,0h.37a2.19,2.19,0,0,1-.36,0l.33.06a3.31,3.31,0,0,1-.42-.12l.28.11-.08,0a1.78,1.78,0,0,0-1-.16,2.23,2.23,0,0,0-1.09.38c-.22.17-.51.4-.53.7a.61.61,0,0,0,.32.62,3.68,3.68,0,0,0,.77.26,4.61,4.61,0,0,0,1.17.08,4.56,4.56,0,0,0,1.78-.5,3.63,3.63,0,0,0,2.06-2.5l-2.92.29a1.43,1.43,0,0,1-.09.41l.09-.25a1.48,1.48,0,0,1-.25.44l.18-.24a1.7,1.7,0,0,1-.29.31l.26-.22a1.73,1.73,0,0,1-.28.19l.32-.18a2,2,0,0,1-.3.14l.37-.13-.24.06.39-.07a1.36,1.36,0,0,1-.29,0h.37l-.25,0,.33.06-.12,0a2.23,2.23,0,0,0-1.09,0,2,2,0,0,0-1,.52.76.76,0,0,0-.26.73.78.78,0,0,0,.59.49Z"/><path class="cls-28" d="M122.5,118.88l3.33-1.95c.54-.31,1.53-.81,1.25-1.6-.2-.55-.75-.74-1.07-1.18l.1.15a.57.57,0,0,1-.11-.38V114c.09-.59-.85-.56-1.22-.5a3,3,0,0,0-1.1.37c-.2.12-.51.29-.56.55a7.19,7.19,0,0,1-.76,2l.1-.19a7.38,7.38,0,0,1-.79,1.13l-.23.25a1.36,1.36,0,0,0-.12.12c.06-.08.14-.13,0,0l-.55.46c-.14.11-.36.34-.3.55s.36.31.54.33a2.89,2.89,0,0,0,2-.55A7.75,7.75,0,0,0,126,114l-2.88.42a1,1,0,0,0,.37,1,5.39,5.39,0,0,1,.7.65l-.1-.15a.63.63,0,0,1,.12.4v-.18a.58.58,0,0,1-.06.17l.11-.19c-.07.09,0,.07.07,0-.1.08-.06,0,.12-.07a1.32,1.32,0,0,0-.2.12l-.51.3-1,.57-2,1.18c-.19.11-.5.31-.56.55a.37.37,0,0,0,.27.45,2.66,2.66,0,0,0,2-.31Z"/><path class="cls-28" d="M121.25,111.07l2,.77a15.51,15.51,0,0,0,2.11.74,5.09,5.09,0,0,0,4.69-1.11.77.77,0,0,0,.28-.66.73.73,0,0,0-.57-.43,2.38,2.38,0,0,0-2.05.54l-.15.14c.13-.09.15-.11.07-.06-.33.17.21-.07-.06,0,.43-.17.06,0,0,0,.42-.2.1,0,0,0h-.13c-.26,0,.12,0-.15,0s-.51-.13-.75-.21c-.84-.28-2-.77-2.95-1.14a2.29,2.29,0,0,0-2.06.25c-.34.24-.91.94-.23,1.2Z"/><path class="cls-28" d="M112.53,128.31a9.81,9.81,0,0,0-.13-3.06.94.94,0,0,0-.61-.59,1.91,1.91,0,0,0-1.11,0c-.6.18-1.32.66-1.18,1.39a8.45,8.45,0,0,1,.15,1.11l0-.28a8.48,8.48,0,0,1,0,1.67.79.79,0,0,0,.35.72,1.57,1.57,0,0,0,1,.23,2,2,0,0,0,1.09-.4,1.26,1.26,0,0,0,.51-.77Z"/><path class="cls-28" d="M94.63,129a6.68,6.68,0,0,0,6.4,2.54,2.89,2.89,0,0,0,1.1-.38c.19-.13.51-.4.53-.66.07-.66-.79-.8-1.27-.72l-.35,0a.61.61,0,0,1-.19,0s.33,0,.14,0h-.39l-.15,0s-.28,0-.06,0h-.07l-.15,0-.34-.09-.33-.1c-.24-.08.16.07,0,0l-.18-.08a5.07,5.07,0,0,1-.61-.32l-.29-.19-.16-.11c.07,0,.1.08,0,0a5.57,5.57,0,0,1-1-1.07,1.1,1.1,0,0,0-.79-.3,2.47,2.47,0,0,0-1.14.21c-.45.22-1.14.7-.75,1.27Z"/><path class="cls-28" d="M105,102.27a7.61,7.61,0,0,0-4.86,1.87c-.15.14-.35.38-.29.61s.35.35.56.39a2.48,2.48,0,0,0,1.08-.07,2.52,2.52,0,0,0,1-.48l.31-.27c.24-.18-.22.15,0,0l.17-.12.31-.18-.19.1.09,0,.19-.08.19-.08.1,0-.23.08.35-.1.1,0-.24.05.2,0,.21,0h.1c-.28,0-.35,0-.21,0a3.46,3.46,0,0,0,1.14-.23,1.79,1.79,0,0,0,.77-.56c.11-.18.19-.41,0-.58a1,1,0,0,0-.77-.24Z"/></svg>